<?xml version="1.0" encoding="UTF-8" standalone="no"?>
<!DOCTYPE svg PUBLIC "-//W3C//DTD SVG 1.1//EN" "http://www.w3.org/Graphics/SVG/1.1/DTD/svg11.dtd">
<svg width="320" height="64" viewBox="0 0 320 64" version="1.1" xmlns="http://www.w3.org/2000/svg" xmlns:xlink="http://www.w3.org/1999/xlink" xml:space="preserve" style="fill-rule:evenodd;clip-rule:evenodd;">
    <rect id="bg" x="0" y="0" width="320" height="64" style="fill:#202020; display:none;"/>
    <g id="grid" opacity="0.05" style="display:none;">
        <rect x="262" y="6" width="52" height="52" style="fill:#fff;"/>
        <rect x="198" y="6" width="52" height="52" style="fill:#fff;"/>
        <rect x="134" y="6" width="52" height="52" style="fill:#fff;"/>
        <rect x="70" y="6" width="52" height="52" style="fill:#fff;"/>
        <rect x="6" y="6" width="52" height="52" style="fill:#fff;"/>
    </g>
    <g id="WARNING">
        <path d="M35.462,10.006c-0.714,-1.241 -2.036,-2.006 -3.468,-2.006c-1.432,-0 -2.754,0.765 -3.468,2.006l-23,40c-0.711,1.238 -0.709,2.761 0.006,3.997c0.715,1.236 2.034,1.997 3.462,1.997l46,0c1.428,0 2.747,-0.761 3.462,-1.997c0.715,-1.236 0.717,-2.759 0.006,-3.997l-23,-40Zm-2.601,1.496l23,40c0.178,0.309 0.177,0.69 -0.001,0.999c-0.179,0.309 -0.509,0.499 -0.866,0.499l-46,0c-0.357,-0 -0.687,-0.19 -0.866,-0.499c-0.178,-0.309 -0.179,-0.69 -0.001,-0.999c0,-0 23,-40 23,-40c0.179,-0.311 0.509,-0.502 0.867,-0.502c0.358,0 0.689,0.191 0.867,0.502Z" style="fill:#fff;"/>
        <circle cx="32" cy="46.5" r="2.5" style="fill:#fff;"/>
        <path d="M32,24c1.38,0 2.5,1.12 2.5,2.5l-1.5,14.5l-2,0l-1.5,-14.5c0,-1.38 1.12,-2.5 2.5,-2.5Z" style="fill:#fff;"/>
    </g>
    <g id="QUESTION">
        <path d="M96,6c14.35,-0 26,11.65 26,26c-0,14.35 -11.65,26 -26,26c-14.35,-0 -26,-11.65 -26,-26c-0,-14.35 11.65,-26 26,-26Zm-0,3c12.694,-0 23,10.306 23,23c-0,12.694 -10.306,23 -23,23c-12.694,-0 -23,-10.306 -23,-23c-0,-12.694 10.306,-23 23,-23Z" style="fill:#fff;"/>
        <circle cx="96" cy="44" r="3" style="fill:#fff;"/>
        <path d="M90.549,23.479l-1.513,-3.293c-0.002,-0.011 3.28,-2.209 7.964,-2.186c3.557,0.018 5.213,1.34 5.855,1.849c1.185,0.939 2.131,2.714 2.131,5.105c-0,0.741 -0.095,1.683 -0.424,2.567c-0.292,0.787 -0.706,1.528 -1.226,2.142c-0.883,1.042 -2.347,2.273 -2.825,2.656c-0.477,0.382 -1.73,1.348 -2.411,2.341c-0.48,0.7 -0.6,1.743 -0.6,2.485l-0,0.855l-3.5,0l0,-1.236c0,-0.269 0.032,-2.339 0.716,-3.511c0.709,-1.212 1.371,-1.885 2.599,-2.906c1.204,-1.002 2.275,-1.967 2.841,-2.814c0.54,-0.81 0.637,-1.629 0.637,-2.399c0,-0.77 -0.167,-1.716 -1.036,-2.482c-0.797,-0.702 -2.36,-0.865 -3.257,-0.865c-1.083,-0 -1.867,0.158 -2.99,0.526c-1.448,0.475 -2.961,1.166 -2.961,1.166Z" style="fill:#fff;"/>
    </g>
    <g id="ERROR">
        <path d="M186,22.059c0,-0.531 -0.211,-1.039 -0.586,-1.414l-14.059,-14.059c-0.375,-0.375 -0.883,-0.586 -1.414,-0.586l-19.882,0c-0.531,0 -1.039,0.211 -1.414,0.586l-14.059,14.059c-0.375,0.375 -0.586,0.883 -0.586,1.414l-0,19.882c0,0.531 0.211,1.039 0.586,1.414l14.059,14.059c0.375,0.375 0.883,0.586 1.414,0.586l19.882,-0c0.531,-0 1.039,-0.211 1.414,-0.586l14.059,-14.059c0.375,-0.375 0.586,-0.883 0.586,-1.414l-0,-19.882Zm-3,0.828c0,-0.265 -0.105,-0.519 -0.293,-0.707l-12.887,-12.887c-0.188,-0.188 -0.442,-0.293 -0.707,-0.293l-18.226,0c-0.265,0 -0.519,0.105 -0.707,0.293l-12.887,12.887c-0.188,0.188 -0.293,0.442 -0.293,0.707l0,18.226c0,0.265 0.105,0.519 0.293,0.707l12.887,12.887c0.188,0.188 0.442,0.293 0.707,0.293l18.226,-0c0.265,0 0.519,-0.105 0.707,-0.293l12.887,-12.887c0.188,-0.188 0.293,-0.442 0.293,-0.707l0,-18.226Z" style="fill:#fff;"/>
        <path d="M150.808,19.979c-0.391,-0.39 -1.024,-0.39 -1.415,0l-1.414,1.414c-0.39,0.391 -0.39,1.024 0,1.415l21.213,21.213c0.391,0.39 1.024,0.39 1.415,-0l1.414,-1.414c0.39,-0.391 0.39,-1.024 -0,-1.415l-21.213,-21.213Z" style="fill:#fff;"/>
        <path d="M172.021,22.808c0.39,-0.391 0.39,-1.024 -0,-1.415l-1.414,-1.414c-0.391,-0.39 -1.024,-0.39 -1.415,0l-21.213,21.213c-0.39,0.391 -0.39,1.024 0,1.415l1.414,1.414c0.391,0.39 1.024,0.39 1.415,-0l21.213,-21.213Z" style="fill:#fff;"/>
    </g>
    <g id="ERROR-ALT" style="display:none;">
        <path d="M186,22.059c0,-0.531 -0.211,-1.039 -0.586,-1.414l-14.059,-14.059c-0.375,-0.375 -0.883,-0.586 -1.414,-0.586l-19.882,0c-0.531,0 -1.039,0.211 -1.414,0.586l-14.059,14.059c-0.375,0.375 -0.586,0.883 -0.586,1.414l-0,19.882c0,0.531 0.211,1.039 0.586,1.414l14.059,14.059c0.375,0.375 0.883,0.586 1.414,0.586l19.882,-0c0.531,-0 1.039,-0.211 1.414,-0.586l14.059,-14.059c0.375,-0.375 0.586,-0.883 0.586,-1.414l-0,-19.882Zm-3,0.828c0,-0.265 -0.105,-0.519 -0.293,-0.707l-12.887,-12.887c-0.188,-0.188 -0.442,-0.293 -0.707,-0.293l-18.226,0c-0.265,0 -0.519,0.105 -0.707,0.293l-12.887,12.887c-0.188,0.188 -0.293,0.442 -0.293,0.707l0,18.226c0,0.265 0.105,0.519 0.293,0.707l12.887,12.887c0.188,0.188 0.442,0.293 0.707,0.293l18.226,-0c0.265,0 0.519,-0.105 0.707,-0.293l12.887,-12.887c0.188,-0.188 0.293,-0.442 0.293,-0.707l0,-18.226Z" style="fill:#fff;"/>
        <circle cx="160" cy="44" r="3" style="fill:#fff;"/>
        <path d="M160,18c1.656,0 3,1.344 3,3l-2,16l-2,0l-2,-16c0,-1.656 1.344,-3 3,-3Z" style="fill:#fff;"/>
    </g>
    <g id="INFO">
        <path d="M224,6c14.35,-0 26,11.65 26,26c-0,14.35 -11.65,26 -26,26c-14.35,-0 -26,-11.65 -26,-26c-0,-14.35 11.65,-26 26,-26Zm-0,3c12.694,-0 23,10.306 23,23c-0,12.694 -10.306,23 -23,23c-12.694,-0 -23,-10.306 -23,-23c-0,-12.694 10.306,-23 23,-23Z" style="fill:#fff;"/>
        <path d="M217.675,29.977l0.232,-1.395c0,0 2.519,-1.582 5.587,-1.582c3.067,-0 4.005,1.542 4.005,3.758c0,3.17 -2.242,7.836 -2.242,10.262c-0,1.379 0.725,1.645 1.861,1.645c0.945,-0 1.921,-0.136 2.367,-0.57l-0.492,1.602c-0,-0 -2.626,1.303 -5.207,1.303c-3.241,0 -4.297,-1.5 -4.28,-3.758c0.018,-2.4 2.249,-7.276 2.249,-10.099c0,-1.734 -1.269,-1.641 -1.917,-1.641c-1.32,-0 -2.163,0.475 -2.163,0.475Z" style="fill:#fff;"/>
        <ellipse cx="226.5" cy="21" rx="3.5" ry="3" style="fill:#fff;"/>
    </g>
    <g id="BLENDER">
        <path d="M310.66,22.503l-18.849,-14.481c-1.34,-1.042 -3.719,-0.803 -4.899,0.315c-1.14,1.078 -1.095,2.428 0.265,3.486l7.609,6.177l-23.895,0c-1.805,0 -3.795,1.138 -4.224,2.835c-0.482,1.91 1.059,3.165 3.103,3.165l11.938,0l-21.565,16.506c-2.094,1.619 -2.827,4.19 -1.508,5.787c1.289,1.559 3.983,1.635 6.073,0.122l11.865,-9.71c-0.193,1.075 -0.219,2.327 -0.065,3.264c1.52,9.103 10.046,16.034 20.637,16.034c11.525,0 20.855,-8.55 20.855,-18.96c0.007,-5.892 -2.877,-11.109 -7.34,-14.54Zm-13.534,24.534c-7.022,0 -12.714,-5.181 -12.714,-11.515c-0,-6.337 5.692,-11.577 12.714,-11.577c7.022,-0 12.714,5.131 12.714,11.577c0,6.295 -5.692,11.515 -12.714,11.515Z" style="fill:#fff;fill-rule:nonzero;"/>
        <path d="M297.391,27.766c-4.479,-0 -8.113,3.342 -8.113,7.383c-0,4.04 3.634,7.343 8.113,7.343c4.48,0 8.114,-3.303 8.114,-7.343c0,-4.041 -3.634,-7.383 -8.114,-7.383Z" style="fill:#fff;fill-rule:nonzero;"/>
    </g>
    <g id="BLENDER-COLOR" style="display:none;">
        <path d="M297,21.75c-8.282,0 -15,6.205 -15,13.75c0,7.545 6.718,13.75 15,13.75c8.282,0 15,-6.205 15,-13.75c0,-7.545 -6.718,-13.75 -15,-13.75Z" style="fill:#fff;fill-rule:nonzero;"/>
        <path d="M310.66,22.503l-18.849,-14.481c-1.34,-1.042 -3.719,-0.803 -4.899,0.315c-1.14,1.078 -1.095,2.428 0.265,3.486l7.609,6.177l-23.895,0c-1.805,0 -3.795,1.138 -4.224,2.835c-0.482,1.91 1.059,3.165 3.103,3.165l11.938,0l-21.565,16.506c-2.094,1.619 -2.827,4.19 -1.508,5.787c1.289,1.559 3.983,1.635 6.073,0.122l11.865,-9.71c-0.193,1.075 -0.219,2.327 -0.065,3.264c1.52,9.103 10.046,16.034 20.637,16.034c11.525,0 20.855,-8.55 20.855,-18.96c0.007,-5.892 -2.877,-11.109 -7.34,-14.54Zm-13.534,24.534c-7.022,0 -12.714,-5.181 -12.714,-11.515c-0,-6.337 5.692,-11.577 12.714,-11.577c7.022,-0 12.714,5.131 12.714,11.577c0,6.295 -5.692,11.515 -12.714,11.515Z" style="fill:#e87d0d;fill-rule:nonzero;"/>
        <path d="M297.391,27.766c-4.479,-0 -8.113,3.342 -8.113,7.383c-0,4.04 3.634,7.343 8.113,7.343c4.48,0 8.114,-3.303 8.114,-7.343c0,-4.041 -3.634,-7.383 -8.114,-7.383Z" style="fill:#265787;fill-rule:nonzero;"/>
    </g>
</svg>
