<?xml version="1.0" encoding="UTF-8"?>
<svg width="1024px" height="1024px" viewBox="0 0 1024 1024" version="1.1" xmlns="http://www.w3.org/2000/svg" xmlns:xlink="http://www.w3.org/1999/xlink">
    <title>Blender Logo</title>
    <g id="Blender-Logo" stroke="none" fill="none" fill-rule="evenodd" stroke-width="1">
        <g id="Logo" transform="translate(75, 151)">
            <path d="M330.261615,379.121192 C333.322374,324.466765 360.060704,276.315376 400.399199,242.181648 C439.958067,208.654871 493.203725,188.163073 551.300398,188.163073 C609.339321,188.163073 662.584979,208.654871 702.172722,242.181648 C742.482342,276.315376 769.220672,324.466765 772.310306,379.063388 C775.371065,435.22074 752.819623,487.389562 713.260755,526.060965 C672.92226,565.397124 615.547464,590.079769 551.300398,590.079769 C487.053332,590.079769 429.563036,565.397124 389.253416,526.060965 C349.665673,487.389562 327.171981,435.22074 330.261615,379.121192 Z" id="Path" fill="#FFFFFF"></path>
            <path d="M257.285355,440.691838 C257.477963,451.666033 260.974535,472.991563 266.219392,489.645646 C277.242482,524.89654 295.94025,557.507695 321.957113,586.248222 C348.655511,615.789569 381.532174,639.517558 419.505533,656.36443 C459.419787,674.056612 502.667636,683.073248 547.589691,682.999552 C592.437666,682.939778 635.685515,673.745182 675.599768,655.91953 C713.573128,638.909528 746.420158,615.077729 773.074108,585.521552 C799.076155,556.662385 817.744292,523.99191 828.797014,488.741016 C834.353007,470.930194 837.864394,452.852432 839.271912,434.715351 C840.649799,416.845209 840.071975,398.945407 837.538443,381.060435 C832.589905,346.209951 820.544512,313.509815 801.994904,283.701529 C785.030605,256.310531 763.162217,232.330432 737.16017,212.146811 L737.219434,212.102321 L474.813591,10.4292426 C474.576535,10.2512827 474.383928,10.0584928 474.132056,9.89536284 C456.915886,-3.33299117 427.965459,-3.28850119 409.030635,9.96951281 C389.888387,23.3758267 387.695622,45.5466667 404.734,59.5313504 L404.65992,59.6055003 L514.105573,148.68927 L180.523757,149.04519 L180.079277,149.04519 C152.506736,149.07485 126.000946,167.182272 120.756089,190.064951 C115.363071,213.377701 134.090472,232.716012 162.759395,232.819822 L162.714947,232.923632 L331.794925,232.597372 L30.0822837,464.404997 C29.6970682,464.686767 29.2822207,464.983367 28.9266372,465.265137 C0.465137302,487.080057 -8.73558702,523.35422 9.19175022,546.31105 C27.3857751,569.65346 66.070302,569.69795 94.8281215,546.44452 L259.492936,411.550901 C259.492936,411.550901 257.092747,429.762133 257.285355,440.691838 Z M680.414962,501.67277 C646.486365,536.271145 598.986329,555.891226 547.589691,555.99534 C496.118972,556.084016 448.618936,536.641894 414.690339,502.10284 C398.111256,485.270798 385.93252,465.902826 378.420817,445.274306 C371.057275,425.001705 368.19779,403.483385 370.094236,381.772275 C371.88697,360.550554 378.198578,340.307613 388.273445,321.992572 C398.17052,303.98896 411.801223,287.720457 428.632178,273.958223 C461.612552,247.056616 503.601043,232.493562 547.515611,232.43406 C591.474627,232.374922 633.433486,246.804506 666.443492,273.617133 C683.244814,287.320047 696.860701,303.52923 706.757777,321.503182 C716.877092,339.803394 723.144252,359.972184 725.011065,381.253225 C726.877879,402.934675 724.018395,424.423335 716.654852,444.710766 C709.128334,465.398607 696.994045,484.766578 680.414962,501.67277 Z" id="Shape" fill="#E87D0D" fill-rule="nonzero"></path>
            <path d="M437.892166,384.026434 C439.46266,355.982916 453.182259,331.276147 473.880184,313.761925 C494.178078,296.559133 521.498748,286.044668 551.308502,286.044668 C581.088624,286.044668 608.409293,296.559133 628.722004,313.761925 C649.405113,331.276147 663.124712,355.982916 664.710022,383.996774 C666.280516,412.811451 654.709235,439.579588 634.41134,459.422119 C613.713415,479.60574 584.27406,492.270555 551.308502,492.270555 C518.342944,492.270555 488.844325,479.60574 468.161216,459.422119 C447.848505,439.579588 436.306856,412.811451 437.892166,384.026434 Z" id="Path" fill="#265787"></path>
        </g>
    </g>
</svg>