<?xml version="1.0" encoding="UTF-8" standalone="no"?>
<svg
   xmlns:osb="http://www.openswatchbook.org/uri/2009/osb"
   xmlns:dc="http://purl.org/dc/elements/1.1/"
   xmlns:cc="http://creativecommons.org/ns#"
   xmlns:rdf="http://www.w3.org/1999/02/22-rdf-syntax-ns#"
   xmlns:svg="http://www.w3.org/2000/svg"
   xmlns="http://www.w3.org/2000/svg"
   width="16"
   height="16"
   viewBox="0 0 207.28589 207.28587"
   version="1.1"
   id="svg8">
  <defs
     id="defs2">
    <linearGradient
       osb:paint="gradient"
       id="linearGradient831">
      <stop
         id="stop837"
         offset="0"
         style="stop-color:#c00000;stop-opacity:1;" />
      <stop
         id="stop839"
         offset="1"
         style="stop-color:#265787;stop-opacity:0;" />
    </linearGradient>
    <linearGradient
       id="linearGradient831-3"
       osb:paint="gradient">
      <stop
         style="stop-color:#747474;stop-opacity:1"
         offset="0"
         id="stop827" />
      <stop
         style="stop-color:#3a3a3a;stop-opacity:1"
         offset="1"
         id="stop829" />
    </linearGradient>
  </defs>
  <metadata
     id="metadata5">
    <rdf:RDF>
      <cc:Work
         rdf:about="">
        <dc:format>image/svg+xml</dc:format>
        <dc:type
           rdf:resource="http://purl.org/dc/dcmitype/StillImage" />
        <dc:title></dc:title>
      </cc:Work>
    </rdf:RDF>
  </metadata>
  <g
     transform="translate(-1.6560511,-0.91295093)"
     id="layer1">
    <path
       style="font-style:normal;font-variant:normal;font-weight:normal;font-stretch:normal;font-size:192px;line-height:1.25;font-family:Literata;-inkscape-font-specification:Literata;letter-spacing:0px;word-spacing:0px;fill:#000000;fill-opacity:1;stroke:#000000;stroke-width:0;stroke-miterlimit:4;stroke-dasharray:none;stroke-opacity:1"
       d="m 135.41273,39.396107 c -14.62088,0 -26.85998,8.542558 -36.716758,25.627635 h -0.738899 l -2.711002,-22.177731 -2.956623,-1.724951 -33.266853,2.710492 -1.724953,12.074662 12.074662,1.72495 c 3.614154,0.657118 5.914131,1.888958 6.899808,3.696035 0.985677,1.807075 1.478311,5.667825 1.478311,11.581892 v 68.997559 c 0,4.27127 -0.410779,7.2281 -1.232182,8.87088 -0.821396,1.47853 -2.546377,2.4643 -5.174855,2.95713 l -11.82802,2.21773 v 11.82802 h 68.504794 v -11.58138 l -21.1922,-3.20378 c -2.62848,-0.49284 -4.35345,-1.31439 -5.17486,-2.46436 -0.65712,-1.31423 -0.98554,-4.02448 -0.98554,-8.13147 V 92.376329 c 0,-5.585504 1.06763,-10.842818 3.20327,-15.771206 2.13563,-5.09267 4.84639,-9.363691 8.13199,-12.813564 3.44986,-3.614149 7.14642,-5.99649 11.08912,-7.146447 3.94271,-1.314235 7.72109,-1.067664 11.33525,0.739413 -1.6428,3.121311 -2.87515,5.832075 -3.69654,8.131988 -0.65712,2.299914 -0.98554,4.353318 -0.98554,6.160396 0,3.449872 1.23184,6.160633 3.69602,8.131987 2.62848,1.807077 6.24267,2.710494 10.84249,2.710494 5.42122,0 9.52854,-1.642622 12.3213,-4.928215 2.79276,-3.285592 4.18881,-8.132121 4.18881,-14.539025 0,-7.228301 -2.29998,-12.977736 -6.89981,-17.249006 -4.59983,-4.27127 -10.76004,-6.407037 -18.48119,-6.407037 z"
       id="path832-7" />
    <path
       style="opacity:1;fill:#000000;fill-opacity:1;stroke:none;stroke-width:0;stroke-miterlimit:4;stroke-dasharray:none;stroke-opacity:1"
       d="M 105.29899,0.91295093 A 103.64286,103.64286 0 0 0 1.6560511,104.55589 103.64286,103.64286 0 0 0 105.29899,208.19883 103.64286,103.64286 0 0 0 208.94194,104.55589 103.64286,103.64286 0 0 0 105.29899,0.91295093 Z m -0.001,15.56396607 A 88.081332,88.081332 0 0 1 193.3795,104.55845 88.081332,88.081332 0 0 1 105.29797,192.63947 88.081332,88.081332 0 0 1 17.216436,104.55845 88.081332,88.081332 0 0 1 105.29797,16.476917 Z"
       id="path815-3" />
    <circle
       style="opacity:1;fill:#000000;fill-opacity:1;stroke:#000000;stroke-width:0;stroke-linecap:butt;stroke-miterlimit:4;stroke-dasharray:none;stroke-opacity:1;paint-order:normal"
       id="path841"
       cx="204.55521"
       cy="-35.661095"
       r="8.6471577"
       transform="rotate(42.38951)" />
    <circle
       style="opacity:1;fill:#000000;fill-opacity:1;stroke:#000000;stroke-width:0;stroke-linecap:butt;stroke-miterlimit:4;stroke-dasharray:none;stroke-opacity:1;paint-order:normal"
       id="path841-5"
       cx="215.94002"
       cy="-10.770978"
       r="8.6471577"
       transform="rotate(42.389509)" />
    <circle
       style="opacity:1;fill:#000000;fill-opacity:1;stroke:#000000;stroke-width:0;stroke-linecap:butt;stroke-miterlimit:4;stroke-dasharray:none;stroke-opacity:1;paint-order:normal"
       id="path841-9"
       cx="217.39207"
       cy="16.745844"
       r="8.6471577"
       transform="rotate(42.389509)" />
  </g>
</svg>
