<svg xmlns="http://www.w3.org/2000/svg" viewBox="0 0 16 16">
  <path fill="#000000" d="M4.900672 9.88801173c.0035342.2081498.07044575.61382668.17027156.93135995.20991803.67046224.56603626 1.29101397 1.06198196 1.83829145a5.4897398 5.4897398 0 0 0 1.85740699 1.33349258 5.97223373 5.97223373 0 0 0 2.43972628.50762846 5.99064109 5.99064109 0 0 0 2.4390171-.5157672c.72285785-.3235537 1.3483664-.77631149 1.85670282-1.33951747.4948841-.54869005.85064824-1.17101223 1.06091634-1.84182678.10585929-.3391299.1720428-.68285652.19929976-1.0280015.0265568-.33983386.01521832-.68073121-.032934-1.02091926a4.7477683 4.7477683 0 0 0-.67682606-1.85280448 5.19238478 5.19238478 0 0 0-1.23508413-1.36181493l.00070796-.00070785-4.99768843-3.83800364-.01274994-.01025703c-.32849815-.2513444-.8800207-.25063656-1.24038657.00176131-.36496772.25522948-.40603131.67683654-.08177288.94339424l-.0010616.0010616 2.0843168 1.69563192-6.35419323.00636605h-.00884112c-.52498292.00035878-1.02942445.34550276-1.12995889.78056148-.10195047.44390864.25487561.81170863.80038063.8141866v.00140476l3.22028475-.00599813-5.74744724 4.41111959-.02194894.01663423c-.54161123.41487588-.7171923 1.1055166-.37594197 1.54234477.34691434.44461793 1.0835757.44497247 1.63155835.0021183L4.94279652 9.3333648s-.04531045.34691555-.04212631.55470981zm8.05938156 1.15968601c-.64604046.6591349-1.55013677 1.03224681-2.52999477 1.0340128-.9798551.0021183-1.88466394-.36815173-2.53105693-1.02587295A3.00682526 3.00682526 0 0 1 7.2080056 9.974386a2.81283663 2.81283663 0 0 1-.15894346-1.20782795 2.85708615 2.85708615 0 0 1 .346914-1.13773718 3.142051 3.142051 0 0 1 .76887502-.91436595c.62798563-.51222952 1.42730398-.78905262 2.26450034-.79011478.83719759-.00106216 1.63651606.27363729 2.26449967.7837426a3.12718343 3.12718343 0 0 1 .76887738.91118102c.19221572.34833036.31151395.73276726.34690964 1.13702833a2.81496084 2.81496084 0 0 1-.15894279 1.2078302 3.02310897 3.02310897 0 0 1-.69064184 1.08357546M8.34114038 8.80868268c.0293815-.53311474.29098294-1.00357294.6849785-1.33668085.38691554-.32744425.90693283-.52745063 1.47474032-.52745063.56780493 0 1.08782545.20000638 1.47473641.52745063.39399613.33310791.65524504.8035661.68533271 1.33632742.03009102.54869117-.19009073 1.0584434-.57665385 1.43544774-.39399612.38408136-.95543165.62550632-1.58341527.62550632-.62798652 0-1.18977502-.24142496-1.58377059-.62550632-.38656167-.37735777-.60639155-.88675657-.57594823-1.43509431"/>
</svg>
