<?xml version="1.0" encoding="UTF-8" standalone="no"?>
<svg
   xmlns:dc="http://purl.org/dc/elements/1.1/"
   xmlns:cc="http://creativecommons.org/ns#"
   xmlns:rdf="http://www.w3.org/1999/02/22-rdf-syntax-ns#"
   xmlns:svg="http://www.w3.org/2000/svg"
   xmlns="http://www.w3.org/2000/svg"
   xmlns:sodipodi="http://sodipodi.sourceforge.net/DTD/sodipodi-0.dtd"
   xmlns:inkscape="http://www.inkscape.org/namespaces/inkscape"
   width="16"
   height="16"
   version="1.1"
   id="svg8"
   sodipodi:docname="blender.svg"
   inkscape:version="0.92.4 5da689c313, 2019-01-14">
  <metadata
     id="metadata14">
    <rdf:RDF>
      <cc:Work
         rdf:about="">
        <dc:format>image/svg+xml</dc:format>
        <dc:type
           rdf:resource="http://purl.org/dc/dcmitype/StillImage" />
        <dc:title></dc:title>
      </cc:Work>
    </rdf:RDF>
  </metadata>
  <defs
     id="defs12" />
  <sodipodi:namedview
     pagecolor="#ffffff"
     bordercolor="#666666"
     borderopacity="1"
     objecttolerance="10"
     gridtolerance="10"
     guidetolerance="10"
     inkscape:pageopacity="0"
     inkscape:pageshadow="2"
     inkscape:window-width="640"
     inkscape:window-height="480"
     id="namedview10"
     showgrid="true"
     inkscape:zoom="1"
     inkscape:cx="5.4078582"
     inkscape:cy="9.1165338"
     inkscape:current-layer="svg8">
    <inkscape:grid
       type="xygrid"
       id="grid821" />
  </sodipodi:namedview>
  <path
     id="path6"
     style="fill:#000000;stroke-width:0.31751338"
     d="m 5.025875,9.973537 c 0.00317,0.186699 0.063186,0.550569 0.1527243,0.835379 0.188285,0.601368 0.5077036,1.157969 0.9525398,1.648847 a 4.9239967,4.9239967 0 0 0 1.6659926,1.19607 5.3567674,5.3567674 0 0 0 2.1883012,0.455315 5.3732778,5.3732778 0 0 0 2.1876651,-0.462615 c 0.648364,-0.29021 1.209411,-0.696309 1.665361,-1.201474 0.443884,-0.492145 0.762985,-1.050334 0.951584,-1.652018 0.09495,-0.304181 0.154313,-0.612485 0.178761,-0.9220612 0.02382,-0.3048124 0.01365,-0.6105787 -0.02954,-0.9157088 A 4.2584888,4.2584888 0 0 0 14.332188,7.2934066 4.6572855,4.6572855 0 0 0 13.224385,6.071933 l 6.35e-4,-6.349e-4 -4.4826535,-3.4424796 -0.011436,-0.0092 C 8.4362856,2.3941763 7.9416,2.3948112 7.6183715,2.6211983 7.2910154,2.8501252 7.2541836,3.2282837 7.5450257,3.4673714 l -9.522e-4,9.522e-4 1.8695183,1.5208892 -5.6993642,0.00571 h -0.00793 c -0.470881,3.218e-4 -0.9233375,0.3098971 -1.0135114,0.700121 -0.091444,0.3981618 0.2286095,0.7280583 0.7178977,0.7302809 v 0.00126 l 2.8884195,-0.00538 -5.1551462,3.9565333 -0.019687,0.01492 C 0.63847452,10.764779 0.48098788,11.384246 0.78707079,11.776057 1.098234,12.174855 1.758979,12.175173 2.2504895,11.777957 L 5.0636584,9.476049 c 0,0 -0.040641,0.3111643 -0.037785,0.4975444 z m 7.228825,1.040175 c -0.579463,0.591208 -1.390388,0.925869 -2.2692671,0.927453 -0.8788765,0.0019 -1.6904406,-0.330212 -2.2702198,-0.920152 A 2.696958,2.696958 0 0 1 7.0954272,10.05101 2.5229608,2.5229608 0 0 1 6.9528636,8.9676543 2.5626502,2.5626502 0 0 1 7.2640265,7.9471662 2.8182481,2.8182481 0 0 1 7.9536654,7.1270299 C 8.5169342,6.667588 9.2338791,6.4192928 9.9847985,6.4183401 10.735719,6.4173874 11.452664,6.6637778 12.015931,7.1213144 a 2.8049127,2.8049127 0 0 1 0.689641,0.8172796 c 0.172407,0.3124333 0.279411,0.6572522 0.311159,1.0198523 A 2.5248661,2.5248661 0 0 1 12.874168,10.041804 2.7115636,2.7115636 0 0 1 12.2547,11.013712 M 8.1117872,9.0054378 C 8.1381408,8.527263 8.372783,8.1052877 8.7261755,7.8065081 9.0732176,7.5128085 9.5396447,7.3334137 10.048937,7.3334137 c 0.50929,0 0.97572,0.1793948 1.322758,0.4730944 0.353393,0.2987796 0.587719,0.7207549 0.614706,1.1986127 0.02699,0.492146 -0.170501,0.9493659 -0.517227,1.2875182 -0.353393,0.3445 -0.85697,0.561045 -1.420237,0.561045 -0.5632696,0 -1.0671632,-0.216545 -1.4205557,-0.561045 C 8.2816566,9.9541697 8.0844812,9.4972668 8.1117872,9.0054378" />
</svg>
