<?xml version="1.0" encoding="UTF-8" standalone="no"?>
<svg
   xmlns:osb="http://www.openswatchbook.org/uri/2009/osb"
   xmlns:dc="http://purl.org/dc/elements/1.1/"
   xmlns:cc="http://creativecommons.org/ns#"
   xmlns:rdf="http://www.w3.org/1999/02/22-rdf-syntax-ns#"
   xmlns:svg="http://www.w3.org/2000/svg"
   xmlns="http://www.w3.org/2000/svg"
   xmlns:xlink="http://www.w3.org/1999/xlink"
   id="svg8"
   version="1.1"
   viewBox="0 0 210 297"
   height="594mm"
   width="420mm">
  <defs
     id="defs2">
    <linearGradient
       id="linearGradient1581">
      <stop
         style="stop-color:#45adff;stop-opacity:1"
         offset="0"
         id="stop1577" />
      <stop
         style="stop-color:#d0d1ff;stop-opacity:1"
         offset="1"
         id="stop1579" />
    </linearGradient>
    <linearGradient
       id="A">
      <stop
         id="stop1528"
         offset="0"
         style="stop-color:#fffcff;stop-opacity:1" />
      <stop
         id="stop1530"
         offset="1"
         style="stop-color:#abff83;stop-opacity:1" />
    </linearGradient>
    <linearGradient
       id="linearGradient831"
       osb:paint="gradient">
      <stop
         style="stop-color:#c00000;stop-opacity:1;"
         offset="0"
         id="stop837" />
      <stop
         style="stop-color:#265787;stop-opacity:0;"
         offset="1"
         id="stop839" />
    </linearGradient>
    <linearGradient
       osb:paint="gradient"
       id="linearGradient831-3">
      <stop
         id="stop827"
         offset="0"
         style="stop-color:#008db7;stop-opacity:1" />
      <stop
         id="stop829"
         offset="1"
         style="stop-color:#2670dc;stop-opacity:1" />
    </linearGradient>
    <linearGradient
       y2="170.8522"
       x2="171.64536"
       y1="37.804588"
       x1="40.47493"
       gradientUnits="userSpaceOnUse"
       id="linearGradient842"
       xlink:href="#linearGradient831-3" />
    <linearGradient
       gradientUnits="userSpaceOnUse"
       y2="545.40985"
       x2="751.04883"
       y1="545.40985"
       x1="44.259766"
       id="linearGradient1570"
       xlink:href="#linearGradient1581" />
    <linearGradient
       gradientTransform="matrix(3.7795276,0,0,3.7795276,2.8216766,0)"
       y2="173.11848"
       x2="165.19788"
       y1="33.292896"
       x1="52.171692"
       gradientUnits="userSpaceOnUse"
       id="linearGradient2282"
       xlink:href="#A" />
    <filter
       height="1.192"
       y="-0.095999999"
       width="1.192"
       x="-0.096000001"
       id="filter3995"
       style="color-interpolation-filters:sRGB">
      <feGaussianBlur
         id="feGaussianBlur3997"
         stdDeviation="8.3734424" />
    </filter>
    <filter
       height="1.4594606"
       y="-0.2297303"
       width="1.4525911"
       x="-0.22629557"
       id="filter4363"
       style="color-interpolation-filters:sRGB">
      <feGaussianBlur
         id="feGaussianBlur4365"
         stdDeviation="4.6761349" />
    </filter>
    <filter
       height="1.1733897"
       y="-0.086694855"
       width="1.2150856"
       x="-0.1075428"
       id="filter4495"
       style="color-interpolation-filters:sRGB">
      <feGaussianBlur
         id="feGaussianBlur4497"
         stdDeviation="4.6834766" />
    </filter>
  </defs>
  <metadata
     id="metadata5">
    <rdf:RDF>
      <cc:Work
         rdf:about="">
        <dc:format>image/svg+xml</dc:format>
        <dc:type
           rdf:resource="http://purl.org/dc/dcmitype/StillImage" />
        <dc:title></dc:title>
      </cc:Work>
    </rdf:RDF>
  </metadata>
  <g
     id="layer1">
    <circle
       r="93.55545"
       cy="105.08435"
       cx="105.30419"
       id="path815"
       style="fill:url(#linearGradient842);fill-opacity:1;stroke-width:0.28409564;opacity:1;" />
    <path
       transform="scale(0.26458333)"
       id="path1536"
       d="M 586.49414 339.76953 C 507.22617 340.12389 431.23635 377.93951 348.54102 419.44727 C 236.82149 475.52332 122.64793 395.83866 44.259766 407.96094 A 353.5954 353.5954 0 0 0 397.48438 751.05273 A 353.5954 353.5954 0 0 0 751.04883 398.07227 C 692.83573 355.71901 638.94612 339.53505 586.49414 339.76953 z "
       style="opacity:1;fill:url(#linearGradient1570);fill-opacity:1.0;stroke:none;stroke-width:0;stroke-miterlimit:4;stroke-dasharray:none;stroke-opacity:1" />
    <path
       id="path832-7-6"
       d="m 135.71058,39.280806 c -14.7655,0 -27.12565,8.627049 -37.07991,25.881108 H 97.884462 L 95.146647,42.764831 92.160782,41.02282 58.5649,43.76012 56.822886,55.954207 69.016974,57.696219 c 3.6499,0.663617 5.972625,1.90764 6.968051,3.732591 0.995426,1.824947 1.492932,5.723882 1.492932,11.696443 v 69.679987 c 0,4.31352 -0.414843,7.29959 -1.24437,8.95863 -0.829519,1.49314 -2.571562,2.48866 -5.226036,2.98638 l -11.945006,2.23966 v 11.945 h 69.182335 v -11.69593 l -21.40179,-3.23546 c -2.65448,-0.49771 -4.39652,-1.3274 -5.22604,-2.48873 -0.66362,-1.32724 -0.99529,-4.06429 -0.99529,-8.2119 V 92.785033 c 0,-5.640747 1.07819,-10.950059 3.23495,-15.927192 2.15675,-5.143039 4.89432,-9.456303 8.21242,-12.940297 3.48399,-3.649895 7.2171,-6.055799 11.1988,-7.21713 3.9817,-1.327234 7.79746,-1.078224 11.44736,0.746726 -1.65905,3.152182 -2.90359,5.889757 -3.73311,8.212418 -0.66362,2.322661 -0.99529,4.396375 -0.99529,6.221325 0,3.483994 1.24403,6.221566 3.73259,8.212418 2.65448,1.82495 6.3044,2.737303 10.94972,2.737303 5.47485,0 9.62279,-1.658869 12.44318,-4.976958 2.82037,-3.31809 4.23023,-8.212553 4.23023,-14.682825 0,-7.299793 -2.32272,-13.106093 -6.96805,-17.419609 -4.64533,-4.313515 -10.86648,-6.470406 -18.66398,-6.470406 z m 10.79365,19.352824 c 0.0541,5.29e-4 0.11002,0.0037 0.16847,0.0093 1.87027,0.179051 0.95424,2.566522 2.5616,3.539318 1.60736,0.972796 3.29819,-0.945999 4.32429,0.627869 1.0261,1.573866 -1.41208,2.346347 -1.17047,4.209561 0.24161,1.863217 2.79628,1.988852 2.20555,3.772381 -0.59074,1.783528 -2.71487,0.358863 -4.02095,1.709455 -1.30608,1.350595 0.18867,3.426081 -1.57406,4.076237 -1.76274,0.650158 -1.97343,-1.898857 -3.8437,-2.077908 -1.87026,-0.179052 -2.56086,2.283312 -4.16822,1.310513 -1.60736,-0.972796 0.25354,-2.726645 -0.77256,-4.300511 -1.0261,-1.573869 -3.38143,-0.578498 -3.62304,-2.441713 -0.24161,-1.863214 2.28971,-1.501542 2.88045,-3.285069 0.59073,-1.78353 -1.65593,-3.004696 -0.34985,-4.35529 1.30608,-1.350595 2.60185,0.854278 4.36459,0.20412 1.70765,-0.629838 1.34206,-3.012733 3.0179,-2.998266 z"
       style="font-style:normal;font-variant:normal;font-weight:normal;font-stretch:normal;font-size:192px;line-height:1.25;font-family:Literata;-inkscape-font-specification:Literata;letter-spacing:0px;word-spacing:0px;fill:none;fill-opacity:1;stroke:#000000;stroke-width:1.5;stroke-miterlimit:4;stroke-dasharray:none;stroke-opacity:1;filter:url(#filter4495)" />
    <path
       id="path832-7"
       transform="scale(0.26458333)"
       d="m 512.92188,148.46289 c -55.80659,0 -102.52214,32.60617 -140.14454,97.81836 h -2.82031 l -10.34765,-84.65039 -11.28516,-6.58398 -126.97656,10.3457 -6.58399,46.08789 46.08789,6.58398 c 13.7949,2.50816 22.5737,7.20998 26.33594,14.10743 3.76224,6.89744 5.64258,21.63357 5.64258,44.20703 v 263.35742 c 0,16.30307 -1.56791,27.58899 -4.70313,33.85937 -3.13519,5.64337 -9.71929,9.40599 -19.75195,11.28711 l -45.14648,8.46485 v 45.14648 h 261.47656 v -44.20508 l -80.88867,-12.22851 c -10.03266,-1.88112 -16.61676,-5.01696 -19.75196,-9.40625 -2.50817,-5.01632 -3.76172,-15.36109 -3.76172,-31.03711 v -190.9336 c 0,-21.31936 4.07503,-41.38605 12.22657,-60.19726 8.15151,-19.43826 18.49823,-35.74036 31.03906,-48.90821 13.16785,-13.79488 27.27723,-22.88806 42.32617,-27.27734 15.04897,-5.01632 29.47073,-4.07518 43.26563,2.82227 -6.27042,11.91376 -10.97419,22.2605 -14.10938,31.03906 -2.50817,8.77856 -3.76172,16.61622 -3.76172,23.51367 0,13.16785 4.70182,23.51458 14.10742,31.03906 10.03266,6.89745 23.82766,10.34571 41.38477,10.34571 20.69233,0 36.36959,-6.26974 47.0293,-18.81055 10.65968,-12.54081 15.98828,-31.03957 15.98828,-55.49414 0,-27.58977 -8.7788,-49.53484 -26.33594,-65.83789 -17.55714,-16.30305 -41.07012,-24.45508 -70.54101,-24.45508 z"
       style="font-style:normal;font-variant:normal;font-weight:normal;font-stretch:normal;font-size:192px;line-height:1.25;font-family:Literata;-inkscape-font-specification:Literata;letter-spacing:0px;word-spacing:0px;fill:url(#linearGradient2282);fill-opacity:1;stroke:#000000;stroke-width:0;stroke-miterlimit:4;stroke-dasharray:none;stroke-opacity:1" />
    <path
       transform="rotate(12.565168,181.19856,118.55784)"
       d="m 188.42755,149.61422 -11.69829,2.64752 -6.24935,10.23742 -9.36367,-7.49539 -11.90035,1.49698 0.022,-11.99411 -8.59013,-8.3707 9.39107,-7.46103 1.18862,-11.93509 11.68851,2.69037 10.07232,-6.51211 5.18425,10.81586 11.37136,3.81463 -5.22385,10.79678 z"
       id="path3999-7"
       style="opacity:1;fill:none;fill-opacity:1;stroke:#000000;stroke-width:1.5;stroke-linecap:butt;stroke-miterlimit:4;stroke-dasharray:none;stroke-opacity:1;paint-order:normal;filter:url(#filter4363)" />
    <path
       transform="rotate(12.565168,181.19856,118.55784)"
       d="m 188.42755,149.61422 -11.69829,2.64752 -6.24935,10.23742 -9.36367,-7.49539 -11.90035,1.49698 0.022,-11.99411 -8.59013,-8.3707 9.39107,-7.46103 1.18862,-11.93509 11.68851,2.69037 10.07232,-6.51211 5.18425,10.81586 11.37136,3.81463 -5.22385,10.79678 z"
       id="path3999"
       style="opacity:1;fill:#99e4d7;fill-opacity:1;stroke:#000000;stroke-width:0;stroke-linecap:butt;stroke-miterlimit:4;stroke-dasharray:none;stroke-opacity:1;paint-order:normal" />
    <path
       id="path815-3-9"
       d="M 105.29896,0.41702828 A 104.66795,104.66795 0 0 0 0.63093351,105.08506 104.66795,104.66795 0 0 0 105.29896,209.75309 104.66795,104.66795 0 0 0 209.96699,105.08506 104.66795,104.66795 0 0 0 105.29896,0.41702828 Z m -10e-4,15.71790372 a 88.952507,88.952507 0 0 1 88.95273,88.952708 88.952507,88.952507 0 0 1 -88.95271,88.9522 88.952507,88.952507 0 0 1 -88.9527,-88.9522 88.952507,88.952507 0 0 1 88.9527,-88.952708 z"
       style="opacity:1;fill:none;fill-opacity:1;stroke:#000000;stroke-width:4;stroke-miterlimit:4;stroke-dasharray:none;stroke-opacity:1;filter:url(#filter3995)" />
    <path
       transform="scale(0.26458333)"
       id="path815-3"
       d="M 397.98047 1.5761719 A 395.59541 395.59541 0 0 0 2.3847656 397.17188 A 395.59541 395.59541 0 0 0 397.98047 792.76758 A 395.59541 395.59541 0 0 0 793.57617 397.17188 A 395.59541 395.59541 0 0 0 397.98047 1.5761719 z M 397.97656 60.982422 A 336.19845 336.19845 0 0 1 734.17578 397.18164 A 336.19845 336.19845 0 0 1 397.97656 733.37891 A 336.19845 336.19845 0 0 1 61.777344 397.18164 A 336.19845 336.19845 0 0 1 397.97656 60.982422 z "
       style="opacity:1;fill:#ffffff;fill-opacity:1;stroke:none;stroke-width:0;stroke-miterlimit:4;stroke-dasharray:none;stroke-opacity:1" />
  </g>
</svg>
