<?xml version="1.0" encoding="UTF-8" standalone="no"?>
<svg
   xmlns:dc="http://purl.org/dc/elements/1.1/"
   xmlns:cc="http://creativecommons.org/ns#"
   xmlns:rdf="http://www.w3.org/1999/02/22-rdf-syntax-ns#"
   xmlns:svg="http://www.w3.org/2000/svg"
   xmlns="http://www.w3.org/2000/svg"
   xmlns:sodipodi="http://sodipodi.sourceforge.net/DTD/sodipodi-0.dtd"
   xmlns:inkscape="http://www.inkscape.org/namespaces/inkscape"
   version="1.1"
   x="0"
   y="0"
   width="48"
   height="48"
   viewBox="0, 0, 48, 48"
   id="svg13"
   sodipodi:docname="blender.svg"
   inkscape:version="0.92.3 (2405546, 2018-03-11)">
  <metadata
     id="metadata19">
    <rdf:RDF>
      <cc:Work
         rdf:about="">
        <dc:format>image/svg+xml</dc:format>
        <dc:type
           rdf:resource="http://purl.org/dc/dcmitype/StillImage" />
      </cc:Work>
    </rdf:RDF>
  </metadata>
  <defs
     id="defs17" />
  <sodipodi:namedview
     pagecolor="#ffffff"
     bordercolor="#666666"
     borderopacity="1"
     objecttolerance="10"
     gridtolerance="10"
     guidetolerance="10"
     inkscape:pageopacity="0"
     inkscape:pageshadow="2"
     inkscape:window-width="3779"
     inkscape:window-height="2085"
     id="namedview15"
     showgrid="false"
     inkscape:zoom="4.9166667"
     inkscape:cx="-20.745763"
     inkscape:cy="24"
     inkscape:window-x="61"
     inkscape:window-y="38"
     inkscape:window-maximized="1"
     inkscape:current-layer="svg13" />
  <g
     id="Layer_2">
    <g
       id="g10">
      <path
         d="M31.478,36.847 C25.193,36.847 20.098,32.041 20.098,26.113 C20.098,20.186 25.193,15.38 31.478,15.38 C37.764,15.38 42.859,20.186 42.859,26.113 C42.859,32.041 37.764,36.847 31.478,36.847 z"
         fill="#FFFFFF"
         id="path5" />
      <g
         id="g9786">
        <path
           d="M24.926,24.904 C25.009,23.398 25.748,22.069 26.861,21.128 L26.861,21.128 C27.954,20.203 29.423,19.638 31.027,19.638 L31.027,19.638 C32.631,19.638 34.1,20.203 35.193,21.128 L35.193,21.128 C36.306,22.069 37.044,23.398 37.129,24.903 C37.214,26.453 36.592,27.892 35.5,28.958 L35.5,28.958 C34.387,30.043 32.801,30.725 31.027,30.725 L31.027,30.725 C29.253,30.725 27.666,30.043 26.553,28.958 L26.553,28.958 C25.461,27.892 24.84,26.453 24.926,24.904"
           fill="#0D528B"
           id="path9788" />
        <path
           d="M15.207,27.953 C15.217,28.541 15.406,29.687 15.688,30.584 L15.688,30.584 C16.281,32.478 17.287,34.231 18.688,35.777 L18.688,35.777 C20.125,37.363 21.892,38.639 23.935,39.544 L23.935,39.544 C26.085,40.496 28.412,40.982 30.827,40.978 L30.827,40.978 C33.242,40.973 35.569,40.479 37.717,39.521 L37.717,39.521 C39.759,38.607 41.526,37.328 42.962,35.737 L42.962,35.737 C44.36,34.186 45.365,32.429 45.959,30.534 L45.959,30.534 C46.258,29.576 46.445,28.605 46.522,27.63 L46.522,27.63 C46.597,26.67 46.565,25.707 46.429,24.746 L46.429,24.746 C46.163,22.873 45.515,21.115 44.517,19.512 C43.603,18.04 42.426,16.751 41.028,15.665 L41.028,15.665 L41.03,15.663 L41.03,15.663 L26.912,4.821 L26.912,4.821 C26.9,4.812 26.889,4.802 26.876,4.792 L26.876,4.792 C25.948,4.082 24.39,4.084 23.372,4.797 L23.372,4.797 C22.341,5.518 22.225,6.709 23.141,7.462 L23.141,7.462 L23.138,7.465 L23.138,7.465 L29.026,12.254 L11.076,12.273 L11.076,12.273 C11.067,12.273 11.06,12.273 11.051,12.273 L11.051,12.273 C9.568,12.274 8.143,13.249 7.859,14.478 L7.859,14.478 C7.571,15.732 8.579,16.771 10.12,16.777 L10.12,16.777 L10.12,16.782 L10.12,16.782 L19.217,16.765 L2.981,29.226 L2.981,29.226 C2.961,29.242 2.939,29.257 2.919,29.273 L2.919,29.273 C1.389,30.445 0.893,32.396 1.857,33.63 L1.857,33.63 C2.837,34.886 4.918,34.887 6.466,33.636 L6.466,33.636 L15.326,26.386 C15.326,26.386 15.198,27.365 15.207,27.953 z M37.974,31.229 C36.149,33.091 33.595,34.145 30.827,34.15 L30.827,34.15 C28.059,34.156 25.503,33.11 23.677,31.252 L23.677,31.252 C22.785,30.347 22.129,29.307 21.725,28.197 L21.725,28.197 C21.329,27.107 21.175,25.952 21.276,24.785 L21.276,24.785 C21.375,23.643 21.712,22.556 22.256,21.571 L22.256,21.571 C22.789,20.603 23.522,19.729 24.428,18.988 L24.428,18.988 C26.202,17.541 28.46,16.759 30.825,16.756 L30.825,16.756 C33.19,16.753 35.448,17.529 37.222,18.97 L37.222,18.97 C38.127,19.706 38.86,20.578 39.394,21.544 L39.394,21.544 C39.937,22.528 40.274,23.613 40.374,24.756 L40.374,24.756 C40.475,25.921 40.321,27.077 39.925,28.168 L39.925,28.168 C39.521,29.279 38.866,30.32 37.974,31.229"
           fill="#F5792A"
           id="path9790" />
      </g>
    </g>
  </g>
</svg>
