<svg xmlns="http://www.w3.org/2000/svg" viewBox="0 0 128 128">
  <path fill="#ffffff" d="M85.2846597 104.29158683c-17.79983375 0-32.2282852-13.6104331-32.2282852-30.39772597 0-16.78524527 14.42845145-30.39567836 32.2282852-30.39567836 17.80085754 0 32.229309 13.6104331 32.229309 30.39567836 0 16.78729287-14.42845146 30.39772597-32.229309 30.39772597z"/>
  <path fill="#265787" d="M66.72823576 70.46924083c.23547462-4.26413825 2.32915114-8.02763697 5.48041585-10.6925954 3.09597937-2.6199111 7.25568974-4.22011473 11.79830232-4.22011473 4.54261258 0 8.70232295 1.60020362 11.79830231 4.22011473 3.15126471 2.66495843 5.24186982 6.42845715 5.48246346 10.6905478.24059363 4.38904217-1.52137081 8.46684832-4.61325497 11.48297108-3.15228851 3.0734557-7.64371096 5.0043476-12.6675108 5.0043476-5.02379985 0-9.5182937-1.9308919-12.67058222-5.0043476-3.09188415-3.01817036-4.8507772-7.09392891-4.60711215-11.48092348"/>
  <path fill="#e87d0d" d="M39.20534777 79.1039928c.02866648 1.665727.56309149 4.91118155 1.3616576 7.45123605 1.67903642 5.36472615 4.52930314 10.32812164 8.4965386 14.70590198a43.91806442 43.91806442 0 0 0 14.85947239 10.66802414 47.7778006 47.7778006 0 0 0 19.51777467 4.0614253 47.92522819 47.92522819 0 0 0 19.51163186-4.12592487c5.78346145-2.58817323 10.78678525-6.21038718 14.85435337-10.71614286 3.95904504-4.39006598 6.80521655-9.3677947 8.48732439-14.73456846a37.4609408 37.4609408 0 0 0 1.5940608-8.2242071c.21192716-2.71921996.12183252-5.44663035-.2631173-8.16789793a37.98308017 37.98308017 0 0 0-5.41591628-14.82159169 41.53874695 41.53874695 0 0 0-9.87969605-10.89530833l.00614281-.00511902L72.3540316 13.59597704l-.10238027-.08190422c-2.62810153-2.0117723-7.03966736-2.00665329-9.92269576.01330944-2.9198853 2.04248639-3.24852597 5.41489248-.65523373 7.5474735l-.00716662.00819043 16.67365077 13.56538577-50.83282786.05119014h-.07166619c-4.19963867.0020476-8.23444511 2.76426729-9.03915403 6.24417266-.81597076 3.55157157 2.03941497 6.49398053 6.40286208 6.51343278v.01126183l25.76194734-.04811873L4.58341187 82.70982591l-.17609407.13309435C.07356097 86.16208861-1.33109633 91.68652798 1.39836167 95.1817904c2.77552912 3.55669058 8.66853746 3.55976199 13.05348442.01638084L39.54217886 74.6668319s-.36242615 2.77450532-.33683109 4.4371609zm64.47499884 9.27770007c-5.16815603 5.2725839-12.4013221 8.25799258-20.24057938 8.27232581-7.83823347.01740465-15.07651856-2.94548036-20.247746-8.20680244a24.05424444 24.05424444 0 0 1-5.52853458-8.65113281 22.50318335 22.50318335 0 0 1-1.27053915-9.66367369 22.85639528 22.85639528 0 0 1 2.77450532-9.101606 25.13640389 25.13640389 0 0 1 6.15100662-7.3150703c5.02379985-4.0972584 11.41847151-6.31276744 18.11618878-6.32095786 6.69771726-.00819043 13.09238892 2.18889017 18.11618877 6.26976773a25.01764278 25.01764278 0 0 1 6.15100662 7.28947522 22.90758541 22.90758541 0 0 1 2.77450532 9.096487 22.51956419 22.51956419 0 0 1-1.27053915 9.66264988 24.18529118 24.18529118 0 0 1-5.52546317 8.66853746"/>
</svg>
