<svg height="1600" viewBox="0 0 1800 1600" width="1800" xmlns="http://www.w3.org/2000/svg" xmlns:inkscape="http://www.inkscape.org/namespaces/inkscape" xmlns:sodipodi="http://sodipodi.sourceforge.net/DTD/sodipodi-0.dtd"><sodipodi:namedview pagecolor="#303030" showgrid="true"><inkscape:grid id="grid5" units="px" spacingx="100" spacingy="100" color="#4772b3" opacity="0.2" visible="true" /></sodipodi:namedview><g fill="#fff"><g enable-background="new" transform="matrix(100 0 0 100 -23400 -32497.515)"><path d="m237.49414 326.05078c-.11724.001-.22936.0482-.3125.13086l-2 2c-.17593.17578-.17593.46094 0 .63672l2 2c.17578.17593.46094.17593.63672 0l2-2c.17593-.17578.17593-.46094 0-.63672l-2-2c-.086-.0855-.20293-.13272-.32422-.13086zm11 0c-.11724.001-.22936.0482-.3125.13086l-2 2c-.17593.17578-.17593.46094 0 .63672l2 2c.17578.17593.46094.17593.63672 0l2-2c.17593-.17578.17593-.46094 0-.63672l-2-2c-.086-.0855-.20293-.13272-.32422-.13086zm-6.02734 6.75c-.1137.009-.21981.0605-.29688.14453l-3 3.25c-.16377.17723-.15861.45209.0117.62305l3 3c.17578.17593.46094.17593.63672 0l3-3c.17031-.17096.17547-.44582.0117-.62305l-3-3.25c-.0927-.10101-.22649-.15422-.36328-.14453zm.0332 1.11133 2.37695 2.57617-2.37695 2.375-2.37695-2.37695z"/><path d="m239.12109 326 1.43946 1.43945c.58556.5858.58556 1.5353 0 2.1211l-1.43946 1.43945h7.75782l-1.43946-1.43945c-.58556-.5858-.58556-1.5353 0-2.1211l1.43946-1.43945z" opacity=".5"/></g></g></svg>