<svg height="1600" viewBox="0 0 1800 1600" width="1800" xmlns="http://www.w3.org/2000/svg" xmlns:inkscape="http://www.inkscape.org/namespaces/inkscape" xmlns:sodipodi="http://sodipodi.sourceforge.net/DTD/sodipodi-0.dtd"><sodipodi:namedview pagecolor="#303030" showgrid="true"><inkscape:grid id="grid5" units="px" spacingx="100" spacingy="100" color="#4772b3" opacity="0.2" visible="true" /></sodipodi:namedview><g fill="#fff"><g enable-background="new" transform="translate(-233 -365)"><path d="m1028 1556c-3.2833 0-6 2.4414-6 5.5 0 1.7056.9046 3.146 2.1523 4.3594l.9942.9941a.50004997.50004997 0 0 0 .3027.1485.50004997.50004997 0 0 0 .051.998h5a.50004997.50004997 0 0 0 .045-.998.50004997.50004997 0 0 0 .3086-.1485l.9981-.998c1.2122-1.1985 2.1465-2.6518 2.1465-4.3535 0-3.0586-2.7167-5.5-6-5.5zm0 1c2.7919 0 5 2.0358 5 4.5 0 1.3342-.7428 2.5488-1.8516 3.6445l-1 1a.50004997.50004997 0 0 0 .2793.8535h-4.8594a.50004997.50004997 0 0 0 .2871-.8535l-1-1a.50004997.50004997 0 0 0 -.01-.01c-1.1397-1.1082-1.8477-2.2864-1.8477-3.6406 0-2.4642 2.2081-4.5 5-4.5zm-2.5 12a.50004997.50004997 0 1 0 0 1h1.5v.5a.50004997.50004997 0 0 0 .5.5h1a.50004997.50004997 0 0 0 .5-.5v-.5h1.5a.50004997.50004997 0 1 0 0-1z"/><path d="m1025.4902 1561.0059a.50005.50005 0 0 0 -.3437.8476l.8535.8535v1.543a.50005.50005 0 1 0 1 0v-1.25h2v1.25a.50005.50005 0 1 0 1 0v-1.543l.8535-.8535a.50005.50005 0 0 0 -.707-.707l-.8535.8535h-2.586l-.8535-.8535a.50005.50005 0 0 0 -.3633-.1406z" opacity=".6"/></g><g enable-background="new" transform="matrix(100 0 0 100 -23400 -32497.515)"><path d="m237.49414 326.05078c-.11724.001-.22936.0482-.3125.13086l-2 2c-.17593.17578-.17593.46094 0 .63672l2 2c.17578.17593.46094.17593.63672 0l2-2c.17593-.17578.17593-.46094 0-.63672l-2-2c-.086-.0855-.20293-.13272-.32422-.13086zm11 0c-.11724.001-.22936.0482-.3125.13086l-2 2c-.17593.17578-.17593.46094 0 .63672l2 2c.17578.17593.46094.17593.63672 0l2-2c.17593-.17578.17593-.46094 0-.63672l-2-2c-.086-.0855-.20293-.13272-.32422-.13086zm-6.02734 6.75c-.1137.009-.21981.0605-.29688.14453l-3 3.25c-.16377.17723-.15861.45209.0117.62305l3 3c.17578.17593.46094.17593.63672 0l3-3c.17031-.17096.17547-.44582.0117-.62305l-3-3.25c-.0927-.10101-.22649-.15422-.36328-.14453zm.0332 1.11133 2.37695 2.57617-2.37695 2.375-2.37695-2.37695z"/><path d="m239.12109 326 1.43946 1.43945c.58556.5858.58556 1.5353 0 2.1211l-1.43946 1.43945h7.75782l-1.43946-1.43945c-.58556-.5858-.58556-1.5353 0-2.1211l1.43946-1.43945z" opacity=".5"/></g></g></svg>