<svg height="1600" viewBox="0 0 1600 1600" width="1600" xmlns="http://www.w3.org/2000/svg" xmlns:inkscape="http://www.inkscape.org/namespaces/inkscape" xmlns:sodipodi="http://sodipodi.sourceforge.net/DTD/sodipodi-0.dtd"><sodipodi:namedview pagecolor="#303030" showgrid="true"><inkscape:grid id="grid5" units="px" spacingx="100" spacingy="100" color="#4772b3" opacity="0.2" visible="true" /></sodipodi:namedview><g fill="#fff"><g enable-background="new" transform="translate(-233 -365)"><path d="m1028 1556c-3.2833 0-6 2.4414-6 5.5 0 1.7056.9046 3.146 2.1523 4.3594l.9942.9941a.50004997.50004997 0 0 0 .3027.1485.50004997.50004997 0 0 0 .051.998h5a.50004997.50004997 0 0 0 .045-.998.50004997.50004997 0 0 0 .3086-.1485l.9981-.998c1.2122-1.1985 2.1465-2.6518 2.1465-4.3535 0-3.0586-2.7167-5.5-6-5.5zm0 1c2.7919 0 5 2.0358 5 4.5 0 1.3342-.7428 2.5488-1.8516 3.6445l-1 1a.50004997.50004997 0 0 0 .2793.8535h-4.8594a.50004997.50004997 0 0 0 .2871-.8535l-1-1a.50004997.50004997 0 0 0 -.01-.01c-1.1397-1.1082-1.8477-2.2864-1.8477-3.6406 0-2.4642 2.2081-4.5 5-4.5zm-2.5 12a.50004997.50004997 0 1 0 0 1h1.5v.5a.50004997.50004997 0 0 0 .5.5h1a.50004997.50004997 0 0 0 .5-.5v-.5h1.5a.50004997.50004997 0 1 0 0-1z"/><path d="m1025.4902 1561.0059a.50005.50005 0 0 0 -.3437.8476l.8535.8535v1.543a.50005.50005 0 1 0 1 0v-1.25h2v1.25a.50005.50005 0 1 0 1 0v-1.543l.8535-.8535a.50005.50005 0 0 0 -.707-.707l-.8535.8535h-2.586l-.8535-.8535a.50005.50005 0 0 0 -.3633-.1406z" opacity=".6"/></g><g enable-background="new" transform="matrix(100.79462 0 0 100 -21677.201 -21999.985)"><path d="m221.50195 227c-.35971-.001-.6028.36671-.46093.69727l3 7c.18151.42185.78799.39645.93359-.0391l.91992-2.76367 2.76367-.91992c.43555-.1456.46095-.75208.0391-.93359l-7-3c-.0617-.0266-.12814-.0406-.19535-.041z"/><g enable-background="new" opacity=".6" transform="translate(-20 -105)"><path d="m238.49414 326.05078c-.11724.001-.22936.0482-.3125.13086l-2 2c-.17593.17578-.17593.46094 0 .63672l2 2c.17578.17593.46094.17593.63672 0l2-2c.17593-.17578.17593-.46094 0-.63672l-2-2c-.086-.0855-.20293-.13272-.32422-.13086zm9 0c-.11724.001-.22936.0482-.3125.13086l-2 2c-.17593.17578-.17593.46094 0 .63672l2 2c.17578.17593.46094.17593.63672 0l2-2c.17593-.17578.17593-.46094 0-.63672l-2-2c-.086-.0855-.20293-.13272-.32422-.13086z" opacity="1"/><path d="m240.12109 326 1.43946 1.43945c.58556.5858.58556 1.5353 0 2.1211l-1.43946 1.43945h5.75782l-1.43946-1.43945c-.58556-.5858-.58556-1.5353 0-2.1211l1.43946-1.43945z" opacity=".5"/></g></g></g></svg>