<svg height="1600" viewBox="0 0 1600 1600" width="1600" xmlns="http://www.w3.org/2000/svg" xmlns:inkscape="http://www.inkscape.org/namespaces/inkscape" xmlns:sodipodi="http://sodipodi.sourceforge.net/DTD/sodipodi-0.dtd"><sodipodi:namedview pagecolor="#303030" showgrid="true"><inkscape:grid id="grid5" units="px" spacingx="100" spacingy="100" color="#4772b3" opacity="0.2" visible="true" /></sodipodi:namedview><g fill="#fff"><g enable-background="new" transform="matrix(100.79462 0 0 100 -21677.201 -21999.985)"><path d="m221.50195 227c-.35971-.001-.6028.36671-.46093.69727l3 7c.18151.42185.78799.39645.93359-.0391l.91992-2.76367 2.76367-.91992c.43555-.1456.46095-.75208.0391-.93359l-7-3c-.0617-.0266-.12814-.0406-.19535-.041z"/><g enable-background="new" opacity=".6" transform="translate(-20 -105)"><path d="m238.49414 326.05078c-.11724.001-.22936.0482-.3125.13086l-2 2c-.17593.17578-.17593.46094 0 .63672l2 2c.17578.17593.46094.17593.63672 0l2-2c.17593-.17578.17593-.46094 0-.63672l-2-2c-.086-.0855-.20293-.13272-.32422-.13086zm9 0c-.11724.001-.22936.0482-.3125.13086l-2 2c-.17593.17578-.17593.46094 0 .63672l2 2c.17578.17593.46094.17593.63672 0l2-2c.17593-.17578.17593-.46094 0-.63672l-2-2c-.086-.0855-.20293-.13272-.32422-.13086z" opacity="1"/><path d="m240.12109 326 1.43946 1.43945c.58556.5858.58556 1.5353 0 2.1211l-1.43946 1.43945h5.75782l-1.43946-1.43945c-.58556-.5858-.58556-1.5353 0-2.1211l1.43946-1.43945z" opacity=".5"/></g></g></g></svg>