<svg height="1500" viewBox="0 0 1600 1500" width="1600" xmlns="http://www.w3.org/2000/svg" xmlns:inkscape="http://www.inkscape.org/namespaces/inkscape" xmlns:sodipodi="http://sodipodi.sourceforge.net/DTD/sodipodi-0.dtd"><sodipodi:namedview pagecolor="#303030" showgrid="true"><inkscape:grid id="grid5" units="px" spacingx="100" spacingy="100" color="#4772b3" opacity="0.2" visible="true" /></sodipodi:namedview><g fill="#fff"><path d="m48.492188 306a.50005.50005 0 1 0 0 1h12.99414a.50005.50005 0 1 0 0-1zm7 3a.50005.50005 0 1 0 0 1h5.99414a.50005.50005 0 1 0 0-1zm-7 3a.50005.50005 0 1 0 0 1h12.99414a.50005.50005 0 1 0 0-1zm7 3a.50005.50005 0 1 0 0 1h5.99414a.50005.50005 0 1 0 0-1zm-7 3a.50005.50005 0 1 0 0 1h12.99414a.50005.50005 0 1 0 0-1z" transform="matrix(100 0 0 100 -4698.9258 -30500)"/></g></svg>