<svg height="1600" viewBox="0 0 1600 1600" width="1600" xmlns="http://www.w3.org/2000/svg" xmlns:inkscape="http://www.inkscape.org/namespaces/inkscape" xmlns:sodipodi="http://sodipodi.sourceforge.net/DTD/sodipodi-0.dtd"><sodipodi:namedview pagecolor="#303030" showgrid="true"><inkscape:grid id="grid5" units="px" spacingx="100" spacingy="100" color="#4772b3" opacity="0.2" visible="true" /></sodipodi:namedview><g fill="#fff"><g enable-background="new" transform="matrix(100 0 0 100 -15200 -30400)"><path d="m155.49219 314a.50005.50005 0 1 0 0 1h8.99414a.50005.50005 0 1 0 0-1zm0 2a.50005.50005 0 1 0 0 1h8.99414a.50005.50005 0 1 0 0-1z"/><path d="m153.5 305a.50004997.50004997 0 0 0 -.5.5v13a.50004997.50004997 0 0 0 .5.5h13a.50004997.50004997 0 0 0 .5-.5v-13a.50004997.50004997 0 0 0 -.5-.5zm.5 1h12v12h-12z" opacity=".6"/></g></g></svg>