<svg height="1500" viewBox="0 0 1600 1500" width="1600" xmlns="http://www.w3.org/2000/svg" xmlns:inkscape="http://www.inkscape.org/namespaces/inkscape" xmlns:sodipodi="http://sodipodi.sourceforge.net/DTD/sodipodi-0.dtd"><sodipodi:namedview pagecolor="#303030" showgrid="true"><inkscape:grid id="grid5" units="px" spacingx="100" spacingy="100" color="#4772b3" opacity="0.2" visible="true" /></sodipodi:namedview><g fill="#fff"><path d="m552.5 621a.50005.50005 0 1 0 0 1h1.99219a.50005.50005 0 1 0 0-1zm4.02344 0a.50005.50005 0 1 0 0 1h1.91601a.50005.50005 0 1 0 0-1zm3.9707 0a.50005.50005 0 1 0 0 1h1.99805a.50005.50005 0 1 0 0-1zm3.99805 0a.50005.50005 0 1 0 0 1h1a.50005.50005 0 1 0 0-1zm-11.99219 3a.50005.50005 0 1 0 0 1h1a.50005.50005 0 1 0 0-1zm3 0a.50005.50005 0 1 0 0 1h1.99805a.50005.50005 0 1 0 0-1zm4.05273 0a.50005.50005 0 1 0 0 1h1.91797a.50005.50005 0 1 0 0-1zm3.94727 0a.50005.50005 0 1 0 0 1h1.99219a.50005.50005 0 1 0 0-1zm-11 3a.50005.50005 0 1 0 0 1h1.99219a.50005.50005 0 1 0 0-1zm4.02344 0a.50005.50005 0 1 0 0 1h1.91601a.50005.50005 0 1 0 0-1zm3.9707 0a.50005.50005 0 1 0 0 1h1.99805a.50005.50005 0 1 0 0-1zm3.99805 0a.50005.50005 0 1 0 0 1h1a.50005.50005 0 1 0 0-1zm-11.99219 3a.50005.50005 0 1 0 0 1h1a.50005.50005 0 1 0 0-1zm3 0a.50005.50005 0 1 0 0 1h1.99805a.50005.50005 0 1 0 0-1zm4.05273 0a.50005.50005 0 1 0 0 1h1.91797a.50005.50005 0 1 0 0-1zm3.94727 0a.50005.50005 0 1 0 0 1h1.99219a.50005.50005 0 1 0 0-1zm-11 3a.50005.50005 0 1 0 0 1h1.99219a.50005.50005 0 1 0 0-1zm4.02344 0a.50005.50005 0 1 0 0 1h1.91601a.50005.50005 0 1 0 0-1zm3.9707 0a.50005.50005 0 1 0 0 1h1.99805a.50005.50005 0 1 0 0-1zm3.99805 0a.50005.50005 0 1 0 0 1h1a.50005.50005 0 1 0 0-1z" transform="matrix(100 0 0 100 -55099.61 -62000)"/></g></svg>