<svg id="svg2" height="1200" viewBox="0 0 1600 1200" width="1600" xmlns="http://www.w3.org/2000/svg" xmlns:inkscape="http://www.inkscape.org/namespaces/inkscape" xmlns:sodipodi="http://sodipodi.sourceforge.net/DTD/sodipodi-0.dtd"><sodipodi:namedview pagecolor="#303030" showgrid="true"><inkscape:grid id="grid5" units="px" spacingx="100" spacingy="100" color="#4772b3" opacity="0.2" visible="true" /></sodipodi:namedview><g fill="#fff"><path id="path1" d="m-365.49219 1608c-.67616-.01-.67616 1.0096 0 1h12.99219c.67616.01.67616-1.0096 0-1zm0 3c-.67616-.01-.67616 1.0096 0 1h2.63867c.0948-.3549.23771-.6892.42188-1zm9.92383 0c.18417.3108.32709.6451.42188 1h2.64648c.67616.01.67616-1.0096 0-1zm-9.92383 3c-.67616-.01-.67616 1.0096 0 1h3.06055c-.18417-.3108-.32709-.6451-.42188-1zm10.34571 0c-.0948.3549-.23771.6892-.42188 1h3.06836c.67616.01.67616-1.0096 0-1zm-10.34571 3c-.67616-.01-.67616 1.0096 0 1h12.99219c.67616.01.67616-1.0096 0-1z" opacity=".7" transform="matrix(100 0 0 100 36699.609 -160700)"/><path id="circle1" d="m360.5-1613.0002a1.5 1.5 0 0 1 -1.5 1.5 1.5 1.5 0 0 1 -1.5-1.5 1.5 1.5 0 0 1 1.5-1.5 1.5 1.5 0 0 1 1.5 1.5z" stroke="#fff" stroke-linecap="round" stroke-linejoin="round" transform="matrix(-100 0 0 -100 36699.609 -160700)"/></g></svg>