<svg height="1200" viewBox="0 0 1600 1200" width="1600" xmlns="http://www.w3.org/2000/svg" xmlns:inkscape="http://www.inkscape.org/namespaces/inkscape" xmlns:sodipodi="http://sodipodi.sourceforge.net/DTD/sodipodi-0.dtd"><sodipodi:namedview pagecolor="#303030" showgrid="true"><inkscape:grid id="grid5" units="px" spacingx="100" spacingy="100" color="#4772b3" opacity="0.2" visible="true" /></sodipodi:namedview><g fill="#fff"><g enable-background="new" transform="matrix(100 0 0 100 40900.03500000001 -160700.003)"><path d="m-406.5 1608c-.67616-.01-.67616 1.0096 0 1h11.99219c.67616.01.67616-1.0096 0-1zm3.93164 3c.18417.3108.32709.6451.42188 1h7.63867c.67616.01.67616-1.0096 0-1zm.42188 3c-.0948.3549-.23771.6892-.42188 1h8.06055c.67616.01.67616-1.0096 0-1zm-4.35352 3c-.67616-.01-.67616 1.0096 0 1h11.99219c.67616.01.67616-1.0096 0-1z" opacity=".7"/><circle cx="-406" cy="-1613.0002" r="1.5" stroke="#fff" stroke-linecap="round" stroke-linejoin="round" transform="scale(1 -1)"/></g></g></svg>