<svg height="1600" viewBox="0 0 1600 1600" width="1600" xmlns="http://www.w3.org/2000/svg" xmlns:inkscape="http://www.inkscape.org/namespaces/inkscape" xmlns:sodipodi="http://sodipodi.sourceforge.net/DTD/sodipodi-0.dtd"><sodipodi:namedview pagecolor="#303030" showgrid="true"><inkscape:grid id="grid5" units="px" spacingx="100" spacingy="100" color="#4772b3" opacity="0.2" visible="true" /></sodipodi:namedview><g fill="#fff"><path d="m310.58203 494c-1.1875 0-2.13583.69085-2.52344 1.62109-.3876.93025-.20775 2.10475.66993 2.98243l2.5 2.5c.62232.62232.69247 1.32282.45507 1.89257-.23739.56976-.78906 1.00391-1.60156 1.00391l-6.53515-.008 2.13867-2.13867a.50005.50005 0 1 0 -.70703-.70704l-2.9336 2.93555-.01.008a.50005.50005 0 0 0 -.20704.41602.50005.50005 0 0 0 0 .008.50005.50005 0 0 0 .004.0469.50005.50005 0 0 0 .008.0488.50005.50005 0 0 0 .19336.29882l2.94532 2.94532a.50005.50005 0 1 0 .70703-.70704l-2.1543-2.15429 6.55078.008c1.1875 0 2.13584-.69085 2.52344-1.62109.3876-.93025.20775-2.10475-.66992-2.98243l-2.5-2.5c-.62233-.62232-.69248-1.32282-.45508-1.89257.2374-.56976.78906-1.00391 1.60156-1.00391h4.75a.50005.50005 0 1 0 0-1z" transform="matrix(-100 0 0 100 31683.348 -49300.3664)"/></g></svg>