<svg height="1600" viewBox="0 0 1600 1600" width="1600" xmlns="http://www.w3.org/2000/svg" xmlns:inkscape="http://www.inkscape.org/namespaces/inkscape" xmlns:sodipodi="http://sodipodi.sourceforge.net/DTD/sodipodi-0.dtd"><sodipodi:namedview pagecolor="#303030" showgrid="true"><inkscape:grid id="grid5" units="px" spacingx="100" spacingy="100" color="#4772b3" opacity="0.2" visible="true" /></sodipodi:namedview><g fill="#fff"><g enable-background="new" transform="matrix(100 0 0 100 -2600 -5100.604)"><path d="m35.744141 52.003906c-.89409.01843-1.828792.373713-2.597657 1.142578l-5 5c-.837869.83787-1.178323 2.041781-1.11914 3.226563.05918 1.184782.515289 2.376617 1.36914 3.230469.852133.852132 2.037527 1.314671 3.220704 1.376953 1.183176.06228 2.389387-.280013 3.236328-1.126953l6-6a.50005.50005 0 1 0 -.707032-.707032l-6 6c-.60312.603121-1.522254.886172-2.476562.835938-.954308-.05023-1.918539-.43807-2.566406-1.085938-.646149-.646148-1.030262-1.616046-1.078125-2.574218-.04786-.958173.23781-1.878436.828125-2.46875l5-5c1.184971-1.184974 2.75871-1.004381 3.554687-.248047.796393.756731.863064 2.416231-.261719 3.541015l-4.5 4.5c-.592865.592866-1.094745.448224-1.417968.125-.323224-.323223-.467866-.825103.125-1.417968l3.5-3.5a.50005.50005 0 1 0 -.707032-.707032l-3.5 3.5c-.907134.907135-.801776 2.155255-.125 2.832032.676777.676776 1.924897.782134 2.832032-.125l4.5-4.5c1.483397-1.483398 1.519845-3.762437.24414-4.97461-.60598-.5758-1.459426-.89343-2.353515-.875z"/><rect height="16" opacity="0" rx=".5" width="16" x="26" y="52"/></g></g></svg>