<svg id="svg6" height="1600" viewBox="0 0 1600 1600" width="1600" xmlns="http://www.w3.org/2000/svg" xmlns:inkscape="http://www.inkscape.org/namespaces/inkscape" xmlns:sodipodi="http://sodipodi.sourceforge.net/DTD/sodipodi-0.dtd"><sodipodi:namedview pagecolor="#303030" showgrid="true"><inkscape:grid id="grid5" units="px" spacingx="100" spacingy="100" color="#4772b3" opacity="0.2" visible="true" /></sodipodi:namedview><g id="g6" fill="#fff" transform="matrix(-1 0 0 -1 1600 1600)"><g id="g5" enable-background="new" transform="matrix(100 0 0 -100 -200 1800)"><path id="path1" d="m13 4h3v12h-3v-1.5c0-.2761-.2239-.5-.5-.5s-.5.2239-.5.5v2c0 .2761.2239.5.5.5h4c.2761 0 .5-.2239.5-.5v-13c0-.27614-.2239-.5-.5-.5h-4c-.2761 0-.5.22386-.5.5v2c0 .27614.2239.5.5.5s.5-.22386.5-.5z" opacity=".6"/><path id="path2" d="m4.16667 16v-12h4.83333v1h1v-1.5c0-.27614-.26117-.5-.58333-.5h-5.83334c-.32216 0-.58333.22386-.58333.5v13c0 .2761.26117.5.58333.5h5.83334c.32216 0 .58333-.2239.58333-.5v-1.5h-1v1z"/><path id="path3" d="m9 12h1v2h-1z"/><path id="path4" d="m10 6h-1v2h1z"/><path id="path5" d="m14.8536 9.64645-2-2c-.0905-.09049-.2155-.14645-.3536-.14645-.2761 0-.5.22385-.5.5v1.5h-5v1h5v1.5c0 .2761.2239.5.5.5.1381 0 .2631-.056.3536-.1464l2-2c.0904-.0905.1464-.2155.1464-.3536 0-.13808-.056-.26308-.1464-.35355z"/></g></g></svg>