<svg height="1600" viewBox="0 0 1600 1600" width="1600" xmlns="http://www.w3.org/2000/svg" xmlns:inkscape="http://www.inkscape.org/namespaces/inkscape" xmlns:sodipodi="http://sodipodi.sourceforge.net/DTD/sodipodi-0.dtd"><sodipodi:namedview pagecolor="#303030" showgrid="true"><inkscape:grid id="grid5" units="px" spacingx="100" spacingy="100" color="#4772b3" opacity="0.2" visible="true" /></sodipodi:namedview><g fill="#fff"><g enable-background="new" transform="matrix(100 0 0 100 -200 -200)"><path d="m16 4h-4v1.5c0 .27614-.2239.5-.5.5-.2761 0-.5-.22386-.5-.5v-2c0-.27614.2239-.5.5-.5h5c.2761 0 .5.22386.5.5v13c0 .2761-.2239.5-.5.5h-5c-.2761 0-.5-.2239-.5-.5v-2c0-.2761.2239-.5.5-.5.2761 0 .5.2239.5.5v1.5h4z"/><path d="m4 4h4v1.5c0 .27614.22386.5.5.5.27614 0 .5-.22386.5-.5v-2c0-.27614-.22386-.5-.5-.5h-5c-.27614 0-.5.22386-.5.5v13c0 .2761.22386.5.5.5h5c.27614 0 .5-.2239.5-.5v-2c0-.2761-.22386-.5-.5-.5-.27614 0-.5.2239-.5.5v1.5h-4z"/><path d="m5.14645 9.64645 2-2c.09047-.09049.21547-.14645.35355-.14645.27615 0 .5.22385.5.5v1.5h4v-1.5c0-.27615.2239-.5.5-.5.1381 0 .2631.05596.3536.14645l2 2c.0904.09047.1464.21547.1464.35355 0 .1381-.056.2631-.1464.3536l-2 2c-.0905.0904-.2155.1464-.3536.1464-.2761 0-.5-.2239-.5-.5v-1.5h-4v1.5c0 .2761-.22385.5-.5.5-.13808 0-.26308-.056-.35355-.1464l-2-2c-.09049-.0905-.14645-.2155-.14645-.3536 0-.13808.05596-.26308.14645-.35355z"/></g></g></svg>