<svg id="svg4" height="1600" viewBox="0 0 1600 1600" width="1600" xmlns="http://www.w3.org/2000/svg" xmlns:inkscape="http://www.inkscape.org/namespaces/inkscape" xmlns:sodipodi="http://sodipodi.sourceforge.net/DTD/sodipodi-0.dtd"><sodipodi:namedview pagecolor="#303030" showgrid="true"><inkscape:grid id="grid5" units="px" spacingx="100" spacingy="100" color="#4772b3" opacity="0.2" visible="true" /></sodipodi:namedview><g fill="#fff"><path id="path1" d="m6.5006767 3c-.2761 0-.5.2238603-.5.5v9.997623c0 .2761.2239.5.5.5h9.9993233c.2761 0 .5-.2239.5-.5v-9.997623c0-.2761397-.2239-.5-.5-.5zm.5 1h8.9993233v8.997623h-8.9993233z" transform="matrix(100 0 0 100 -200 -200)"/><path id="path2-9-4" d="m4.0492005 5.9332297h1.0000662l.0003895-1h-1.5004557c-.27614 0-.5.22386-.5.5v10.9978893c0 .2761.22386.5.5.5h11.0024605c.27614 0 .5-.2239.5-.5v-1.499741s-1-.0026-1 .0017v.998001h-10.0024605z" opacity=".75" transform="matrix(100 0 0 100 -204.91635 -193.22509)"/></g></svg>