<svg height="1600" viewBox="0 0 1600 1600" width="1600" xmlns="http://www.w3.org/2000/svg" xmlns:inkscape="http://www.inkscape.org/namespaces/inkscape" xmlns:sodipodi="http://sodipodi.sourceforge.net/DTD/sodipodi-0.dtd"><sodipodi:namedview pagecolor="#303030" showgrid="true"><inkscape:grid id="grid5" units="px" spacingx="100" spacingy="100" color="#4772b3" opacity="0.2" visible="true" /></sodipodi:namedview><g fill="#fff"><g enable-background="new" transform="translate(-233 -365)"><path d="m1028 1556c-3.2833 0-6 2.4414-6 5.5 0 1.7056.9046 3.146 2.1523 4.3594l.9942.9941a.50004997.50004997 0 0 0 .3027.1485.50004997.50004997 0 0 0 .051.998h5a.50004997.50004997 0 0 0 .045-.998.50004997.50004997 0 0 0 .3086-.1485l.9981-.998c1.2122-1.1985 2.1465-2.6518 2.1465-4.3535 0-3.0586-2.7167-5.5-6-5.5zm0 1c2.7919 0 5 2.0358 5 4.5 0 1.3342-.7428 2.5488-1.8516 3.6445l-1 1a.50004997.50004997 0 0 0 .2793.8535h-4.8594a.50004997.50004997 0 0 0 .2871-.8535l-1-1a.50004997.50004997 0 0 0 -.01-.01c-1.1397-1.1082-1.8477-2.2864-1.8477-3.6406 0-2.4642 2.2081-4.5 5-4.5zm-2.5 12a.50004997.50004997 0 1 0 0 1h1.5v.5a.50004997.50004997 0 0 0 .5.5h1a.50004997.50004997 0 0 0 .5-.5v-.5h1.5a.50004997.50004997 0 1 0 0-1z"/><path d="m1025.4902 1561.0059a.50005.50005 0 0 0 -.3437.8476l.8535.8535v1.543a.50005.50005 0 1 0 1 0v-1.25h2v1.25a.50005.50005 0 1 0 1 0v-1.543l.8535-.8535a.50005.50005 0 0 0 -.707-.707l-.8535.8535h-2.586l-.8535-.8535a.50005.50005 0 0 0 -.3633-.1406z" opacity=".6"/></g><path d="m342.55078 494a.50005.50005 0 0 1 .33593.1641l2.64844 2.84179h1.00781c.45995.6015 1.17678 1 1.97852 1h-3.20312a.50005.50005 0 0 1 -.36719-.1582l-2.79492-2.99999a.50005.50005 0 0 1 .34375-.8477.50005.50005 0 0 1 .0508 0zm5.9707 4.00589c.80174 0 1.51857-.3985 1.97852-1h2.02148a.50005.50005 0 0 1 .35352.1465l3 3a.50005.50005 0 1 1 -.70704.707l-2.85351-2.8535h-2.29297v3.832c.96356 1.6489 2.8299 3.71521 5.58203 4.17391a.50086299.50086299 0 1 1 -.16406.9882c-2.4267-.4044-4.21553-1.8644-5.39844-3.34761a.50005.50005 0 0 1 -.002 0c-.001 0-.003 0-.004 0-1.00443-.9218-2.17404-1-3.22851-.2383-1.05449.76181-1.78322 2.34671-1.78321 4.09771a.50005.50005 0 1 1 -1 0c-.00001-2.0216.80114-3.89961 2.19727-4.90821.69807-.5043 1.49696-.7238 2.2832-.668.17359.012.34649.043.51758.082a.50005.50005 0 0 1 0-.01v-4zm0-3.99999c.8225 0 1.5.6775 1.5 1.49999 0 .8225-.6775 1.5-1.5 1.5s-1.5-.6775-1.5-1.5c0-.82249.6775-1.49999 1.5-1.49999z" transform="matrix(100 0 0 100 -34102.22 -49300.91379999999)"/></g></svg>