<?xml version="1.0" encoding="UTF-8" standalone="no"?>
<svg
   id="svg2"
   height="900"
   viewBox="0 0 1600 900"
   width="1600"
   version="1.1"
   xmlns="http://www.w3.org/2000/svg"
   xmlns:svg="http://www.w3.org/2000/svg" xmlns:inkscape="http://www.inkscape.org/namespaces/inkscape" xmlns:sodipodi="http://sodipodi.sourceforge.net/DTD/sodipodi-0.dtd"><sodipodi:namedview pagecolor="#303030" showgrid="true"><inkscape:grid id="grid5" units="px" spacingx="100" spacingy="100" color="#4772b3" opacity="0.2" visible="true" /></sodipodi:namedview>
  <defs
     id="defs1" />
  <g
     id="g1">
    <path
       id="path2"
       d="m184.49609 623.99414a.50005.50005 0 0 0 -.34961.85938l2.14649 2.14648h-10.58594l2.14649-2.14648a.50005.50005 0 1 0 -.70704-.70704l-3 3a.50005.50005 0 0 0 0 .70704l3 3a.50005.50005 0 1 0 .70704-.70704l-2.14649-2.14648h10.58594l-2.14649 2.14648a.50005.50005 0 1 0 .70704.70704l3-3a.50005.50005 0 0 0 0-.70704l-3-3a.50005.50005 0 0 0 -.35743-.15234z"
       fill="#fff"
       transform="matrix(100 0 0 100 -17300 -62300)" />
  </g>
</svg>
