<svg height="1600" viewBox="0 0 1600 1600" width="1600" xmlns="http://www.w3.org/2000/svg" xmlns:inkscape="http://www.inkscape.org/namespaces/inkscape" xmlns:sodipodi="http://sodipodi.sourceforge.net/DTD/sodipodi-0.dtd"><sodipodi:namedview pagecolor="#303030" showgrid="true"><inkscape:grid id="grid5" units="px" spacingx="100" spacingy="100" color="#4772b3" opacity="0.2" visible="true" /></sodipodi:namedview><g fill="#fff"><path d="m433.5 536c-.27613.00003-.49997.22387-.5.5v4.98242 8.01758c.00003.27613.22387.49997.5.5h2c.27613-.00003.49997-.22387.5-.5v-13c-.00003-.27613-.22387-.49997-.5-.5zm-.5 5.48242c-.007-.18325-.1131-.34814-.27734-.42969l-2-1c-.24704-.12272-.54679-.0222-.66993.22461l-4 8c-.12272.24704-.0222.54679.22461.66993l2 1c.24704.12272.54679.0222.66993-.22461l4-8c.0373-.0744.0554-.15702.0527-.24024zm1-4.48242h1v12h-1zm3.5 1c-.27613.00003-.49997.22387-.5.5v11c.00003.27613.22387.49997.5.5h2c.27613-.00003.49997-.22387.5-.5v-11c-.00003-.27613-.22387-.49997-.5-.5z" transform="matrix(100 0 0 100 -42500.021 -53500)"/></g></svg>