<svg height="1200" viewBox="0 0 1800 1200" width="1800" xmlns="http://www.w3.org/2000/svg" xmlns:inkscape="http://www.inkscape.org/namespaces/inkscape" xmlns:sodipodi="http://sodipodi.sourceforge.net/DTD/sodipodi-0.dtd"><sodipodi:namedview pagecolor="#303030" showgrid="true"><inkscape:grid id="grid5" units="px" spacingx="100" spacingy="100" color="#4772b3" opacity="0.2" visible="true" /></sodipodi:namedview><g fill="#fff"><g enable-background="new" transform="translate(-233 -365)"><path d="m1028 1556c-3.2833 0-6 2.4414-6 5.5 0 1.7056.9046 3.146 2.1523 4.3594l.9942.9941a.50004997.50004997 0 0 0 .3027.1485.50004997.50004997 0 0 0 .051.998h5a.50004997.50004997 0 0 0 .045-.998.50004997.50004997 0 0 0 .3086-.1485l.9981-.998c1.2122-1.1985 2.1465-2.6518 2.1465-4.3535 0-3.0586-2.7167-5.5-6-5.5zm0 1c2.7919 0 5 2.0358 5 4.5 0 1.3342-.7428 2.5488-1.8516 3.6445l-1 1a.50004997.50004997 0 0 0 .2793.8535h-4.8594a.50004997.50004997 0 0 0 .2871-.8535l-1-1a.50004997.50004997 0 0 0 -.01-.01c-1.1397-1.1082-1.8477-2.2864-1.8477-3.6406 0-2.4642 2.2081-4.5 5-4.5zm-2.5 12a.50004997.50004997 0 1 0 0 1h1.5v.5a.50004997.50004997 0 0 0 .5.5h1a.50004997.50004997 0 0 0 .5-.5v-.5h1.5a.50004997.50004997 0 1 0 0-1z"/><path d="m1025.4902 1561.0059a.50005.50005 0 0 0 -.3437.8476l.8535.8535v1.543a.50005.50005 0 1 0 1 0v-1.25h2v1.25a.50005.50005 0 1 0 1 0v-1.543l.8535-.8535a.50005.50005 0 0 0 -.707-.707l-.8535.8535h-2.586l-.8535-.8535a.50005.50005 0 0 0 -.3633-.1406z" opacity=".6"/></g><path d="m240 602c-1.21759 0-2.24187.34734-2.94727 1.05273-.70539.7054-1.05273 1.72968-1.05273 2.94727v3.41992a.50005.50005 0 0 0 .11328.4043.50005.50005 0 0 0 .0156.0195.50005.50005 0 0 0 .0176.0176.50005.50005 0 0 0 .004.002.50005.50005 0 0 0 .0332.0312.50005.50005 0 0 0 .004.002.50005.50005 0 0 0 .39435.10348h.16797a.50005.50005 0 0 0 .25-.93555v-3.06445c0-1.03241.27766-1.75813.75977-2.24023.4821-.48211 1.20782-.75977 2.24023-.75977h4.29297l2.85351 2.85352a.50005.50005 0 0 0 .35352.14648h1.5c.63889 0 1.1225.20453 1.45898.54102.33649.33648.54102.82009.54102 1.45898v1.5a.50005.50005 0 1 0 1 0v-1.5c0-.86111-.29547-1.6275-.83398-2.16602-.53852-.53851-1.30491-.83398-2.16602-.83398h-1.29297l-2.85351-2.85352a.50005.50005 0 0 0 -.35352-.14648zm-.5 7c-.8225 0-1.5.6775-1.5 1.5s.6775 1.5 1.5 1.5 1.5-.6775 1.5-1.5-.6775-1.5-1.5-1.5zm3 0a.50005.50005 0 1 0 0 1h3a.50005.50005 0 1 0 0-1zm6 0c-.8225 0-1.5.6775-1.5 1.5s.6775 1.5 1.5 1.5 1.5-.6775 1.5-1.5-.6775-1.5-1.5-1.5zm-9 1c.28206 0 .5.21794.5.5s-.21794.5-.5.5-.5-.21794-.5-.5.21794-.5.5-.5zm9 0c.28206 0 .5.21794.5.5s-.21794.5-.5.5-.5-.21794-.5-.5.21794-.5.5-.5z" transform="matrix(100 0 0 100 -23499.683 -60100)"/></g></svg>