<svg height="1200" viewBox="0 0 1800 1200" width="1800" xmlns="http://www.w3.org/2000/svg" xmlns:inkscape="http://www.inkscape.org/namespaces/inkscape" xmlns:sodipodi="http://sodipodi.sourceforge.net/DTD/sodipodi-0.dtd"><sodipodi:namedview pagecolor="#303030" showgrid="true"><inkscape:grid id="grid5" units="px" spacingx="100" spacingy="100" color="#4772b3" opacity="0.2" visible="true" /></sodipodi:namedview><g fill="#fff"><path d="m240 602c-1.21759 0-2.24187.34734-2.94727 1.05273-.70539.7054-1.05273 1.72968-1.05273 2.94727v3.41992a.50005.50005 0 0 0 .11328.4043.50005.50005 0 0 0 .0156.0195.50005.50005 0 0 0 .0176.0176.50005.50005 0 0 0 .004.002.50005.50005 0 0 0 .0332.0312.50005.50005 0 0 0 .004.002.50005.50005 0 0 0 .39435.10348h.16797a.50005.50005 0 0 0 .25-.93555v-3.06445c0-1.03241.27766-1.75813.75977-2.24023.4821-.48211 1.20782-.75977 2.24023-.75977h4.29297l2.85351 2.85352a.50005.50005 0 0 0 .35352.14648h1.5c.63889 0 1.1225.20453 1.45898.54102.33649.33648.54102.82009.54102 1.45898v1.5a.50005.50005 0 1 0 1 0v-1.5c0-.86111-.29547-1.6275-.83398-2.16602-.53852-.53851-1.30491-.83398-2.16602-.83398h-1.29297l-2.85351-2.85352a.50005.50005 0 0 0 -.35352-.14648zm-.5 7c-.8225 0-1.5.6775-1.5 1.5s.6775 1.5 1.5 1.5 1.5-.6775 1.5-1.5-.6775-1.5-1.5-1.5zm3 0a.50005.50005 0 1 0 0 1h3a.50005.50005 0 1 0 0-1zm6 0c-.8225 0-1.5.6775-1.5 1.5s.6775 1.5 1.5 1.5 1.5-.6775 1.5-1.5-.6775-1.5-1.5-1.5zm-9 1c.28206 0 .5.21794.5.5s-.21794.5-.5.5-.5-.21794-.5-.5.21794-.5.5-.5zm9 0c.28206 0 .5.21794.5.5s-.21794.5-.5.5-.5-.21794-.5-.5.21794-.5.5-.5z" transform="matrix(100 0 0 100 -23499.683 -60100)"/></g></svg>