<svg height="1600" viewBox="0 0 1600 1600" width="1600" xmlns="http://www.w3.org/2000/svg" xmlns:inkscape="http://www.inkscape.org/namespaces/inkscape" xmlns:sodipodi="http://sodipodi.sourceforge.net/DTD/sodipodi-0.dtd"><sodipodi:namedview pagecolor="#303030" showgrid="true"><inkscape:grid id="grid5" units="px" spacingx="100" spacingy="100" color="#4772b3" opacity="0.2" visible="true" /></sodipodi:namedview><g fill="#fff"><g enable-background="new" transform="matrix(100 0 0 100 -40400.39 -45101.1715)"><path d="m415.5 452.00781c-.27613.00003-.49997.22387-.5.5v3.00781c.00003.27613.22387.49997.5.5h3.00781c.27613-.00003.49997-.22387.5-.5v-3.00781c-.00003-.27613-.22387-.49997-.5-.5zm-10 10c-.27613.00003-.49997.22387-.5.5v3.00781c.00003.27613.22387.49997.5.5h3.00781c.27613-.00003.49997-.22387.5-.5v-3.00781c-.00003-.27613-.22387-.49997-.5-.5z"/><path d="m409.49219 454.00781a.50005.50005 0 0 0 -.5.5v1.5h-1.5a.50005.50005 0 0 0 -.5.5l.008 3a.50005.50005 0 1 0 1-.002l-.006-2.49805h1.49805a.50005.50005 0 0 0 .5-.5v-1.5h2.5a.50005.50005 0 1 0 0-1zm3.99804 2.98828a.50005.50005 0 0 0 -.34375.15039l-3 3.00782a.50005.50005 0 1 0 .70704.70508l3-3.00586a.50005.50005 0 0 0 -.36329-.85743zm3.00196 1.00391a.50005.50005 0 0 0 -.49219.50781v2.5h-1.5a.50005.50005 0 0 0 -.5.5v1.49805l-2.49805-.00586a.50005.50005 0 1 0 -.004 1l3 .008a.50005.50005 0 0 0 .50195-.5v-1.5h1.5a.50005.50005 0 0 0 .5-.5v-3a.50005.50005 0 0 0 -.50771-.508z" opacity=".8"/></g></g></svg>