<svg height="1500" viewBox="0 0 1600 1500" width="1600" xmlns="http://www.w3.org/2000/svg" xmlns:inkscape="http://www.inkscape.org/namespaces/inkscape" xmlns:sodipodi="http://sodipodi.sourceforge.net/DTD/sodipodi-0.dtd"><sodipodi:namedview pagecolor="#303030" showgrid="true"><inkscape:grid id="grid5" units="px" spacingx="100" spacingy="100" color="#4772b3" opacity="0.2" visible="true" /></sodipodi:namedview><g fill="#fff"><g enable-background="new" fill-rule="evenodd" transform="matrix(-100 0 0 100 27300.878 -9399.918)"><path d="m263.49219 94.992188a.50005.50005 0 0 0 -.49219.507812v8.91016l-4.68555 1.875a.50050477.50050477 0 1 0 .3711.92968l4.82812-1.93164 7.82422 2.68946a.50005.50005 0 1 0 .32422-.94532l-7.66211-2.63476v-8.89258a.50005.50005 0 0 0 -.50781-.507812z" opacity=".6"/><path d="m265.50586 95.435547c-.27842-.0032-.50585.221565-.50586.5v6.884763c-.00013.21757.14044.41026.34766.47657l6 1.92968c.32275.10319.65252-.13772.65234-.47656v-6.884766c.00013-.217571-.14044-.410257-.34766-.476562l-6-1.929688c-.0474-.01505-.0968-.02295-.14648-.02344z"/></g></g></svg>