<svg height="1600" viewBox="0 0 1500 1600" width="1500" xmlns="http://www.w3.org/2000/svg" xmlns:inkscape="http://www.inkscape.org/namespaces/inkscape" xmlns:sodipodi="http://sodipodi.sourceforge.net/DTD/sodipodi-0.dtd"><sodipodi:namedview pagecolor="#303030" showgrid="true"><inkscape:grid id="grid5" units="px" spacingx="100" spacingy="100" color="#4772b3" opacity="0.2" visible="true" /></sodipodi:namedview><g fill="#fff"><g enable-background="new" fill-rule="evenodd" transform="matrix(100 0 0 100 -30000 -9299.624)"><path d="m307.51172 103c-.0577-.001-.11517.007-.16992.0254l-6 2c-.45678.15155-.45678.79767 0 .94922l6 2c.10269.0343.21371.0343.3164 0l6-2c.45678-.15155.45678-.79767 0-.94922l-6-2c-.0473-.0157-.0967-.0243-.14648-.0254z"/><path d="m307.49219 93.992188a.50005.50005 0 0 0 -.49219.507812v5.88867l-5.6582 1.88672a.50028181.50028181 0 1 0 .3164.94922l5.8418-1.94727 5.8418 1.94727a.50028181.50028181 0 1 0 .3164-.94922l-5.6582-1.88672v-5.88867a.50005.50005 0 0 0 -.50781-.507812z" opacity=".6"/></g></g></svg>