<svg height="1600" viewBox="0 0 5780 1599.9999" width="5780" xmlns="http://www.w3.org/2000/svg" xmlns:inkscape="http://www.inkscape.org/namespaces/inkscape" xmlns:sodipodi="http://sodipodi.sourceforge.net/DTD/sodipodi-0.dtd"><sodipodi:namedview pagecolor="#303030" showgrid="true"><inkscape:grid id="grid5" units="px" spacingx="100" spacingy="100" color="#4772b3" opacity="0.2" visible="true" /></sodipodi:namedview><g enable-background="new" fill="#fff" transform="translate(-233 -365)"><path d="m1028 1556c-3.2833 0-6 2.4414-6 5.5 0 1.7056.9046 3.146 2.1523 4.3594l.9942.9941a.50004997.50004997 0 0 0 .3027.1485.50004997.50004997 0 0 0 .051.998h5a.50004997.50004997 0 0 0 .045-.998.50004997.50004997 0 0 0 .3086-.1485l.9981-.998c1.2122-1.1985 2.1465-2.6518 2.1465-4.3535 0-3.0586-2.7167-5.5-6-5.5zm0 1c2.7919 0 5 2.0358 5 4.5 0 1.3342-.7428 2.5488-1.8516 3.6445l-1 1a.50004997.50004997 0 0 0 .2793.8535h-4.8594a.50004997.50004997 0 0 0 .2871-.8535l-1-1a.50004997.50004997 0 0 0 -.01-.01c-1.1397-1.1082-1.8477-2.2864-1.8477-3.6406 0-2.4642 2.2081-4.5 5-4.5zm-2.5 12a.50004997.50004997 0 1 0 0 1h1.5v.5a.50004997.50004997 0 0 0 .5.5h1a.50004997.50004997 0 0 0 .5-.5v-.5h1.5a.50004997.50004997 0 1 0 0-1z"/><path d="m1025.4902 1561.0059a.50005.50005 0 0 0 -.3437.8476l.8535.8535v1.543a.50005.50005 0 1 0 1 0v-1.25h2v1.25a.50005.50005 0 1 0 1 0v-1.543l.8535-.8535a.50005.50005 0 0 0 -.707-.707l-.8535.8535h-2.586l-.8535-.8535a.50005.50005 0 0 0 -.3633-.1406z" opacity=".6"/></g><g clip-rule="evenodd" enable-background="new" stroke-linejoin="round" stroke-miterlimit="2" transform="matrix(100 0 0 100 -2876.575 -43092.903)"><path d="m30.583145 445.29776h56.316948v15.124175h-56.316948z" fill="none" stroke-width=".025131"/><g fill="#f9f9f9" fill-rule="evenodd" transform="matrix(.11457722 0 0 .11457713 24.184109 480.62277)"><g fill-rule="nonzero"><path d="m243.13-333.715c.106-1.891 1.032-3.557 2.429-4.738 1.37-1.16 3.214-1.869 5.226-1.869 2.01 0 3.854.709 5.225 1.869 1.396 1.181 2.322 2.847 2.429 4.736.106 1.943-.675 3.748-2.045 5.086-1.397 1.361-3.384 2.215-5.609 2.215s-4.216-.854-5.612-2.215c-1.371-1.338-2.15-3.143-2.043-5.084z" transform="matrix(2.66418 0 0 2.66418 -520.324 532.513)"/><path d="m230.94-329.894c.013.74.249 2.178.603 3.301.744 2.377 2.006 4.576 3.762 6.514 1.802 1.992 4.021 3.592 6.584 4.728 2.694 1.193 5.613 1.801 8.645 1.796 3.027-.004 5.946-.624 8.64-1.826 2.563-1.147 4.78-2.754 6.579-4.747 1.755-1.946 3.015-4.149 3.761-6.526.375-1.201.612-2.42.707-3.643.093-1.205.054-2.412-.117-3.618-.334-2.35-1.147-4.555-2.399-6.565-1.145-1.847-2.621-3.464-4.376-4.825l.004-.003-17.711-13.599c-.016-.012-.029-.025-.046-.036-1.162-.892-3.116-.889-4.394.005-1.292.904-1.44 2.399-.29 3.342l-.005.005 7.387 6.007-22.515.024h-.03c-1.861.002-3.65 1.223-4.004 2.766-.364 1.572.9 2.876 2.835 2.883l-.003.007 11.412-.022-20.364 15.631c-.026.019-.054.039-.078.058-1.921 1.471-2.542 3.917-1.332 5.465 1.228 1.574 3.839 1.577 5.78.009l11.114-9.096s-.162 1.228-.149 1.965zm28.559 4.112c-2.29 2.333-5.496 3.656-8.965 3.663-3.474.006-6.68-1.305-8.97-3.634-1.119-1.135-1.941-2.441-2.448-3.832-.497-1.367-.69-2.818-.562-4.282.121-1.431.547-2.796 1.227-4.031.668-1.214 1.588-2.311 2.724-3.239 2.226-1.814 5.06-2.796 8.024-2.8 2.967-.004 5.799.969 8.027 2.777 1.134.924 2.053 2.017 2.721 3.229.683 1.234 1.106 2.594 1.232 4.029.126 1.462-.067 2.911-.564 4.279-.508 1.395-1.327 2.701-2.446 3.841z" transform="matrix(2.66418 0 0 2.66418 -520.324 532.513)"/><path d="m364.467-333.746c.171-1.908 1.646-3.118 3.899-3.118 2.256 0 3.73 1.21 3.901 3.118zm7.569 4.711c-.577 1.414-1.937 2.251-3.784 2.251-2.313 0-3.87-1.444-3.933-3.725h13.297v-.671c0-5.714-3.354-8.925-9.364-8.925-5.836 0-9.365 3.241-9.365 8.324 0 5.114 3.584 8.35 9.365 8.35 3.469 0 6.159-1.189 7.817-3.279z" transform="matrix(2.66418 0 0 2.66418 -520.324 532.513)"/><path d="m305.468-333.737c.176-1.908 1.651-3.118 3.906-3.118 2.252 0 3.726 1.21 3.899 3.118zm7.574 4.711c-.578 1.418-1.937 2.255-3.788 2.255-2.309 0-3.87-1.448-3.931-3.73h13.294v-.667c0-5.717-3.353-8.929-9.363-8.929-5.839 0-9.361 3.242-9.361 8.325 0 5.114 3.582 8.35 9.361 8.35 3.468 0 6.16-1.185 7.821-3.278z" transform="matrix(2.66418 0 0 2.66418 -520.324 532.513)"/><path d="m262.6971779018-382.7926808h12.7747431v52.26322172418h-12.7747431z" stroke-width="2.66418"/><path d="m319.81-338.348h4.822v1.168c1.707-1.822 3.757-2.743 6.069-2.743 2.663 0 4.679.921 5.72 2.489.869 1.295.926 2.858.926 4.912v8.579h-4.829v-7.538c0-3.128-.629-4.572-3.375-4.572-2.775 0-4.511 1.653-4.511 4.428v7.682h-4.822z" transform="matrix(2.66418 0 0 2.66418 -520.324 532.513)"/><path d="m352.876-331.538c0 2.685-1.794 4.446-4.57 4.446-2.778 0-4.572-1.701-4.572-4.415 0-2.754 1.77-4.454 4.572-4.454 2.776 0 4.57 1.73 4.57 4.423zm0-6.157c-1.219-1.307-2.983-2.024-5.435-2.024-5.29 0-8.902 3.262-8.902 8.151 0 4.793 3.587 8.146 8.815 8.146 2.397 0 4.157-.606 5.522-1.965v1.444h4.825v-20.861l-4.825 1.244z" transform="matrix(2.66418 0 0 2.66418 -520.324 532.513)"/><path d="m282.947-335.961c2.804 0 4.567 1.7 4.567 4.454 0 2.714-1.791 4.415-4.567 4.415-2.774 0-4.566-1.761-4.566-4.446 0-2.693 1.792-4.423 4.566-4.423zm-4.566-7.599-4.827-1.244v20.861h4.827v-1.444c1.358 1.359 3.121 1.965 5.52 1.965 5.231 0 8.813-3.353 8.813-8.146 0-4.889-3.613-8.151-8.9-8.151-2.457 0-4.22.717-5.433 2.024z" transform="matrix(2.66418 0 0 2.66418 -520.324 532.513)"/><path d="m378.806-323.943v-14.405h4.825v.89c1.445-1.74 2.974-2.606 4.713-2.606.345 0 .779.056 1.356.113v4.107c-.465-.061-.983-.061-1.533-.061-2.805 0-4.536 1.85-4.536 4.996v6.966z" transform="matrix(2.66418 0 0 2.66418 -520.324 532.513)"/></g><text font-family="OpenSans-Semibold, 'Open Sans', sans-serif" font-size="50" font-weight="600" transform="matrix(.271988 0 0 .271988 -78.0964 -584.901)" x="2213.3999" y="784.854">®</text></g></g></svg>