<svg id="svg2" height="1500" viewBox="0 0 1800 1499.9999" width="1800" xmlns="http://www.w3.org/2000/svg" xmlns:inkscape="http://www.inkscape.org/namespaces/inkscape" xmlns:sodipodi="http://sodipodi.sourceforge.net/DTD/sodipodi-0.dtd"><sodipodi:namedview pagecolor="#303030" showgrid="true"><inkscape:grid id="grid5" units="px" spacingx="100" spacingy="100" color="#4772b3" opacity="0.2" visible="true" /></sodipodi:namedview><g id="g2" clip-rule="evenodd" enable-background="new" fill="#fff" stroke-linejoin="round" stroke-miterlimit="1.41421" transform="matrix(28.215572 0 0 28.232947 -5925.9322 10252.77)"><path id="path1" d="m243.08267-333.67977c.106-1.891 1.032-3.557 2.429-4.738 1.37-1.16 3.214-1.869 5.226-1.869 2.01 0 3.854.709 5.225 1.869 1.396 1.181 2.322 2.847 2.429 4.736.106 1.943-.675 3.748-2.045 5.086-1.397 1.361-3.384 2.215-5.609 2.215s-4.216-.854-5.612-2.215c-1.371-1.338-2.15-3.143-2.043-5.084z" fill="#fff"/><path id="path2" d="m230.94-329.894c.013.74.249 2.178.603 3.301.744 2.377 2.006 4.576 3.762 6.514 1.802 1.992 4.021 3.592 6.584 4.728 2.694 1.193 5.613 1.801 8.645 1.796 3.027-.004 5.946-.624 8.64-1.826 2.563-1.147 4.78-2.754 6.579-4.747 1.755-1.946 3.015-4.149 3.761-6.526.375-1.201.612-2.42.707-3.643.093-1.205.054-2.412-.117-3.618-.334-2.35-1.147-4.555-2.399-6.565-1.145-1.847-2.621-3.464-4.376-4.825l.004-.003-17.711-13.599c-.016-.012-.029-.025-.046-.036-1.162-.892-3.116-.889-4.394.005-1.292.904-1.44 2.399-.29 3.342l-.005.005 7.387 6.01506-22.515.024h-.03c-1.861.002-3.65 1.21494-4.004 2.75794-.364 1.572.9 2.876 2.835 2.883l-.003.007 11.412-.022-20.364 15.631c-.026.019-.054.039-.078.058-1.921 1.471-2.542 3.917-1.332 5.465 1.228 1.574 3.839 1.577 5.78.009l11.114-9.096s-.162 1.228-.149 1.965zm28.79015 4.112c-2.29 2.333-5.496 3.656-8.965 3.663-3.474.006-6.68-1.305-8.97-3.634-1.119-1.135-1.941-2.441-2.448-3.832-.497-1.367-.69-2.818-.562-4.282.121-1.431.547-2.796 1.227-4.031.668-1.214 1.588-2.311 2.724-3.239 2.226-1.814 5.06-2.796 8.024-2.8 2.967-.004 5.799.969 8.027 2.777 1.134.924 2.053 2.017 2.721 3.229.683 1.234 1.106 2.594 1.232 4.029.126 1.462-.067 2.911-.564 4.279-.508 1.395-1.327 2.701-2.446 3.841z"/></g></svg>