<svg height="1600" viewBox="0 0 1700 1600" width="1700" xmlns="http://www.w3.org/2000/svg" xmlns:inkscape="http://www.inkscape.org/namespaces/inkscape" xmlns:sodipodi="http://sodipodi.sourceforge.net/DTD/sodipodi-0.dtd"><sodipodi:namedview pagecolor="#303030" showgrid="true"><inkscape:grid id="grid5" units="px" spacingx="100" spacingy="100" color="#4772b3" opacity="0.2" visible="true" /></sodipodi:namedview><g fill="#fff"><g enable-background="new" transform="translate(-233 -365)"><path d="m1028 1556c-3.2833 0-6 2.4414-6 5.5 0 1.7056.9046 3.146 2.1523 4.3594l.9942.9941a.50004997.50004997 0 0 0 .3027.1485.50004997.50004997 0 0 0 .051.998h5a.50004997.50004997 0 0 0 .045-.998.50004997.50004997 0 0 0 .3086-.1485l.9981-.998c1.2122-1.1985 2.1465-2.6518 2.1465-4.3535 0-3.0586-2.7167-5.5-6-5.5zm0 1c2.7919 0 5 2.0358 5 4.5 0 1.3342-.7428 2.5488-1.8516 3.6445l-1 1a.50004997.50004997 0 0 0 .2793.8535h-4.8594a.50004997.50004997 0 0 0 .2871-.8535l-1-1a.50004997.50004997 0 0 0 -.01-.01c-1.1397-1.1082-1.8477-2.2864-1.8477-3.6406 0-2.4642 2.2081-4.5 5-4.5zm-2.5 12a.50004997.50004997 0 1 0 0 1h1.5v.5a.50004997.50004997 0 0 0 .5.5h1a.50004997.50004997 0 0 0 .5-.5v-.5h1.5a.50004997.50004997 0 1 0 0-1z"/><path d="m1025.4902 1561.0059a.50005.50005 0 0 0 -.3437.8476l.8535.8535v1.543a.50005.50005 0 1 0 1 0v-1.25h2v1.25a.50005.50005 0 1 0 1 0v-1.543l.8535-.8535a.50005.50005 0 0 0 -.707-.707l-.8535.8535h-2.586l-.8535-.8535a.50005.50005 0 0 0 -.3633-.1406z" opacity=".6"/></g><g enable-background="new" opacity=".99" stroke-width="1.07692" transform="matrix(92.8571 0 0 92.8571 -29608.14600000001 -57470.909)"><path d="m327.94922 619.99609c-.89539.0396-1.29072 1.14622-.62305 1.74414l1.37305 1.26563h-6.69727c-1.36099-.0279-1.36099 2.02794 0 2h3.0918c-.003.002-.005.004-.008.006l-4.75 4.24805c-.99479.88933.33919 2.38151 1.33398 1.49218l2.33985-2.09375c.0823 2.95524 2.51793 5.34766 5.49218 5.34766 3.02565 0 5.49805-2.47428 5.49805-5.5 0-1.56564-.6642-2.98065-1.72266-3.98438l-4.59961-4.25195c-.19597-.18575-.45872-.28437-.72851-.27344zm1.55273 5.00977c1.94471 0 3.5 1.5551 3.5 3.5 0 1.94489-1.55529 3.5-3.5 3.5-1.94472 0-3.5-1.55511-3.5-3.5 0-1.9449 1.55528-3.5 3.5-3.5zm-.0176 1.78516a1.7319623 1.7139345 0 0 0 -1.73243 1.71484 1.7319623 1.7139345 0 0 0 1.73243 1.71289 1.7319623 1.7139345 0 0 0 1.73242-1.71289 1.7319623 1.7139345 0 0 0 -1.73242-1.71484z" fill="#fff" opacity="1" transform="matrix(1.07692 0 0 1.07692 -24.694 -47.6977)"/><path d="m318.84433-637.22546h19.384615v19.384617h-19.384615z" fill="none" stroke-width="1.75216" transform="scale(1 -1)"/></g></g></svg>