<svg id="svg13" clip-rule="evenodd" fill-rule="evenodd" height="1600" stroke-linejoin="round" stroke-miterlimit="1.41421" viewBox="0 0 5236.3638 1600" width="5236.3638" xmlns="http://www.w3.org/2000/svg" xmlns:inkscape="http://www.inkscape.org/namespaces/inkscape" xmlns:sodipodi="http://sodipodi.sourceforge.net/DTD/sodipodi-0.dtd"><sodipodi:namedview pagecolor="#303030" showgrid="true"><inkscape:grid id="grid5" units="px" spacingx="100" spacingy="100" color="#4772b3" opacity="0.2" visible="true" /></sodipodi:namedview><g id="logo" clip-rule="evenodd" fill-rule="evenodd" stroke-linejoin="round" stroke-miterlimit="1.41421" transform="matrix(2.8213013 0 0 2.9510891 -223.57633 -1941.9237)"><g id="blender_white" fill="none"><path id="path1" clip-rule="evenodd" d="m387.513-348.729s-117.336 0-120.645 0c-.074-.057-.141-.126-.212-.181-.018-.017-17.749-13.638-18.282-14.05-.031-.023-.061-.046-.061-.046-2.841-2.175-7.061-2.221-10.052-.125-1.871 1.309-2.995 3.289-3.079 5.431-.002.085-.007.171-.007.258 0 1.111.295 2.184.828 3.148-5.49.005-11.012.011-11.012.011-4.118.003-7.842 2.781-8.692 6.462-.121.528-.182 1.06-.182 1.588 0 1.54.512 3.033 1.481 4.259 1.091 1.371 2.665 2.294 4.461 2.654-5.187 3.983-10.37 7.96-10.375 7.965-.037.027-.067.052-.093.069-2.08 1.598-3.45 3.912-3.76 6.348-.046.357-.068.711-.068 1.062 0 1.754.56 3.422 1.622 4.785 1.293 1.654 3.201 2.704 5.374 2.951 2.49.288 5.11-.51 7.183-2.186.013-.01 2.58-2.115 5.287-4.329.993 2.397 2.386 4.619 4.186 6.606 2.316 2.559 5.131 4.581 8.362 6.011 3.396 1.505 7.035 2.265 10.817 2.256 3.785-.007 7.422-.776 10.813-2.29 3.238-1.449 6.047-3.478 8.354-6.033.339-.378.651-.776.963-1.176h116.789c9.226 0 16.723-7.053 16.723-15.722 0-8.671-7.497-15.726-16.723-15.726z" stroke-linejoin="round" stroke-miterlimit="1.41421" transform="matrix(9.3753293 0 0 8.9629942 -1861.0917 3942.8175)"/></g><g><g id="blender_logo_blue" fill="#ffffff"><path id="text10" clip-rule="evenodd" d="m2258.6147 768.86279q0 8.74024-6.2011 14.94141-6.1768 6.17676-14.917 6.17676-8.7403 0-14.9414-6.17676-6.1768-6.20117-6.1768-14.94141 0-8.74023 6.1768-14.91699 6.2011-6.20117 14.9414-6.20117 8.7402 0 14.917 6.20117 6.2011 6.17676 6.2011 14.91699zm-4.6386 0q0-6.81152-4.834-11.69433-4.8096-4.90723-11.6211-4.90723-6.8115 0-11.6455 4.90723-4.8096 4.88281-4.8096 11.69433 0 6.81153 4.8096 11.71875 4.834 4.88282 11.6455 4.88282 6.8115 0 11.6211-4.88282 4.834-4.90722 4.834-11.71875zm-4.6143 10.00977h-6.6162l-6.3721-7.71485h-2.0996v7.71485h-5.1758v-21.02051h7.9834q2.2217 0 3.5645.1709 1.3428.1709 2.6611.87891 1.4405.80566 2.0996 1.95312.6836 1.14746.6836 2.85645 0 2.29492-1.2939 3.78418-1.294 1.48925-3.3692 2.31933zm-9.0332-14.77051q0-.65918-.293-1.19629-.2685-.56152-.9277-.90332-.6103-.3418-1.416-.41504-.7813-.0977-1.7822-.0977h-1.6358v5.93261h1.2451q1.294 0 2.2217-.1709.9278-.19531 1.4893-.63476.5615-.41504.8301-1.02539.2685-.61035.2685-1.48926z" fill-rule="evenodd" stroke-linejoin="round" stroke-miterlimit="1.41421" transform="matrix(.95713393 0 0 .91503835 -304.87922 183.54967)"/><g fill-rule="nonzero" transform="matrix(9.3753293 0 0 8.9629942 -1861.0917 3942.8175)"><path id="rect5" d="m273.55408-344.804v20.86091h4.82696v-1.44383c1.358 1.359 3.12105 1.96489 5.52005 1.96489 5.23098 0 8.81285-3.35302 8.81285-8.146 0-4.889-3.61295-8.15095-8.89995-8.15095-2.45698 0-4.21995.71703-5.43295 2.02403v-5.865zm84.14695 0-4.82502 1.24405v5.865c-1.219-1.307-2.98311-2.02403-5.43511-2.02403-5.28998 0-8.90188 3.26195-8.90188 8.15095 0 4.79298 3.58702 8.146 8.815 8.146 2.397 0 4.15699-.60589 5.52199-1.96489v1.44383h4.82502zm-63.79401 1.24405v19.61686h4.79491v-19.61686zm74.34487 3.45496c-5.83598 0-9.36488 3.24108-9.36488 8.32406 0 5.114 3.5839 8.34987 9.36488 8.34987 3.469 0 6.15919-1.18905 7.81719-3.27905l-4.033-2.32488c-.577 1.414-1.93719 2.25091-3.78419 2.25091-2.313 0-3.86978-1.44384-3.93278-3.72484h13.2968v-.67117c0-5.71398-3.35402-8.9249-9.36402-8.9249zm-58.9978.008c-5.83898 0-9.36101 3.24215-9.36101 8.32513 0 5.114 3.58203 8.34987 9.36101 8.34987 3.468 0 6.15984-1.18497 7.82084-3.27797l-4.033-2.32595c-.578 1.418-1.93684 2.25499-3.78784 2.25499-2.309 0-3.87006-1.44802-3.93106-3.73h13.29401v-.66708c0-5.717-3.35297-8.92899-9.36295-8.92899zm79.08989.0331c-1.739 0-3.26798.86595-4.71298 2.60595v-.89008h-4.82502v14.40496h4.82502v-6.96582c0-3.146 1.73101-4.99599 4.53599-4.99599.55 0 1.06808-.00014 1.53308.0609v-4.10698c-.577-.057-1.01109-.1129-1.35609-.1129zm-57.64301.14086c-2.31198 0-4.36206.92115-6.06906 2.74315v-1.16814h-4.82201v14.40496h4.82201v-7.68193c0-2.775 1.73605-4.42804 4.51105-4.42804 2.74598 0 3.37495 1.44414 3.37495 4.57212v7.53785h4.8291v-8.57889c0-2.054-.057-3.61712-.92599-4.91212-1.041-1.568-3.05705-2.48896-5.72005-2.48896zm37.66511 3.05905c2.256 0 3.72996 1.20998 3.90096 3.11798h-7.79998c.171-1.908 1.64604-3.11798 3.89902-3.11798zm-58.99199.009c2.25198 0 3.72582 1.20998 3.8988 3.11798h-7.80492c.176-1.908 1.65112-3.11798 3.90612-3.11798zm-26.42717.89396c2.804 0 4.56718 1.70008 4.56718 4.45406 0 2.714-1.79118 4.41493-4.56718 4.41493-2.774 0-4.56588-1.76091-4.56588-4.44589 0-2.693 1.79188-4.4231 4.56588-4.4231zm65.35912 0c2.776 0 4.56997 1.7301 4.56997 4.4231 0 2.68498-1.79397 4.44589-4.56997 4.44589-2.778 0-4.57212-1.70093-4.57212-4.41493 0-2.75398 1.77012-4.45406 4.57212-4.45406z"/><path id="path2" clip-rule="evenodd" d="m243.13-333.715c.106-1.891 1.032-3.557 2.429-4.738 1.37-1.16 3.214-1.869 5.226-1.869 2.01 0 3.854.709 5.225 1.869 1.396 1.181 2.322 2.847 2.429 4.736.106 1.943-.675 3.748-2.045 5.086-1.397 1.361-3.384 2.215-5.609 2.215s-4.216-.854-5.612-2.215c-1.371-1.338-2.15-3.143-2.043-5.084z" stroke-linejoin="round" stroke-miterlimit="1.41421"/></g></g><g id="blender_logo_orange" fill="#ffffff"><path id="path3" clip-rule="evenodd" d="m230.94-329.894c.013.74.249 2.178.603 3.301.744 2.377 2.006 4.576 3.762 6.514 1.802 1.992 4.021 3.592 6.584 4.728 2.694 1.193 5.613 1.801 8.645 1.796 3.027-.004 5.946-.624 8.64-1.826 2.563-1.147 4.78-2.754 6.579-4.747 1.755-1.946 3.015-4.149 3.761-6.526.375-1.201.612-2.42.707-3.643.093-1.205.054-2.412-.117-3.618-.334-2.35-1.147-4.555-2.399-6.565-1.145-1.847-2.621-3.464-4.376-4.825l.004-.003-17.711-13.599c-.016-.012-.029-.025-.046-.036-1.162-.892-3.116-.889-4.394.005-1.292.904-1.44 2.399-.29 3.342l-.005.005 7.387 6.007-22.515.024c-.011 0-.022 0-.03 0-1.861.002-3.65 1.223-4.004 2.766-.364 1.572.9 2.876 2.835 2.883l-.003.007 11.412-.022-20.364 15.631c-.026.019-.054.039-.078.058-1.921 1.471-2.542 3.917-1.332 5.465 1.228 1.574 3.839 1.577 5.78.009l11.114-9.096s-.162 1.228-.149 1.965zm28.559 4.112c-2.29 2.333-5.496 3.656-8.965 3.663-3.474.006-6.68-1.305-8.97-3.634-1.119-1.135-1.941-2.441-2.448-3.832-.497-1.367-.69-2.818-.562-4.282.121-1.431.547-2.796 1.227-4.031.668-1.214 1.588-2.311 2.724-3.239 2.226-1.814 5.06-2.796 8.024-2.8 2.967-.004 5.799.969 8.027 2.777 1.134.924 2.053 2.017 2.721 3.229.683 1.234 1.106 2.594 1.232 4.029.126 1.462-.067 2.911-.564 4.279-.508 1.395-1.327 2.701-2.446 3.841z"  fill-rule="nonzero" stroke-linejoin="round" stroke-miterlimit="1.41421" transform="matrix(9.3753293 0 0 8.9629942 -1861.0917 3942.8175)"/></g></g></g></svg>