<svg height="1600" viewBox="0 0 1600 1600" width="1600" xmlns="http://www.w3.org/2000/svg" xmlns:inkscape="http://www.inkscape.org/namespaces/inkscape" xmlns:sodipodi="http://sodipodi.sourceforge.net/DTD/sodipodi-0.dtd"><sodipodi:namedview pagecolor="#303030" showgrid="true"><inkscape:grid id="grid5" units="px" spacingx="100" spacingy="100" color="#4772b3" opacity="0.2" visible="true" /></sodipodi:namedview><g fill="#fff"><path d="m185.48047 363.06055c-.59845-.12754-1.28387.0442-1.90039.56445-.53509.4515-1.05167 1.28657-1.57813 2.31055-.51724-1.01439-1.02781-1.84334-1.5625-2.29102-.61731-.51686-1.30605-.68638-1.90625-.56055-1.20039.25167-1.95047 1.38331-2.44726 2.14258a.50005.50005 0 1 0 .83594.54688c.467-.71375 1.196-1.58087 1.8164-1.71094.3102-.065.61722-.0219 1.0586.34766.44137.36955.97784 1.09019 1.54101 2.30078a.50005.50005 0 0 0 .45313.28906h.42187a.50005.50005 0 0 0 .45313-.28711c.57516-1.22093 1.11551-1.9484 1.55859-2.32227.44308-.37386.74393-.41807 1.04687-.35351.60589.12912 1.32737 1.00382 1.80664 1.73633a.50005.50005 0 1 0 .83594-.54688c-.50216-.76749-1.23669-1.91095-2.43359-2.16601zm-8.98047 6.97265c-.89413-.17031-1.70729.35696-2.38477 1.16992a.50064923.50064923 0 1 0 .76954.64063c.57252-.68703 1.00936-.90781 1.42773-.82813.41837.0797 1.03934.56817 1.75781 1.76563a.50005.50005 0 0 0 .85938 0c.71847-1.19746 1.33944-1.68594 1.75781-1.76563.41837-.0797.85521.1411 1.42773.82813a.50064923.50064923 0 1 0 .76954-.64063c-.67748-.81296-1.49064-1.34023-2.38477-1.16992-.73042.13913-1.36539.76726-2 1.66797-.63461-.90071-1.26958-1.52884-2-1.66797zm6.18555 4.01758c-.21091-.0352-.44348.01-.63282.10938-.37867.19867-.6452.54404-.97656 1.07422a.50018582.50018582 0 1 0 .84766.53124c.29364-.46982.52711-.68574.59375-.7207.0333-.0175.0107-.007.004-.008-.007-.001.0186.003.0781.0488.23799.1848.74712.97866 1.54492 1.78906a.50005.50005 0 0 0 .71094 0c.7978-.8104 1.30693-1.60426 1.54492-1.78906.0595-.0462.0849-.05.0781-.0488-.007.001-.0294-.01.004.008.0666.035.30011.25088.59375.7207a.50018582.50018582 0 1 0 .84766-.53124c-.33136-.53018-.59789-.87555-.97656-1.07422-.18934-.0993-.42191-.14455-.63282-.10938-.2109.0352-.38371.13261-.52734.24414-.45025.34963-.83062.92221-1.28711 1.47266-.45649-.55045-.83686-1.12303-1.28711-1.47266-.14363-.11153-.31644-.20897-.52734-.24414z" transform="matrix(100 0 0 100 -17300.435 -36202.1691)"/></g></svg>