<svg height="1400" viewBox="0 0 1100 1400" width="1100" xmlns="http://www.w3.org/2000/svg" xmlns:inkscape="http://www.inkscape.org/namespaces/inkscape" xmlns:sodipodi="http://sodipodi.sourceforge.net/DTD/sodipodi-0.dtd"><sodipodi:namedview pagecolor="#303030" showgrid="true"><inkscape:grid id="grid5" units="px" spacingx="100" spacingy="100" color="#4772b3" opacity="0.2" visible="true" /></sodipodi:namedview><g fill="#fff"><path d="m177 305.99437c-.55226.00005-.99994.44774-1 1v4.83766c-.0179.10799-.0179.21818 0 .32617v4.82533c.00006.55227.44774.99995 1 1h4.00563c2.19729 0 4-1.16189 4-3.35918 0-1.76747-.45037-2.32201-1.78516-3.04484.45751-.65017.78516-1.31019.78516-2.15967 0-2.19729-1.80271-3.42547-4-3.42547zm1 2h2.00563c1.11641 0 2 .30906 2 1.42547s-.88359 1.58016-2 1.58016h-2.00563zm0 5.00563h2.00563 1c1.11641 0 2 .50794 2 1.62435s-.88359 1.35918-2 1.35918h-3.00563z" transform="matrix(100 0 0 100 -17499.61 -30498.895)"/></g></svg>