<svg height="1600" viewBox="0 0 1600 1600" width="1600" xmlns="http://www.w3.org/2000/svg" xmlns:inkscape="http://www.inkscape.org/namespaces/inkscape" xmlns:sodipodi="http://sodipodi.sourceforge.net/DTD/sodipodi-0.dtd"><sodipodi:namedview pagecolor="#303030" showgrid="true"><inkscape:grid id="grid5" units="px" spacingx="100" spacingy="100" color="#4772b3" opacity="0.2" visible="true" /></sodipodi:namedview><g fill="#fff"><path d="m388.50781 494c-.82415 0-1.5.67974-1.5 1.5v1 .5h-.5-1c-.82026 0-1.5.67584-1.5 1.5s.67974 1.5 1.5 1.5h1c.42622 0 .76643-.21374 1.03516-.50195l4.96289 4.96484c-.29084.2686-.50586.6087-.50586 1.03711v1c0 .82025.67584 1.5 1.5 1.5s1.5-.67974 1.5-1.5v-1-.5h.5 1c.82026 0 1.5-.67584 1.5-1.5s-.67974-1.5-1.5-1.5h-1c-.42622 0-.76642.21375-1.03516.50195l-4.96289-4.96484c.29085-.2686.50586-.60869.50586-1.03711v-1c0-.82026-.67584-1.5-1.5-1.5z" transform="matrix(100 0 0 100 -38300.39 -49300)"/></g></svg>