<svg height="1600" viewBox="0 0 1600 1600" width="1600" xmlns="http://www.w3.org/2000/svg" xmlns:inkscape="http://www.inkscape.org/namespaces/inkscape" xmlns:sodipodi="http://sodipodi.sourceforge.net/DTD/sodipodi-0.dtd"><sodipodi:namedview pagecolor="#303030" showgrid="true"><inkscape:grid id="grid5" units="px" spacingx="100" spacingy="100" color="#4772b3" opacity="0.2" visible="true" /></sodipodi:namedview><g fill="#fff"><g enable-background="new" transform="translate(-233 -365)"><path d="m1028 1556c-3.2833 0-6 2.4414-6 5.5 0 1.7056.9046 3.146 2.1523 4.3594l.9942.9941a.50004997.50004997 0 0 0 .3027.1485.50004997.50004997 0 0 0 .051.998h5a.50004997.50004997 0 0 0 .045-.998.50004997.50004997 0 0 0 .3086-.1485l.9981-.998c1.2122-1.1985 2.1465-2.6518 2.1465-4.3535 0-3.0586-2.7167-5.5-6-5.5zm0 1c2.7919 0 5 2.0358 5 4.5 0 1.3342-.7428 2.5488-1.8516 3.6445l-1 1a.50004997.50004997 0 0 0 .2793.8535h-4.8594a.50004997.50004997 0 0 0 .2871-.8535l-1-1a.50004997.50004997 0 0 0 -.01-.01c-1.1397-1.1082-1.8477-2.2864-1.8477-3.6406 0-2.4642 2.2081-4.5 5-4.5zm-2.5 12a.50004997.50004997 0 1 0 0 1h1.5v.5a.50004997.50004997 0 0 0 .5.5h1a.50004997.50004997 0 0 0 .5-.5v-.5h1.5a.50004997.50004997 0 1 0 0-1z"/><path d="m1025.4902 1561.0059a.50005.50005 0 0 0 -.3437.8476l.8535.8535v1.543a.50005.50005 0 1 0 1 0v-1.25h2v1.25a.50005.50005 0 1 0 1 0v-1.543l.8535-.8535a.50005.50005 0 0 0 -.707-.707l-.8535.8535h-2.586l-.8535-.8535a.50005.50005 0 0 0 -.3633-.1406z" opacity=".6"/></g><g enable-background="new" transform="matrix(100 0 0 100 -8899.6438 -61900.356)"><path d="m75 599v2h1v-2zm3 0v1h2v-1zm4 0v2h1v-2zm-6 3c-2.197587 0-4 1.80241-4 4 0 .91965.327327 1.75942.855469 2.4375l-3.708985 3.70898a.50005001.50005001 0 1 0 .707032.70704l3.708984-3.70899c.677952.52778 1.518204.85547 2.4375.85547 2.197595 0 3.998047-1.80241 3.998047-4s-1.800452-4-3.998047-4zm6 1v2h1v-2zm-6 .002c1.652136 0 3 1.34592 3 2.99805s-1.347864 3-3 3c-1.652128 0-3-1.34787-3-3 0-1.65214 1.347872-2.99805 3-2.99805zm6 3.998v2h1v-2zm-7 4v2h1v-2zm7 0v2h1v-2zm-4 1v1h2v-1z" transform="translate(21 21)"/><path d="m96 620v3.5h1v-2.5h6v12h-6v-2.25h-1v3.25h8v-14z" opacity=".25"/></g></g></svg>