<svg height="1600" viewBox="0 0 1600 1600" width="1600" xmlns="http://www.w3.org/2000/svg" xmlns:inkscape="http://www.inkscape.org/namespaces/inkscape" xmlns:sodipodi="http://sodipodi.sourceforge.net/DTD/sodipodi-0.dtd"><sodipodi:namedview pagecolor="#303030" showgrid="true"><inkscape:grid id="grid5" units="px" spacingx="100" spacingy="100" color="#4772b3" opacity="0.2" visible="true" /></sodipodi:namedview><g fill="#fff"><g enable-background="new" transform="matrix(100 0 0 100 24500.016 -124199.546)"><path d="m-242.00195 1242.9922c-.58284 0-1.10871.154-1.47657.5215-.36785.3675-.52148.8952-.52148 1.4785v3.0078h6v-2.4863c-.002-.3369.17839-.7279.47461-1.0254s.68988-.4819 1.0293-.4844c.65765-.012.6539-.9937-.004-1h-.004l-2.49591-.0039v.4863c.01.6762-1.00956.6762-1 0v-.4883h-1v.4903c.01.6762-1.00956.6762-1 0v-.4922h-.002zm-1.99805 6.0078v.5c0 .2521.16407.4981.5.4863l1.50195.01-.002 5.9941c-.0191 1.3523 2.01913 1.3523 2 0l-.002-5.9941 1.50195-.01c.32137 0 .5-.2464.5-.4863v-.5z"/><path d="m-232 1242.9863c-.50478 0-1.00956.3375-1 1.0137v7h2v-7c.01-.6762-.49522-1.0137-1-1.0137zm0 9.0274c-1.09865 0-2 .9013-2 2 0 .8274-.13264 1.3367-.33203 1.5937-.1994.257-.49978.3926-1.16797.3926-.11793 0-.23139.046-.32031.123-.0251.022-.048.046-.0684.072-.0409.053-.0708.1132-.0879.1777-.004.016-.007.033-.01.049-.003.017-.005.034-.006.051-.002.033-.00076.067.004.1.005.033.0138.065.0254.096.0107.031.0244.061.041.09.009.015.0188.029.0293.043.0403.053.0907.098.14844.1308.0742.043.15827.067.24414.068 2.01924 0 3.30957-.2641 4.16992-.7461.85624-.4797 1.23067-1.2322 1.30078-1.918.0175-.1066.0293-.2142.0293-.3222 0-1.0987-.90135-2-2-2z"/></g></g></svg>