<svg height="1700" viewBox="0 0 1600 1700" width="1600" xmlns="http://www.w3.org/2000/svg" xmlns:inkscape="http://www.inkscape.org/namespaces/inkscape" xmlns:sodipodi="http://sodipodi.sourceforge.net/DTD/sodipodi-0.dtd"><sodipodi:namedview pagecolor="#303030" showgrid="true"><inkscape:grid id="grid5" units="px" spacingx="100" spacingy="100" color="#4772b3" opacity="0.2" visible="true" /></sodipodi:namedview><g fill="#fff"><path d="m14 472c-.486111 0-.97894.16032-1.363281.50195-.384341.34164-.636719.87305-.636719 1.49805v4h-3.5c-.2761309.00003-.4999724.22387-.5.5v4c0 .33333-.182083.72505-.4785156 1.02148-.2964326.29644-.6881511.47852-1.0214844.47852-.2761309.00003-.4999724.22387-.5.5v2c.0000276.27613.2238691.49997.5.5h3c.1325988-.00002.259759-.0527.3535156-.14648l1.1464844-1.14649v.79297c.000028.27613.223869.49997.5.5h5c1.777778 0 3.5-1.46429 3.5-3.5v-5c-.000028-.27613-.223869-.49997-.5-.5h-3.5v-4c0-.625-.252378-1.15641-.636719-1.49805-.384341-.34163-.87717-.50195-1.363281-.50195zm0 1c.263889 0 .52106.0897.699219.24805.178159.15836.300781.37695.300781.75195v4h-.5c-.676161-.01-.676161 1.00956 0 1h4.5v1h-10v-1h3.5c.276131-.00003.499972-.22387.5-.5v-4.5c0-.375.122622-.59359.300781-.75195.178159-.15837.43533-.24805.699219-.24805zm-5 8h10v2.5c0 1.46429-1.277778 2.5-2.5 2.5h-.5v-1.5c.0044-.28227-.225547-.51223-.507812-.50781-.276144.00431-.496507.23167-.492188.50781v1.5h-3v-1.5c-.00017-.44532-.538517-.6683-.853516-.35352l-1.8535152 1.85352h-2.2929688v-1.22266c.4441801-.11984.9061001-.22641 1.2285156-.54882.4535674-.45357.7714844-1.06185.7714844-1.72852z" transform="matrix(100 0 0 100 -500 -47100)"/></g></svg>