<svg height="1600" viewBox="0 0 1600 1600" width="1600" xmlns="http://www.w3.org/2000/svg" xmlns:inkscape="http://www.inkscape.org/namespaces/inkscape" xmlns:sodipodi="http://sodipodi.sourceforge.net/DTD/sodipodi-0.dtd"><sodipodi:namedview pagecolor="#303030" showgrid="true"><inkscape:grid id="grid5" units="px" spacingx="100" spacingy="100" color="#4772b3" opacity="0.2" visible="true" /></sodipodi:namedview><g fill="#fff"><g enable-background="new" transform="matrix(100 0 0 100 -46699.70699999999 -49298.8105)"><path d="m470.66016 493.97656c-.37961-.006-.76447.0652-1.1211.21289-.93286.38641-1.54492 1.30084-1.54492 2.31055v3.5h1v-3.5c0-.60813.3659-1.154.92774-1.38672.5437-.22521 1.42162-.0569 1.71874.24024l.5.5c.47128.49023 1.19727-.23577.70704-.70704l-.5-.5c-.35144-.35143-.81472-.56325-1.31055-.63867-.12396-.0188-.25042-.0294-.37695-.0312zm8.67382 0c-.12653.002-.25299.0124-.37695.0312-.49583.0754-.95911.28724-1.31055.63867l-.5.5c-.49023.47127.23577 1.19727.70704.70704l.5-.5c.29713-.29714 1.17505-.46545 1.71875-.24024.56184.23277.92773.77864.92773 1.38677v3.5h1v-3.5c0-1.00971-.61206-1.92414-1.54492-2.31055-.35663-.1477-.74149-.21856-1.1211-.21289zm-10.83984 7.02344a.50005.50005 0 0 0 -.5.5v6a.50005.50005 0 0 0 .5.5h1 3.00586a.50005.50005 0 0 0 .41602-.22266l1.85156-2.77734h.46484l1.85156 2.77734a.50005.50005 0 0 0 .41602.22266h2.99414 1a.50005.50005 0 0 0 .5-.5v-6a.50005.50005 0 0 0 -.5-.5zm5.50586 1v2.34766l-1.76758 2.65234h-2.23828-1l.00586-4.99805zm1.99414 0 5 .002v4.998h-.5-.49414-2.23242l-1.76758-2.65234z"/><path d="m470.49414 503c-.27613.00003-.49997.22387-.5.5v2c.00003.27613.22387.49997.5.5h1.00586c.16717-.00001.32328-.0836.41602-.22266l1-1.5c.0559-.0838.0852-.18249.084-.2832l-.006-.5c-.003-.27384-.22614-.49413-.5-.49414z" opacity=".3"/></g></g></svg>