<svg height="1700" viewBox="0 0 1700 1700" width="1700" xmlns="http://www.w3.org/2000/svg" xmlns:inkscape="http://www.inkscape.org/namespaces/inkscape" xmlns:sodipodi="http://sodipodi.sourceforge.net/DTD/sodipodi-0.dtd"><sodipodi:namedview pagecolor="#303030" showgrid="true"><inkscape:grid id="grid5" units="px" spacingx="100" spacingy="100" color="#4772b3" opacity="0.2" visible="true" /></sodipodi:namedview><g enable-background="new" fill="#fff" transform="matrix(100 0 0 100 36800.003 -184600.223)"><path d="m-356.5 1850c-.8225 0-1.5.6775-1.5 1.5s.6775 1.5 1.5 1.5 1.5-.6775 1.5-1.5-.6775-1.5-1.5-1.5zm0 1c.28206 0 .5.2179.5.5s-.21794.5-.5.5-.5-.2179-.5-.5.21794-.5.5-.5zm-7 1a.5.5 0 0 0 -.5.5.5.5 0 0 0 .5.5.5.5 0 0 0 .5-.5.5.5 0 0 0 -.5-.5z" opacity=".7"/><path d="m-356.49999 1847.004c-1.88915 0-3.45664 1.2594-4.10549 3h-.51758c-.64602-.6132-1.47755-.9979-2.375-1h-.002c-1.92707 0-3.5 1.5729-3.5 3.5s1.57293 3.5 3.5 3.5l6.00006.0001h.49805c3.59429 0 5.00195-2.5001 5.00195-4.5001 0-2.4794-2.02064-4.5-4.5-4.5zm0 .996c1.93892 0 3.5 1.5611 3.5 3.5 0 1.9279-1.54523 3.4765-3.46875 3.4941-.0392 0-.0785-.0006-.11721.01h-.91404-6c-1.38663 0-2.5-1.1134-2.5-2.5 0-1.386 1.11233-2.4989 2.49805-2.5.71036 0 1.38606.3048 1.85935.834.0951.1059.23076.1663.37307.166h.90232c.22809.0001.42736-.1542.4844-.375.39914-1.5459 1.78609-2.6224 3.38281-2.625zm-8.00781 8.9922c-.27614 0-.4965.2317-.49219.5078v1 1c.009.6573.9907.6573 1 0v-.5h1v1.5c.00003.1326.0527.2597.14646.3535l1 1c.0937.094.22094.1465.35354.1465h5c.27613 0 .49997-.2239.5-.5v-1.5039h.33594l2.61914 1.9043c.0852.064.18852.099.29492.1h.25c.27613 0 .49997-.2239.5-.5v-4c-.00003-.2761-.22387-.5-.5-.5h-.25c-.106-.0001-.20927.034-.29492.096l-2.61719 1.9036h-.33789v-2c-2.3519 0-4.57419 0-7 0v1.0026h-1v-.5026c.004-.2823-.22555-.5122-.50781-.5078zm7.50779 1.0112v2.9959h-4.29297l-.70701-.7063v-2.2895c2.04692-.0008 2.90098 0 4.99998-.0001zm4.00002.2974v2.3984l-1.65039-1.1992z"/></g></svg>