<?xml version="1.0" encoding="UTF-8" standalone="no"?>
<svg
   id="svg2"
   height="1600"
   viewBox="0 0 1600 1600"
   width="1600"
   version="1.1"
   xmlns="http://www.w3.org/2000/svg"
   xmlns:svg="http://www.w3.org/2000/svg" xmlns:inkscape="http://www.inkscape.org/namespaces/inkscape" xmlns:sodipodi="http://sodipodi.sourceforge.net/DTD/sodipodi-0.dtd"><sodipodi:namedview pagecolor="#303030" showgrid="true"><inkscape:grid id="grid5" units="px" spacingx="100" spacingy="100" color="#4772b3" opacity="0.2" visible="true" /></sodipodi:namedview>
  <defs
     id="defs1" />
  <g
     id="g1">
    <path
       id="path2"
       d="m75.999998 620c-3.860077 0-7 3.13991-7 7s3.139924 7 7 7 7-3.13991 7-7-3.139923-7-7-7zm2.990234 2.98633a1.0001 1.0001 0 0 1 .716797 1.7207l-2.292969 2.29297 2.292969 2.29297a1.0001 1.0001 0 1 1 -1.414062 1.41406l-2.292969-2.29297-2.292969 2.29297a1.0001 1.0001 0 1 1 -1.414062-1.41406l2.292969-2.29297-2.292969-2.29297a1.0001 1.0001 0 0 1 .697265-1.7168 1.0001 1.0001 0 0 1 .716797.30274l2.292969 2.29297 2.292969-2.29297a1.0001 1.0001 0 0 1 .697265-.30664z"
       fill="#fff"
       fill-rule="evenodd"
       transform="matrix(100 0 0 100 -6800 -61900)" />
  </g>
</svg>
