<svg id="svg5" height="1600" viewBox="0 0 1600 1599.9999" width="1600" xmlns="http://www.w3.org/2000/svg" xmlns:inkscape="http://www.inkscape.org/namespaces/inkscape" xmlns:sodipodi="http://sodipodi.sourceforge.net/DTD/sodipodi-0.dtd"><sodipodi:namedview pagecolor="#303030" showgrid="true"><inkscape:grid id="grid5" units="px" spacingx="100" spacingy="100" color="#4772b3" opacity="0.2" visible="true" /></sodipodi:namedview><g transform="matrix(26.923423 0 0 26.923423 -3507.7961 -61.577)"><g id="blender_error" fill="none"><path id="path1" d="m183.05322 22.7471c0-.270966-.10532-.530681-.2939-.722911l-12.92693-13.1769239c-.18857-.1922299-.44337-.2995889-.70919-.2995889h-18.28246c-.26582 0-.52061.107359-.70919.2995889l-12.92692 13.1769239c-.18859.19223-.29391.451945-.29391.722911v18.636029c0 .270964.10532.53068.29391.722909l12.92692 13.176912c.18858.192231.44337.299601.70919.299601h18.28246c.26582 0 .52062-.10737.70919-.299601l12.92693-13.176912c.18858-.192229.2939-.451945.2939-.722909z" stroke-width=".037616"/></g><g id="blender_text" fill="#ffffff" fill-rule="evenodd"><path id="path3" d="m150.10053 19.686508c-.256 0-.51202.097496-.70752.292496l-1.41403 1.414022c-.39.390999-.39 1.023965 0 1.414965l9.19202 9.192013-9.19202 9.192014c-.39.391-.39 1.023965 0 1.414965l1.41403 1.414022c.391.39 1.02396.39 1.41496 0l9.19201-9.192013 9.19202 9.192013c.391.39 1.02404.39 1.41504 0l1.41395-1.414022c.39-.391.39-1.023965 0-1.414965l-9.19202-9.192014 9.19202-9.192013c.39-.391.39-1.023966 0-1.414965l-1.41395-1.414022c-.391-.39-1.02404-.39-1.41504 0l-9.19202 9.192013-9.19201-9.192013c-.1955-.195-.45145-.292496-.70744-.292496z"/><path id="path2" d="m186 22.059c0-.531-.211-1.039-.586-1.414l-14.059-14.059c-.375-.375-.883-.586-1.414-.586h-19.882c-.531 0-1.039.211-1.414.586l-14.059 14.059c-.375.375-.586.883-.586 1.414v19.882c0 .531.211 1.039.586 1.414l14.059 14.059c.375.375.883.586 1.414.586h19.882c.531 0 1.039-.211 1.414-.586l14.059-14.059c.375-.375.586-.883.586-1.414zm-3 .828c0-.265-.105-.519-.293-.707l-12.887-12.887c-.188-.188-.442-.293-.707-.293h-18.226c-.265 0-.519.105-.707.293l-12.887 12.887c-.188.188-.293.442-.293.707v18.226c0 .265.105.519.293.707l12.887 12.887c.188.188.442.293.707.293h18.226c.265 0 .519-.105.707-.293l12.887-12.887c.188-.188.293-.442.293-.707z"/></g></g></svg>