<svg height="1600" viewBox="0 0 1600 1599.9999" width="1600" xmlns="http://www.w3.org/2000/svg" xmlns:inkscape="http://www.inkscape.org/namespaces/inkscape" xmlns:sodipodi="http://sodipodi.sourceforge.net/DTD/sodipodi-0.dtd"><sodipodi:namedview pagecolor="#303030" showgrid="true"><inkscape:grid id="grid5" units="px" spacingx="100" spacingy="100" color="#4772b3" opacity="0.2" visible="true" /></sodipodi:namedview><g clip-rule="evenodd" enable-background="new"><path d="m181.7395 1436.873h5631.6948v1512.4175h-5631.6948z" fill="none" stroke-linejoin="round" stroke-miterlimit="2" stroke-width="2.5131"/><g fill="#fff" fill-rule="evenodd" transform="matrix(26.923423 0 0 26.923423 -3507.7961 -61.577)"><path d="m186 22.059c0-.531-.211-1.039-.586-1.414l-14.059-14.059c-.375-.375-.883-.586-1.414-.586h-19.882c-.531 0-1.039.211-1.414.586l-14.059 14.059c-.375.375-.586.883-.586 1.414v19.882c0 .531.211 1.039.586 1.414l14.059 14.059c.375.375.883.586 1.414.586h19.882c.531 0 1.039-.211 1.414-.586l14.059-14.059c.375-.375.586-.883.586-1.414zm-3 .828c0-.265-.105-.519-.293-.707l-12.887-12.887c-.188-.188-.442-.293-.707-.293h-18.226c-.265 0-.519.105-.707.293l-12.887 12.887c-.188.188-.293.442-.293.707v18.226c0 .265.105.519.293.707l12.887 12.887c.188.188.442.293.707.293h18.226c.265 0 .519-.105.707-.293l12.887-12.887c.188-.188.293-.442.293-.707z"/><path d="m150.808 19.979c-.391-.39-1.024-.39-1.415 0l-1.414 1.414c-.39.391-.39 1.024 0 1.415l21.213 21.213c.391.39 1.024.39 1.415 0l1.414-1.414c.39-.391.39-1.024 0-1.415z"/><path d="m172.021 22.808c.39-.391.39-1.024 0-1.415l-1.414-1.414c-.391-.39-1.024-.39-1.415 0l-21.213 21.213c-.39.391-.39 1.024 0 1.415l1.414 1.414c.391.39 1.024.39 1.415 0z"/></g></g></svg>