<svg height="1500" viewBox="0 0 1600 1500" width="1600" xmlns="http://www.w3.org/2000/svg" xmlns:inkscape="http://www.inkscape.org/namespaces/inkscape" xmlns:sodipodi="http://sodipodi.sourceforge.net/DTD/sodipodi-0.dtd"><sodipodi:namedview pagecolor="#303030" showgrid="true"><inkscape:grid id="grid5" units="px" spacingx="100" spacingy="100" color="#4772b3" opacity="0.2" visible="true" /></sodipodi:namedview><g fill="#fff"><g enable-background="new" transform="matrix(100 0 0 100 -21499.934 -20000.358)"><path d="m226.5 206.99414a.50004997.50004997 0 0 0 -.34766.85938l2.14649 2.14648h-10.5918l2.14649-2.14648a.50004997.50004997 0 1 0 -.70704-.70704l-2.95703 2.95704a.50004997.50004997 0 0 0 -.002.79296.50004997.50004997 0 0 0 .008.006l2.95117 2.95118a.50004997.50004997 0 1 0 .70704-.70704l-2.14663-2.14662h10.5918l-2.14649 2.14648a.50004997.50004997 0 1 0 .70704.70704l2.96484-2.9668a.50004997.50004997 0 0 0 .0195-.0156l.0156-.0176a.50004997.50004997 0 0 0 .0234-.68164.50004997.50004997 0 0 0 -.0234-.0254.50004997.50004997 0 0 0 -.01-.01l-2.99023-2.99024a.50004997.50004997 0 0 0 -.35909-.1521z"/><path d="m224.00001 202.49817a1.498175 1.498175 0 0 1 -1.49818 1.49817 1.498175 1.498175 0 0 1 -1.49817-1.49817 1.498175 1.498175 0 0 1 1.49817-1.49818 1.498175 1.498175 0 0 1 1.49818 1.49818zm5 0a1.498175 1.498175 0 0 1 -1.49818 1.49817 1.498175 1.498175 0 0 1 -1.49817-1.49817 1.498175 1.498175 0 0 1 1.49817-1.49818 1.498175 1.498175 0 0 1 1.49818 1.49818zm-10 0a1.498175 1.498175 0 0 1 -1.49818 1.49817 1.498175 1.498175 0 0 1 -1.49817-1.49817 1.498175 1.498175 0 0 1 1.49817-1.49818 1.498175 1.498175 0 0 1 1.49818 1.49818z"/></g></g></svg>