<svg id="svg1" height="1600" width="1400" xmlns="http://www.w3.org/2000/svg" xmlns:inkscape="http://www.inkscape.org/namespaces/inkscape" xmlns:sodipodi="http://sodipodi.sourceforge.net/DTD/sodipodi-0.dtd"><sodipodi:namedview pagecolor="#303030" showgrid="true"><inkscape:grid id="grid5" units="px" spacingx="100" spacingy="100" color="#4772b3" opacity="0.2" visible="true" /></sodipodi:namedview><g fill="#fff"><path id="path1" d="m1203.2354 988.47694-549.81602 550.25616-549.81604-550.25616 549.81604-550.25693zm-353.82258-139.18281q0-74.44619-54.98193-123.96975-54.98155-49.52307-133.8961-49.52307-95.08601 0-165.59174 29.13111l-11.6434 115.87783q53.68807-34.31006 118.37233-34.31006 48.51333 0 80.20847 26.54169 31.6952 26.54171 31.6952 69.91504 0 47.2577-54.65813 119.43808-54.65818 72.1804-54.65818 147.2741h98.32011q0-34.9572 38.16381-82.2147 64.68428-80.27195 70.50573-89.9825 38.16383-60.85219 38.16383-128.17777zm-120.95969 506.88327v-135.9456h-150.06746v135.9456z" fill="#fff" stroke-width="5.50037"/></g></svg>
