<svg height="1200" viewBox="0 0 1200 1200" width="1200" xmlns="http://www.w3.org/2000/svg" xmlns:inkscape="http://www.inkscape.org/namespaces/inkscape" xmlns:sodipodi="http://sodipodi.sourceforge.net/DTD/sodipodi-0.dtd"><sodipodi:namedview pagecolor="#303030" showgrid="true"><inkscape:grid id="grid5" units="px" spacingx="100" spacingy="100" color="#4772b3" opacity="0.2" visible="true" /></sodipodi:namedview><g fill="#fff"><path d="m261.03125 601c-.56266 0-1.03125.46859-1.03125 1.03125v7.9375c0 .56266.46859 1.03125 1.03125 1.03125h7.9375c.56266 0 1.03125-.46859 1.03125-1.03125v-7.9375c0-.56266-.46859-1.03125-1.03125-1.03125zm0 1h7.9375c.026 0 .0312.005.0312.0312v7.9375c0 .026-.005.0312-.0312.0312h-7.9375c-.026 0-.0312-.005-.0312-.0312v-7.9375c0-.026.005-.0312.0312-.0312z" opacity=".55" transform="matrix(100 0 0 100 -25900 -60000)"/></g></svg>