<svg id="svg1" height="1600" viewBox="0 0 1700 1600" width="1700" xmlns="http://www.w3.org/2000/svg" xmlns:inkscape="http://www.inkscape.org/namespaces/inkscape" xmlns:sodipodi="http://sodipodi.sourceforge.net/DTD/sodipodi-0.dtd"><sodipodi:namedview pagecolor="#303030" showgrid="true"><inkscape:grid id="grid5" units="px" spacingx="100" spacingy="100" color="#4772b3" opacity="0.2" visible="true" /></sodipodi:namedview><g id="blender_collection_color_06" fill="#ccc" transform="matrix(1 0 0 1.00000000901 .461255 99.54043592837)"><path id="path1-0" d="m199.54534 100.46767-.0115 299.99108s1299.68488 2.63699 1299.94958-.0777l.047-299.95034z"/><path id="path1-4" d="m299.50799 500.42887.015 799.93003 1099.99644.081-.055-799.9343"/></g><g fill-opacity=".7"><path id="path1" d="m175.6648 99.948542c-48.15785-.323156-75.54556 25.527328-75.54725 76.532298l-.014 423.30849s57.2301.18883 99.92707.23534l.0469 822.68913c.69231 47.4171 25.65156 76.9025 76.74481 77.2317h1147.55127c51.7456 0 76.0346-27.6411 75.7384-77.572l-.054-822.45446c43.7336-.1314 99.986-.18248 99.986-.18248v-424.07111c0-51.0049-25.7441-76.054072-73.9019-75.730906zm24.55583 100.301818h1299.80377v299.88603l-1299.96685-.10128zm99.81 399.85649 1099.96687-.0725-.2031 800.44125-1099.80377-.1993z" stroke-width="99.8344"/><path id="handhold" d="m700.40998 701.40838c-136.44824.30561-129.50035 200.27886 0 199.99996h299.03314c133.05938-.075 132.82888-199.92785 0-199.99996z" stroke-width=".995635"/></g></svg>