<svg height="1400" viewBox="0 0 1200 1400" width="1200" xmlns="http://www.w3.org/2000/svg" xmlns:inkscape="http://www.inkscape.org/namespaces/inkscape" xmlns:sodipodi="http://sodipodi.sourceforge.net/DTD/sodipodi-0.dtd"><sodipodi:namedview pagecolor="#303030" showgrid="true"><inkscape:grid id="grid5" units="px" spacingx="100" spacingy="100" color="#4772b3" opacity="0.2" visible="true" /></sodipodi:namedview><g fill="#fff"><path d="m431.51758 369.26562c-2.08963.64899-3.51758 2.58731-3.51758 4.7754v1.95898c0 1.78552.9537 3.43731 2.5 4.33008 1.54631.89277 3.45369.89277 5 0 1.5463-.89277 2.5-2.54456 2.5-4.33008v-.5a.50004997.50004997 0 0 0 -.5-.5h-4a.50004997.50004997 0 1 0 0 1h3.5c0 1.42986-.7617 2.74991-2 3.46484-1.23829.71494-2.76171.71494-4 0-1.2383-.71493-2-2.03498-2-3.46484v-1.95898c0-1.75422 1.13918-3.30002 2.81445-3.82032 1.69498-.52641 3.36746-.003 4.25196 1.5293a.50050004.50050004 0 1 0 .86718-.5c-1.1155-1.93212-3.34609-2.62724-5.41601-1.98438z" transform="matrix(100 0 0 100 -42700 -36801.6101)"/></g></svg>