<svg height="1400" viewBox="0 0 1200 1400" width="1200" xmlns="http://www.w3.org/2000/svg" xmlns:inkscape="http://www.inkscape.org/namespaces/inkscape" xmlns:sodipodi="http://sodipodi.sourceforge.net/DTD/sodipodi-0.dtd"><sodipodi:namedview pagecolor="#303030" showgrid="true"><inkscape:grid id="grid5" units="px" spacingx="100" spacingy="100" color="#4772b3" opacity="0.2" visible="true" /></sodipodi:namedview><g fill="#fff"><path d="m449.50391 369c-.27613.00003-.49997.22387-.5.5v11c.00003.27613.22387.49997.5.5h5.49609c1.08333 0 2.07323-.26796 2.8125-.85938.73927-.59141 1.1875-1.51562 1.1875-2.64062s-.44823-2.04921-1.1875-2.64062c-.49098-.39279-1.11527-.59695-1.78125-.72071.58053-.50674.96875-1.23986.96875-2.13867 0-.96354-.41934-1.76349-1.07422-2.26758-.65487-.50409-1.51254-.73242-2.42578-.73242zm.5 1h3.49609c.74361 0 1.38549.19369 1.81641.52539.43091.3317.68359.7813.68359 1.47461s-.25268 1.14291-.68359 1.47461c-.43092.3317-1.0728.52539-1.81641.52539h-3.49609zm0 5h3.46093.0352 1.5c.91667 0 1.67677.23204 2.1875.64062.51073.40859.8125.98438.8125 1.85938s-.30177 1.45079-.8125 1.85938c-.51077.40858-1.27087.64062-2.18754.64062h-4.99609z" transform="matrix(100 0 0 100 -44800.196 -36800)"/></g></svg>