<svg height="1400" viewBox="0 0 1200 1400" width="1200" xmlns="http://www.w3.org/2000/svg" xmlns:inkscape="http://www.inkscape.org/namespaces/inkscape" xmlns:sodipodi="http://sodipodi.sourceforge.net/DTD/sodipodi-0.dtd"><sodipodi:namedview pagecolor="#303030" showgrid="true"><inkscape:grid id="grid5" units="px" spacingx="100" spacingy="100" color="#4772b3" opacity="0.2" visible="true" /></sodipodi:namedview><g fill="#fff"><g enable-background="new" transform="translate(-233 -365)"><path d="m1028 1556c-3.2833 0-6 2.4414-6 5.5 0 1.7056.9046 3.146 2.1523 4.3594l.9942.9941a.50004997.50004997 0 0 0 .3027.1485.50004997.50004997 0 0 0 .051.998h5a.50004997.50004997 0 0 0 .045-.998.50004997.50004997 0 0 0 .3086-.1485l.9981-.998c1.2122-1.1985 2.1465-2.6518 2.1465-4.3535 0-3.0586-2.7167-5.5-6-5.5zm0 1c2.7919 0 5 2.0358 5 4.5 0 1.3342-.7428 2.5488-1.8516 3.6445l-1 1a.50004997.50004997 0 0 0 .2793.8535h-4.8594a.50004997.50004997 0 0 0 .2871-.8535l-1-1a.50004997.50004997 0 0 0 -.01-.01c-1.1397-1.1082-1.8477-2.2864-1.8477-3.6406 0-2.4642 2.2081-4.5 5-4.5zm-2.5 12a.50004997.50004997 0 1 0 0 1h1.5v.5a.50004997.50004997 0 0 0 .5.5h1a.50004997.50004997 0 0 0 .5-.5v-.5h1.5a.50004997.50004997 0 1 0 0-1z"/><path d="m1025.4902 1561.0059a.50005.50005 0 0 0 -.3437.8476l.8535.8535v1.543a.50005.50005 0 1 0 1 0v-1.25h2v1.25a.50005.50005 0 1 0 1 0v-1.543l.8535-.8535a.50005.50005 0 0 0 -.707-.707l-.8535.8535h-2.586l-.8535-.8535a.50005.50005 0 0 0 -.3633-.1406z" opacity=".6"/></g><path d="m431.51758 369.26562c-2.08963.64899-3.51758 2.58731-3.51758 4.7754v1.95898c0 1.78552.9537 3.43731 2.5 4.33008 1.54631.89277 3.45369.89277 5 0 1.5463-.89277 2.5-2.54456 2.5-4.33008v-.5a.50004997.50004997 0 0 0 -.5-.5h-4a.50004997.50004997 0 1 0 0 1h3.5c0 1.42986-.7617 2.74991-2 3.46484-1.23829.71494-2.76171.71494-4 0-1.2383-.71493-2-2.03498-2-3.46484v-1.95898c0-1.75422 1.13918-3.30002 2.81445-3.82032 1.69498-.52641 3.36746-.003 4.25196 1.5293a.50050004.50050004 0 1 0 .86718-.5c-1.1155-1.93212-3.34609-2.62724-5.41601-1.98438z" transform="matrix(100 0 0 100 -42700 -36801.6101)"/></g></svg>