<svg height="1600" viewBox="0 0 1600 1600" width="1600" xmlns="http://www.w3.org/2000/svg" xmlns:inkscape="http://www.inkscape.org/namespaces/inkscape" xmlns:sodipodi="http://sodipodi.sourceforge.net/DTD/sodipodi-0.dtd"><sodipodi:namedview pagecolor="#303030" showgrid="true"><inkscape:grid id="grid5" units="px" spacingx="100" spacingy="100" color="#4772b3" opacity="0.2" visible="true" /></sodipodi:namedview><g fill="#fff"><g enable-background="new" transform="matrix(100 0 0 100 -4599.611 -57700)"><path d="m48.5 578c-.276131.00003-.499972.22387-.5.5l-.0078 10.5c0 1.51667 1.219299 3 2.984374 3 1.765077 0 3.015625-1.475 3.015626-3l.0078-10.5c-.000028-.27613-.223869-.49997-.5-.5zm2.5 10c.546362 0 1 .45364 1 1s-.453638 1-1 1-1-.45364-1-1 .453638-1 1-1z" transform="translate(-.99998)"/><path d="m58.492188 586c-.132599.00002-.259759.0527-.353516.14648l-4.75 4.75c-.09377.0938-.14646.22092-.146484.35352v.25c.000028.27613.223869.49997.5.5h6.757812c.276131-.00003.499972-.22387.5-.5v-5c-.000028-.27613-.223869-.49997-.5-.5z" opacity=".5"/><path d="m56.486328 579c-.130565.002-.25534.0541-.347656.14648l-2 2c-.09377.0938-.14646.22092-.146484.35352v6c.000171.44532.538516.6683.853515.35352l5-5c.19519-.19527.19519-.51177 0-.70704l-3-3c-.095188-.09522-.224749-.14802-.359375-.14648z" opacity=".75"/></g></g></svg>