<svg height="1400" viewBox="0 0 1100 1400" width="1100" xmlns="http://www.w3.org/2000/svg" xmlns:inkscape="http://www.inkscape.org/namespaces/inkscape" xmlns:sodipodi="http://sodipodi.sourceforge.net/DTD/sodipodi-0.dtd"><sodipodi:namedview pagecolor="#303030" showgrid="true"><inkscape:grid id="grid5" units="px" spacingx="100" spacingy="100" color="#4772b3" opacity="0.2" visible="true" /></sodipodi:namedview><g fill="#fff"><path d="m408.50391 369a.50005.50005 0 0 0 -.5.5v5.91992a.50005.50005 0 0 0 0 .16211v4.91797a.50005.50005 0 1 0 1 0v-4.5h3.25586l3.84961 4.8125a.50024018.50024018 0 1 0 .78124-.625l-3.49414-4.36914c1.48603-.40423 2.60743-1.70768 2.60743-3.31836 0-1.92707-1.57293-3.5-3.5-3.5zm.5 1h3.5c1.38662 0 2.5 1.11337 2.5 2.5s-1.11338 2.5-2.5 2.5a.50005.50005 0 0 0 -.004 0h-3.49609z" transform="matrix(100 0 0 100 -40699.879 -36800.3561)"/></g></svg>