<svg height="1600" viewBox="0 0 1600 1600" width="1600" xmlns="http://www.w3.org/2000/svg" xmlns:inkscape="http://www.inkscape.org/namespaces/inkscape" xmlns:sodipodi="http://sodipodi.sourceforge.net/DTD/sodipodi-0.dtd"><sodipodi:namedview pagecolor="#303030" showgrid="true"><inkscape:grid id="grid5" units="px" spacingx="100" spacingy="100" color="#4772b3" opacity="0.2" visible="true" /></sodipodi:namedview><g fill="#fff"><g enable-background="new" transform="matrix(100 0 0 100 -57899.99999999999 -44900)"><path d="m589 450c-1.09935 0-2 .90065-2 2v.42969c.73665.57364 1.18952 1.45204 1.23438 2.41601.23644.099.49447.1543.76562.1543h1c1.09935 0 2-.90065 2-2v-1c0-1.09935-.90065-2-2-2zm2.58789 6.00586c-.28431-.0492-.58776.16015-.58789.49414 0 .25-.25.5-.5.5h-2c-.25 0-.5-.25-.5-.5v.5c0 .36306-.26134.68419-.44336.93555l.004.004c.41161.41161.88215.75715 1.375 1.25.40738.40739.86402 1.03976 1.01172 1.81055h3.55264c.27613-.00003.49997-.22387.5-.5v-1.5001c0-.66667-.3572-1.18923-.77148-1.60352-.41429-.41428-.90447-.77946-1.375-1.25-.0788-.0787-.17086-.12422-.26563-.14062z" opacity=".6"/><path d="m584 453c-1.09935 0-2 .90065-2 2v1c0 1.09935.90065 2 2 2h1c1.09935 0 2-.90065 2-2v-1c0-1.09935-.90065-2-2-2zm-1.51562 6c-.12717.004-.248.0564-.3379.14648-.47053.47054-.96071.83572-1.375 1.25-.41428.41429-.77148.93685-.77148 1.60352v1.5c.00003.27613.22387.49997.5.5h8c.27613-.00003.49997-.22387.5-.5v-1.5c0-.66667-.3572-1.18923-.77148-1.60352-.41429-.41428-.90447-.77946-1.375-1.25-.32034-.32057-.86773-.0838-.85352.36914.00085.0269-.0479.18374-.16406.30274-.11613.119-.26982.18164-.33594.18164h-2c-.0803 0-.22193-.0571-.33203-.16797-.1101-.11083-.16786-.25596-.16797-.33203.00011-.28235-.23341-.50879-.51562-.5z"/></g></g></svg>