<svg height="1600" viewBox="0 0 1600 1600" width="1600" xmlns="http://www.w3.org/2000/svg" xmlns:inkscape="http://www.inkscape.org/namespaces/inkscape" xmlns:sodipodi="http://sodipodi.sourceforge.net/DTD/sodipodi-0.dtd"><sodipodi:namedview pagecolor="#303030" showgrid="true"><inkscape:grid id="grid5" units="px" spacingx="100" spacingy="100" color="#4772b3" opacity="0.2" visible="true" /></sodipodi:namedview><g fill="#fff"><path d="m36.007812 284v2h-1.5c-.27613.00003-.499969.22387-.5.5v1.49805l-3.988281.006c-.812117.00092-1.516225.45838-1.832031 1.12695-.315807.66858-.189691 1.55835.478516 2.22656l4 4c.413276.41327.416416.77582.271484 1.08789-.144932.31206-.483162.5586-.917969.5586l-4.513672.006c-.676088-.008-.674098 1.01079.002 1l4.511719-.006c.815193 0 1.513263-.46717 1.824219-1.13672.310955-.66954.189571-1.55652-.470703-2.2168l-4-4c-.426033-.42603-.426504-.78429-.28125-1.0918.145253-.30751.489852-.55418.927734-.55468l3.980422-.006c.0026.00002.0052.00002.0078 0v1.50195c.00003.27613.22387.49997.5.5h1.5v2h1v-2h1.5c.27613-.00003.499971-.22387.5-.5v-1.5h2v-1h-2v-1.5c-.000029-.27613-.22387-.49997-.5-.5h-1.5v-2zm-1.027343 3h3.027343v3h-3.027343z" transform="matrix(100 0 0 100 -2600.3794 -28300.5065)"/></g></svg>