<svg height="1600" viewBox="0 0 1600 1600" width="1600" xmlns="http://www.w3.org/2000/svg" xmlns:inkscape="http://www.inkscape.org/namespaces/inkscape" xmlns:sodipodi="http://sodipodi.sourceforge.net/DTD/sodipodi-0.dtd"><sodipodi:namedview pagecolor="#303030" showgrid="true"><inkscape:grid id="grid5" units="px" spacingx="100" spacingy="100" color="#4772b3" opacity="0.2" visible="true" /></sodipodi:namedview><g fill="#fff"><path d="m554.5 284c-1.37479 0-2.5 1.12521-2.5 2.5v2.00781c0 1.37479 1.12521 2.5 2.5 2.5s2.5-1.12521 2.5-2.5v-.5h1.51172.49805l-.0137 3.28711c-1.65939 1.40974-3.24134 2.62162-3.98828 6.10742-.17787.67446.86019.89868.97657.21094.67528-3.15139 1.9234-4.08819 3.51757-5.42773 1.58398 1.34059 2.83152 2.27746 3.51953 5.42968.13318.66658 1.13544.44609.97657-.21484-.76273-3.49457-2.35105-4.70351-4.00196-6.11719l.0137-3.27539h2.21679 3.28516c.6573-.009.6573-.9907 0-1h-3.04297c-.45945.59659-1.17125.99219-1.96875.99219-.79751 0-1.50931-.3956-1.96875-.99219h-.01953-1.51172v-.50781c0-1.37479-1.12521-2.5-2.5-2.5zm6 .008c-.82054 0-1.49609.67557-1.49609 1.4961 0 .82054.67555 1.49609 1.49609 1.49609.82053 0 1.49609-.67555 1.49609-1.49609 0-.82053-.67556-1.4961-1.49609-1.4961zm-6 .992c.83435 0 1.5.66565 1.5 1.5v2.00781c0 .83435-.66565 1.5-1.5 1.5s-1.5-.66565-1.5-1.5v-2.00781c0-.83435.66565-1.5 1.5-1.5z" transform="matrix(100 0 0 100 -55100.23499999999 -28301.572)"/></g></svg>