<svg height="1600" viewBox="0 0 1600 1600" width="1600" xmlns="http://www.w3.org/2000/svg" xmlns:inkscape="http://www.inkscape.org/namespaces/inkscape" xmlns:sodipodi="http://sodipodi.sourceforge.net/DTD/sodipodi-0.dtd"><sodipodi:namedview pagecolor="#303030" showgrid="true"><inkscape:grid id="grid5" units="px" spacingx="100" spacingy="100" color="#4772b3" opacity="0.2" visible="true" /></sodipodi:namedview><g fill="#fff"><g enable-background="new" transform="matrix(100 0 0 100 -26700.508 -41900.6799)"><path d="m275.4707 427c-.42985.004-.62994.5874-.31869.87125.40897.54487.81793 1.08974 1.2269 1.63461-.43981.59662-.90116 1.17907-1.32716 1.78476-.21053.38613.24226.86663.6402.67938.28682-.15751.42097-.48416.63231-.72356.22655-.3022.4531-.6044.67965-.9066.3916.51133.76296 1.03993 1.16735 1.54035.31222.30974.89981.009.83079-.42566-.0715-.31923-.34727-.53953-.51804-.80941-.28503-.37975-.57007-.75951-.8551-1.13926.43981-.59662.90116-1.17907 1.32716-1.78476.21053-.38613-.24226-.86663-.6402-.67938-.28682.15751-.42097.48416-.63231.72356-.22655.3022-.4531.6044-.67965.9066-.39082-.51197-.76442-1.03847-1.1661-1.54128-.0981-.0907-.23371-.13896-.36711-.1306z"/><path d="m534.48047 284a.50005.50005 0 0 0 -.38477.19727l-2.92382 2.92578-.0254.0234c-.00045.00046.00045.002 0 .002a.50005.50005 0 0 0 -.13671.25781c-.00079.004-.003.008-.004.0117a.50005.50005 0 0 0 -.00577.08985v8.99219a.50005.50005 0 0 0 .5.5h2a.50005.50005 0 1 0 0-1h-1.5v-8h2.5c.27613-.00003.49997-.22387.5-.5v-2.5h6v2.5a.50005.50005 0 1 0 1 0v-3a.50005.50005 0 0 0 -.5-.5h-7a.50005.50005 0 0 0 -.0137 0c-.00067.00002-.001-.00002-.002 0-.001.00004-.003-.00005-.004 0z" fill-rule="evenodd" opacity=".6" transform="translate(-263 136)"/><path d="m273.50391 425c-.46998.0749-.80823.50172-1.06635.87006-.4326.65782-.45638 1.4618-.43756 2.22236.008 1.23972-.0164 2.48035.0134 3.71944.0716.88933.54871 1.83354 1.40415 2.18708.42463.112.78249-.44168.50598-.78285-.29758-.24384-.6397-.4766-.77031-.86624-.24243-.63283-.12529-1.31954-.15325-1.98084.006-1.03207-.0114-2.06474.009-3.09642.0299-.56822.33188-1.12862.8373-1.40532.33744-.28816.10108-.88712-.34243-.86727z"/><path d="m280.48828 425c-.4389-.0149-.66492.60436-.31958.87564.63959.33681.88258 1.10168.83716 1.78593-.006 1.35522.0116 2.71106-.009 4.06588-.029.57068-.33398 1.12767-.83582 1.41135-.3334.28584-.081.8949.35685.86114.46399-.0793.79448-.50451 1.05034-.86849.42617-.65052.45767-1.4445.43766-2.19695-.008-1.24867.0164-2.49826-.0134-3.7463-.0691-.87707-.53296-1.78778-1.35661-2.16868-.0478-.0138-.0978-.0204-.14755-.0195z"/></g></g></svg>