<svg height="1600" viewBox="0 0 1400 1600" width="1400" xmlns="http://www.w3.org/2000/svg" xmlns:inkscape="http://www.inkscape.org/namespaces/inkscape" xmlns:sodipodi="http://sodipodi.sourceforge.net/DTD/sodipodi-0.dtd"><sodipodi:namedview pagecolor="#303030" showgrid="true"><inkscape:grid id="grid5" units="px" spacingx="100" spacingy="100" color="#4772b3" opacity="0.2" visible="true" /></sodipodi:namedview><g fill="#fff"><g enable-background="new" transform="matrix(100 0 0 100 -46699.99999999999 -22000)"><path d="m471.5 221a.50005.50005 0 0 0 -.35352.14648l-3 3a.50005.50005 0 0 0 -.14648.35352v10a.50005.50005 0 0 0 .5.5h8a.50005.50005 0 0 0 .35352-.14648l3-3a.50005.50005 0 0 0 .14648-.35352v-10a.50005.50005 0 0 0 -.5-.5zm.20703 1h7.29297v9.29297l-2.70703 2.70703h-7.29297v-9.29297z" opacity=".7"/><path d="m474 225.99805c-1.09907 0-2 .90288-2 2.00195s.90093 2 2 2 2.00195-.90093 2.00195-2-.90288-2.00195-2.00195-2.00195z"/></g></g></svg>