<svg height="1600" viewBox="0 0 1600 1600" width="1600" xmlns="http://www.w3.org/2000/svg" xmlns:inkscape="http://www.inkscape.org/namespaces/inkscape" xmlns:sodipodi="http://sodipodi.sourceforge.net/DTD/sodipodi-0.dtd"><sodipodi:namedview pagecolor="#303030" showgrid="true"><inkscape:grid id="grid5" units="px" spacingx="100" spacingy="100" color="#4772b3" opacity="0.2" visible="true" /></sodipodi:namedview><g fill="#fff"><g enable-background="new" transform="translate(-233 -365)"><path d="m1028 1556c-3.2833 0-6 2.4414-6 5.5 0 1.7056.9046 3.146 2.1523 4.3594l.9942.9941a.50004997.50004997 0 0 0 .3027.1485.50004997.50004997 0 0 0 .051.998h5a.50004997.50004997 0 0 0 .045-.998.50004997.50004997 0 0 0 .3086-.1485l.9981-.998c1.2122-1.1985 2.1465-2.6518 2.1465-4.3535 0-3.0586-2.7167-5.5-6-5.5zm0 1c2.7919 0 5 2.0358 5 4.5 0 1.3342-.7428 2.5488-1.8516 3.6445l-1 1a.50004997.50004997 0 0 0 .2793.8535h-4.8594a.50004997.50004997 0 0 0 .2871-.8535l-1-1a.50004997.50004997 0 0 0 -.01-.01c-1.1397-1.1082-1.8477-2.2864-1.8477-3.6406 0-2.4642 2.2081-4.5 5-4.5zm-2.5 12a.50004997.50004997 0 1 0 0 1h1.5v.5a.50004997.50004997 0 0 0 .5.5h1a.50004997.50004997 0 0 0 .5-.5v-.5h1.5a.50004997.50004997 0 1 0 0-1z"/><path d="m1025.4902 1561.0059a.50005.50005 0 0 0 -.3437.8476l.8535.8535v1.543a.50005.50005 0 1 0 1 0v-1.25h2v1.25a.50005.50005 0 1 0 1 0v-1.543l.8535-.8535a.50005.50005 0 0 0 -.707-.707l-.8535.8535h-2.586l-.8535-.8535a.50005.50005 0 0 0 -.3633-.1406z" opacity=".6"/></g><g enable-background="new" transform="matrix(100 0 0 100 -46700.97699999999 35299.31400000001)"><path d="m447.50977 297.01172a.50005.50005 0 1 0 0 1h6.2832c-.26437-.28877-.47061-.62726-.60742-1zm11.29882 0c-.13697.37274-.34281.71123-.60742 1h2.3086a.50005.50005 0 1 0 0-1z" transform="translate(21 -636)"/><path d="m476.99609-342c1.09999 0 2.00391.90231 2.00391 2.00195 0 1.09965-.90392 2-2.00391 2-1.09998 0-2.00195-.90035-2.00195-2 0-1.09964.90197-2.00195 2.00195-2.00195z"/><path d="m472.49805-351.99805c1.37513 0 2.50195 1.12557 2.50195 2.5 0 1.37444-1.12682 2.49805-2.50195 2.49805-1.37514 0-2.5-1.12361-2.5-2.49805 0-1.37443 1.12486-2.5 2.5-2.5zm0 1c-.83537 0-1.5.66668-1.5 1.5s.66463 1.49805 1.5 1.49805 1.50195-.66473 1.50195-1.49805-.66658-1.5-1.50195-1.5z"/><path d="m472.50195-345.99609a.50005.50005 0 0 0 -.49218.50781v1a.50005.50005 0 1 0 1 0v-1a.50005.50005 0 0 0 -.50782-.50781zm0 3a.50005.50005 0 0 0 -.49218.50781v1a.50005.50005 0 1 0 1 0v-1a.50005.50005 0 0 0 -.50782-.50781z" opacity=".7"/></g></g></svg>