<svg height="1500" viewBox="0 0 1500 1500" width="1500" xmlns="http://www.w3.org/2000/svg" xmlns:inkscape="http://www.inkscape.org/namespaces/inkscape" xmlns:sodipodi="http://sodipodi.sourceforge.net/DTD/sodipodi-0.dtd"><sodipodi:namedview pagecolor="#303030" showgrid="true"><inkscape:grid id="grid5" units="px" spacingx="100" spacingy="100" color="#4772b3" opacity="0.2" visible="true" /></sodipodi:namedview><g fill="#fff"><g enable-background="new" transform="matrix(100 0 0 100 -13599.999 33599.991)"><path d="m137.5-326c-.27613.00003-.49997.22387-.5.5v3c.00003.27613.22387.49997.5.5h3c.27613-.00003.49997-.22387.5-.5v-3c-.00003-.27613-.22387-.49997-.5-.5z"/><path d="m137.52148-331a.50005.50005 0 0 0 -.5.49609l-.0215 3.5 1 .008.0176-3.00391h6.98242v7h-3v1h3.5a.50005.50005 0 0 0 .5-.5v-8a.50005.50005 0 0 0 -.5-.5z" opacity=".8"/><path d="m141.52148-335a.50005.50005 0 0 0 -.5.49609l-.0215 2.5 1 .008.0176-2.00391h6.98242v7h-2v1h2.5a.50005.50005 0 0 0 .5-.5v-8a.50005.50005 0 0 0 -.5-.5z" opacity=".6"/></g></g></svg>