<svg height="1600" viewBox="0 0 1600 1600" width="1600" xmlns="http://www.w3.org/2000/svg" xmlns:inkscape="http://www.inkscape.org/namespaces/inkscape" xmlns:sodipodi="http://sodipodi.sourceforge.net/DTD/sodipodi-0.dtd"><sodipodi:namedview pagecolor="#303030" showgrid="true"><inkscape:grid id="grid5" units="px" spacingx="100" spacingy="100" color="#4772b3" opacity="0.2" visible="true" /></sodipodi:namedview><g fill="#fff"><g enable-background="new" transform="translate(-233 -365)"><path d="m1028 1556c-3.2833 0-6 2.4414-6 5.5 0 1.7056.9046 3.146 2.1523 4.3594l.9942.9941a.50004997.50004997 0 0 0 .3027.1485.50004997.50004997 0 0 0 .051.998h5a.50004997.50004997 0 0 0 .045-.998.50004997.50004997 0 0 0 .3086-.1485l.9981-.998c1.2122-1.1985 2.1465-2.6518 2.1465-4.3535 0-3.0586-2.7167-5.5-6-5.5zm0 1c2.7919 0 5 2.0358 5 4.5 0 1.3342-.7428 2.5488-1.8516 3.6445l-1 1a.50004997.50004997 0 0 0 .2793.8535h-4.8594a.50004997.50004997 0 0 0 .2871-.8535l-1-1a.50004997.50004997 0 0 0 -.01-.01c-1.1397-1.1082-1.8477-2.2864-1.8477-3.6406 0-2.4642 2.2081-4.5 5-4.5zm-2.5 12a.50004997.50004997 0 1 0 0 1h1.5v.5a.50004997.50004997 0 0 0 .5.5h1a.50004997.50004997 0 0 0 .5-.5v-.5h1.5a.50004997.50004997 0 1 0 0-1z"/><path d="m1025.4902 1561.0059a.50005.50005 0 0 0 -.3437.8476l.8535.8535v1.543a.50005.50005 0 1 0 1 0v-1.25h2v1.25a.50005.50005 0 1 0 1 0v-1.543l.8535-.8535a.50005.50005 0 0 0 -.707-.707l-.8535.8535h-2.586l-.8535-.8535a.50005.50005 0 0 0 -.3633-.1406z" opacity=".6"/></g><g enable-background="new" transform="matrix(-100 0 0 -100 39899.657 -33699.6672)"><path d="m393.49219 289.00391c-.27613.00003-.49997.22387-.5.5v1.73047l-2.76953 2.76953h-1.73047c-.27613.00002-.49997.22386-.5.5v1.02929c.00003.27613.22387.47068.5.47071h1c.2725 0 .5.17071.5.5v1c.00003.27613.22387.49997.5.5h1c.27613-.00003.49997-.22387.5-.5v-1.73243l2.76758-2.76757h1.73242c.27613-.00002.49997-.22386.5-.5v-1.02735c-.00003-.27613-.22387-.47262-.5-.47265h-1c-.2725 0-.5-.17071-.5-.5v-1c-.00003-.27613-.22387-.49997-.5-.5z" transform="matrix(-1 0 0 -1 781.993 -53.9953)"/><path d="m395.47852-349.00391a.50004997.50004997 0 0 0 -.32032.86914c1.10925 1.04157 1.85525 2.61894 1.8418 4.13086-.0174 1.95759-1.00719 3.50006-2.74023 4.44727-1.67823.91724-3.81516.64624-5.48829-.40625l.0234.0156c-.96289-.68508-2.10981-1.05271-3.28707-1.05271h-1.00781a.50004997.50004997 0 1 0 0 1h1.00586.002c.96887 0 1.91412.30361 2.70899.86914l.0117.008.0117.008c1.93164 1.2151 4.44119 1.56274 6.5.4375 2.004-1.0953 3.23927-3.01733 3.25977-5.31836.0163-1.83862-.84967-3.64045-2.1582-4.86914a.50004997.50004997 0 0 0 -.36328-.13868z" opacity=".8"/></g></g></svg>