<svg height="1700" viewBox="0 0 1600 1700" width="1600" xmlns="http://www.w3.org/2000/svg" xmlns:inkscape="http://www.inkscape.org/namespaces/inkscape" xmlns:sodipodi="http://sodipodi.sourceforge.net/DTD/sodipodi-0.dtd"><sodipodi:namedview pagecolor="#303030" showgrid="true"><inkscape:grid id="grid5" units="px" spacingx="100" spacingy="100" color="#4772b3" opacity="0.2" visible="true" /></sodipodi:namedview><g fill="#fff"><g enable-background="new" transform="matrix(100 0 0 100 -46700.352 33199.813)"><path d="m478.49609-323.00781a.50005.50005 0 0 0 -.34765.85937l2.64648 2.64649-2.64648 2.64648a.50005.50005 0 1 0 .70703.70703l3-3a.50005.50005 0 0 0 0-.70703l-3-3a.50005.50005 0 0 0 -.35938-.15234z" opacity=".7"/><path d="m473.4375-330.97461c-.67078.0637-1.33815.24001-1.97461.53711-2.54627 1.1886-3.92907 3.99498-3.32031 6.73828.60875 2.7433 3.04739 4.69922 5.85742 4.69922h2.29297l-2.14453 2.14453a.50005.50005 0 1 0 .70703.70703l3-3a.50005.50005 0 0 0 0-.70703l-3-3a.50005.50005 0 1 0 -.70703.70703l2.14844 2.14844h-2.29688c-2.34689 0-4.37244-1.62485-4.88086-3.91602-.50842-2.29116.63902-4.62253 2.76563-5.61523 2.12705-.99291 4.66398-.38512 6.07812 1.48242l.74023.97656c.5522.72924 1.43348 1.07227 2.29688 1.07227h.5a.50005.50005 0 1 0 0-1h-.5c-.59704 0-1.17055-.2407-1.5-.67578l-.74023-.97656c-1.27424-1.68278-3.30992-2.51346-5.32227-2.32227z"/></g></g></svg>