<svg height="1700" viewBox="0 0 1600 1700" width="1600" xmlns="http://www.w3.org/2000/svg" xmlns:inkscape="http://www.inkscape.org/namespaces/inkscape" xmlns:sodipodi="http://sodipodi.sourceforge.net/DTD/sodipodi-0.dtd"><sodipodi:namedview pagecolor="#303030" showgrid="true"><inkscape:grid id="grid5" units="px" spacingx="100" spacingy="100" color="#4772b3" opacity="0.2" visible="true" /></sodipodi:namedview><g fill="#fff"><g enable-background="new" transform="translate(-233 -365)"><path d="m1028 1556c-3.2833 0-6 2.4414-6 5.5 0 1.7056.9046 3.146 2.1523 4.3594l.9942.9941a.50004997.50004997 0 0 0 .3027.1485.50004997.50004997 0 0 0 .051.998h5a.50004997.50004997 0 0 0 .045-.998.50004997.50004997 0 0 0 .3086-.1485l.9981-.998c1.2122-1.1985 2.1465-2.6518 2.1465-4.3535 0-3.0586-2.7167-5.5-6-5.5zm0 1c2.7919 0 5 2.0358 5 4.5 0 1.3342-.7428 2.5488-1.8516 3.6445l-1 1a.50004997.50004997 0 0 0 .2793.8535h-4.8594a.50004997.50004997 0 0 0 .2871-.8535l-1-1a.50004997.50004997 0 0 0 -.01-.01c-1.1397-1.1082-1.8477-2.2864-1.8477-3.6406 0-2.4642 2.2081-4.5 5-4.5zm-2.5 12a.50004997.50004997 0 1 0 0 1h1.5v.5a.50004997.50004997 0 0 0 .5.5h1a.50004997.50004997 0 0 0 .5-.5v-.5h1.5a.50004997.50004997 0 1 0 0-1z"/><path d="m1025.4902 1561.0059a.50005.50005 0 0 0 -.3437.8476l.8535.8535v1.543a.50005.50005 0 1 0 1 0v-1.25h2v1.25a.50005.50005 0 1 0 1 0v-1.543l.8535-.8535a.50005.50005 0 0 0 -.707-.707l-.8535.8535h-2.586l-.8535-.8535a.50005.50005 0 0 0 -.3633-.1406z" opacity=".6"/></g><g enable-background="new" transform="matrix(100 0 0 100 -46700.352 33199.813)"><path d="m478.49609-323.00781a.50005.50005 0 0 0 -.34765.85937l2.64648 2.64649-2.64648 2.64648a.50005.50005 0 1 0 .70703.70703l3-3a.50005.50005 0 0 0 0-.70703l-3-3a.50005.50005 0 0 0 -.35938-.15234z" opacity=".7"/><path d="m473.4375-330.97461c-.67078.0637-1.33815.24001-1.97461.53711-2.54627 1.1886-3.92907 3.99498-3.32031 6.73828.60875 2.7433 3.04739 4.69922 5.85742 4.69922h2.29297l-2.14453 2.14453a.50005.50005 0 1 0 .70703.70703l3-3a.50005.50005 0 0 0 0-.70703l-3-3a.50005.50005 0 1 0 -.70703.70703l2.14844 2.14844h-2.29688c-2.34689 0-4.37244-1.62485-4.88086-3.91602-.50842-2.29116.63902-4.62253 2.76563-5.61523 2.12705-.99291 4.66398-.38512 6.07812 1.48242l.74023.97656c.5522.72924 1.43348 1.07227 2.29688 1.07227h.5a.50005.50005 0 1 0 0-1h-.5c-.59704 0-1.17055-.2407-1.5-.67578l-.74023-.97656c-1.27424-1.68278-3.30992-2.51346-5.32227-2.32227z"/></g></g></svg>