<svg height="1600" viewBox="0 0 1600 1600" width="1600" xmlns="http://www.w3.org/2000/svg" xmlns:inkscape="http://www.inkscape.org/namespaces/inkscape" xmlns:sodipodi="http://sodipodi.sourceforge.net/DTD/sodipodi-0.dtd"><sodipodi:namedview pagecolor="#303030" showgrid="true"><inkscape:grid id="grid5" units="px" spacingx="100" spacingy="100" color="#4772b3" opacity="0.2" visible="true" /></sodipodi:namedview><g fill="#fff"><g enable-background="new" transform="matrix(100 0 0 100 -55099.99999999999 35299.707)"><path d="m560.99219-349.49609c0-1.37714 1.12676-2.50391 2.5039-2.50391 1.37715 0 2.50391 1.12677 2.50391 2.50391 0 1.37713-1.12676 2.5039-2.50391 2.5039-1.37714 0-2.5039-1.12677-2.5039-2.5039z"/><path d="m552-339.99219c0-1.09609.89673-1.99609 1.99219-1.99609s1.99414.9 1.99414 1.99609-.89868 1.99805-1.99414 1.99805-1.99219-.90196-1.99219-1.99805zm1 0c0 .55685.43837.99805.99219.99805s.99414-.4412.99414-.99805-.44032-.99609-.99414-.99609-.99219.43924-.99219.99609z"/><path d="m560.36798-346.98792a.60364676.60365756 0 0 0 -.41654.18273l-.77413.77415a.60366279.6036736 0 1 0 .85273.8547l.77609-.77611a.60364676.60365756 0 0 0 -.43815-1.03547zm-2.99662 2.98989a.61117943.61029182 0 0 0 -.42173.18473l-.78379.78265a.61119567.61030804 0 1 0 .86336.8641l.78578-.78463a.61117943.61029182 0 0 0 -.44362-1.04685z" opacity=".7"/></g></g></svg>