<svg height="1600" viewBox="0 0 1600 1600" width="1600" xmlns="http://www.w3.org/2000/svg" xmlns:inkscape="http://www.inkscape.org/namespaces/inkscape" xmlns:sodipodi="http://sodipodi.sourceforge.net/DTD/sodipodi-0.dtd"><sodipodi:namedview pagecolor="#303030" showgrid="true"><inkscape:grid id="grid5" units="px" spacingx="100" spacingy="100" color="#4772b3" opacity="0.2" visible="true" /></sodipodi:namedview><g fill="#fff"><g enable-background="new" transform="translate(-233 -365)"><path d="m1028 1556c-3.2833 0-6 2.4414-6 5.5 0 1.7056.9046 3.146 2.1523 4.3594l.9942.9941a.50004997.50004997 0 0 0 .3027.1485.50004997.50004997 0 0 0 .051.998h5a.50004997.50004997 0 0 0 .045-.998.50004997.50004997 0 0 0 .3086-.1485l.9981-.998c1.2122-1.1985 2.1465-2.6518 2.1465-4.3535 0-3.0586-2.7167-5.5-6-5.5zm0 1c2.7919 0 5 2.0358 5 4.5 0 1.3342-.7428 2.5488-1.8516 3.6445l-1 1a.50004997.50004997 0 0 0 .2793.8535h-4.8594a.50004997.50004997 0 0 0 .2871-.8535l-1-1a.50004997.50004997 0 0 0 -.01-.01c-1.1397-1.1082-1.8477-2.2864-1.8477-3.6406 0-2.4642 2.2081-4.5 5-4.5zm-2.5 12a.50004997.50004997 0 1 0 0 1h1.5v.5a.50004997.50004997 0 0 0 .5.5h1a.50004997.50004997 0 0 0 .5-.5v-.5h1.5a.50004997.50004997 0 1 0 0-1z"/><path d="m1025.4902 1561.0059a.50005.50005 0 0 0 -.3437.8476l.8535.8535v1.543a.50005.50005 0 1 0 1 0v-1.25h2v1.25a.50005.50005 0 1 0 1 0v-1.543l.8535-.8535a.50005.50005 0 0 0 -.707-.707l-.8535.8535h-2.586l-.8535-.8535a.50005.50005 0 0 0 -.3633-.1406z" opacity=".6"/></g><g enable-background="new" transform="matrix(-100 0 0 -100 21000.293 57200.453)"><path d="m138.61719 286.00781a.60006002.60006002 0 0 0 -.47657.99024l1.61133 2.01953a1.5007322 1.5007322 0 0 1 1.2461 1.5625l.92773 1.16211a.60006002.60006002 0 0 0 .4668.23242.60006002.60006002 0 0 0 .4707-.98047l-1.58789-1.99023 1.58984-2.00782a.60006002.60006002 0 1 0 -.9414-.74414l-1.41602 1.78907-1.42969-1.79102a.60006002.60006002 0 0 0 -.46093-.24219z" opacity=".7" transform="matrix(-1 0 0 -1 341.006 855.002)"/><path d="m201.60938 559.02148a.60006002.60006002 0 0 0 -.47071.98243l1.59766 2.00195-1.59766 2.00195a.6002929.6002929 0 1 0 .9375.75l1.42774-1.78906 1.42773 1.78906a.6002929.6002929 0 1 0 .9375-.75l-1.59766-2.00195 1.59766-2.00195a.6002929.6002929 0 1 0 -.9375-.75l-1.42773 1.78906-1.42774-1.78906a.60006002.60006002 0 0 0 -.46679-.23243z"/><path d="m196.50391 561a.50004997.50004997 0 0 0 -.22657.0547s-.3567.1843-.66796.57226c-.31127.38795-.60938 1.01193-.60938 1.87304v5c0 .86111.29839 1.4864.60938 1.875.31098.3886.66796.57227.66796.57227a.50004997.50004997 0 1 0 .44532-.89454s-.14302-.0665-.33204-.30273c-.18901-.2362-.39062-.61111-.39062-1.25v-5c0-.63889.20189-1.01282.39062-1.24805.18874-.23523.33204-.30078.33204-.30078a.50004997.50004997 0 0 0 -.21875-.95117z" opacity=".7"/><path d="m207.48828 557a.50004997.50004997 0 0 0 -.20508.95117s.14526.0655.33399.30078c.18873.23523.38867.60916.38867 1.24805v5c0 .63889-.20161 1.0138-.39063 1.25-.18901.2362-.33203.30273-.33203.30273a.50006306.50006306 0 1 0 .44727.89454s.35503-.18367.66601-.57227c.31099-.3886.60938-1.01389.60938-1.875v-5c0-.86111-.29811-1.48509-.60938-1.87305s-.66796-.57226-.66796-.57226a.50004997.50004997 0 0 0 -.24024-.05469z"/></g></g></svg>