<svg height="1600" viewBox="0 0 1600 1600" width="1600" xmlns="http://www.w3.org/2000/svg" xmlns:inkscape="http://www.inkscape.org/namespaces/inkscape" xmlns:sodipodi="http://sodipodi.sourceforge.net/DTD/sodipodi-0.dtd"><sodipodi:namedview pagecolor="#303030" showgrid="true"><inkscape:grid id="grid5" units="px" spacingx="100" spacingy="100" color="#4772b3" opacity="0.2" visible="true" /></sodipodi:namedview><g fill="#fff"><g enable-background="new" transform="translate(-233 -365)"><path d="m1028 1556c-3.2833 0-6 2.4414-6 5.5 0 1.7056.9046 3.146 2.1523 4.3594l.9942.9941a.50004997.50004997 0 0 0 .3027.1485.50004997.50004997 0 0 0 .051.998h5a.50004997.50004997 0 0 0 .045-.998.50004997.50004997 0 0 0 .3086-.1485l.9981-.998c1.2122-1.1985 2.1465-2.6518 2.1465-4.3535 0-3.0586-2.7167-5.5-6-5.5zm0 1c2.7919 0 5 2.0358 5 4.5 0 1.3342-.7428 2.5488-1.8516 3.6445l-1 1a.50004997.50004997 0 0 0 .2793.8535h-4.8594a.50004997.50004997 0 0 0 .2871-.8535l-1-1a.50004997.50004997 0 0 0 -.01-.01c-1.1397-1.1082-1.8477-2.2864-1.8477-3.6406 0-2.4642 2.2081-4.5 5-4.5zm-2.5 12a.50004997.50004997 0 1 0 0 1h1.5v.5a.50004997.50004997 0 0 0 .5.5h1a.50004997.50004997 0 0 0 .5-.5v-.5h1.5a.50004997.50004997 0 1 0 0-1z"/><path d="m1025.4902 1561.0059a.50005.50005 0 0 0 -.3437.8476l.8535.8535v1.543a.50005.50005 0 1 0 1 0v-1.25h2v1.25a.50005.50005 0 1 0 1 0v-1.543l.8535-.8535a.50005.50005 0 0 0 -.707-.707l-.8535.8535h-2.586l-.8535-.8535a.50005.50005 0 0 0 -.3633-.1406z" opacity=".6"/></g><g enable-background="new" stroke="none" stroke-width="1.33333" transform="matrix(-53.033 -53.033 -53.033 53.033 30287.154 3975.273)"><path d="m262.58789 287.02734a.60006001.60006001 0 0 0 -.47266.95899l2.14844 3.02929-2.14844 3.0293a.60024527.60024527 0 1 0 .97852.69531l1.90625-2.6875 1.90625 2.6875a.60024527.60024527 0 1 0 .97852-.69531l-2.14844-3.0293 2.14844-3.02929a.60005997.60005997 0 0 0 -.041-.75781.60005997.60005997 0 0 0 -.9375.0625l-1.90625 2.6875-1.90625-2.6875a.60006001.60006001 0 0 0 -.0645-.0781.60006001.60006001 0 0 0 -.44141-.18555z" transform="matrix(-.942809 -.942809 -.942809 .942809 832.145 223.544)"/><path d="m310.32458 237.24123a.66673335.66673335 0 0 0 -.58971-.19749c-6.22865.92525-11.88001 6.57661-12.80526 12.80526a.66680952.66680952 0 1 0 1.31891.19749c.82395-5.54666 6.1358-10.85851 11.68246-11.68246a.66673335.66673335 0 0 0 .3936-1.1228zm8.44938 8.44937a.66673335.66673335 0 0 1 .19749.58972c-.92525 6.22865-6.57661 11.88001-12.80526 12.80526a.66673335.66673335 0 1 1 -.19611-1.31753c5.54665-.82395 10.8585-6.1358 11.68245-11.68246a.66673335.66673335 0 0 1 1.12143-.39499z"/></g></g></svg>