<svg height="1600" viewBox="0 0 1600 1600" width="1600" xmlns="http://www.w3.org/2000/svg" xmlns:inkscape="http://www.inkscape.org/namespaces/inkscape" xmlns:sodipodi="http://sodipodi.sourceforge.net/DTD/sodipodi-0.dtd"><sodipodi:namedview pagecolor="#303030" showgrid="true"><inkscape:grid id="grid5" units="px" spacingx="100" spacingy="100" color="#4772b3" opacity="0.2" visible="true" /></sodipodi:namedview><g fill="#fff"><g enable-background="new" transform="translate(-233 -365)"><path d="m1028 1556c-3.2833 0-6 2.4414-6 5.5 0 1.7056.9046 3.146 2.1523 4.3594l.9942.9941a.50004997.50004997 0 0 0 .3027.1485.50004997.50004997 0 0 0 .051.998h5a.50004997.50004997 0 0 0 .045-.998.50004997.50004997 0 0 0 .3086-.1485l.9981-.998c1.2122-1.1985 2.1465-2.6518 2.1465-4.3535 0-3.0586-2.7167-5.5-6-5.5zm0 1c2.7919 0 5 2.0358 5 4.5 0 1.3342-.7428 2.5488-1.8516 3.6445l-1 1a.50004997.50004997 0 0 0 .2793.8535h-4.8594a.50004997.50004997 0 0 0 .2871-.8535l-1-1a.50004997.50004997 0 0 0 -.01-.01c-1.1397-1.1082-1.8477-2.2864-1.8477-3.6406 0-2.4642 2.2081-4.5 5-4.5zm-2.5 12a.50004997.50004997 0 1 0 0 1h1.5v.5a.50004997.50004997 0 0 0 .5.5h1a.50004997.50004997 0 0 0 .5-.5v-.5h1.5a.50004997.50004997 0 1 0 0-1z"/><path d="m1025.4902 1561.0059a.50005.50005 0 0 0 -.3437.8476l.8535.8535v1.543a.50005.50005 0 1 0 1 0v-1.25h2v1.25a.50005.50005 0 1 0 1 0v-1.543l.8535-.8535a.50005.50005 0 0 0 -.707-.707l-.8535.8535h-2.586l-.8535-.8535a.50005.50005 0 0 0 -.3633-.1406z" opacity=".6"/></g><path d="m36.007812 284v2h-1.5c-.27613.00003-.499969.22387-.5.5v1.49805l-3.988281.006c-.812117.00092-1.516225.45838-1.832031 1.12695-.315807.66858-.189691 1.55835.478516 2.22656l4 4c.413276.41327.416416.77582.271484 1.08789-.144932.31206-.483162.5586-.917969.5586l-4.513672.006c-.676088-.008-.674098 1.01079.002 1l4.511719-.006c.815193 0 1.513263-.46717 1.824219-1.13672.310955-.66954.189571-1.55652-.470703-2.2168l-4-4c-.426033-.42603-.426504-.78429-.28125-1.0918.145253-.30751.489852-.55418.927734-.55468l3.980422-.006c.0026.00002.0052.00002.0078 0v1.50195c.00003.27613.22387.49997.5.5h1.5v2h1v-2h1.5c.27613-.00003.499971-.22387.5-.5v-1.5h2v-1h-2v-1.5c-.000029-.27613-.22387-.49997-.5-.5h-1.5v-2zm-1.027343 3h3.027343v3h-3.027343z" transform="matrix(100 0 0 100 -2600.3794 -28300.5065)"/></g></svg>