<svg height="1600" viewBox="0 0 1600 1600" width="1600" xmlns="http://www.w3.org/2000/svg" xmlns:inkscape="http://www.inkscape.org/namespaces/inkscape" xmlns:sodipodi="http://sodipodi.sourceforge.net/DTD/sodipodi-0.dtd"><sodipodi:namedview pagecolor="#303030" showgrid="true"><inkscape:grid id="grid5" units="px" spacingx="100" spacingy="100" color="#4772b3" opacity="0.2" visible="true" /></sodipodi:namedview><g fill="#fff"><g enable-background="new" transform="matrix(100 0 0 100 -34100.197 37399.991)"><path d="m350.99219-370.49609c0-1.37714 1.12676-2.50391 2.5039-2.50391 1.37715 0 2.50391 1.12677 2.50391 2.50391 0 1.37713-1.12676 2.5039-2.50391 2.5039-1.37714 0-2.5039-1.12677-2.5039-2.5039z"/><path d="m348.4707-367.9375c-.33462.0898-.64722.26623-.90039.51953l-4.97851 4.98242c-.50693.50809-.70493 1.24983-.51953 1.94336.18541.69355.72692 1.23774 1.41992 1.42383.69276.18603 1.43437-.0128 1.9414-.52148l4.97852-4.98047c.50694-.50808.70495-1.25177.51953-1.94531-.1854-.69356-.72693-1.23578-1.41992-1.42188-.34638-.093-.70553-.09-1.04102 0zm.78125.96484c.34883.0937.61917.3662.71289.7168.0937.35062-.006.72222-.26172.97852l-4.97656 4.98046c-.25562.25646-.62555.35546-.97461.26172-.3488-.0937-.62111-.36425-.71484-.71484-.0937-.35061.006-.7222.26172-.97852l4.97851-4.98242c.25563-.25646.62557-.35545.97461-.26172z" opacity=".8"/></g></g></svg>