<svg height="1600" viewBox="0 0 1600 1600" width="1600" xmlns="http://www.w3.org/2000/svg" xmlns:inkscape="http://www.inkscape.org/namespaces/inkscape" xmlns:sodipodi="http://sodipodi.sourceforge.net/DTD/sodipodi-0.dtd"><sodipodi:namedview pagecolor="#303030" showgrid="true"><inkscape:grid id="grid5" units="px" spacingx="100" spacingy="100" color="#4772b3" opacity="0.2" visible="true" /></sodipodi:namedview><g fill="#fff"><g enable-background="new" transform="matrix(100 0 0 100 -15199.942 -28300)"><path d="m167 289v-2h-1v2zm0-3v-2h-1v2zm0 12v-2h-1v2zm0-3v-2h-1v2zm0-3v-2h-1v2z"/><path d="m160.5 285.99023a.50005.50005 0 0 0 -.34766.85743l1.14649 1.14648-6.29297 6.29297-1.14648-1.14649a.50005.50005 0 1 0 -.70704.70704l3 3a.50005.50005 0 1 0 .70704-.70704l-1.14649-1.14648 6.29297-6.29297 1.14648 1.14649a.50005.50005 0 1 0 .70704-.70704l-3-3a.50005.50005 0 0 0 -.35938-.15039z" opacity=".85"/></g></g></svg>