<svg height="1700" viewBox="0 0 1600 1700" width="1600" xmlns="http://www.w3.org/2000/svg" xmlns:inkscape="http://www.inkscape.org/namespaces/inkscape" xmlns:sodipodi="http://sodipodi.sourceforge.net/DTD/sodipodi-0.dtd"><sodipodi:namedview pagecolor="#303030" showgrid="true"><inkscape:grid id="grid5" units="px" spacingx="100" spacingy="100" color="#4772b3" opacity="0.2" visible="true" /></sodipodi:namedview><g fill="#fff"><path d="m319.49219 315a.50005.50005 0 0 0 -.34571.14648l-4 4a.50005.50005 0 0 0 0 .70704l4 4a.50005.50005 0 0 0 .36133.14648.50005.50005 0 0 0 .34571-.14648l4-4a.50005.50005 0 0 0 0-.70704l-.18164-.18164-3.81836-3.81836a.50005.50005 0 0 0 -.36133-.14648zm.00781 1.20703 3.29297 3.29297-3.29297 3.29297-3.29297-3.29297zm-8.5 2.79297v1h1v-1zm2 0v1h1v-1zm.5 4c-.12794 0-.25588.0489-.35352.14648l-3 3c-.19519.19527-.19519.51177 0 .70704l3 3c.0957.0957.22603.14855.36133.14648.12989-.002.25387-.0546.34571-.14648l3-3c.19519-.19527.19519-.51177 0-.70704l-3-3c-.09764-.09759-.22558-.14648-.35352-.14648zm4.5 3v1h1v-1zm2 0v1h1v-1zm2 0v1h1v-1z" transform="matrix(100 0 0 100 -30900.001 -31399.99900000001)"/></g></svg>