<svg height="1600" viewBox="0 0 1500 1600" width="1500" xmlns="http://www.w3.org/2000/svg" xmlns:inkscape="http://www.inkscape.org/namespaces/inkscape" xmlns:sodipodi="http://sodipodi.sourceforge.net/DTD/sodipodi-0.dtd"><sodipodi:namedview pagecolor="#303030" showgrid="true"><inkscape:grid id="grid5" units="px" spacingx="100" spacingy="100" color="#4772b3" opacity="0.2" visible="true" /></sodipodi:namedview><g enable-background="new" transform="matrix(100 0 0 100 -25703.125 -30303.708)"><g fill="#fff"><path d="m264.02413 311.53945a1.5 1.5 0 0 1 -1.5 1.5 1.5 1.5 0 0 1 -1.5-1.5 1.5 1.5 0 0 1 1.5-1.5 1.5 1.5 0 0 1 1.5 1.5z"/><path d="m269.02344 314.03906c-1.09865 0-2 .90136-2 2 0 1.09865.90135 2 2 2 1.09864 0 2-.90135 2-2 0-1.09864-.90136-2-2-2zm0 1c.5582 0 1 .4418 1 1 0 .55821-.4418 1-1 1-.55821 0-1-.44179-1-1 0-.5582.44179-1 1-1z"/><path d="m258.53125 304.03516a.50005.50005 0 1 0 0 1h12a.50005.50005 0 1 0 0-1z"/></g><path d="m264.79492 304.18164a.60006002.60006002 0 0 0 -.58594.4043l-2.25 6.25a.60006002.60006002 0 1 0 1.12891.40625l2.25-6.25a.60006002.60006002 0 0 0 -.54297-.81055zm-1.27148 7.75391a.60006002.60006002 0 0 0 -.33594 1.09961l4 2.7207a.60006002.60006002 0 1 0 .67383-.99219l-4-2.7207a.60006002.60006002 0 0 0 -.33789-.10742z" fill="#fbfbfb" opacity=".7"/></g></svg>