<svg height="1500" viewBox="0 0 1500 1500" width="1500" xmlns="http://www.w3.org/2000/svg" xmlns:inkscape="http://www.inkscape.org/namespaces/inkscape" xmlns:sodipodi="http://sodipodi.sourceforge.net/DTD/sodipodi-0.dtd"><sodipodi:namedview pagecolor="#303030" showgrid="true"><inkscape:grid id="grid5" units="px" spacingx="100" spacingy="100" color="#4772b3" opacity="0.2" visible="true" /></sodipodi:namedview><g fill="#fff"><g enable-background="new" transform="matrix(100 0 0 100 -53000.503 35200.51)"><path d="m531.50781-348.00781a.50005.50005 0 0 0 -.5.5l-.00781 9.00781a.50005.50005 0 0 0 .5.5l9.00781-.008a.50005.50005 0 0 0 .5-.5c0-5.24079-4.25921-9.5-9.5-9.5zm.5 1.10156c4.27858.26151 7.63693 3.61986 7.89844 7.89844l-7.90625.00781z" opacity=".7"/><path d="m542.98047-351.00977a1.0001 1.0001 0 0 0 -.6875.30274l-3 3a1.0001 1.0001 0 1 0 1.41406 1.41406l3-3a1.0001 1.0001 0 0 0 -.72656-1.7168z"/></g></g></svg>