<svg height="1500" viewBox="0 0 1600 1500" width="1600" xmlns="http://www.w3.org/2000/svg" xmlns:inkscape="http://www.inkscape.org/namespaces/inkscape" xmlns:sodipodi="http://sodipodi.sourceforge.net/DTD/sodipodi-0.dtd"><sodipodi:namedview pagecolor="#303030" showgrid="true"><inkscape:grid id="grid5" units="px" spacingx="100" spacingy="100" color="#4772b3" opacity="0.2" visible="true" /></sodipodi:namedview><g fill="#fff"><path d="m29 207v1h-2v-1zm4 4h1v3h-1zm0-10h1v3h-1zm-2.5 4c-.27613.00003-.49997.22387-.5.5v4c.00003.27613.22387.49997.5.5h6c.27613-.00003.49997-.22387.5-.5v-1.5h.335938l2.61914 1.9043c.08568.0623.188958.0958.294922.0957h.25c.276131-.00003.499972-.22387.5-.5v-4c-.000028-.27613-.223869-.49997-.5-.5h-.25c-.105964-.00015-.209238.0334-.294922.0957l-2.61914 1.9043h-.335938v-1.5c-.00003-.27613-.22387-.49997-.5-.5zm.5 1h5.027344v3h-5.027344zm9 .30078v2.39844l-1.650391-1.19922z" transform="matrix(100 0 0 100 -2600 -20000)"/></g></svg>