<svg height="1600" viewBox="0 0 1600 1600" width="1600" xmlns="http://www.w3.org/2000/svg" xmlns:inkscape="http://www.inkscape.org/namespaces/inkscape" xmlns:sodipodi="http://sodipodi.sourceforge.net/DTD/sodipodi-0.dtd"><sodipodi:namedview pagecolor="#303030" showgrid="true"><inkscape:grid id="grid5" units="px" spacingx="100" spacingy="100" color="#4772b3" opacity="0.2" visible="true" /></sodipodi:namedview><g fill="#fff"><g enable-background="new" transform="matrix(100 0 0 100 -8899.3611 -28199.235)"><path d="m95.398438 282.97461a.50004994.50004994 0 0 0 -.05078.002.50004994.50004994 0 0 0 -.367187.20313c-1.08755 1.44512-1.289758 3.38123-.523438 5.02148s2.376885 2.71907 4.177735 2.79492c1.781962.0751 3.458632-.84789 4.365232-2.38867v1.89253a.50004997.50004997 0 1 0 1 0v-3a.50004997.50004997 0 0 0 -.5-.5h-3a.50004997.50004997 0 1 0 0 1h1.70312a.50004994.50004994 0 0 0 -.0391.0645c-.71624 1.25031-2.05833 1.99179-3.486324 1.93164-1.42799-.0601-2.704083-.91231-3.314453-2.21875-.61036-1.30644-.449354-2.8462.416016-3.99609a.50004994.50004994 0 0 0 -.380859-.80664z" opacity=".7"/><path d="m91.347656 288.96484a.51005099.51005099 0 0 0 -.376953.20899c-1.08977 1.44807-1.289364 3.38767-.521484 5.03125.76787 1.64358 2.380967 2.72477 4.185547 2.80078 1.781016.075 3.455174-.8442 4.365234-2.38086v1.875a.50005.50005 0 1 0 1 0v-3a.50005.50005 0 0 0 -.5-.5h-3a.50005.50005 0 1 0 0 1h1.693359a.51006897.51006897 0 0 0 -.03906.0586c-.71442 1.24711-2.052293 1.98773-3.476563 1.92774-1.42426-.06-2.695887-.90979-3.304687-2.21289-.60881-1.3031-.449088-2.83939.414062-3.98633a.51005099.51005099 0 0 0 -.388671-.82227.51005099.51005099 0 0 0 -.05078 0z"/></g></g></svg>