<svg height="1600" viewBox="0 0 1600 1600" width="1600" xmlns="http://www.w3.org/2000/svg" xmlns:inkscape="http://www.inkscape.org/namespaces/inkscape" xmlns:sodipodi="http://sodipodi.sourceforge.net/DTD/sodipodi-0.dtd"><sodipodi:namedview pagecolor="#303030" showgrid="true"><inkscape:grid id="grid5" units="px" spacingx="100" spacingy="100" color="#4772b3" opacity="0.2" visible="true" /></sodipodi:namedview><g fill="#fff"><g enable-background="new" transform="translate(-233 -365)"><path d="m1028 1556c-3.2833 0-6 2.4414-6 5.5 0 1.7056.9046 3.146 2.1523 4.3594l.9942.9941a.50004997.50004997 0 0 0 .3027.1485.50004997.50004997 0 0 0 .051.998h5a.50004997.50004997 0 0 0 .045-.998.50004997.50004997 0 0 0 .3086-.1485l.9981-.998c1.2122-1.1985 2.1465-2.6518 2.1465-4.3535 0-3.0586-2.7167-5.5-6-5.5zm0 1c2.7919 0 5 2.0358 5 4.5 0 1.3342-.7428 2.5488-1.8516 3.6445l-1 1a.50004997.50004997 0 0 0 .2793.8535h-4.8594a.50004997.50004997 0 0 0 .2871-.8535l-1-1a.50004997.50004997 0 0 0 -.01-.01c-1.1397-1.1082-1.8477-2.2864-1.8477-3.6406 0-2.4642 2.2081-4.5 5-4.5zm-2.5 12a.50004997.50004997 0 1 0 0 1h1.5v.5a.50004997.50004997 0 0 0 .5.5h1a.50004997.50004997 0 0 0 .5-.5v-.5h1.5a.50004997.50004997 0 1 0 0-1z"/><path d="m1025.4902 1561.0059a.50005.50005 0 0 0 -.3437.8476l.8535.8535v1.543a.50005.50005 0 1 0 1 0v-1.25h2v1.25a.50005.50005 0 1 0 1 0v-1.543l.8535-.8535a.50005.50005 0 0 0 -.707-.707l-.8535.8535h-2.586l-.8535-.8535a.50005.50005 0 0 0 -.3633-.1406z" opacity=".6"/></g><g enable-background="new" transform="matrix(100 0 0 100 -29900.386 35300.06000000001)"><path d="m306.49219-348.01172a.50005.50005 0 0 0 -.38867.19531l-1.95704 1.95703a.50005.50005 0 1 0 .70704.70704l1.14648-1.14649v5.79297a.50005.50005 0 0 0 .5.5h5.79297l-1.14649 1.14648a.50005.50005 0 1 0 .70704.70704l1.95117-1.94922a.50005.50005 0 0 0 .008-.79883l-1.95898-1.95899a.50005.50005 0 1 0 -.70704.70704l1.14649 1.14648h-5.29316v-5.29297l1.14648 1.14649a.50005.50005 0 1 0 .70704-.70704l-1.96094-1.96093-.006-.008a.50005.50005 0 0 0 -.39453-.1836z"/><path d="m306.44531-351.99805c-1.16966-.043-2.35048.23548-3.40039.84766-2.09911 1.22396-3.28024 3.5522-3.00586 5.94141.27491 2.39372 1.98225 4.44954 4.31055 5.18554a.50004997.50004997 0 1 0 .30078-.95312c-1.94954-.61628-3.38871-2.3582-3.61719-4.34766-.22899-1.99397.75092-3.93196 2.51563-4.96094 1.76401-1.02856 3.9738-.9382 5.67187.20118.93801.62937 1.92387 1.08398 3.2793 1.08398h1a.50004997.50004997 0 1 0 0-1h-1c-1.14457 0-1.85649-.33615-2.7207-.91602-1.00565-.67477-2.16433-1.03898-3.33399-1.08203z" opacity=".8"/></g></g></svg>