<svg height="1600" viewBox="0 0 1600 1600" width="1600" xmlns="http://www.w3.org/2000/svg" xmlns:inkscape="http://www.inkscape.org/namespaces/inkscape" xmlns:sodipodi="http://sodipodi.sourceforge.net/DTD/sodipodi-0.dtd"><sodipodi:namedview pagecolor="#303030" showgrid="true"><inkscape:grid id="grid5" units="px" spacingx="100" spacingy="100" color="#4772b3" opacity="0.2" visible="true" /></sodipodi:namedview><g fill="#fff"><g enable-background="new" transform="matrix(100 0 0 100 -29900.386 35300.06000000001)"><path d="m306.49219-348.01172a.50005.50005 0 0 0 -.38867.19531l-1.95704 1.95703a.50005.50005 0 1 0 .70704.70704l1.14648-1.14649v5.79297a.50005.50005 0 0 0 .5.5h5.79297l-1.14649 1.14648a.50005.50005 0 1 0 .70704.70704l1.95117-1.94922a.50005.50005 0 0 0 .008-.79883l-1.95898-1.95899a.50005.50005 0 1 0 -.70704.70704l1.14649 1.14648h-5.29316v-5.29297l1.14648 1.14649a.50005.50005 0 1 0 .70704-.70704l-1.96094-1.96093-.006-.008a.50005.50005 0 0 0 -.39453-.1836z"/><path d="m306.44531-351.99805c-1.16966-.043-2.35048.23548-3.40039.84766-2.09911 1.22396-3.28024 3.5522-3.00586 5.94141.27491 2.39372 1.98225 4.44954 4.31055 5.18554a.50004997.50004997 0 1 0 .30078-.95312c-1.94954-.61628-3.38871-2.3582-3.61719-4.34766-.22899-1.99397.75092-3.93196 2.51563-4.96094 1.76401-1.02856 3.9738-.9382 5.67187.20118.93801.62937 1.92387 1.08398 3.2793 1.08398h1a.50004997.50004997 0 1 0 0-1h-1c-1.14457 0-1.85649-.33615-2.7207-.91602-1.00565-.67477-2.16433-1.03898-3.33399-1.08203z" opacity=".8"/></g></g></svg>