<svg id="svg3" height="1600" viewBox="0 0 1600 1600" width="1600" xmlns="http://www.w3.org/2000/svg" xmlns:inkscape="http://www.inkscape.org/namespaces/inkscape" xmlns:sodipodi="http://sodipodi.sourceforge.net/DTD/sodipodi-0.dtd"><sodipodi:namedview pagecolor="#303030" showgrid="true"><inkscape:grid id="grid5" units="px" spacingx="100" spacingy="100" color="#4772b3" opacity="0.2" visible="true" /></sodipodi:namedview><g fill="#fff" transform="matrix(100 0 0 100 -75200 9000)"><path id="path2" d="m760-82c-1.85842 0-3.5402.34854-4.79688.898438-.62833.274948-1.15274.599804-1.54296.982421-.39023.382617-.66016.848248-.66016 1.369141a.50005.50005 0 1 0 1 0c0-.169742.0937-.393844.36133-.65625.26762-.262406.69425-.539532 1.24219-.779297 1.09587-.47953 2.6651-.814453 4.39648-.814453s3.30061.334923 4.39648.814453c.54794.239765.97457.516891 1.24219.779297s.36133.486508.36133.65625a.50005.50005 0 1 0 1 0c0-.520893-.26993-.986524-.66016-1.369141-.39022-.382617-.91463-.707473-1.54296-.982421-1.25668-.549898-2.93846-.898438-4.79688-.898438z" opacity=".5"/><path id="path1" d="m759.5-89a.50005.50005 0 0 0 -.41406.220703l-5.75 8.5a.50005.50005 0 0 0 -.0254.04102c-.21256.390643-.31054.818159-.31054 1.238277 0 1.217423.89627 2.23231 2.16602 2.916016 1.26974.683706 2.96633 1.083984 4.83398 1.083984s3.56424-.400278 4.83398-1.083984c1.26975-.683706 2.16602-1.698593 2.16602-2.916016 0-.419749-.0968-.847195-.3125-1.240234a.50005.50005 0 0 0 -.0234-.03906l-5.75-8.5a.50005.50005 0 0 0 -.4141-.220706zm.26562 1h.46876l5.58007 8.248047c.12748.235213.18555.483592.18555.751953 0 .715577-.55782 1.452112-1.64062 2.035156-1.08281.583044-2.63723.964844-4.35938.964844s-3.27657-.3818-4.35938-.964844c-1.0828-.583044-1.64062-1.319579-1.64062-2.035156 0-.262685.0617-.522361.1875-.755859z"/></g></svg>