<svg height="1600" viewBox="0 0 1600 1600" width="1600" xmlns="http://www.w3.org/2000/svg" xmlns:inkscape="http://www.inkscape.org/namespaces/inkscape" xmlns:sodipodi="http://sodipodi.sourceforge.net/DTD/sodipodi-0.dtd"><sodipodi:namedview pagecolor="#303030" showgrid="true"><inkscape:grid id="grid5" units="px" spacingx="100" spacingy="100" color="#4772b3" opacity="0.2" visible="true" /></sodipodi:namedview><g fill="#fff"><path d="m363.5 536a.50005.50005 0 0 0 -.5.5v13a.50005.50005 0 0 0 .5.5h13a.50005.50005 0 0 0 .5-.5v-13a.50005.50005 0 0 0 -.5-.5zm.5 1h12v12h-12zm2 2v1h1v-1zm1 1v1h1v-1zm1 1v1h1v-1zm0 1h-1v1h1zm-1 1h-1v1h1zm2 0v1h3v-1z" fill-rule="evenodd" transform="matrix(100 0 0 100 -36200 -53500)"/></g></svg>