<svg height="1600" viewBox="0 0 1600 1600" width="1600" xmlns="http://www.w3.org/2000/svg" xmlns:inkscape="http://www.inkscape.org/namespaces/inkscape" xmlns:sodipodi="http://sodipodi.sourceforge.net/DTD/sodipodi-0.dtd"><sodipodi:namedview pagecolor="#303030" showgrid="true"><inkscape:grid id="grid5" units="px" spacingx="100" spacingy="100" color="#4772b3" opacity="0.2" visible="true" /></sodipodi:namedview><g fill="#fff"><g enable-background="new" transform="translate(-233 -365)"><path d="m1028 1556c-3.2833 0-6 2.4414-6 5.5 0 1.7056.9046 3.146 2.1523 4.3594l.9942.9941a.50004997.50004997 0 0 0 .3027.1485.50004997.50004997 0 0 0 .051.998h5a.50004997.50004997 0 0 0 .045-.998.50004997.50004997 0 0 0 .3086-.1485l.9981-.998c1.2122-1.1985 2.1465-2.6518 2.1465-4.3535 0-3.0586-2.7167-5.5-6-5.5zm0 1c2.7919 0 5 2.0358 5 4.5 0 1.3342-.7428 2.5488-1.8516 3.6445l-1 1a.50004997.50004997 0 0 0 .2793.8535h-4.8594a.50004997.50004997 0 0 0 .2871-.8535l-1-1a.50004997.50004997 0 0 0 -.01-.01c-1.1397-1.1082-1.8477-2.2864-1.8477-3.6406 0-2.4642 2.2081-4.5 5-4.5zm-2.5 12a.50004997.50004997 0 1 0 0 1h1.5v.5a.50004997.50004997 0 0 0 .5.5h1a.50004997.50004997 0 0 0 .5-.5v-.5h1.5a.50004997.50004997 0 1 0 0-1z"/><path d="m1025.4902 1561.0059a.50005.50005 0 0 0 -.3437.8476l.8535.8535v1.543a.50005.50005 0 1 0 1 0v-1.25h2v1.25a.50005.50005 0 1 0 1 0v-1.543l.8535-.8535a.50005.50005 0 0 0 -.707-.707l-.8535.8535h-2.586l-.8535-.8535a.50005.50005 0 0 0 -.3633-.1406z" opacity=".6"/></g><path d="m415.99805 494c-.46823.00055-.93866.108-1.3711.32422l-6.83789 3.39453a.50005.50005 0 0 0 -.0273.0137c-2.00082 1.15513-3.06722 3.4434-2.66602 5.71875.40121 2.27536 2.18559 4.05973 4.46094 4.46094.56884.1003 1.13889.11012 1.69141.0352 1.65755-.22472 3.1599-1.20077 4.02734-2.70313a.50005.50005 0 0 0 .0156-.0293l3.38476-6.84179c.57659-1.15316.3761-2.57898-.54687-3.50196-.57687-.57686-1.35049-.872-2.13086-.87109zm.3125 1.02539c.41467.0623.80824.24966 1.11133.55273.60613.60614.74722 1.57588.36132 2.34766a.50005.50005 0 0 0 -.002.002l-3.375 6.82032c-.9493 1.63933-2.81295 2.50814-4.67578 2.17968-1.86473-.3288-3.32159-1.78565-3.65039-3.65039-.3288-1.86473.54196-3.7311 2.18164-4.67773l6.81055-3.38086a.50005.50005 0 0 0 .002 0c.38589-.19295.82165-.25567 1.23633-.19336zm-.29883.9707c-.54636 0-1 .45364-1 1s.45364 1 1 1 1-.45364 1-1-.45364-1-1-1zm-5.5 3c-1.92707 0-3.5 1.57293-3.5 3.5s1.57293 3.5 3.5 3.5 3.5-1.57293 3.5-3.5-1.57293-3.5-3.5-3.5zm0 1.97461a1.4874268 1.5 0 0 1 1.48828 1.5 1.4874268 1.5 0 0 1 -1.48828 1.5 1.4874268 1.5 0 0 1 -1.48828-1.5 1.4874268 1.5 0 0 1 1.48828-1.5z" transform="matrix(100 0 0 100 -40400.579 -49299.827)"/></g></svg>