<svg height="1600" viewBox="0 0 1600 1600" width="1600" xmlns="http://www.w3.org/2000/svg" xmlns:inkscape="http://www.inkscape.org/namespaces/inkscape" xmlns:sodipodi="http://sodipodi.sourceforge.net/DTD/sodipodi-0.dtd"><sodipodi:namedview pagecolor="#303030" showgrid="true"><inkscape:grid id="grid5" units="px" spacingx="100" spacingy="100" color="#4772b3" opacity="0.2" visible="true" /></sodipodi:namedview><g fill="#fff"><path d="m415.99805 494c-.46823.00055-.93866.108-1.3711.32422l-6.83789 3.39453a.50005.50005 0 0 0 -.0273.0137c-2.00082 1.15513-3.06722 3.4434-2.66602 5.71875.40121 2.27536 2.18559 4.05973 4.46094 4.46094.56884.1003 1.13889.11012 1.69141.0352 1.65755-.22472 3.1599-1.20077 4.02734-2.70313a.50005.50005 0 0 0 .0156-.0293l3.38476-6.84179c.57659-1.15316.3761-2.57898-.54687-3.50196-.57687-.57686-1.35049-.872-2.13086-.87109zm.3125 1.02539c.41467.0623.80824.24966 1.11133.55273.60613.60614.74722 1.57588.36132 2.34766a.50005.50005 0 0 0 -.002.002l-3.375 6.82032c-.9493 1.63933-2.81295 2.50814-4.67578 2.17968-1.86473-.3288-3.32159-1.78565-3.65039-3.65039-.3288-1.86473.54196-3.7311 2.18164-4.67773l6.81055-3.38086a.50005.50005 0 0 0 .002 0c.38589-.19295.82165-.25567 1.23633-.19336zm-.29883.9707c-.54636 0-1 .45364-1 1s.45364 1 1 1 1-.45364 1-1-.45364-1-1-1zm-5.5 3c-1.92707 0-3.5 1.57293-3.5 3.5s1.57293 3.5 3.5 3.5 3.5-1.57293 3.5-3.5-1.57293-3.5-3.5-3.5zm0 1.97461a1.4874268 1.5 0 0 1 1.48828 1.5 1.4874268 1.5 0 0 1 -1.48828 1.5 1.4874268 1.5 0 0 1 -1.48828-1.5 1.4874268 1.5 0 0 1 1.48828-1.5z" transform="matrix(100 0 0 100 -40400.579 -49299.827)"/></g></svg>