<svg height="1600" viewBox="0 0 1600 1600" width="1600" xmlns="http://www.w3.org/2000/svg" xmlns:inkscape="http://www.inkscape.org/namespaces/inkscape" xmlns:sodipodi="http://sodipodi.sourceforge.net/DTD/sodipodi-0.dtd"><sodipodi:namedview pagecolor="#303030" showgrid="true"><inkscape:grid id="grid5" units="px" spacingx="100" spacingy="100" color="#4772b3" opacity="0.2" visible="true" /></sodipodi:namedview><g fill="#fff"><path d="m449.5 494c-.27613.00003-.49997.22387-.5.5v1c0-.0417.006-.0117-.0469.0547-.0531.0664-.15023.15467-.2539.23242-.16609.12457-.2761.17993-.33789.21289h-.86131c-.27613.00003-.49997.22387-.5.5v1c.00003.27613.22387.49997.5.5h1.77539c.40889-.49501.89786-.93068 1.47461-1.26367l.42578-.26758-.17578-.17579v-1.79297c-.00003-.27613-.22387-.49997-.5-.5zm8.28125.002c-.50453.0148-1.01019.15125-1.46875.41602a.50005.50005 0 0 0 -.0156.01l-5.04688 3.17579-.0156.01a.50005.50005 0 0 0 -.19532.2207c-1.45784.9884-2.27996 2.6934-1.9707 4.44727.32821 1.86134 1.78904 3.32218 3.65039 3.65039.641.11303 1.28349.0836 1.88867-.0703a.50005.50005 0 1 0 -.24609-.96875c-.47064.11969-.96915.14277-1.46875.0547-1.45073-.25581-2.58404-1.38913-2.83985-2.83985-.2558-1.45072.42152-2.90212 1.69727-3.63867a.50005.50005 0 0 0 .0156-.01l.0274-.0156a.50005.50005 0 0 0 .01-.008l5.00977-3.15039c.83503-.4821 1.88265-.34391 2.56445.33789.6818.68178.81999 1.72943.33789 2.56445a.50005.50005 0 0 0 -.006.0137.50005.50005 0 0 0 -.0195.0371l-1.6289 3.02539a.50005.50005 0 1 0 .8789.47266l1.63477-3.03711.008-.0117c.00067-.001-.00067-.003 0-.004l.006-.01a.50005.50005 0 0 0 .0586-.3125c.51014-1.16591.35331-2.52952-.5625-3.44531-.49921-.49921-1.13538-.80107-1.80078-.88868-.16635-.0219-.33377-.0303-.50195-.0254zm.21875 1.998a1 1 0 0 0 -1 1 1 1 0 0 0 1 1 1 1 0 0 0 1-1 1 1 0 0 0 -1-1zm-4.65039 2.64258-1.05078.66211a1.50015 1.50015 0 0 1 -.0488.0293c-.34485.1991-.62663.47142-.83594.78711l4.22461 4.22657 1.3613 1.35936v1.79297c.00003.27613.22387.49997.5.5h1c.27613-.00003.49997-.22387.5-.5v-1c0-.0833.0571-.22505.16602-.33398.10893-.10894.25065-.16602.33398-.16602h1c.27613-.00003.49997-.22387.5-.5v-1c-.00003-.27613-.22387-.49997-.5-.5h-1.79297z" transform="matrix(100 0 0 100 -44600 -49300)"/></g></svg>