<svg height="1500" viewBox="0 0 1600 1500" width="1600" xmlns="http://www.w3.org/2000/svg" xmlns:inkscape="http://www.inkscape.org/namespaces/inkscape" xmlns:sodipodi="http://sodipodi.sourceforge.net/DTD/sodipodi-0.dtd"><sodipodi:namedview pagecolor="#303030" showgrid="true"><inkscape:grid id="grid5" units="px" spacingx="100" spacingy="100" color="#4772b3" opacity="0.2" visible="true" /></sodipodi:namedview><g fill="#fff"><g enable-background="new" transform="matrix(100 0 0 100 -17300 -59800)"><path d="m175.5 599c-.82235 0-1.5.67765-1.5 1.5v6c0 .64672.42101 1.19773 1 1.40625v-1.40625-3-3c0-.28564.21436-.5.5-.5h9c.28564 0 .5.21436.5.5v1.5h1v-1.5c0-.82235-.67765-1.5-1.5-1.5z" opacity=".6"/><path d="m177.5 653c-.82235 0-1.5.67765-1.5 1.5v6c0 .82235.67765 1.5 1.5 1.5h9c.82235 0 1.5-.67765 1.5-1.5v-6c0-.82235-.67765-1.5-1.5-1.5zm2.00391 2c.1882.002.35956.10882.44336.27734l2 4c.16517.33222-.0763.72229-.44727.72266h-4c-.37097-.00037-.61244-.39044-.44727-.72266l2-4c.0851-.17104.26016-.27834.45118-.27734zm3.99609 0h3a.50005.50005 0 1 1 0 1h-3a.50005.50005 0 1 1 0-1zm0 2h3a.50005.50005 0 1 1 0 1h-3a.50005.50005 0 1 1 0-1zm0 2h2a.50005.50005 0 1 1 0 1h-2a.50005.50005 0 1 1 0-1z" transform="translate(0 -50)"/></g></g></svg>