<svg id="svg3" height="1600" viewBox="0 0 1600 1600" width="1600" xmlns="http://www.w3.org/2000/svg" xmlns:inkscape="http://www.inkscape.org/namespaces/inkscape" xmlns:sodipodi="http://sodipodi.sourceforge.net/DTD/sodipodi-0.dtd"><sodipodi:namedview pagecolor="#303030" showgrid="true"><inkscape:grid id="grid5" units="px" spacingx="100" spacingy="100" color="#4772b3" opacity="0.2" visible="true" /></sodipodi:namedview><g fill="#fff"><path id="path1" d="m366.5 389a.50005.50005 0 0 0 -.35352.14648l-3 3a.50005.50005 0 0 0 -.14648.35352v10a.50005.50005 0 0 0 .5.5h10a.50005.50005 0 0 0 .35352-.14648l3-3a.50005.50005 0 0 0 .14648-.35352v-10a.50005.50005 0 0 0 -.5-.5zm.20703 1h8.58008l-1.99414 2h-8.58594zm9.29297.70117v8.5918l-2 2v-8.58789zm-12 2.29883h9v9h-9z" transform="matrix(100 0 0 100 -36199.362 -38800.234)"/><path id="path2" d="m870.49219 220.99219a.50005.50005 0 0 0 -.49219.50781v9.79297l-2.85352 2.86133a.50005.50005 0 1 0 .70704.70508l2.85351-2.85938h9.79297a.50005.50005 0 1 0 0-1h-9.5v-9.5a.50005.50005 0 0 0 -.50781-.50781z" opacity=".5" transform="matrix(100 0 0 100 -86599.362 -22000.946)"/></g></svg>