<svg height="1600" viewBox="0 0 1600 1600" width="1600" xmlns="http://www.w3.org/2000/svg" xmlns:inkscape="http://www.inkscape.org/namespaces/inkscape" xmlns:sodipodi="http://sodipodi.sourceforge.net/DTD/sodipodi-0.dtd"><sodipodi:namedview pagecolor="#303030" showgrid="true"><inkscape:grid id="grid5" units="px" spacingx="100" spacingy="100" color="#4772b3" opacity="0.2" visible="true" /></sodipodi:namedview><g fill="#fff"><g enable-background="new" transform="matrix(100 0 0 100 -46800.017 -9400)"><path d="m352.97527 473.19666c-.49613-.0451-1.03862.15972-1.49219.61328l-.41128.47153c-.19519.19527-.19519.51177 0 .70704l3 3c.19527.19519.51177.19519.70704 0l.41128-.47153c.45356-.45357.65838-.99606.61328-1.49219s-.30436-.90592-.61328-1.21485l-1-1c-.30893-.30892-.71872-.56817-1.21485-.61328zm-3.39644 2.7168c-.12989.002-.25387.0546-.34571.14648l-6.22807 6.22726c-.0639.0642-.10909.14453-.13086.23243l-1 4c-.0904.36537.2401.69582.60547.60547l4-1c.0879-.0218.16823-.067.23243-.13086 0 0 6.17898-6.1737 6.22807-6.22726.19519-.19527.19519-.51177 0-.70704l-3-3c-.0957-.0957-.22605-.14856-.36137-.14648z" transform="matrix(.659143 0 0 .659143 248.471 -214.895)"/><path d="m469 101v7.5c0 .276.224.5.5.5h11c.30423 0 .5-.22782.5-.5v-4c0-.65459-1-.65682-1 0v3.5h-10v-7zm4.48081-6c-.151.004-.293.077-.384.197l-3.95 3.949c-.314.315-.091.854.354.854h4c.276 0 .5-.224.5-.5v-3.5h6.49919c.68512 0 .64092-1 0-1z" opacity=".6"/></g></g></svg>