<svg height="1600" viewBox="0 0 1600 1600" width="1600" xmlns="http://www.w3.org/2000/svg" xmlns:inkscape="http://www.inkscape.org/namespaces/inkscape" xmlns:sodipodi="http://sodipodi.sourceforge.net/DTD/sodipodi-0.dtd"><sodipodi:namedview pagecolor="#303030" showgrid="true"><inkscape:grid id="grid5" units="px" spacingx="100" spacingy="100" color="#4772b3" opacity="0.2" visible="true" /></sodipodi:namedview><g fill="#fff"><g enable-background="new" transform="translate(-233 -365)"><path d="m1028 1556c-3.2833 0-6 2.4414-6 5.5 0 1.7056.9046 3.146 2.1523 4.3594l.9942.9941a.50004997.50004997 0 0 0 .3027.1485.50004997.50004997 0 0 0 .051.998h5a.50004997.50004997 0 0 0 .045-.998.50004997.50004997 0 0 0 .3086-.1485l.9981-.998c1.2122-1.1985 2.1465-2.6518 2.1465-4.3535 0-3.0586-2.7167-5.5-6-5.5zm0 1c2.7919 0 5 2.0358 5 4.5 0 1.3342-.7428 2.5488-1.8516 3.6445l-1 1a.50004997.50004997 0 0 0 .2793.8535h-4.8594a.50004997.50004997 0 0 0 .2871-.8535l-1-1a.50004997.50004997 0 0 0 -.01-.01c-1.1397-1.1082-1.8477-2.2864-1.8477-3.6406 0-2.4642 2.2081-4.5 5-4.5zm-2.5 12a.50004997.50004997 0 1 0 0 1h1.5v.5a.50004997.50004997 0 0 0 .5.5h1a.50004997.50004997 0 0 0 .5-.5v-.5h1.5a.50004997.50004997 0 1 0 0-1z"/><path d="m1025.4902 1561.0059a.50005.50005 0 0 0 -.3437.8476l.8535.8535v1.543a.50005.50005 0 1 0 1 0v-1.25h2v1.25a.50005.50005 0 1 0 1 0v-1.543l.8535-.8535a.50005.50005 0 0 0 -.707-.707l-.8535.8535h-2.586l-.8535-.8535a.50005.50005 0 0 0 -.3633-.1406z" opacity=".6"/></g><g enable-background="new" transform="matrix(100 0 0 100 -46800.017 -9400)"><path d="m352.97527 473.19666c-.49613-.0451-1.03862.15972-1.49219.61328l-.41128.47153c-.19519.19527-.19519.51177 0 .70704l3 3c.19527.19519.51177.19519.70704 0l.41128-.47153c.45356-.45357.65838-.99606.61328-1.49219s-.30436-.90592-.61328-1.21485l-1-1c-.30893-.30892-.71872-.56817-1.21485-.61328zm-3.39644 2.7168c-.12989.002-.25387.0546-.34571.14648l-6.22807 6.22726c-.0639.0642-.10909.14453-.13086.23243l-1 4c-.0904.36537.2401.69582.60547.60547l4-1c.0879-.0218.16823-.067.23243-.13086 0 0 6.17898-6.1737 6.22807-6.22726.19519-.19527.19519-.51177 0-.70704l-3-3c-.0957-.0957-.22605-.14856-.36137-.14648z" transform="matrix(.659143 0 0 .659143 248.471 -214.895)"/><path d="m469 101v7.5c0 .276.224.5.5.5h11c.30423 0 .5-.22782.5-.5v-4c0-.65459-1-.65682-1 0v3.5h-10v-7zm4.48081-6c-.151.004-.293.077-.384.197l-3.95 3.949c-.314.315-.091.854.354.854h4c.276 0 .5-.224.5-.5v-3.5h6.49919c.68512 0 .64092-1 0-1z" opacity=".6"/></g></g></svg>