<svg height="1600" viewBox="0 0 1600 1600" width="1600" xmlns="http://www.w3.org/2000/svg" xmlns:inkscape="http://www.inkscape.org/namespaces/inkscape" xmlns:sodipodi="http://sodipodi.sourceforge.net/DTD/sodipodi-0.dtd"><sodipodi:namedview pagecolor="#303030" showgrid="true"><inkscape:grid id="grid5" units="px" spacingx="100" spacingy="100" color="#4772b3" opacity="0.2" visible="true" /></sodipodi:namedview><g fill="#fff"><path d="m52.942267 94.61165a.50005.50005 0 0 0 -.41797.20312c-2.41605 3.180716-3.44475 6.00321-3.85743 8.28711-.41267 2.2839-.21654 4.04989-.21875 5.00586a.50005.50005 0 1 0 1 .004c.002-1.08433-.18374-2.69094.20313-4.83203.38687-2.1411 1.341-4.795944 3.66797-7.85938a.50005.50005 0 0 0 -.37695-.80858zm4.95507 3.00195a.50005.50005 0 0 0 -.30468.12695c-4.12359 3.58504-5.17188 7.53635-5.17188 10.37695a.50005.50005 0 1 0 1 0c0-2.60021.91362-6.21978 4.82813-9.623044a.50005.50005 0 0 0 -.35157-.880856zm4.02539 5.0039c-3.01703-.006-5.49428 2.47075-5.50195 5.49805a.50005.50005 0 1 0 1 .004c.006-2.48438 2.03099-4.50726 4.5-4.50195a.50005.50005 0 1 0 .002-1z" transform="matrix(100 0 0 100 -4741.6139 -9361.802)"/></g></svg>