<svg height="1600" viewBox="0 0 1600 1600" width="1600" xmlns="http://www.w3.org/2000/svg" xmlns:inkscape="http://www.inkscape.org/namespaces/inkscape" xmlns:sodipodi="http://sodipodi.sourceforge.net/DTD/sodipodi-0.dtd"><sodipodi:namedview pagecolor="#303030" showgrid="true"><inkscape:grid id="grid5" units="px" spacingx="100" spacingy="100" color="#4772b3" opacity="0.2" visible="true" /></sodipodi:namedview><g fill="#fff"><g enable-background="new" transform="translate(-233 -365)"><path d="m1028 1556c-3.2833 0-6 2.4414-6 5.5 0 1.7056.9046 3.146 2.1523 4.3594l.9942.9941a.50004997.50004997 0 0 0 .3027.1485.50004997.50004997 0 0 0 .051.998h5a.50004997.50004997 0 0 0 .045-.998.50004997.50004997 0 0 0 .3086-.1485l.9981-.998c1.2122-1.1985 2.1465-2.6518 2.1465-4.3535 0-3.0586-2.7167-5.5-6-5.5zm0 1c2.7919 0 5 2.0358 5 4.5 0 1.3342-.7428 2.5488-1.8516 3.6445l-1 1a.50004997.50004997 0 0 0 .2793.8535h-4.8594a.50004997.50004997 0 0 0 .2871-.8535l-1-1a.50004997.50004997 0 0 0 -.01-.01c-1.1397-1.1082-1.8477-2.2864-1.8477-3.6406 0-2.4642 2.2081-4.5 5-4.5zm-2.5 12a.50004997.50004997 0 1 0 0 1h1.5v.5a.50004997.50004997 0 0 0 .5.5h1a.50004997.50004997 0 0 0 .5-.5v-.5h1.5a.50004997.50004997 0 1 0 0-1z"/><path d="m1025.4902 1561.0059a.50005.50005 0 0 0 -.3437.8476l.8535.8535v1.543a.50005.50005 0 1 0 1 0v-1.25h2v1.25a.50005.50005 0 1 0 1 0v-1.543l.8535-.8535a.50005.50005 0 0 0 -.707-.707l-.8535.8535h-2.586l-.8535-.8535a.50005.50005 0 0 0 -.3633-.1406z" opacity=".6"/></g><g enable-background="new" transform="matrix(100 0 0 100 -23599.992 -32499.414)"><path d="m250.05859 327.01172c-2.15963 0-4.15811 1.13935-5.24023 2.99219-1.08212 1.85283-1.08212 4.1413 0 5.99414s3.0806 2.99218 5.24023 2.99218l.43164.01a.50009544.50009544 0 1 0 .0195-1l-.44141-.01a.50004985.50004985 0 0 0 -.01 0c-1.80804 0-3.47523-.95213-4.37695-2.49609s-.90172-3.44041 0-4.98437c.90107-1.54285 2.56651-2.49668 4.37305-2.49805l.4375.004a.50004985.50004985 0 1 0 .008-1l-.4375-.004a.50004985.50004985 0 0 0 -.004 0z"/><path d="m237.49805 367.99414a.50005.50005 0 0 0 -.5.5v2a.50005.50005 0 0 0 .5.5h.50195v8h-.50195a.50005.50005 0 0 0 -.5.5v2a.50005.50005 0 0 0 .5.5h2a.50005.50005 0 0 0 .5-.5v-.49414h5.00195c.67616.01.67616-1.00956 0-1h-5.00195v-.50586a.50005.50005 0 0 0 -.5-.5h-.49805v-8h.49805a.50005.50005 0 0 0 .5-.5v-.49414h5.00195c.67616.01.67616-1.00956 0-1h-5.00195v-.50586a.50005.50005 0 0 0 -.5-.5zm.5 1h1v1h-1zm0 11h1v1h-1z" opacity=".6" transform="translate(.000002 -42)"/></g></g></svg>