<svg height="1500" viewBox="0 0 1600 1500" width="1600" xmlns="http://www.w3.org/2000/svg" xmlns:inkscape="http://www.inkscape.org/namespaces/inkscape" xmlns:sodipodi="http://sodipodi.sourceforge.net/DTD/sodipodi-0.dtd"><sodipodi:namedview pagecolor="#303030" showgrid="true"><inkscape:grid id="grid5" units="px" spacingx="100" spacingy="100" color="#4772b3" opacity="0.2" visible="true" /></sodipodi:namedview><g fill="#fff"><g enable-background="new" transform="matrix(100 0 0 100 -21500.2928 -36699.707)"><path d="m222.49805 369.99414c-.27613.00003-.49997.22387-.5.5l.002.60742c-2.27831.46511-4 2.48538-4 4.89844 0 2.75551 2.24464 5 5 5s5-2.24449 5-5c0-2.41306-1.72169-4.43333-4-4.89844l-.002-.60742c-.00003-.27613-.22387-.49997-.5-.5zm.50195 2.00586c2.21488 0 4 1.78488 4 4s-1.78512 4-4 4-4-1.78488-4-4 1.78512-4 4-4z"/><path d="m216.49805 367.99414a.50005.50005 0 0 0 -.5.5v2a.50005.50005 0 0 0 .5.5h2a.50005.50005 0 0 0 .5-.5v-.49414h1.50195c.67616.01.67616-1.00956 0-1h-1.50195v-.50586a.50005.50005 0 0 0 -.5-.5zm11.00976 0a.50005.50005 0 0 0 -.5.5v.50586h-1.5039c-.67616-.01-.67616 1.00956 0 1h1.5039v.49414a.50005.50005 0 0 0 .5.5h2a.50005.50005 0 0 0 .5-.5v-2a.50005.50005 0 0 0 -.5-.5zm-10.50976 1h1v1h-1zm11.00976 0h1v1h-1z" opacity=".6"/></g></g></svg>