<svg height="1600" viewBox="0 0 1600 1600" width="1600" xmlns="http://www.w3.org/2000/svg" xmlns:inkscape="http://www.inkscape.org/namespaces/inkscape" xmlns:sodipodi="http://sodipodi.sourceforge.net/DTD/sodipodi-0.dtd"><sodipodi:namedview pagecolor="#303030" showgrid="true"><inkscape:grid id="grid5" units="px" spacingx="100" spacingy="100" color="#4772b3" opacity="0.2" visible="true" /></sodipodi:namedview><g fill="#fff"><g enable-background="new" transform="matrix(100 0 0 100 -23599.992 -32499.414)"><path d="m250.05859 327.01172c-2.15963 0-4.15811 1.13935-5.24023 2.99219-1.08212 1.85283-1.08212 4.1413 0 5.99414s3.0806 2.99218 5.24023 2.99218l.43164.01a.50009544.50009544 0 1 0 .0195-1l-.44141-.01a.50004985.50004985 0 0 0 -.01 0c-1.80804 0-3.47523-.95213-4.37695-2.49609s-.90172-3.44041 0-4.98437c.90107-1.54285 2.56651-2.49668 4.37305-2.49805l.4375.004a.50004985.50004985 0 1 0 .008-1l-.4375-.004a.50004985.50004985 0 0 0 -.004 0z"/><path d="m237.49805 367.99414a.50005.50005 0 0 0 -.5.5v2a.50005.50005 0 0 0 .5.5h.50195v8h-.50195a.50005.50005 0 0 0 -.5.5v2a.50005.50005 0 0 0 .5.5h2a.50005.50005 0 0 0 .5-.5v-.49414h5.00195c.67616.01.67616-1.00956 0-1h-5.00195v-.50586a.50005.50005 0 0 0 -.5-.5h-.49805v-8h.49805a.50005.50005 0 0 0 .5-.5v-.49414h5.00195c.67616.01.67616-1.00956 0-1h-5.00195v-.50586a.50005.50005 0 0 0 -.5-.5zm.5 1h1v1h-1zm0 11h1v1h-1z" opacity=".6" transform="translate(.000002 -42)"/></g></g></svg>