<svg height="1600" viewBox="0 0 1600 1600" width="1600" xmlns="http://www.w3.org/2000/svg" xmlns:inkscape="http://www.inkscape.org/namespaces/inkscape" xmlns:sodipodi="http://sodipodi.sourceforge.net/DTD/sodipodi-0.dtd"><sodipodi:namedview pagecolor="#303030" showgrid="true"><inkscape:grid id="grid5" units="px" spacingx="100" spacingy="100" color="#4772b3" opacity="0.2" visible="true" /></sodipodi:namedview><g fill="#fff"><path d="m115.5 494a.50005.50005 0 0 0 -.5.5v3a.50005.50005 0 0 0 .5.5h3a.50005.50005 0 0 0 .5-.5v-1.5h.5c1.29307 0 2.42587.35206 3.21875 1.00977.79288.6577 1.28125 1.61429 1.28125 2.99023 0 1.58333-.78109 3.05511-2.24023 4.16406-1.45915 1.10895-3.60068 1.83594-6.25977 1.83594h-.5v-1.5a.50005.50005 0 0 0 -.5-.5h-3a.50005.50005 0 0 0 -.5.5v3a.50005.50005 0 0 0 .5.5h3a.50005.50005 0 0 0 .5-.5v-.5h.5c2.84091 0 5.19938-.77301 6.86523-2.03906 1.66586-1.26605 2.63477-3.04427 2.63477-4.96094 0-1.62406-.62718-2.91747-1.64258-3.75977-1.0154-.84229-2.38364-1.24023-3.85742-1.24023h-.5v-.5a.50005.50005 0 0 0 -.5-.5zm.5 1h2v2h-2zm-4 10h2v2h-2z" fill-rule="evenodd" transform="matrix(100 0 0 100 -11000 -49300)"/></g></svg>