<svg height="1600" viewBox="0 0 1600 1600" width="1600" xmlns="http://www.w3.org/2000/svg" xmlns:inkscape="http://www.inkscape.org/namespaces/inkscape" xmlns:sodipodi="http://sodipodi.sourceforge.net/DTD/sodipodi-0.dtd"><sodipodi:namedview pagecolor="#303030" showgrid="true"><inkscape:grid id="grid5" units="px" spacingx="100" spacingy="100" color="#4772b3" opacity="0.2" visible="true" /></sodipodi:namedview><g fill="#fff"><g enable-background="new" transform="matrix(100 0 0 100 -27799.844 -36700.15110000001)"><path d="m292.49023 367.99609a.50005.50005 0 0 0 -.34375.15039l-10 10a.50005.50005 0 1 0 .70704.70704l10-10a.50005.50005 0 0 0 -.36329-.85743z"/><path d="m289.5 368a.50005.50005 0 1 0 0 1h2.5v2.5a.50005.50005 0 1 0 1 0v-3a.50005.50005 0 0 0 -.5-.5zm-5 5a.50005.50005 0 1 0 0 1h2.5v2.5a.50005.50005 0 1 0 1 0v-3a.50005.50005 0 0 0 -.5-.5zm-5 5a.50005.50005 0 1 0 0 1h2.5v2.5a.50005.50005 0 1 0 1 0v-3a.50005.50005 0 0 0 -.5-.5z" opacity=".7"/></g></g></svg>