<svg height="1600" viewBox="0 0 1600 1600" width="1600" xmlns="http://www.w3.org/2000/svg" xmlns:inkscape="http://www.inkscape.org/namespaces/inkscape" xmlns:sodipodi="http://sodipodi.sourceforge.net/DTD/sodipodi-0.dtd"><sodipodi:namedview pagecolor="#303030" showgrid="true"><inkscape:grid id="grid5" units="px" spacingx="100" spacingy="100" color="#4772b3" opacity="0.2" visible="true" /></sodipodi:namedview><g fill="#fff"><path d="m94.513672 32a.50005.50005 0 0 0 -.417969.203125c-2.416051 3.180716-3.444751 6.003207-3.857422 8.287109-.412671 2.283903-.216543 4.049887-.21875 5.00586a.50005.50005 0 1 0 1 .0039c.0025-1.084327-.183742-2.690936.203125-4.832031.386868-2.141095 1.341004-4.795942 3.667969-7.859375a.50005.50005 0 0 0 -.376953-.808588zm4.955078 3.001953a.50005.50005 0 0 0 -.304688.126953c-4.123582 3.585034-5.171874 7.536346-5.171874 10.376953a.50005.50005 0 1 0 1 0c0-2.600212.913619-6.219783 4.828124-9.623047a.50005.50005 0 0 0 -.351562-.880859zm4.02539 5.003906c-3.01703-.0065-5.494281 2.470749-5.501952 5.498047a.50005.50005 0 1 0 1 .0039c.0063-2.484383 2.030992-4.507263 4.500002-4.501953a.50005.50005 0 1 0 .002-1z" transform="matrix(100 0 0 100 -8898.7552 -3100.637)"/></g></svg>