<svg height="1600" viewBox="0 0 1600 1600" width="1600" xmlns="http://www.w3.org/2000/svg" xmlns:inkscape="http://www.inkscape.org/namespaces/inkscape" xmlns:sodipodi="http://sodipodi.sourceforge.net/DTD/sodipodi-0.dtd"><sodipodi:namedview pagecolor="#303030" showgrid="true"><inkscape:grid id="grid5" units="px" spacingx="100" spacingy="100" color="#4772b3" opacity="0.2" visible="true" /></sodipodi:namedview><g fill="#fff"><g enable-background="new" transform="translate(-233 -365)"><path d="m1028 1556c-3.2833 0-6 2.4414-6 5.5 0 1.7056.9046 3.146 2.1523 4.3594l.9942.9941a.50004997.50004997 0 0 0 .3027.1485.50004997.50004997 0 0 0 .051.998h5a.50004997.50004997 0 0 0 .045-.998.50004997.50004997 0 0 0 .3086-.1485l.9981-.998c1.2122-1.1985 2.1465-2.6518 2.1465-4.3535 0-3.0586-2.7167-5.5-6-5.5zm0 1c2.7919 0 5 2.0358 5 4.5 0 1.3342-.7428 2.5488-1.8516 3.6445l-1 1a.50004997.50004997 0 0 0 .2793.8535h-4.8594a.50004997.50004997 0 0 0 .2871-.8535l-1-1a.50004997.50004997 0 0 0 -.01-.01c-1.1397-1.1082-1.8477-2.2864-1.8477-3.6406 0-2.4642 2.2081-4.5 5-4.5zm-2.5 12a.50004997.50004997 0 1 0 0 1h1.5v.5a.50004997.50004997 0 0 0 .5.5h1a.50004997.50004997 0 0 0 .5-.5v-.5h1.5a.50004997.50004997 0 1 0 0-1z"/><path d="m1025.4902 1561.0059a.50005.50005 0 0 0 -.3437.8476l.8535.8535v1.543a.50005.50005 0 1 0 1 0v-1.25h2v1.25a.50005.50005 0 1 0 1 0v-1.543l.8535-.8535a.50005.50005 0 0 0 -.707-.707l-.8535.8535h-2.586l-.8535-.8535a.50005.50005 0 0 0 -.3633-.1406z" opacity=".6"/></g><path d="m94.513672 32a.50005.50005 0 0 0 -.417969.203125c-2.416051 3.180716-3.444751 6.003207-3.857422 8.287109-.412671 2.283903-.216543 4.049887-.21875 5.00586a.50005.50005 0 1 0 1 .0039c.0025-1.084327-.183742-2.690936.203125-4.832031.386868-2.141095 1.341004-4.795942 3.667969-7.859375a.50005.50005 0 0 0 -.376953-.808588zm4.955078 3.001953a.50005.50005 0 0 0 -.304688.126953c-4.123582 3.585034-5.171874 7.536346-5.171874 10.376953a.50005.50005 0 1 0 1 0c0-2.600212.913619-6.219783 4.828124-9.623047a.50005.50005 0 0 0 -.351562-.880859zm4.02539 5.003906c-3.01703-.0065-5.494281 2.470749-5.501952 5.498047a.50005.50005 0 1 0 1 .0039c.0063-2.484383 2.030992-4.507263 4.500002-4.501953a.50005.50005 0 1 0 .002-1z" transform="matrix(100 0 0 100 -8898.7552 -3100.637)"/></g></svg>