<svg height="1600" viewBox="0 0 1600 1600" width="1600" xmlns="http://www.w3.org/2000/svg" xmlns:inkscape="http://www.inkscape.org/namespaces/inkscape" xmlns:sodipodi="http://sodipodi.sourceforge.net/DTD/sodipodi-0.dtd"><sodipodi:namedview pagecolor="#303030" showgrid="true"><inkscape:grid id="grid5" units="px" spacingx="100" spacingy="100" color="#4772b3" opacity="0.2" visible="true" /></sodipodi:namedview><g fill="#fff"><g enable-background="new" transform="translate(-233 -365)"><path d="m1028 1556c-3.2833 0-6 2.4414-6 5.5 0 1.7056.9046 3.146 2.1523 4.3594l.9942.9941a.50004997.50004997 0 0 0 .3027.1485.50004997.50004997 0 0 0 .051.998h5a.50004997.50004997 0 0 0 .045-.998.50004997.50004997 0 0 0 .3086-.1485l.9981-.998c1.2122-1.1985 2.1465-2.6518 2.1465-4.3535 0-3.0586-2.7167-5.5-6-5.5zm0 1c2.7919 0 5 2.0358 5 4.5 0 1.3342-.7428 2.5488-1.8516 3.6445l-1 1a.50004997.50004997 0 0 0 .2793.8535h-4.8594a.50004997.50004997 0 0 0 .2871-.8535l-1-1a.50004997.50004997 0 0 0 -.01-.01c-1.1397-1.1082-1.8477-2.2864-1.8477-3.6406 0-2.4642 2.2081-4.5 5-4.5zm-2.5 12a.50004997.50004997 0 1 0 0 1h1.5v.5a.50004997.50004997 0 0 0 .5.5h1a.50004997.50004997 0 0 0 .5-.5v-.5h1.5a.50004997.50004997 0 1 0 0-1z"/><path d="m1025.4902 1561.0059a.50005.50005 0 0 0 -.3437.8476l.8535.8535v1.543a.50005.50005 0 1 0 1 0v-1.25h2v1.25a.50005.50005 0 1 0 1 0v-1.543l.8535-.8535a.50005.50005 0 0 0 -.707-.707l-.8535.8535h-2.586l-.8535-.8535a.50005.50005 0 0 0 -.3633-.1406z" opacity=".6"/></g><path d="m52.942267 94.61165a.50005.50005 0 0 0 -.41797.20312c-2.41605 3.180716-3.44475 6.00321-3.85743 8.28711-.41267 2.2839-.21654 4.04989-.21875 5.00586a.50005.50005 0 1 0 1 .004c.002-1.08433-.18374-2.69094.20313-4.83203.38687-2.1411 1.341-4.795944 3.66797-7.85938a.50005.50005 0 0 0 -.37695-.80858zm4.95507 3.00195a.50005.50005 0 0 0 -.30468.12695c-4.12359 3.58504-5.17188 7.53635-5.17188 10.37695a.50005.50005 0 1 0 1 0c0-2.60021.91362-6.21978 4.82813-9.623044a.50005.50005 0 0 0 -.35157-.880856zm4.02539 5.0039c-3.01703-.006-5.49428 2.47075-5.50195 5.49805a.50005.50005 0 1 0 1 .004c.006-2.48438 2.03099-4.50726 4.5-4.50195a.50005.50005 0 1 0 .002-1z" transform="matrix(100 0 0 100 -4741.6139 -9361.802)"/></g></svg>