<svg height="1500" viewBox="0 0 1600 1500" width="1600" xmlns="http://www.w3.org/2000/svg" xmlns:inkscape="http://www.inkscape.org/namespaces/inkscape" xmlns:sodipodi="http://sodipodi.sourceforge.net/DTD/sodipodi-0.dtd"><sodipodi:namedview pagecolor="#303030" showgrid="true"><inkscape:grid id="grid5" units="px" spacingx="100" spacingy="100" color="#4772b3" opacity="0.2" visible="true" /></sodipodi:namedview><g fill="#fff"><g enable-background="new" transform="matrix(100 0 0 100 -19399.8048 -36697.944)"><path d="m201.49805 368.99414a.50005.50005 0 0 0 -.5.5v1a.50005.50005 0 0 0 .5.5h.7207c1.46262 2.39797 2.78125 4.0462 2.78125 6.00586 0 1.45833-.66274 2.34651-1.76562 2.75-1.1029.40349-2.7161.26002-4.5-.69141a.50005.50005 0 1 0 -.46876.88282c1.9661 1.04857 3.8529 1.2801 5.3125.74609 1.45963-.53401 2.42188-1.89583 2.42188-3.6875 0-2.43412-1.54431-4.24525-3.00195-6.65039v-.85547a.50005.50005 0 0 0 -.5-.5z"/><path d="m195.49805 367.99414a.50005.50005 0 0 0 -.5.5v2a.50005.50005 0 0 0 .5.5h2a.50005.50005 0 0 0 .5-.5v-.49414h1.50195c.67616.01.67616-1.00956 0-1h-1.50195v-.50586a.50005.50005 0 0 0 -.5-.5zm11 0a.50005.50005 0 0 0 -.5.5v.50586h-1.49805c-.67616-.01-.67616 1.00956 0 1h1.49805v.49414a.50005.50005 0 0 0 .5.5h2a.50005.50005 0 0 0 .5-.5v-2a.50005.50005 0 0 0 -.5-.5zm-10.5 1h1v1h-1zm11 0h1v1h-1z" opacity=".6"/></g></g></svg>