<svg height="1400" viewBox="0 0 1400 1400" width="1400" xmlns="http://www.w3.org/2000/svg" xmlns:inkscape="http://www.inkscape.org/namespaces/inkscape" xmlns:sodipodi="http://sodipodi.sourceforge.net/DTD/sodipodi-0.dtd"><sodipodi:namedview pagecolor="#303030" showgrid="true"><inkscape:grid id="grid5" units="px" spacingx="100" spacingy="100" color="#4772b3" opacity="0.2" visible="true" /></sodipodi:namedview><g fill="#fff"><path d="m309.83203 496c-.79167 0-1.54903.39305-1.86328 1.11133-.31425.71827-.0786 1.6538.75977 2.49219l2.5 2.5c.66161.66161.67598 1.10108.55273 1.38281-.12325.28172-.49089.51367-.94922.51367l-7.28515-.008 2.13867-2.13867a.50005.50005 0 1 0 -.70703-.70704l-2.9336 2.93555-.01.008a.50005.50005 0 0 0 -.20704.41602.50005.50005 0 0 0 0 .008.50005.50005 0 0 0 .004.0469.50005.50005 0 0 0 .008.0488.50005.50005 0 0 0 .19336.29882l2.94532 2.94532a.50005.50005 0 1 0 .70703-.70704l-2.1543-2.15429 7.30078.008c.79167 0 1.55099-.39305 1.86524-1.11133.31424-.71827.0767-1.6538-.76172-2.49219l-2.5-2.5c-.66161-.66161-.67404-1.10108-.55078-1.38281.12321-.28209.48889-.51404.94722-.51404h3.5a.50005.50005 0 1 0 0-1z" transform="matrix(-100 0 0 100 31483.346 -49500.3639)"/></g></svg>