<svg height="1500" viewBox="0 0 1500 1500" width="1500" xmlns="http://www.w3.org/2000/svg" xmlns:inkscape="http://www.inkscape.org/namespaces/inkscape" xmlns:sodipodi="http://sodipodi.sourceforge.net/DTD/sodipodi-0.dtd"><sodipodi:namedview pagecolor="#303030" showgrid="true"><inkscape:grid id="grid5" units="px" spacingx="100" spacingy="100" color="#4772b3" opacity="0.2" visible="true" /></sodipodi:namedview><g fill="#fff"><path d="m310.26367 452.0293c-.67255-.0123-1.33821.3-1.8789.8789l-.23829.23828a.50004997.50004997 0 0 0 -.084.10938.50004997.50004997 0 0 0 -.0879.0723l-1.26563 1.25196c-.23797.23547-.44036.48356-.58984.75781a.50004997.50004997 0 1 0 .87695.47852c.0885-.16243.22753-.33889.41602-.52539l1.26562-1.25391a.50004997.50004997 0 0 0 .0899-.11523.50004997.50004997 0 0 0 .002-.002.50004997.50004997 0 0 0 .084-.0664l.25-.25a.50004997.50004997 0 0 0 .0117-.0117c.39332-.4211.76594-.57109 1.12891-.56446.36298.007.75841.18208 1.15234.57618.39504.3952.56757.78617.57422 1.14648.007.36031-.14053.73397-.56445 1.13672l-.26758.2539a.50004997.50004997 0 0 0 -.0957.12305.50004997.50004997 0 0 0 -.0859.0684l-1.25 1.25a.50004997.50004997 0 0 0 -.0137.0117c-.16233.1738-.32346.30196-.48047.39063a.50026213.50026213 0 1 0 .49219.87109c.25644-.14482.49753-.33919.7207-.57813l1.23828-1.23828a.50004997.50004997 0 0 0 .0859-.11133.50004997.50004997 0 0 0 .0781-.0625l.26563-.25195c.57608-.54732.88934-1.2117.87695-1.88281-.0124-.67111-.33835-1.30493-.86718-1.83399-.52994-.53015-1.16729-.85488-1.83985-.86718zm-1.77344 3.96679a.50004997.50004997 0 0 0 -.34375.15039l-4.01367 4.01563a.50004997.50004997 0 1 0 .70703.70703l4.01368-4.01562a.50004997.50004997 0 0 0 -.36329-.85743zm-4.94921 2.1836a.50004997.50004997 0 0 0 -.22852.0469c-.33394.14944-.64532.37928-.92773.68164l-1.23829 1.23828a.50004997.50004997 0 0 0 -.0547.0645l-.18555.17578c-.57608.54731-.88934 1.2117-.87695 1.88281.0124.67111.33835 1.30494.86718 1.83399.52994.53016 1.16729.85489 1.83985.86718.67255.0123 1.33821-.3 1.8789-.8789l.23829-.23828a.50004997.50004997 0 0 0 .0605-.0723.50004997.50004997 0 0 0 .004-.004l1.18359-1.17187c.27971-.27677.50962-.57119.66211-.9043a.50004997.50004997 0 1 0 -.9082-.41601c-.0851.18591-.2355.39018-.45703.60937l-1.26563 1.25391a.50004997.50004997 0 0 0 -.0664.0762.50004997.50004997 0 0 0 -.004.006l-.16602.16601a.50004997.50004997 0 0 0 -.0117.0117c-.39332.4211-.76594.57109-1.12891.56446-.36298-.007-.75841-.18208-1.15234-.57618-.39505-.3952-.56758-.78617-.57422-1.14648-.007-.36031.14053-.73396.56445-1.13672l.26758-.2539a.50004997.50004997 0 0 0 .0742-.0879l1.16797-1.16796a.50004997.50004997 0 0 0 .0117-.0117c.20545-.21996.40997-.36564.60547-.45313a.50004997.50004997 0 0 0 -.17968-.95898z" transform="matrix(100 0 0 100 -29900 -45100.0035)"/></g></svg>