<svg height="1400" viewBox="0 0 1400 1400" width="1400" xmlns="http://www.w3.org/2000/svg" xmlns:inkscape="http://www.inkscape.org/namespaces/inkscape" xmlns:sodipodi="http://sodipodi.sourceforge.net/DTD/sodipodi-0.dtd"><sodipodi:namedview pagecolor="#303030" showgrid="true"><inkscape:grid id="grid5" units="px" spacingx="100" spacingy="100" color="#4772b3" opacity="0.2" visible="true" /></sodipodi:namedview><g fill="#fff"><g enable-background="new" transform="translate(-233 -365)"><path d="m1028 1556c-3.2833 0-6 2.4414-6 5.5 0 1.7056.9046 3.146 2.1523 4.3594l.9942.9941a.50004997.50004997 0 0 0 .3027.1485.50004997.50004997 0 0 0 .051.998h5a.50004997.50004997 0 0 0 .045-.998.50004997.50004997 0 0 0 .3086-.1485l.9981-.998c1.2122-1.1985 2.1465-2.6518 2.1465-4.3535 0-3.0586-2.7167-5.5-6-5.5zm0 1c2.7919 0 5 2.0358 5 4.5 0 1.3342-.7428 2.5488-1.8516 3.6445l-1 1a.50004997.50004997 0 0 0 .2793.8535h-4.8594a.50004997.50004997 0 0 0 .2871-.8535l-1-1a.50004997.50004997 0 0 0 -.01-.01c-1.1397-1.1082-1.8477-2.2864-1.8477-3.6406 0-2.4642 2.2081-4.5 5-4.5zm-2.5 12a.50004997.50004997 0 1 0 0 1h1.5v.5a.50004997.50004997 0 0 0 .5.5h1a.50004997.50004997 0 0 0 .5-.5v-.5h1.5a.50004997.50004997 0 1 0 0-1z"/><path d="m1025.4902 1561.0059a.50005.50005 0 0 0 -.3437.8476l.8535.8535v1.543a.50005.50005 0 1 0 1 0v-1.25h2v1.25a.50005.50005 0 1 0 1 0v-1.543l.8535-.8535a.50005.50005 0 0 0 -.707-.707l-.8535.8535h-2.586l-.8535-.8535a.50005.50005 0 0 0 -.3633-.1406z" opacity=".6"/></g><path d="m309.83203 496c-.79167 0-1.54903.39305-1.86328 1.11133-.31425.71827-.0786 1.6538.75977 2.49219l2.5 2.5c.66161.66161.67598 1.10108.55273 1.38281-.12325.28172-.49089.51367-.94922.51367l-7.28515-.008 2.13867-2.13867a.50005.50005 0 1 0 -.70703-.70704l-2.9336 2.93555-.01.008a.50005.50005 0 0 0 -.20704.41602.50005.50005 0 0 0 0 .008.50005.50005 0 0 0 .004.0469.50005.50005 0 0 0 .008.0488.50005.50005 0 0 0 .19336.29882l2.94532 2.94532a.50005.50005 0 1 0 .70703-.70704l-2.1543-2.15429 7.30078.008c.79167 0 1.55099-.39305 1.86524-1.11133.31424-.71827.0767-1.6538-.76172-2.49219l-2.5-2.5c-.66161-.66161-.67404-1.10108-.55078-1.38281.12321-.28209.48889-.51404.94722-.51404h3.5a.50005.50005 0 1 0 0-1z" transform="matrix(-100 0 0 100 31483.346 -49500.3639)"/></g></svg>