<svg height="1500" viewBox="0 0 1500 1500" width="1500" xmlns="http://www.w3.org/2000/svg" xmlns:inkscape="http://www.inkscape.org/namespaces/inkscape" xmlns:sodipodi="http://sodipodi.sourceforge.net/DTD/sodipodi-0.dtd"><sodipodi:namedview pagecolor="#303030" showgrid="true"><inkscape:grid id="grid5" units="px" spacingx="100" spacingy="100" color="#4772b3" opacity="0.2" visible="true" /></sodipodi:namedview><g fill="#fff"><g enable-background="new" transform="matrix(100 0 0 100 -66600.67199999999 -46301.5622)"><path d="m480.06836 304.9375c-.78863-.0147-1.5648.35582-2.23633 1.02734l-1.47851 1.47852a.59132004.59132004 0 1 0 .83593.83594l1.47852-1.47852c.51101-.511.96056-.68742 1.37695-.67969.41639.008.86317.20868 1.33399.67969.4709.4711.67191.91763.67968 1.33399.008.41635-.16868.86595-.67968 1.37695l-1.47852 1.47851a.59132004.59132004 0 1 0 .83594.83594l1.47851-1.47851c.67153-.67153 1.04012-1.44777 1.02539-2.23633-.0147-.78856-.40379-1.52464-1.02539-2.14649-.62168-.62194-1.35785-1.01269-2.14648-1.02734zm-.94336 3.50977a.59132004.59132004 0 0 0 -.40625.17773l-1.47852 1.47852a.59132004.59132004 0 1 0 .83594.83593l1.47852-1.47851a.59132004.59132004 0 0 0 -.42969-1.01367zm-8.27344 4.72851a.59132004.59132004 0 0 0 -.4082.17774l-1.51367 1.49218a.59132004.59132004 0 0 0 -.008.006c-.65272.66501-1.01668 1.4358-1.00782 2.22266.009.78686.38697 1.53124 1.01172 2.15625.62485.62507 1.3751 1.00952 2.16992 1.01953.79483.01 1.57721-.36041 2.25-1.0332l1.47852-1.47657a.59178867.59178867 0 1 0 -.83594-.83789l-1.47851 1.47852c-.50973.50972-.97241.69289-1.40039.6875-.42799-.005-.87805-.206-1.34571-.67383-.46775-.46794-.66322-.91244-.66797-1.33398-.005-.42154.17763-.8773.67188-1.38086l1.50586-1.48438a.59132004.59132004 0 0 0 -.42188-1.01953zm2.65625.88867a.59132004.59132004 0 0 0 -.40625.17774l-1.47851 1.47851a.59132004.59132004 0 1 0 .83593.83594l1.47852-1.47852a.59132004.59132004 0 0 0 -.42969-1.01367z" opacity=".7" transform="matrix(.84565 0 0 .84565 271.318 206.157)"/><path d="m668.49414 464.99414a.50005.50005 0 0 0 -.34766.85938l10.14649 10.14648h-3.04297a.50005.50005 0 1 0 0 1h4.18945a.50005.50005 0 0 0 .56055-.56055v-4.18945a.50005.50005 0 1 0 -1 0v3.04297l-10.14648-10.14649a.50005.50005 0 0 0 -.35938-.15234z"/></g></g></svg>