<svg height="1300" viewBox="0 0 1400 1300" width="1400" xmlns="http://www.w3.org/2000/svg" xmlns:inkscape="http://www.inkscape.org/namespaces/inkscape" xmlns:sodipodi="http://sodipodi.sourceforge.net/DTD/sodipodi-0.dtd"><sodipodi:namedview pagecolor="#303030" showgrid="true"><inkscape:grid id="grid5" units="px" spacingx="100" spacingy="100" color="#4772b3" opacity="0.2" visible="true" /></sodipodi:namedview><g fill="#fff"><path d="m393.99219 462.28516-2.13867-2.13868c-.318-.32528-.86991-.0915-.85743.36329.004.12976.0575.25303.15039.34375l2.93555 2.93359.008.01c.0962.13317.25175.21055.41602.20703.003.00002.005.00002.008 0 .0157-.0006.0313-.002.0469-.004.0164-.002.0327-.005.0488-.008.11995-.0256.2263-.0944.29882-.19336l2.94532-2.94531c.49057-.47126-.23578-1.19761-.70704-.70704l-2.15429 2.1543.00744-4.80073c0-2.47936-2.02064-4.5-4.5-4.5s-4.5 2.02064-4.5 4.5v6c-.01.67616 1.00956.67616 1 0v-6c0-1.93892 1.56108-3.5 3.5-3.5 1.93826 0 3.49893 1.56005 3.5 3.49902z" transform="matrix(100 0 0 100 -38500.858 -45200.35599999999)"/></g></svg>