<svg height="1300" viewBox="0 0 1100 1300" width="1100" xmlns="http://www.w3.org/2000/svg" xmlns:inkscape="http://www.inkscape.org/namespaces/inkscape" xmlns:sodipodi="http://sodipodi.sourceforge.net/DTD/sodipodi-0.dtd"><sodipodi:namedview pagecolor="#303030" showgrid="true"><inkscape:grid id="grid5" units="px" spacingx="100" spacingy="100" color="#4772b3" opacity="0.2" visible="true" /></sodipodi:namedview><g fill="#fff"><path d="m-179.5 453c-1.92707 0-3.5 1.57293-3.5 3.5v1.5h-.5c-.27613.00003-.49997.22387-.5.5v5c.00003.27613.22387.49997.5.5h8c.27613-.00003.49997-.22387.5-.5v-5c-.00003-.27613-.22387-.49997-.5-.5h-.5v-1.5c0-1.92707-1.57293-3.5-3.5-3.5zm0 1c1.38663 0 2.5 1.11337 2.5 2.5v1.5h-5v-1.5c0-1.38663 1.11337-2.5 2.5-2.5zm-.5 6h1v1 1h-1v-1z" transform="matrix(100 0 0 100 18500.00000000001 -45199.99999999999)"/></g></svg>