<svg id="svg1" height="1500" viewBox="0 0 1100 1500" width="1100" xmlns="http://www.w3.org/2000/svg" xmlns:inkscape="http://www.inkscape.org/namespaces/inkscape" xmlns:sodipodi="http://sodipodi.sourceforge.net/DTD/sodipodi-0.dtd"><sodipodi:namedview pagecolor="#303030" showgrid="true"><inkscape:grid id="grid5" units="px" spacingx="100" spacingy="100" color="#4772b3" opacity="0.2" visible="true" /></sodipodi:namedview><g id="g1" fill="#fff" transform="translate(0 99.899153)"><path id="path1" d="m550 200.10085c-192.707 0-350 157.293-350 350v150h-50c-27.613.003-49.997 22.387-50 50v499.99995c.003 27.613 22.387 49.997 50 50h800c27.613 0 49.997-22.387 50-50v-499.99995c-.003-27.613-22.387-49.997-50-50h-50v-150c0-192.707-157.293-350-350-350zm0 100c138.663 0 250 111.337 250 250v150h-500v-150c0-138.663 111.337-250 250-250zm-50 600h100v99.99995 100h-100v-100z" fill="#fff" stroke-width="100"/></g></svg>