<svg height="1300" viewBox="0 0 1300 1300" width="1300" xmlns="http://www.w3.org/2000/svg" xmlns:inkscape="http://www.inkscape.org/namespaces/inkscape" xmlns:sodipodi="http://sodipodi.sourceforge.net/DTD/sodipodi-0.dtd"><sodipodi:namedview pagecolor="#303030" showgrid="true"><inkscape:grid id="grid5" units="px" spacingx="100" spacingy="100" color="#4772b3" opacity="0.2" visible="true" /></sodipodi:namedview><g fill="#fff"><path d="m264.49219 453.00195a.50005.50005 0 0 0 -.34571.14649l-5 4.99804a.50005.50005 0 0 0 0 .70704l5 5a.50005.50005 0 0 0 .70508 0l4.99219-4.97852a.50005.50005 0 0 0 .002-.70703l-4.99218-5.01953a.50005.50005 0 0 0 -.36133-.14649zm.006 1.20703 4.28711 4.31055-4.2853 4.27344-4.29297-4.29297z" transform="matrix(100 0 0 100 -25799.561 -45200.0414)"/></g></svg>