<svg height="1500" viewBox="0 0 1600 1500" width="1600" xmlns="http://www.w3.org/2000/svg" xmlns:inkscape="http://www.inkscape.org/namespaces/inkscape" xmlns:sodipodi="http://sodipodi.sourceforge.net/DTD/sodipodi-0.dtd"><sodipodi:namedview pagecolor="#303030" showgrid="true"><inkscape:grid id="grid5" units="px" spacingx="100" spacingy="100" color="#4772b3" opacity="0.2" visible="true" /></sodipodi:namedview><g fill="#fff"><g enable-background="new" transform="matrix(100 0 0 100 -48799.99999999999 -3199.999)"><path d="m498 37.5c-.00003.276131-.22387.499972-.5.5h-2c-.27613-.000028-.49997-.223869-.5-.5v-2c.00003-.276131.22387-.499972.5-.5h2c.27613.000028.49997.223869.5.5z" opacity=".65"/><path d="m489.5 45c-.0335.000559-.0669.0045-.0996.01172-.0322.0073-.0636.01777-.0937.03125-.0309.01328-.0603.02964-.0879.04883-.0136.0098-.0266.02019-.0391.03125-.0129.01044-.0253.02152-.0371.0332-.011.01249-.0215.02553-.0312.03906-.0104.01317-.0202.02686-.0293.04102-.009.01393-.0163.02827-.0234.04297-.007.01528-.0138.03093-.0195.04687-.006.01536-.0112.031-.0156.04687-.004.0161-.007.0324-.01.04883-.008.04974-.009.100447-.002.150391.003.01643.006.03273.01.04883.004.01587.01.03151.0156.04687.005.01591.011.03155.0176.04687.007.0147.0149.02904.0234.04297.009.01482.0188.02916.0293.04297.0197.02621.0419.05042.0664.07227.0754.0673.16932.110201.26953.123047.0188.0024.0377.0037.0566.0039h13c.0335-.000559.0669-.0045.0996-.01172.0159-.0038.0315-.0084.0469-.01367.0159-.0051.0316-.01094.0469-.01758.0153-.0064.0303-.01358.0449-.02148.0292-.01672.0567-.03635.082-.05859.0129-.01044.0253-.02152.0371-.0332.011-.01249.0215-.02553.0312-.03906.0305-.03975.0549-.08386.0723-.13086.006-.01536.0112-.031.0156-.04687.009-.03259.0138-.06597.0156-.09961.0008-.01627.0008-.03256 0-.04883-.001-.03358-.006-.06695-.0137-.09961-.004-.01587-.01-.03151-.0156-.04687-.005-.01591-.011-.03155-.0176-.04687-.0146-.03035-.0323-.05914-.0527-.08594-.01-.01287-.0202-.02525-.0312-.03711-.0225-.02455-.0473-.0468-.0742-.06641-.0139-.0098-.0282-.01896-.043-.02734-.0139-.0085-.0283-.01633-.043-.02344-.0153-.0066-.031-.01251-.0469-.01758-.016-.0054-.0323-.0099-.0488-.01367-.0161-.0041-.0324-.0073-.0488-.0098-.0188-.0024-.0377-.0037-.0566-.0039zm0-12c-.27613.000028-.49997.223869-.5.5v10c.00003.276131.22387.499972.5.5h13c.27613-.000028.49997-.223869.5-.5v-10c-.00003-.276131-.22387-.499972-.5-.5zm.5 1h12v9h-12z"/><path d="m494 41.5c-.00003.276131-.22387.499972-.5.5h-2c-.27613-.000028-.49997-.223869-.5-.5v-2c.00003-.276131.22387-.499972.5-.5h2c.27613.000028.49997.223869.5.5zm-1-.5v-1h-1v1zm1-3.5c-.00003.276131-.22387.499972-.5.5h-2c-.27613-.000028-.49997-.223869-.5-.5v-2c.00003-.276131.22387-.499972.5-.5h2c.27613.000028.49997.223869.5.5z"/></g></g></svg>