<svg height="1600" viewBox="0 0 1600 1600" width="1600" xmlns="http://www.w3.org/2000/svg" xmlns:inkscape="http://www.inkscape.org/namespaces/inkscape" xmlns:sodipodi="http://sodipodi.sourceforge.net/DTD/sodipodi-0.dtd"><sodipodi:namedview pagecolor="#303030" showgrid="true"><inkscape:grid id="grid5" units="px" spacingx="100" spacingy="100" color="#4772b3" opacity="0.2" visible="true" /></sodipodi:namedview><g enable-background="new" transform="matrix(11.473464 0 0 11.482723 -22399.099 3407.235)"><path d="m2022-287.00004a60 60 0 0 0 -60 60 60 60 0 0 0 60 60 60 60 0 0 0 60-60 60 60 0 0 0 -60-60zm13.9336 7.80665a1.0005267 1.0005267 0 0 1 .2969.0312c14.0857 3.70434 26.1 12.75063 33.3965 25.1543a1.0001 1.0001 0 0 1 -.8067 1.51953 1.0001 1.0001 0 0 1 -.916-.50391c-7.0254-11.9429-18.5999-20.66258-32.1816-24.23437a1.0005267 1.0005267 0 0 1 .2109-1.9668zm-2.0703 7.71875a1.0001 1.0001 0 0 1 .2969.041c12.0356 3.15482 22.303 10.85945 28.539 21.42579a1.0001 1.0001 0 0 1 -.8066 1.51953 1.0001 1.0001 0 0 1 -.916-.50391c-5.964-10.10524-15.7913-17.48475-27.3243-20.50781a1.0001 1.0001 0 0 1 .211-1.97461zm-2.0723 7.73633a1.000286 1.000286 0 0 1 .2969.0312c9.9852 2.6051 18.5057 8.96814 23.6816 17.69726a1.0001 1.0001 0 0 1 -.8027 1.52149 1.0001 1.0001 0 0 1 -.918-.50195c-4.9022-8.26754-12.9824-14.3068-22.4668-16.78125a1.000286 1.000286 0 0 1 .209-1.9668zm-2.3242 7.7207a1.0001 1.0001 0 0 1 .2969.0391c7.685 2.05923 14.2388 7.08834 18.2168 13.97852a1.0001 1.0001 0 0 1 -.8203 1.51172 1.0001 1.0001 0 0 1 -.9122-.51176c-3.7131-6.43148-9.8285-11.12475-17.0019-13.04688a1.0001 1.0001 0 0 1 .2207-1.97069zm-7.4668 7.01758a21.999998 21.999998 0 0 1 22 22 21.999998 21.999998 0 0 1 -22 22 21.999998 21.999998 0 0 1 -22-22 21.999998 21.999998 0 0 1 22-22zm-25.0664 35.5a1.0001945 1.0001945 0 0 1 .8184.5c3.7131 6.43148 9.8285 11.12475 17.0019 13.04688a1.0001 1.0001 0 0 1 -.2227 1.96875 1.0001 1.0001 0 0 1 -.2949-.0371c-7.685-2.05922-14.2388-7.08833-18.2168-13.97852a1.0001945 1.0001945 0 0 1 .9141-1.5zm-7.8008 3.99023a1.0001 1.0001 0 0 1 .8184.5c4.9022 8.26754 12.9824 14.3068 22.4668 16.78125a1.0001 1.0001 0 0 1 -.209 1.97071 1.0001 1.0001 0 0 1 -.2969-.0352c-9.9852-2.6051-18.5057-8.96816-23.6816-17.69726a1.0001 1.0001 0 0 1 .9023-1.51955zm-7.0215 3.99219a1.0001 1.0001 0 0 1 .9121.50977c5.964 10.10524 15.7913 17.48475 27.3243 20.50781a1.0001 1.0001 0 0 1 -.211 1.9707 1.0001 1.0001 0 0 1 -.2969-.0371c-12.0356-3.15483-22.303-10.85945-28.539-21.42579a1.0001 1.0001 0 0 1 .8105-1.52538zm-6.9297 4.00196a1.0001 1.0001 0 0 1 .9141.50781c7.0254 11.9429 18.5999 20.66258 32.1816 24.23436a1.0001 1.0001 0 0 1 -.2109 1.97071 1.0001 1.0001 0 0 1 -.2969-.0352c-14.0857-3.7043-26.1-12.7506-33.3965-25.15426a1.0001 1.0001 0 0 1 .8086-1.52344z" fill="#fff" opacity=".8"/><path d="m2030.8004-255.00728a1.0281707.13086873 0 0 1 .6243.061" fill="#f00" opacity="0"/><path d="m1286 24c-33.6775 0-61 27.32247-61 61s27.3225 61 61 61 61-27.32247 61-61-27.3225-61-61-61zm0 2c16.2983 0 31.0492 6.599971 41.7246 17.275391l-3.2031 3.203125c3.5177 3.390854 6.5961 7.247903 9.1055 11.513672.7143 1.157887-1.0554 2.201256-1.7227 1.015624-2.4225-4.118218-5.3967-7.84244-8.7969-11.115234l-4.2422 4.242188c3.0278 2.900102 5.6771 6.202769 7.834 9.857422.7182 1.158771-1.0563 2.205026-1.7226 1.015624-2.0702-3.507567-4.6146-6.67641-7.5254-9.458984l-4.2422 4.242188c2.5377 2.409015 4.7561 5.156126 6.5605 8.199218.7012 1.152579-1.0466 2.18818-1.7207 1.019532-1.7176-2.896759-3.8323-5.512525-6.2539-7.804688l-4.5879 4.587891c1.8384 1.838284 3.4512 3.916789 4.7735 6.207031.6667 1.155-1.0658 2.155-1.7325 1-1.2342-2.137734-2.7394-4.07724-4.455-5.792969l-3.5332 3.533203c-4.1637-4.163662-9.9144-6.740234-16.2598-6.740234-12.6907 0-23 10.3093-23 23h-36c0-32.59664 26.4034-59 59-59zm0 38c11.6098 0 21 9.39018 21 21s-9.3902 21-21 21-21-9.39018-21-21 9.3902-21 21-21zm23 21h36c0 32.59664-26.4034 59-59 59-16.2983 0-31.0492-6.59997-41.7246-17.27539l3.2031-3.20313c-3.5177-3.39085-6.5961-7.2479-9.1055-11.51367-.3953-.64851.048-1.48365.8067-1.51953.3758-.0177.7298.17702.916.50391 2.4225 4.11822 5.3967 7.84244 8.7969 11.11523l4.2422-4.24219c-3.0278-2.9001-5.6771-6.20277-7.834-9.85742-.3953-.64847.048-1.48358.8066-1.51953.3758-.0177.7298.17702.916.50391 2.0702 3.50756 4.6146 6.67641 7.5254 9.45898l4.2422-4.24219c-2.5377-2.40901-4.7561-5.15613-6.5605-8.19921-.3968-.64743.044-1.48355.8027-1.52149.3761-.0189.7309.17515.918.50195 1.7176 2.89676 3.8323 5.51253 6.2539 7.80469l4.5879-4.58789c-1.8384-1.83828-3.4512-3.91679-4.7735-6.20703-.3889-.651921.062-1.482432.8203-1.511719.3761-.01469.7287.183068.9122.511719 1.2342 2.13773 2.7394 4.07753 4.455 5.79297l3.5332-3.5332c4.1637 4.16366 9.9144 6.74023 16.2598 6.74023 12.6907 0 23-10.3093 23-23z" fill="#fff" transform="translate(736 -312)"/><path d="m-2013.1996 198.99276a1.0281707.13086873 0 0 1 .6243.061" fill="#f00" opacity="0" transform="scale(-1)"/></g></svg>