<svg height="1600" viewBox="0 0 1600 1600" width="1600" xmlns="http://www.w3.org/2000/svg" xmlns:inkscape="http://www.inkscape.org/namespaces/inkscape" xmlns:sodipodi="http://sodipodi.sourceforge.net/DTD/sodipodi-0.dtd"><sodipodi:namedview pagecolor="#303030" showgrid="true"><inkscape:grid id="grid5" units="px" spacingx="100" spacingy="100" color="#4772b3" opacity="0.2" visible="true" /></sodipodi:namedview><g fill="#fff"><path d="m475 32c-3.86007 0-7 3.1399-7 7s3.13993 7 7 7 7-3.1399 7-7-3.13993-7-7-7zm3.48047 2.2344a.50005.50005 0 0 1 .31836.125c1.24012 1.0149 2.02325 2.4828 2.17383 4.0781a.50005.50005 0 0 1 -.49219.5547.50005.50005 0 0 1 -.50195-.461c-.12552-1.3298-.77879-2.5525-1.8125-3.3984a.50005.50005 0 0 1 .31445-.8984zm-1.00977 1.7832a.50005.50005 0 0 1 .35742.1543c.60661.6066 1.00291 1.3916 1.12891 2.2402a.50005.50005 0 0 1 -.46289.5801.50005.50005 0 0 1 -.52734-.4336c-.0945-.6365-.39067-1.2247-.84571-1.6797a.50005.50005 0 0 1 .34961-.8613zm-2.4707.9824c1.09865 0 2 .9014 2 2s-.90135 2-2 2-2-.9014-2-2 .90135-2 2-2zm-5.51367 1.9902a.50005.50005 0 0 1 .0508 0 .50005.50005 0 0 1 .48437.4805c.12552 1.3298.77879 2.5525 1.8125 3.3984a.50005.50005 0 0 1 -.31054.8926.50005.50005 0 0 1 -.32227-.1191c-1.24012-1.0149-2.02325-2.4828-2.17383-4.0781a.50005.50005 0 0 1 .45899-.5743zm2.06445.024a.50050417.50050417 0 0 1 .48242.4277c.0945.6365.39067 1.2247.84571 1.6797a.50005.50005 0 0 1 -.34766.8594.50005.50005 0 0 1 -.35937-.1524c-.60661-.6066-1.00291-1.3916-1.12891-2.2402a.50050417.50050417 0 0 1 .50781-.5742z" transform="matrix(100 0 0 100 -46699.99999999999 -3100)"/></g></svg>