<svg height="1600" viewBox="0 0 1600 1600" width="1600" xmlns="http://www.w3.org/2000/svg" xmlns:inkscape="http://www.inkscape.org/namespaces/inkscape" xmlns:sodipodi="http://sodipodi.sourceforge.net/DTD/sodipodi-0.dtd"><sodipodi:namedview pagecolor="#303030" showgrid="true"><inkscape:grid id="grid5" units="px" spacingx="100" spacingy="100" color="#4772b3" opacity="0.2" visible="true" /></sodipodi:namedview><g fill="#fff"><g enable-background="new" transform="translate(-233 -365)"><path d="m1028 1556c-3.2833 0-6 2.4414-6 5.5 0 1.7056.9046 3.146 2.1523 4.3594l.9942.9941a.50004997.50004997 0 0 0 .3027.1485.50004997.50004997 0 0 0 .051.998h5a.50004997.50004997 0 0 0 .045-.998.50004997.50004997 0 0 0 .3086-.1485l.9981-.998c1.2122-1.1985 2.1465-2.6518 2.1465-4.3535 0-3.0586-2.7167-5.5-6-5.5zm0 1c2.7919 0 5 2.0358 5 4.5 0 1.3342-.7428 2.5488-1.8516 3.6445l-1 1a.50004997.50004997 0 0 0 .2793.8535h-4.8594a.50004997.50004997 0 0 0 .2871-.8535l-1-1a.50004997.50004997 0 0 0 -.01-.01c-1.1397-1.1082-1.8477-2.2864-1.8477-3.6406 0-2.4642 2.2081-4.5 5-4.5zm-2.5 12a.50004997.50004997 0 1 0 0 1h1.5v.5a.50004997.50004997 0 0 0 .5.5h1a.50004997.50004997 0 0 0 .5-.5v-.5h1.5a.50004997.50004997 0 1 0 0-1z"/><path d="m1025.4902 1561.0059a.50005.50005 0 0 0 -.3437.8476l.8535.8535v1.543a.50005.50005 0 1 0 1 0v-1.25h2v1.25a.50005.50005 0 1 0 1 0v-1.543l.8535-.8535a.50005.50005 0 0 0 -.707-.707l-.8535.8535h-2.586l-.8535-.8535a.50005.50005 0 0 0 -.3633-.1406z" opacity=".6"/></g><path d="m475 32c-3.86007 0-7 3.1399-7 7s3.13993 7 7 7 7-3.1399 7-7-3.13993-7-7-7zm3.48047 2.2344a.50005.50005 0 0 1 .31836.125c1.24012 1.0149 2.02325 2.4828 2.17383 4.0781a.50005.50005 0 0 1 -.49219.5547.50005.50005 0 0 1 -.50195-.461c-.12552-1.3298-.77879-2.5525-1.8125-3.3984a.50005.50005 0 0 1 .31445-.8984zm-1.00977 1.7832a.50005.50005 0 0 1 .35742.1543c.60661.6066 1.00291 1.3916 1.12891 2.2402a.50005.50005 0 0 1 -.46289.5801.50005.50005 0 0 1 -.52734-.4336c-.0945-.6365-.39067-1.2247-.84571-1.6797a.50005.50005 0 0 1 .34961-.8613zm-2.4707.9824c1.09865 0 2 .9014 2 2s-.90135 2-2 2-2-.9014-2-2 .90135-2 2-2zm-5.51367 1.9902a.50005.50005 0 0 1 .0508 0 .50005.50005 0 0 1 .48437.4805c.12552 1.3298.77879 2.5525 1.8125 3.3984a.50005.50005 0 0 1 -.31054.8926.50005.50005 0 0 1 -.32227-.1191c-1.24012-1.0149-2.02325-2.4828-2.17383-4.0781a.50005.50005 0 0 1 .45899-.5743zm2.06445.024a.50050417.50050417 0 0 1 .48242.4277c.0945.6365.39067 1.2247.84571 1.6797a.50005.50005 0 0 1 -.34766.8594.50005.50005 0 0 1 -.35937-.1524c-.60661-.6066-1.00291-1.3916-1.12891-2.2402a.50050417.50050417 0 0 1 .50781-.5742z" transform="matrix(100 0 0 100 -46699.99999999999 -3100)"/></g></svg>