<svg height="1600" viewBox="0 0 1400 1600" width="1400" xmlns="http://www.w3.org/2000/svg" xmlns:inkscape="http://www.inkscape.org/namespaces/inkscape" xmlns:sodipodi="http://sodipodi.sourceforge.net/DTD/sodipodi-0.dtd"><sodipodi:namedview pagecolor="#303030" showgrid="true"><inkscape:grid id="grid5" units="px" spacingx="100" spacingy="100" color="#4772b3" opacity="0.2" visible="true" /></sodipodi:namedview><g fill="#fff"><g enable-background="new" stroke-width=".101771" transform="matrix(109.81234 0 0 106.86921 -67163.72099999999 -5612.056)"><path d="m613.67414 61.535437h8.65173c.57439 0 1.03681.46242 1.03681 1.036816v2.839759c0 .574396-.46242 1.036815-1.03681 1.036815h-8.65173c-.57439 0-1.03681-.462419-1.03681-1.036815v-2.839759c0-.574396.46242-1.036816 1.03681-1.036816z" opacity=".2"/><path d="m145.24609-711c-5.67682 0-10.24609 4.5175-10.24609 10.12891v78c0-5.61141 4.56927-10.12891 10.24609-10.12891h85.50782c5.67682 0 10.24609 4.5175 10.24609 10.12891v-78c0-5.61141-4.56927-10.12891-10.24609-10.12891z" transform="matrix(.10118267 0 0 .10236222 598.97766 126.33073)"/><path d="m553.24414 21.003906c-6.21668 0-11.25391 4.978036-11.25391 11.123047v78.001957 27.74414c0 6.14501 5.03723 11.12304 11.25391 11.12304h85.51172c2.7198 0 5.21303-.95235 7.1582-2.53906 2.50094-2.04005 4.09571-5.12741 4.09571-8.58398v-27.74414-78.001957c0-6.145011-5.03723-11.123047-11.25391-11.123047zm0 1.984375h85.51172c5.13704 0 9.24609 4.060861 9.24609 9.138672v71.667967c-2.03176-2.89305-5.41213-4.789061-9.24609-4.789061h-85.51172c-3.83396 0-7.21433 1.896011-9.24609 4.789061v-71.667967c0-5.077811 4.10905-9.138672 9.24609-9.138672zm0 78.001949h85.51172c5.13704 0 8.58679 4.26374 8.58679 9.34155v27.33166c0 5.07781-3.53119 8.66614-8.66823 8.66614h-85.34878c-5.13704 0-8.66823-3.58833-8.66823-8.66614v-27.33166c0-5.07781 3.44969-9.34155 8.58673-9.34155z" transform="matrix(.10118267 0 0 .10236222 557.69513 51.299216)"/><path d="m621.91311 62.457001c.22334 0 .40429.180956.40429.404297v.0098c0 .22334-.18095.404297-.40429.404297-.22335 0-.40625-.180957-.40625-.404297v-.0098c0-.223341.1829-.404297.40625-.404297z"/><path d="m613.57935 62.45579c-.056.0012-.10057.04747-.0996.103516v2.867187c-.01.144644.21266.144644.20312 0v-2.867187c.00099-.05757-.0459-.104503-.10351-.103516zm.60742 0c-.056.0012-.10057.04747-.0996.103516v2.867187c-.01.144644.21266.144644.20312 0v-2.867187c.00099-.05757-.0459-.104503-.10351-.103516zm.60742 0c-.0568.000115-.10253.04671-.10156.103516v2.867187c0 .136713.20507.136713.20507 0v-2.867187c.00099-.05757-.0459-.104503-.10351-.103516zm.60742 0c-.0568.000115-.10253.04671-.10156.103516v2.867187c-.01.144644.21266.144644.20312 0v-2.867187c.00097-.0568-.0447-.103401-.10156-.103516zm.60547 0c-.056.0012-.10057.04747-.0996.103516v2.867187c-.01.144644.21266.144644.20312 0v-2.867187c.00099-.05757-.0459-.104503-.10351-.103516z"/></g></g></svg>