<svg id="svg5" height="1600" viewBox="0 0 1600 1600" width="1600" xmlns="http://www.w3.org/2000/svg" xmlns:inkscape="http://www.inkscape.org/namespaces/inkscape" xmlns:sodipodi="http://sodipodi.sourceforge.net/DTD/sodipodi-0.dtd"><sodipodi:namedview pagecolor="#303030" showgrid="true"><inkscape:grid id="grid5" units="px" spacingx="100" spacingy="100" color="#4772b3" opacity="0.2" visible="true" /></sodipodi:namedview><g fill="#fff"><path id="path1" d="m157.00001 493.99994v5h-5v4.5c.00003.27613.22387.49997.5.5h9c.27613-.00003.49997-.22387.5-.5v-9c-.00003-.27613-.22387-.49997-.5-.5zm-1.52557.0001c-.12123.006-.23872.0568-.32797.14644l-3 3c-.31478.315-.0918.85335.35352.85352h3c.27613-.00003.49997-.22387.5-.5v-3c.00038-.20256-.12145-.38534-.30857-.46289-.0701-.0289-.14424-.0409-.21698-.0371z" transform="matrix(100 0 0 100 -15100.001 -49300)"/><g transform="matrix(100 0 0 100 -44600.001 -11500)"><path id="path3" d="m460 120v1 8h-8-1v.5a.50005.50005 0 0 0 .5.5h9a.50005.50005 0 0 0 .5-.5v-9a.50005.50005 0 0 0 -.5-.5z"/><path id="path4" d="m458 118v1 8h-8-1v.5a.50005.50005 0 0 0 .5.5h9a.50005.50005 0 0 0 .5-.5v-9a.50005.50005 0 0 0 -.5-.5z"/></g></g></svg>