<?xml version="1.0" encoding="UTF-8" standalone="no"?>
<svg
   height="1600"
   viewBox="0 0 1600 1600"
   width="1600"
   version="1.1"
   id="svg3"
   xmlns="http://www.w3.org/2000/svg"
   xmlns:svg="http://www.w3.org/2000/svg">
  <defs
     id="defs3" />
  <g
     fill="#fff"
     id="g3">
    <path
       id="path9-2"
       style="baseline-shift:baseline;display:inline;overflow:visible;vector-effect:none;stroke-linejoin:round;enable-background:accumulate;stop-color:#000000"
       d="m 810.79948,300.05856 c -97.6422,0 -187.2041,38.1922 -258.127,109.7519 -33.8971,34.2017 -74.9299,90.1744 -90.1543,146.8301 -2.74591,8.22152 -2.69512,11.2343 1.05789,35.13824 10.2413,80.4626 -106.5031,114.8512 -126.6016,12.8359 -2.5837,-13.1144 -2.86258,-14.11479 -4.70819,-20.94094 -32.2521,11.7071 -67.3839,29.753 -104.8965,57.7422 -45.1471,33.6856 -152.195096,180.5665 -117.7891,357.88674 27.217,140.8992 142.2856,259.2078 281.6563,289.3887 h 0.029 c 78.6691,14.4765 373.3842,10.3055 432.7011,10.6816 6.0156,0.3658 316.72812,3.7949 384.08792,-10.3047 201.2943,-42.4501 331.57,-250.3684 281.0293,-448.81244 -35.7628,-140.4277 -152.0408,-249.8196 -291.2676,-273.2793 l -37.7461,-6.3614 -8.0527,-23.6933 C 1105.5561,400.22616 960.55168,300.05856 810.79918,300.05856 Z m 190.60822,298.59745 c 91.181,-2.689 138.0672,108.0988 72.6562,171.6796 L 674.06394,1170.3357 c -39.053,39.037 -102.3533,39.037 -141.4063,0 L 348.60978,985.4902 c -100.71897,-97.07102 56.1792,-230.84535 141.4063,-141.40625 l 113.34476,114.14234 329.2968,-329.29688 c 18.112,-18.642 42.7699,-29.4734 68.75006,-30.2734 z" />
  </g>
</svg>
