<svg height="1500" viewBox="0 0 1500 1500" width="1500" xmlns="http://www.w3.org/2000/svg" xmlns:inkscape="http://www.inkscape.org/namespaces/inkscape" xmlns:sodipodi="http://sodipodi.sourceforge.net/DTD/sodipodi-0.dtd"><sodipodi:namedview pagecolor="#303030" showgrid="true"><inkscape:grid id="grid5" units="px" spacingx="100" spacingy="100" color="#4772b3" opacity="0.2" visible="true" /></sodipodi:namedview><g fill="#fff"><path d="m259.49219 578.99219a.50005.50005 0 0 0 -.49219.50781v11.91992a.50005.50005 0 0 0 .11328.4043.50005.50005 0 0 0 .0156.0195.50005.50005 0 0 0 .0176.0176.50005.50005 0 0 0 .004.002.50005.50005 0 0 0 .0332.0312.50005.50005 0 0 0 .004.002.50005.50005 0 0 0 .39435.10348h11.91797a.50005.50005 0 1 0 0-1h-11.5v-11.5a.50005.50005 0 0 0 -.50781-.50781zm1.94922 3.08593a.50005.50005 0 1 0 0 1h1a.50005.50005 0 1 0 0-1zm3.28515.70899a.50005.50005 0 0 0 -.18945.96484l1 .41602a.50005.50005 0 1 0 .38477-.92188l-1-.41797a.50005.50005 0 0 0 -.19532-.041zm2.57813 1.99609a.50005.50005 0 0 0 -.45508.69922l.41797 1a.50037731.50037731 0 0 0 .92383-.38476l-.41797-1a.50005.50005 0 0 0 -.46875-.31446zm1.16601 3.25a.50005.50005 0 0 0 -.49218.50586v1a.50005.50005 0 1 0 1 0v-1a.50005.50005 0 0 0 -.50782-.50586z" transform="matrix(100 0 0 100 -25800.036 -57799.939)"/></g></svg>