<svg height="1600" viewBox="0 0 1600 1600" width="1600" xmlns="http://www.w3.org/2000/svg" xmlns:inkscape="http://www.inkscape.org/namespaces/inkscape" xmlns:sodipodi="http://sodipodi.sourceforge.net/DTD/sodipodi-0.dtd"><sodipodi:namedview pagecolor="#303030" showgrid="true"><inkscape:grid id="grid5" units="px" spacingx="100" spacingy="100" color="#4772b3" opacity="0.2" visible="true" /></sodipodi:namedview><g fill="#fff"><path d="m281.51172 579a.50005002.50005002 0 0 0 -.41797.20898c-2.81255 3.79393-2.81255 9.78811 0 13.58204a.50005002.50005002 0 1 0 .80273-.59571c-2.50459-3.37852-2.50459-9.0121 0-12.39062a.50005002.50005002 0 0 0 -.38476-.80469zm8.95898 0a.50005002.50005002 0 0 0 -.38476.80469c2.50459 3.37852 2.50459 9.0121 0 12.39062a.50059472.50059472 0 1 0 .80468.59571c2.81256-3.79393 2.81256-9.78811 0-13.58204a.50005002.50005002 0 0 0 -.41796-.20898.50005002.50005002 0 0 1 -.002 0zm-6.98047 2.99219a.50005002.50005002 0 0 0 -.39648.79883l2.29102 3.20898-2.29297 3.20898a.50131814.50131814 0 1 0 .8164.58204l2.0918-2.92969 2.0918 2.92969a.50131814.50131814 0 1 0 .8164-.58204l-2.29297-3.20898 2.29102-3.20898a.50005002.50005002 0 0 0 -.0312-.63282.50005002.50005002 0 0 0 -.78125.0508l-2.0938 2.92967-2.09375-2.92969a.50005002.50005002 0 0 0 -.0527-.0664.50005002.50005002 0 0 0 -.36329-.15039z" transform="matrix(99.999979394 0 0 99.999979394 -27799.21288849999 -57800.26273149999)"/></g></svg>