<svg height="1500" viewBox="0 0 1500 1500" width="1500" xmlns="http://www.w3.org/2000/svg" xmlns:inkscape="http://www.inkscape.org/namespaces/inkscape" xmlns:sodipodi="http://sodipodi.sourceforge.net/DTD/sodipodi-0.dtd"><sodipodi:namedview pagecolor="#303030" showgrid="true"><inkscape:grid id="grid5" units="px" spacingx="100" spacingy="100" color="#4772b3" opacity="0.2" visible="true" /></sodipodi:namedview><g fill="#fff"><g enable-background="new" transform="translate(-233 -365)"><path d="m1028 1556c-3.2833 0-6 2.4414-6 5.5 0 1.7056.9046 3.146 2.1523 4.3594l.9942.9941a.50004997.50004997 0 0 0 .3027.1485.50004997.50004997 0 0 0 .051.998h5a.50004997.50004997 0 0 0 .045-.998.50004997.50004997 0 0 0 .3086-.1485l.9981-.998c1.2122-1.1985 2.1465-2.6518 2.1465-4.3535 0-3.0586-2.7167-5.5-6-5.5zm0 1c2.7919 0 5 2.0358 5 4.5 0 1.3342-.7428 2.5488-1.8516 3.6445l-1 1a.50004997.50004997 0 0 0 .2793.8535h-4.8594a.50004997.50004997 0 0 0 .2871-.8535l-1-1a.50004997.50004997 0 0 0 -.01-.01c-1.1397-1.1082-1.8477-2.2864-1.8477-3.6406 0-2.4642 2.2081-4.5 5-4.5zm-2.5 12a.50004997.50004997 0 1 0 0 1h1.5v.5a.50004997.50004997 0 0 0 .5.5h1a.50004997.50004997 0 0 0 .5-.5v-.5h1.5a.50004997.50004997 0 1 0 0-1z"/><path d="m1025.4902 1561.0059a.50005.50005 0 0 0 -.3437.8476l.8535.8535v1.543a.50005.50005 0 1 0 1 0v-1.25h2v1.25a.50005.50005 0 1 0 1 0v-1.543l.8535-.8535a.50005.50005 0 0 0 -.707-.707l-.8535.8535h-2.586l-.8535-.8535a.50005.50005 0 0 0 -.3633-.1406z" opacity=".6"/></g><path d="m259.49219 578.99219a.50005.50005 0 0 0 -.49219.50781v11.91992a.50005.50005 0 0 0 .11328.4043.50005.50005 0 0 0 .0156.0195.50005.50005 0 0 0 .0176.0176.50005.50005 0 0 0 .004.002.50005.50005 0 0 0 .0332.0312.50005.50005 0 0 0 .004.002.50005.50005 0 0 0 .39435.10348h11.91797a.50005.50005 0 1 0 0-1h-11.5v-11.5a.50005.50005 0 0 0 -.50781-.50781zm1.94922 3.08593a.50005.50005 0 1 0 0 1h1a.50005.50005 0 1 0 0-1zm3.28515.70899a.50005.50005 0 0 0 -.18945.96484l1 .41602a.50005.50005 0 1 0 .38477-.92188l-1-.41797a.50005.50005 0 0 0 -.19532-.041zm2.57813 1.99609a.50005.50005 0 0 0 -.45508.69922l.41797 1a.50037731.50037731 0 0 0 .92383-.38476l-.41797-1a.50005.50005 0 0 0 -.46875-.31446zm1.16601 3.25a.50005.50005 0 0 0 -.49218.50586v1a.50005.50005 0 1 0 1 0v-1a.50005.50005 0 0 0 -.50782-.50586z" transform="matrix(100 0 0 100 -25800.036 -57799.939)"/></g></svg>