<svg id="svg5" height="1600" viewBox="0 0 1600 1600" width="1600" xmlns="http://www.w3.org/2000/svg" xmlns:inkscape="http://www.inkscape.org/namespaces/inkscape" xmlns:sodipodi="http://sodipodi.sourceforge.net/DTD/sodipodi-0.dtd"><sodipodi:namedview pagecolor="#303030" showgrid="true"><inkscape:grid id="grid5" units="px" spacingx="100" spacingy="100" color="#4772b3" opacity="0.2" visible="true" /></sodipodi:namedview><g fill="#fff" transform="matrix(100 0 0 -100 46900.021 30200)"><path id="path2" d="m-467.5 287c-.27613.00003-.49997.22387-.5.5v10c.00003.27613.22387.49997.5.5h2.5v-1h-2v-9h9v2h1v-2.5c-.00003-.27613-.22387-.49997-.5-.5z" opacity=".7"/><path id="path3" d="m-463.50002 301c-.27613-.00003-.49997-.22387-.5-.5v-9c.00003-.27613.22387-.49997.5-.5h9c.27613.00003.49997.22387.5.5v4.5h-1v-4h-8v8h5v-2.5c.00003-.27613.22387-.49997.5-.5h2.5 1v.5c-.00002.1326-.0527.25972-.14648.35352l-3 3c-.0938.0938-.22092.14646-.35352.14648z"/></g></svg>