<svg height="1600" viewBox="0 0 1500 1600" width="1500" xmlns="http://www.w3.org/2000/svg" xmlns:inkscape="http://www.inkscape.org/namespaces/inkscape" xmlns:sodipodi="http://sodipodi.sourceforge.net/DTD/sodipodi-0.dtd"><sodipodi:namedview pagecolor="#303030" showgrid="true"><inkscape:grid id="grid5" units="px" spacingx="100" spacingy="100" color="#4772b3" opacity="0.2" visible="true" /></sodipodi:namedview><g enable-background="new" transform="matrix(0 -100 -100 0 19302.143 4198.242)"><g id="blender_crease" fill="#fff" opacity="0.5"><path d="m27.486328 183.01367c-.276131.00003-.499972.22387-.5.5v2c.000028.27613.223869.49997.5.5h9c.276131-.00003.499972-.22387.5-.5v-2c-.000028-.27613-.223869-.49997-.5-.5z" fill-rule="evenodd"/></g><g id="blender_text" fill="#fff"><path d="m31.478516 179.02148c-.1326.00003-.259761.0527-.353516.14649l-1.992188 1.99219c-.490839.47125.235779 1.19787.707032.70703l1.845703-1.84571h8.292969v8.29297l-2.707032 2.70703h-8.292968l.0072-4.00727-1-.002-.0072 4.50727c-.0011.27689.223106.50192.5.50195h9c.132599-.00002.259759-.0527.353515-.14648l3-3c.09377-.0938.14646-.22092.146485-.35352v-9c-.000028-.27613-.223869-.49997-.5-.5z" opacity=".6"/></g></g></svg>
