<svg height="1600" viewBox="0 0 1600 1600" width="1600" xmlns="http://www.w3.org/2000/svg" xmlns:inkscape="http://www.inkscape.org/namespaces/inkscape" xmlns:sodipodi="http://sodipodi.sourceforge.net/DTD/sodipodi-0.dtd"><sodipodi:namedview pagecolor="#303030" showgrid="true"><inkscape:grid id="grid5" units="px" spacingx="100" spacingy="100" color="#4772b3" opacity="0.2" visible="true" /></sodipodi:namedview><g fill="#fff"><g enable-background="new" transform="matrix(0 -100 -100 0 28600.00000000001 -60000)"><g enable-background="new" transform="matrix(0 1 -1 0 -317 34)"><path d="m237.5 284c-.27613.00003-.49997.22387-.5.5v4c.00003.27613.22387.49997.5.5h4c.27613-.00003.49997-.22387.5-.5v-4c-.00003-.27613-.22387-.49997-.5-.5z" fill="#fff"/></g><path d="m-614.5 272a.50005.50005 0 0 0 -.5.5v3a.50005.50005 0 0 0 .5.5h.50781v5h-.50781a.50005.50005 0 0 0 -.5.5v3a.50005.50005 0 0 0 .5.5h3a.50005.50005 0 0 0 .5-.5v-.5h5v.5a.50005.50005 0 0 0 .5.5h3a.50005.50005 0 0 0 .5-.5v-3a.50005.50005 0 0 0 -.5-.5h-.49219v-3.5a.50005.50005 0 1 0 -1 0v3.5h-1.50781a.50005.50005 0 0 0 -.5.5v1.5h-5v-1.5a.50005.50005 0 0 0 -.5-.5h-1.49219v-5h1.49219a.50005.50005 0 0 0 .5-.5v-1.5h3.5a.50005.50005 0 1 0 0-1h-3.5v-.5a.50005.50005 0 0 0 -.5-.5zm.5 1h2v2h-1.41406a.50005.50005 0 0 0 -.16016 0h-.42578zm0 9h2v2h-2zm9 0h2v2h-2z" opacity=".6"/></g></g></svg>