<svg height="1600" viewBox="0 0 1600 1600" width="1600" xmlns="http://www.w3.org/2000/svg" xmlns:inkscape="http://www.inkscape.org/namespaces/inkscape" xmlns:sodipodi="http://sodipodi.sourceforge.net/DTD/sodipodi-0.dtd"><sodipodi:namedview pagecolor="#303030" showgrid="true"><inkscape:grid id="grid5" units="px" spacingx="100" spacingy="100" color="#4772b3" opacity="0.2" visible="true" /></sodipodi:namedview><g fill="#fff"><g enable-background="new" opacity=".99" transform="matrix(100 0 0 100 -48799.99999999999 -19899.963)"><path d="m495.49219 199.99219a.50005.50005 0 0 0 -.49219.50781v6.79297l-3.85352 3.85351a.50005.50005 0 1 0 .70704.70704l3.85351-3.85352h6.79297a.50005.50005 0 1 0 0-1h-6.5v-6.5a.50005.50005 0 0 0 -.50781-.50781z" opacity="1"/><path d="m499.49023 202.99609a.50005.50005 0 0 0 -.34375.15039l-2 2a.50005.50005 0 1 0 .70704.70704l2-2a.50005.50005 0 0 0 -.36329-.85743zm-9.99023 4.00391a.50005.50005 0 1 0 0 1h3.25a.50005.50005 0 1 0 0-1zm5.99219 2.74219a.50005.50005 0 0 0 -.49219.50781v3.25a.50005.50005 0 1 0 1 0v-3.25a.50005.50005 0 0 0 -.50781-.50781z" opacity=".6"/></g></g></svg>