<svg height="1600" viewBox="0 0 1600 1600" width="1600" xmlns="http://www.w3.org/2000/svg" xmlns:inkscape="http://www.inkscape.org/namespaces/inkscape" xmlns:sodipodi="http://sodipodi.sourceforge.net/DTD/sodipodi-0.dtd"><sodipodi:namedview pagecolor="#303030" showgrid="true"><inkscape:grid id="grid5" units="px" spacingx="100" spacingy="100" color="#4772b3" opacity="0.2" visible="true" /></sodipodi:namedview><g fill="#fff"><path d="m535.5 494c-.27613.00003-.49997.22387-.5.5v1c.00002.1326.0527.25976.14648.35352l.85352.85351v2.61524l-4.38672 5.36132-.004.004c-.58889.7361-.70787 1.57018-.44922 2.2168.25864.64662.88151 1.0957 1.58984 1.0957h10.5c.70833 0 1.33692-.44332 1.60352-1.0918.26614-.64736.14367-1.48967-.4668-2.22461l-4.38662-5.36141v-2.61524l.85352-.85351c.0938-.0938.14646-.22092.14648-.35352v-1c-.00003-.27613-.22387-.49997-.5-.5zm.5 1h4v.29297l-.85352.85351c-.0938.0938-.14646.22092-.14648.35352v3c.00013.11538.0402.22717.11328.31641l4.5 5.5c.00066.001.00095.003.002.004.42848.51418.43133.91996.3125 1.20899-.11892.28882-.38611.4706-.67778.4706h-10.5c-.29167 0-.5438-.17592-.66016-.4668-.11635-.29088-.11033-.7068.30078-1.2207l4.4961-5.49609c.0731-.0892.11315-.20103.11328-.31641v-3c-.00002-.1326-.0527-.25976-.14648-.35352l-.85352-.85351zm0 8c-.14428-.00039-.2817.0616-.37695.16992l-1.75 2c-.28426.32357-.0537.83118.37695.83008h7.5c.43069.001.66121-.50651.37695-.83008l-1.75-2c-.09525-.10837-.23267-.17031-.37695-.16992z" transform="matrix(100 0 0 100 -53000.853 -49300.0045)"/></g></svg>