<svg height="1500" viewBox="0 0 1500 1500" width="1500" xmlns="http://www.w3.org/2000/svg" xmlns:inkscape="http://www.inkscape.org/namespaces/inkscape" xmlns:sodipodi="http://sodipodi.sourceforge.net/DTD/sodipodi-0.dtd"><sodipodi:namedview pagecolor="#303030" showgrid="true"><inkscape:grid id="grid5" units="px" spacingx="100" spacingy="100" color="#4772b3" opacity="0.2" visible="true" /></sodipodi:namedview><g fill="#fff"><g enable-background="new" transform="matrix(100 0 0 100 -11000.0006 -5299.99)"><path d="m195.49219 104.99219a.50005.50005 0 0 0 -.49219.50781v3a.50005.50005 0 0 0 .5.5h12a.50005.50005 0 0 0 .5-.5v-3a.50005.50005 0 1 0 -1 0v2.5h-11v-2.5a.50005.50005 0 0 0 -.50781-.50781z" opacity=".6" transform="matrix(-1 0 0 1 319 -42.00007)"/><path d="m117.50866 53.999925c.12988.0021.25387.05461.3457.146485l2.98353 2.961437c.49084.471254-.23577 1.197855-.70703.707031l-2.13002-2.107921v7.792965c.01.67616-1.00956.67616-1 0v-7.792965l-2.13001 2.130018c-.47126.490807-1.19784-.235776-.70704-.707031l2.98354-2.983534c.0957-.09571.22603-.148557.36133-.146485z"/></g></g></svg>