<svg height="1600" viewBox="0 0 1500 1600" width="1500" xmlns="http://www.w3.org/2000/svg" xmlns:inkscape="http://www.inkscape.org/namespaces/inkscape" xmlns:sodipodi="http://sodipodi.sourceforge.net/DTD/sodipodi-0.dtd"><sodipodi:namedview pagecolor="#303030" showgrid="true"><inkscape:grid id="grid5" units="px" spacingx="100" spacingy="100" color="#4772b3" opacity="0.2" visible="true" /></sodipodi:namedview><g fill="#fff"><g enable-background="new" transform="matrix(100 0 0 100 -2876.575 -43092.903)"><g enable-background="new" stroke-width=".123097" transform="matrix(.91933551 0 0 .88867976 -533.33743 386.76681)"><path d="m613.67414 61.612633h8.65173c.57439 0 1.03681.46242 1.03681 1.036815v2.762566c0 .574395-.46242 1.036815-1.03681 1.036815h-8.65173c-.57439 0-1.03681-.46242-1.03681-1.036815v-2.762566c0-.574395.46242-1.036815 1.03681-1.036815z" opacity=".2"/><path d="m145.24609-711c-5.67681-.01185-10.24609 4.5175-10.24609 10.12891v78c0-5.61141 4.56928-10.14076 10.24609-10.12891l85.17749.17786c5.67681.0118 10.24609 4.5175 10.24609 10.12891v-78c0-5.61141-4.56928-10.11706-10.24609-10.12891l-42.58875-.0889z" transform="matrix(.10118267 0 0 .10236222 598.97766 126.33073)"/><path d="m717.48242 42.996094c-5.24135 0-9.49414 4.190752-9.49414 9.355468v65.017578 22.26953c0 5.16472 4.25279 9.35547 9.49414 9.35547h70.02539c5.24136 0 9.49414-4.19075 9.49414-9.35547v-22.26953-65.017578c0-5.164716-4.25278-9.355468-9.49414-9.355468zm0 1.984375h70.02539c4.15996 0 7.48047 3.271903 7.48047 7.371093v59.269528c-1.73801-2.19271-4.43984-3.60742-7.48047-3.60742h-70.02539c-3.04062 0-5.74244 1.41471-7.48047 3.60742v-59.269528c0-4.09919 3.32052-7.371093 7.48047-7.371093zm0 65.017581h70.02539c4.15996 0 6.83699 3.09749 6.83699 7.19667v21.8621c-.00001 4.09919-3.14714 7.28736-7.3071 7.28736h-69.08523c-4.15995 0-7.30707-3.18817-7.30709-7.28736-.00031-47.435614 0-14.3539 0-21.8621 0-4.09918 2.67709-7.19667 6.83704-7.19667z" transform="matrix(.12219364 0 0 .1240074 526.00203 48.095825)"/><g stroke-width=".123097" transform="matrix(-1 0 0 1 1235.8994 0)"><path d="m613.88871 62.499044c-.23599 0-.42773.193143-.42773.429687v.0098c0 .236544.19174.429687.42773.429687s.42774-.193143.42774-.429687v-.0098c0-.236544-.19175-.429687-.42774-.429687z"/><path d="m613.40672 62.503838c-.0633.0071-.11074.06131-.10937.125v2.851562c0 .165367.24805.165367.24805 0v-2.851562c.002-.07532-.0639-.13455-.13868-.125zm.64679.000001c-.0633.0071-.11074.06131-.10937.125v2.851561c-.005.169458.25158.169458.24609 0v-2.851562c.002-.07444-.0627-.133249-.13672-.124999zm.64937.000001c-.0633.0071-.11074.06131-.10937.125v2.85156c-.005.169458.25158.169458.24609 0v-2.851562c.002-.07444-.0627-.133249-.13672-.124998zm.65195.000001c-.0633.0071-.11075.06131-.10938.125v2.85156c-.005.169247.25137.169247.2461 0v-2.851562c.002-.07444-.0627-.133249-.13672-.124998zm.64937-.000003c-.0633.0071-.11075.06131-.10938.125v2.851562c-.005.169248.25136.169248.2461 0v-2.851563c.002-.07444-.0627-.133249-.13672-.124999z" transform="translate(6.273326)"/></g></g><path d="m816.43612 111.73314c0 .5515.7823 1.33328 1.3338 1.33333h10.0035c.5538-.00005 1.3359-.77955 1.3338-1.33333v-8.00001c-.0108-2.92338-2.53774-5.20733-5.3352-5.666667l.00003-63.33338c-.0009-7.597621-6.34645-13.676694-14.00685-13.666674l-44.01737-.000003c-7.9872.0106-13.99805 6.01116-13.99805 14v9l2.07069-.06546v-9c0-7.01107 4.91866-11.925191 11.93126-11.934541l44.01542.000003c6.5948-.009 12.0041 5.153493 12.0049 11.666674l-.00003 63.331427c-2.80192.45829-5.33501 2.738541-5.3359 5.668621zm2.0007 2.66667v5.33334c.00006.55226.78364 1.33327 1.3359 1.33333h6c.55226-.00006 1.33374-.78107 1.3338-1.33333v-5.33334h-2.0007v4.66667h-4.6683v-4.66667z" transform="matrix(.10484712 0 0 .11026547 -44.16351267153 429.58773398735)"/></g></g></svg>