<?xml version="1.0" encoding="UTF-8" standalone="no"?>
<svg
   height="1600"
   viewBox="0 0 1600 1600"
   width="1600"
   version="1.1"
   id="svg1"
   sodipodi:docname="extension.svg"
   inkscape:version="1.4.4 (dcaf3e7, 2026-05-05)"
   xmlns:inkscape="http://www.inkscape.org/namespaces/inkscape"
   xmlns:sodipodi="http://sodipodi.sourceforge.net/DTD/sodipodi-0.dtd"
   xmlns="http://www.w3.org/2000/svg"
   xmlns:svg="http://www.w3.org/2000/svg">
  <sodipodi:namedview
     id="namedview1"
     pagecolor="#505050"
     bordercolor="#eeeeee"
     borderopacity="1"
     inkscape:showpageshadow="0"
     inkscape:pageopacity="0"
     inkscape:pagecheckerboard="0"
     inkscape:deskcolor="#505050"
     showgrid="true"
     inkscape:zoom="0.48238232"
     inkscape:cx="974.3309"
     inkscape:cy="683.06815"
     inkscape:window-width="1728"
     inkscape:window-height="1028"
     inkscape:window-x="0"
     inkscape:window-y="33"
     inkscape:window-maximized="0"
     inkscape:current-layer="g2">
    <inkscape:grid
       id="grid2"
       units="px"
       originx="0"
       originy="0"
       spacingx="100"
       spacingy="100"
       empcolor="#0099e5"
       empopacity="0.30196078"
       color="#0099e5"
       opacity="0.14901961"
       empspacing="4"
       enabled="true"
       visible="true" />
  </sodipodi:namedview>
  <defs
     id="defs1" />
  <g
     fill="#ffffff"
     id="g2"
     transform="matrix(0,-1,-1,0,1593.1119,1600)">
    <path
       id="path1"
       style="display:inline;fill-rule:evenodd;stroke-width:100;stroke-dasharray:none"
       d="m 1488.5371,854.91073 c -23.2558,-79.94211 -95.4849,-163.09123 -199.0898,-161.79883 -36.2313,0.452 -62.6154,5.0377 -89.1133,19.9375 1.2287,-38.35449 0.2923,-151.02999 -0.334,-176.18189 C 1200,338.12818 971.53156,405.6885 854.6816,386.4437 930.71362,265.51309 838.10408,93.1119 633.73828,93.1119 c -160.8709,0 -243.92853,115.43167 -233.73828,200 3.2851,27.2632 8.38136,74.5717 13.01636,85.7305 19.11006,46.0071 -162.67768,-18.1233 -238.6386,37.1113 -59.19224,43.0415 -70.0336,57.8403 -72.48844,135.86185 -3.273346,104.03601 2.38579,271.11174 1.36453,644.50595 0,204.8311 25.5473,256.6071 140.93946,285.6308 64.95643,16.3381 232.75193,8.6952 256.56455,-10.8968 26.50572,-21.808 26.11055,-75.6906 -0.96484,-131.9785 -19.31308,-40.1505 -19.58759,-47.947 -2.7461,-77.6934 24.77387,-43.757 68.07361,-64.0371 136.7168,-64.0371 68.64324,0 130.05033,13.6119 154.82422,57.3689 16.84146,29.7464 16.56491,60.3846 -2.74805,100.5351 -59.56443,123.8304 40.89587,147.933 254.59651,137.8614 186.2158,-8.7763 159.8722,-99.9494 159.3917,-270.0328 0.2064,-18.9637 0.036,-34.3273 0.4805,-46.7012 80.0942,33.4122 183.7347,18.9999 241.8515,-54.2466 37.7312,-47.5536 56.66,-119.3499 57.8399,-173.08776 1.1112,-50.60853 -4.9222,-71.64912 -11.4629,-94.13281 z m -88.2031,88.78515 c -1.6231,35.27735 -13.0189,88.35042 -36.211,117.58002 -29.3021,36.9304 -85.2918,42.5395 -136.2675,13.6504 -43.2559,-24.514 -70.7425,-22.8119 -100.002,6.1953 -18.9845,18.821 -26.5563,49.6732 -27.5449,137.8965 0,143.6082 7.5692,170.2255 -2.0586,174.0938 -10.5433,4.2361 -151.36403,4.5287 -220.93249,-6.6682 14.63805,-28.6301 20.51842,-60.8267 22.68249,-93.3318 1.34,-37.8695 -14.4836,-68.3014 -24.8301,-86.5761 -42.53429,-75.1261 -153.03812,-107.6248 -241.40817,-107.6248 -88.37001,0 -180.76657,39.1668 -223.30078,114.293 -10.34574,18.2732 -26.17032,48.7003 -24.83204,86.5703 -1.0947,32.4561 15.58749,64.5535 27.30079,93.3376 -37.15917,18.5062 -161.83605,23.5218 -196.3475,-35.3825 -6.87082,-13.9245 -14.03932,-63.0497 -14.03932,-161.4079 0,-38.2952 -1.36553,-625.88725 -1.36253,-644.48845 0.29885,-95.63933 141.76408,-52.04921 214.58408,-58.72115 117.13111,-23.8288 109.60608,-109.4843 84.23557,-200 -4.09268,-14.6017 4.29866,-58.4584 51.78713,-85.123 37.59222,-21.10788 144.41256,-27.7767 182.00586,-6.6682 63.84034,31.33442 60.14074,71.14079 32.85932,122.9707 -44.2884,84.14994 40.56219,160.7508 84.87891,162.1523 81.16137,6.4085 66.9694,6.6682 148.46878,6.6682 69.1487,0 100.2536,8.15848 100,60.24248 -0.016,91.9256 4.0947,229.17364 25.2891,250.18524 29.5273,29.2726 75.719,31.95945 109.5527,6.58985 13.3454,-10.007 38.4807,-18.37305 55.8574,-18.58985 80.453,-1.00358 109.6348,109.00044 109.6348,152.15626 z"
       sodipodi:nodetypes="sscccssssscssssssssccssscsscssccsssscscsssscssssscsc" />
  </g>
  <g
     fill="#ffffff"
     id="g3"
     transform="rotate(-90,647.8295,2803.0639)">
    <path
       id="path3"
       style="display:inline;fill-rule:evenodd;stroke-width:100;stroke-dasharray:none"
       d="m 800.00983,67.12105 c -48.09235,0 -96.18543,9.7421 -130.88294,29.22461 -71.81734,40.32516 -110.3422,101.67722 -102.85602,163.80469 3.2851,27.26316 9.76658,58.70058 14.40158,69.85937 7.44071,17.91337 -7.68591,20.83407 -129.1906,24.95703 -114.44537,3.88342 -143.51835,8.96233 -172.67312,30.16211 -59.19224,43.04144 -78.76726,97.42906 -78.78903,218.91016 -0.0164,91.92567 3.78671,112.20716 24.98112,133.21875 29.99664,29.73788 71.83331,31.80109 109.82827,5.41797 41.4076,-28.75284 101.54564,-18.15931 132.68953,23.37304 36.40583,48.54939 36.40583,154.10682 0,202.65627 -31.14389,41.53245 -91.28193,52.12565 -132.68953,23.373 -37.99496,-26.38325 -79.83163,-24.3199 -109.82827,5.418 C 202.77087,1019.5344 200,1038.8039 200,1171.3867 c 0,204.8311 21.97859,283.2199 140.9404,285.6309 469.93881,9.5244 633.81575,12.0486 797.7842,8.9043 226.6394,-4.3461 261.244,-48.0642 261.2753,-291.834 0.017,-135.2981 -2.6995,-154.5021 -24.9811,-176.59185 -29.2595,-29.0072 -56.7454,-30.70932 -100.0013,-6.1953 -50.9757,28.88915 -106.9652,23.28005 -136.2673,-13.6504 -74.2145,-93.53443 -27.6347,-253.65321 73.4225,-252.39258 17.3767,0.21676 42.5133,8.58291 55.8587,18.58984 33.8337,25.36969 77.4601,22.68279 106.9874,-6.58984 21.1944,-21.01159 24.9975,-41.29308 24.9811,-133.21875 -0.023,-121.56154 -19.595,-175.86524 -78.9407,-219.02149 -29.5704,-21.5038 -57.8656,-26.31655 -176.7099,-30.05664 l -141.5018,-4.45312 17.2562,-32.78516 C 1060.5666,240.84105 1023.232,148.19364 930.89275,96.34566 896.19523,76.86315 848.10216,67.12105 800.00983,67.12105 Z m 0,98.43555 c 34.56651,0 69.13565,9.24671 81.94909,16.4414 58.18874,32.67268 63.85712,64.07601 50.11591,90.1875 l -0.002,0.002 -17.25431,32.7832 c -15.79581,30.02207 -14.91986,65.98497 2.3192,95.21622 17.23905,29.23126 48.42154,47.62798 82.5595,48.70761 l 141.50378,4.45312 c 58.3219,1.83542 92.842,4.38696 108.1931,6.99805 15.3513,2.61109 7.4847,0.076 12.9398,4.04297 17.855,12.98422 20.9018,17.10215 26.9414,33.85937 6.0397,16.75723 11.4244,50.2643 11.4345,105.81055 0,17.53494 -0.3251,31.18573 -0.7368,42.70898 -26.4979,-14.8998 -50.3181,-19.48554 -86.5494,-19.9375 -103.6049,-1.2924 -175.8346,81.85665 -199.0904,161.79883 -23.25567,79.94219 -13.9934,173.79315 46.3766,249.8789 58.1168,73.2465 158.704,83.5978 238.7982,50.1856 0.7148,19.8907 1.2018,47.5062 1.2018,85.3828 -0.015,117.2481 -15.8424,163.1231 -20.6842,168.5312 -2.4209,2.7041 -6.1033,6.8886 -29.1322,12.627 -23.0291,5.7383 -62.3789,10.136 -116.2529,12.3359 -50.9914,2.0822 -595.77583,-2.2719 -618.90913,-1.4238 -65.99115,2.4192 -149.90251,-4.4226 -150.37333,-4.541 -45.74738,-11.5065 -42.09651,-10.806 -48.96732,-24.7305 -6.87082,-13.9245 -17.09867,-67.1301 -17.09867,-165.4883 0,-38.2952 0.53749,-65.8033 1.29436,-85.3203 84.62843,43.197 189.04726,18.1392 246.61763,-58.6348 38.75878,-51.68725 46.91051,-106.15893 46.91051,-160.05465 0,-53.89572 -8.15168,-108.36742 -46.91051,-160.05469 C 489.52828,630.408 384.83014,605.38991 300.1195,648.91797 c -0.45187,-11.83357 -0.81078,-26.26016 -0.80775,-44.86133 0.0101,-55.50155 5.39147,-89.02724 11.43063,-105.80664 6.03917,-16.77942 9.06933,-20.86131 26.79166,-33.74805 4.93463,-3.58821 -2.17711,-1.3797 12.857,-4.00586 15.03412,-2.62616 48.45636,-5.24912 104.48727,-7.15039 61.41259,-2.08389 93.57348,-2.31108 128.54441,-9.06641 17.48545,-3.37765 44.39892,-3.6036 75.29009,-42.48242 15.4456,-19.43941 23.44898,-48.89063 22.76474,-69.05078 -0.68425,-20.16015 -5.62558,-32.11307 -8.99163,-40.2168 7.9565,19.15534 -5.09744,-23.08361 -7.62437,-44.05468 -1.81412,-15.05541 5.71068,-39.81197 53.19915,-66.47657 12.81345,-7.19469 47.38255,-16.4414 81.9491,-16.4414 z"
       sodipodi:nodetypes="ssssssssssssssssccscsssccsccsssscccscssssccsscccsssscsscsssccssssssscssss" />
  </g>
  <g
     fill="#ffffff"
     id="g4"
     transform="rotate(-90,-7.618025,1795.0712)" />
  <g
     fill="#ffffff"
     id="g5"
     transform="rotate(-90,1706.5598,1686.1413)">
    <path
       id="path4"
       style="display:inline;fill-rule:evenodd;stroke-width:100;stroke-dasharray:none"
       d="m 1488.2031,733.98558 c -23.2558,79.94211 -95.4849,163.09123 -199.0898,161.79883 -36.2313,-0.452 -62.6154,-5.0377 -89.1133,-19.9375 1.2287,38.35449 -0.11,86.22114 -0.7363,111.37305 -3.9778,96.18214 -22.6977,143.58354 -75.668,182.10364 -93.4604,45.2828 -184.35732,23.1793 -287.02152,26.4102 61.52533,97.8574 22.21854,210.2751 -71.95504,270.7754 -34.69549,19.4825 -82.78853,29.2246 -130.88086,29.2246 -48.09235,0 -96.1853,-9.7421 -130.88281,-29.2246 C 431.03813,1426.184 392.51382,1364.8319 400,1302.7045 c 3.2851,-27.2632 9.76539,-58.7006 14.40039,-69.8594 19.11006,-46.0071 -156.40246,1.1718 -232.36338,-54.0628 -59.19224,-43.0415 -78.78576,-97.4291 -78.78906,-218.91033 -0.01,-363.08203 1.00176,-193.95357 -0.0195,-567.34776 0,-204.8311 25.5473,-256.6071 140.93946,-285.6308 64.95643,-16.338099 232.75193,-8.695239 256.56455,10.89676 26.50572,21.808 26.11055,75.6906 -0.96484,131.9785 -19.31308,40.1505 -19.58759,47.947 -2.7461,77.6934 24.77387,43.757 68.07361,64.0371 136.7168,64.0371 68.64324,0 111.94291,-20.2801 136.7168,-64.0371 16.84146,-29.7464 16.56491,-60.38458 -2.74805,-100.53508 -59.56443,-123.8304 59.03476,-141.91175 272.70393,-131.19323 207.3331,10.40068 154.6391,36.29442 162.1378,291.48607 0.2064,18.9637 0.036,34.3273 0.4805,46.7012 80.0942,-33.4122 180.68,-23.0609 238.7968,50.1856 37.7312,47.5536 56.66,102.00825 57.8399,155.74614 1.1112,50.60853 -4.9222,71.64912 -11.4629,94.13281 z M 1400,645.20043 c -1.6231,-35.27735 -13.0189,-71.00881 -36.211,-100.2384 -29.3021,-36.9304 -85.2918,-42.5395 -136.2675,-13.6504 -43.2559,24.514 -70.7425,22.8119 -100.002,-6.1953 -18.9845,-18.821 -22.2419,-49.6732 -23.2305,-137.8965 0,-143.6082 -0.7708,-190.39237 -1.75,-191.48607 -18.1736,-20.29966 -142.70451,-14.52154 -243.35431,0 14.63805,28.63015 20.51842,60.82671 22.68249,93.33181 1.34,37.8695 -14.4836,68.3014 -24.8301,86.5761 -42.53429,75.1261 -134.9307,114.293 -223.30075,114.293 -88.37001,0 -180.76657,-39.1668 -223.30078,-114.293 -10.34574,-18.2732 -26.17032,-48.7003 -24.83204,-86.5703 -1.0947,-32.45611 15.58749,-59.49708 27.30079,-88.2812 -19.07033,-1.7172 -40.31397,-3.234 -63.44727,-4.0821 -90.31294,-3.31082 -115.62628,1.5222 -129.83994,30.32784 -6.87082,13.9245 -17.09961,67.1301 -17.09961,165.4883 0,38.2952 0.0185,548.72901 0.0215,567.33018 0.0101,55.50161 5.39053,89.02741 11.42969,105.80681 44.46043,79.9634 124.71532,41.2452 203.17979,52.9144 117.13111,23.8288 106.80996,105.2889 81.43945,195.8046 -4.09268,14.6017 5.71075,39.812 53.19922,66.4766 12.81345,7.1947 47.38267,16.4414 81.94922,16.4414 34.56651,0 69.13578,-9.2467 81.94922,-16.4414 58.18874,-32.6727 63.85644,-64.076 50.11523,-90.1875 h -0.002 l -17.25391,-32.7832 c -15.79968,-30.0201 -14.9207,-65.9855 2.31836,-95.2168 17.23905,-29.2312 48.42259,-65.8559 82.56055,-66.9355 81.16137,-6.4085 137.93428,10.5134 218.5078,-1.7364 65.6976,-18.7647 48.2966,-123.33801 48.043,-175.42196 -0.016,-91.9256 3.7861,-112.20715 24.9805,-133.21875 29.5273,-29.2726 75.719,-31.95945 109.5527,-6.58985 13.3454,10.007 38.4807,18.37305 55.8574,18.58985 C 1359.842,798.22335 1400,707.71528 1400,645.20243 Z"
       sodipodi:nodetypes="sscccccsssssscssssssssccssscsscssccssssscscsssssscccscsssscssc" />
  </g>
</svg>
