<?xml version="1.0" encoding="UTF-8" standalone="no"?>
<svg
   id="svg3"
   height="1600"
   viewBox="0 0 1600 1600"
   width="1600"
   version="1.1"
   xmlns="http://www.w3.org/2000/svg"
   xmlns:svg="http://www.w3.org/2000/svg" xmlns:inkscape="http://www.inkscape.org/namespaces/inkscape" xmlns:sodipodi="http://sodipodi.sourceforge.net/DTD/sodipodi-0.dtd"><sodipodi:namedview pagecolor="#303030" showgrid="true"><inkscape:grid id="grid5" units="px" spacingx="100" spacingy="100" color="#4772b3" opacity="0.2" visible="true" /></sodipodi:namedview>
  <defs
     id="defs1" />
  <g
     id="g1">
    <path
       id="path1"
       d="m516.03711 33c-1.12017 0-2.03711.916939-2.03711 2.037109v.962891h-2.46289c-.84275 0-1.53711.694363-1.53711 1.537109v7.925782c0 .842746.69436 1.537109 1.53711 1.537109h5.92578c.73741 0 1.36143-.531036 1.50586-1.228516.0206-.09964.03119-.20325.03119-.308593v-7.925782c.00005-.842746-.6943-1.537109-1.53705-1.537109h-2.46289v-.962891c0-.582623.45448-1.037109 1.03711-1.037109h4.92578c.58263 0 1.03711.454486 1.03711 1.037109v5.058594c-.58287.214917-1 .784944-1 1.441406v1.925782c.00003.27613.22387.499972.5.5h.5v2.037109h1v-2.037109h.5c.27613-.000028.49997-.22387.5-.5v-1.925782c0-.656466-.41713-1.22649-1-1.441406v-5.058594c0-1.12017-.91694-2.037109-2.03711-2.037109zm-4.5 10h5.92578c.30605 0 .53711.231066.53711.537109v1.925782c0 .306043-.23106.537109-.53711.537109h-5.92578c-.30605 0-.53711-.231066-.53711-.537109v-1.925782c0-.306043.23106-.537109.53711-.537109zm.46289 1v1h1v-1zm2 0v1h1v-1z"
       fill="#fff"
       transform="matrix(100 0 0 100 -50900 -3200)" />
  </g>
</svg>
