<svg height="1600" viewBox="0 0 1600 1600" width="1600" xmlns="http://www.w3.org/2000/svg" xmlns:inkscape="http://www.inkscape.org/namespaces/inkscape" xmlns:sodipodi="http://sodipodi.sourceforge.net/DTD/sodipodi-0.dtd"><sodipodi:namedview pagecolor="#303030" showgrid="true"><inkscape:grid id="grid5" units="px" spacingx="100" spacingy="100" color="#4772b3" opacity="0.2" visible="true" /></sodipodi:namedview><g fill="#fff"><g enable-background="new"><path d="m516.03711 33c-1.12017 0-2.03711.916938-2.03711 2.037109v.962891c-.0409.706384 1.0409.706384 1 0v-.962891c0-.582624.45448-1.037109 1.03711-1.037109h4.92578c.58263 0 1.03711.454485 1.03711 1.037109v5.058594c-.58287.214917-1 .784943-1 1.441406v1.925782c.00003.276131.22387.499972.5.5h.5v2.037109h1v-2.037109h.5c.27613-.000028.49997-.223869.5-.5v-1.925782c0-.656467-.41713-1.22649-1-1.441406v-5.058594c0-1.120171-.91694-2.037109-2.03711-2.037109z" transform="matrix(100 0 0 100 -50899.99999999999 -3200)"/><path d="m616 85h1v.999999h-1zm-2 0h1v.999999h-1zm-.46289-8c-.84275 0-1.53711.694362-1.53711 1.537109v7.925782c0 .842747.69436 1.537109 1.53711 1.537109h5.92578c.73741 0 1.36143-.531036 1.50586-1.228516.0206-.09964.0312-.20325.0312-.308593v-7.925782c.00005-.842747-.69431-1.537109-1.53706-1.537109zm0 7h5.92578c.30605 0 .53711.231065.53711.537109v1.925782c0 .306044-.23106.537109-.53711.537109h-5.92578c-.30605 0-.53711-.231065-.53711-.537109v-1.925782c0-.306044.23106-.537109.53711-.537109z" transform="matrix(100 0 0 100 -61099.99999999999 -7300)"/></g></g></svg>