<svg height="1600" viewBox="0 0 1600 1600" width="1600" xmlns="http://www.w3.org/2000/svg" xmlns:inkscape="http://www.inkscape.org/namespaces/inkscape" xmlns:sodipodi="http://sodipodi.sourceforge.net/DTD/sodipodi-0.dtd"><sodipodi:namedview pagecolor="#303030" showgrid="true"><inkscape:grid id="grid5" units="px" spacingx="100" spacingy="100" color="#4772b3" opacity="0.2" visible="true" /></sodipodi:namedview><g fill="#fff"><path d="m206.72656 599c-.19328-.004-.38654.0132-.57422.0508-.75071.15014-1.44693.5778-2.00586 1.13672l-2.14453 2.10742-1.14843-1.14844a.50005.50005 0 0 0 -.35938-.15234.50005.50005 0 0 0 -.34766.85938l1.64649 1.64648-4.64844 4.68945a.50005.50005 0 0 0 -.14453.35155v.79296l-1.85352 1.85352a.50005.50005 0 1 0 .70704.70703l2-2a.50005.50005 0 0 0 .14648-.35351v-.79493l4.50195-4.53711 1.29297 1.29297-4.5039 4.53907h-.79102a.50005.50005 0 0 0 -.35352.14648l-2 2a.50005.50005 0 1 0 .70704.70703l1.85351-1.85351h.79297a.50005.50005 0 0 0 .35547-.14844l4.64648-4.6836 1.64453 1.64454a.50005.50005 0 1 0 .70704-.70704l-1.14258-1.14257 2.13867-2.10547.004-.004c.55892-.55893.98657-1.25515 1.13671-2.00586.15015-.75072-.0189-1.58331-.63671-2.20117-.4634-.46339-1.04712-.67435-1.62696-.6875z" transform="matrix(100 0 0 100 -19401.728 -59802.38)"/></g></svg>