<svg height="1600" viewBox="0 0 1600 1600" width="1600" xmlns="http://www.w3.org/2000/svg" xmlns:inkscape="http://www.inkscape.org/namespaces/inkscape" xmlns:sodipodi="http://sodipodi.sourceforge.net/DTD/sodipodi-0.dtd"><sodipodi:namedview pagecolor="#303030" showgrid="true"><inkscape:grid id="grid5" units="px" spacingx="100" spacingy="100" color="#4772b3" opacity="0.2" visible="true" /></sodipodi:namedview><g fill="#fff"><g enable-background="new"><path d="m52.49219 179.00781c-.1326.00004-.25976.0527-.35352.1465l-2.980087 2.96444c-.12064.11597-.14648.22852-.14648.35352v2.53315h1l.003-2.32915 2.684077-2.66846h8.29297v8.29298l-2.730276 2.69699-2.262334.003v1h2.466854c.11717 0 .23766-.0261.3457-.13867l3.033606-3.00033c.0938-.0938.14646-.22091.14649-.35352v-9c-.00003-.27612-.22387-.49996-.5-.5z" opacity=".6" transform="matrix(100 0 0 100 -4699.174 -17802.6913)"/><path d="m6.4818091 122.96135c-.1592654-.001-.516986.087-.4960937.48465l-.00781 6.03971c.0000276.27613.2238691.49997.5.5h6.0356916c.235331.002.481037-.17264.475555-.49925-.0029-.17416-.0016-1.65682.000316-1.94881.0029-.44725-.236518-.47226-.460246-.47182s-3.5227115-.004-3.5227115-.004-.00434-2.02425.00601-3.62304c.00284-.43846-.2571116-.47024-.5021009-.4681-.6989961.007-1.4515221-.005-2.0286105-.009z" transform="matrix(100 0 0 100 -497.836 -11496.6625)"/></g></g></svg>