<svg height="1600" viewBox="0 0 1600 1600" width="1600" xmlns="http://www.w3.org/2000/svg" xmlns:inkscape="http://www.inkscape.org/namespaces/inkscape" xmlns:sodipodi="http://sodipodi.sourceforge.net/DTD/sodipodi-0.dtd"><sodipodi:namedview pagecolor="#303030" showgrid="true"><inkscape:grid id="grid5" units="px" spacingx="100" spacingy="100" color="#4772b3" opacity="0.2" visible="true" /></sodipodi:namedview><g fill="#fff"><g enable-background="new" transform="matrix(100 0 0 100 -4699.6095 -17800.391)"><path d="m48.5 183c-.27613.00004-.49997.22388-.5.5v9c.00003.27614.22387.49997.5.5h9c.27613-.00003.49997-.22386.5-.5v-9c-.00003-.27612-.22387-.49996-.5-.5z" fill-rule="evenodd"/><path d="m52.49219 179.00781c-.1326.00004-.25976.0527-.35352.1465l-1.99219 1.99217c-.12064.11597-.14648.22852-.14648.35352v.5h1l.003-.296 1.69618-1.69619h8.29297v8.29298l-1.69667 1.69666-.29548.00255v1h.5c.11717 0 .23766-.0261.3457-.13867l2-2c.0938-.0938.14646-.22091.14649-.35352v-9c-.00003-.27612-.22387-.49996-.5-.5z" opacity=".6"/></g></g></svg>