<svg height="1600" viewBox="0 0 1500 1600" width="1500" xmlns="http://www.w3.org/2000/svg" xmlns:inkscape="http://www.inkscape.org/namespaces/inkscape" xmlns:sodipodi="http://sodipodi.sourceforge.net/DTD/sodipodi-0.dtd"><sodipodi:namedview pagecolor="#303030" showgrid="true"><inkscape:grid id="grid5" units="px" spacingx="100" spacingy="100" color="#4772b3" opacity="0.2" visible="true" /></sodipodi:namedview><g fill="#fff"><g enable-background="new" transform="translate(-233 -365)"><path d="m1028 1556c-3.2833 0-6 2.4414-6 5.5 0 1.7056.9046 3.146 2.1523 4.3594l.9942.9941a.50004997.50004997 0 0 0 .3027.1485.50004997.50004997 0 0 0 .051.998h5a.50004997.50004997 0 0 0 .045-.998.50004997.50004997 0 0 0 .3086-.1485l.9981-.998c1.2122-1.1985 2.1465-2.6518 2.1465-4.3535 0-3.0586-2.7167-5.5-6-5.5zm0 1c2.7919 0 5 2.0358 5 4.5 0 1.3342-.7428 2.5488-1.8516 3.6445l-1 1a.50004997.50004997 0 0 0 .2793.8535h-4.8594a.50004997.50004997 0 0 0 .2871-.8535l-1-1a.50004997.50004997 0 0 0 -.01-.01c-1.1397-1.1082-1.8477-2.2864-1.8477-3.6406 0-2.4642 2.2081-4.5 5-4.5zm-2.5 12a.50004997.50004997 0 1 0 0 1h1.5v.5a.50004997.50004997 0 0 0 .5.5h1a.50004997.50004997 0 0 0 .5-.5v-.5h1.5a.50004997.50004997 0 1 0 0-1z"/><path d="m1025.4902 1561.0059a.50005.50005 0 0 0 -.3437.8476l.8535.8535v1.543a.50005.50005 0 1 0 1 0v-1.25h2v1.25a.50005.50005 0 1 0 1 0v-1.543l.8535-.8535a.50005.50005 0 0 0 -.707-.707l-.8535.8535h-2.586l-.8535-.8535a.50005.50005 0 0 0 -.3633-.1406z" opacity=".6"/></g><path d="m516.49219 557a.50005.50005 0 0 0 -.34571.14648c-1.40179 1.4018-2.95709 1.85352-5.64648 1.85352a.50005.50005 0 0 0 -.5.5v3c0 2.46272.6805 4.06818 1.78711 5.27539 1.10661 1.20722 2.57356 2.02419 4.17773 3.13477a.50005.50005 0 0 0 .28516.08984h.5a.50005.50005 0 0 0 .28516-.0898c1.60417-1.11058 3.07112-1.92755 4.17773-3.13477 1.10661-1.20725 1.78711-2.81271 1.78711-5.27543v-3a.50005.50005 0 0 0 -.5-.5c-2.68939 0-4.24469-.45172-5.64648-1.85352a.50005.50005 0 0 0 -.36133-.14648zm.008 1.07031c1.42533 1.26825 3.16641 1.79779 5.5 1.86524v2.56445c0 2.28728-.5695 3.55682-1.52539 4.59961-.92707 1.01135-2.30655 1.81425-3.88867 2.90039h-.17188c-1.58212-1.08614-2.9616-1.88904-3.88867-2.90039-.95608-1.04279-1.52558-2.31233-1.52558-4.59961v-2.56445c2.33359-.0675 4.07467-.59699 5.5-1.86524z" opacity=".6" transform="matrix(100 0 0 100 -50899.99999999999 -55599.997)"/></g></svg>