<svg height="1600" viewBox="0 0 1500 1600" width="1500" xmlns="http://www.w3.org/2000/svg" xmlns:inkscape="http://www.inkscape.org/namespaces/inkscape" xmlns:sodipodi="http://sodipodi.sourceforge.net/DTD/sodipodi-0.dtd"><sodipodi:namedview pagecolor="#303030" showgrid="true"><inkscape:grid id="grid5" units="px" spacingx="100" spacingy="100" color="#4772b3" opacity="0.2" visible="true" /></sodipodi:namedview><g fill="#fff"><path d="m537.4922 557c-.1299 0-.2539.055-.3457.1465-1.4018 1.4018-2.9571 1.8535-5.6465 1.8535-.2761 0-.5.2239-.5.5v3c0 2.4627.6805 4.0682 1.7871 5.2754s2.5736 2.0242 4.1777 3.1348c.084.058.1832.09.2852.09h.5c.102-.0002.2015-.032.2852-.09 1.6041-1.1106 3.0711-1.9276 4.1777-3.1348s1.7871-2.8127 1.7871-5.2754v-3c0-.2761-.2239-.5-.5-.5-2.6894 0-4.2447-.4517-5.6465-1.8535-.096-.096-.226-.1486-.3613-.1465zm3.4766 3.9902a1.0001 1.0001 0 0 1 .8124 1.6348l-4 5a1.0001 1.0001 0 0 1 -1.4882.082l-2-2a1.0001 1.0001 0 1 1 1.414-1.414l1.209 1.209 3.3028-4.127a1.0001 1.0001 0 0 1 .75-.3848z" transform="matrix(100 0 0 100 -52999.99999999999 -55600.007)"/></g></svg>