<svg height="1600" viewBox="0 0 1500 1600" width="1500" xmlns="http://www.w3.org/2000/svg" xmlns:inkscape="http://www.inkscape.org/namespaces/inkscape" xmlns:sodipodi="http://sodipodi.sourceforge.net/DTD/sodipodi-0.dtd"><sodipodi:namedview pagecolor="#303030" showgrid="true"><inkscape:grid id="grid5" units="px" spacingx="100" spacingy="100" color="#4772b3" opacity="0.2" visible="true" /></sodipodi:namedview><g fill="#fff"><path d="m516.49219 557a.50005.50005 0 0 0 -.34571.14648c-1.40179 1.4018-2.95709 1.85352-5.64648 1.85352a.50005.50005 0 0 0 -.5.5v3c0 2.46272.6805 4.06818 1.78711 5.27539 1.10661 1.20722 2.57356 2.02419 4.17773 3.13477a.50005.50005 0 0 0 .28516.08984h.5a.50005.50005 0 0 0 .28516-.0898c1.60417-1.11058 3.07112-1.92755 4.17773-3.13477 1.10661-1.20725 1.78711-2.81271 1.78711-5.27543v-3a.50005.50005 0 0 0 -.5-.5c-2.68939 0-4.24469-.45172-5.64648-1.85352a.50005.50005 0 0 0 -.36133-.14648zm.008 1.07031c1.42533 1.26825 3.16641 1.79779 5.5 1.86524v2.56445c0 2.28728-.5695 3.55682-1.52539 4.59961-.92707 1.01135-2.30655 1.81425-3.88867 2.90039h-.17188c-1.58212-1.08614-2.9616-1.88904-3.88867-2.90039-.95608-1.04279-1.52558-2.31233-1.52558-4.59961v-2.56445c2.33359-.0675 4.07467-.59699 5.5-1.86524z" opacity=".6" transform="matrix(100 0 0 100 -50899.99999999999 -55599.997)"/></g></svg>