<svg height="1600" viewBox="0 0 1600 1600" width="1600" xmlns="http://www.w3.org/2000/svg" xmlns:inkscape="http://www.inkscape.org/namespaces/inkscape" xmlns:sodipodi="http://sodipodi.sourceforge.net/DTD/sodipodi-0.dtd"><sodipodi:namedview pagecolor="#303030" showgrid="true"><inkscape:grid id="grid5" units="px" spacingx="100" spacingy="100" color="#4772b3" opacity="0.2" visible="true" /></sodipodi:namedview><g fill="#fff"><g enable-background="new" transform="translate(-233 -365)"><path d="m1028 1556c-3.2833 0-6 2.4414-6 5.5 0 1.7056.9046 3.146 2.1523 4.3594l.9942.9941a.50004997.50004997 0 0 0 .3027.1485.50004997.50004997 0 0 0 .051.998h5a.50004997.50004997 0 0 0 .045-.998.50004997.50004997 0 0 0 .3086-.1485l.9981-.998c1.2122-1.1985 2.1465-2.6518 2.1465-4.3535 0-3.0586-2.7167-5.5-6-5.5zm0 1c2.7919 0 5 2.0358 5 4.5 0 1.3342-.7428 2.5488-1.8516 3.6445l-1 1a.50004997.50004997 0 0 0 .2793.8535h-4.8594a.50004997.50004997 0 0 0 .2871-.8535l-1-1a.50004997.50004997 0 0 0 -.01-.01c-1.1397-1.1082-1.8477-2.2864-1.8477-3.6406 0-2.4642 2.2081-4.5 5-4.5zm-2.5 12a.50004997.50004997 0 1 0 0 1h1.5v.5a.50004997.50004997 0 0 0 .5.5h1a.50004997.50004997 0 0 0 .5-.5v-.5h1.5a.50004997.50004997 0 1 0 0-1z"/><path d="m1025.4902 1561.0059a.50005.50005 0 0 0 -.3437.8476l.8535.8535v1.543a.50005.50005 0 1 0 1 0v-1.25h2v1.25a.50005.50005 0 1 0 1 0v-1.543l.8535-.8535a.50005.50005 0 0 0 -.707-.707l-.8535.8535h-2.586l-.8535-.8535a.50005.50005 0 0 0 -.3633-.1406z" opacity=".6"/></g><g enable-background="new" transform="matrix(100 0 0 100 -6800 -47200)"><path d="m74 477c-.710648 0-1.272904.36437-1.621094.82227-.348189.45789-.546604.99437-.748047 1.49023-.201442.49586-.404614.94894-.65039 1.24023s-.488802.44727-.980469.44727h-1v1h1c.758333 0 1.359057-.34402 1.746094-.80273.387036-.45871.605739-1.00563.810547-1.50977.204807-.50414.397017-.96766.61914-1.25977.222123-.2921.409867-.42773.824219-.42773.376652 0 .584084.165.837891.55664.253806.39164.470672.98903.689453 1.61524.21878.6262.438752 1.28115.794922 1.82812s.933457 1.00595 1.68164 1c.673157-.005 1.209041-.26371 1.570313-.62109.361272-.35739.571027-.77752.771484-1.14649.200458-.36897.389328-.68586.623047-.89258.233719-.20671.505651-.33984 1.03125-.33984h1v-1h-1c-.724401 0-1.296219.23882-1.695312.5918-.399094.35298-.632099.78332-.837891 1.16211-.205793.37878-.386663.70727-.595703.91406-.209041.20679-.423157.32843-.875.33203-.376817.003-.58078-.15803-.833985-.54688-.253205-.38884-.470733-.98529-.689453-1.61132-.218719-.62603-.439353-1.28142-.794922-1.83008-.355568-.54866-.929386-1.01172-1.677734-1.01172z" opacity=".99"/><path d="m82.5 473-13 .004a.50005.50005 0 0 0 -.5.5v6.496h1v-5.99609l12-.00391v4h1v-4.5a.50005.50005 0 0 0 -.5-.5zm-.5 8v5h-12v-3h-1v3.5a.50005.50005 0 0 0 .5.5h13a.50005.50005 0 0 0 .5-.5v-5.5z" fill-rule="evenodd" opacity=".6"/></g></g></svg>