<svg height="1500" viewBox="0 0 1500 1500" width="1500" xmlns="http://www.w3.org/2000/svg" xmlns:inkscape="http://www.inkscape.org/namespaces/inkscape" xmlns:sodipodi="http://sodipodi.sourceforge.net/DTD/sodipodi-0.dtd"><sodipodi:namedview pagecolor="#303030" showgrid="true"><inkscape:grid id="grid5" units="px" spacingx="100" spacingy="100" color="#4772b3" opacity="0.2" visible="true" /></sodipodi:namedview><g fill="#fff"><g enable-background="new" transform="translate(-233 -365)"><path d="m1028 1556c-3.2833 0-6 2.4414-6 5.5 0 1.7056.9046 3.146 2.1523 4.3594l.9942.9941a.50004997.50004997 0 0 0 .3027.1485.50004997.50004997 0 0 0 .051.998h5a.50004997.50004997 0 0 0 .045-.998.50004997.50004997 0 0 0 .3086-.1485l.9981-.998c1.2122-1.1985 2.1465-2.6518 2.1465-4.3535 0-3.0586-2.7167-5.5-6-5.5zm0 1c2.7919 0 5 2.0358 5 4.5 0 1.3342-.7428 2.5488-1.8516 3.6445l-1 1a.50004997.50004997 0 0 0 .2793.8535h-4.8594a.50004997.50004997 0 0 0 .2871-.8535l-1-1a.50004997.50004997 0 0 0 -.01-.01c-1.1397-1.1082-1.8477-2.2864-1.8477-3.6406 0-2.4642 2.2081-4.5 5-4.5zm-2.5 12a.50004997.50004997 0 1 0 0 1h1.5v.5a.50004997.50004997 0 0 0 .5.5h1a.50004997.50004997 0 0 0 .5-.5v-.5h1.5a.50004997.50004997 0 1 0 0-1z"/><path d="m1025.4902 1561.0059a.50005.50005 0 0 0 -.3437.8476l.8535.8535v1.543a.50005.50005 0 1 0 1 0v-1.25h2v1.25a.50005.50005 0 1 0 1 0v-1.543l.8535-.8535a.50005.50005 0 0 0 -.707-.707l-.8535.8535h-2.586l-.8535-.8535a.50005.50005 0 0 0 -.3633-.1406z" opacity=".6"/></g><g enable-background="new" stroke="none" transform="matrix(0 -100.17897 100 0 -57795.1844 41972.0971)"><path d="m405.46978 579.95581c-.0786.005 1.01466.006 2.75112.002-2.39046 1.17179-3.76136 4.49271-2.99824 7.27846s3.11603 4.49155 5.7784 4.71875l-.00084-1c-2.59859-.27264-4.17102-1.63685-4.81356-3.98242s.50423-5.20147 2.81719-6.15552c.009.80023-.0108 2.01265.00093 2.69464-.008.60881 1.01884.5718.99185-.0157-.002-.49551.001-3.60295.007-4.5362-1.4729.00082-2.81924-.00048-4.52617-.008-.62523.0109-.61936.99943-.009 1.00441z" transform="matrix(-1 0 0 -1 822.986 1170.90388)"/><path d="m405.45285 579.95581c-.0786.005 1.05365-.002 2.79011-.006-2.39046 1.17179-3.8662 4.53149-2.99824 7.28627.8992 2.85391 3.08617 4.49155 5.74854 4.71875l-.00084-1c-2.49653-.35216-4.00508-1.56869-4.7837-3.98242-.74659-2.31444.47303-5.20147 2.78599-6.15552.009.80023-.0108 2.01265.00093 2.69464-.008.60881 1.01884.5718.99185-.0157-.002-.49551.001-3.60295.007-4.5362-1.4729.00082-2.82703-.00048-4.53396-.008-.62523.0109-.61936.99943-.009 1.00441z"/></g></g></svg>