<svg height="1600" viewBox="0 0 1600 1600" width="1600" xmlns="http://www.w3.org/2000/svg" xmlns:inkscape="http://www.inkscape.org/namespaces/inkscape" xmlns:sodipodi="http://sodipodi.sourceforge.net/DTD/sodipodi-0.dtd"><sodipodi:namedview pagecolor="#303030" showgrid="true"><inkscape:grid id="grid5" units="px" spacingx="100" spacingy="100" color="#4772b3" opacity="0.2" visible="true" /></sodipodi:namedview><g fill="#fff"><g enable-background="new" opacity=".99" transform="matrix(-100 0 0 100 126400.005 29300.00000000001)"><path d="m1258.4766-286c-.1708.008-.3255.10335-.4102.25195l-4 7c-.1903.33312.05.74758.4336.74805h8c.3836-.00047.6239-.41493.4336-.74805l-4-7c-.093-.16311-.2694-.26042-.457-.25195z" opacity="1"/><path d="m1253.5-289c-.8225 0-1.5.67749-1.5 1.5s.6775 1.5 1.5 1.5 1.5-.67749 1.5-1.5-.6775-1.5-1.5-1.5z" opacity="1"/><path d="m27.5 11a.50005.50005 0 0 0 -.5.5v10.851562l1-1.75v-8.601562h12v12h-3.099609c.122248.339531.117057.686553.0039 1h3.595709a.50005.50005 0 0 0 .5-.5v-13a.50005.50005 0 0 0 -.5-.5z" fill-rule="evenodd" opacity="1" transform="matrix(-1 0 0 1 1290 -303)"/></g></g></svg>