<svg height="1600" viewBox="0 0 1400 1600" width="1400" xmlns="http://www.w3.org/2000/svg" xmlns:inkscape="http://www.inkscape.org/namespaces/inkscape" xmlns:sodipodi="http://sodipodi.sourceforge.net/DTD/sodipodi-0.dtd"><sodipodi:namedview pagecolor="#303030" showgrid="true"><inkscape:grid id="grid5" units="px" spacingx="100" spacingy="100" color="#4772b3" opacity="0.2" visible="true" /></sodipodi:namedview><g fill="#fff"><path d="m501.49219 52.992188c-.27615.004307-.49651.231666-.49219.507812v1c-.01.676161 1.00956.676161 1 0v-1c.004-.282265-.22554-.512227-.50781-.507812zm-6.00781.007812c-.12718.004-.248.0564-.3379.146484l-5 5c-.10126.101337-.1304.223491-.13086.345704l-.01562.015624v1.992188c-.01.676161 1.00956.676161 1 0v-1.5h4.5c.27613-.00003.49997-.22387.5-.5v-4.5h.5c.67616.0096.67616-1.009563 0-1h-1v.002c-.005-.000005-.0101-.0021-.0156-.002zm3.01562 0c-.67616-.0096-.67616 1.009563 0 1h1c.67616.0096.67616-1.009563 0-1zm2.99219 2.992188c-.27615.004307-.49651.231666-.49219.507812v1c-.01.676161 1.00956.676161 1 0v-1c.004-.282265-.22554-.512227-.50781-.507812zm0 3c-.27615.004307-.49651.231666-.49219.507812v1c-.01.676161 1.00956.676161 1 0v-1c.004-.282265-.22554-.512227-.50781-.507812zm-11 3c-.27615.004307-.49651.231666-.49219.507812v1c-.01.676161 1.00956.676161 1 0v-1c.004-.282265-.22554-.512227-.50781-.507812zm11 0c-.27615.004307-.49651.231666-.49219.507812v1c-.01.676161 1.00956.676161 1 0v-1c.004-.282265-.22554-.512227-.50781-.507812zm-11 3c-.27615.004306-.49651.231666-.49219.507812v1c-.01.676161 1.00956.676161 1 0v-1c.004-.282265-.22554-.512227-.50781-.507812zm11 0c-.27615.004306-.49651.231666-.49219.507812v1c-.01.676161 1.00956.676161 1 0v-1c.004-.282265-.22554-.512227-.50781-.507812zm-8.99219 1.007812c-.67616-.0096-.67616 1.009563 0 1h1c.67616.0096.67616-1.009563 0-1zm3 0c-.67616-.0096-.67616 1.009563 0 1h1c.67616.0096.67616-1.009563 0-1zm3 0c-.67616-.0096-.67616 1.009563 0 1h1c.67616.0096.67616-1.009563 0-1z" opacity=".99" transform="matrix(100 0 0 100 -48899.99999999999 -5199.962)"/></g></svg>