<svg id="svg1" height="1600" viewBox="0 0 1300 1600" width="1300" xmlns="http://www.w3.org/2000/svg" xmlns:inkscape="http://www.inkscape.org/namespaces/inkscape" xmlns:sodipodi="http://sodipodi.sourceforge.net/DTD/sodipodi-0.dtd"><sodipodi:namedview pagecolor="#303030" showgrid="true"><inkscape:grid id="grid5" units="px" spacingx="100" spacingy="100" color="#4772b3" opacity="0.2" visible="true" /></sodipodi:namedview><g id="g1"><g id="blender_back" fill="#000000"><path id="path3" d="m290.08594 100.09747c-84.37527-.0491-110.41156 55.06044-75.7793 105.76972 76.38681 86.89287 162.95176 167.07026 244.9082 249.09375-193.49635 253.44571-368.603119 532.69488-357.74023 881.17386l.041 1.3027.10742 1.2969c2.61031 29.4822 23.22687 133.5264 116.61132 157.8834 55.68848 12.4481 113.5052-13.2677 125.20118-45.9283 35.47222-99.0515 63.95214-169.3798 91.6914-237.6368 23.50503-46.7818 86.42852-116.0859 164.9375-189.7871 68.49394-64.29943 148.2883-133.6167 224.76758-204.24021 86.9876 86.35772 215.23829 215.71871 215.23829 215.71871l.2422.2461.248.2422c58.1557 57.0985 159.3387 17.1516 159.3205-60.55467l-.1816-774.72661c.1603-63.52082-31.9556-100.611847-100.1389-99.87109l.5723-.002z" fill-rule="evenodd"/></g><g id="blender_text" fill="#fff"><path id="path1" d="m343.4543 199.68778 756.6802.19663-.069 754.97994c-119.45831-120.47067-272.57589-274.2479-272.57589-274.2479s-242.83074 220.8077-297.41036 272.01548c-77.81386 73.00657-134.36278 142.64317-189.06751 222.86217-56.49533 107.5032-30.71607 69.0223-87.97614 226.6984-3.16329 8.0145-11.6295 6.0412-17.86491 3.1179-24.74096-11.9464-34.99898-43.4384-37.88909-69.1227-9.27065-318.7162 139.36525-563.41666 393.72253-891.1024z" fill-rule="evenodd"/></g></g></svg>