<svg id="svg1" height="1600" viewBox="0 0 1300 1600" width="1300" xmlns="http://www.w3.org/2000/svg" xmlns:inkscape="http://www.inkscape.org/namespaces/inkscape" xmlns:sodipodi="http://sodipodi.sourceforge.net/DTD/sodipodi-0.dtd"><sodipodi:namedview pagecolor="#303030" showgrid="true"><inkscape:grid id="grid5" units="px" spacingx="100" spacingy="100" color="#4772b3" opacity="0.2" visible="true" /></sodipodi:namedview><g id="blender.text" fill="#ffffffff"><path id="path1" d="m342.47029 196.48975 760.61621.44263.1772 758.91598c-119.45848-120.47067-188.7858-189.68607-275.77409-275.23191-117.79213 111.37988-242.83074 220.8077-297.41036 272.01548-77.81386 73.00657-134.36278 142.64317-189.06751 222.86217-5.00613 8.6996-30.71607 69.0223-87.97614 226.6984-4.55489 1.4044-10.5858 2.9101-17.86491 3.1179-24.74096-11.9464-34.99898-43.4384-37.88909-69.1227-9.27065-318.7162 139.36525-563.41666 393.72253-891.1024z" fill-rule="evenodd" /></g><g id="blender.back" fill="#00000000"><path id="path3" d="m290.08594 99.605469c-84.37527-.049137-110.41156 55.552441-75.7793 106.261721 76.38681 86.89287 162.95176 167.07026 244.9082 249.09375-193.49635 253.44571-368.603119 532.69488-357.74023 881.17386l.041 1.3027.10742 1.2969c2.61031 29.4822 23.22687 135.0024 116.61132 159.3594 55.68848 12.4481 113.5052-14.7437 125.20118-47.4043 35.47222-99.0515 63.95214-169.3798 91.6914-237.6368 23.50503-46.7818 86.42852-116.0859 164.9375-189.7871 68.49394-64.29943 148.2883-133.6167 224.76758-204.24021 86.9876 86.35772 215.23829 215.71871 215.23829 215.71871l.2422.2461.248.2422c58.1557 57.0985 159.8323 14.12 159.8125-60.55467v-.002l-.1816-774.72461c.1603-63.52082-32.4476-100.611847-100.6309-99.87109l.5723-.002zm55.3789 100.033201 754.72656.43945.1758 753.47266c-118.53346-119.60659-187.32396-188.32554-273.63868-273.25781-116.88003 110.58101-240.95043 219.22396-295.10743 270.06445-77.21133 72.48298-133.32237 141.61998-187.60351 221.26368-4.96736 8.6372-30.47822 68.5272-87.29492 225.0723-4.51961 1.3945-10.50382 2.8893-17.72657 3.0957-24.54939-11.8608-34.72798-43.1269-37.5957-68.627-9.19888-316.4302 138.2861-559.37552 390.67383-884.71093z" fill-rule="evenodd"/></g></svg>