<svg height="1600" viewBox="0 0 1600 1600" width="1600" xmlns="http://www.w3.org/2000/svg" xmlns:inkscape="http://www.inkscape.org/namespaces/inkscape" xmlns:sodipodi="http://sodipodi.sourceforge.net/DTD/sodipodi-0.dtd"><sodipodi:namedview pagecolor="#303030" showgrid="true"><inkscape:grid id="grid5" units="px" spacingx="100" spacingy="100" color="#4772b3" opacity="0.2" visible="true" /></sodipodi:namedview><g fill="#fff"><path d="m447.49219 73.99409c-.27615.0043-.49651.231666-.49219.507812v12.992188c-.005.338081.24757.509435.5.507812l.5-.0039v-1.996094h2v1.996094h8v-1.996094h2v1.996094h.5c.25244 0 .50478-.169732.5-.507812v-12.988288c.005-.338081-.24762-.509415-.5-.507812l-.5.0039v2.003906h-2v-2.003906h-8v2.003906h-2v-2.003906zm.50781 3.007812h2v2h-2zm10 0h2v2h-2zm-5.52344 1.003906c.1005-.004.20016.02317.28516.07617l4 2.5c.3129.1959.3129.651757 0 .847657l-4 2.5c-.3331.2087-.76573-.03073-.76563-.423829v-5c-.0002-.2687.21197-.489.48047-.5zm-4.47656 1.996094h2v2h-2zm10 0h2v2h-2zm-10 3h2v1.992188h-2zm10 0h2v1.992188h-2z" opacity=".99" transform="matrix(100 0 0 100 -44600 -7299.8)"/></g></svg>