<svg height="1600" viewBox="0 0 1600 1600" width="1600" xmlns="http://www.w3.org/2000/svg" xmlns:inkscape="http://www.inkscape.org/namespaces/inkscape" xmlns:sodipodi="http://sodipodi.sourceforge.net/DTD/sodipodi-0.dtd"><sodipodi:namedview pagecolor="#303030" showgrid="true"><inkscape:grid id="grid5" units="px" spacingx="100" spacingy="100" color="#4772b3" opacity="0.2" visible="true" /></sodipodi:namedview><g fill="#fff"><g enable-background="new" transform="translate(-233 -365)"><path d="m1028 1556c-3.2833 0-6 2.4414-6 5.5 0 1.7056.9046 3.146 2.1523 4.3594l.9942.9941a.50004997.50004997 0 0 0 .3027.1485.50004997.50004997 0 0 0 .051.998h5a.50004997.50004997 0 0 0 .045-.998.50004997.50004997 0 0 0 .3086-.1485l.9981-.998c1.2122-1.1985 2.1465-2.6518 2.1465-4.3535 0-3.0586-2.7167-5.5-6-5.5zm0 1c2.7919 0 5 2.0358 5 4.5 0 1.3342-.7428 2.5488-1.8516 3.6445l-1 1a.50004997.50004997 0 0 0 .2793.8535h-4.8594a.50004997.50004997 0 0 0 .2871-.8535l-1-1a.50004997.50004997 0 0 0 -.01-.01c-1.1397-1.1082-1.8477-2.2864-1.8477-3.6406 0-2.4642 2.2081-4.5 5-4.5zm-2.5 12a.50004997.50004997 0 1 0 0 1h1.5v.5a.50004997.50004997 0 0 0 .5.5h1a.50004997.50004997 0 0 0 .5-.5v-.5h1.5a.50004997.50004997 0 1 0 0-1z"/><path d="m1025.4902 1561.0059a.50005.50005 0 0 0 -.3437.8476l.8535.8535v1.543a.50005.50005 0 1 0 1 0v-1.25h2v1.25a.50005.50005 0 1 0 1 0v-1.543l.8535-.8535a.50005.50005 0 0 0 -.707-.707l-.8535.8535h-2.586l-.8535-.8535a.50005.50005 0 0 0 -.3633-.1406z" opacity=".6"/></g><path d="m483.5 84c-1.37106-.00001-2.49465 1.119188-2.5 2.490234-.00001.0039-.00001.0078 0 .01172.001.275368.22463.498022.5.498047h3c.28206 0 .5.217938.5.5s-.21794.5-.5.5l-3.5-.0039c-.12499 0-.85445-.01071-1.57617.36914-.72172.379837-1.42383 1.230853-1.42383 2.630853v.996094c0 1.40001.70038 2.249949 1.42188 2.630859.72147.38091 1.45054.373047 1.57812.373047v.507812c-.00001.0032-.00001.0065 0 .0098.005 1.371211 1.12894 2.490244 2.5 2.490234h3c1.37479 0 2.5-1.125211 2.5-2.5v-.507812c.1276 0 .85475.0079 1.57617-.373047.72142-.380914 1.42358-1.23089 1.42383-2.630859v-.994141c.00002-1.567832-.66959-2.346488-1.13672-2.841797-.0911-.09952-.21863-.157986-.35351-.162109-.45031-.01416-.68821.527665-.37305.849609.47073.499131.8633.831529.86328 2.154297v.994141c-.00019 1.100029-.42466 1.502011-.89062 1.748046-.46599.246036-.98698.25586-1.10938.25586l-3.5.003872c-.67616-.0096-.67616 1.009563 0 1l2.5-.002v.505859c0 .834349-.66565 1.5-1.5 1.5h-3c-.832.000006-1.49698-.662318-1.5-1.49414v-2.509719c0-.63889.20453-1.122504.54102-1.458984.33648-.33649.82009-.541016 1.45898-.541016h2.5c.725 0 1.37138-.226854 1.82227-.677734.45088-.45089.67773-1.097266.67773-1.822266v-2c0-1.374789-1.12521-2.5-2.5-2.5z" transform="matrix(100 0 0 100 -47699.99999999999 -8300.197)"/></g></svg>