<svg height="1600" viewBox="0 0 1400 1600" width="1400" xmlns="http://www.w3.org/2000/svg" xmlns:inkscape="http://www.inkscape.org/namespaces/inkscape" xmlns:sodipodi="http://sodipodi.sourceforge.net/DTD/sodipodi-0.dtd"><sodipodi:namedview pagecolor="#303030" showgrid="true"><inkscape:grid id="grid5" units="px" spacingx="100" spacingy="100" color="#4772b3" opacity="0.2" visible="true" /></sodipodi:namedview><g fill="#fff"><g enable-background="new" transform="translate(-233 -365)"><path d="m1028 1556c-3.2833 0-6 2.4414-6 5.5 0 1.7056.9046 3.146 2.1523 4.3594l.9942.9941a.50004997.50004997 0 0 0 .3027.1485.50004997.50004997 0 0 0 .051.998h5a.50004997.50004997 0 0 0 .045-.998.50004997.50004997 0 0 0 .3086-.1485l.9981-.998c1.2122-1.1985 2.1465-2.6518 2.1465-4.3535 0-3.0586-2.7167-5.5-6-5.5zm0 1c2.7919 0 5 2.0358 5 4.5 0 1.3342-.7428 2.5488-1.8516 3.6445l-1 1a.50004997.50004997 0 0 0 .2793.8535h-4.8594a.50004997.50004997 0 0 0 .2871-.8535l-1-1a.50004997.50004997 0 0 0 -.01-.01c-1.1397-1.1082-1.8477-2.2864-1.8477-3.6406 0-2.4642 2.2081-4.5 5-4.5zm-2.5 12a.50004997.50004997 0 1 0 0 1h1.5v.5a.50004997.50004997 0 0 0 .5.5h1a.50004997.50004997 0 0 0 .5-.5v-.5h1.5a.50004997.50004997 0 1 0 0-1z"/><path d="m1025.4902 1561.0059a.50005.50005 0 0 0 -.3437.8476l.8535.8535v1.543a.50005.50005 0 1 0 1 0v-1.25h2v1.25a.50005.50005 0 1 0 1 0v-1.543l.8535-.8535a.50005.50005 0 0 0 -.707-.707l-.8535.8535h-2.586l-.8535-.8535a.50005.50005 0 0 0 -.3633-.1406z" opacity=".6"/></g><path d="m521.5 84c-.6573.0093-.6573.990704 0 1h.25c.75 0 1.25.5 1.25 1.25v9.500004c0 .75-.5 1.25-1.25 1.25h-.25c-.6573.0093-.6573.990704 0 1h.25 5.5.25c.6573-.0093.6573-.990704 0-1h-.25c-.75-.000004-1.25-.500004-1.25-1.250004v-4.75h2.5c.0833 0 .22505.05708.33398.166016.10893.108931.16602.250651.16602.333984.009.657305.9907.657305 1 0v-2c-.004-.281658-.24005-.504291-.52148-.492188-.26471.01138-.4746.22726-.47852.492188 0 .08333-.0571.225053-.16602.333984-.10893.108931-.25065.166016-.33398.166016h-2.5v-5h4.75004c.0104-.294737.61631.167956.86328.433594.24689.265637.38668.620688.38668.816406v.25c.009.657305.9907.657305 1 0v-2c-.00003-.276131-.22387-.499972-.5-.5h-1.75-9z" transform="matrix(100 0 0 100 -52000.351 -8300)"/></g></svg>