<svg id="svg4185" height="1300" viewBox="0 0 1600 1300" width="1600" xmlns="http://www.w3.org/2000/svg" xmlns:inkscape="http://www.inkscape.org/namespaces/inkscape" xmlns:sodipodi="http://sodipodi.sourceforge.net/DTD/sodipodi-0.dtd"><sodipodi:namedview pagecolor="#303030" showgrid="true"><inkscape:grid id="grid5" units="px" spacingx="100" spacingy="100" color="#4772b3" opacity="0.2" visible="true" /></sodipodi:namedview><g transform="matrix(3.40716 0 0 3.4049685 6.883458 -2342.962)"><path id="path3350" d="m46.165476 717.44637h93.219344c15.7258.001 18.61638 5.95025 22.81669 10.88994l14.74763 16.42645c1.19974 1.50075 2.35846 2.05667 4.90331 2.04456h237.11359c11.80105 0 19.25432 7.94778 19.25432 18.963l-.00003 264.87648c0 5.5144-4.70131 9.9062-10.21572 9.9068l-390.848314.043c-5.51443.0006-9.850844-4.4137-9.850844-9.9281v-294.25912c0-10.22939 7.58285-18.96301 18.860024-18.96301z" fill="#b2b2b2"/><path id="rect3347" d="m46.165476 776.17182h372.800564c11.80105 0 19.17809 7.94779 19.1815 18.96301l.0728 235.53337c.002 5.5144-4.73072 9.8744-10.24513 9.8748l-390.818934.028c-5.51443.0004-9.850844-4.388-9.850844-9.9024v-235.53377c0-10.22939 7.58285-18.96301 18.860024-18.96301z" fill="#fff"/><g id="g2" fill-opacity=".15"><path id="rect4358" d="m45.643295 1008.0261h374.05457v3.143315h-374.05457z"/><path id="rect4362" d="m45.46962 993.42914h374.05457v3.143315h-374.05457z"/><path id="rect4360" d="m45.538475 978.53735h374.05457v3.143315h-374.05457z"/></g></g></svg>