<svg height="1400" viewBox="0 0 1300 1400" width="1300" xmlns="http://www.w3.org/2000/svg" xmlns:inkscape="http://www.inkscape.org/namespaces/inkscape" xmlns:sodipodi="http://sodipodi.sourceforge.net/DTD/sodipodi-0.dtd"><sodipodi:namedview pagecolor="#303030" showgrid="true"><inkscape:grid id="grid5" units="px" spacingx="100" spacingy="100" color="#4772b3" opacity="0.2" visible="true" /></sodipodi:namedview><g fill="#fff"><path d="m261.44603 53.01256c-.12976.0036-.25303.05754-.34375.15039l-2.98353 2.983534c-.19518.195265-.19518.511767 0 .707032l2.98353 2.983534c.47126.490506 1.19754-.235768.70704-.707032l-2.13002-2.130018h7.78214c.83435 0 1.5.665651 1.5 1.5v5c-.01.676161 1.00956.676161 1 0v-5c0-1.374789-1.12521-2.5-2.5-2.5h-7.78214l2.13002-2.130018c.32528-.318006.0914-.869901-.36329-.857422z" transform="matrix(0 100 100 0 -5200.9736 -25696.694)"/></g></svg>