<svg height="1600" viewBox="0 0 1600 1600" width="1600" xmlns="http://www.w3.org/2000/svg" xmlns:inkscape="http://www.inkscape.org/namespaces/inkscape" xmlns:sodipodi="http://sodipodi.sourceforge.net/DTD/sodipodi-0.dtd"><sodipodi:namedview pagecolor="#303030" showgrid="true"><inkscape:grid id="grid5" units="px" spacingx="100" spacingy="100" color="#4772b3" opacity="0.2" visible="true" /></sodipodi:namedview><g enable-background="new" transform="matrix(100 0 0 100 -40300.002 6599.822)"><path d="m411-65h1v3h-1zm-1 3h1v3h-1z" fill="#fff"/><path d="m408.50004-53.446439c0 1.0803-.892 1.95-2 1.95s-2-.8697-2-1.95l.00001-2.05h4z" fill="none" stroke="#fff" stroke-linejoin="round"/><g fill="#fff"><path d="m404.50005-58.496439h4v3h-4z" stroke="#fff" stroke-linecap="round" stroke-linejoin="round"/><path d="m408.50005-63.496439h-2-1-1v3h4z" stroke="#fff" stroke-linecap="round" stroke-linejoin="round"/><path d="m414-65h1v3h-1zm-1 3h1v3h-1z"/><path d="m417-65h1v3h-1zm-1 3h1v3h-1z"/></g></g></svg>