<svg height="1600" viewBox="0 0 1500 1600" width="1500" xmlns="http://www.w3.org/2000/svg" xmlns:inkscape="http://www.inkscape.org/namespaces/inkscape" xmlns:sodipodi="http://sodipodi.sourceforge.net/DTD/sodipodi-0.dtd"><sodipodi:namedview pagecolor="#303030" showgrid="true"><inkscape:grid id="grid5" units="px" spacingx="100" spacingy="100" color="#4772b3" opacity="0.2" visible="true" /></sodipodi:namedview><g fill="#fff"><path d="m475.25 53a.50005.50005 0 0 0 -.21289.04687l-5.75391 2.708984a.50005.50005 0 0 0 -.28515.453125v7.292969a.50005.50005 0 0 0 .27539.447266l6.00195 3.001953a.50005.50005 0 0 0 .44727 0l6.00195-3.001953a.50005.50005 0 0 0 .27539-.447261v-6.916015a.50005.50005 0 0 0 0-.181641v-.195313a.50005.50005 0 0 0 -.28711-.453125l-5.75-2.707031a.50005.50005 0 0 0 -.21289-.048828zm.11133 1h.27734l5.00977 2.359375-5.14844 2.509766-5.14844-2.509766zm-5.36328 3.298828 5.00195 2.439453v5.957031l-5.00195-2.501953zm11.00195.001953v5.892578l-5 2.5v-5.955078z" fill-rule="evenodd" opacity=".99" transform="matrix(100 0 0 100 -46800.31499999999 -5200.198)"/></g></svg>