<svg height="1600" viewBox="0 0 1400 1600" width="1400" xmlns="http://www.w3.org/2000/svg" xmlns:inkscape="http://www.inkscape.org/namespaces/inkscape" xmlns:sodipodi="http://sodipodi.sourceforge.net/DTD/sodipodi-0.dtd"><sodipodi:namedview pagecolor="#303030" showgrid="true"><inkscape:grid id="grid5" units="px" spacingx="100" spacingy="100" color="#4772b3" opacity="0.2" visible="true" /></sodipodi:namedview><g fill="#fff"><path d="m158.48048 492.99995c-.15153.004-.29304.0766-.38477.19727l-4.94922 4.94921c-.31479.315-.0918.85335.35352.85352h5c.27613-.00003.49997-.22387.5-.5v-4.5h5v12h-10v-6h-1v6.5c.00003.27613.22387.49997.5.5h11c.27613-.00003.49997-.22387.5-.5v-13c-.00003-.27613-.22387-.49997-.5-.5h-6c-.005-.00006-.009-.00006-.0137 0-.00067.00002-.001-.00002-.002 0-.001.00004-.003-.00005-.004 0z" fill-rule="evenodd" opacity=".6" transform="matrix(100 0 0 100 -15199.958 -49199.9928)"/></g></svg>