<svg height="1250" viewBox="0 0 1600 1250" width="1600" xmlns="http://www.w3.org/2000/svg" xmlns:inkscape="http://www.inkscape.org/namespaces/inkscape" xmlns:sodipodi="http://sodipodi.sourceforge.net/DTD/sodipodi-0.dtd"><sodipodi:namedview pagecolor="#303030" showgrid="true"><inkscape:grid id="grid5" units="px" spacingx="100" spacingy="100" color="#4772b3" opacity="0.2" visible="true" /></sodipodi:namedview><g fill="#fff"><g enable-background="new" stroke-width="4" transform="matrix(10.938272 0 0 10.948678 -10783.6565 2322.58)"><path d="m195.5 38c-1.94642 0-3.5 1.60898-3.5 3.5v20.5c.95388-.792604 2.00859-1.333333 3.33333-1.333333h121.33334c1.32476 0 2.37945.540729 3.33333 1.333333v-9.333333c0-1.9217-1.41163-4-3.33333-4h-76.66667c-.3983.00001-1.38322-.157923-1.66472-.439453-.2816-.2816-.33528-1.162347-.33528-1.560547v-5.333334c0-1.9217-1.41163-3.333333-3.33333-3.333333z" opacity=".8" transform="translate(803 -241)"/><path d="m998.33333-177.66667c-1.9217 0-3.33333 1.41164-3.33333 3.33334v63.83333c0 1.9217 1.5783 3.5 3.5 3.5h121c1.9217 0 3.5-1.5783 3.5-3.5v-63.83333c0-1.9217-1.4116-3.33334-3.3333-3.33334z"/></g></g></svg>