<svg height="1600" viewBox="0 0 1250 1600" width="1250" xmlns="http://www.w3.org/2000/svg" xmlns:inkscape="http://www.inkscape.org/namespaces/inkscape" xmlns:sodipodi="http://sodipodi.sourceforge.net/DTD/sodipodi-0.dtd"><sodipodi:namedview pagecolor="#303030" showgrid="true"><inkscape:grid id="grid5" units="px" spacingx="100" spacingy="100" color="#4772b3" opacity="0.2" visible="true" /></sodipodi:namedview><g enable-background="new" transform="matrix(10.937585 0 0 10.941054 -8524.3194 3283.814)"><path d="m831.51367-289.48633-41.0039 41 .0254-.0117c2.71982-2.37567 5.11846-3.6309 8.62951-3.83529h26.66668c1.09262-.00012 1.9998-.91463 2-2v-26.66668c-.31934-4.00167 2.14059-6.5773 3.68231-8.48633z" fill="#fff"/><path d="m130.49803 21.058926-42.471409-.058926c-5.522842-.0077-9.528596 4.477157-9.528595 10.000004v27.000002c0 2.209139-2.45753 4.333345-4.666669 4.333345h-27c-5.522847 0-10.333348 4.995641-10.333348 10.518488l.02841 74.142351c-.007 1.09637.910592 2.01376 2.007812 2.00586h91.957949c1.09615.007 2.00587-.9072 2.00587-2v-123.942101c-.003-1.092216-.90724-1.999083-2-1.999023z" fill="#fff" opacity=".8" transform="translate(752 -312)"/><g fill="none"><path d="m79.513672 22.513672-41.003906 41 .02539-.01172a12 12 0 0 1 8.464844-3.501952h27c1.09262-.00012 1.993941-.91463 1.994141-2l.005859-27a12 12 0 0 1 3.503906-8.462891z" transform="translate(752 -312)"/><path d="m831.51367-289.48633-41.0039 41 .0254-.0117a12 12 0 0 1 8.46483-3.50197h27c1.09262-.00012 1.99394-.91463 1.99414-2l.00586-27a12 12 0 0 1 3.50391-8.46289z"/><path d="m831.51367-289.48633-41.0039 41 .0254-.0117a12 12 0 0 1 8.46483-3.50197h27c1.09262-.00012 1.99394-.91463 1.99414-2l.00586-27a12 12 0 0 1 3.50391-8.46289z" opacity="0"/></g></g></svg>