<svg height="1600" viewBox="0 0 1600 1600" width="1600" xmlns="http://www.w3.org/2000/svg" xmlns:inkscape="http://www.inkscape.org/namespaces/inkscape" xmlns:sodipodi="http://sodipodi.sourceforge.net/DTD/sodipodi-0.dtd"><sodipodi:namedview pagecolor="#303030" showgrid="true"><inkscape:grid id="grid5" units="px" spacingx="100" spacingy="100" color="#4772b3" opacity="0.2" visible="true" /></sodipodi:namedview><g fill="#fff"><g enable-background="new" transform="translate(-233 -365)"><path d="m1028 1556c-3.2833 0-6 2.4414-6 5.5 0 1.7056.9046 3.146 2.1523 4.3594l.9942.9941a.50004997.50004997 0 0 0 .3027.1485.50004997.50004997 0 0 0 .051.998h5a.50004997.50004997 0 0 0 .045-.998.50004997.50004997 0 0 0 .3086-.1485l.9981-.998c1.2122-1.1985 2.1465-2.6518 2.1465-4.3535 0-3.0586-2.7167-5.5-6-5.5zm0 1c2.7919 0 5 2.0358 5 4.5 0 1.3342-.7428 2.5488-1.8516 3.6445l-1 1a.50004997.50004997 0 0 0 .2793.8535h-4.8594a.50004997.50004997 0 0 0 .2871-.8535l-1-1a.50004997.50004997 0 0 0 -.01-.01c-1.1397-1.1082-1.8477-2.2864-1.8477-3.6406 0-2.4642 2.2081-4.5 5-4.5zm-2.5 12a.50004997.50004997 0 1 0 0 1h1.5v.5a.50004997.50004997 0 0 0 .5.5h1a.50004997.50004997 0 0 0 .5-.5v-.5h1.5a.50004997.50004997 0 1 0 0-1z"/><path d="m1025.4902 1561.0059a.50005.50005 0 0 0 -.3437.8476l.8535.8535v1.543a.50005.50005 0 1 0 1 0v-1.25h2v1.25a.50005.50005 0 1 0 1 0v-1.543l.8535-.8535a.50005.50005 0 0 0 -.707-.707l-.8535.8535h-2.586l-.8535-.8535a.50005.50005 0 0 0 -.3633-.1406z" opacity=".6"/></g><g enable-background="new" opacity=".99" transform="matrix(100 0 0 100 -133100.845 27200.07200000001)"><path d="m1339.5-270a.50004994.50004994 0 1 0 0 1h6a.50004994.50004994 0 1 0 0-1zm0 3a.50004994.50004994 0 1 0 0 1h6a.50004994.50004994 0 1 0 0-1zm0 3a.50004994.50004994 0 1 0 0 1h6a.50004994.50004994 0 1 0 0-1zm-7 3a.50004994.50004994 0 1 0 0 1h13a.50004994.50004994 0 1 0 0-1zm-.014 3a.50004994.50004994 0 1 0 0 1h13.0449a.50004994.50004994 0 1 0 0-1z" opacity="1"/><path d="m1332.4922-263c-.2761-.004-.4965-.23166-.4922-.50781v-5.08789c0-.86662.4883-1.66406 1.2578-2.08789.7696-.42387 1.709-.42387 2.4785 0 .7695.42383 1.2559 1.22127 1.2559 2.08789v5.08789c.01.67616-1.0096.67616-1 0v-2.49219h-2.9922v2.49219c0 .28226-.2255.51222-.5078.50781zm.5078-4h2.9922v-1.5957c0-.49379-.2728-.95455-.7383-1.21094-.4655-.25638-1.0482-.25638-1.5137 0-.4655.25639-.7402.71715-.7402 1.21094z" opacity="1"/></g></g></svg>