<svg height="1250" viewBox="0 0 1600 1250" width="1600" xmlns="http://www.w3.org/2000/svg" xmlns:inkscape="http://www.inkscape.org/namespaces/inkscape" xmlns:sodipodi="http://sodipodi.sourceforge.net/DTD/sodipodi-0.dtd"><sodipodi:namedview pagecolor="#303030" showgrid="true"><inkscape:grid id="grid5" units="px" spacingx="100" spacingy="100" color="#4772b3" opacity="0.2" visible="true" /></sodipodi:namedview><g fill="#fff"><g enable-background="new" transform="translate(-233 -365)"><path d="m1028 1556c-3.2833 0-6 2.4414-6 5.5 0 1.7056.9046 3.146 2.1523 4.3594l.9942.9941a.50004997.50004997 0 0 0 .3027.1485.50004997.50004997 0 0 0 .051.998h5a.50004997.50004997 0 0 0 .045-.998.50004997.50004997 0 0 0 .3086-.1485l.9981-.998c1.2122-1.1985 2.1465-2.6518 2.1465-4.3535 0-3.0586-2.7167-5.5-6-5.5zm0 1c2.7919 0 5 2.0358 5 4.5 0 1.3342-.7428 2.5488-1.8516 3.6445l-1 1a.50004997.50004997 0 0 0 .2793.8535h-4.8594a.50004997.50004997 0 0 0 .2871-.8535l-1-1a.50004997.50004997 0 0 0 -.01-.01c-1.1397-1.1082-1.8477-2.2864-1.8477-3.6406 0-2.4642 2.2081-4.5 5-4.5zm-2.5 12a.50004997.50004997 0 1 0 0 1h1.5v.5a.50004997.50004997 0 0 0 .5.5h1a.50004997.50004997 0 0 0 .5-.5v-.5h1.5a.50004997.50004997 0 1 0 0-1z"/><path d="m1025.4902 1561.0059a.50005.50005 0 0 0 -.3437.8476l.8535.8535v1.543a.50005.50005 0 1 0 1 0v-1.25h2v1.25a.50005.50005 0 1 0 1 0v-1.543l.8535-.8535a.50005.50005 0 0 0 -.707-.707l-.8535.8535h-2.586l-.8535-.8535a.50005.50005 0 0 0 -.3633-.1406z" opacity=".6"/></g><g enable-background="new" opacity=".6" stroke-width="4" transform="matrix(10.936302 0 0 10.966292 -10781.5248 2654.787)"><path d="m998.33333-232.97121c-1.94642 0-3.33333 1.44031-3.33333 3.33133v20.65427c.95388-.7926 2.00859-1.33253 3.33333-1.33253h121.33337c1.3248 0 2.3794.53993 3.3333 1.33253v-9.51439c0-1.9217-1.4116-3.81094-3.3333-3.81094h-76.6667c-.3983.00001-1.4457-.0538-1.7272-.33535-.2816-.2816-.2728-1.26525-.2728-1.66345v-5.19026c0-1.9217-1.4116-3.47121-3.3333-3.47121z" opacity=".8"/><path d="m365.33333 63.346928c-1.9217 0-3.33333 1.409634-3.33333 3.331334v63.821738c0 1.9217 1.5783 3.5 3.5 3.5h121c1.9217 0 3.5-1.5783 3.5-3.5v-63.821738c0-1.9217-1.41164-3.331334-3.33334-3.331334zm58.6237 11.660884c.80833-.01124 1.58681.305088 2.1582.876954l13.01563 13.015625c2.84522 2.82159-1.41214 7.076991-4.23242 4.230468l-7.88086-7.880859-.0117 25.76562v.002c.001.96287 1.07551 2.00781 2.00781 2.00781h13c4.08709-.10004 4.08709 6.08246 0 5.98242h-13c-4.3889 0-7.99023-3.56607-7.99023-7.99219l.01-25.804682-7.90039 7.917968c-2.81555 2.949086-7.1776-1.400901-4.23633-4.224609l12.98438-13.017578c.55099-.552467 1.29599-.867849 2.07617-.878907z" opacity="1" transform="translate(633 -271)"/></g></g></svg>