<svg height="1600" viewBox="0 0 1600 1600" width="1600" xmlns="http://www.w3.org/2000/svg" xmlns:inkscape="http://www.inkscape.org/namespaces/inkscape" xmlns:sodipodi="http://sodipodi.sourceforge.net/DTD/sodipodi-0.dtd"><sodipodi:namedview pagecolor="#303030" showgrid="true"><inkscape:grid id="grid5" units="px" spacingx="100" spacingy="100" color="#4772b3" opacity="0.2" visible="true" /></sodipodi:namedview><g fill="#fff"><g enable-background="new" transform="matrix(100 0 0 100 -38300.781 -9400.046)"><path d="m430.48047 53c-.15153.004-.29304.07659-.38477.197266l-3.94922 3.949218c-.31479.315-.0918.853346.35352.853516h4c.27613-.00003.49997-.22387.5-.5v-3.5h6v3.5c-.01.676161 1.00956.676161 1 0v-4c-.00003-.276131-.22387-.499972-.5-.5h-7c-.005-.000062-.009-.000062-.0137 0-.00067.000018-.001-.000021-.002 0-.001.000041-.003-.00005-.004 0zm-4.48047 6.000004v7.499996c.00003.276131.22387.499972.5.5h4.25c.67616.0096.67616-1.009563 0-1h-3.75v-6.999996z" fill-rule="evenodd" opacity=".6" transform="translate(-42 42)"/><path d="m435.50195 58a.50005.50005 0 0 0 -.50586.507812l.00391 1.339844c-.37235.07227-.71903.219786-1.02148.427735l-1.12696-1.123047a.50005.50005 0 0 0 -.34375-.150391.50005.50005 0 0 0 -.36133.859375l1.12696 1.123047c-.20773.30118-.3566.644813-.42969 1.015625l-1.3457.002a.5009775.5009775 0 0 0 .002 1.001953l1.33784-.003953c.0676.378442.20857.7312.41602 1.039062l-1.10743 1.109376a.50005.50005 0 1 0 .70508.705078l1.10352-1.101563c.30785.216541.661.370975 1.04297.445313l-.002 1.300781a.50098382.50098382 0 1 0 1.00196.0039l.00199-1.302728c.38598-.06997.74484-.216649 1.05664-.431641l1.08203 1.085938a.5000572.5000572 0 1 0 .70899-.705078l-1.08399-1.087891c.21517-.313042.36254-.673076.43164-1.060547h1.30469a.50033424.50033424 0 1 0 0-1h-1.31055c-.0748-.379778-.22985-.730801-.44531-1.037109l1.10156-1.103516a.50005.50005 0 0 0 -.34765-.859375.50005.50005 0 0 0 -.35743.154297l-1.10742 1.105469c-.30582-.206075-.65761-.345901-1.0332-.414063l-.004-1.339844a.50005.50005 0 0 0 -.49405-.505859zm-.002 3.300781c.66274 0 1.19921.536481 1.19922 1.199219 0 .662738-.53648 1.199219-1.19922 1.199219-.66274-.000008-1.19922-.536481-1.19922-1.199219 0-.66273.53649-1.199211 1.19922-1.199219z" transform="matrix(.99999720968 0 0 .99999720968 -42.000914528 42.000021688)"/></g></g></svg>