<?xml version="1.0" encoding="UTF-8" standalone="no"?>
<svg
   height="1600"
   viewBox="0 0 1400 1600"
   width="1400"
   version="1.1"
   id="svg1"
   xmlns="http://www.w3.org/2000/svg"
   xmlns:svg="http://www.w3.org/2000/svg" xmlns:inkscape="http://www.inkscape.org/namespaces/inkscape" xmlns:sodipodi="http://sodipodi.sourceforge.net/DTD/sodipodi-0.dtd"><sodipodi:namedview pagecolor="#303030" showgrid="true"><inkscape:grid id="grid5" units="px" spacingx="100" spacingy="100" color="#4772b3" opacity="0.2" visible="true" /></sodipodi:namedview>
  <defs
     id="defs1" />
  <g
     id="FILE_FONT">
    <path
       d="m521.5 84c-.6573.0093-.6573.990704 0 1h.25c.75 0 1.25.5 1.25 1.25v9.500004c0 .75-.5 1.25-1.25 1.25h-.25c-.6573.0093-.6573.990704 0 1h.25 5.5.25c.6573-.0093.6573-.990704 0-1h-.25c-.75-.000004-1.25-.500004-1.25-1.250004v-4.75h2.5c.0833 0 .22505.05708.33398.166016.10893.108931.16602.250651.16602.333984.009.657305.9907.657305 1 0v-2c-.004-.281658-.24005-.504291-.52148-.492188-.26471.01138-.4746.22726-.47852.492188 0 .08333-.0571.225053-.16602.333984-.10893.108931-.25065.166016-.33398.166016h-2.5v-5h4.75004c.56008-.0025.79631.04461 1.04328.310243.24689.265637.20668.744039.20668.939757v.25c.009.657305.9907.657305 1 0v-2c-.00003-.276131-.22387-.499972-.5-.5h-1.75-9z"
       fill="#fff"
       transform="matrix(100 0 0 100 -52000.351 -8300)"
       id="path1" />
  </g>
</svg>
