<svg height="1600" viewBox="0 0 1500 1600" width="1500" xmlns="http://www.w3.org/2000/svg" xmlns:inkscape="http://www.inkscape.org/namespaces/inkscape" xmlns:sodipodi="http://sodipodi.sourceforge.net/DTD/sodipodi-0.dtd"><sodipodi:namedview pagecolor="#303030" showgrid="true"><inkscape:grid id="grid5" units="px" spacingx="100" spacingy="100" color="#4772b3" opacity="0.2" visible="true" /></sodipodi:namedview><g fill="#fff"><g enable-background="new" stroke="none" transform="matrix(100 0 0 100 -46800.195 -5199.963)"><path d="m469.49414 55.992188a.50004982.50004982 0 0 0 -.49219.507812v7a.50004982.50004982 0 1 0 1 0v-7a.50004982.50004982 0 0 0 -.50781-.507812zm2 1a.50004982.50004982 0 0 0 -.49219.507812v7a.50004982.50004982 0 1 0 1 0v-7a.50004982.50004982 0 0 0 -.50781-.507812zm2 1a.50004982.50004982 0 0 0 -.49219.507812v7a.50004982.50004982 0 1 0 1 0v-7a.50004982.50004982 0 0 0 -.50781-.507812zm2 1a.50004982.50004982 0 0 0 -.49219.507812v7a.50004982.50004982 0 1 0 1 0v-7a.50004982.50004982 0 0 0 -.50781-.507812z"/><path d="m471.49609 54.992188a.50004982.50004982 0 0 0 -.49414.505859v.25a.50004982.50004982 0 1 0 1 .0039v-.25a.50004982.50004982 0 0 0 -.50586-.509765zm2 1a.50004982.50004982 0 0 0 -.49414.505859l-.002.25a.50004982.50004982 0 1 0 1 .0039l.002-.25a.50004982.50004982 0 0 0 -.50586-.509765zm2 1a.50004982.50004982 0 0 0 -.49414.505859l-.002.25a.50004982.50004982 0 1 0 1 .0039l.002-.25a.50004982.50004982 0 0 0 -.50586-.509765zm1.99805 1a.50004982.50004982 0 0 0 -.49219.507812v7a.50004982.50004982 0 1 0 1 0v-7a.50004982.50004982 0 0 0 -.50781-.507812z" opacity=".9"/><path d="m473.49609 53.992188a.50004982.50004982 0 0 0 -.49414.505859v.25a.50004982.50004982 0 1 0 1 .0039v-.25a.50004982.50004982 0 0 0 -.50586-.509765zm2 1a.50004982.50004982 0 0 0 -.49414.505859l-.002.25a.50004982.50004982 0 1 0 1 .0039l.002-.25a.50004982.50004982 0 0 0 -.50586-.509765zm2 1a.50004982.50004982 0 0 0 -.49414.505859l-.002.25a.50004982.50004982 0 1 0 1 .0039l.002-.25a.50004982.50004982 0 0 0 -.50586-.509765zm1.99805 1a.50004982.50004982 0 0 0 -.49219.507812v7a.50004982.50004982 0 1 0 1 0v-7a.50004982.50004982 0 0 0 -.50781-.507812z" opacity=".8"/><path d="m475.49609 52.992188a.50004982.50004982 0 0 0 -.49414.505859v.25a.50004982.50004982 0 1 0 1 .0039v-.25a.50004982.50004982 0 0 0 -.50586-.509765zm2 1a.50004982.50004982 0 0 0 -.49414.505859l-.002.25a.50004982.50004982 0 1 0 1 .0039l.002-.25a.50004982.50004982 0 0 0 -.50586-.509765zm2 1a.50004982.50004982 0 0 0 -.49414.505859l-.002.25a.50004982.50004982 0 1 0 1 .0039l.002-.25a.50004982.50004982 0 0 0 -.50586-.509765zm1.99805 1a.50004982.50004982 0 0 0 -.49219.507812v7a.50004982.50004982 0 1 0 1 0v-7a.50004982.50004982 0 0 0 -.50781-.507812z" opacity=".7"/></g></g></svg>