<svg height="1600" viewBox="0 0 1600 1600" width="1600" xmlns="http://www.w3.org/2000/svg" xmlns:inkscape="http://www.inkscape.org/namespaces/inkscape" xmlns:sodipodi="http://sodipodi.sourceforge.net/DTD/sodipodi-0.dtd"><sodipodi:namedview pagecolor="#303030" showgrid="true"><inkscape:grid id="grid5" units="px" spacingx="100" spacingy="100" color="#4772b3" opacity="0.2" visible="true" /></sodipodi:namedview><g fill="#fff"><g enable-background="new" transform="translate(-233 -365)"><path d="m1028 1556c-3.2833 0-6 2.4414-6 5.5 0 1.7056.9046 3.146 2.1523 4.3594l.9942.9941a.50004997.50004997 0 0 0 .3027.1485.50004997.50004997 0 0 0 .051.998h5a.50004997.50004997 0 0 0 .045-.998.50004997.50004997 0 0 0 .3086-.1485l.9981-.998c1.2122-1.1985 2.1465-2.6518 2.1465-4.3535 0-3.0586-2.7167-5.5-6-5.5zm0 1c2.7919 0 5 2.0358 5 4.5 0 1.3342-.7428 2.5488-1.8516 3.6445l-1 1a.50004997.50004997 0 0 0 .2793.8535h-4.8594a.50004997.50004997 0 0 0 .2871-.8535l-1-1a.50004997.50004997 0 0 0 -.01-.01c-1.1397-1.1082-1.8477-2.2864-1.8477-3.6406 0-2.4642 2.2081-4.5 5-4.5zm-2.5 12a.50004997.50004997 0 1 0 0 1h1.5v.5a.50004997.50004997 0 0 0 .5.5h1a.50004997.50004997 0 0 0 .5-.5v-.5h1.5a.50004997.50004997 0 1 0 0-1z"/><path d="m1025.4902 1561.0059a.50005.50005 0 0 0 -.3437.8476l.8535.8535v1.543a.50005.50005 0 1 0 1 0v-1.25h2v1.25a.50005.50005 0 1 0 1 0v-1.543l.8535-.8535a.50005.50005 0 0 0 -.707-.707l-.8535.8535h-2.586l-.8535-.8535a.50005.50005 0 0 0 -.3633-.1406z" opacity=".6"/></g><g enable-background="new"><g transform="matrix(100 0 0 100 -40400.007 -7300.021)"><path d="m331.87142 629.24052c0 .81936-.66423 1.48359-1.48359 1.48359-.81937 0-1.4836-.66422-1.4836-1.48359s.66423-1.4836 1.4836-1.4836 1.48359.66423 1.48359 1.4836z" opacity=".99" transform="matrix(.674038 0 0 .674038 192.806 -339.682)"/><path d="m414.93725 78.999996c-.65344-.653443-1.58833.255453-.88297.960812l1.12739 1.039192h-4.6057c-.88913-.01822-.88913 1.018254 0 1l2.19337-.004-.006.004-3.27651 2.873468c-.64989.580999.2216 1.555837.87149.97484l1.64172-1.398308c0 1.651946 1.15621 3.581251 3.47506 3.550001s3.5249-1.749295 3.5249-3.550001c0-1.800705-1.00462-2.558141-1.45954-3.013074zm.56275 3.200004c1.22478 0 2.25.945047 2.25 2.25s-1.05311 2.25-2.25 2.25-2.25-.960585-2.25-2.25 1.02522-2.25 2.25-2.25z"/></g><path d="m430.48047 53c-.15153.004-.29304.07659-.38477.197266l-3.94922 3.949218c-.31479.315-.0918.853346.35352.853516h4c.27613-.00003.49997-.22387.5-.5v-3.5h6v2.999953c-.01.676161 1.00956.676161 1 0v-3.499953c-.00003-.276131-.22387-.499972-.5-.5h-7c-.005-.000062-.009-.000062-.0137 0-.00067.000018-.001-.000021-.002 0-.001.000041-.003-.00005-.004 0zm-4.48047 6.000004v7.499996c.00003.276131.22387.499972.5.5h4.49914c.67616.0096.67616-1.009563 0-1h-3.99914v-6.999996z" fill-rule="evenodd" opacity=".6" transform="matrix(100 0 0 100 -42499.90699999999 -5200.011)"/></g></g></svg>