<svg height="1500" viewBox="0 0 1500 1500" width="1500" xmlns="http://www.w3.org/2000/svg" xmlns:inkscape="http://www.inkscape.org/namespaces/inkscape" xmlns:sodipodi="http://sodipodi.sourceforge.net/DTD/sodipodi-0.dtd"><sodipodi:namedview pagecolor="#303030" showgrid="true"><inkscape:grid id="grid5" units="px" spacingx="100" spacingy="100" color="#4772b3" opacity="0.2" visible="true" /></sodipodi:namedview><g fill="#fff"><g enable-background="new" stroke="none" transform="matrix(0 -100.17897 100 0 -57795.1844 41972.0971)"><path d="m405.46978 579.95581c-.0786.005 1.01466.006 2.75112.002-2.39046 1.17179-3.76136 4.49271-2.99824 7.27846s3.11603 4.49155 5.7784 4.71875l-.00084-1c-2.59859-.27264-4.17102-1.63685-4.81356-3.98242s.50423-5.20147 2.81719-6.15552c.009.80023-.0108 2.01265.00093 2.69464-.008.60881 1.01884.5718.99185-.0157-.002-.49551.001-3.60295.007-4.5362-1.4729.00082-2.81924-.00048-4.52617-.008-.62523.0109-.61936.99943-.009 1.00441z" transform="matrix(-1 0 0 -1 822.986 1170.90388)"/><path d="m405.45285 579.95581c-.0786.005 1.05365-.002 2.79011-.006-2.39046 1.17179-3.8662 4.53149-2.99824 7.28627.8992 2.85391 3.08617 4.49155 5.74854 4.71875l-.00084-1c-2.49653-.35216-4.00508-1.56869-4.7837-3.98242-.74659-2.31444.47303-5.20147 2.78599-6.15552.009.80023-.0108 2.01265.00093 2.69464-.008.60881 1.01884.5718.99185-.0157-.002-.49551.001-3.60295.007-4.5362-1.4729.00082-2.82703-.00048-4.53396-.008-.62523.0109-.61936.99943-.009 1.00441z"/></g></g></svg>