<svg height="1600" viewBox="0 0 1250 1600" width="1250" xmlns="http://www.w3.org/2000/svg" xmlns:inkscape="http://www.inkscape.org/namespaces/inkscape" xmlns:sodipodi="http://sodipodi.sourceforge.net/DTD/sodipodi-0.dtd"><sodipodi:namedview pagecolor="#303030" showgrid="true"><inkscape:grid id="grid5" units="px" spacingx="100" spacingy="100" color="#4772b3" opacity="0.2" visible="true" /></sodipodi:namedview><g enable-background="new" fill="#fff" transform="translate(-233 -365)"><path d="m1028 1556c-3.2833 0-6 2.4414-6 5.5 0 1.7056.9046 3.146 2.1523 4.3594l.9942.9941a.50004997.50004997 0 0 0 .3027.1485.50004997.50004997 0 0 0 .051.998h5a.50004997.50004997 0 0 0 .045-.998.50004997.50004997 0 0 0 .3086-.1485l.9981-.998c1.2122-1.1985 2.1465-2.6518 2.1465-4.3535 0-3.0586-2.7167-5.5-6-5.5zm0 1c2.7919 0 5 2.0358 5 4.5 0 1.3342-.7428 2.5488-1.8516 3.6445l-1 1a.50004997.50004997 0 0 0 .2793.8535h-4.8594a.50004997.50004997 0 0 0 .2871-.8535l-1-1a.50004997.50004997 0 0 0 -.01-.01c-1.1397-1.1082-1.8477-2.2864-1.8477-3.6406 0-2.4642 2.2081-4.5 5-4.5zm-2.5 12a.50004997.50004997 0 1 0 0 1h1.5v.5a.50004997.50004997 0 0 0 .5.5h1a.50004997.50004997 0 0 0 .5-.5v-.5h1.5a.50004997.50004997 0 1 0 0-1z"/><path d="m1025.4902 1561.0059a.50005.50005 0 0 0 -.3437.8476l.8535.8535v1.543a.50005.50005 0 1 0 1 0v-1.25h2v1.25a.50005.50005 0 1 0 1 0v-1.543l.8535-.8535a.50005.50005 0 0 0 -.707-.707l-.8535.8535h-2.586l-.8535-.8535a.50005.50005 0 0 0 -.3633-.1406z" opacity=".6"/></g><g enable-background="new" transform="matrix(10.937585 0 0 10.941054 -8524.3194 3283.81400000001)"><path d="m831.51367-289.48633-41.0039 41 .0254-.0117c2.2475-2.24076 5.45583-3.83326 8.62951-3.83529h26.66668c1.09262-.00012 1.9998-.91463 2-2v-26.66668c.003-3.17329 1.43156-6.21618 3.67255-8.46289z" fill="#fff"/><path d="m130.49803 21.058926-42.471409-.058926c-5.522842-.0077-9.528596 4.477157-9.528595 10.000004v27.000002c0 2.209139-2.45753 4.333345-4.666669 4.333345h-27c-5.522847 0-10.333348 4.995641-10.333348 10.518488l.02841 74.142351c-.007 1.09637.910592 2.01376 2.007812 2.00586h91.957949c1.09615.007 2.00587-.9072 2.00587-2v-123.942101c-.003-1.092216-.90724-1.999083-2-1.999023z" fill="#fff" opacity=".8" transform="translate(752 -312)"/><g fill="none"><path d="m79.513672 22.513672-41.003906 41 .02539-.01172a12 12 0 0 1 8.464844-3.501952h27c1.09262-.00012 1.993941-.91463 1.994141-2l.005859-27a12 12 0 0 1 3.503906-8.462891z" transform="translate(752 -312)"/><path d="m831.51367-289.48633-41.0039 41 .0254-.0117a12 12 0 0 1 8.46483-3.50197h27c1.09262-.00012 1.99394-.91463 1.99414-2l.00586-27a12 12 0 0 1 3.50391-8.46289z"/><path d="m831.51367-289.48633-41.0039 41 .0254-.0117a12 12 0 0 1 8.46483-3.50197h27c1.09262-.00012 1.99394-.91463 1.99414-2l.00586-27a12 12 0 0 1 3.50391-8.46289z" opacity="0"/></g></g></svg>