<svg height="1600" viewBox="0 0 1600 1600" width="1600" xmlns="http://www.w3.org/2000/svg" xmlns:inkscape="http://www.inkscape.org/namespaces/inkscape" xmlns:sodipodi="http://sodipodi.sourceforge.net/DTD/sodipodi-0.dtd"><sodipodi:namedview pagecolor="#303030" showgrid="true"><inkscape:grid id="grid5" units="px" spacingx="100" spacingy="100" color="#4772b3" opacity="0.2" visible="true" /></sodipodi:namedview><g fill="#fff"><path d="m503.5 84c-.27613.000028-.49997.223869-.5.5v9.640625c-.56586-.207564-1.28645-.1813-1.98242.07227-1.35506.496297-2.23748 1.698783-1.9707 2.685547.26594.987121 1.58042 1.385047 2.93554.888671 1.1076-.40637 1.93122-1.302825 2.00977-2.1875l.00586-8.599613h8.00195v6.140625c-.56586-.207559-1.28645-.181295-1.98242.07227-1.35507.496303-2.23748 1.698787-1.9707 2.685547.26596.987109 1.58042 1.385032 2.93554.888671 1.1076-.406375 1.93122-1.302829 2.00977-2.1875l.00781-10.099613c-.00003-.276131-.22387-.499972-.5-.5z" transform="matrix(100 0 0 100 -49799.96599999999 -8300.039)"/></g></svg>