<?xml version="1.0" encoding="UTF-8" standalone="no"?>
<svg
   height="1600"
   viewBox="0 0 1600 1600"
   width="1600"
   version="1.1"
   id="svg1"
   xmlns="http://www.w3.org/2000/svg"
   xmlns:svg="http://www.w3.org/2000/svg">
  <g
     fill="#fff"
     id="g1">
    <path
       d="m 363.5,431 c -0.27613,3e-5 -0.49997,0.22387 -0.5,0.5 v 1 c 2e-5,0.1326 0.0527,0.25976 0.14648,0.35352 L 368,437.70703 V 441.5 c 2e-5,0.1326 0.0527,0.25976 0.14648,0.35352 l 3,3 c 0.315,0.31479 0.85335,0.0918 0.85352,-0.35352 v -6.79297 l 4.85352,-4.85351 c 0.0938,-0.0938 0.14646,-0.22092 0.14648,-0.35352 v -1 c -3e-5,-0.27613 -0.22387,-0.49997 -0.5,-0.5 z m 0.5,1 h 12 v 0.29297 l -4.85352,4.85351 c -0.0938,0.0938 -0.14646,0.22092 -0.14648,0.35352 v 5.79297 l -2,-1.99999 V 437.5 c -2e-5,-0.1326 -0.0527,-0.25976 -0.14648,-0.35352 L 364,432.29297 Z"
       transform="matrix(-100,0,0,100,37800,-42999.993)"
       id="path1"
       style="display:inline" />
    <path
       id="rect1"
       style="opacity:0.8;fill:#ffffff;fill-opacity:1;fill-rule:evenodd;stroke-width:101.117"
       d="M 200 200.00781 L 200 229.30469 L 685.35156 714.6543 A 50.005 50.005 0 0 1 700 750.00781 L 700 1329.3047 L 900 1129.3047 L 900 750.00781 A 50.005 50.005 0 0 1 914.64844 714.6543 L 1400 229.30469 L 1400 200.00781 L 200 200.00781 z " />
  </g>
</svg>
