<svg height="1400" viewBox="0 0 1600 1400" width="1600" xmlns="http://www.w3.org/2000/svg" xmlns:inkscape="http://www.inkscape.org/namespaces/inkscape" xmlns:sodipodi="http://sodipodi.sourceforge.net/DTD/sodipodi-0.dtd"><sodipodi:namedview pagecolor="#303030" showgrid="true"><inkscape:grid id="grid5" units="px" spacingx="100" spacingy="100" color="#4772b3" opacity="0.2" visible="true" /></sodipodi:namedview><g fill="#fff"><path d="m-33.5 1328c-.27613 0-.49997.2239-.5.5v11c.00003.2761.22387.5.5.5h2.5v-3c0-1.645 1.35499-3 3-3h2.585938l-1.292969-1.293a1.0001 1.0001 0 0 1 .726562-1.7168 1.0001 1.0001 0 0 1 .6875.3028l3 3a1.0001 1.0001 0 0 1 0 1.414l-3 3a1.0001 1.0001 0 1 1 -1.414062-1.414l1.292969-1.293h-2.585938c-.56413 0-1 .4359-1 1v3h8.5c.27613 0 .49997-.2239.5-.5v-9c-.00003-.2761-.22387-.5-.5-.5h-8.5v-1.5c-.00003-.2761-.22387-.5-.5-.5z" opacity=".7" transform="matrix(100 0 0 100 3500.00000000001 -132700)"/></g></svg>