<svg height="1600" viewBox="0 0 1600 1600" width="1600" xmlns="http://www.w3.org/2000/svg" xmlns:inkscape="http://www.inkscape.org/namespaces/inkscape" xmlns:sodipodi="http://sodipodi.sourceforge.net/DTD/sodipodi-0.dtd"><sodipodi:namedview pagecolor="#303030" showgrid="true"><inkscape:grid id="grid5" units="px" spacingx="100" spacingy="100" color="#4772b3" opacity="0.2" visible="true" /></sodipodi:namedview><g fill="#fff"><g enable-background="new" transform="translate(-233 -365)"><path d="m1028 1556c-3.2833 0-6 2.4414-6 5.5 0 1.7056.9046 3.146 2.1523 4.3594l.9942.9941a.50004997.50004997 0 0 0 .3027.1485.50004997.50004997 0 0 0 .051.998h5a.50004997.50004997 0 0 0 .045-.998.50004997.50004997 0 0 0 .3086-.1485l.9981-.998c1.2122-1.1985 2.1465-2.6518 2.1465-4.3535 0-3.0586-2.7167-5.5-6-5.5zm0 1c2.7919 0 5 2.0358 5 4.5 0 1.3342-.7428 2.5488-1.8516 3.6445l-1 1a.50004997.50004997 0 0 0 .2793.8535h-4.8594a.50004997.50004997 0 0 0 .2871-.8535l-1-1a.50004997.50004997 0 0 0 -.01-.01c-1.1397-1.1082-1.8477-2.2864-1.8477-3.6406 0-2.4642 2.2081-4.5 5-4.5zm-2.5 12a.50004997.50004997 0 1 0 0 1h1.5v.5a.50004997.50004997 0 0 0 .5.5h1a.50004997.50004997 0 0 0 .5-.5v-.5h1.5a.50004997.50004997 0 1 0 0-1z"/><path d="m1025.4902 1561.0059a.50005.50005 0 0 0 -.3437.8476l.8535.8535v1.543a.50005.50005 0 1 0 1 0v-1.25h2v1.25a.50005.50005 0 1 0 1 0v-1.543l.8535-.8535a.50005.50005 0 0 0 -.707-.707l-.8535.8535h-2.586l-.8535-.8535a.50005.50005 0 0 0 -.3633-.1406z" opacity=".6"/></g><path d="m246.49805 74c-.13192.00054-.25829.0532-.35157.146484-.71071.71072-2.048 1.853516-4.64648 1.853516a.50005.50005 0 0 0 -.5.5v2.5h-.5c-.75833 0-1.38671.318735-1.90625.734375-.51954.41563-.962.926849-1.44727 1.412109-.39648.39648.31056 1.103512.70704.707032.4558-.45581.79842-.643904 1.18164-.746094s.83984-.107422 1.46484-.107422h.5v4.5c0 .75694-.56911 1.365513-1.18359 1.476562-.30725.0555-.62032.004-.94141-.228515-.32109-.23272-.65388-.66673-.90039-1.40625a.50005.50005 0 0 0 -.97461.158203v1a.50005.50005 0 0 0 .14648.353516c1.07896 1.078957 2.04792 1.156164 2.85352 1.146484h.002c.00099 0 .003.000001.004 0 .001-.000016.003.000018.004 0 .36494-.000726.98133-.05472 1.67773-.203125.19213-.0454.36061-.131526.54297-.197266.41443-.1248.82232-.201598 1.24219-.449218 1.34933-.7959 2.52711-2.390471 2.52711-5.150391v-1h2.5c.1326-.00002.25976-.0527.35352-.146484l1-1c.31479-.315.0918-.853346-.35352-.853516h-3.5v-2.529297c.26613.242116.53257.477435.83203.527344.63268.10544 1.23725-.0679 1.76563-.332031 1.05675-.52838 1.9005-1.45715 2.25586-1.8125.45304-.47127-.23577-1.160072-.70704-.707032-.31826.31827-.84181.673592-1.40039.763672-.55857.0901-1.16912-.02339-1.88867-.759765-.0945-.0967-.22417-.150901-.35937-.150391zm-2.50977 3.013672c.004-.000162.008.000167.0117 0v5.986328c0 1.65476-.45037 2.602541-1.13477 3.181641-.20404.172661-.46051.286861-.72656.390625.51062-.823611.86135-1.998533.86135-3.572266v-5.982422c.35078.0051.69957.0073.98828-.0039z" transform="matrix(100 0 0 100 -23600.072 -7299.963)"/></g></svg>