<svg height="1600" viewBox="0 0 1500 1600" width="1500" xmlns="http://www.w3.org/2000/svg" xmlns:inkscape="http://www.inkscape.org/namespaces/inkscape" xmlns:sodipodi="http://sodipodi.sourceforge.net/DTD/sodipodi-0.dtd"><sodipodi:namedview pagecolor="#303030" showgrid="true"><inkscape:grid id="grid5" units="px" spacingx="100" spacingy="100" color="#4772b3" opacity="0.2" visible="true" /></sodipodi:namedview><g fill="#fff"><g enable-background="new" transform="translate(-233 -365)"><path d="m1028 1556c-3.2833 0-6 2.4414-6 5.5 0 1.7056.9046 3.146 2.1523 4.3594l.9942.9941a.50004997.50004997 0 0 0 .3027.1485.50004997.50004997 0 0 0 .051.998h5a.50004997.50004997 0 0 0 .045-.998.50004997.50004997 0 0 0 .3086-.1485l.9981-.998c1.2122-1.1985 2.1465-2.6518 2.1465-4.3535 0-3.0586-2.7167-5.5-6-5.5zm0 1c2.7919 0 5 2.0358 5 4.5 0 1.3342-.7428 2.5488-1.8516 3.6445l-1 1a.50004997.50004997 0 0 0 .2793.8535h-4.8594a.50004997.50004997 0 0 0 .2871-.8535l-1-1a.50004997.50004997 0 0 0 -.01-.01c-1.1397-1.1082-1.8477-2.2864-1.8477-3.6406 0-2.4642 2.2081-4.5 5-4.5zm-2.5 12a.50004997.50004997 0 1 0 0 1h1.5v.5a.50004997.50004997 0 0 0 .5.5h1a.50004997.50004997 0 0 0 .5-.5v-.5h1.5a.50004997.50004997 0 1 0 0-1z"/><path d="m1025.4902 1561.0059a.50005.50005 0 0 0 -.3437.8476l.8535.8535v1.543a.50005.50005 0 1 0 1 0v-1.25h2v1.25a.50005.50005 0 1 0 1 0v-1.543l.8535-.8535a.50005.50005 0 0 0 -.707-.707l-.8535.8535h-2.586l-.8535-.8535a.50005.50005 0 0 0 -.3633-.1406z" opacity=".6"/></g><path d="m96.5 473c-2.087116 0-3.478164 1.04607-4.390625 2.1875a.50024408.50024408 0 0 0 .78125.625c.799863-1.00057 1.843763-1.8125 3.609375-1.8125 2.098393 0 3.134109.87695 3.75195 1.94531.61785 1.06836.74805 2.3712.74805 3.05469h-5.25c-1.273438 0-2.443243.36418-3.314453 1.05469s-1.427734 1.72791-1.427735 2.94531c.000001 1.2174.556525 2.2548 1.427735 2.94531s2.041015 1.05469 3.314453 1.05469h.75c1.755585 0 3.387714-.96684 4.53711-2.0332.0781.53303.28951 1.00434.64062 1.35547.45089.45088 1.09727.67773 1.82227.67773a.50005.50005 0 1 0 0-1c-.525 0-.87862-.14815-1.11523-.38477-.23662-.23661-.38477-.59023-.38477-1.11523v-5.5c0-.79721-.12242-2.24322-.88086-3.55469-.75844-1.31146-2.222681-2.44531-4.61914-2.44531zm-.75 7h5.25v3.56055c-.95418 1.12418-2.81125 2.43945-4.5 2.43945h-.75c-1.081007 0-2.03187-.31555-2.693359-.83984-.66149-.52429-1.048828-1.23676-1.048829-2.16016.000001-.9234.387339-1.63587 1.048829-2.16016s1.612352-.83984 2.693359-.83984z" transform="matrix(100 0 0 100 -9000.7467 -47200.0025)"/></g></svg>