<svg height="1600" viewBox="0 0 1600 1600" width="1600" xmlns="http://www.w3.org/2000/svg" xmlns:inkscape="http://www.inkscape.org/namespaces/inkscape" xmlns:sodipodi="http://sodipodi.sourceforge.net/DTD/sodipodi-0.dtd"><sodipodi:namedview pagecolor="#303030" showgrid="true"><inkscape:grid id="grid5" units="px" spacingx="100" spacingy="100" color="#4772b3" opacity="0.2" visible="true" /></sodipodi:namedview><g fill="#fff"><path d="m246.49805 74c-.13192.00054-.25829.0532-.35157.146484-.71071.71072-2.048 1.853516-4.64648 1.853516a.50005.50005 0 0 0 -.5.5v2.5h-.5c-.75833 0-1.38671.318735-1.90625.734375-.51954.41563-.962.926849-1.44727 1.412109-.39648.39648.31056 1.103512.70704.707032.4558-.45581.79842-.643904 1.18164-.746094s.83984-.107422 1.46484-.107422h.5v4.5c0 .75694-.56911 1.365513-1.18359 1.476562-.30725.0555-.62032.004-.94141-.228515-.32109-.23272-.65388-.66673-.90039-1.40625a.50005.50005 0 0 0 -.97461.158203v1a.50005.50005 0 0 0 .14648.353516c1.07896 1.078957 2.04792 1.156164 2.85352 1.146484h.002c.00099 0 .003.000001.004 0 .001-.000016.003.000018.004 0 .36494-.000726.98133-.05472 1.67773-.203125.19213-.0454.36061-.131526.54297-.197266.41443-.1248.82232-.201598 1.24219-.449218 1.34933-.7959 2.52711-2.390471 2.52711-5.150391v-1h2.5c.1326-.00002.25976-.0527.35352-.146484l1-1c.31479-.315.0918-.853346-.35352-.853516h-3.5v-2.529297c.26613.242116.53257.477435.83203.527344.63268.10544 1.23725-.0679 1.76563-.332031 1.05675-.52838 1.9005-1.45715 2.25586-1.8125.45304-.47127-.23577-1.160072-.70704-.707032-.31826.31827-.84181.673592-1.40039.763672-.55857.0901-1.16912-.02339-1.88867-.759765-.0945-.0967-.22417-.150901-.35937-.150391zm-2.50977 3.013672c.004-.000162.008.000167.0117 0v5.986328c0 1.65476-.45037 2.602541-1.13477 3.181641-.20404.172661-.46051.286861-.72656.390625.51062-.823611.86135-1.998533.86135-3.572266v-5.982422c.35078.0051.69957.0073.98828-.0039z" transform="matrix(100 0 0 100 -23600.072 -7299.963)"/></g></svg>