<svg height="1600" viewBox="0 0 1600 1600" width="1600" xmlns="http://www.w3.org/2000/svg" xmlns:inkscape="http://www.inkscape.org/namespaces/inkscape" xmlns:sodipodi="http://sodipodi.sourceforge.net/DTD/sodipodi-0.dtd"><sodipodi:namedview pagecolor="#303030" showgrid="true"><inkscape:grid id="grid5" units="px" spacingx="100" spacingy="100" color="#4772b3" opacity="0.2" visible="true" /></sodipodi:namedview><g fill="#fff"><g enable-background="new" transform="matrix(100 0 0 100 -6802.9027 -34604.748)"><path d="m75.492188 347.04102a.50005.50005 0 0 0 -.492188.50586v6.95312a.50005.50005 0 1 0 1 0v-6.95312a.50005.50005 0 0 0 -.507812-.50586zm0 10.95117a.50005.50005 0 0 0 -.492188.50781v2.04688a.50005.50005 0 1 0 1 0v-2.04688a.50005.50005 0 0 0 -.507812-.50781z" fill-rule="evenodd" opacity=".6"/><path d="m81.492188 347.13672c-.442306.006-.696492.5058-.441407.86719.49808.72856.898438 1.27175.898438 2.60351 0 2.36371-1.912476 5.29297-6.919922 5.29297-2.17926 0-3.451901-.37865-4.130859-.79883-.678959-.42018-.798829-.80387-.798829-1.10156 0-.45749.450606-1.844 3.496094-2.17969.731186-.0565.647202-1.15413-.08398-1.09765-.01241.00091-.02479.002-.03711.004-3.377302.37206-4.474613 2.11431-4.474613 3.27334 0 .6737.378574 1.45551 1.318359 2.03711.939785.58159 2.407524.96289 4.710938.96289 5.452133 0 8.021484-3.41358 8.021484-6.39258 0-1.58243-.595669-2.49605-1.09375-3.22461-.103149-.1556-.278176-.24826-.464843-.24609zm-3.992188 3.83203c-.645258.008-.75144.92907-.125 1.08398.86985.23625 1.603372.59862 2.212891 1.02539.601573.42066 1.232432-.48169.630859-.90234-.709221-.49659-1.560177-.91545-2.554688-1.18555-.05329-.0154-.108604-.0226-.164062-.0215zm4.814453 4.19141c-.370377.014-.621193.38283-.498047.73242.0943.28097.132813.5225.132813.67969 0 .15896.01621.32983.0059.58398-.01039.25415-.04509.56394-.138672.89063-.187171.65336-.583988 1.36714-1.576172 1.91796-.642059.35673-.106902 1.31962.535157.96289 1.249156-.69348 1.849012-1.70822 2.097656-2.57617.124322-.43397.166734-.83367.179687-1.15039.01295-.31671-.002-.5795-.002-.6289 0-.3203-.06792-.66136-.191406-1.0293-.07498-.23555-.297898-.39215-.544922-.38281z"/></g></g></svg>