<svg height="1600" viewBox="0 0 1600 1600" width="1600" xmlns="http://www.w3.org/2000/svg" xmlns:inkscape="http://www.inkscape.org/namespaces/inkscape" xmlns:sodipodi="http://sodipodi.sourceforge.net/DTD/sodipodi-0.dtd"><sodipodi:namedview pagecolor="#303030" showgrid="true"><inkscape:grid id="grid5" units="px" spacingx="100" spacingy="100" color="#4772b3" opacity="0.2" visible="true" /></sodipodi:namedview><g fill="#fff"><g enable-background="new" transform="matrix(0 100 100 0 -28300.105 -29899.75)"><path d="m142.49609 347.00195c-1.17351 0-2.15665.82286-2.42187 1.91797 1.14862.70733 2.04128 1.7894 2.50586 3.07422 1.33547-.0457 2.41601-1.14613 2.41601-2.49219 0-1.37479-1.12521-2.5-2.5-2.5zm.50196 8c-1.65181 0-3.00196 1.35015-3.00196 3.00196s1.35015 3.00195 3.00196 3.00195 3.00195-1.35014 3.00195-3.00195-1.35014-3.00196-3.00195-3.00196z" opacity=".6" transform="matrix(0 1 1 0 -47.0064 152.003)"/><path d="m136.9668 349.03125c-2.73852 0-4.97071 2.23218-4.97071 4.9707 0 2.73853 2.23219 4.96875 4.97071 4.96875.74568 0 1.44822-.1767 2.08398-.47265-.0209-.16376-.0508-.32518-.0508-.49414 0-.2598.0297-.51312.0781-.75977-.60661.39452-1.33048.62695-2.11132.62695-2.14404 0-3.8711-1.72509-3.8711-3.86914 0-2.14404 1.72706-3.87109 3.8711-3.87109 2.14405 0 3.86914 1.72705 3.86914 3.87109 0 .23797-.0296.46946-.0703.69532.35109-.23908.74721-.40722 1.16407-.52539.002-.0568.008-.11267.008-.16993 0-2.73852-2.23217-4.9707-4.9707-4.9707z" transform="matrix(0 1 1 0 -47.0063 152.003)"/></g></g></svg>