<svg height="1600" viewBox="0 0 1600 1600" width="1600" xmlns="http://www.w3.org/2000/svg" xmlns:inkscape="http://www.inkscape.org/namespaces/inkscape" xmlns:sodipodi="http://sodipodi.sourceforge.net/DTD/sodipodi-0.dtd"><sodipodi:namedview pagecolor="#303030" showgrid="true"><inkscape:grid id="grid5" units="px" spacingx="100" spacingy="100" color="#4772b3" opacity="0.2" visible="true" /></sodipodi:namedview><g fill="#fff"><g enable-background="new" transform="matrix(100 0 0 100 -23598.686 -32501.507)"><path d="m239.00391 336c1.09865 0 2 .90134 2 2s-.90135 2-2 2c-1.09866 0-2-.90134-2-2s.90134-2 2-2z" opacity=".6"/><path d="m244.04102 347.03125c-1.67358-.0335-3.28213.6908-3.99805 2.26758-.007.016-.0126.0323-.0176.0488l-2 5.99414c-.21093.63281.73829.94921.94922.3164l1.98437-5.95117c.004-.009.0113-.0162.0156-.0254l7.3457 7.3457c-.008.004-.0138.008-.0215.0117l-5.95703 1.98633c-.63281.21093-.31641 1.16015.3164.94922l6-2c.0166-.006.0329-.0122.0488-.0195 1.57453-.7157 2.29587-2.32277 2.26172-3.9961-.0342-1.67332-.77095-3.46821-2.11523-4.8125-1.34429-1.34428-3.13893-2.08176-4.8125-2.11523zm-.0195 1c1.00796.0202 2.11393.36656 3.0879.99414-1.6826.11569-2.73353.941-3.59961 1.77734l-1.94336-1.94335c.60824-.57833 1.46627-.84791 2.45507-.82813zm3.47848 1.96875h.5v.002l.002.5c-.00064 1.6083-.66875 2.43361-1.50586 3.28711l-2.2832-2.2832c.85338-.83702 1.67794-1.50591 3.28706-1.50591zm1.47656.89258c.62645.97337.97164 2.0788.99219 3.08594.0202.98929-.2502 1.84704-.82813 2.45507l-1.9414-1.9414c.83635-.86594 1.6611-1.91749 1.77734-3.59961z" transform="translate(.000002 -21)"/></g></g></svg>