<svg height="1600" viewBox="0 0 1600 1600" width="1600" xmlns="http://www.w3.org/2000/svg" xmlns:inkscape="http://www.inkscape.org/namespaces/inkscape" xmlns:sodipodi="http://sodipodi.sourceforge.net/DTD/sodipodi-0.dtd"><sodipodi:namedview pagecolor="#303030" showgrid="true"><inkscape:grid id="grid5" units="px" spacingx="100" spacingy="100" color="#4772b3" opacity="0.2" visible="true" /></sodipodi:namedview><g fill="#fff"><g enable-background="new" stroke="none" transform="matrix(100 0 0 100 -25700.42700000001 -45099.289)"><path d="m267.50195 451.98633a.50005.50005 0 0 0 -.34765.85937l2.66015 2.66016-2.67383 2.89648a.50005.50005 0 0 0 -.13281.33985v.5a.50005.50005 0 0 0 .13281.33984l2.67383 2.89649-2.66015 2.66015a.50005.50005 0 1 0 .70703.70703l3-3a.50005.50005 0 0 0 .0137-.69336l-2.86719-3.10546v-.10938l2.86719-3.10547a.50005.50005 0 0 0 -.0137-.69336l-3-3a.50005.50005 0 0 0 -.35938-.15234z" opacity=".7"/><path d="m263.50195 451.98633a.50005.50005 0 0 0 -.34765.85937l2.66015 2.66016-2.67383 2.89648a.50005.50005 0 0 0 -.13281.33985v.5a.50005.50005 0 0 0 .13281.33984l2.67383 2.89649-2.66015 2.66015a.50005.50005 0 1 0 .70703.70703l3-3a.50005.50005 0 0 0 .0137-.69336l-2.86719-3.10546v-.10938l2.86719-3.10547a.50005.50005 0 0 0 -.0137-.69336l-3-3a.50005.50005 0 0 0 -.35938-.15234z" opacity=".85"/><path d="m259.50195 451.98633a.50005.50005 0 0 0 -.34765.85937l2.66015 2.66016-2.67383 2.89648a.50005.50005 0 0 0 -.13281.33985v.5a.50005.50005 0 0 0 .13281.33984l2.67383 2.89649-2.66015 2.66015a.50005.50005 0 1 0 .70703.70703l3-3a.50005.50005 0 0 0 .0137-.69336l-2.86719-3.10546v-.10938l2.86719-3.10547a.50005.50005 0 0 0 -.0137-.69336l-3-3a.50005.50005 0 0 0 -.35938-.15234z"/></g></g></svg>