<svg height="1600" viewBox="0 0 1600 1600" width="1600" xmlns="http://www.w3.org/2000/svg" xmlns:inkscape="http://www.inkscape.org/namespaces/inkscape" xmlns:sodipodi="http://sodipodi.sourceforge.net/DTD/sodipodi-0.dtd"><sodipodi:namedview pagecolor="#303030" showgrid="true"><inkscape:grid id="grid5" units="px" spacingx="100" spacingy="100" color="#4772b3" opacity="0.2" visible="true" /></sodipodi:namedview><g fill="#fff"><path d="m32.855469 347.00586c-.706567.052-1.35787.479-1.669922 1.15234a.50005.50005 0 1 0 .90625.42188c.210359-.45391.713864-.68179 1.193359-.53906.479496.14272.777196.60845.705078 1.10351-.072117.49506-.489946.85547-.990234.85547h-5.5c-.676161-.01-.676161 1.00956 0 1h5.5c.98952 0 1.835874-.73175 1.978516-1.71094.142642-.97918-.459806-1.92277-1.408204-2.20508-.237099-.0706-.479321-.0955-.714843-.0781zm5.632812 1.99414c-.867889.005-1.700579.46414-2.154297 1.25a.5005035.5005035 0 1 0 .867188.5c.36563-.63329 1.125339-.91026 1.8125-.66016.68716.25011 1.089874.94977.96289 1.66993-.126981.72015-.745301 1.24023-1.476562 1.24023h-11c-.676161-.01-.676161 1.00956 0 1h11c1.209914 0 2.252791-.87487 2.462891-2.06641.210099-1.19153-.470475-2.36938-1.607422-2.7832-.284237-.10345-.577891-.15222-.867188-.15039zm-10.988281 7c-.676161-.01-.676161 1.00956 0 1h7.964844.035156c.74205 0 1.3672.53453 1.482422 1.26758.115221.73305-.315216 1.43251-1.021484 1.66015-.706269.22765-1.466229-.0896-1.800782-.75195a.50006246.50006246 0 1 0 -.892578.45117c.553327 1.09549 1.831882 1.62847 3 1.25196 1.168118-.37652 1.891741-1.55517 1.701172-2.76758-.190569-1.21242-1.241451-2.11133-2.46875-2.11133z" transform="matrix(100 0 0 100 -2599.6842 -34599.981)"/></g></svg>