<svg height="1600" viewBox="0 0 1600 1600" width="1600" xmlns="http://www.w3.org/2000/svg" xmlns:inkscape="http://www.inkscape.org/namespaces/inkscape" xmlns:sodipodi="http://sodipodi.sourceforge.net/DTD/sodipodi-0.dtd"><sodipodi:namedview pagecolor="#303030" showgrid="true"><inkscape:grid id="grid5" units="px" spacingx="100" spacingy="100" color="#4772b3" opacity="0.2" visible="true" /></sodipodi:namedview><g fill="#fff"><g enable-background="new" transform="matrix(100 0 0 100 -21500.354 -34600.3531)"><path d="m229.49023 351.99609a.50005.50005 0 0 0 -.34375.15039l-.74609.7461-1.67773-.83985a.50005.50005 0 0 0 -.62305.14649l-.59961.80078h-1a.50005.50005 0 0 0 -.35352.14648l-1 1a.50005.50005 0 0 0 -.14648.35352v2.79297l-1.85352 1.85351a.50005.50005 0 0 0 0 .70704l1 1a.50005.50005 0 1 0 .70704-.70704l-.64649-.64648 1.64649-1.64648a.50005.50005 0 0 0 .14648-.35352v-2.79297l.70703-.70703h1.04297a.50005.50005 0 0 0 .40039-.19922l.5-.66601 1.62695.8125a.50005.50005 0 0 0 .57618-.0937l1-1a.50005.50005 0 0 0 -.36329-.85743z" opacity=".85"/><path d="m223.49219 347a.50005.50005 0 0 0 -.34571.14648l-2 2a.50005.50005 0 0 0 -.14648.35352v.79297l-.70703.70703h-1.79297a.50005.50005 0 0 0 -.35352.14648l-1 1a.50005.50005 0 0 0 0 .70704l.85352.85351v2.58594l-1.85352 1.85351a.50005.50005 0 0 0 -.14648.35352v2a.50005.50005 0 1 0 1 0v-1.79297l1.85352-1.85351a.50005.50005 0 0 0 .14648-.35352v-3a.50005.50005 0 0 0 -.14648-.35352l-.64649-.64648.5-.5h1.79297a.50005.50005 0 0 0 .35352-.14648l1-1a.50005.50005 0 0 0 .14648-.35352v-.79297l1.5-1.5.64648.64649a.50005.50005 0 0 0 .35352.14648h3a.50005.50005 0 0 0 .5-.5v-.5h1.5a.50005.50005 0 1 0 0-1h-2a.50005.50005 0 0 0 -.5.5v.5h-2.29297l-.85351-.85352a.50005.50005 0 0 0 -.36133-.14648z" opacity=".7"/><path d="m228.5 357a.50005.50005 0 0 0 -.35352.14648l-1 1a.50005.50005 0 0 0 0 .70704l.64649.64648-.64649.64648a.50005.50005 0 1 0 .70704.70704l1-1a.50005.50005 0 0 0 0-.70704l-.64649-.64648.5-.5h.79297a.50005.50005 0 1 0 0-1z"/></g></g></svg>