<svg height="1600" viewBox="0 0 1600 1600" width="1600" xmlns="http://www.w3.org/2000/svg" xmlns:inkscape="http://www.inkscape.org/namespaces/inkscape" xmlns:sodipodi="http://sodipodi.sourceforge.net/DTD/sodipodi-0.dtd"><sodipodi:namedview pagecolor="#303030" showgrid="true"><inkscape:grid id="grid5" units="px" spacingx="100" spacingy="100" color="#4772b3" opacity="0.2" visible="true" /></sodipodi:namedview><g fill="#fff"><g enable-background="new" transform="translate(-233 -365)"><path d="m1028 1556c-3.2833 0-6 2.4414-6 5.5 0 1.7056.9046 3.146 2.1523 4.3594l.9942.9941a.50004997.50004997 0 0 0 .3027.1485.50004997.50004997 0 0 0 .051.998h5a.50004997.50004997 0 0 0 .045-.998.50004997.50004997 0 0 0 .3086-.1485l.9981-.998c1.2122-1.1985 2.1465-2.6518 2.1465-4.3535 0-3.0586-2.7167-5.5-6-5.5zm0 1c2.7919 0 5 2.0358 5 4.5 0 1.3342-.7428 2.5488-1.8516 3.6445l-1 1a.50004997.50004997 0 0 0 .2793.8535h-4.8594a.50004997.50004997 0 0 0 .2871-.8535l-1-1a.50004997.50004997 0 0 0 -.01-.01c-1.1397-1.1082-1.8477-2.2864-1.8477-3.6406 0-2.4642 2.2081-4.5 5-4.5zm-2.5 12a.50004997.50004997 0 1 0 0 1h1.5v.5a.50004997.50004997 0 0 0 .5.5h1a.50004997.50004997 0 0 0 .5-.5v-.5h1.5a.50004997.50004997 0 1 0 0-1z"/><path d="m1025.4902 1561.0059a.50005.50005 0 0 0 -.3437.8476l.8535.8535v1.543a.50005.50005 0 1 0 1 0v-1.25h2v1.25a.50005.50005 0 1 0 1 0v-1.543l.8535-.8535a.50005.50005 0 0 0 -.707-.707l-.8535.8535h-2.586l-.8535-.8535a.50005.50005 0 0 0 -.3633-.1406z" opacity=".6"/></g><g enable-background="new" transform="matrix(0 100 100 0 -28300.105 -29899.75)"><path d="m142.49609 347.00195c-1.17351 0-2.15665.82286-2.42187 1.91797 1.14862.70733 2.04128 1.7894 2.50586 3.07422 1.33547-.0457 2.41601-1.14613 2.41601-2.49219 0-1.37479-1.12521-2.5-2.5-2.5zm.50196 8c-1.65181 0-3.00196 1.35015-3.00196 3.00196s1.35015 3.00195 3.00196 3.00195 3.00195-1.35014 3.00195-3.00195-1.35014-3.00196-3.00195-3.00196z" opacity=".6" transform="matrix(0 1 1 0 -47.0064 152.003)"/><path d="m136.9668 349.03125c-2.73852 0-4.97071 2.23218-4.97071 4.9707 0 2.73853 2.23219 4.96875 4.97071 4.96875.74568 0 1.44822-.1767 2.08398-.47265-.0209-.16376-.0508-.32518-.0508-.49414 0-.2598.0297-.51312.0781-.75977-.60661.39452-1.33048.62695-2.11132.62695-2.14404 0-3.8711-1.72509-3.8711-3.86914 0-2.14404 1.72706-3.87109 3.8711-3.87109 2.14405 0 3.86914 1.72705 3.86914 3.87109 0 .23797-.0296.46946-.0703.69532.35109-.23908.74721-.40722 1.16407-.52539.002-.0568.008-.11267.008-.16993 0-2.73852-2.23217-4.9707-4.9707-4.9707z" transform="matrix(0 1 1 0 -47.0063 152.003)"/></g></g></svg>