<svg height="1600" viewBox="0 0 1600 1600" width="1600" xmlns="http://www.w3.org/2000/svg" xmlns:inkscape="http://www.inkscape.org/namespaces/inkscape" xmlns:sodipodi="http://sodipodi.sourceforge.net/DTD/sodipodi-0.dtd"><sodipodi:namedview pagecolor="#303030" showgrid="true"><inkscape:grid id="grid5" units="px" spacingx="100" spacingy="100" color="#4772b3" opacity="0.2" visible="true" /></sodipodi:namedview><g fill="#fff"><g enable-background="new" transform="matrix(-100 0 0 100 16799.804 -28300)"><path d="m153 284v2h2v-2zm2 2v2h2v-2zm2 0h2v-2h-2zm2 0v2h2v-2zm2 0h2v-2h-2zm-6 8v-2h-2v2zm0-2h2v-2h-2zm0-2v-2h-2v2zm2 0h2v-2h-2zm2 0v2h2v-2zm2 0h2v-2h-2zm-2 2h-2v2h2z"/><path d="m163.99805 292.00391c-1.65006 0-2.99805 1.34799-2.99805 2.99804 0 1.65006 1.34799 2.99805 2.99805 2.99805 1.65005 0 2.99804-1.34799 2.99804-2.99805 0-1.65005-1.34799-2.99804-2.99804-2.99804z" opacity=".6"/></g></g></svg>