<svg height="1600" viewBox="0 0 1600 1600" width="1600" xmlns="http://www.w3.org/2000/svg" xmlns:inkscape="http://www.inkscape.org/namespaces/inkscape" xmlns:sodipodi="http://sodipodi.sourceforge.net/DTD/sodipodi-0.dtd"><sodipodi:namedview pagecolor="#303030" showgrid="true"><inkscape:grid id="grid5" units="px" spacingx="100" spacingy="100" color="#4772b3" opacity="0.2" visible="true" /></sodipodi:namedview><g fill="#fff"><g enable-background="new" transform="matrix(-100 0 0 100 29399.995 -34599.981)"><path d="m265.26367 347.00781c-.18015-.0118-.36127-.0106-.54101.002-.71897.05-1.42538.29465-2.03516.72656-1.07953.76463-1.69855 2.00863-1.68359 3.31055-.73615.10606-1.42713.4336-1.96289.96289-.64152.63369-1.00529 1.49176-1.03125 2.39062a.50005.50005 0 0 0 -.00977.09957v1a.50005.50005 0 1 0 1 0v-.96484a.50005.50005 0 0 0 0-.0352c0-.66852.26659-1.30947.74219-1.7793.47558-.46982 1.12059-.7287 1.78906-.7207a.50005.50005 0 0 0 .49609-.61914c-.14075-1.09982.33186-2.1861 1.23828-2.82813.9161-.64887 2.11612-.73246 3.11329-.21679.99716.51571 1.62109 1.54149 1.62109 2.6641a.50005.50005 0 0 0 .002.043c-.15856-.001-.31755-.003-.47461.0137-.85318.0929-1.67617.45304-2.33203 1.06641a.5002238.5002238 0 1 0 .6836.73047c.98705-.92311 2.4814-1.08629 3.65234-.39649s1.72204 2.04918 1.35937 3.33399c-.36266 1.2848-1.55342 2.17677-2.92187 2.17578-1.36845-.001-2.5592-.89437-2.91992-2.17969a.50005.50005 0 0 0 -.0469-.11719.50004997.50004997 0 0 0 0-.002.50004997.50004997 0 0 0 -.0156-.0977c-.19194-.87762-.95663-1.51856-1.85742-1.56836-.9008-.0498-1.73485.50125-2.02539 1.35157a.50060304.50060304 0 0 0 .94726.32421c.14448-.42284.5581-.70333 1.02149-.67773.46338.0256.84227.34777.9375.7832a.50004997.50004997 0 0 0 .0566.1543.50005.50005 0 0 0 .0195.11914c.4828 1.72035 2.07532 2.90916 3.88086 2.91016s3.40131-1.18467 3.88672-2.9043c.4854-1.71963-.26339-3.55306-1.81446-4.4668-.33807-.19915-.69725-.33834-1.06445-.43164a.50005.50005 0 0 0 .02541-.16403c0-1.4945-.83461-2.86624-2.16211-3.55273-.49781-.25748-1.03377-.40392-1.57422-.43946z" transform="matrix(-1 0 0 1 551 0)"/><path d="m290.99609 357c-1.09865 0-2 .90134-2 2s.90135 2 2 2c1.09866 0 2-.90134 2-2s-.90134-2-2-2z" opacity=".6"/></g></g></svg>