<svg height="1600" viewBox="0 0 1600 1600" width="1600" xmlns="http://www.w3.org/2000/svg" xmlns:inkscape="http://www.inkscape.org/namespaces/inkscape" xmlns:sodipodi="http://sodipodi.sourceforge.net/DTD/sodipodi-0.dtd"><sodipodi:namedview pagecolor="#303030" showgrid="true"><inkscape:grid id="grid5" units="px" spacingx="100" spacingy="100" color="#4772b3" opacity="0.2" visible="true" /></sodipodi:namedview><g fill="#fff"><g enable-background="new" transform="matrix(100 0 0 100 -21500.053 -32500)"><path d="m219.77539 326c-.5582 0-1.07768.24943-1.49219.64258-.41451.39314-.75014.92623-1.04101 1.57422-.58174 1.29596-.98621 3.07228-1.23828 5.21484a.55005495.55005495 0 1 0 1.09179.12891c.24409-2.07475.64639-3.77175 1.15039-4.89453.252-.5614.52906-.97431.79297-1.22461.26391-.25031.48846-.3418.73633-.3418.24788 0 .46416.0907.7207.33398.25655.24329.52547.64294.77149 1.17579.49204 1.06569.89452 2.64518 1.18945 4.47851.3037 1.88782.70794 3.53465 1.27539 4.76367.28373.61451.60805 1.12901 1.01367 1.51367.40563.38466.92032.63477 1.47852.63477 1.08819 0 1.93098-.8296 2.51953-1.97266.58855-1.14305.99634-2.67751 1.25-4.45312a.55005495.55005495 0 1 0 -1.08789-.15625c-.2425 1.69747-.64149 3.13986-1.13867 4.10547-.49719.9656-1.01901 1.37695-1.54297 1.37695-.24788 0-.46416-.0907-.7207-.33398-.25655-.24329-.52547-.64294-.77149-1.17579-.49204-1.06569-.89451-2.64518-1.18945-4.47851-.30369-1.88783-.70794-3.53465-1.27539-4.76367-.28373-.61451-.60805-1.12901-1.01367-1.51367-.40563-.38466-.92032-.63477-1.47852-.63477z"/><path d="m218.75 333a.50005.50005 0 1 0 0 1h2a.50005.50005 0 1 0 0-1zm6.5 0a.50005.50005 0 1 0 0 1h2a.50005.50005 0 1 0 0-1z" fill-rule="evenodd" opacity=".6"/></g></g></svg>