<svg height="1600" viewBox="0 0 1600 1600" width="1600" xmlns="http://www.w3.org/2000/svg" xmlns:inkscape="http://www.inkscape.org/namespaces/inkscape" xmlns:sodipodi="http://sodipodi.sourceforge.net/DTD/sodipodi-0.dtd"><sodipodi:namedview pagecolor="#303030" showgrid="true"><inkscape:grid id="grid5" units="px" spacingx="100" spacingy="100" color="#4772b3" opacity="0.2" visible="true" /></sodipodi:namedview><g fill="#fff"><g enable-background="new" transform="translate(-233 -365)"><path d="m1028 1556c-3.2833 0-6 2.4414-6 5.5 0 1.7056.9046 3.146 2.1523 4.3594l.9942.9941a.50004997.50004997 0 0 0 .3027.1485.50004997.50004997 0 0 0 .051.998h5a.50004997.50004997 0 0 0 .045-.998.50004997.50004997 0 0 0 .3086-.1485l.9981-.998c1.2122-1.1985 2.1465-2.6518 2.1465-4.3535 0-3.0586-2.7167-5.5-6-5.5zm0 1c2.7919 0 5 2.0358 5 4.5 0 1.3342-.7428 2.5488-1.8516 3.6445l-1 1a.50004997.50004997 0 0 0 .2793.8535h-4.8594a.50004997.50004997 0 0 0 .2871-.8535l-1-1a.50004997.50004997 0 0 0 -.01-.01c-1.1397-1.1082-1.8477-2.2864-1.8477-3.6406 0-2.4642 2.2081-4.5 5-4.5zm-2.5 12a.50004997.50004997 0 1 0 0 1h1.5v.5a.50004997.50004997 0 0 0 .5.5h1a.50004997.50004997 0 0 0 .5-.5v-.5h1.5a.50004997.50004997 0 1 0 0-1z"/><path d="m1025.4902 1561.0059a.50005.50005 0 0 0 -.3437.8476l.8535.8535v1.543a.50005.50005 0 1 0 1 0v-1.25h2v1.25a.50005.50005 0 1 0 1 0v-1.543l.8535-.8535a.50005.50005 0 0 0 -.707-.707l-.8535.8535h-2.586l-.8535-.8535a.50005.50005 0 0 0 -.3633-.1406z" opacity=".6"/></g><g enable-background="new" transform="matrix(-100 0 0 100 18900.54 -36200.0051)"><path d="m198.03906 347.00195c-.16252-.007-.32108.006-.47461.0371-1.22821.25238-1.95915 1.36682-2.45507 2.09766a.60006002.60006002 0 1 0 .99218.67383c.46736-.68874 1.16385-1.48449 1.70508-1.59571.27061-.0556.53217-.0252.94727.3125.41509.33772.93861 1.01123 1.49804 2.15625a.60006002.60006002 0 0 0 .53907.33594h.41406a.60006002.60006002 0 0 0 .54101-.33789c.54756-1.13491 1.06338-1.80121 1.47657-2.13476.41318-.3336.68072-.3648.95898-.3086.55653.1125 1.2624.90264 1.7168 1.57227a.60006002.60006002 0 1 0 .99218-.67383c-.49155-.72441-1.2401-1.82545-2.4707-2.07422-.6153-.12438-1.32524.0455-1.95117.55078-.51038.41204-.98784 1.19591-1.4707 2.07617-.49098-.88906-.97541-1.67806-1.48633-2.09375-.46868-.38133-.98509-.5741-1.47266-.59375zm4.19141 5.99805c-.77376-.00076-1.47981.46475-2.07031 1.12109a.60022344.60022344 0 1 0 .89257.80274c.54185-.60226.93231-.77859 1.30469-.71289.37239.0657.94999.47591 1.63867 1.53906a.60006002.60006002 0 0 0 1.00782 0c.68868-1.06315 1.26628-1.47336 1.63867-1.53906.37238-.0657.76284.11063 1.30469.71289a.60022344.60022344 0 1 0 .89257-.80274c-.67486-.75011-1.50108-1.25149-2.40625-1.09179-.70977.12522-1.32665.68468-1.93359 1.45508-.60694-.7704-1.22382-1.32986-1.93359-1.45508-.11315-.02-.2254-.0292-.33594-.0293z" transform="matrix(-1 0 0 1 382.999 16)"/><path d="m185.50195 372c1.37479 0 2.5 1.12521 2.5 2.5s-1.12521 2.5-2.5 2.5-2.5-1.12521-2.5-2.5 1.12521-2.5 2.5-2.5z" opacity=".6"/></g></g></svg>