<svg height="1600" viewBox="0 0 1600 1600" width="1600" xmlns="http://www.w3.org/2000/svg" xmlns:inkscape="http://www.inkscape.org/namespaces/inkscape" xmlns:sodipodi="http://sodipodi.sourceforge.net/DTD/sodipodi-0.dtd"><sodipodi:namedview pagecolor="#303030" showgrid="true"><inkscape:grid id="grid5" units="px" spacingx="100" spacingy="100" color="#4772b3" opacity="0.2" visible="true" /></sodipodi:namedview><g fill="#fff"><path d="m54.951172 347c-1.831463.10706-3.628606.91857-4.910156 2.35742-2.943003 3.30422-2.532587 8.31019.05078 11.44531a.5501659.5501659 0 1 0 .849609-.69921c-2.251956-2.73294-2.615242-7.16516-.07813-10.01368 2.156081-2.42072 6.066547-2.73646 8.435547-.43164 1.937906 1.88542 2.205459 5.18464.267578 7.14453-1.518438 1.53565-4.123722 1.73043-5.623047.11133-1.098553-1.18629-1.217866-3.2114.03516-4.28515.40623-.34811.977609-.54432 1.501953-.52539.524344.0189.981344.22421 1.291015.67968.145266.21367.237116.58238.201172.86719-.03594.28481-.127716.44479-.371094.5332a.55049551.55049551 0 1 0 .375 1.03516c.656421-.23845 1.015068-.85266 1.087891-1.42969.07282-.57703-.06773-1.15869-.384765-1.625-.517269-.76081-1.34716-1.12886-2.160157-1.1582-.812997-.0293-1.63015.25121-2.257812.78906-1.781519 1.52664-1.618395 4.25452-.125 5.86719 1.955333 2.11153 5.283443 1.86538 7.21289-.0859 2.400922-2.4282 2.076076-6.41165-.283203-8.70703-1.417731-1.37933-3.283772-1.9762-5.115234-1.86914z" opacity=".95" transform="matrix(100 0 0 100 -4699.5379 -34599.5577)"/></g></svg>