<svg height="1600" viewBox="0 0 1600 1600" width="1600" xmlns="http://www.w3.org/2000/svg" xmlns:inkscape="http://www.inkscape.org/namespaces/inkscape" xmlns:sodipodi="http://sodipodi.sourceforge.net/DTD/sodipodi-0.dtd"><sodipodi:namedview pagecolor="#303030" showgrid="true"><inkscape:grid id="grid5" units="px" spacingx="100" spacingy="100" color="#4772b3" opacity="0.2" visible="true" /></sodipodi:namedview><g fill="#fff"><g enable-background="new" transform="matrix(100 0 0 100 -17299.804 -32499.977)"><path d="m176.49609 335c-1.37479 0-2.5 1.12521-2.5 2.5s1.12521 2.5 2.5 2.5 2.5-1.12521 2.5-2.5-1.12521-2.5-2.5-2.5z" opacity=".6"/><path d="m181.54297 326a.60006002.60006002 0 1 0 0 1.19922h.97656c1.24133 0 2.31915.34169 3.06836.9668.74922.6251 1.21289 1.52687 1.21289 2.85156 0 2.62859-2.35092 5.18453-6.32422 5.78906a.60006002.60006002 0 1 0 .18164 1.18555c4.40846-.67075 7.3418-3.63746 7.3418-6.97461 0-1.62072-.62669-2.92584-1.64258-3.77344-1.01588-.8476-2.37844-1.24414-3.83789-1.24414z"/></g></g></svg>