<svg height="1600" viewBox="0 0 1600 1600" width="1600" xmlns="http://www.w3.org/2000/svg" xmlns:inkscape="http://www.inkscape.org/namespaces/inkscape" xmlns:sodipodi="http://sodipodi.sourceforge.net/DTD/sodipodi-0.dtd"><sodipodi:namedview pagecolor="#303030" showgrid="true"><inkscape:grid id="grid5" units="px" spacingx="100" spacingy="100" color="#4772b3" opacity="0.2" visible="true" /></sodipodi:namedview><g fill="#fff"><g enable-background="new" transform="translate(-233 -365)"><path d="m1028 1556c-3.2833 0-6 2.4414-6 5.5 0 1.7056.9046 3.146 2.1523 4.3594l.9942.9941a.50004997.50004997 0 0 0 .3027.1485.50004997.50004997 0 0 0 .051.998h5a.50004997.50004997 0 0 0 .045-.998.50004997.50004997 0 0 0 .3086-.1485l.9981-.998c1.2122-1.1985 2.1465-2.6518 2.1465-4.3535 0-3.0586-2.7167-5.5-6-5.5zm0 1c2.7919 0 5 2.0358 5 4.5 0 1.3342-.7428 2.5488-1.8516 3.6445l-1 1a.50004997.50004997 0 0 0 .2793.8535h-4.8594a.50004997.50004997 0 0 0 .2871-.8535l-1-1a.50004997.50004997 0 0 0 -.01-.01c-1.1397-1.1082-1.8477-2.2864-1.8477-3.6406 0-2.4642 2.2081-4.5 5-4.5zm-2.5 12a.50004997.50004997 0 1 0 0 1h1.5v.5a.50004997.50004997 0 0 0 .5.5h1a.50004997.50004997 0 0 0 .5-.5v-.5h1.5a.50004997.50004997 0 1 0 0-1z"/><path d="m1025.4902 1561.0059a.50005.50005 0 0 0 -.3437.8476l.8535.8535v1.543a.50005.50005 0 1 0 1 0v-1.25h2v1.25a.50005.50005 0 1 0 1 0v-1.543l.8535-.8535a.50005.50005 0 0 0 -.707-.707l-.8535.8535h-2.586l-.8535-.8535a.50005.50005 0 0 0 -.3633-.1406z" opacity=".6"/></g><path d="m32.855469 347.00586c-.706567.052-1.35787.479-1.669922 1.15234a.50005.50005 0 1 0 .90625.42188c.210359-.45391.713864-.68179 1.193359-.53906.479496.14272.777196.60845.705078 1.10351-.072117.49506-.489946.85547-.990234.85547h-5.5c-.676161-.01-.676161 1.00956 0 1h5.5c.98952 0 1.835874-.73175 1.978516-1.71094.142642-.97918-.459806-1.92277-1.408204-2.20508-.237099-.0706-.479321-.0955-.714843-.0781zm5.632812 1.99414c-.867889.005-1.700579.46414-2.154297 1.25a.5005035.5005035 0 1 0 .867188.5c.36563-.63329 1.125339-.91026 1.8125-.66016.68716.25011 1.089874.94977.96289 1.66993-.126981.72015-.745301 1.24023-1.476562 1.24023h-11c-.676161-.01-.676161 1.00956 0 1h11c1.209914 0 2.252791-.87487 2.462891-2.06641.210099-1.19153-.470475-2.36938-1.607422-2.7832-.284237-.10345-.577891-.15222-.867188-.15039zm-10.988281 7c-.676161-.01-.676161 1.00956 0 1h7.964844.035156c.74205 0 1.3672.53453 1.482422 1.26758.115221.73305-.315216 1.43251-1.021484 1.66015-.706269.22765-1.466229-.0896-1.800782-.75195a.50006246.50006246 0 1 0 -.892578.45117c.553327 1.09549 1.831882 1.62847 3 1.25196 1.168118-.37652 1.891741-1.55517 1.701172-2.76758-.190569-1.21242-1.241451-2.11133-2.46875-2.11133z" transform="matrix(100 0 0 100 -2599.6842 -34599.981)"/></g></svg>