<svg height="1600" viewBox="0 0 1600 1600" width="1600" xmlns="http://www.w3.org/2000/svg" xmlns:inkscape="http://www.inkscape.org/namespaces/inkscape" xmlns:sodipodi="http://sodipodi.sourceforge.net/DTD/sodipodi-0.dtd"><sodipodi:namedview pagecolor="#303030" showgrid="true"><inkscape:grid id="grid5" units="px" spacingx="100" spacingy="100" color="#4772b3" opacity="0.2" visible="true" /></sodipodi:namedview><g fill="#fff"><path d="m306.49219 577.99219a.50004997.50004997 0 0 0 -.49219.50781v2.79297l-2.14648-2.14649a.50004997.50004997 0 1 0 -.70704.70704l2.85352 2.85351v.58203c-.58959.34718-.99219.98165-.99219 1.71094h-.30078l-2.85351-2.85352a.50004997.50004997 0 0 0 -.35938-.15234.50004997.50004997 0 0 0 -.34766.85938l2.14649 2.14648h-2.79297a.50004997.50004997 0 1 0 0 1h2.79297l-2.14649 2.14648a.50004997.50004997 0 1 0 .70704.70704l2.85351-2.85352h.58203c.34718.58959.98165.99219 1.71094.99219v.30078l-2.85352 2.85351a.50004997.50004997 0 1 0 .70704.70704l2.14648-2.14649v2.79297a.50004997.50004997 0 1 0 1 0v-2.79297l2.14648 2.14649a.50004997.50004997 0 1 0 .70704-.70704l-2.85352-2.85351v-.58203c.58959-.34718.99219-.98165.99219-1.71094h.30078l2.85351 2.85352a.50004997.50004997 0 1 0 .70704-.70704l-2.14649-2.14648h2.79297a.50004997.50004997 0 1 0 0-1h-2.79297l2.14649-2.14648a.50004997.50004997 0 0 0 -.36329-.85743.50004997.50004997 0 0 0 -.34375.15039l-2.85351 2.85352h-.58203c-.34718-.58959-.98165-.99219-1.71094-.99219v-.30078l2.85352-2.85351a.50004997.50004997 0 1 0 -.70704-.70704l-2.14648 2.14649v-2.79297a.50004997.50004997 0 0 0 -.50781-.50781zm.50781 6.01562c.55427 0 .99219.43792.99219.99219s-.43792.99219-.99219.99219-.99219-.43792-.99219-.99219.43792-.99219.99219-.99219z" transform="matrix(100 0 0 100 -29900 -57699.962)"/></g></svg>