<svg height="1600" viewBox="0 0 1600 1600" width="1600" xmlns="http://www.w3.org/2000/svg" xmlns:inkscape="http://www.inkscape.org/namespaces/inkscape" xmlns:sodipodi="http://sodipodi.sourceforge.net/DTD/sodipodi-0.dtd"><sodipodi:namedview pagecolor="#303030" showgrid="true"><inkscape:grid id="grid5" units="px" spacingx="100" spacingy="100" color="#4772b3" opacity="0.2" visible="true" /></sodipodi:namedview><g fill="#fff"><g enable-background="new" transform="matrix(100 0 0 100 71399.517 9100.483)"><path d="m-699.50391-90.009766a.50005.50005 0 0 0 -.34375.150391l-4.14648 4.136719v-2.783203a.50005.50005 0 1 0 -1 0v4a.50005.50005 0 0 0 .5.5h4a.50005.50005 0 1 0 0-1h-2.80274l4.1543-4.144532a.50005.50005 0 0 0 -.36133-.859375zm-11.98828 8.001954a.50005.50005 0 1 0 0 1h2.78321l-4.13868 4.148437a.50005.50005 0 1 0 .70899.705078l4.14648-4.15625v2.802735a.50005.50005 0 1 0 1 0v-4a.50005.50005 0 0 0 -.5-.5z"/><path d="m-710.49414-88.007812a.50005.50005 0 0 0 -.5.5v4.501953h1v-4.001953h4v-1zm8.50195 5.001953v4h-4.00195v1h4.50195a.50005.50005 0 0 0 .5-.5v-4.5z" opacity=".5"/></g></g></svg>