<svg height="1600" viewBox="0 0 1600 1600" width="1600" xmlns="http://www.w3.org/2000/svg" xmlns:inkscape="http://www.inkscape.org/namespaces/inkscape" xmlns:sodipodi="http://sodipodi.sourceforge.net/DTD/sodipodi-0.dtd"><sodipodi:namedview pagecolor="#303030" showgrid="true"><inkscape:grid id="grid5" units="px" spacingx="100" spacingy="100" color="#4772b3" opacity="0.2" visible="true" /></sodipodi:namedview><g fill="#fff"><path d="m408.48148 452.0625c-1.71014.0728-3.32227 1.4838-3.32227 3.9375 0 2.05278 1.07076 4.01178 2.38672 5.71289 1.31595 1.70111 2.90024 3.15481 4.03125 4.16016.0914.0816.20954.12673.33203.12695h.5c.12249-.00022.24064-.0454.33203-.12695 1.13101-1.00535 2.7153-2.45905 4.03125-4.16016 1.31596-1.70111 2.38672-3.66011 2.38672-5.71289 0-2.4537-1.61213-3.86473-3.32227-3.9375-1.52139-.0647-3.0532.927-3.67773 2.69727-.62453-1.77027-2.15634-2.76201-3.67773-2.69727z" transform="matrix(100 0 0 100 -40415.921 -45102.9758)"/></g></svg>