<svg id="svg3" height="1600" viewBox="0 0 1600 1600" width="1600" xmlns="http://www.w3.org/2000/svg" xmlns:inkscape="http://www.inkscape.org/namespaces/inkscape" xmlns:sodipodi="http://sodipodi.sourceforge.net/DTD/sodipodi-0.dtd"><sodipodi:namedview pagecolor="#303030" showgrid="true"><inkscape:grid id="grid5" units="px" spacingx="100" spacingy="100" color="#4772b3" opacity="0.2" visible="true" /></sodipodi:namedview><g id="g1" fill="#fff" transform="matrix(.98102624 0 0 1.0749341 1.897376 -112.40101)"><path id="path4" d="m1119.1126 197.92139c-59.1448.0701-79.4001 32.42426-101.8372 71.28667l-288.349 528.96996c-22.60964 39.16103-22.60963 87.63389 0 126.79492 22.60958 39.16103 64.58929 63.39844 109.80855 63.39844h561.26505c45.2192-.00003 87.197-24.23742 109.8066-63.39844s22.6097-87.63195 0-126.79297l-289.3683-529.43706s-37.0833-70.89768-101.3257-70.82152z" stroke-linejoin="round"/><path id="rect5" d="m610.09096 700c-109.93481 0-204.3247 90.06519-204.3247 200v400c0 109.9348 84.29893 200 194.23374 200h420.1819c109.9348 0 200-90.0652 200-200v-156.752c0-23.8511-19.3149-43.1973-43.166-43.2421h-366.92494c-80.94767 0-155.94219-43.2978-196.41602-113.40043-40.47383-70.10274-40.47384-156.69805 0-226.80078l15.47223-26.79787a22.004379 22.004379 60.000376 0 0 -19.05621-33.00682z" fill-opacity=".8" stroke-linejoin="round"/><path id="path21" d="m500 100c-220.91368 0-400 179.08632-400 400 .29932 105.42448 42.06593 204.75768 113.62706 278.14783 15.03694 15.42126 31.38941 29.69705 48.94911 42.64319 22.21207 16.37616 37.42383 6.79102 37.42383-20.79102 0-100 77.78829-300 307.20783-300h50a86.559786 86.559786 149.98775 0 0 74.98148-43.31196l76.1334-131.99727c13.79689-23.92054 18.62639-65.85559 1.06101-87.06829-4.23374-5.11286-10.09396-11.22415-19.33409-20.46428-75.01448-75.01447-183.96314-117.1582-290.04963-117.1582z" fill-opacity=".6" transform="translate(0 100)"/></g></svg>