<svg height="1600" viewBox="0 0 1600 1600" width="1600" xmlns="http://www.w3.org/2000/svg" xmlns:inkscape="http://www.inkscape.org/namespaces/inkscape" xmlns:sodipodi="http://sodipodi.sourceforge.net/DTD/sodipodi-0.dtd"><sodipodi:namedview pagecolor="#303030" showgrid="true"><inkscape:grid id="grid5" units="px" spacingx="100" spacingy="100" color="#4772b3" opacity="0.2" visible="true" /></sodipodi:namedview><g fill="#fff"><g enable-background="new" transform="matrix(100 0 0 100 -36184.072 -55583.925)"><path d="m373.21906 563.36205c-2.04533 0-3.71335 1.66802-3.71335 3.71335 0 2.04534 1.66802 3.71336 3.71335 3.71336 2.04534 0 3.71336-1.66802 3.71336-3.71336 0-2.04533-1.66802-3.71335-3.71336-3.71335z"/><path d="m364.3828 556.88974c-.8999 0-1.63379.73389-1.63379 1.6338 0 .89988.73389 1.6338 1.63379 1.6338.89991 0 1.6338-.7339 1.6338-1.6338s-.73389-1.6338-1.6338-1.6338z" opacity=".6"/><path d="m366.50464 561.82783c-1.31395 0-2.38552 1.07155-2.38552 2.3855s1.07157 2.38555 2.38552 2.38555c1.31396 0 2.38553-1.07158 2.38553-2.38555 0-1.31395-1.07157-2.3855-2.38553-2.3855z" opacity=".85"/><path d="m368.88012 557.69285c-1.06196 0-1.928.86602-1.928 1.92801 0 1.06192.86604 1.92798 1.928 1.92798 1.06195 0 1.92801-.86606 1.92801-1.92798 0-1.06195-.86606-1.92801-1.92801-1.92801z" opacity=".6"/></g></g></svg>