<svg height="1600" viewBox="0 0 1400 1600" width="1400" xmlns="http://www.w3.org/2000/svg" xmlns:inkscape="http://www.inkscape.org/namespaces/inkscape" xmlns:sodipodi="http://sodipodi.sourceforge.net/DTD/sodipodi-0.dtd"><sodipodi:namedview pagecolor="#303030" showgrid="true"><inkscape:grid id="grid5" units="px" spacingx="100" spacingy="100" color="#4772b3" opacity="0.2" visible="true" /></sodipodi:namedview><g fill="#fff"><g enable-background="new" transform="translate(-233 -365)"><path d="m1028 1556c-3.2833 0-6 2.4414-6 5.5 0 1.7056.9046 3.146 2.1523 4.3594l.9942.9941a.50004997.50004997 0 0 0 .3027.1485.50004997.50004997 0 0 0 .051.998h5a.50004997.50004997 0 0 0 .045-.998.50004997.50004997 0 0 0 .3086-.1485l.9981-.998c1.2122-1.1985 2.1465-2.6518 2.1465-4.3535 0-3.0586-2.7167-5.5-6-5.5zm0 1c2.7919 0 5 2.0358 5 4.5 0 1.3342-.7428 2.5488-1.8516 3.6445l-1 1a.50004997.50004997 0 0 0 .2793.8535h-4.8594a.50004997.50004997 0 0 0 .2871-.8535l-1-1a.50004997.50004997 0 0 0 -.01-.01c-1.1397-1.1082-1.8477-2.2864-1.8477-3.6406 0-2.4642 2.2081-4.5 5-4.5zm-2.5 12a.50004997.50004997 0 1 0 0 1h1.5v.5a.50004997.50004997 0 0 0 .5.5h1a.50004997.50004997 0 0 0 .5-.5v-.5h1.5a.50004997.50004997 0 1 0 0-1z"/><path d="m1025.4902 1561.0059a.50005.50005 0 0 0 -.3437.8476l.8535.8535v1.543a.50005.50005 0 1 0 1 0v-1.25h2v1.25a.50005.50005 0 1 0 1 0v-1.543l.8535-.8535a.50005.50005 0 0 0 -.707-.707l-.8535.8535h-2.586l-.8535-.8535a.50005.50005 0 0 0 -.3633-.1406z" opacity=".6"/></g><path d="m34.5 578c-1.48507 0-2.8535.46731-3.86133 1.33594-1.00783.86862-1.63867 2.14879-1.63867 3.66406v3.5c0 1.66667.001 2.82293-.89062 3.9375-.0709.0887-.10946.19893-.10938.3125v.75c.00003.27613.22387.49997.5.5h.5c1.04885 0 2.13736-.63444 3.45898-2.04297l1.66797 1.875c.19883.22274.54727.22274.7461 0l1.62695-1.83008 1.62695 1.83008c.0947.10662.23044.16774.37305.16797h1c.27613-.00003.49997-.22387.5-.5v-2-1-5.5c0-1.51527-.63084-2.79544-1.63867-3.66406-1.00783-.86863-2.37626-1.33594-3.86133-1.33594zm-3.00781 4c.1353-.002.26563.0508.36133.14648l2 2c.31479.315.09181.85335-.35352.85352h-2c-.27613-.00003-.49997-.22387-.5-.5v-2c-.00001-.27311.21911-.496.49219-.5zm5.99219 0c.2822-.009.51573.21765.51562.5v2c-.00003.27613-.22387.49997-.5.5h-2c-.44532-.00017-.66831-.53852-.35352-.85352l2-2c.0899-.0901.21072-.14248.3379-.14648z" transform="matrix(100 0 0 100 -2700 -57700)"/></g></svg>