<svg height="1600" viewBox="0 0 1400 1600" width="1400" xmlns="http://www.w3.org/2000/svg" xmlns:inkscape="http://www.inkscape.org/namespaces/inkscape" xmlns:sodipodi="http://sodipodi.sourceforge.net/DTD/sodipodi-0.dtd"><sodipodi:namedview pagecolor="#303030" showgrid="true"><inkscape:grid id="grid5" units="px" spacingx="100" spacingy="100" color="#4772b3" opacity="0.2" visible="true" /></sodipodi:namedview><g fill="#fff"><g enable-background="new" transform="translate(-233 -365)"><path d="m1028 1556c-3.2833 0-6 2.4414-6 5.5 0 1.7056.9046 3.146 2.1523 4.3594l.9942.9941a.50004997.50004997 0 0 0 .3027.1485.50004997.50004997 0 0 0 .051.998h5a.50004997.50004997 0 0 0 .045-.998.50004997.50004997 0 0 0 .3086-.1485l.9981-.998c1.2122-1.1985 2.1465-2.6518 2.1465-4.3535 0-3.0586-2.7167-5.5-6-5.5zm0 1c2.7919 0 5 2.0358 5 4.5 0 1.3342-.7428 2.5488-1.8516 3.6445l-1 1a.50004997.50004997 0 0 0 .2793.8535h-4.8594a.50004997.50004997 0 0 0 .2871-.8535l-1-1a.50004997.50004997 0 0 0 -.01-.01c-1.1397-1.1082-1.8477-2.2864-1.8477-3.6406 0-2.4642 2.2081-4.5 5-4.5zm-2.5 12a.50004997.50004997 0 1 0 0 1h1.5v.5a.50004997.50004997 0 0 0 .5.5h1a.50004997.50004997 0 0 0 .5-.5v-.5h1.5a.50004997.50004997 0 1 0 0-1z"/><path d="m1025.4902 1561.0059a.50005.50005 0 0 0 -.3437.8476l.8535.8535v1.543a.50005.50005 0 1 0 1 0v-1.25h2v1.25a.50005.50005 0 1 0 1 0v-1.543l.8535-.8535a.50005.50005 0 0 0 -.707-.707l-.8535.8535h-2.586l-.8535-.8535a.50005.50005 0 0 0 -.3633-.1406z" opacity=".6"/></g><path d="m349.5 578c-1.48507 0-2.8535.46731-3.86133 1.33594-1.00783.86862-1.63867 2.14879-1.63867 3.66406v3c0 .83333-.007 1.35913-.11133 1.78711-.10481.42798-.303.80502-.77929 1.40039a.50005.50005 0 0 0 -.10938.3125v2a.50005.50005 0 0 0 .5.5h1 1a.50005.50005 0 0 0 .33008-.12305l1.64648-1.44336 1.41992 1.41993a.50005.50005 0 0 0 .35352.14648h.5a.50005.50005 0 0 0 .35352-.14648l1.39648-1.39649 1.39648 1.39649a.50005.50005 0 0 0 .35352.14648h1.25a.50005.50005 0 0 0 .5-.5v-2-1-5.5c0-1.51527-.63084-2.79544-1.63867-3.66406-1.00783-.86863-2.37626-1.33594-3.86133-1.33594zm0 1c1.27493 0 2.40681.40238 3.20898 1.09375.80218.69137 1.29102 1.66152 1.29102 2.90625v5.5 1 1.5h-.54297l-1.60351-1.60352a.50005.50005 0 0 0 -.70704 0l-1.60351 1.60352h-.0859l-1.60351-1.60352a.50005.50005 0 0 0 -.6836-.0234l-1.85746 1.62692h-.8125-.5v-1.38867c.42104-.55984.73249-1.05984.86133-1.58594.14519-.59285.13867-1.19206.13867-2.02539v-3c0-1.24473.48884-2.21488 1.29102-2.90625.80217-.69137 1.93405-1.09375 3.20898-1.09375zm-1.00586 2.99219a.50005.50005 0 0 0 -.34766.15429l-.64648.64649-.64648-.64649a.50005.50005 0 0 0 -.35938-.15234.50005.50005 0 0 0 -.34766.85938l.64649.64648-.64649.64648a.50005.50005 0 1 0 .70704.70704l.64648-.64649.64648.64649a.50005.50005 0 1 0 .70704-.70704l-.64649-.64648.64649-.64648a.50005.50005 0 0 0 -.35938-.86133zm4 0a.50005.50005 0 0 0 -.34766.15429l-.64648.64649-.64648-.64649a.50005.50005 0 0 0 -.35938-.15234.50005.50005 0 0 0 -.34766.85938l.64649.64648-.64649.64648a.50005.50005 0 1 0 .70704.70704l.64648-.64649.64648.64649a.50005.50005 0 1 0 .70704-.70704l-.64649-.64648.64649-.64648a.50005.50005 0 0 0 -.35938-.86133z" opacity=".6" transform="matrix(100 0 0 100 -34200 -57700)"/></g></svg>