<svg height="1600" viewBox="0 0 1400 1600" width="1400" xmlns="http://www.w3.org/2000/svg" xmlns:inkscape="http://www.inkscape.org/namespaces/inkscape" xmlns:sodipodi="http://sodipodi.sourceforge.net/DTD/sodipodi-0.dtd"><sodipodi:namedview pagecolor="#303030" showgrid="true"><inkscape:grid id="grid5" units="px" spacingx="100" spacingy="100" color="#4772b3" opacity="0.2" visible="true" /></sodipodi:namedview><g fill="#fff"><path d="m34.5 578c-1.48507 0-2.8535.46731-3.86133 1.33594-1.00783.86862-1.63867 2.14879-1.63867 3.66406v3.5c0 1.66667.001 2.82293-.89062 3.9375-.0709.0887-.10946.19893-.10938.3125v.75c.00003.27613.22387.49997.5.5h.5c1.04885 0 2.13736-.63444 3.45898-2.04297l1.66797 1.875c.19883.22274.54727.22274.7461 0l1.62695-1.83008 1.62695 1.83008c.0947.10662.23044.16774.37305.16797h1c.27613-.00003.49997-.22387.5-.5v-2-1-5.5c0-1.51527-.63084-2.79544-1.63867-3.66406-1.00783-.86863-2.37626-1.33594-3.86133-1.33594zm-3.00781 4c.1353-.002.26563.0508.36133.14648l2 2c.31479.315.09181.85335-.35352.85352h-2c-.27613-.00003-.49997-.22387-.5-.5v-2c-.00001-.27311.21911-.496.49219-.5zm5.99219 0c.2822-.009.51573.21765.51562.5v2c-.00003.27613-.22387.49997-.5.5h-2c-.44532-.00017-.66831-.53852-.35352-.85352l2-2c.0899-.0901.21072-.14248.3379-.14648z" transform="matrix(100 0 0 100 -2700 -57700)"/></g></svg>