<svg height="1600" viewBox="0 0 1600 1600" width="1600" xmlns="http://www.w3.org/2000/svg" xmlns:inkscape="http://www.inkscape.org/namespaces/inkscape" xmlns:sodipodi="http://sodipodi.sourceforge.net/DTD/sodipodi-0.dtd"><sodipodi:namedview pagecolor="#303030" showgrid="true"><inkscape:grid id="grid5" units="px" spacingx="100" spacingy="100" color="#4772b3" opacity="0.2" visible="true" /></sodipodi:namedview><g fill="#fff"><g enable-background="new" transform="translate(-233 -365)"><path d="m1028 1556c-3.2833 0-6 2.4414-6 5.5 0 1.7056.9046 3.146 2.1523 4.3594l.9942.9941a.50004997.50004997 0 0 0 .3027.1485.50004997.50004997 0 0 0 .051.998h5a.50004997.50004997 0 0 0 .045-.998.50004997.50004997 0 0 0 .3086-.1485l.9981-.998c1.2122-1.1985 2.1465-2.6518 2.1465-4.3535 0-3.0586-2.7167-5.5-6-5.5zm0 1c2.7919 0 5 2.0358 5 4.5 0 1.3342-.7428 2.5488-1.8516 3.6445l-1 1a.50004997.50004997 0 0 0 .2793.8535h-4.8594a.50004997.50004997 0 0 0 .2871-.8535l-1-1a.50004997.50004997 0 0 0 -.01-.01c-1.1397-1.1082-1.8477-2.2864-1.8477-3.6406 0-2.4642 2.2081-4.5 5-4.5zm-2.5 12a.50004997.50004997 0 1 0 0 1h1.5v.5a.50004997.50004997 0 0 0 .5.5h1a.50004997.50004997 0 0 0 .5-.5v-.5h1.5a.50004997.50004997 0 1 0 0-1z"/><path d="m1025.4902 1561.0059a.50005.50005 0 0 0 -.3437.8476l.8535.8535v1.543a.50005.50005 0 1 0 1 0v-1.25h2v1.25a.50005.50005 0 1 0 1 0v-1.543l.8535-.8535a.50005.50005 0 0 0 -.707-.707l-.8535.8535h-2.586l-.8535-.8535a.50005.50005 0 0 0 -.3633-.1406z" opacity=".6"/></g><g enable-background="new" transform="matrix(100 0 0 100 42999.99700000001 -182599.993)"><path d="m-419.5 1827a.50005.50005 0 1 0 0 1h2.79492l-2.96875 2.9688c.24471.2267.48032.4623.70703.707l2.9668-2.9668v2.791a.50005.50005 0 1 0 1 0v-4a.50005.50005 0 0 0 -.5-.5zm-2.98438 6.7793-3.50585 3.5059c-.29805-.1771-.64034-.2852-1.00977-.2852-1.09865 0-2 .9013-2 2 0 1.0986.90135 2 2 2s2-.9014 2-2c0-.3677-.10771-.7107-.2832-1.0078l3.50586-3.5059c-.22252-.2491-.45807-.4843-.70704-.707zm-4.51562 4.2207c.55821 0 1 .4417 1 1 0 .5582-.44179 1-1 1s-1-.4418-1-1c0-.5583.44179-1 1-1z"/><path d="m-428.49556 1829a.4997692.49966962 0 1 0 0 .9993c5.80308 0 10.49606 4.6921 10.49606 10.494a.4997692.49966962 0 1 0 .99944 0c0-6.3418-5.1523-11.4933-11.4955-11.4933z"/></g></g></svg>