<svg height="1600" viewBox="0 0 1600 1600" width="1600" xmlns="http://www.w3.org/2000/svg" xmlns:inkscape="http://www.inkscape.org/namespaces/inkscape" xmlns:sodipodi="http://sodipodi.sourceforge.net/DTD/sodipodi-0.dtd"><sodipodi:namedview pagecolor="#303030" showgrid="true"><inkscape:grid id="grid5" units="px" spacingx="100" spacingy="100" color="#4772b3" opacity="0.2" visible="true" /></sodipodi:namedview><g fill="#fff"><g enable-background="new" transform="matrix(100 0 0 100 42999.99700000001 -182599.993)"><path d="m-419.5 1827a.50005.50005 0 1 0 0 1h2.79492l-2.96875 2.9688c.24471.2267.48032.4623.70703.707l2.9668-2.9668v2.791a.50005.50005 0 1 0 1 0v-4a.50005.50005 0 0 0 -.5-.5zm-2.98438 6.7793-3.50585 3.5059c-.29805-.1771-.64034-.2852-1.00977-.2852-1.09865 0-2 .9013-2 2 0 1.0986.90135 2 2 2s2-.9014 2-2c0-.3677-.10771-.7107-.2832-1.0078l3.50586-3.5059c-.22252-.2491-.45807-.4843-.70704-.707zm-4.51562 4.2207c.55821 0 1 .4417 1 1 0 .5582-.44179 1-1 1s-1-.4418-1-1c0-.5583.44179-1 1-1z"/><path d="m-428.49556 1829a.4997692.49966962 0 1 0 0 .9993c5.80308 0 10.49606 4.6921 10.49606 10.494a.4997692.49966962 0 1 0 .99944 0c0-6.3418-5.1523-11.4933-11.4955-11.4933z"/></g></g></svg>