<svg height="1600" viewBox="0 0 1200 1600" width="1200" xmlns="http://www.w3.org/2000/svg" xmlns:inkscape="http://www.inkscape.org/namespaces/inkscape" xmlns:sodipodi="http://sodipodi.sourceforge.net/DTD/sodipodi-0.dtd"><sodipodi:namedview pagecolor="#303030" showgrid="true"><inkscape:grid id="grid5" units="px" spacingx="100" spacingy="100" color="#4772b3" opacity="0.2" visible="true" /></sodipodi:namedview><g fill="#fff"><g enable-background="new" transform="translate(-233 -365)"><path d="m1028 1556c-3.2833 0-6 2.4414-6 5.5 0 1.7056.9046 3.146 2.1523 4.3594l.9942.9941a.50004997.50004997 0 0 0 .3027.1485.50004997.50004997 0 0 0 .051.998h5a.50004997.50004997 0 0 0 .045-.998.50004997.50004997 0 0 0 .3086-.1485l.9981-.998c1.2122-1.1985 2.1465-2.6518 2.1465-4.3535 0-3.0586-2.7167-5.5-6-5.5zm0 1c2.7919 0 5 2.0358 5 4.5 0 1.3342-.7428 2.5488-1.8516 3.6445l-1 1a.50004997.50004997 0 0 0 .2793.8535h-4.8594a.50004997.50004997 0 0 0 .2871-.8535l-1-1a.50004997.50004997 0 0 0 -.01-.01c-1.1397-1.1082-1.8477-2.2864-1.8477-3.6406 0-2.4642 2.2081-4.5 5-4.5zm-2.5 12a.50004997.50004997 0 1 0 0 1h1.5v.5a.50004997.50004997 0 0 0 .5.5h1a.50004997.50004997 0 0 0 .5-.5v-.5h1.5a.50004997.50004997 0 1 0 0-1z"/><path d="m1025.4902 1561.0059a.50005.50005 0 0 0 -.3437.8476l.8535.8535v1.543a.50005.50005 0 1 0 1 0v-1.25h2v1.25a.50005.50005 0 1 0 1 0v-1.543l.8535-.8535a.50005.50005 0 0 0 -.707-.707l-.8535.8535h-2.586l-.8535-.8535a.50005.50005 0 0 0 -.3633-.1406z" opacity=".6"/></g><path d="m368.30892 141.58547c-.27613.00004-.49997.22388-.5.5v1.26473h-4.76715v1.4911h4.76715v1.24417c.00003.27613.22387.49997.5.5.63583.004 3.43318-.006 3.9995-.006.24106 0 .46127-.0485.46127-.50967.00004-.85242-.00089-2.98571-.00089-3.95935 0-.30244-.19636-.51552-.46153-.51552-.82724 0-3.36276-.009-3.99823-.009v.00002zm2.30359-4.68113-.005 4.25868c.48989.002 1.39549.005 1.88538.007.44541.0357.71675.47423.71675.85988-.00066 1.00616-.009 2.97018-.009 4.15122 0 .46073-.24756.84994-.6533.84994-.48399.0143-1.44986-.00011-1.93405-.00016v3.87356l-7.75691-.0669v-14.00001z" transform="matrix(100 0 0 100 -36203.301 -13587.1)"/></g></svg>