<svg height="1600" viewBox="0 0 1600 1600" width="1600" xmlns="http://www.w3.org/2000/svg" xmlns:inkscape="http://www.inkscape.org/namespaces/inkscape" xmlns:sodipodi="http://sodipodi.sourceforge.net/DTD/sodipodi-0.dtd"><sodipodi:namedview pagecolor="#303030" showgrid="true"><inkscape:grid id="grid5" units="px" spacingx="100" spacingy="100" color="#4772b3" opacity="0.2" visible="true" /></sodipodi:namedview><g fill="#fff"><path d="m388.17266 99.291166c-.27613.00004-.49997.22388-.5.5v1.261304h-3.16865v1.46027h3.16865v1.27843c.00003.27613.22387.49997.5.5h4c.27613-.00003.49997-.22387.5-.5v-4.000004c-.00003-.27612-.22387-.49996-.5-.5zm2.59221-4.74807c2.50006 0 4.81247 1.33488 6.0625 3.5 1.25002 2.165124 1.25002 4.834884 0 7.000004-1.25003 2.16512-3.56244 3.5-6.0625 3.5h-6.5c0-4.66667 0-9.333336 0-14.000004z" transform="matrix(100 0 0 100 -38301.488 -9354.31)"/></g></svg>