<svg height="1600" viewBox="0 0 1200 1600" width="1200" xmlns="http://www.w3.org/2000/svg" xmlns:inkscape="http://www.inkscape.org/namespaces/inkscape" xmlns:sodipodi="http://sodipodi.sourceforge.net/DTD/sodipodi-0.dtd"><sodipodi:namedview pagecolor="#303030" showgrid="true"><inkscape:grid id="grid5" units="px" spacingx="100" spacingy="100" color="#4772b3" opacity="0.2" visible="true" /></sodipodi:namedview><g fill="#fff"><path d="m368.30892 141.58547c-.27613.00004-.49997.22388-.5.5v1.26473h-4.76715v1.4911h4.76715v1.24417c.00003.27613.22387.49997.5.5.63583.004 3.43318-.006 3.9995-.006.24106 0 .46127-.0485.46127-.50967.00004-.85242-.00089-2.98571-.00089-3.95935 0-.30244-.19636-.51552-.46153-.51552-.82724 0-3.36276-.009-3.99823-.009v.00002zm2.30359-4.68113-.005 4.25868c.48989.002 1.39549.005 1.88538.007.44541.0357.71675.47423.71675.85988-.00066 1.00616-.009 2.97018-.009 4.15122 0 .46073-.24756.84994-.6533.84994-.48399.0143-1.44986-.00011-1.93405-.00016v3.87356l-7.75691-.0669v-14.00001z" transform="matrix(100 0 0 100 -36203.301 -13587.1)"/></g></svg>