<svg height="1600" viewBox="0 0 1600 1600" width="1600" xmlns="http://www.w3.org/2000/svg" xmlns:inkscape="http://www.inkscape.org/namespaces/inkscape" xmlns:sodipodi="http://sodipodi.sourceforge.net/DTD/sodipodi-0.dtd"><sodipodi:namedview pagecolor="#303030" showgrid="true"><inkscape:grid id="grid5" units="px" spacingx="100" spacingy="100" color="#4772b3" opacity="0.2" visible="true" /></sodipodi:namedview><g fill="#fff"><g enable-background="new" transform="matrix(100 0 0 100 -34101.844 -40900.5738)"><path d="m348.51367 409.98828a1.50015 1.50015 0 0 0 -.80859.24024c-4.66697 2.91685-5.70508 8.48577-5.70508 12.27148a1.50015 1.50015 0 1 0 3 0c0-.89832.0865-1.89371.26758-2.9043-.25845-3.40076.85029-7.04233 3.87109-9.4707a1.50015 1.50015 0 0 0 -.625-.13672z" opacity=".4"/><path d="m351.51367 409.98828a1.50015 1.50015 0 0 0 -.80859.24024c-4.71461 2.94662-5.33528 8.77693-3.58399 12.86328a1.5005399 1.5005399 0 1 0 2.75782-1.1836c-.38431-.89672-.59027-1.91481-.62891-2.95117-.67215-3.14692.29131-6.6121 2.9043-8.82422a1.50015 1.50015 0 0 0 -.64063-.14453z" opacity=".6"/><path d="m354.51367 409.98828a1.50015 1.50015 0 0 0 -.80859.24024c-4.9147 3.07168-4.9147 10.47128 0 13.54296a1.50015 1.50015 0 1 0 1.58984-2.54296c-3.0853-1.92832-3.0853-6.52872 0-8.45704a1.50015 1.50015 0 0 0 -.78125-2.7832z"/></g></g></svg>