<svg height="1600" viewBox="0 0 1600 1600" width="1600" xmlns="http://www.w3.org/2000/svg" xmlns:inkscape="http://www.inkscape.org/namespaces/inkscape" xmlns:sodipodi="http://sodipodi.sourceforge.net/DTD/sodipodi-0.dtd"><sodipodi:namedview pagecolor="#303030" showgrid="true"><inkscape:grid id="grid5" units="px" spacingx="100" spacingy="100" color="#4772b3" opacity="0.2" visible="true" /></sodipodi:namedview><g fill="#fff"><g enable-background="new" transform="translate(-233 -365)"><path d="m1028 1556c-3.2833 0-6 2.4414-6 5.5 0 1.7056.9046 3.146 2.1523 4.3594l.9942.9941a.50004997.50004997 0 0 0 .3027.1485.50004997.50004997 0 0 0 .051.998h5a.50004997.50004997 0 0 0 .045-.998.50004997.50004997 0 0 0 .3086-.1485l.9981-.998c1.2122-1.1985 2.1465-2.6518 2.1465-4.3535 0-3.0586-2.7167-5.5-6-5.5zm0 1c2.7919 0 5 2.0358 5 4.5 0 1.3342-.7428 2.5488-1.8516 3.6445l-1 1a.50004997.50004997 0 0 0 .2793.8535h-4.8594a.50004997.50004997 0 0 0 .2871-.8535l-1-1a.50004997.50004997 0 0 0 -.01-.01c-1.1397-1.1082-1.8477-2.2864-1.8477-3.6406 0-2.4642 2.2081-4.5 5-4.5zm-2.5 12a.50004997.50004997 0 1 0 0 1h1.5v.5a.50004997.50004997 0 0 0 .5.5h1a.50004997.50004997 0 0 0 .5-.5v-.5h1.5a.50004997.50004997 0 1 0 0-1z"/><path d="m1025.4902 1561.0059a.50005.50005 0 0 0 -.3437.8476l.8535.8535v1.543a.50005.50005 0 1 0 1 0v-1.25h2v1.25a.50005.50005 0 1 0 1 0v-1.543l.8535-.8535a.50005.50005 0 0 0 -.707-.707l-.8535.8535h-2.586l-.8535-.8535a.50005.50005 0 0 0 -.3633-.1406z" opacity=".6"/></g><g enable-background="new" transform="matrix(100 0 0 100 -34101.844 -40900.5738)"><path d="m348.51367 409.98828a1.50015 1.50015 0 0 0 -.80859.24024c-4.66697 2.91685-5.70508 8.48577-5.70508 12.27148a1.50015 1.50015 0 1 0 3 0c0-.89832.0865-1.89371.26758-2.9043-.25845-3.40076.85029-7.04233 3.87109-9.4707a1.50015 1.50015 0 0 0 -.625-.13672z" opacity=".4"/><path d="m351.51367 409.98828a1.50015 1.50015 0 0 0 -.80859.24024c-4.71461 2.94662-5.33528 8.77693-3.58399 12.86328a1.5005399 1.5005399 0 1 0 2.75782-1.1836c-.38431-.89672-.59027-1.91481-.62891-2.95117-.67215-3.14692.29131-6.6121 2.9043-8.82422a1.50015 1.50015 0 0 0 -.64063-.14453z" opacity=".6"/><path d="m354.51367 409.98828a1.50015 1.50015 0 0 0 -.80859.24024c-4.9147 3.07168-4.9147 10.47128 0 13.54296a1.50015 1.50015 0 1 0 1.58984-2.54296c-3.0853-1.92832-3.0853-6.52872 0-8.45704a1.50015 1.50015 0 0 0 -.78125-2.7832z"/></g></g></svg>