<svg height="1600" viewBox="0 0 1600 1600" width="1600" xmlns="http://www.w3.org/2000/svg" xmlns:inkscape="http://www.inkscape.org/namespaces/inkscape" xmlns:sodipodi="http://sodipodi.sourceforge.net/DTD/sodipodi-0.dtd"><sodipodi:namedview pagecolor="#303030" showgrid="true"><inkscape:grid id="grid5" units="px" spacingx="100" spacingy="100" color="#4772b3" opacity="0.2" visible="true" /></sodipodi:namedview><g fill="#fff"><g enable-background="new" transform="translate(-233 -365)"><path d="m1028 1556c-3.2833 0-6 2.4414-6 5.5 0 1.7056.9046 3.146 2.1523 4.3594l.9942.9941a.50004997.50004997 0 0 0 .3027.1485.50004997.50004997 0 0 0 .051.998h5a.50004997.50004997 0 0 0 .045-.998.50004997.50004997 0 0 0 .3086-.1485l.9981-.998c1.2122-1.1985 2.1465-2.6518 2.1465-4.3535 0-3.0586-2.7167-5.5-6-5.5zm0 1c2.7919 0 5 2.0358 5 4.5 0 1.3342-.7428 2.5488-1.8516 3.6445l-1 1a.50004997.50004997 0 0 0 .2793.8535h-4.8594a.50004997.50004997 0 0 0 .2871-.8535l-1-1a.50004997.50004997 0 0 0 -.01-.01c-1.1397-1.1082-1.8477-2.2864-1.8477-3.6406 0-2.4642 2.2081-4.5 5-4.5zm-2.5 12a.50004997.50004997 0 1 0 0 1h1.5v.5a.50004997.50004997 0 0 0 .5.5h1a.50004997.50004997 0 0 0 .5-.5v-.5h1.5a.50004997.50004997 0 1 0 0-1z"/><path d="m1025.4902 1561.0059a.50005.50005 0 0 0 -.3437.8476l.8535.8535v1.543a.50005.50005 0 1 0 1 0v-1.25h2v1.25a.50005.50005 0 1 0 1 0v-1.543l.8535-.8535a.50005.50005 0 0 0 -.707-.707l-.8535.8535h-2.586l-.8535-.8535a.50005.50005 0 0 0 -.3633-.1406z" opacity=".6"/></g><g enable-background="new" transform="matrix(-100 0 0 -100 33600.585 42499.99900000001)"><path d="m324.95117 410.94531c-.75176.0616-1.47366.37015-2.05469.95117-1.16941 1.16942-1.16162 2.91055-.28906 4.30664.87256 1.3961 2.57397 2.52709 4.83399 2.79297 2.83908.33401 5.63985-1.05664 6.5332-3.3125a.50005.50005 0 1 0 -.92969-.36718c-.67177 1.69632-3.05327 2.97373-5.48633 2.6875-1.98998-.23411-3.41357-1.22813-4.10351-2.33203-.68994-1.10391-.68215-2.23778.14844-3.06836.83795-.83796 1.98844-.89361 3.08398-.26368 1.09554.62994 2.08242 1.9799 2.31641 3.96875a.50005.50005 0 1 0 .99218-.11718c-.26601-2.26115-1.40413-3.91119-2.80859-4.71875-.70223-.40379-1.48457-.58895-2.23633-.52735zm3.54102 9.04883a.50005.50005 0 0 0 -.37696.1875c-.31249.377-.92604.69672-1.66015.78906a.50005.50005 0 1 0 .125.99219c.94034-.11828 1.77818-.50935 2.30469-1.14453a.50005.50005 0 0 0 -.39258-.82422z" opacity=".6"/><path d="m331.50586 410c-.27613.00003-.49997.22387-.5.5v3c.00003.27613.22387.49997.5.5h3c.27613-.00003.49997-.22387.5-.5v-3c-.00003-.27613-.22387-.49997-.5-.5zm-10 10c-.27613.00003-.49997.22387-.5.5v3c.00003.27613.22387.49997.5.5h3c.27613-.00003.49997-.22387.5-.5v-3c-.00003-.27613-.22387-.49997-.5-.5z" fill-rule="evenodd"/></g></g></svg>