<svg height="1600" viewBox="0 0 1600 1600" width="1600" xmlns="http://www.w3.org/2000/svg" xmlns:inkscape="http://www.inkscape.org/namespaces/inkscape" xmlns:sodipodi="http://sodipodi.sourceforge.net/DTD/sodipodi-0.dtd"><sodipodi:namedview pagecolor="#303030" showgrid="true"><inkscape:grid id="grid5" units="px" spacingx="100" spacingy="100" color="#4772b3" opacity="0.2" visible="true" /></sodipodi:namedview><g fill="#fff"><path d="m331 410c-2.22355 0-4.0767 1.3002-5.12305 3.18945.93682-.21724 1.92473-.28964 2.92578-.17187.40221.0473.78928.12403 1.16797.21484.32725-.14096.67127-.23242 1.0293-.23242h.5c2.02848.0287 2.02848-3.02869 0-3zm-3.05859 3.95898c-3.69856-.0756-6.93164 2.52898-6.93164 6.04102v1.5c-.0287 2.02848 3.02869 2.02848 3 0v-1.5c0-1.75382 1.80351-3.30654 4.32617-3.00977.37314.0439.71883.11732 1.03711.21485 1.3077.40071 2.14372 1.21003 2.47656 1.91211.22905.48316.34095 1.19341-.0996 1.63281-.4946.4933-1.25.34848-1.89258-.0527-.70436-.44-1.43726-1.36047-1.75195-2.71875-.21041-.0194-.41646-.0328-.60742-.0234-1.06865.0527-1.81638.53365-2.19727 1.13086.52848 1.85114 1.6077 3.30531 2.9668 4.15429 1.61509 1.00892 3.82413 1.05951 5.33594-.2539.0754-.0514.14605-.10959.21093-.17383.0562-.057.10785-.11837.1543-.18359 1.19162-1.34198 1.31147-3.2788.5918-4.79688-.75194-1.58612-2.28118-2.87289-4.3086-3.49414-.49344-.15121-1.01745-.26354-1.5664-.32812-.2499-.0294-.49757-.0457-.74414-.0508z" transform="matrix(100 0 0 100 -32000.80000000001 -40899.2848)"/></g></svg>