<svg height="1600" viewBox="0 0 1600 1600" width="1600" xmlns="http://www.w3.org/2000/svg" xmlns:inkscape="http://www.inkscape.org/namespaces/inkscape" xmlns:sodipodi="http://sodipodi.sourceforge.net/DTD/sodipodi-0.dtd"><sodipodi:namedview pagecolor="#303030" showgrid="true"><inkscape:grid id="grid5" units="px" spacingx="100" spacingy="100" color="#4772b3" opacity="0.2" visible="true" /></sodipodi:namedview><g fill="#fff"><g enable-background="new" transform="translate(-233 -365)"><path d="m1028 1556c-3.2833 0-6 2.4414-6 5.5 0 1.7056.9046 3.146 2.1523 4.3594l.9942.9941a.50004997.50004997 0 0 0 .3027.1485.50004997.50004997 0 0 0 .051.998h5a.50004997.50004997 0 0 0 .045-.998.50004997.50004997 0 0 0 .3086-.1485l.9981-.998c1.2122-1.1985 2.1465-2.6518 2.1465-4.3535 0-3.0586-2.7167-5.5-6-5.5zm0 1c2.7919 0 5 2.0358 5 4.5 0 1.3342-.7428 2.5488-1.8516 3.6445l-1 1a.50004997.50004997 0 0 0 .2793.8535h-4.8594a.50004997.50004997 0 0 0 .2871-.8535l-1-1a.50004997.50004997 0 0 0 -.01-.01c-1.1397-1.1082-1.8477-2.2864-1.8477-3.6406 0-2.4642 2.2081-4.5 5-4.5zm-2.5 12a.50004997.50004997 0 1 0 0 1h1.5v.5a.50004997.50004997 0 0 0 .5.5h1a.50004997.50004997 0 0 0 .5-.5v-.5h1.5a.50004997.50004997 0 1 0 0-1z"/><path d="m1025.4902 1561.0059a.50005.50005 0 0 0 -.3437.8476l.8535.8535v1.543a.50005.50005 0 1 0 1 0v-1.25h2v1.25a.50005.50005 0 1 0 1 0v-1.543l.8535-.8535a.50005.50005 0 0 0 -.707-.707l-.8535.8535h-2.586l-.8535-.8535a.50005.50005 0 0 0 -.3633-.1406z" opacity=".6"/></g><path d="m331 410c-2.22355 0-4.0767 1.3002-5.12305 3.18945.93682-.21724 1.92473-.28964 2.92578-.17187.40221.0473.78928.12403 1.16797.21484.32725-.14096.67127-.23242 1.0293-.23242h.5c2.02848.0287 2.02848-3.02869 0-3zm-3.05859 3.95898c-3.69856-.0756-6.93164 2.52898-6.93164 6.04102v1.5c-.0287 2.02848 3.02869 2.02848 3 0v-1.5c0-1.75382 1.80351-3.30654 4.32617-3.00977.37314.0439.71883.11732 1.03711.21485 1.3077.40071 2.14372 1.21003 2.47656 1.91211.22905.48316.34095 1.19341-.0996 1.63281-.4946.4933-1.25.34848-1.89258-.0527-.70436-.44-1.43726-1.36047-1.75195-2.71875-.21041-.0194-.41646-.0328-.60742-.0234-1.06865.0527-1.81638.53365-2.19727 1.13086.52848 1.85114 1.6077 3.30531 2.9668 4.15429 1.61509 1.00892 3.82413 1.05951 5.33594-.2539.0754-.0514.14605-.10959.21093-.17383.0562-.057.10785-.11837.1543-.18359 1.19162-1.34198 1.31147-3.2788.5918-4.79688-.75194-1.58612-2.28118-2.87289-4.3086-3.49414-.49344-.15121-1.01745-.26354-1.5664-.32812-.2499-.0294-.49757-.0457-.74414-.0508z" transform="matrix(100 0 0 100 -32000.80000000001 -40899.2848)"/></g></svg>