<svg height="1600" viewBox="0 0 1600 1600" width="1600" xmlns="http://www.w3.org/2000/svg" xmlns:inkscape="http://www.inkscape.org/namespaces/inkscape" xmlns:sodipodi="http://sodipodi.sourceforge.net/DTD/sodipodi-0.dtd"><sodipodi:namedview pagecolor="#303030" showgrid="true"><inkscape:grid id="grid5" units="px" spacingx="100" spacingy="100" color="#4772b3" opacity="0.2" visible="true" /></sodipodi:namedview><g fill="#fff"><g enable-background="new" transform="matrix(100 0 0 100 -38300.215 -40900.42)"><path d="m390.5 416c-.98118 0-1.79306.19786-2.45312.51562-.008.17574-.0332.34151-.0332.52149 0 4.06772 2.58548 6.61176 5.30078 6.95117 2.02213.29647 2.40413-2.76745.3711-2.97656-1.2847-.16059-2.67188-1.04233-2.67188-3.97461 0-.37546.0235-.72058.0664-1.03711z"/><path d="m395 410c-1.86938 0-3.40407.68718-4.4375 1.85938-.30774.34905-.56557.74269-.7832 1.16601.23762-.01675.47808-.02539.7207-.02539h.44922c.11262-.16825.23234-.32999.36328-.47852.84157-.95456 2.05688-1.52148 3.6875-1.52148h.5c.67616.01.67616-1.00956 0-1zm-4.5 4c-1.84524 0-3.47115.52889-4.64258 1.5625-1.17142 1.03361-1.85742 2.56845-1.85742 4.4375v.5a.50005.50005 0 1 0 1 0v-.5c0-1.63095.564-2.84611 1.51758-3.6875.95357-.84139 2.32766-1.3125 3.98242-1.3125h1.00781c3.27827 0 5.29896 2.17669 5.49805 3.57031a.50005.50005 0 1 0 .98828-.14062c-.30091-2.10638-2.77863-4.42969-6.48633-4.42969z" opacity=".6"/></g></g></svg>