<svg height="1600" viewBox="0 0 1600 1600" width="1600" xmlns="http://www.w3.org/2000/svg" xmlns:inkscape="http://www.inkscape.org/namespaces/inkscape" xmlns:sodipodi="http://sodipodi.sourceforge.net/DTD/sodipodi-0.dtd"><sodipodi:namedview pagecolor="#303030" showgrid="true"><inkscape:grid id="grid5" units="px" spacingx="100" spacingy="100" color="#4772b3" opacity="0.2" visible="true" /></sodipodi:namedview><g fill="#fff"><g enable-background="new" transform="translate(-233 -365)"><path d="m1028 1556c-3.2833 0-6 2.4414-6 5.5 0 1.7056.9046 3.146 2.1523 4.3594l.9942.9941a.50004997.50004997 0 0 0 .3027.1485.50004997.50004997 0 0 0 .051.998h5a.50004997.50004997 0 0 0 .045-.998.50004997.50004997 0 0 0 .3086-.1485l.9981-.998c1.2122-1.1985 2.1465-2.6518 2.1465-4.3535 0-3.0586-2.7167-5.5-6-5.5zm0 1c2.7919 0 5 2.0358 5 4.5 0 1.3342-.7428 2.5488-1.8516 3.6445l-1 1a.50004997.50004997 0 0 0 .2793.8535h-4.8594a.50004997.50004997 0 0 0 .2871-.8535l-1-1a.50004997.50004997 0 0 0 -.01-.01c-1.1397-1.1082-1.8477-2.2864-1.8477-3.6406 0-2.4642 2.2081-4.5 5-4.5zm-2.5 12a.50004997.50004997 0 1 0 0 1h1.5v.5a.50004997.50004997 0 0 0 .5.5h1a.50004997.50004997 0 0 0 .5-.5v-.5h1.5a.50004997.50004997 0 1 0 0-1z"/><path d="m1025.4902 1561.0059a.50005.50005 0 0 0 -.3437.8476l.8535.8535v1.543a.50005.50005 0 1 0 1 0v-1.25h2v1.25a.50005.50005 0 1 0 1 0v-1.543l.8535-.8535a.50005.50005 0 0 0 -.707-.707l-.8535.8535h-2.586l-.8535-.8535a.50005.50005 0 0 0 -.3633-.1406z" opacity=".6"/></g><g enable-background="new" transform="matrix(100 0 0 100 -6800 -3100)"><path d="m68 31h16v16h-16z" opacity="0"/><path d="m81.75 32.099609c-1.433114 0-2.573994.599965-3.328125 1.414063s-1.193245 1.779187-1.615234 2.65039c-.42199.871204-.825206 1.64712-1.308594 2.146485s-.99066.789062-1.998047.789062h-4.5v2h4.5c1.476988 0 2.648427-.585302 3.435547-1.398437s1.246208-1.787219 1.671875-2.666016c.425667-.878796.819561-1.663707 1.28125-2.162109s.919442-.773438 1.861328-.773438h1.25v-2z"/><path d="m27 536.90039v1.19922h.75c.646429 0 1.301953.38 1.880859 1.04297.578907.66296 1.046871 1.58637 1.289063 2.49023.207018.77346 1.367174.46292 1.160156-.31054-.287808-1.07411-.818828-2.13723-1.544922-2.96875-.726093-.83153-1.681585-1.45313-2.785156-1.45313zm13.25 9c-1.91571 0-2.93215.90502-3.558594 1.66992-.313222.38245-.555819.7142-.798828.91797-.243008.20377-.458964.3125-.892578.3125-.401011 0-.71548-.20341-1.054688-.64648-.339207-.44308-.639641-1.1033-.878906-1.79492-.238226-.80225-1.442094-.38505-1.132812.39257.260735.7537.585301 1.5146 1.058594 2.13282.473292.61821 1.158823 1.11523 2.007812 1.11523.691386 0 1.25668-.25378 1.662109-.59375s.678457-.73364.958985-1.07617c.561056-.68506 1.044616-1.23047 2.628906-1.23047h.75v-1.19922z" opacity=".7" transform="translate(42 -503.9)"/></g></g></svg>