<svg height="1200" viewBox="0 0 1600 1200" width="1600" xmlns="http://www.w3.org/2000/svg" xmlns:inkscape="http://www.inkscape.org/namespaces/inkscape" xmlns:sodipodi="http://sodipodi.sourceforge.net/DTD/sodipodi-0.dtd"><sodipodi:namedview pagecolor="#303030" showgrid="true"><inkscape:grid id="grid5" units="px" spacingx="100" spacingy="100" color="#4772b3" opacity="0.2" visible="true" /></sodipodi:namedview><g fill="#fff"><path d="m414.55664 159.95508a.50005.50005 0 0 0 -.47461.61133l.30664 1.43359h-4.70898l.30859-1.39062a.5003812.5003812 0 1 0 -.97656-.21876l-.35742 1.60938h-2.1543a.50005.50005 0 1 0 0 1h1.93164l-.66602 3h-2.26562a.50005.50005 0 1 0 0 1h2.04297l-.53125 2.39062a.5003812.5003812 0 1 0 .97656.21876l.58008-2.60938h6.88672l.55664 2.60352a.50005.50005 0 1 0 .97656-.20704l-.51172-2.39648h2.02344a.50005.50005 0 1 0 0-1h-2.23633l-.63867-3h1.875a.50005.50005 0 1 0 0-1h-2.08984l-.34961-1.64258a.50005.50005 0 0 0 -.50391-.40234zm-5.09961 3.04492h5.14453l.64063 3h-6.45117z" opacity=".99" transform="matrix(100 0 0 99.451813 -40400 -15806.02)"/></g></svg>