<svg height="1200" viewBox="0 0 1600 1200" width="1600" xmlns="http://www.w3.org/2000/svg" xmlns:inkscape="http://www.inkscape.org/namespaces/inkscape" xmlns:sodipodi="http://sodipodi.sourceforge.net/DTD/sodipodi-0.dtd"><sodipodi:namedview pagecolor="#303030" showgrid="true"><inkscape:grid id="grid5" units="px" spacingx="100" spacingy="100" color="#4772b3" opacity="0.2" visible="true" /></sodipodi:namedview><g fill="#fff"><g enable-background="new" transform="translate(-233 -365)"><path d="m1028 1556c-3.2833 0-6 2.4414-6 5.5 0 1.7056.9046 3.146 2.1523 4.3594l.9942.9941a.50004997.50004997 0 0 0 .3027.1485.50004997.50004997 0 0 0 .051.998h5a.50004997.50004997 0 0 0 .045-.998.50004997.50004997 0 0 0 .3086-.1485l.9981-.998c1.2122-1.1985 2.1465-2.6518 2.1465-4.3535 0-3.0586-2.7167-5.5-6-5.5zm0 1c2.7919 0 5 2.0358 5 4.5 0 1.3342-.7428 2.5488-1.8516 3.6445l-1 1a.50004997.50004997 0 0 0 .2793.8535h-4.8594a.50004997.50004997 0 0 0 .2871-.8535l-1-1a.50004997.50004997 0 0 0 -.01-.01c-1.1397-1.1082-1.8477-2.2864-1.8477-3.6406 0-2.4642 2.2081-4.5 5-4.5zm-2.5 12a.50004997.50004997 0 1 0 0 1h1.5v.5a.50004997.50004997 0 0 0 .5.5h1a.50004997.50004997 0 0 0 .5-.5v-.5h1.5a.50004997.50004997 0 1 0 0-1z"/><path d="m1025.4902 1561.0059a.50005.50005 0 0 0 -.3437.8476l.8535.8535v1.543a.50005.50005 0 1 0 1 0v-1.25h2v1.25a.50005.50005 0 1 0 1 0v-1.543l.8535-.8535a.50005.50005 0 0 0 -.707-.707l-.8535.8535h-2.586l-.8535-.8535a.50005.50005 0 0 0 -.3633-.1406z" opacity=".6"/></g><path d="m414.55664 159.95508a.50005.50005 0 0 0 -.47461.61133l.30664 1.43359h-4.70898l.30859-1.39062a.5003812.5003812 0 1 0 -.97656-.21876l-.35742 1.60938h-2.1543a.50005.50005 0 1 0 0 1h1.93164l-.66602 3h-2.26562a.50005.50005 0 1 0 0 1h2.04297l-.53125 2.39062a.5003812.5003812 0 1 0 .97656.21876l.58008-2.60938h6.88672l.55664 2.60352a.50005.50005 0 1 0 .97656-.20704l-.51172-2.39648h2.02344a.50005.50005 0 1 0 0-1h-2.23633l-.63867-3h1.875a.50005.50005 0 1 0 0-1h-2.08984l-.34961-1.64258a.50005.50005 0 0 0 -.50391-.40234zm-5.09961 3.04492h5.14453l.64063 3h-6.45117z" opacity=".99" transform="matrix(100 0 0 99.451813 -40400 -15806.02)"/></g></svg>