<svg height="1600" viewBox="0 0 1600 1600" width="1600" xmlns="http://www.w3.org/2000/svg" xmlns:inkscape="http://www.inkscape.org/namespaces/inkscape" xmlns:sodipodi="http://sodipodi.sourceforge.net/DTD/sodipodi-0.dtd"><sodipodi:namedview pagecolor="#303030" showgrid="true"><inkscape:grid id="grid5" units="px" spacingx="100" spacingy="100" color="#4772b3" opacity="0.2" visible="true" /></sodipodi:namedview><g fill="#fff"><g enable-background="new" transform="matrix(-100 0 0 100 39900.00000000001 -47201.5625)"><path d="m387.53125 473c-.84022 0-1.53125.69103-1.53125 1.53125v.46875h-.5c-.84022 0-1.5.70952-1.5 1.53125v.9375c0 .82173.65978 1.53125 1.5 1.53125h.96875c.1915 0 .40039-.14519.61133-.21289l.3164.31641a.50005.50005 0 1 0 .70704-.70704l-.5-.5a.50005.50005 0 0 0 -.70704 0c-.03041.03042-.2202.10352-.42773.10352h-.96875c-.28602 0-.5-.22674-.5-.53125v-.9375c0-.30451.21398-.53125.5-.53125h.96875c.02 0 .0255.00029.0156 0a.50005.50005 0 0 0 .51565-.51562c.00029.01 0 .004 0-.0156v-.9375c0-.28605.24523-.53128.53125-.53128h.9375c.28603 0 .53125.24521.53125.53125v.9375c0 .20745-.0731.39731-.10352.42773a.50005.50005 0 0 0 0 .70704l.5.5a.50005.50005 0 1 0 .70704-.70704l-.31641-.3164c.06772-.21094.21289-.41979.21289-.61133v-.9375c0-.84024-.69104-1.53125-1.53125-1.53125zm6.71289 7.74414a.50005.50005 0 0 0 -.34766.85938l.5.5a.50005.50005 0 0 0 .70704 0c-.0536.0536.0619-.0282.21093-.0586.14906-.03043.33181-.04492.43555-.04492h.75c.30453 0 .5.19546.5.5v.9375c0 .30451-.23248.5625-.5.5625h-.9375c-.02 0-.0255-.00029-.0156 0a.50005.50005 0 0 0 -.46485.2832.50005.50005 0 0 0 -.0117.0215c-.002.004-.003.004-.006.01-.006.0121-.0155.0273-.0273.0566-.006.0147-.012.0324-.0195.0606-.007.0281-.0176.13022-.0176.13086v.93724c0 .28602-.24525.53126-.53125.53125h-.9687c-.28602 0-.5-.22674-.5-.53125v-.9375c0-.19821.0977-.45261.11133-.4668a.50005.50005 0 0 0 -.008-.69922l-.5-.5a.50005.50005 0 1 0 -.70704.70704l.31836.31836c-.07014.21969-.21465.4388-.21465.64062v.9375c0 .82173.65978 1.53125 1.5 1.53125h.96875c.84024.00001 1.53125-.69103 1.53125-1.53125v-.5h.5c.85872 0 1.5-.74077 1.5-1.5625v-.9375c0-.82174-.67829-1.5-1.5-1.5h-.75c-.17782 0-.40107.0167-.63477.0645-.0763.0156-.15636.0877-.23437.10938l-.27734-.27735a.50005.50005 0 0 0 -.35938-.15234z" fill-rule="evenodd" opacity=".6"/><path d="m393.5 473c-.82416 0-1.5.67974-1.5 1.5v1c0 .42842.21502.76851.50586 1.03711l-4.96289 4.96484c-.26873-.2882-.60894-.50195-1.03516-.50195h-1c-.82026 0-1.5.67584-1.5 1.5s.67974 1.5 1.5 1.5h1 .5v.5 1c0 .82026.67585 1.5 1.5 1.5.82416 0 1.5-.67975 1.5-1.5v-1c0-.42841-.21502-.76851-.50586-1.03711l4.96289-4.96484c.26873.28821.60894.50195 1.03516.50195h1c.82026 0 1.5-.67584 1.5-1.5s-.67974-1.5-1.5-1.5h-1-.5v-.5-1c0-.82026-.67584-1.5-1.5-1.5z"/></g></g></svg>