<svg height="1600" viewBox="0 0 1600 1600" width="1600" xmlns="http://www.w3.org/2000/svg" xmlns:inkscape="http://www.inkscape.org/namespaces/inkscape" xmlns:sodipodi="http://sodipodi.sourceforge.net/DTD/sodipodi-0.dtd"><sodipodi:namedview pagecolor="#303030" showgrid="true"><inkscape:grid id="grid5" units="px" spacingx="100" spacingy="100" color="#4772b3" opacity="0.2" visible="true" /></sodipodi:namedview><g fill="#fff"><g enable-background="new" transform="translate(-233 -365)"><path d="m1028 1556c-3.2833 0-6 2.4414-6 5.5 0 1.7056.9046 3.146 2.1523 4.3594l.9942.9941a.50004997.50004997 0 0 0 .3027.1485.50004997.50004997 0 0 0 .051.998h5a.50004997.50004997 0 0 0 .045-.998.50004997.50004997 0 0 0 .3086-.1485l.9981-.998c1.2122-1.1985 2.1465-2.6518 2.1465-4.3535 0-3.0586-2.7167-5.5-6-5.5zm0 1c2.7919 0 5 2.0358 5 4.5 0 1.3342-.7428 2.5488-1.8516 3.6445l-1 1a.50004997.50004997 0 0 0 .2793.8535h-4.8594a.50004997.50004997 0 0 0 .2871-.8535l-1-1a.50004997.50004997 0 0 0 -.01-.01c-1.1397-1.1082-1.8477-2.2864-1.8477-3.6406 0-2.4642 2.2081-4.5 5-4.5zm-2.5 12a.50004997.50004997 0 1 0 0 1h1.5v.5a.50004997.50004997 0 0 0 .5.5h1a.50004997.50004997 0 0 0 .5-.5v-.5h1.5a.50004997.50004997 0 1 0 0-1z"/><path d="m1025.4902 1561.0059a.50005.50005 0 0 0 -.3437.8476l.8535.8535v1.543a.50005.50005 0 1 0 1 0v-1.25h2v1.25a.50005.50005 0 1 0 1 0v-1.543l.8535-.8535a.50005.50005 0 0 0 -.707-.707l-.8535.8535h-2.586l-.8535-.8535a.50005.50005 0 0 0 -.3633-.1406z" opacity=".6"/></g><g enable-background="new" transform="matrix(100 0 0 100 -40400.796 -47200.4101)"><path d="m405.5 476.00781c-.27613.00003-.49997.22387-.5.5v3c.00003.27613.22387.49997.5.5.99999-.00001 1.99999.00001 3 0 .27613-.00003.49997-.22387.5-.5v-3c-.00003-.27613-.22387-.49997-.5-.5zm5 1.99219c-.27613.00003-.49997.22387-.5.5v3c.00003.27613.22387.49997.5.5 1 0 1.99999.00001 3 0 .27613-.00003.49997-.22387.5-.5v-3c-.00003-.27613-.22387-.49997-.5-.5-1 0-1.99999-.00001-3 0zm-5 3.00781c-.27613.00003-.49997.22387-.5.5v3c.00003.27613.22387.49997.5.5.99999-.00001 1.99999.00001 3 0 .27613-.00003.49997-.22387.5-.5v-3c-.00003-.27613-.22387-.49997-.5-.5zm5 1.99219c-.27613.00003-.49997.22387-.5.5v3c.00003.27613.22387.49997.5.5.99999-.00001 1.99999.00001 3 0 .27613-.00003.49997-.22387.5-.5v-3c-.00003-.27613-.22387-.49997-.5-.5z"/><path d="m452.49219 387a.50005018.50005018 0 0 0 -.5.5v3.00781a.50005018.50005018 0 0 0 .5.5h3.00781a.50005018.50005018 0 0 0 .5-.5v-3.00781a.50005018.50005018 0 0 0 -.5-.5c-1.00252 0-2.0053 0-3.00781 0zm.5 1h2.00781v2.00781c-.66922 0-1.3386 0-2.00781 0zm4.50781 1.98438a.50005018.50005018 0 0 0 -.5.5v3.00781a.50005018.50005018 0 0 0 .5.5h3.00781a.50005018.50005018 0 0 0 .5-.5v-3.00781a.50005018.50005018 0 0 0 -.5-.5c-1.00252 0-2.00529 0-3.00781 0zm.5 1c.66922-.00001 1.3386 0 2.00781 0v2.00781c-.66922 0-1.33859 0-2.00781 0zm-.49219 4a.50005018.50005018 0 0 0 -.5.5v3.00781a.50005018.50005018 0 0 0 .5.5h3.00781a.50005018.50005018 0 0 0 .5-.5v-3.00781a.50005018.50005018 0 0 0 -.5-.5c-1.00252 0-2.00529 0-3.00781 0zm.5 1c.66922-.00001 1.3386 0 2.00781 0v2.00781c-.66921 0-1.33859 0-2.00781 0z" opacity=".6" transform="translate(-41.9997 86.0082)"/></g></g></svg>