<svg height="1600" viewBox="0 0 1600 1600" width="1600" xmlns="http://www.w3.org/2000/svg" xmlns:inkscape="http://www.inkscape.org/namespaces/inkscape" xmlns:sodipodi="http://sodipodi.sourceforge.net/DTD/sodipodi-0.dtd"><sodipodi:namedview pagecolor="#303030" showgrid="true"><inkscape:grid id="grid5" units="px" spacingx="100" spacingy="100" color="#4772b3" opacity="0.2" visible="true" /></sodipodi:namedview><g fill="#fff"><path d="m457.5 473a.50005.50005 0 0 0 -.5.5v.5h-7.5-.5c-.5244 0-1.02378.21717-1.39258.57617-.3688.3592-.60742.86058-.60742 1.42578v8.99805c.0001.5302.21104 1.03916.58594 1.41406s.88386.58594 1.41406.58594h2.5c.2762 0 .5-.2238.5-.5v-9c0-.2761-.2238-.4999-.5-.5h-2.5c-.4523 0-1-.47105-1-.99805 0-.2635.13823-.51462.33203-.69922.1934-.1837.44297-.30273.66797-.30273h8v1.5a.50005.50005 0 0 0 .5.5h1.5v5h-1.5a.50005.50005 0 0 0 -.5.5v1.5h-4v1h4v.5a.50005.50005 0 0 0 .5.5h3a.50005.50005 0 0 0 .5-.5v-3a.50005.50005 0 0 0 -.5-.5h-.5v-5h.5a.50005.50005 0 0 0 .5-.5v-3a.50005.50005 0 0 0 -.5-.5zm.5 1h2v2h-2zm0 9h2v2h-2z" transform="matrix(100 0 0 100 -44599.99500000003 -47200.00299999997)"/></g></svg>