<svg height="1600" viewBox="0 0 1600 1600" width="1600" xmlns="http://www.w3.org/2000/svg" xmlns:inkscape="http://www.inkscape.org/namespaces/inkscape" xmlns:sodipodi="http://sodipodi.sourceforge.net/DTD/sodipodi-0.dtd"><sodipodi:namedview pagecolor="#303030" showgrid="true"><inkscape:grid id="grid5" units="px" spacingx="100" spacingy="100" color="#4772b3" opacity="0.2" visible="true" /></sodipodi:namedview><g fill="#fff"><g enable-background="new" transform="translate(-233 -365)"><path d="m1028 1556c-3.2833 0-6 2.4414-6 5.5 0 1.7056.9046 3.146 2.1523 4.3594l.9942.9941a.50004997.50004997 0 0 0 .3027.1485.50004997.50004997 0 0 0 .051.998h5a.50004997.50004997 0 0 0 .045-.998.50004997.50004997 0 0 0 .3086-.1485l.9981-.998c1.2122-1.1985 2.1465-2.6518 2.1465-4.3535 0-3.0586-2.7167-5.5-6-5.5zm0 1c2.7919 0 5 2.0358 5 4.5 0 1.3342-.7428 2.5488-1.8516 3.6445l-1 1a.50004997.50004997 0 0 0 .2793.8535h-4.8594a.50004997.50004997 0 0 0 .2871-.8535l-1-1a.50004997.50004997 0 0 0 -.01-.01c-1.1397-1.1082-1.8477-2.2864-1.8477-3.6406 0-2.4642 2.2081-4.5 5-4.5zm-2.5 12a.50004997.50004997 0 1 0 0 1h1.5v.5a.50004997.50004997 0 0 0 .5.5h1a.50004997.50004997 0 0 0 .5-.5v-.5h1.5a.50004997.50004997 0 1 0 0-1z"/><path d="m1025.4902 1561.0059a.50005.50005 0 0 0 -.3437.8476l.8535.8535v1.543a.50005.50005 0 1 0 1 0v-1.25h2v1.25a.50005.50005 0 1 0 1 0v-1.543l.8535-.8535a.50005.50005 0 0 0 -.707-.707l-.8535.8535h-2.586l-.8535-.8535a.50005.50005 0 0 0 -.3633-.1406z" opacity=".6"/></g><g enable-background="new" transform="matrix(-100 0 0 100 48299.609 -47201.1717)"><path d="m478.49219 473.00781a.50005018.50005018 0 0 0 -.5.5v3.00781a.50005018.50005018 0 0 0 .5.5c1.00252.00001 2.00529 0 3.00781 0a.50005018.50005018 0 0 0 .5-.5v-3.00781a.50005018.50005018 0 0 0 -.5-.5c-1.00252 0-2.0053 0-3.00781 0zm.5 1h2.00781v2.00781c-.66922.00001-1.3386 0-2.00781 0zm-.49233 3.9922 2.99609.006c.2754.00061.49976.22265.5.49805l.004 6.45885c0 1.02328-.80629 2.03747-2 2.03711-1.19534 0-1.99609-1.02155-1.99609-2.04297l-.004-6.45704c.00018-.27638.22362-.50048.5-.5zm1.5 6a1 .99999999 0 0 0 -1 1.00001 1 .99999999 0 0 0 1 1 1 .99999999 0 0 0 1-1 1 .99999999 0 0 0 -1-1.00001z"/><path d="m469.49219 474.00781a.50005018.50005018 0 0 0 -.5.5v3.00781a.50005018.50005018 0 0 0 .5.5c1.00252.00001 2.00529 0 3.00781 0a.50005018.50005018 0 0 0 .5-.5v-3.00781a.50005018.50005018 0 0 0 -.5-.5c-1.00252 0-2.0053 0-3.00781 0zm.5 1h2.00781v2.00781c-.66922.00001-1.3386 0-2.00781 0zm5.5151 2.99233c.12999.002.25408.0546.34596.14655l1.00065.99942c.094.094.14673.22146.14655.35436v4.0001c.00002.4458-.53925.66879-.85409.35316l-2.99954-3.00067c-.19472-.19518-.19472-.51115 0-.70633l2.00009-2.00004c.0954-.0955.2254-.14835.36038-.14655z" opacity=".75"/><path d="m468.49219 483.00781a.50005018.50005018 0 0 0 -.5.5v3.00781a.50005018.50005018 0 0 0 .5.5c1.00252.00001 2.00529 0 3.00781 0a.50005018.50005018 0 0 0 .5-.5v-3.00781a.50005018.50005018 0 0 0 -.5-.5c-1.00252 0-2.0053 0-3.00781 0zm.5 1h2.00781v2.00781c-.66922.00001-1.3386 0-2.00781 0zm4.52221-1.00695c.12731.004.24847.0555.33876.14535l3.00074 3.00066c.31399.31533.0906.8529-.35437.85288h-2.99954c-.27591-.00019-.49954-.22381-.49972-.49972v-2.99946c.00007-.28163.23261-.50765.51413-.49971z" opacity=".5"/></g></g></svg>