<svg height="1500" viewBox="0 0 1600 1500" width="1600" xmlns="http://www.w3.org/2000/svg" xmlns:inkscape="http://www.inkscape.org/namespaces/inkscape" xmlns:sodipodi="http://sodipodi.sourceforge.net/DTD/sodipodi-0.dtd"><sodipodi:namedview pagecolor="#303030" showgrid="true"><inkscape:grid id="grid5" units="px" spacingx="100" spacingy="100" color="#4772b3" opacity="0.2" visible="true" /></sodipodi:namedview><g fill="#fff"><path d="m1461 518c-1.3523-.0191-1.3523 2.01913 0 2h2c1.3523.0191 1.3523-2.01913 0-2zm-5-1v7.5c0 .27613.2239.49997.5.5h11c.2761-.00003.5-.22387.5-.5v-7.5h-1v7h-10v-7zm12.5-1c.2761-.00003.5-.22387.5-.5v-3c0-.27613-.2239-.49997-.5-.5h-13c-.2761.00003-.5.22387-.5.5v3c0 .27613.2239.49997.5.5zm-12.5-3h12v2h-12z" transform="matrix(100 0 0 100 -145400.005 -51100)"/></g></svg>