<svg height="1600" viewBox="0 0 1700 1600" width="1700" xmlns="http://www.w3.org/2000/svg" xmlns:inkscape="http://www.inkscape.org/namespaces/inkscape" xmlns:sodipodi="http://sodipodi.sourceforge.net/DTD/sodipodi-0.dtd"><sodipodi:namedview pagecolor="#303030" showgrid="true"><inkscape:grid id="grid5" units="px" spacingx="100" spacingy="100" color="#4772b3" opacity="0.2" visible="true" /></sodipodi:namedview><g fill="#fff"><g enable-background="new" transform="translate(-233 -365)"><path d="m1028 1556c-3.2833 0-6 2.4414-6 5.5 0 1.7056.9046 3.146 2.1523 4.3594l.9942.9941a.50004997.50004997 0 0 0 .3027.1485.50004997.50004997 0 0 0 .051.998h5a.50004997.50004997 0 0 0 .045-.998.50004997.50004997 0 0 0 .3086-.1485l.9981-.998c1.2122-1.1985 2.1465-2.6518 2.1465-4.3535 0-3.0586-2.7167-5.5-6-5.5zm0 1c2.7919 0 5 2.0358 5 4.5 0 1.3342-.7428 2.5488-1.8516 3.6445l-1 1a.50004997.50004997 0 0 0 .2793.8535h-4.8594a.50004997.50004997 0 0 0 .2871-.8535l-1-1a.50004997.50004997 0 0 0 -.01-.01c-1.1397-1.1082-1.8477-2.2864-1.8477-3.6406 0-2.4642 2.2081-4.5 5-4.5zm-2.5 12a.50004997.50004997 0 1 0 0 1h1.5v.5a.50004997.50004997 0 0 0 .5.5h1a.50004997.50004997 0 0 0 .5-.5v-.5h1.5a.50004997.50004997 0 1 0 0-1z"/><path d="m1025.4902 1561.0059a.50005.50005 0 0 0 -.3437.8476l.8535.8535v1.543a.50005.50005 0 1 0 1 0v-1.25h2v1.25a.50005.50005 0 1 0 1 0v-1.543l.8535-.8535a.50005.50005 0 0 0 -.707-.707l-.8535.8535h-2.586l-.8535-.8535a.50005.50005 0 0 0 -.3633-.1406z" opacity=".6"/></g><g enable-background="new" stroke="#fff" stroke-linejoin="round" transform="matrix(-100 0 0 100 -49699.753 -134699.39299999998)"><path d="m-503.5 1348.5h-2v2h2z" fill="#fff" stroke-linecap="round"/><g fill="none"><path d="m-498.49506 1361.4978-2.00459-2.0055c-2.16266-2.1636-3.0003-5.1361-3.0003-7.9852l.01-1.0071" opacity=".7" stroke-linecap="round"/><path d="m-511.5049 1361.4907c0-2.8491.8375-5.8217 3.0003-7.9852l3.0046-3.0055" opacity=".7" stroke-linecap="round"/><g transform="translate(-47 -2)"><path d="m-457.50994 1358.5h-2v2h2z" stroke-linecap="round"/><path d="m-458.5 1358v-3"/></g><g transform="matrix(0 1 -1 0 849 1808)"><path d="m-457.50994 1359.5h-2v2h2z" stroke-linecap="round"/><path d="m-458.5 1359v-3"/></g></g></g></g></svg>