<svg id="svg5" height="1600" viewBox="0 0 1700 1600" width="1700" xmlns="http://www.w3.org/2000/svg" xmlns:inkscape="http://www.inkscape.org/namespaces/inkscape" xmlns:sodipodi="http://sodipodi.sourceforge.net/DTD/sodipodi-0.dtd"><sodipodi:namedview pagecolor="#303030" showgrid="true"><inkscape:grid id="grid5" units="px" spacingx="100" spacingy="100" color="#4772b3" opacity="0.2" visible="true" /></sodipodi:namedview><g fill="#fff"><path id="path1" d="m-505.5 1267.9023c-1.15049 0-2.30143.3893-3.30664 1.168-1.99911 1.5486-3.19334 4.2371-3.19336 7.2402v2.1817a.5.5 0 0 0 .5.5.5.5 0 0 0 .5-.5v-2.1817c.00002-2.7364 1.10112-5.1299 2.80664-6.4511 1.69425-1.3125 3.69247-1.3125 5.38672 0 1.6982 1.3155 2.80662 3.7968 2.80664 6.5332v2.0996a.5.5 0 0 0 .5.5.5.5 0 0 0 .5-.5v-2.0996c-.00002-3.003-1.1869-5.768-3.19336-7.3223-1.00521-.7787-2.15615-1.168-3.30664-1.168z" opacity=".7" transform="matrix(100 0 0 100 51400.497 -126399.59)"/><path id="path3" d="m228.5017 325.9905a.50005.50005 0 0 0 -.5.5v.50844l-1.99389-.00481-.00201 1 1.9959.00481v.49156a.50005.50005 0 0 0 .5.5h2a.50005.50005 0 0 0 .5-.5v-2a.50005.50005 0 0 0 -.5-.5zm-11.99459.00055a.50005.50005 0 0 0 -.5.5v2a.50005.50005 0 0 0 .5.5h2a.50005.50005 0 0 0 .5-.5v-.49211l2.0008-.00481-.00205-1-1.99875.00479v-.50787a.50005.50005 0 0 0 -.5-.5zm5.9957.00164a.50005.50005 0 0 0 -.5.5v2a.50005.50005 0 0 0 .5.5h2a.50005.50005 0 0 0 .5-.5v-2a.50005.50005 0 0 0 -.5-.5zm6.49889.99781h1v1h-1zm-11.99459.00055h1v1h-1zm5.9957.00164h1v1h-1z" transform="matrix(100 0 0 100 -21500.215 -32499.093)"/></g></svg>