<svg height="1600" viewBox="0 0 1600 1600" width="1600" xmlns="http://www.w3.org/2000/svg" xmlns:inkscape="http://www.inkscape.org/namespaces/inkscape" xmlns:sodipodi="http://sodipodi.sourceforge.net/DTD/sodipodi-0.dtd"><sodipodi:namedview pagecolor="#303030" showgrid="true"><inkscape:grid id="grid5" units="px" spacingx="100" spacingy="100" color="#4772b3" opacity="0.2" visible="true" /></sodipodi:namedview><g fill="#fff"><g enable-background="new" transform="translate(-233 -365)"><path d="m1028 1556c-3.2833 0-6 2.4414-6 5.5 0 1.7056.9046 3.146 2.1523 4.3594l.9942.9941a.50004997.50004997 0 0 0 .3027.1485.50004997.50004997 0 0 0 .051.998h5a.50004997.50004997 0 0 0 .045-.998.50004997.50004997 0 0 0 .3086-.1485l.9981-.998c1.2122-1.1985 2.1465-2.6518 2.1465-4.3535 0-3.0586-2.7167-5.5-6-5.5zm0 1c2.7919 0 5 2.0358 5 4.5 0 1.3342-.7428 2.5488-1.8516 3.6445l-1 1a.50004997.50004997 0 0 0 .2793.8535h-4.8594a.50004997.50004997 0 0 0 .2871-.8535l-1-1a.50004997.50004997 0 0 0 -.01-.01c-1.1397-1.1082-1.8477-2.2864-1.8477-3.6406 0-2.4642 2.2081-4.5 5-4.5zm-2.5 12a.50004997.50004997 0 1 0 0 1h1.5v.5a.50004997.50004997 0 0 0 .5.5h1a.50004997.50004997 0 0 0 .5-.5v-.5h1.5a.50004997.50004997 0 1 0 0-1z"/><path d="m1025.4902 1561.0059a.50005.50005 0 0 0 -.3437.8476l.8535.8535v1.543a.50005.50005 0 1 0 1 0v-1.25h2v1.25a.50005.50005 0 1 0 1 0v-1.543l.8535-.8535a.50005.50005 0 0 0 -.707-.707l-.8535.8535h-2.586l-.8535-.8535a.50005.50005 0 0 0 -.3633-.1406z" opacity=".6"/></g><path d="m-98.580078 578c-1.408802 0-2.419922 1.16322-2.419922 2.5a.50005.50005 0 1 0 1 0c0-.87198.530524-1.5 1.419922-1.5.889383 0 1.580078.67678 1.580078 1.5 0 .82323-.69069 1.49999-1.580078 1.5h-4.914062a.50005.50005 0 1 0 0 1h4.914062c1.408792-.00001 2.580078-1.11445 2.580078-2.5 0-1.38554-1.171281-2.5-2.580078-2.5zm-8.916012.004c-1.38554 0-2.5 1.17128-2.5 2.58007 0 1.40881 1.16321 2.41797 2.5 2.41797a.50005.50005 0 1 0 0-1c-.87198 0-1.5-.52857-1.5-1.41797 0-.88938.67678-1.58007 1.5-1.58007.82323 0 1.49804.69069 1.49804 1.58007v4.91211a.50005.50005 0 1 0 1 0v-4.91211c-.00001-1.40879-1.1125-2.58007-2.49804-2.58007zm6.98828 5.98828a.50005.50005 0 0 0 -.49219.50772v4.91211c.00001 1.40879 1.114453 2.58008 2.5 2.58008 1.385539 0 2.5-1.17128 2.5-2.58008s-1.163215-2.41992-2.5-2.41992a.50005.50005 0 1 0 0 1c.871975 0 1.5.53052 1.5 1.41992 0 .88938-.676779 1.58008-1.5 1.58008-.823233 0-1.499992-.69069-1.5-1.58008v-4.91211a.50005.50005 0 0 0 -.50781-.50781zm-6.90821 3.0039c-1.40879.00002-2.58007 1.11446-2.58007 2.5s1.17128 2.5 2.58007 2.5c1.40881 0 2.41993-1.16321 2.41993-2.5a.50005.50005 0 1 0 -1 0c0 .87198-.53053 1.5-1.41993 1.5-.88938 0-1.58007-.67678-1.58007-1.5 0-.82323.69069-1.49999 1.58007-1.5h4.91211a.50005.50005 0 1 0 0-1z" transform="matrix(100 0 0 100 11099.805 -57699.809)"/></g></svg>