<svg id="svg10" height="1600" viewBox="0 0 1700 1600" width="1700" xmlns="http://www.w3.org/2000/svg" xmlns:inkscape="http://www.inkscape.org/namespaces/inkscape" xmlns:sodipodi="http://sodipodi.sourceforge.net/DTD/sodipodi-0.dtd"><sodipodi:namedview pagecolor="#303030" showgrid="true"><inkscape:grid id="grid5" units="px" spacingx="100" spacingy="100" color="#4772b3" opacity="0.2" visible="true" /></sodipodi:namedview><g fill="#fff"><path id="path2" d="m-503.48437 1350a.5.5 0 0 0 -.50586.4941l-.01 1.0079a.50005.50005 0 0 0 0 .01c0 2.9471.86759 6.058 3.14648 8.3379l2.00391 2.0059a.5.5 0 0 0 .70899 0 .5.5 0 0 0 0-.7071l-2.00586-2.0058c-2.04547-2.0464-2.85277-4.8771-2.85352-7.627l.01-1.0019a.5.5 0 0 0 -.49414-.514z" opacity=".7" transform="matrix(-100 0 0 100 -49699.753 -134699.39)"/><path id="path3" d="m-505.5 1350a.5.5 0 0 0 -.35352.1465l-3.0039 3.0058c-2.27907 2.2798-3.14844 5.3909-3.14844 8.3379a.5.5 0 0 0 .5.5.5.5 0 0 0 .5-.5c0-2.7511.80894-5.5836 2.85547-7.6308l3.00391-3.0059a.5.5 0 0 0 0-.707.5.5 0 0 0 -.35352-.1465z" opacity=".7" transform="matrix(-100 0 0 100 -49699.753 -134699.39)"/><path id="path7" d="m-460.00441 1359.4991a.50005.50005 0 0 1 .5-.5h.50441v-2.9991h1v2.9991h.49559a.50005.50005 0 0 1 .5.5v2a.50005.50005 0 0 1 -.5.5h-2a.50005.50005 0 0 1 -.5-.5zm1 .5v1h1v-1z" transform="matrix(0 100 100 0 -134599.75 46100.607)"/><path id="path5" d="m-457.99999 1355v2.9958h.50129a.50005.50005 0 0 1 .5.5v2a.50005.50005 0 0 1 -.5.5h-2a.50005.50005 0 0 1 -.50002-.5v-2a.50005.50005 0 0 1 .50002-.5h.49871v-2.9958zm.00129 3.9958h-1v1h1z" transform="matrix(-100 0 0 100 -44999.753 -134899.39)"/><path id="path2-9" d="m650.17345 100.27058a50.005 50.005 0 0 0 -50 50v200a50.005 50.005 0 0 0 50 50h200a50.005 50.005 0 0 0 50-50v-200a50.005 50.005 0 0 0 -50-50zm50 100h100v100h-100z"/></g></svg>