<svg id="svg3" height="1600" viewBox="0 0 1500 1600" width="1500" xmlns="http://www.w3.org/2000/svg" xmlns:inkscape="http://www.inkscape.org/namespaces/inkscape" xmlns:sodipodi="http://sodipodi.sourceforge.net/DTD/sodipodi-0.dtd"><sodipodi:namedview pagecolor="#303030" showgrid="true"><inkscape:grid id="grid5" units="px" spacingx="100" spacingy="100" color="#4772b3" opacity="0.2" visible="true" /></sodipodi:namedview><g fill="#fff"><path id="path2" d="m-469.3418 1327.0254c-.12553-.042-.26248-.032-.38086.027-.24799.1231-.34869.4244-.22461.6719l5.75 10.7306c.12312.2468.4229.3473.66993.2246.0108-.01.0212-.018.0312-.027.007.01.0153.018.0234.027.24703.1227.54681.022.66993-.2246l5.75-10.7306c.12408-.2475.0234-.5488-.22461-.6719-.24703-.1228-.54681-.022-.66993.2246l-5.55273 10.338-5.55273-10.338c-.059-.119-.16307-.2097-.28907-.2519z" opacity=".7" transform="matrix(100 0 0 -100 47100 134200.04)"/><path id="path2-8" d="m649.98893 96.140221a50.005 50.005 0 0 0 -50 49.999999v200a50.005 50.005 0 0 0 50 50h200a50.005 50.005 0 0 0 50-50v-200a50.005 50.005 0 0 0 -50-49.999999zm50 99.999999h100v100h-100z"/></g></svg>