<svg id="svg3" height="1500" viewBox="0 0 1500 1500" width="1500" xmlns="http://www.w3.org/2000/svg" xmlns:inkscape="http://www.inkscape.org/namespaces/inkscape" xmlns:sodipodi="http://sodipodi.sourceforge.net/DTD/sodipodi-0.dtd"><sodipodi:namedview pagecolor="#303030" showgrid="true"><inkscape:grid id="grid5" units="px" spacingx="100" spacingy="100" color="#4772b3" opacity="0.2" visible="true" /></sodipodi:namedview><g fill="#fff" transform="matrix(100 0 0 100 51300 -132799.6)"><path id="path1" d="m-505.5 1330.9023c-1.15049 0-2.30143.3893-3.30664 1.168-1.99911 1.5486-3.19334 4.2371-3.19336 7.2402v2.1817a.5.5 0 0 0 .5.5.5.5 0 0 0 .5-.5v-2.1817c.00002-2.7364 1.10112-5.1299 2.80664-6.4511 1.69425-1.3125 3.69247-1.3125 5.38672 0 1.6982 1.3155 2.80662 3.7968 2.80664 6.5332v2.0996a.5.5 0 0 0 .5.5.5.5 0 0 0 .5-.5v-2.0996c-.00002-3.003-1.1869-5.768-3.19336-7.3223-1.00521-.7787-2.15615-1.168-3.30664-1.168z" opacity=".7"/><path id="path2" d="m-504.5 1329a.50005.50005 0 0 0 -.5.5v2a.50005.50005 0 0 0 .5.5h2a.50005.50005 0 0 0 .5-.5v-2a.50005.50005 0 0 0 -.5-.5zm.5 1h1v1h-1z"/></g></svg>