<svg id="svg4" height="1600" viewBox="0 0 1500 1600" width="1500" xmlns="http://www.w3.org/2000/svg" xmlns:inkscape="http://www.inkscape.org/namespaces/inkscape" xmlns:sodipodi="http://sodipodi.sourceforge.net/DTD/sodipodi-0.dtd"><sodipodi:namedview pagecolor="#303030" showgrid="true"><inkscape:grid id="grid5" units="px" spacingx="100" spacingy="100" color="#4772b3" opacity="0.2" visible="true" /></sodipodi:namedview><g fill="#fff"><path id="path1" d="m-504.5 1330.0098c-1.14915 0-2.2974.3838-3.30273 1.1523-2.01782 1.5423-3.19727 4.3744-3.19727 7.0918a.50005.50005 0 0 0 0 0v.2382a.5.5 0 0 0 .5.5.5.5 0 0 0 .5-.5019v-.2383c0-2.4195 1.11591-5.0076 2.80273-6.2969 1.694-1.2948 3.70053-1.2948 5.39454 0 1.68683 1.2893 2.80273 3.8774 2.80273 6.2969v.2402a.5.5 0 0 0 .5.5.5.5 0 0 0 .5-.5v-.2402c0-2.7174-1.17944-5.5495-3.19727-7.0918-1.00533-.7685-2.15358-1.1523-3.30273-1.1523z" opacity=".7" transform="matrix(100 0 0 100 51200 -132399.66)"/><path id="path3" d="m-554 1265h3v-1h-3zm5 0h3v-1h-3zm5 0h3v-1h-3z" transform="matrix(100 0 0 100 55500 -126299.66)"/><path id="path2-0" d="m850.09271 400.05458a50.005 50.005 0 0 0 -50 50v200a50.005 50.005 0 0 0 50 50h199.99999a50.005 50.005 0 0 0 50-50v-200a50.005 50.005 0 0 0 -50-50zm50 100h99.99999v100h-99.99999z"/></g></svg>