<svg height="1600" viewBox="0 0 1600 1600" width="1600" xmlns="http://www.w3.org/2000/svg" xmlns:inkscape="http://www.inkscape.org/namespaces/inkscape" xmlns:sodipodi="http://sodipodi.sourceforge.net/DTD/sodipodi-0.dtd"><sodipodi:namedview pagecolor="#303030" showgrid="true"><inkscape:grid id="grid5" units="px" spacingx="100" spacingy="100" color="#4772b3" opacity="0.2" visible="true" /></sodipodi:namedview><g fill="#fff"><path d="m450.32227 452.0625c-1.71014.07277-3.32227 1.4838-3.32227 3.9375 0 2.05278 1.07076 4.01178 2.38672 5.71289 1.31595 1.70111 2.90024 3.15481 4.03125 4.16016a.50005.50005 0 0 0 .33203.12695h.5a.50005.50005 0 0 0 .33203-.12695c1.13101-1.00535 2.7153-2.45905 4.03125-4.16016 1.31596-1.70111 2.38672-3.66011 2.38672-5.71289 0-2.4537-1.61213-3.86473-3.32227-3.9375-1.52139-.0647-3.0532.927-3.67773 2.69727-.62453-1.77027-2.15634-2.76201-3.67773-2.69727zm.043 1c1.22737-.0522 2.55838.74689 2.89258 2.5293a.50005.50005 0 0 0 .49215.4082h.5a.50005.50005 0 0 0 .49219-.4082c.3342-1.78241 1.66521-2.58153 2.89258-2.5293 1.22736.0522 2.36523.8912 2.36523 2.9375 0 1.69722-.92924 3.48822-2.17578 5.09961-1.20727 1.56061-2.67447 2.91135-3.7832 3.90039h-.082c-1.10873-.98904-2.57593-2.33978-3.7832-3.90039-1.24658-1.61139-2.17582-3.40239-2.17582-5.09961 0-2.0463 1.13787-2.88527 2.36523-2.9375z" opacity=".6" transform="matrix(100 0 0 100 -44600 -45102.9758)"/></g></svg>