<svg height="1600" viewBox="0 0 1600 1600" width="1600" xmlns="http://www.w3.org/2000/svg" xmlns:inkscape="http://www.inkscape.org/namespaces/inkscape" xmlns:sodipodi="http://sodipodi.sourceforge.net/DTD/sodipodi-0.dtd"><sodipodi:namedview pagecolor="#303030" showgrid="true"><inkscape:grid id="grid5" units="px" spacingx="100" spacingy="100" color="#4772b3" opacity="0.2" visible="true" /></sodipodi:namedview><g fill="#fff"><g enable-background="new" transform="translate(-233 -365)"><path d="m1028 1556c-3.2833 0-6 2.4414-6 5.5 0 1.7056.9046 3.146 2.1523 4.3594l.9942.9941a.50004997.50004997 0 0 0 .3027.1485.50004997.50004997 0 0 0 .051.998h5a.50004997.50004997 0 0 0 .045-.998.50004997.50004997 0 0 0 .3086-.1485l.9981-.998c1.2122-1.1985 2.1465-2.6518 2.1465-4.3535 0-3.0586-2.7167-5.5-6-5.5zm0 1c2.7919 0 5 2.0358 5 4.5 0 1.3342-.7428 2.5488-1.8516 3.6445l-1 1a.50004997.50004997 0 0 0 .2793.8535h-4.8594a.50004997.50004997 0 0 0 .2871-.8535l-1-1a.50004997.50004997 0 0 0 -.01-.01c-1.1397-1.1082-1.8477-2.2864-1.8477-3.6406 0-2.4642 2.2081-4.5 5-4.5zm-2.5 12a.50004997.50004997 0 1 0 0 1h1.5v.5a.50004997.50004997 0 0 0 .5.5h1a.50004997.50004997 0 0 0 .5-.5v-.5h1.5a.50004997.50004997 0 1 0 0-1z"/><path d="m1025.4902 1561.0059a.50005.50005 0 0 0 -.3437.8476l.8535.8535v1.543a.50005.50005 0 1 0 1 0v-1.25h2v1.25a.50005.50005 0 1 0 1 0v-1.543l.8535-.8535a.50005.50005 0 0 0 -.707-.707l-.8535.8535h-2.586l-.8535-.8535a.50005.50005 0 0 0 -.3633-.1406z" opacity=".6"/></g><path d="m450.32227 452.0625c-1.71014.07277-3.32227 1.4838-3.32227 3.9375 0 2.05278 1.07076 4.01178 2.38672 5.71289 1.31595 1.70111 2.90024 3.15481 4.03125 4.16016a.50005.50005 0 0 0 .33203.12695h.5a.50005.50005 0 0 0 .33203-.12695c1.13101-1.00535 2.7153-2.45905 4.03125-4.16016 1.31596-1.70111 2.38672-3.66011 2.38672-5.71289 0-2.4537-1.61213-3.86473-3.32227-3.9375-1.52139-.0647-3.0532.927-3.67773 2.69727-.62453-1.77027-2.15634-2.76201-3.67773-2.69727zm.043 1c1.22737-.0522 2.55838.74689 2.89258 2.5293a.50005.50005 0 0 0 .49215.4082h.5a.50005.50005 0 0 0 .49219-.4082c.3342-1.78241 1.66521-2.58153 2.89258-2.5293 1.22736.0522 2.36523.8912 2.36523 2.9375 0 1.69722-.92924 3.48822-2.17578 5.09961-1.20727 1.56061-2.67447 2.91135-3.7832 3.90039h-.082c-1.10873-.98904-2.57593-2.33978-3.7832-3.90039-1.24658-1.61139-2.17582-3.40239-2.17582-5.09961 0-2.0463 1.13787-2.88527 2.36523-2.9375z" opacity=".6" transform="matrix(100 0 0 100 -44600 -45102.9758)"/></g></svg>