<svg height="1600" viewBox="0 0 1400 1600" width="1400" xmlns="http://www.w3.org/2000/svg" xmlns:inkscape="http://www.inkscape.org/namespaces/inkscape" xmlns:sodipodi="http://sodipodi.sourceforge.net/DTD/sodipodi-0.dtd"><sodipodi:namedview pagecolor="#303030" showgrid="true"><inkscape:grid id="grid5" units="px" spacingx="100" spacingy="100" color="#4772b3" opacity="0.2" visible="true" /></sodipodi:namedview><g fill="#fff"><path d="m9.5 578c-1.53192 0-2.5 1.29203-2.5 2.5v9c0 1.20797.96808 2.5 2.5 2.5h9c.67616.01.67616-1.00956 0-1h-9c-.96808 0-1.5-.82235-1.5-1.5s.53192-1.5 1.5-1.5h9c.27613-.00003.49997-.22387.5-.5v-9c-.00003-.27613-.22387-.49997-.5-.5zm4 1c1.37479 0 2.5 1.12521 2.5 2.5 0 1.18026-.86027 2.25-2 2.44531v1.05469h-1v-1.5c.00003-.27613.22387-.49997.5-.5.83435 0 1.5-.66565 1.5-1.5s-.66565-1.5-1.5-1.5-1.5.66565-1.5 1.5v.5h-1v-.5c0-1.37479 1.12521-2.5 2.5-2.5zm-.5 7h1v1h-1zm-3.5 3a.50005.50005 0 1 0 0 1h9a.50005.50005 0 1 0 0-1z" transform="matrix(100 0 0 100 -600.356 -57700.004)"/></g></svg>