<svg height="1600" viewBox="0 0 1100 1600" width="1100" xmlns="http://www.w3.org/2000/svg" xmlns:inkscape="http://www.inkscape.org/namespaces/inkscape" xmlns:sodipodi="http://sodipodi.sourceforge.net/DTD/sodipodi-0.dtd"><sodipodi:namedview pagecolor="#303030" showgrid="true"><inkscape:grid id="grid5" units="px" spacingx="100" spacingy="100" color="#4772b3" opacity="0.2" visible="true" /></sodipodi:namedview><g fill="#fff"><g enable-background="new" transform="translate(-233 -365)"><path d="m1028 1556c-3.2833 0-6 2.4414-6 5.5 0 1.7056.9046 3.146 2.1523 4.3594l.9942.9941a.50004997.50004997 0 0 0 .3027.1485.50004997.50004997 0 0 0 .051.998h5a.50004997.50004997 0 0 0 .045-.998.50004997.50004997 0 0 0 .3086-.1485l.9981-.998c1.2122-1.1985 2.1465-2.6518 2.1465-4.3535 0-3.0586-2.7167-5.5-6-5.5zm0 1c2.7919 0 5 2.0358 5 4.5 0 1.3342-.7428 2.5488-1.8516 3.6445l-1 1a.50004997.50004997 0 0 0 .2793.8535h-4.8594a.50004997.50004997 0 0 0 .2871-.8535l-1-1a.50004997.50004997 0 0 0 -.01-.01c-1.1397-1.1082-1.8477-2.2864-1.8477-3.6406 0-2.4642 2.2081-4.5 5-4.5zm-2.5 12a.50004997.50004997 0 1 0 0 1h1.5v.5a.50004997.50004997 0 0 0 .5.5h1a.50004997.50004997 0 0 0 .5-.5v-.5h1.5a.50004997.50004997 0 1 0 0-1z"/><path d="m1025.4902 1561.0059a.50005.50005 0 0 0 -.3437.8476l.8535.8535v1.543a.50005.50005 0 1 0 1 0v-1.25h2v1.25a.50005.50005 0 1 0 1 0v-1.543l.8535-.8535a.50005.50005 0 0 0 -.707-.707l-.8535.8535h-2.586l-.8535-.8535a.50005.50005 0 0 0 -.3633-.1406z" opacity=".6"/></g><path d="m160.50391 263.00391c-.82069 0-1.4961.67734-1.4961 1.49804.00001.64713.422 1.19917 1.00196 1.40625-.004.17741-.01.3625-.01.58594 0 .8575.30572 1.55064.73242 2.08984.42671.53921.958.94374 1.45313 1.34375.99025.80003 1.81445 1.48075 1.81445 3.0293 0 1.03964-.41467 1.75679-1.05859 2.26367-.64371.50689-1.53958.7793-2.44118.7793s-1.79749-.27241-2.44141-.7793c-.64392-.50688-1.05859-1.22403-1.05859-2.26367v-1.25l1.14648 1.14649c.47127.49023 1.19727-.23577.70704-.70704l-2-2c-.315-.31479-.85335-.0918-.85352.35352v2.45703c0 1.32194.58533 2.37688 1.44141 3.05078s1.96019.99219 3.05859.99219 2.20251-.31829 3.05859-.99219 1.44141-1.72884 1.44141-3.05078c0-1.93167-1.1758-2.99085-2.18555-3.80664-.50487-.40789-.97358-.77897-1.29687-1.1875-.3233-.40853-.51758-.83473-.51758-1.46875 0-.20716.005-.40692.01-.58984.57393-.21035.99023-.75955.99023-1.40235 0-.8207-.67541-1.49804-1.49609-1.49804zm0 1c.27921 0 .49609.21676.49609.49804 0 .28129-.21688.49805-.49609.49805-.27922 0-.4961-.21676-.4961-.49805 0-.28128.21688-.49804.4961-.49804z" fill-rule="evenodd" transform="matrix(100 0 0 100 -15499.9998 -26200.196)"/></g></svg>