<svg height="1600" viewBox="0 0 1600 1600" width="1600" xmlns="http://www.w3.org/2000/svg" xmlns:inkscape="http://www.inkscape.org/namespaces/inkscape" xmlns:sodipodi="http://sodipodi.sourceforge.net/DTD/sodipodi-0.dtd"><sodipodi:namedview pagecolor="#303030" showgrid="true"><inkscape:grid id="grid5" units="px" spacingx="100" spacingy="100" color="#4772b3" opacity="0.2" visible="true" /></sodipodi:namedview><g fill="#fff"><g enable-background="new" transform="matrix(100 0 0 100 -17300.043 -3099.936)"><path d="m174.5 32a.50005.50005 0 0 0 -.5.5v13a.50005.50005 0 0 0 .5.5h13a.50005.50005 0 0 0 .5-.5v-13a.50005.50005 0 0 0 -.5-.5zm.5 1h12v12h-12z"/><path d="m174.58789 32.005859c-.28431-.049213-.58776.160148-.58789.494141v13c.00003.276131.22387.499972.5.5h13c.44532-.00017.6683-.538517.35352-.853516l-13-13c-.0788-.0787-.17086-.12422-.26563-.140625zm3.9082 5.994141c.191-.001.36608.106304.45118.277344l3 6c.1652.33223-.07597.722306-.44727.722656h-6c-.371-.00035-.61247-.390426-.44727-.722656l3-6c.084-.16853.25516-.275714.44336-.277344z"/><path d="m178.50391 37.999995c-.19102-.0013-.36611.106306-.45118.277344l-3 6c-.16516.332221.0763.722286.44727.722656h6c.37101-.00037.61243-.390435.44727-.722656l-3-6c-.0838-.168518-.25516-.2757-.44336-.277344z" opacity=".3"/><path d="m184.5 35c.82251 0 1.5.677494 1.5 1.5s-.67749 1.5-1.5 1.5-1.5-.677494-1.5-1.5.67749-1.5 1.5-1.5z" opacity=".99"/></g></g></svg>