<svg height="1600" viewBox="0 0 1600 1600" width="1600" xmlns="http://www.w3.org/2000/svg" xmlns:inkscape="http://www.inkscape.org/namespaces/inkscape" xmlns:sodipodi="http://sodipodi.sourceforge.net/DTD/sodipodi-0.dtd"><sodipodi:namedview pagecolor="#303030" showgrid="true"><inkscape:grid id="grid5" units="px" spacingx="100" spacingy="100" color="#4772b3" opacity="0.2" visible="true" /></sodipodi:namedview><g fill="#fff"><g enable-background="new" transform="matrix(100 0 0 100 -79400 13200.069)"><path d="m453 170v2h-2.5a.50005.50005 0 1 0 0 1h2.91992a.50005.50005 0 0 0 .16211 0h.83789a.50005.50005 0 0 0 .16211 0h2.91797a.50005.50005 0 1 0 0-1h-2.5v-2zm-5.5-11a.50005.50005 0 0 0 -.5.5v9a.50005.50005 0 0 0 .5.5h13a.50005.50005 0 0 0 .5-.5v-9a.50005.50005 0 0 0 -.5-.5zm.5 1h12v8h-12z" fill-rule="evenodd" transform="translate(348 -290.004)"/><path d="m520 349c-.54636 0-1 .45364-1 1s.45364 1 1 1 1-.45364 1-1-.45364-1-1-1zm-4.50391 1.05078c-.16882.001-.32263.0972-.39843.24805l-2.75 5.5c-.15067.29943.0671.65258.40234.65234h5.75c.34173-.00024.55851-.36622.39453-.66601l-3-5.5c-.0795-.14558-.23258-.23538-.39844-.23438z" opacity=".99" transform="translate(285 -478)"/></g></g></svg>