<svg height="1600" viewBox="0 0 1600 1600" width="1600" xmlns="http://www.w3.org/2000/svg" xmlns:inkscape="http://www.inkscape.org/namespaces/inkscape" xmlns:sodipodi="http://sodipodi.sourceforge.net/DTD/sodipodi-0.dtd"><sodipodi:namedview pagecolor="#303030" showgrid="true"><inkscape:grid id="grid5" units="px" spacingx="100" spacingy="100" color="#4772b3" opacity="0.2" visible="true" /></sodipodi:namedview><g fill="#fff"><g enable-background="new" transform="matrix(100 0 0 100 -77300 13200)"><path d="m27.5 347a.50005.50005 0 0 0 -.5.5v3.5h1v-3h3v-1zm9.5 0v1h3v3h1v-3.5a.50005.50005 0 0 0 -.5-.5zm-10 10v3.5a.50005.50005 0 0 0 .5.5h3.5v-1h-3v-3zm13 0v3h-3v1h3.5a.50005.50005 0 0 0 .5-.5v-3.5z" opacity=".6" transform="translate(747 -478)"/><g enable-background="new" opacity=".99" transform="matrix(-1 0 0 1 1439 230)"><path d="m653.5-359a.50005.50005 0 0 0 -.5.5v9a.50005.50005 0 0 0 .5.5h9a.50005.50005 0 0 0 .5-.5v-9a.50005.50005 0 0 0 -.5-.5zm.5 1h8v8h-8z" fill-rule="evenodd" opacity="1"/><path d="m656-357c-.54636 0-1 .45364-1 1s.45364 1 1 1 1-.45364 1-1-.45364-1-1-1zm3.50391 1c-.18479-.001-.35529.0993-.44336.26172l-3 5.5c-.1805.33311.0606.73812.43945.73828h5.75c.37101-.00037.61244-.39044.44727-.72266l-2.75-5.5c-.0838-.16852-.25516-.2757-.44336-.27734z" opacity="1"/></g></g></g></svg>