<svg height="1600" viewBox="0 0 1600 1600" width="1600" xmlns="http://www.w3.org/2000/svg" xmlns:inkscape="http://www.inkscape.org/namespaces/inkscape" xmlns:sodipodi="http://sodipodi.sourceforge.net/DTD/sodipodi-0.dtd"><sodipodi:namedview pagecolor="#303030" showgrid="true"><inkscape:grid id="grid5" units="px" spacingx="100" spacingy="100" color="#4772b3" opacity="0.2" visible="true" /></sodipodi:namedview><g fill="#fff"><g enable-background="new" transform="translate(-233 -365)"><path d="m1028 1556c-3.2833 0-6 2.4414-6 5.5 0 1.7056.9046 3.146 2.1523 4.3594l.9942.9941a.50004997.50004997 0 0 0 .3027.1485.50004997.50004997 0 0 0 .051.998h5a.50004997.50004997 0 0 0 .045-.998.50004997.50004997 0 0 0 .3086-.1485l.9981-.998c1.2122-1.1985 2.1465-2.6518 2.1465-4.3535 0-3.0586-2.7167-5.5-6-5.5zm0 1c2.7919 0 5 2.0358 5 4.5 0 1.3342-.7428 2.5488-1.8516 3.6445l-1 1a.50004997.50004997 0 0 0 .2793.8535h-4.8594a.50004997.50004997 0 0 0 .2871-.8535l-1-1a.50004997.50004997 0 0 0 -.01-.01c-1.1397-1.1082-1.8477-2.2864-1.8477-3.6406 0-2.4642 2.2081-4.5 5-4.5zm-2.5 12a.50004997.50004997 0 1 0 0 1h1.5v.5a.50004997.50004997 0 0 0 .5.5h1a.50004997.50004997 0 0 0 .5-.5v-.5h1.5a.50004997.50004997 0 1 0 0-1z"/><path d="m1025.4902 1561.0059a.50005.50005 0 0 0 -.3437.8476l.8535.8535v1.543a.50005.50005 0 1 0 1 0v-1.25h2v1.25a.50005.50005 0 1 0 1 0v-1.543l.8535-.8535a.50005.50005 0 0 0 -.707-.707l-.8535.8535h-2.586l-.8535-.8535a.50005.50005 0 0 0 -.3633-.1406z" opacity=".6"/></g><g enable-background="new" transform="matrix(100 0 0 100 -75200 13200.03700000001)"><path d="m30.492188 367.99219a.50005.50005 0 0 0 -.492188.50781v9.79297l-2.853516 2.85351a.50005.50005 0 1 0 .707032.70704l2.853515-2.85352h9.792969a.50005.50005 0 1 0 0-1h-9.5v-9.5a.50005.50005 0 0 0 -.507812-.50781z" transform="translate(726 -499)"/><g enable-background="new" opacity=".99" transform="matrix(-1 0 0 1 1420 228)"><path d="m653.5-359a.50005.50005 0 0 0 -.5.5v8 .5h1v-.5-7.5h7.5.5v-1h-.5z" fill-rule="evenodd" opacity=".6"/><path d="m542 349c-.54636 0-1 .45364-1 1s.45364 1 1 1 1-.45364 1-1-.45364-1-1-1zm-3.48047 2.05078c-.16946-.008-.32881.0808-.41211.22852l-2.25 4c-.17018.3004.0473.67264.39258.67187h4.5c.34528.00077.56276-.37147.39258-.67187l-2.25-4c-.0765-.13552-.21755-.22152-.37305-.22852z" opacity="1" transform="matrix(-1 0 0 1 1198 -706)"/></g></g></g></svg>