<?xml version="1.0" encoding="UTF-8" standalone="no"?>
<svg
   id="svg3"
   height="1600"
   viewBox="0 0 1600 1600"
   width="1600"
   version="1.1"
   xmlns="http://www.w3.org/2000/svg"
   xmlns:svg="http://www.w3.org/2000/svg" xmlns:inkscape="http://www.inkscape.org/namespaces/inkscape" xmlns:sodipodi="http://sodipodi.sourceforge.net/DTD/sodipodi-0.dtd"><sodipodi:namedview pagecolor="#303030" showgrid="true"><inkscape:grid id="grid5" units="px" spacingx="100" spacingy="100" color="#4772b3" opacity="0.2" visible="true" /></sodipodi:namedview>
  <defs
     id="defs1" />
  <g
     id="g1">
    <path
       id="path1"
       d="m447.5 159.00001a.50005.50005 0 0 0 -.5.5v9a.50005.50005 0 0 0 .5.5h13a.50005.50005 0 0 0 .5-.5v-9a.50005.50005 0 0 0 -.5-.5zm.5 1h12v8h-4.05051c-.00073-.07033-.01745-.14227-.05496-.21084l-3-5.5c-.0795-.14558-.23258-.2354-.39844-.2344-.16882.001-.32263.0972-.39843.24805l-2.75 5.5c-.03252.06462-.04696.13166-.04768.19719h-1.29998zm9 1.00398c-.54636 0-1 .45364-1 1s.45364 1 1 1 1-.45364 1-1-.45364-1-1-1zm-4 8.99602v2h-2.5a.50005.50005 0 1 0 0 1h2.91992a.50005.50005 0 0 0 .16211 0h.83789a.50005.50005 0 0 0 .16211 0h2.91797a.50005.50005 0 1 0 0-1h-2.5v-2z"
       fill="#fff"
       transform="matrix(100 0 0 100 -44600 -15800.331)" />
  </g>
</svg>
