<svg id="svg5" height="1600" viewBox="0 0 1600 1600" width="1600" xmlns="http://www.w3.org/2000/svg" xmlns:inkscape="http://www.inkscape.org/namespaces/inkscape" xmlns:sodipodi="http://sodipodi.sourceforge.net/DTD/sodipodi-0.dtd"><sodipodi:namedview pagecolor="#303030" showgrid="true"><inkscape:grid id="grid5" units="px" spacingx="100" spacingy="100" color="#4772b3" opacity="0.2" visible="true" /></sodipodi:namedview><g fill="#fff" transform="matrix(-100 0 0 100 126399.91 29299.68)"><path id="path1" d="m1262.0112-278.9911-12.015-.00001v-12.01489l12.0125.00005z" fill-rule="evenodd" opacity=".3"/><path id="path2" d="m1257.5039-287c-.191-.001-.3661.1063-.4512.27734l-3 6c-.1652.33223.076.72231.4473.72266h6c.371-.00035.6125-.39043.4473-.72266l-3-6c-.084-.16853-.2552-.27571-.4434-.27734z"/><path id="path3" d="m1252.5-289c-.8225 0-1.5.67749-1.5 1.5s.6775 1.5 1.5 1.5 1.5-.67749 1.5-1.5-.6775-1.5-1.5-1.5z"/><path id="path4" d="m1249.5-292a.50005.50005 0 0 0 -.5.5v13a.50005.50005 0 0 0 .5.5h12.9199a.50005.50005 0 0 0 .4043-.11328.50005.50005 0 0 0 0-.002.50005.50005 0 0 0 .033-.0312.50005.50005 0 0 0 0-.004.50005.50005 0 0 0 .031-.0332.50005.50005 0 0 0 0-.004.50005.50005 0 0 0 .1035-.39453v-12.91779a.50005.50005 0 0 0 -.5-.5zm.5 1h12v12h-12z" fill-rule="evenodd"/></g></svg>