<svg id="svg5" height="1600" viewBox="0 0 1600 1600" width="1600" xmlns="http://www.w3.org/2000/svg" xmlns:inkscape="http://www.inkscape.org/namespaces/inkscape" xmlns:sodipodi="http://sodipodi.sourceforge.net/DTD/sodipodi-0.dtd"><sodipodi:namedview pagecolor="#303030" showgrid="true"><inkscape:grid id="grid5" units="px" spacingx="100" spacingy="100" color="#4772b3" opacity="0.2" visible="true" /></sodipodi:namedview><g fill="#fff"><path id="path2" d="m662.5-359a.50005.50005 0 0 1 .5.5v9a.50005.50005 0 0 1 -.5.5h-9a.50005.50005 0 0 1 -.5-.5v-9a.50005.50005 0 0 1 .5-.5zm-.5 1h-8v8h2.00029c-.0001-.07934.01823-.16072.06026-.23828l3-5.5c.08807-.16242.25857-.26272.44336-.26172.1882.00164.35956.10882.44336.27734l2.05273 4.10547zm-6 1c.54636 0 1 .45364 1 1s-.45364 1-1 1-1-.45364-1-1 .45364-1 1-1z" transform="matrix(-100 0 0 100 66600 36200)"/><path id="path1" d="m27.5 347a.50005.50005 0 0 0 -.5.5v3.5h1v-3h3v-1zm9.5 0v1h3v3h1v-3.5a.50005.50005 0 0 0 -.5-.5zm-10 10v3.5a.50005.50005 0 0 0 .5.5h3.5v-1h-3v-3zm13 0v3h-3v1h3.5a.50005.50005 0 0 0 .5-.5v-3.5z" opacity=".6" transform="matrix(100 0 0 100 -2600 -34600)"/></g></svg>