<?xml version="1.0" encoding="UTF-8" standalone="no"?>
<svg
   id="svg3"
   height="1600"
   viewBox="0 0 1600 1600"
   width="1600"
   version="1.1"
   xmlns="http://www.w3.org/2000/svg"
   xmlns:svg="http://www.w3.org/2000/svg" xmlns:inkscape="http://www.inkscape.org/namespaces/inkscape" xmlns:sodipodi="http://sodipodi.sourceforge.net/DTD/sodipodi-0.dtd"><sodipodi:namedview pagecolor="#303030" showgrid="true"><inkscape:grid id="grid5" units="px" spacingx="100" spacingy="100" color="#4772b3" opacity="0.2" visible="true" /></sodipodi:namedview>
  <defs
     id="defs1" />
  <g
     id="g1">
    <path
       id="path1"
       d="m237.51602-4.9992966c-.00509.000127-.01012-.0006734-.0152-.0007031h-.00082a.50005.50005 0 0 1 -.00018-.000039c-.08183-.0006425-.16046-.0244079-.2323-.0622852a.50005.50005 0 0 1 -.03094-.018125c-.13647-.0846343-.23651-.2298937-.23658-.4195508v-13.0000003c.00001-.088065.02475-.169581.06473-.241445a.50005.50005 0 0 1 .00742-.013672c.04252-.071128.10161-.130218.17273-.172734a.50005.50005 0 0 1 .01368-.007422c.07186-.039975.15338-.064718.24144-.064727h13c.18966.000073.33492.100107.41955.236582a.50005.50005 0 0 1 .01813.030938c.03787.071839.06164.15047.06228.232305a.50005.50005 0 0 1 .00004.000175v.000821c.00004.00747.0003.014879 0 .022363v12.9768163a.50005.50005 0 0 1 -.5.5h-12.97682c-.00239.0000944-.00477.0006435-.00716.0007031zm1.19101-1.0007031h11.29297v-11.2929683z"
       fill="#fff"
       transform="matrix(100 0 0 -100 -23600.043 -399.957)" />
  </g>
</svg>
