<svg id="svg5" height="1600" viewBox="0 0 1600 1600" width="1600" xmlns="http://www.w3.org/2000/svg" xmlns:inkscape="http://www.inkscape.org/namespaces/inkscape" xmlns:sodipodi="http://sodipodi.sourceforge.net/DTD/sodipodi-0.dtd"><sodipodi:namedview pagecolor="#303030" showgrid="true"><inkscape:grid id="grid5" units="px" spacingx="100" spacingy="100" color="#4772b3" opacity="0.2" visible="true" /></sodipodi:namedview><g fill="#fff" transform="matrix(100 0 0 100 -17300.043 -3099.936)"><path id="path3" d="m178.50391 37.999995c-.19102-.0013-.36611.106306-.45118.277344l-3 6c-.16516.332221.0763.722286.44727.722656h6c.37101-.00037.61243-.390435.44727-.722656l-3-6c-.0838-.168518-.25516-.2757-.44336-.277344z" opacity=".3"/><path id="path4" d="m184.5 35c.82251 0 1.5.677494 1.5 1.5s-.67749 1.5-1.5 1.5-1.5-.677494-1.5-1.5.67749-1.5 1.5-1.5z" opacity=".99"/><path id="path2" d="m174.48102 31.999262c-.07889.003704-.15519.027701-.22391.06584a.50005.50005 0 0 0 -.01414.008946c-.07016.041979-.12983.100244-.1727.172695a.50005.50005 0 0 0 -.00406.00625c-.04056.071061-.06617.153441-.06621.247012v13c.00001.088062.02475.169563.06473.241425a.50005.50005 0 0 0 .00744.013711c.04251.071114.1016.130205.17271.172715a.50005.50005 0 0 0 .01371.007442c.07186.03996.15336.064698.24141.064707h13c.18964-.000073.33489-.100107.41953-.236563a.50005.50005 0 0 0 .01817-.030996c.03787-.071833.06162-.150441.06226-.232266a.50005.50005 0 0 0 .00004-.000175v-.000821c.00004-.00747.0003-.01488 0-.022363v-12.976816a.50005.50005 0 0 0 -.5-.5h-13a.50005.50005 0 0 0 -.00131.000351c-.00589.000068-.0118-.001369-.01767-.001094zm1.22601 1.000743h11.29297v11.292968zm2.78906 5c.191-.001.36608.106303.45118.277343l3 6c.1652.33223-.07597.722307-.44727.722657h-6c-.371-.00035-.61247-.390427-.44727-.722657l3-6c.084-.16853.25516-.275713.44336-.277343z"/></g></svg>