<svg height="1600" viewBox="0 0 1600 1600" width="1600" xmlns="http://www.w3.org/2000/svg" xmlns:inkscape="http://www.inkscape.org/namespaces/inkscape" xmlns:sodipodi="http://sodipodi.sourceforge.net/DTD/sodipodi-0.dtd"><sodipodi:namedview pagecolor="#303030" showgrid="true"><inkscape:grid id="grid5" units="px" spacingx="100" spacingy="100" color="#4772b3" opacity="0.2" visible="true" /></sodipodi:namedview><g fill="#fff"><g enable-background="new" transform="matrix(100 0 0 100 -13100.002 -55599.997)"><path d="m132.5 557a.50005.50005 0 0 0 -.5.5v13a.50005.50005 0 0 0 .5.5h13a.50005.50005 0 0 0 .5-.5v-8a.50005.50005 0 1 0 -1 0v7.5h-12v-12h1.5a.50005.50005 0 1 0 0-1z" fill-rule="evenodd" opacity=".7"/><path d="m136.5 557c-.25 0-.5.25-.5.5v5.5c0 .5.25 1 1 1s1-.5 1-1v-1c0-.5.53412-1 1-1 .55229 0 1 .44772 1 1v3.5c0 .82843.67157 1.5 1.5 1.5s1.5-.67157 1.5-1.5v-3.5c0-.55228.44772-1 1-1h.5c.85547 0 1.5-.66406 1.5-1.5v-2c0-.25-.25-.5-.5-.5z"/></g></g></svg>