<svg height="1600" viewBox="0 0 1600 1600" width="1600" xmlns="http://www.w3.org/2000/svg" xmlns:inkscape="http://www.inkscape.org/namespaces/inkscape" xmlns:sodipodi="http://sodipodi.sourceforge.net/DTD/sodipodi-0.dtd"><sodipodi:namedview pagecolor="#303030" showgrid="true"><inkscape:grid id="grid5" units="px" spacingx="100" spacingy="100" color="#4772b3" opacity="0.2" visible="true" /></sodipodi:namedview><g fill="#fff"><g enable-background="new" transform="translate(-233 -365)"><path d="m1028 1556c-3.2833 0-6 2.4414-6 5.5 0 1.7056.9046 3.146 2.1523 4.3594l.9942.9941a.50004997.50004997 0 0 0 .3027.1485.50004997.50004997 0 0 0 .051.998h5a.50004997.50004997 0 0 0 .045-.998.50004997.50004997 0 0 0 .3086-.1485l.9981-.998c1.2122-1.1985 2.1465-2.6518 2.1465-4.3535 0-3.0586-2.7167-5.5-6-5.5zm0 1c2.7919 0 5 2.0358 5 4.5 0 1.3342-.7428 2.5488-1.8516 3.6445l-1 1a.50004997.50004997 0 0 0 .2793.8535h-4.8594a.50004997.50004997 0 0 0 .2871-.8535l-1-1a.50004997.50004997 0 0 0 -.01-.01c-1.1397-1.1082-1.8477-2.2864-1.8477-3.6406 0-2.4642 2.2081-4.5 5-4.5zm-2.5 12a.50004997.50004997 0 1 0 0 1h1.5v.5a.50004997.50004997 0 0 0 .5.5h1a.50004997.50004997 0 0 0 .5-.5v-.5h1.5a.50004997.50004997 0 1 0 0-1z"/><path d="m1025.4902 1561.0059a.50005.50005 0 0 0 -.3437.8476l.8535.8535v1.543a.50005.50005 0 1 0 1 0v-1.25h2v1.25a.50005.50005 0 1 0 1 0v-1.543l.8535-.8535a.50005.50005 0 0 0 -.707-.707l-.8535.8535h-2.586l-.8535-.8535a.50005.50005 0 0 0 -.3633-.1406z" opacity=".6"/></g><g enable-background="new" transform="matrix(100 0 0 100 -17300.043 -3099.936)"><path d="m174.5 32a.50005.50005 0 0 0 -.5.5v13a.50005.50005 0 0 0 .5.5h13a.50005.50005 0 0 0 .5-.5v-13a.50005.50005 0 0 0 -.5-.5zm.5 1h12v12h-12z"/><path d="m174.58789 32.005859c-.28431-.049213-.58776.160148-.58789.494141v13c.00003.276131.22387.499972.5.5h13c.44532-.00017.6683-.538517.35352-.853516l-13-13c-.0788-.0787-.17086-.12422-.26563-.140625zm3.9082 5.994141c.191-.001.36608.106304.45118.277344l3 6c.1652.33223-.07597.722306-.44727.722656h-6c-.371-.00035-.61247-.390426-.44727-.722656l3-6c.084-.16853.25516-.275714.44336-.277344z"/><path d="m178.50391 37.999995c-.19102-.0013-.36611.106306-.45118.277344l-3 6c-.16516.332221.0763.722286.44727.722656h6c.37101-.00037.61243-.390435.44727-.722656l-3-6c-.0838-.168518-.25516-.2757-.44336-.277344z" opacity=".3"/><path d="m184.5 35c.82251 0 1.5.677494 1.5 1.5s-.67749 1.5-1.5 1.5-1.5-.677494-1.5-1.5.67749-1.5 1.5-1.5z" opacity=".99"/></g></g></svg>