<svg height="1600" viewBox="0 0 1600 1600" width="1600" xmlns="http://www.w3.org/2000/svg" xmlns:inkscape="http://www.inkscape.org/namespaces/inkscape" xmlns:sodipodi="http://sodipodi.sourceforge.net/DTD/sodipodi-0.dtd"><sodipodi:namedview pagecolor="#303030" showgrid="true"><inkscape:grid id="grid5" units="px" spacingx="100" spacingy="100" color="#4772b3" opacity="0.2" visible="true" /></sodipodi:namedview><g fill="#fff"><path d="m141.51562 82a.50005.50005 0 0 0 -.5.5v5a.50005.50005 0 0 0 .5.5h3.98438a.50005.50005 0 0 0 .5-.5v-5a.50005.50005 0 0 0 -.5-.5zm.5 1h2.98438v4h-2.98438zm-9.5-1a.50005.50005 0 0 0 -.5.5v5a.50005.50005 0 0 0 .5.5h3.98438a.50005.50005 0 0 0 .5-.5v-5a.50005.50005 0 0 0 -.5-.5zm.5 1h2.98438v4h-2.98438zm8.5-9a.50005.50005 0 0 0 -.5.5v5a.50005.50005 0 0 0 .5.5h3.98438a.50005.50005 0 0 0 .5-.5v-5a.50005.50005 0 0 0 -.5-.5zm.5 1h2.98438v4h-2.98438zm-9.5-1a.50005.50005 0 0 0 -.5.5v5a.50005.50005 0 0 0 .5.5h3.98438a.50005.50005 0 0 0 .5-.5v-5a.50005.50005 0 0 0 -.5-.5zm.5 1h2.98438v4h-2.98438z" transform="matrix(100 0 0 100 -13100.781 -7300)"/></g></svg>