<svg height="1500" viewBox="0 0 1500 1500" width="1500" xmlns="http://www.w3.org/2000/svg" xmlns:inkscape="http://www.inkscape.org/namespaces/inkscape" xmlns:sodipodi="http://sodipodi.sourceforge.net/DTD/sodipodi-0.dtd"><sodipodi:namedview pagecolor="#303030" showgrid="true"><inkscape:grid id="grid5" units="px" spacingx="100" spacingy="100" color="#4772b3" opacity="0.2" visible="true" /></sodipodi:namedview><g fill="#fff"><g enable-background="new" transform="matrix(100 0 0 100 -8900.0006 -5300.286)"><path d="m216.49219 104.99219a.50005.50005 0 0 0 -.49219.50781v3a.50005.50005 0 0 0 .5.5h12a.50005.50005 0 0 0 .5-.5v-3a.50005.50005 0 1 0 -1 0v2.5h-11v-2.5a.50005.50005 0 0 0 -.50781-.50781z" opacity=".6" transform="matrix(-1 0 0 1 319 -42.00007)"/><path d="m96.499447 54.005859c-.27538.0043-.49542.230473-.49219.50586v7.792969l-2.13002-2.130019c-.47125-.490807-1.19784.235776-.70703.707031l2.98353 2.983534c.19527.195185.51177.195185.70704 0l2.98353-3.005631c.490803-.471255-.23578-1.197838-.70703-.707031l-2.13002 2.152116v-7.792969c.003-.281503-.22632-.510249-.50781-.50586z"/></g></g></svg>