<svg height="1500" viewBox="0 0 1500 1500" width="1500" xmlns="http://www.w3.org/2000/svg" xmlns:inkscape="http://www.inkscape.org/namespaces/inkscape" xmlns:sodipodi="http://sodipodi.sourceforge.net/DTD/sodipodi-0.dtd"><sodipodi:namedview pagecolor="#303030" showgrid="true"><inkscape:grid id="grid5" units="px" spacingx="100" spacingy="100" color="#4772b3" opacity="0.2" visible="true" /></sodipodi:namedview><g fill="#fff"><path d="m541.77363 306a1.0001 1.0001 0 0 0 -.41211.0781l-4.74024 2a1.0004654 1.0004654 0 1 0 .77735 1.84376l1.54883-.65235-2.69532 5.375-2.78906-2.30078a1.50015 1.50015 0 1 0 -1.9082 2.3125l4.24023 3.5a1.50015 1.50015 0 0 0 2.29688-.48437l3.53711-7.0586.41015 1.63086a1.0001 1.0001 0 1 0 1.93946-.48828l-1.25977-5a1.0001 1.0001 0 0 0 -.94531-.75584z" transform="matrix(99.576718 0 0 103.97636 -52771.376 -31716.604)"/></g></svg>