<svg height="1300" viewBox="0 0 1400 1300" width="1400" xmlns="http://www.w3.org/2000/svg" xmlns:inkscape="http://www.inkscape.org/namespaces/inkscape" xmlns:sodipodi="http://sodipodi.sourceforge.net/DTD/sodipodi-0.dtd"><sodipodi:namedview pagecolor="#303030" showgrid="true"><inkscape:grid id="grid5" units="px" spacingx="100" spacingy="100" color="#4772b3" opacity="0.2" visible="true" /></sodipodi:namedview><g fill="#fff"><path d="m520.51395 306a.50005.50005 0 0 0 -.23633.0527l-4 2a.50005.50005 0 1 0 .44532.89454l2.8164-1.40821-4.20508 8.1875-4.52148-3.61718a.50024018.50024018 0 1 0 -.625.78124l5 4a.50005.50005 0 0 0 .75781-.1621l4.4375-8.64063.63281 2.5332a.50005.50005 0 1 0 .96876-.24218l-1-4a.50005.50005 0 0 0 -.47071-.37888z" opacity=".6" transform="matrix(100 0 0 100 -50900.351 -30500.017)"/></g></svg>