<svg id="svg4" height="1600" viewBox="0 0 1600 1599.9999" width="1600" xmlns="http://www.w3.org/2000/svg" xmlns:inkscape="http://www.inkscape.org/namespaces/inkscape" xmlns:sodipodi="http://sodipodi.sourceforge.net/DTD/sodipodi-0.dtd"><sodipodi:namedview pagecolor="#303030" showgrid="true"><inkscape:grid id="grid5" units="px" spacingx="100" spacingy="100" color="#4772b3" opacity="0.2" visible="true" /></sodipodi:namedview><g transform="matrix(26.915787 0 0 26.915787 -5229.2863 -61.278)"><g id="blender_info" fill="none"><path id="path1" d="m795.10098 164.2357c346.73982 0 628.25092 284.75466 628.25092 635.48747 0 350.73493-281.5111 635.48943-628.25092 635.48943-346.73777 0-628.2489-284.7545-628.2489-635.48943 0-350.73281 281.51113-635.48747 628.2489-635.48747z" fill="none" stroke-width="1.02068" transform="matrix(.03715292 0 0 .03715292 194.28324 2.276656)"/></g><g id="blender_text" fill="#ffffff" fill-rule="evenodd"><path id="ellipse3" d="m226.49997 18.000032a3.5 3 0 0 0 -3.49999 2.999953 3.5 3 0 0 0 3.49999 3.000026 3.5 3 0 0 0 3.49999-3.000026 3.5 3 0 0 0 -3.49999-2.999953zm-3.00597 9.000004c-3.068 0-5.58702 1.581974-5.58702 1.581974l-.23199 1.394976s.843-.475006 2.163-.475006c.648 0 1.917-.092957 1.917 1.641042 0 2.822997-2.23098 7.698992-2.24898 10.09899-.017 2.257997 1.03899 3.757959 4.27998 3.757959 2.581 0 5.207-1.302964 5.207-1.302964l.49199-1.602002c-.446.434-1.42198.569992-2.36698.569992-1.136 0-1.86098-.266033-1.86098-1.645032 0-2.425998 2.24202-7.091973 2.24202-10.261969 0-2.215998-.93805-3.75796-4.00504-3.75796z"/><path id="path2" d="m224 6c14.35 0 26 11.65 26 26s-11.65 26-26 26-26-11.65-26-26 11.65-26 26-26zm0 3c12.694 0 23 10.306 23 23s-10.306 23-23 23-23-10.306-23-23 10.306-23 23-23z"/></g></g></svg>