<svg height="1600" viewBox="0 0 1600 1599.9999" width="1600" xmlns="http://www.w3.org/2000/svg" xmlns:inkscape="http://www.inkscape.org/namespaces/inkscape" xmlns:sodipodi="http://sodipodi.sourceforge.net/DTD/sodipodi-0.dtd"><sodipodi:namedview pagecolor="#303030" showgrid="true"><inkscape:grid id="grid5" units="px" spacingx="100" spacingy="100" color="#4772b3" opacity="0.2" visible="true" /></sodipodi:namedview><g clip-rule="evenodd" enable-background="new"><path d="m181.7395 1436.873h5631.6948v1512.4175h-5631.6948z" fill="none" stroke-linejoin="round" stroke-miterlimit="2" stroke-width="2.5131"/><g fill="#fff" fill-rule="evenodd" transform="matrix(26.915787 0 0 26.915787 -5229.2863 -61.278)"><path d="m224 6c14.35 0 26 11.65 26 26s-11.65 26-26 26-26-11.65-26-26 11.65-26 26-26zm0 3c12.694 0 23 10.306 23 23s-10.306 23-23 23-23-10.306-23-23 10.306-23 23-23z"/><path d="m217.675 29.977.232-1.395s2.519-1.582 5.587-1.582c3.067 0 4.005 1.542 4.005 3.758 0 3.17-2.242 7.836-2.242 10.262 0 1.379.725 1.645 1.861 1.645.945 0 1.921-.136 2.367-.57l-.492 1.602s-2.626 1.303-5.207 1.303c-3.241 0-4.297-1.5-4.28-3.758.018-2.4 2.249-7.276 2.249-10.099 0-1.734-1.269-1.641-1.917-1.641-1.32 0-2.163.475-2.163.475z"/><ellipse cx="226.5" cy="21" rx="3.5" ry="3"/></g></g></svg>