<svg height="1700" viewBox="0 0 1600 1700" width="1600" xmlns="http://www.w3.org/2000/svg" xmlns:inkscape="http://www.inkscape.org/namespaces/inkscape" xmlns:sodipodi="http://sodipodi.sourceforge.net/DTD/sodipodi-0.dtd"><sodipodi:namedview pagecolor="#303030" showgrid="true"><inkscape:grid id="grid5" units="px" spacingx="100" spacingy="100" color="#4772b3" opacity="0.2" visible="true" /></sodipodi:namedview><g fill="#fff"><path d="m134.49999 536.00009c-1.3764 0-2.5 1.1236-2.5 2.5v7c0 1.3764 1.1236 2.5 2.5 2.5h.5v2.5c-.0008.4686.5855.6809.8848.3203l2.3496-2.8203h5.2656c1.3764 0 2.5-1.1236 2.5-2.5v-7c0-1.3764-1.1236-2.5-2.5-2.5zm3.5 2h2v2h-2zm-1 3h3v4h1v1h-4v-1h1v-3h-1z" transform="matrix(100 0 0 100 -13099.999 -53500.107)"/></g></svg>