<svg height="1600" viewBox="0 0 1600 1600" width="1600" xmlns="http://www.w3.org/2000/svg" xmlns:inkscape="http://www.inkscape.org/namespaces/inkscape" xmlns:sodipodi="http://sodipodi.sourceforge.net/DTD/sodipodi-0.dtd"><sodipodi:namedview pagecolor="#303030" showgrid="true"><inkscape:grid id="grid5" units="px" spacingx="100" spacingy="100" color="#4772b3" opacity="0.2" visible="true" /></sodipodi:namedview><g fill="#fff"><path d="m-33.240881-196.23198c-.463753.015-.268434-.00077-.772119.0609-1.740585.20981-3.482669.9845-4.723586 2.28732-2.551638 2.67893-3.172464 6.68802-1.256919 9.85012 1.516719 2.50374 3.89167 3.99038 6.566601 3.99026.444117-.00002.110541.001.575206-.006 3.031886-.0695 4.897171-1.58532 6.59575-3.93025 1.739073-3.29307 1.230449-7.14163-1.17571-9.73488s-5.452846-2.51069-5.452846-2.51069c-.204922-.006-.239062-.001-.356377-.007zm.05967 1.16003s.520692.53974 1.055677 1.7588c.534986 1.21906.67231 1.7185.67231 1.7185l-3.417989-.0201c.141833-.49261.433197-1.27308.605155-1.67602.371702-.87099.598957-1.11847 1.084847-1.78115zm-1.442223.19642c-.28808.40724-.567458.87261-.819927 1.43099-.242623.53663-.448096 1.16049-.621702 1.82985h-2.950837c.300374-.51794.649254-1.0133 1.090231-1.45126.935047-.92862 2.086816-1.52467 3.302231-1.80958zm5.620557 1.23432c.767963.59083.962393.90545 1.742436 2.06902-1.157092-.0359-2.0935.0148-3.094934-.0227-.622522-1.99379-1.109326-2.76167-1.383002-3.3555.781059.16633 1.95755.71069 2.7355 1.3092zm2.238674 3.15319c.481009 1.25933.556508 2.96284.02157 4.66941-1.679979-.0111-2.190874.0253-3.293214.004.203498-1.38176.257289-2.59337-.01469-4.63285 1.097538-.0205 2.17329-.0154 3.286334-.0406zm-12.781041.005c.05271.0152.107332.0228.162183.0225h3.079229c-.117383.71799-.198224 1.47709-.198224 2.3076 0 .82787.08153 1.58697.198224 2.3076h-3.079229c-.05732.00055-.114298.009-.168941.0271-.548568-1.52554-.529096-3.17036.0068-4.66478zm8.321783.0372s.273109 3.04481-.0011 4.6103c-1.729623.0138-2.844727-.0339-3.919882.0231-.346151-2.61106.02939-4.22163.04385-4.6377.957841.004 3.877149.004 3.877149.004zm-.251543 5.76078c-.346779 1.44998-.848904 2.4836-1.703746 3.49129-.746288-.98722-1.318481-1.98137-1.76287-3.48343 1.521958.0302 2.67716-.005 3.466616-.008zm-7.558915-.006h2.966601c.174267.68127.379509 1.31622.623954 1.8614.244476.54524.512171.99969.790644 1.39943-1.775918-.42441-3.364983-1.53387-4.347411-3.19098-.01338-.0226-.02064-.0471-.03379-.0699zm8.714806.0263c1.304677.009 1.908125.0163 3.054837.001-.842884 1.58925-2.644194 2.9556-4.368239 3.26242.714543-1.01579.973235-2.17787 1.313402-3.26342z" fill-rule="evenodd" stroke-linecap="round" stroke-linejoin="round" transform="matrix(88.132565 0 0 86.476781 3723.317 17069.549)"/></g></svg>