<svg id="svg5" height="1600" viewBox="0 0 1600 1600" width="1600" xmlns="http://www.w3.org/2000/svg" xmlns:inkscape="http://www.inkscape.org/namespaces/inkscape" xmlns:sodipodi="http://sodipodi.sourceforge.net/DTD/sodipodi-0.dtd"><sodipodi:namedview pagecolor="#303030" showgrid="true"><inkscape:grid id="grid5" units="px" spacingx="100" spacingy="100" color="#4772b3" opacity="0.2" visible="true" /></sodipodi:namedview><g id="g5" enable-background="new" stroke-linecap="round" stroke-linejoin="round" transform="matrix(100 0 0 100 -2876.575 -43092.903)"><path id="path3" d="m-33.24089-196.23221v.00023c-.463752.015-.268426-.00078-.772111.0609-1.724904.20792-3.450582.97136-4.689227 2.25301l.807822.82329c.929543-.91143 2.068725-1.49891 3.27097-1.78074-.28808.40724-.567464.87262-.819933 1.43099-.242623.53663-.448098 1.16048-.621704 1.82984h-.377072l1.323901 1.34925c.0088-.0736.01608-.13928.01766-.18466.95784.004 3.877146.004 3.877146.004l-.000022.00029s.229883 2.57296.05365 4.20441l1.551209 1.58092c.822674.006 1.460756.009 2.354329-.003-.257649.4858-.605598.95024-1.012772 1.37049l.792784.80797c.426629-.44862.832439-.94785 1.228302-1.49434 1.739071-3.29307 1.230445-7.14163-1.175712-9.73488-2.406156-2.59324-5.452843-2.51069-5.452843-2.51069-.204922-.006-.239063-.001-.356378-.007zm.05969 1.16026s.520685.53974 1.055669 1.7588c.534986 1.21906.672298 1.71849.672298 1.71849l-3.417983-.0201c.141833-.49261.433199-1.27308.605156-1.67602.371702-.87099.59897-1.11847 1.08486-1.78115zm1.442834.12155c.781058.16633 1.957533.7107 2.735482 1.30921v-.00002c.767962.59083.962409.90544 1.742451 2.06901-1.15709-.0359-2.09351.0148-3.094943-.0227-.622521-1.99379-1.109314-2.76169-1.38299-3.35552zm4.974161 4.46233v.00005c.481008 1.25933.556519 2.96283.02158 4.6694-1.679978-.0111-2.190878.0253-3.293217.004.203498-1.38176.257273-2.59337-.01471-4.63285 1.097537-.0205 2.173298-.0154 3.286341-.0406z" fill="#fff" fill-rule="evenodd" transform="matrix(.88055062 0 0 .86445829 65.982294 601.57169)"/><path id="path4" d="m-26.255966-183.97932c1.739067-3.29305 1.230455-7.14163-1.175696-9.73488-2.406152-2.59322-5.452848-2.5107-5.452848-2.5107-.20492-.006-.239067-.00098-.356382-.007l.000002-.00009c-1.343442.028-2.631818.2168-3.838918.83126l.896374.95272c.671846-.21156.749102-.30453 1.559999-.42751-.358024.50612-.552482.85426-.733519 1.34186l.846598.90325c.279877-.75061.636171-1.496 1.329143-2.44111.000031.00004.520692.53975 1.055659 1.75877.534985 1.21906.652469 1.78968.652469 1.78968l-2.109431-.0838c.378037.40423.714207.76917 1.103903 1.18664.957838.004 1.305888.0478 1.305888.0478l-.03124 1.35786 1.050465 1.13907.08155-2.44719c1.097535-.0205 2.239307.13037 3.352348.10517.200068 1.30363.522302 1.46966-.0292 4.60164-1.541104-.0102-.419233-.0115-1.351788-.0232.694174.69205 1.010251 1.15565 1.713804 1.85855zm-4.120865-7.49022c-.622511-1.99376-1.087788-2.88667-1.361465-3.48049.781056.16633 1.957523.71069 2.735464 1.30919.767962.59083 1.010808 1.05063 1.790849 2.2142-1.157088-.0359-2.163417-.005-3.164848-.0429z" fill="#fff" fill-rule="evenodd" opacity=".5" transform="matrix(-.88011329 .02774894 -.02724182 -.86402894 2.448914 277.30563)"/><path id="path5" d="m43.125365 445.28631-12.706315-12.7052" fill="none" stroke="#fff" stroke-width="1.29351"/></g></svg>