<svg height="1400" viewBox="0 0 1400 1400" width="1400" xmlns="http://www.w3.org/2000/svg" xmlns:inkscape="http://www.inkscape.org/namespaces/inkscape" xmlns:sodipodi="http://sodipodi.sourceforge.net/DTD/sodipodi-0.dtd"><sodipodi:namedview pagecolor="#303030" showgrid="true"><inkscape:grid id="grid5" units="px" spacingx="100" spacingy="100" color="#4772b3" opacity="0.2" visible="true" /></sodipodi:namedview><g fill="#fff"><path d="m307 180c-1.24829 0-2.24461.83463-3 1.93555-.75539 1.10091-1.32403 2.51399-1.76367 3.91601-.87928 2.80405-1.23047 5.58594-1.23047 5.58594a.50013931.50013931 0 1 0 .99219.12695s.34791-2.71791 1.19336-5.41406c.42272-1.34808.97296-2.68677 1.63281-3.64844.65985-.96166 1.37482-1.50195 2.17578-1.50195.80095 0 1.51593.54029 2.17578 1.50195.65985.96167 1.21009 2.30036 1.63281 3.64844.84545 2.69615 1.19336 5.41406 1.19336 5.41406a.50013931.50013931 0 1 0 .99219-.12695s-.35119-2.78189-1.23047-5.58594c-.43964-1.40202-1.00828-2.8151-1.76367-3.91601s-1.75171-1.93555-3-1.93555z" transform="matrix(100 0 0 100 -30000 -17900.059)"/></g></svg>