<svg height="1400" viewBox="0 0 1600 1400" width="1600" xmlns="http://www.w3.org/2000/svg" xmlns:inkscape="http://www.inkscape.org/namespaces/inkscape" xmlns:sodipodi="http://sodipodi.sourceforge.net/DTD/sodipodi-0.dtd"><sodipodi:namedview pagecolor="#303030" showgrid="true"><inkscape:grid id="grid5" units="px" spacingx="100" spacingy="100" color="#4772b3" opacity="0.2" visible="true" /></sodipodi:namedview><g fill="#fff" id="blender_ipo_other"><path d="m342.45117 201a.50059574.50059574 0 0 0 .0488 1c.0215.00002.18225-.00017.33398 0 .0105.42607.0502 2.52232.33594 5.05664.15671 1.39002.37504 2.78188.69727 3.86719.16111.54265.34457 1.00922.59179 1.38086.24723.37163.61429.69531 1.09375.69531.39174 0 .74881-.20864.97657-.48047.22775-.27182.37091-.59987.48632-.96289.23084-.72603.34622-1.61436.46876-2.48828.12253-.87392.25275-1.73314.44921-2.31641.0982-.29163.21467-.50852.31446-.62109.09982-.11257.14484-.13086.25198-.13086.16824 0 .2932.0848.48633.39062.19312.30582.37727.78401.5625 1.28321.18523.49919.37171 1.01992.64453 1.46289.27281.44297.71019.86328 1.30664.86328.41993 0 .77613-.23568.99219-.49219.21606-.2565.34747-.53797.4707-.78906s.23849-.47074.33594-.58984c.09745-.11911.11768-.12891.20117-.12891.0859 0 .18647.0811.39844.32617.10598.12255.22449.26923.39453.40625.17003.13703.41807.26758.70703.26758.008 0 .14542-.00028.27539 0 .065.00014.13031.00006.18164 0 .0513-.00006.0312.005.12109 0a.50080138.50080138 0 1 0 -.0566-1c.0748-.004-.0172-.00005-.0664 0s-.11331.00014-.17774 0c-.12885-.00028-.25041 0-.27734 0-.0108 0-.0173.004-.0801-.0469-.0628-.0506-.15527-.15364-.26562-.28124-.22074-.25519-.57045-.67186-1.15432-.67186-.4167 0-.76719.23824-.97656.49414s-.33683.53625-.45899.78516c-.12215.24891-.23808.46744-.33789.58593-.09981.1185-.12821.13477-.22656.13477-.14972 0-.26794-.0816-.45703-.38867-.18909-.30703-.37082-.78435-.55664-1.28516-.18583-.5008-.37575-1.02457-.65625-1.46875s-.72872-.85742-1.33008-.85742c-.39664 0-.76041.19848-1 .46875s-.39279.60017-.51562.96484c-.24567.72934-.36739 1.61988-.49024 2.4961-.12285.87621-.24515 1.73764-.43164 2.32422-.0933.29328-.20581.51202-.29883.62304-.093.11102-.1237.12305-.21094.12305-.027 0-.10877-.0201-.26171-.25-.15295-.22991-.31979-.62276-.46485-1.11133-.29011-.97714-.5088-2.33541-.66211-3.69531-.30662-2.7198-.36328-5.45313-.36328-5.45313a.50005.50005 0 0 0 -.5-.49023c-.0468 0-.74734.00005-.80078 0a.50005.50005 0 0 0 -.0488 0z" transform="matrix(100 0 0 100 -34101.37600000001 -19999.97)"/></g></svg>
