<svg height="1400" viewBox="0 0 1600 1400" width="1600" xmlns="http://www.w3.org/2000/svg" xmlns:inkscape="http://www.inkscape.org/namespaces/inkscape" xmlns:sodipodi="http://sodipodi.sourceforge.net/DTD/sodipodi-0.dtd"><sodipodi:namedview pagecolor="#303030" showgrid="true"><inkscape:grid id="grid5" units="px" spacingx="100" spacingy="100" color="#4772b3" opacity="0.2" visible="true" /></sodipodi:namedview><g fill="#fff" id="blender_ipo_other"><path d="m291.5 201a.50005.50005 0 0 0 -.5.5c0 2.47889-.15954 4.38104-.52734 5.8125-.36781 1.43146-.92559 2.38009-1.74024 3.05273-1.6293 1.3453-4.51671 1.63477-9.23242 1.63477a.50005.50005 0 1 0 0 1c4.75093 0 7.86511-.21053 9.86914-1.86523 1.00202-.82736 1.66924-2.00373 2.07227-3.57227.36978-1.43916.48747-3.33151.51171-5.5625h.54688a.50005.50005 0 1 0 0-1z" transform="matrix(100 0 0 100 -27800 -20000)"/></g></svg>
