<svg height="1400" viewBox="0 0 1600 1400" width="1600" xmlns="http://www.w3.org/2000/svg" xmlns:inkscape="http://www.inkscape.org/namespaces/inkscape" xmlns:sodipodi="http://sodipodi.sourceforge.net/DTD/sodipodi-0.dtd"><sodipodi:namedview pagecolor="#303030" showgrid="true"><inkscape:grid id="grid5" units="px" spacingx="100" spacingy="100" color="#4772b3" opacity="0.2" visible="true" /></sodipodi:namedview><g fill="#fff"><path d="m321.5 201a.50005.50005 0 1 0 0 1h.5c.11714 0 .21825.0354.36133.1582.14308.12279.30922.33684.46875.63282.31905.59195.61443 1.49542.87109 2.55468.51334 2.11854.89163 4.86411 1.30664 7.24024a.50005.50005 0 0 0 .98242.008c.24141-1.26736.60565-2.19557.98829-2.76953s.74023-.76172 1.02148-.76172.63884.18776 1.02148.76172.74688 1.50217.98829 2.76953a.50005.50005 0 0 0 .96093.0762c.24086-.66235.48023-1.14224.6836-1.42187.20337-.27964.32487-.31055.3457-.31055.0208 0 .14233.0309.3457.31055.20337.27963.44274.75952.6836 1.42187a.50005.50005 0 0 0 .4707.32986h1a.50005.50005 0 1 0 0-1h-.69141c-.20925-.52074-.41629-1.01454-.65429-1.3418-.29663-.40786-.67513-.7207-1.1543-.7207s-.85767.31284-1.1543.7207c-.10194.14017-.18655.39972-.28125.57422-.21984-.70238-.40285-1.50076-.71093-1.96289-.49236-.73854-1.13477-1.20703-1.85352-1.20703s-1.36116.46849-1.85352 1.20703c-.20879.3132-.31334.90706-.48242 1.33008-.30463-1.87209-.5915-3.83467-.99218-5.48828-.26658-1.10016-.56623-2.0626-.96094-2.79492-.19736-.36617-.41893-.67716-.69727-.91602s-.63359-.40039-1.01367-.40039z" transform="matrix(100 0 0 100 -32000 -20000)"/></g></svg>