<svg height="1400" viewBox="0 0 1600 1400" width="1600" xmlns="http://www.w3.org/2000/svg" xmlns:inkscape="http://www.inkscape.org/namespaces/inkscape" xmlns:sodipodi="http://sodipodi.sourceforge.net/DTD/sodipodi-0.dtd"><sodipodi:namedview pagecolor="#303030" showgrid="true"><inkscape:grid id="grid5" units="px" spacingx="100" spacingy="100" color="#4772b3" opacity="0.2" visible="true" /></sodipodi:namedview><g fill="#fff" id="blender_ipo_other"><path d="m375.5 201a.50005.50005 0 0 0 -.47852.35547c-.97912 3.26329-1.65795 6.01658-2.41406 7.89453-.37805.93897-.77714 1.65307-1.20117 2.10156-.42403.4485-.83753.64844-1.40625.64844-.81989 0-1.77194-.85368-2.74219-1.84961-.48512-.49796-.97309-1.01146-1.49609-1.41992-.52301-.40846-1.09998-.73047-1.76172-.73047h-.5a.50005.50005 0 1 0 0 1h.5c.32338 0 .70916.17799 1.14648.51953s.9074.82804 1.39649 1.33008c.97818 1.00407 2.04085 2.15039 3.45703 2.15039.83577 0 1.56694-.36242 2.13281-.96094.56587-.59851 1.00027-1.41738 1.40235-2.41601.7683-1.90825 1.43134-4.57357 2.33398-7.62305h.63086a.50005.50005 0 1 0 0-1z" transform="matrix(100 0 0 100 -36200 -19999.998)"/></g></svg>
