<svg height="1600" viewBox="0 0 1600 1600" width="1600" xmlns="http://www.w3.org/2000/svg" xmlns:inkscape="http://www.inkscape.org/namespaces/inkscape" xmlns:sodipodi="http://sodipodi.sourceforge.net/DTD/sodipodi-0.dtd"><sodipodi:namedview pagecolor="#303030" showgrid="true"><inkscape:grid id="grid5" units="px" spacingx="100" spacingy="100" color="#4772b3" opacity="0.2" visible="true" /></sodipodi:namedview><g fill="#fff"><g enable-background="new" transform="matrix(100 0 0 100 -15200 -19900)"><path d="m166 201c-1.59692 0-2.85915.78757-3.86133 1.88086s-1.79297 2.49805-2.57422 3.87305-1.55296 2.72024-2.4414 3.68945c-.88845.96921-1.84497 1.55664-3.12305 1.55664h-.5a.50005.50005 0 1 0 0 1h.5c1.59692 0 2.85915-.78757 3.86133-1.88086s1.79297-2.49805 2.57422-3.87305 1.55296-2.72024 2.4414-3.68945c.88845-.96921 1.84497-1.55664 3.12305-1.55664h.5a.50005.50005 0 1 0 0-1z"/><path d="m154.5 200a.50005.50005 0 0 0 -.5.5v2a.50005.50005 0 0 0 .5.5h2a.50005.50005 0 0 0 .5-.5v-.5h3.5a.50005.50005 0 1 0 0-1h-3.5v-.5a.50005.50005 0 0 0 -.5-.5zm.5 1h1v.41992a.50005.50005 0 0 0 0 .16211v.41797h-1zm8.50781 10a.50005.50005 0 0 0 -.5.5v.5h-3.5a.50005.50005 0 1 0 0 1h3.5v.5a.50005.50005 0 0 0 .5.5h2a.50005.50005 0 0 0 .5-.5v-2a.50005.50005 0 0 0 -.5-.5zm.5 1h1v1h-1v-.42383a.50005.50005 0 0 0 0-.15234z" opacity=".6"/></g></g></svg>