<svg height="1500" viewBox="0 0 1600 1500" width="1600" xmlns="http://www.w3.org/2000/svg" xmlns:inkscape="http://www.inkscape.org/namespaces/inkscape" xmlns:sodipodi="http://sodipodi.sourceforge.net/DTD/sodipodi-0.dtd"><sodipodi:namedview pagecolor="#303030" showgrid="true"><inkscape:grid id="grid5" units="px" spacingx="100" spacingy="100" color="#4772b3" opacity="0.2" visible="true" /></sodipodi:namedview><g fill="#fff"><g enable-background="new" transform="matrix(100 0 0 100 -23600 -19899.649)"><g fill="#fff" id="blender_ipo_other"><path d="m249.5 201a.50005.50005 0 0 0 -.49805.45508c-.24047 2.64524-1.32572 5.28945-3.23633 7.25976-1.9106 1.97032-4.63784 3.28516-8.26562 3.28516a.50005.50005 0 1 0 0 1c3.87222 0 6.89498-1.43516 8.98438-3.58984 1.97612-2.03788 3.06007-4.712 3.39843-7.41016h.61719a.50005.50005 0 1 0 0-1z"/></g><g fill="#fff" id="blender_text"><path opacity="0.8" d="m238.4668 199.99414c-.21842.0156-.40126.17156-.45118.38477l-1 4c-.0786.31522.15949.62057.48438.62109h2.5v1.5c-.01.67616 1.00956.67616 1 0v-4c-.009-.6573-.9907-.6573-1 0v1.5h-1.85938l.84376-3.37891c.0877-.33109-.17587-.65038-.51758-.62695z"/></g></g></g></svg>
