<svg height="1400" viewBox="0 0 1600 1400" width="1600" xmlns="http://www.w3.org/2000/svg" xmlns:inkscape="http://www.inkscape.org/namespaces/inkscape" xmlns:sodipodi="http://sodipodi.sourceforge.net/DTD/sodipodi-0.dtd"><sodipodi:namedview pagecolor="#303030" showgrid="true"><inkscape:grid id="grid5" units="px" spacingx="100" spacingy="100" color="#4772b3" opacity="0.2" visible="true" /></sodipodi:namedview><g fill="#fff"><path d="m439 201c-1.59692 0-2.85915.78757-3.86133 1.88086s-1.79297 2.49805-2.57422 3.87305-1.55296 2.72024-2.4414 3.68945c-.88845.96921-1.84497 1.55664-3.12305 1.55664h-.5a.50005.50005 0 1 0 0 1h.5c1.59692 0 2.85915-.78757 3.86133-1.88086s1.79297-2.49805 2.57422-3.87305 1.55296-2.72024 2.4414-3.68945c.88845-.96921 1.84497-1.55664 3.12305-1.55664h.5a.50005.50005 0 1 0 0-1z" transform="matrix(100 0 0 100 -42500 -20000)"/></g></svg>