<svg height="1500" viewBox="0 0 1600 1500" width="1600" xmlns="http://www.w3.org/2000/svg" xmlns:inkscape="http://www.inkscape.org/namespaces/inkscape" xmlns:sodipodi="http://sodipodi.sourceforge.net/DTD/sodipodi-0.dtd"><sodipodi:namedview pagecolor="#303030" showgrid="true"><inkscape:grid id="grid5" units="px" spacingx="100" spacingy="100" color="#4772b3" opacity="0.2" visible="true" /></sodipodi:namedview><g fill="#fff"><g enable-background="new" transform="matrix(100 0 0 100 -25699.895 -19899.804)"><path d="m270.5 201a.50005.50005 0 0 0 -.5.5c0 3.44341-1.07548 6.03173-3.02344 7.79102-1.94795 1.75928-4.81327 2.70898-8.47656 2.70898a.50005.50005 0 1 0 0 1c3.83671 0 6.97139-1.00062 9.14844-2.9668 2.06597-1.86586 3.15029-4.63736 3.26367-8.0332h.58789a.50005.50005 0 1 0 0-1z"/><path d="m258.5 199.99609a.50005.50005 0 0 0 -.5.5v2.00391a.50005.50005 0 0 0 .5.5h1.5c.41667 0 1 .45 1 1.5 0 1.04998-.58056 1.4941-1.00195 1.49609-.52634.003-.86013-.33871-1.05078-.72265a.50005.50005 0 1 0 -.89454.44531c.30945.62316.97566 1.28254 1.94922 1.27734 1.07859-.0051 1.99805-1.04607 1.99805-2.49609 0-1.45-.91667-2.5-2-2.5h-1v-1.00391h2.5a.50005.50005 0 1 0 0-1z"/></g></g></svg>