<svg height="1400" viewBox="0 0 1600 1400" width="1600" xmlns="http://www.w3.org/2000/svg" xmlns:inkscape="http://www.inkscape.org/namespaces/inkscape" xmlns:sodipodi="http://sodipodi.sourceforge.net/DTD/sodipodi-0.dtd"><sodipodi:namedview pagecolor="#303030" showgrid="true"><inkscape:grid id="grid5" units="px" spacingx="100" spacingy="100" color="#4772b3" opacity="0.2" visible="true" /></sodipodi:namedview><g fill="#fff"><g enable-background="new" transform="translate(-233 -365)"><path d="m1028 1556c-3.2833 0-6 2.4414-6 5.5 0 1.7056.9046 3.146 2.1523 4.3594l.9942.9941a.50004997.50004997 0 0 0 .3027.1485.50004997.50004997 0 0 0 .051.998h5a.50004997.50004997 0 0 0 .045-.998.50004997.50004997 0 0 0 .3086-.1485l.9981-.998c1.2122-1.1985 2.1465-2.6518 2.1465-4.3535 0-3.0586-2.7167-5.5-6-5.5zm0 1c2.7919 0 5 2.0358 5 4.5 0 1.3342-.7428 2.5488-1.8516 3.6445l-1 1a.50004997.50004997 0 0 0 .2793.8535h-4.8594a.50004997.50004997 0 0 0 .2871-.8535l-1-1a.50004997.50004997 0 0 0 -.01-.01c-1.1397-1.1082-1.8477-2.2864-1.8477-3.6406 0-2.4642 2.2081-4.5 5-4.5zm-2.5 12a.50004997.50004997 0 1 0 0 1h1.5v.5a.50004997.50004997 0 0 0 .5.5h1a.50004997.50004997 0 0 0 .5-.5v-.5h1.5a.50004997.50004997 0 1 0 0-1z"/><path d="m1025.4902 1561.0059a.50005.50005 0 0 0 -.3437.8476l.8535.8535v1.543a.50005.50005 0 1 0 1 0v-1.25h2v1.25a.50005.50005 0 1 0 1 0v-1.543l.8535-.8535a.50005.50005 0 0 0 -.707-.707l-.8535.8535h-2.586l-.8535-.8535a.50005.50005 0 0 0 -.3633-.1406z" opacity=".6"/></g><path d="m321.5 201a.50005.50005 0 1 0 0 1h.5c.11714 0 .21825.0354.36133.1582.14308.12279.30922.33684.46875.63282.31905.59195.61443 1.49542.87109 2.55468.51334 2.11854.89163 4.86411 1.30664 7.24024a.50005.50005 0 0 0 .98242.008c.24141-1.26736.60565-2.19557.98829-2.76953s.74023-.76172 1.02148-.76172.63884.18776 1.02148.76172.74688 1.50217.98829 2.76953a.50005.50005 0 0 0 .96093.0762c.24086-.66235.48023-1.14224.6836-1.42187.20337-.27964.32487-.31055.3457-.31055.0208 0 .14233.0309.3457.31055.20337.27963.44274.75952.6836 1.42187a.50005.50005 0 0 0 .4707.32986h1a.50005.50005 0 1 0 0-1h-.69141c-.20925-.52074-.41629-1.01454-.65429-1.3418-.29663-.40786-.67513-.7207-1.1543-.7207s-.85767.31284-1.1543.7207c-.10194.14017-.18655.39972-.28125.57422-.21984-.70238-.40285-1.50076-.71093-1.96289-.49236-.73854-1.13477-1.20703-1.85352-1.20703s-1.36116.46849-1.85352 1.20703c-.20879.3132-.31334.90706-.48242 1.33008-.30463-1.87209-.5915-3.83467-.99218-5.48828-.26658-1.10016-.56623-2.0626-.96094-2.79492-.19736-.36617-.41893-.67716-.69727-.91602s-.63359-.40039-1.01367-.40039z" transform="matrix(100 0 0 100 -32000 -20000)"/></g></svg>