<svg height="1500" viewBox="0 0 1600 1500" width="1600" xmlns="http://www.w3.org/2000/svg" xmlns:inkscape="http://www.inkscape.org/namespaces/inkscape" xmlns:sodipodi="http://sodipodi.sourceforge.net/DTD/sodipodi-0.dtd"><sodipodi:namedview pagecolor="#303030" showgrid="true"><inkscape:grid id="grid5" units="px" spacingx="100" spacingy="100" color="#4772b3" opacity="0.2" visible="true" /></sodipodi:namedview><g fill="#fff"><g enable-background="new" transform="matrix(100 0 0 100 -21500 -19899.802)"><path d="m228.5 201a.50005.50005 0 0 0 -.47461.3418c-.75176 2.25527-1.61792 4.94183-3.29101 7.0332-1.6731 2.09137-4.11183 3.625-8.23438 3.625a.50005.50005 0 1 0 0 1c4.37745 0 7.18872-1.71637 9.01562-4 1.74159-2.17699 2.6089-4.81175 3.33594-7h.64844a.50005.50005 0 1 0 0-1z"/><path d="m218.99805 199.99609c-.79172 0-1.70536.42738-1.98047 1.35938a.50005.50005 0 1 0 .95898.2832c.12417-.42064.57962-.64258 1.02149-.64258.26387 0 .51715.0894.69531.24805.17816.15864.30325.37905.30664.75586.001.39768-.25396.75725-.76367 1.07422a.50005.50005 0 0 0 0 .84766c.51034.31737.7656.67798.76367 1.07617-.004.37528-.12888.59561-.30664.7539-.17816.15864-.43144.24805-.69531.24805-.44187 0-.89732-.21999-1.02149-.64062a.50005.50005 0 1 0 -.95898.28124c.27511.93201 1.18875 1.35938 1.98047 1.35938.48612 0 .97796-.16058 1.36133-.50195.38336-.34137.63501-.871.64062-1.49414a.50005.50005 0 0 0 0-.002c.003-.61795-.34308-1.09989-.77734-1.5039.43425-.40402.78027-.88601.77734-1.50391a.50005.50005 0 0 0 0-.002c-.006-.62314-.25726-1.15277-.64062-1.49414-.38337-.34137-.87521-.50196-1.36133-.50196z"/></g></g></svg>