<svg height="1500" viewBox="0 0 1600 1500" width="1600" xmlns="http://www.w3.org/2000/svg" xmlns:inkscape="http://www.inkscape.org/namespaces/inkscape" xmlns:sodipodi="http://sodipodi.sourceforge.net/DTD/sodipodi-0.dtd"><sodipodi:namedview pagecolor="#303030" showgrid="true"><inkscape:grid id="grid5" units="px" spacingx="100" spacingy="100" color="#4772b3" opacity="0.2" visible="true" /></sodipodi:namedview><g fill="#fff"><g enable-background="new" transform="matrix(100 0 0 100 -17299.999 -19899.795)"><g fill="#fff" id="blender_ipo_other"><path d="m186.5 201a.50005.50005 0 0 0 -.40039.19922c-1.548 2.064-2.85356 4.80197-4.58594 6.99023-1.73238 2.18827-3.81151 3.81055-7.01367 3.81055a.50005.50005 0 1 0 0 1c3.54784 0 5.96871-1.87772 7.79883-4.18945 1.7781-2.24603 3.06678-4.88493 4.4707-6.81055h.73047a.50005.50005 0 1 0 0-1z"/></g><g fill="#fff" id="blender_text"><path opacity="0.8" d="m176.48438 199.99609a.50005.50005 0 0 0 -.3379.14649l-2 2a.50005.50005 0 1 0 .70704.70703l1.14648-1.14649v4.79688a.50005.50005 0 1 0 1 0v-6.00391a.50005.50005 0 0 0 -.51562-.5z"/></g></g></g></svg>
