<svg height="1500" viewBox="0 0 1600 1500" width="1600" xmlns="http://www.w3.org/2000/svg" xmlns:inkscape="http://www.inkscape.org/namespaces/inkscape" xmlns:sodipodi="http://sodipodi.sourceforge.net/DTD/sodipodi-0.dtd"><sodipodi:namedview pagecolor="#303030" showgrid="true"><inkscape:grid id="grid5" units="px" spacingx="100" spacingy="100" color="#4772b3" opacity="0.2" visible="true" /></sodipodi:namedview><g fill="#fff"><g enable-background="new" transform="translate(-233 -365)"><path d="m1028 1556c-3.2833 0-6 2.4414-6 5.5 0 1.7056.9046 3.146 2.1523 4.3594l.9942.9941a.50004997.50004997 0 0 0 .3027.1485.50004997.50004997 0 0 0 .051.998h5a.50004997.50004997 0 0 0 .045-.998.50004997.50004997 0 0 0 .3086-.1485l.9981-.998c1.2122-1.1985 2.1465-2.6518 2.1465-4.3535 0-3.0586-2.7167-5.5-6-5.5zm0 1c2.7919 0 5 2.0358 5 4.5 0 1.3342-.7428 2.5488-1.8516 3.6445l-1 1a.50004997.50004997 0 0 0 .2793.8535h-4.8594a.50004997.50004997 0 0 0 .2871-.8535l-1-1a.50004997.50004997 0 0 0 -.01-.01c-1.1397-1.1082-1.8477-2.2864-1.8477-3.6406 0-2.4642 2.2081-4.5 5-4.5zm-2.5 12a.50004997.50004997 0 1 0 0 1h1.5v.5a.50004997.50004997 0 0 0 .5.5h1a.50004997.50004997 0 0 0 .5-.5v-.5h1.5a.50004997.50004997 0 1 0 0-1z"/><path d="m1025.4902 1561.0059a.50005.50005 0 0 0 -.3437.8476l.8535.8535v1.543a.50005.50005 0 1 0 1 0v-1.25h2v1.25a.50005.50005 0 1 0 1 0v-1.543l.8535-.8535a.50005.50005 0 0 0 -.707-.707l-.8535.8535h-2.586l-.8535-.8535a.50005.50005 0 0 0 -.3633-.1406z" opacity=".6"/></g><g enable-background="new" transform="matrix(100 0 0 100 -19400 -19899.805)"><path d="m207.5 201a.50005.50005 0 0 0 -.40039.19922c-1.548 2.064-2.85356 4.80197-4.58594 6.99023-1.73238 2.18827-3.81151 3.81055-7.01367 3.81055a.50005.50005 0 1 0 0 1c3.54784 0 5.96871-1.87772 7.79883-4.18945 1.7781-2.24603 3.06678-4.88493 4.4707-6.81055h.73047a.50005.50005 0 1 0 0-1z"/><path d="m197 199.99609c-.79172 0-1.70536.42738-1.98047 1.35938a.50090117.50090117 0 1 0 .96094.2832c.12417-.42064.57767-.64258 1.01953-.64258.26308 0 .50603.0889.67773.2461.17133.15683.29488.38005.29883.75976.001.2095-.10056.41777-.33789.6875s-.59584.56699-.97656.90235c-.76143.67072-1.65792 1.5571-1.66211 2.90234a.50005.50005 0 0 0 .5.50195h3a.50005.50005 0 1 0 0-1h-2.33398c.18416-.62502.58645-1.15066 1.1582-1.65429.36326-.31999.74752-.62977 1.0664-.99219.31889-.36243.58851-.81103.58594-1.35156a.50005.50005 0 0 0 0-.002c-.006-.61869-.24656-1.14755-.62304-1.49218-.37648-.34464-.8666-.50782-1.35352-.50782z"/></g></g></svg>