<svg height="1400" viewBox="0 0 1600 1400" width="1600" xmlns="http://www.w3.org/2000/svg" xmlns:inkscape="http://www.inkscape.org/namespaces/inkscape" xmlns:sodipodi="http://sodipodi.sourceforge.net/DTD/sodipodi-0.dtd"><sodipodi:namedview pagecolor="#303030" showgrid="true"><inkscape:grid id="grid5" units="px" spacingx="100" spacingy="100" color="#4772b3" opacity="0.2" visible="true" /></sodipodi:namedview><g fill="#fff"><g enable-background="new" transform="translate(-233 -365)"><path d="m1028 1556c-3.2833 0-6 2.4414-6 5.5 0 1.7056.9046 3.146 2.1523 4.3594l.9942.9941a.50004997.50004997 0 0 0 .3027.1485.50004997.50004997 0 0 0 .051.998h5a.50004997.50004997 0 0 0 .045-.998.50004997.50004997 0 0 0 .3086-.1485l.9981-.998c1.2122-1.1985 2.1465-2.6518 2.1465-4.3535 0-3.0586-2.7167-5.5-6-5.5zm0 1c2.7919 0 5 2.0358 5 4.5 0 1.3342-.7428 2.5488-1.8516 3.6445l-1 1a.50004997.50004997 0 0 0 .2793.8535h-4.8594a.50004997.50004997 0 0 0 .2871-.8535l-1-1a.50004997.50004997 0 0 0 -.01-.01c-1.1397-1.1082-1.8477-2.2864-1.8477-3.6406 0-2.4642 2.2081-4.5 5-4.5zm-2.5 12a.50004997.50004997 0 1 0 0 1h1.5v.5a.50004997.50004997 0 0 0 .5.5h1a.50004997.50004997 0 0 0 .5-.5v-.5h1.5a.50004997.50004997 0 1 0 0-1z"/><path d="m1025.4902 1561.0059a.50005.50005 0 0 0 -.3437.8476l.8535.8535v1.543a.50005.50005 0 1 0 1 0v-1.25h2v1.25a.50005.50005 0 1 0 1 0v-1.543l.8535-.8535a.50005.50005 0 0 0 -.707-.707l-.8535.8535h-2.586l-.8535-.8535a.50005.50005 0 0 0 -.3633-.1406z" opacity=".6"/></g><path d="m375.5 201a.50005.50005 0 0 0 -.47852.35547c-.97912 3.26329-1.65795 6.01658-2.41406 7.89453-.37805.93897-.77714 1.65307-1.20117 2.10156-.42403.4485-.83753.64844-1.40625.64844-.81989 0-1.77194-.85368-2.74219-1.84961-.48512-.49796-.97309-1.01146-1.49609-1.41992-.52301-.40846-1.09998-.73047-1.76172-.73047h-.5a.50005.50005 0 1 0 0 1h.5c.32338 0 .70916.17799 1.14648.51953s.9074.82804 1.39649 1.33008c.97818 1.00407 2.04085 2.15039 3.45703 2.15039.83577 0 1.56694-.36242 2.13281-.96094.56587-.59851 1.00027-1.41738 1.40235-2.41601.7683-1.90825 1.43134-4.57357 2.33398-7.62305h.63086a.50005.50005 0 1 0 0-1z" transform="matrix(100 0 0 100 -36200 -19999.998)"/></g></svg>