<?xml version="1.0" encoding="UTF-8" standalone="no"?>
<svg
   height="1800"
   viewBox="0 0 1800 1800"
   width="1800"
   version="1.1"
   id="svg1"
   sodipodi:docname="key_command.svg"
   inkscape:version="1.3.2 (091e20e, 2023-11-25)"
   xmlns:inkscape="http://www.inkscape.org/namespaces/inkscape"
   xmlns:sodipodi="http://sodipodi.sourceforge.net/DTD/sodipodi-0.dtd"
   xmlns="http://www.w3.org/2000/svg"
   xmlns:svg="http://www.w3.org/2000/svg"><sodipodi:namedview pagecolor="#303030" showgrid="true"><inkscape:grid id="grid5" units="px" spacingx="100" spacingy="100" color="#4772b3" opacity="0.2" visible="true" /></sodipodi:namedview>
  <defs
     id="defs1" />
  <sodipodi:namedview
     pagecolor="#303030"
     showgrid="true"
     id="namedview1"
     bordercolor="#000000"
     borderopacity="0.25"
     inkscape:showpageshadow="2"
     inkscape:pageopacity="0.0"
     inkscape:pagecheckerboard="0"
     inkscape:deskcolor="#d1d1d1"
     inkscape:zoom="0.3535534"
     inkscape:cx="953.17992"
     inkscape:cy="806.10171"
     inkscape:window-width="1312"
     inkscape:window-height="449"
     inkscape:window-x="0"
     inkscape:window-y="38"
     inkscape:window-maximized="0"
     inkscape:current-layer="svg1">
    <inkscape:grid
       id="grid5"
       units="px"
       spacingx="100"
       spacingy="100"
       color="#4772b3"
       opacity="0.2"
       visible="true"
       originx="0"
       originy="0" />
  </sodipodi:namedview>
  <g
     id="g2"
     inkscape:label="KEY_COMMAND">
    <path
       d="m 446.90358,100.002 c -191.35112,0 -346.90085,156.042 -346.90085,348.165 v 903.666 c 0,192.123 155.54973,348.168 346.90085,348.168 h 905.90662 c 191.3511,0 347.1851,-156.045 347.1851,-348.168 V 448.167 c 0,-192.123 -155.834,-348.165 -347.1851,-348.165 z m 0,100.001 h 905.90662 c 137.8967,0 247.1894,109.711 247.1894,248.164 v 903.666 c 0,138.453 -109.2927,248.168 -247.1894,248.168 H 446.90358 c -137.89674,0 -246.90422,-109.715 -246.90422,-248.168 V 448.167 c 0,-138.453 109.00748,-248.164 246.90422,-248.164 z"
       id="path1"
       sodipodi:nodetypes="ssssssssssssssssss"
       style="fill:#ffffff;stroke-width:99.7989" />
    <path
       d="m 1180.8792,799.71554 c 120.4526,0 218.714,-59.7511 218.714,-180.4707 0,-120.7196 -98.2614,-218.9216 -218.714,-218.9216 -120.4525,0 -181.45844,98.2027 -181.04578,218.9216 l 0.27468,80.9518 -200.34276,-0.2764 v -80.6754 c 0.002,-120.7196 -60.12925,-218.9216 -180.58185,-218.9216 -120.4525,0 -218.4372,98.202 -218.4372,218.9216 0,120.7196 97.9854,181.1584 218.4372,180.7474 l 81.0916,-0.2752 -0.2765,200.10998 h -80.8151 c -120.4525,0 -218.714,61.64078 -218.714,182.36048 0,120.7196 98.2615,217.5377 218.714,217.5377 120.4526,0 180.58397,-96.8181 180.58397,-217.5377 v -82.3112 h 200.34274 l -0.27678,82.3096 c -0.40586,120.719 60.59328,217.8146 181.04578,217.8146 120.4526,0 218.4373,-97.0949 218.4373,-217.8146 0,-120.7196 -97.9847,-182.36038 -218.4373,-182.36038 h -81.0915 V 799.71554 Z m -81.0915,-180.4707 c 0,-51.7906 29.4937,-118.6111 81.0915,-119.8844 126.8827,-3.1311 186.0043,201.9432 0,201.9432 l -81.0915,-1.3837 z M 700.27509,1182.1859 c 0.1737,51.6652 -29.5951,121.1457 -81.0916,117.6704 -139.1898,-9.3933 -176.2735,-201.7424 0,-200.535 l 80.8148,0.5504 z m 0,-482.26596 h -81.0916 c -198.8913,0 -112.0134,-203.6906 0,-200.5595 51.5935,1.4422 81.0916,68.0938 81.0916,119.8844 z M 1000.1102,999.82552 H 799.76746 V 799.71554 l 200.34274,0.2752 z m 180.769,99.49578 c 174.7081,-1.1929 142.3209,199.2462 0,200.8118 -51.6104,0.5677 -81.0915,-66.2817 -81.0915,-117.9472 v -82.3111 z"
       id="path1-9"
       style="fill:#ffffff;stroke-width:62.4798"
       sodipodi:nodetypes="ssssccssssccssssccssssccsssscsssscscsssccccccssscs" />
  </g>
</svg>
