<?xml version="1.0" encoding="UTF-8" standalone="no"?>
<svg
   height="1800"
   viewBox="0 0 1800 1800"
   width="1800"
   version="1.1"
   id="svg1"
   xmlns="http://www.w3.org/2000/svg"
   xmlns:svg="http://www.w3.org/2000/svg" xmlns:inkscape="http://www.inkscape.org/namespaces/inkscape" xmlns:sodipodi="http://sodipodi.sourceforge.net/DTD/sodipodi-0.dtd"><sodipodi:namedview pagecolor="#303030" showgrid="true"><inkscape:grid id="grid5" units="px" spacingx="100" spacingy="100" color="#4772b3" opacity="0.2" visible="true" /></sodipodi:namedview>
  <defs
     id="defs1" />
  <g
     id="g1">
    <path
       d="m 31.484375,450.99731 c -1.92123,0 -3.483002,1.56042 -3.483002,3.48165 v 9.03666 c 0,1.92123 1.561772,3.48168 3.483002,3.48168 h 9.095609 c 1.92123,0 3.485856,-1.56045 3.485856,-3.48168 v -9.03666 c 0,-1.92123 -1.564626,-3.48165 -3.485856,-3.48165 z m 0,1.00001 h 9.095609 c 1.38453,0 2.481865,1.09711 2.481865,2.48164 v 9.03666 c 0,1.38453 -1.097335,2.48168 -2.481865,2.48168 h -9.095609 c -1.38453,0 -2.479002,-1.09715 -2.479002,-2.48168 v -9.03666 c 0,-1.38453 1.094472,-2.48164 2.479002,-2.48164 z"
       transform="matrix(99.598235,0,0,100,-2688.8846,-44999.729)"
       id="path1"
       style="fill:#ffffff" />
    <path
       id="path1-8"
       style="fill:#ffffff;stroke-width:1.00126;fill-opacity:0.80000001"
       d="M 446.56445 199.33398 C 308.49367 199.33398 199.34766 309.18287 199.34766 447.81055 L 199.34766 1352.6172 C 199.34766 1491.2448 308.49367 1601.0996 446.56445 1601.0996 L 1353.6152 1601.0996 C 1491.6859 1601.0996 1601.1172 1491.2448 1601.1172 1352.6172 L 1601.1172 447.81055 C 1601.1172 309.18287 1491.6859 199.33398 1353.6152 199.33398 L 446.56445 199.33398 z M 374.89062 650.12695 L 750.7832 650.12695 C 782.28108 650.15635 804.68253 669.36808 816.82422 698.43164 L 999.81445 1049.8945 L 1422.9355 1049.8945 C 1466.0948 1049.8945 1499.9746 1081.5323 1499.9746 1124.6914 C 1499.9746 1167.8505 1466.6474 1199.7598 1423.4883 1199.7598 L 950.28711 1199.7598 C 918.78924 1199.7303 893.56942 1180.7939 881.42773 1151.7305 L 699.97852 799.71484 L 374.89062 799.71484 C 331.73149 799.71484 300.06641 768.63762 300.06641 725.47852 C 300.06641 682.31943 331.73149 650.12695 374.89062 650.12695 z M 1075.2422 650.37891 L 1423.2129 650.37891 C 1466.372 650.37891 1499.6992 682.08301 1499.6992 725.24219 C 1499.6992 768.40111 1466.372 799.71484 1423.2129 799.71484 L 1075.2422 799.71484 C 1032.083 799.71484 1000.0312 768.90135 1000.0312 725.74219 C 1000.0312 682.58299 1032.083 650.37891 1075.2422 650.37891 z " />
  </g>
</svg>
