<svg id="svg1" height="1800" viewBox="0 0 1800 1800" width="1800" xmlns="http://www.w3.org/2000/svg" xmlns:inkscape="http://www.inkscape.org/namespaces/inkscape" xmlns:sodipodi="http://sodipodi.sourceforge.net/DTD/sodipodi-0.dtd"><sodipodi:namedview pagecolor="#303030" showgrid="true"><inkscape:grid id="grid5" units="px" spacingx="100" spacingy="100" color="#4772b3" opacity="0.2" visible="true" /></sodipodi:namedview><g fill="#fff" fill-rule="evenodd"><path id="path2" d="m896.00195 99.779297c-52.20131.258783-104.61725 5.626683-156.50586 16.250003-207.5544 42.4933-389.83287 165.59724-506.77539 342.25781s-159.060318 392.54235-117.09961 600.20509c41.96072 207.6627 164.59506 390.255 340.95508 507.6504 176.36003 117.3953 392.13459 160.0685 599.90433 118.6406 207.7697-41.4279 390.6761-163.5941 508.5234-339.6523 110.0716-164.4418 154.9918-363.43283 127.125-558.35942l-18.1816-89.98632c-50.0036-190.45418-168.6629-356.39214-333.9473-465.19532-132.72-87.36671-287.3941-132.586882-443.99805-131.810543zm.50977 99.992183c137.03208-.68493 272.34678 38.88194 388.50388 115.34571 140.8863 92.74238 242.8611 232.90453 288.5157 394.12304l21.2246 105.04102c20.5235 166.29627-19.0298 335.05645-112.8536 475.22465-103.1405 154.087-263.1355 260.9491-444.9765 297.207-181.84106 36.2579-370.58638-1.0695-524.93752-103.8145-154.35114-102.7449-261.62344-262.4635-298.34766-444.2109-36.72421-181.74742.11815-370.58699 102.4668-525.20117 102.34866-154.61418 261.79271-262.29794 443.44531-299.48828 45.41316-9.29758 91.28164-13.99825 136.95899-14.22657z"/><path id="path1" d="m896.50654 198.71081c137.23976-.68597 272.75946 38.94082 389.09246 115.52041 141.0998 92.88286 243.229 233.25733 288.9528 394.72004l21.2568 105.20012c20.5545 166.54817-19.0587 335.56402-113.0246 475.94452-103.2968 154.3204-263.5341 261.3444-445.6506 297.6572-182.1166 36.3128-371.14786-1.0712-525.73282-103.9718-154.58498-102.9005-262.01978-262.861-298.79964-444.8837-36.77985-182.02277.11833-371.14838 102.62204-525.99676 102.5037-154.84838 262.18929-262.69524 444.11709-299.94192 45.48196-9.31166 91.41992-14.01945 137.16647-14.24811z" opacity=".8" stroke-width="1.00152"/></g></svg>