<?xml version="1.0" encoding="UTF-8" standalone="no"?>
<svg
   height="1800"
   viewBox="0 0 1800 1800"
   width="1800"
   version="1.1"
   id="svg1"
   xmlns="http://www.w3.org/2000/svg"
   xmlns:svg="http://www.w3.org/2000/svg" xmlns:inkscape="http://www.inkscape.org/namespaces/inkscape" xmlns:sodipodi="http://sodipodi.sourceforge.net/DTD/sodipodi-0.dtd"><sodipodi:namedview pagecolor="#303030" showgrid="true"><inkscape:grid id="grid5" units="px" spacingx="100" spacingy="100" color="#4772b3" opacity="0.2" visible="true" /></sodipodi:namedview>
  <defs
     id="defs1" />
  <g
     id="KEY_COMMAND_FILLED">
    <path
       d="m 31.484375,450.99731 c -1.92123,0 -3.483002,1.56042 -3.483002,3.48165 v 9.03666 c 0,1.92123 1.561772,3.48168 3.483002,3.48168 h 9.095609 c 1.92123,0 3.485856,-1.56045 3.485856,-3.48168 v -9.03666 c 0,-1.92123 -1.564626,-3.48165 -3.485856,-3.48165 z m 0,1.00001 h 9.095609 c 1.38453,0 2.481865,1.09711 2.481865,2.48164 v 9.03666 c 0,1.38453 -1.097335,2.48168 -2.481865,2.48168 h -9.095609 c -1.38453,0 -2.479002,-1.09715 -2.479002,-2.48168 v -9.03666 c 0,-1.38453 1.094472,-2.48164 2.479002,-2.48164 z"
       transform="matrix(99.598235,0,0,100,-2688.8846,-44999.729)"
       id="path1"
       style="fill:#ffffff" />
    <path
       id="path1-8"
       style="fill:#ffffff;stroke-width:1.00126;fill-opacity:0.80000001"
       d="M 446.56445 199.33398 C 308.49367 199.33398 199.34766 309.18287 199.34766 447.81055 L 199.34766 1352.6172 C 199.34766 1491.2448 308.49367 1601.0996 446.56445 1601.0996 L 1353.6152 1601.0996 C 1491.6859 1601.0996 1601.1172 1491.2448 1601.1172 1352.6172 L 1601.1172 447.81055 C 1601.1172 309.18287 1491.6859 199.33398 1353.6152 199.33398 L 446.56445 199.33398 z M 619.18359 400.32227 C 739.63607 400.32227 799.76762 498.52466 799.76562 619.24414 L 799.76562 699.91992 L 1000.1074 700.19727 L 999.83398 619.24414 C 999.42132 498.52536 1060.4265 400.32227 1180.8789 400.32227 C 1301.3314 400.32227 1399.5938 498.52466 1399.5938 619.24414 C 1399.5938 739.96362 1301.3314 799.71484 1180.8789 799.71484 L 1099.7871 799.71484 L 1099.7871 999.82617 L 1180.8789 999.82617 C 1301.3314 999.82617 1399.3164 1061.4661 1399.3164 1182.1855 C 1399.3164 1302.9051 1301.3314 1400 1180.8789 1400 C 1060.4265 1400 999.42812 1302.9044 999.83398 1182.1855 L 1000.1094 1099.877 L 799.76758 1099.877 L 799.76758 1182.1875 C 799.76758 1302.907 739.63607 1399.7246 619.18359 1399.7246 C 498.73121 1399.7246 400.46875 1302.907 400.46875 1182.1875 C 400.46875 1061.4679 498.73121 999.82617 619.18359 999.82617 L 699.99805 999.82617 L 700.27539 799.7168 L 619.18359 799.99219 C 498.73191 800.40319 400.74609 739.96362 400.74609 619.24414 C 400.74609 498.52466 498.73121 400.32227 619.18359 400.32227 z M 619.18359 499.36133 C 507.17031 496.23023 420.29249 699.91992 619.18359 699.91992 L 700.27539 699.91992 L 700.27539 619.24414 C 700.27539 567.45359 670.77704 500.80353 619.18359 499.36133 z M 1180.8789 499.36133 C 1129.2812 500.63463 1099.7871 567.45359 1099.7871 619.24414 L 1099.7871 699.91992 L 1180.8789 701.30273 C 1366.883 701.30273 1307.7615 496.23023 1180.8789 499.36133 z M 799.76758 799.71484 L 799.76758 999.82617 L 1000.1094 999.82617 L 1000.1094 799.99023 L 799.76758 799.71484 z M 619.18359 1099.3223 C 442.91027 1098.1149 479.99393 1290.4622 619.18359 1299.8555 C 670.68004 1303.3308 700.44909 1233.8507 700.27539 1182.1855 L 699.99805 1099.8711 L 619.18359 1099.3223 z M 1180.8789 1099.3223 L 1099.7871 1099.875 L 1099.7871 1182.1855 C 1099.7871 1233.851 1129.2686 1300.7005 1180.8789 1300.1328 C 1323.1997 1298.5672 1355.5868 1098.1294 1180.8789 1099.3223 z " />
  </g>
</svg>
