<?xml version="1.0" encoding="UTF-8" standalone="no"?>
<svg
   height="1800"
   viewBox="0 0 1800 1800"
   width="1800"
   version="1.1"
   id="svg1"
   sodipodi:docname="key_menu.svg"
   inkscape:version="1.3.2 (091e20e, 2023-11-25, custom)"
   xmlns:inkscape="http://www.inkscape.org/namespaces/inkscape"
   xmlns:sodipodi="http://sodipodi.sourceforge.net/DTD/sodipodi-0.dtd"
   xmlns="http://www.w3.org/2000/svg"
   xmlns:svg="http://www.w3.org/2000/svg">
  <defs
     id="defs1" />
  <sodipodi:namedview
     pagecolor="#303030"
     showgrid="true"
     id="namedview1"
     bordercolor="#000000"
     borderopacity="0.25"
     inkscape:showpageshadow="2"
     inkscape:pageopacity="0.0"
     inkscape:pagecheckerboard="0"
     inkscape:deskcolor="#d1d1d1"
     inkscape:zoom="0.3535534"
     inkscape:cx="630.73922"
     inkscape:cy="1121.4713"
     inkscape:window-width="1920"
     inkscape:window-height="1009"
     inkscape:window-x="1912"
     inkscape:window-y="-8"
     inkscape:window-maximized="1"
     inkscape:current-layer="svg1">
    <inkscape:grid
       id="grid5"
       units="px"
       spacingx="100"
       spacingy="100"
       color="#4772b3"
       opacity="0.2"
       visible="true"
       originx="0"
       originy="0" />
  </sodipodi:namedview>
  <g
     fill="#ffffff"
     id="g1">
    <path
       d="m 31.484375,450.99731 c -1.92123,0 -3.483002,1.56042 -3.483002,3.48165 v 9.03666 c 0,1.92123 1.561772,3.48168 3.483002,3.48168 h 9.095609 c 1.92123,0 3.485856,-1.56045 3.485856,-3.48168 v -9.03666 c 0,-1.92123 -1.564626,-3.48165 -3.485856,-3.48165 z m 0,1.00001 h 9.095609 c 1.38453,0 2.481865,1.09711 2.481865,2.48164 v 9.03666 c 0,1.38453 -1.097335,2.48168 -2.481865,2.48168 h -9.095609 c -1.38453,0 -2.479002,-1.09715 -2.479002,-2.48168 v -9.03666 c 0,-1.38453 1.094472,-2.48164 2.479002,-2.48164 z"
       transform="matrix(99.598235,0,0,100,-2688.8846,-44999.729)"
       id="path1"
       sodipodi:nodetypes="ssssssssssssssssss" />
  </g>
  <path
     id="path4"
     style="fill:#ffffff;fill-rule:evenodd;stroke:none;stroke-width:50;stroke-linejoin:round;stroke-dasharray:none;stroke-opacity:1"
     d="m 1350.4095,400.00008 -900.26699,0.0297 c -38.94105,0.0281 -49.60507,11.07533 -49.66797,49.97614 l -0.16211,100.3418 c -0.0643,39.80148 10.31176,50.10479 49.24023,50.08789 l 900.84714,-0.39062 c 41.9224,-0.0182 50.0729,-12.19919 50.0019,-49.81641 l -0.1894,-100.02149 c -0.08,-42.35652 -11.358,-50.2083 -49.8028,-50.20703 z m -0.1972,400.08203 -900.26901,-0.0587 c -38.94104,0.028 -49.60312,11.16381 -49.66602,50.06461 l -0.16211,100.3418 c -0.0643,39.8014 10.31177,49.57449 49.24024,49.55756 l 900.8452,0.0512 c 41.9224,-0.018 50.0729,-12.11079 50.0019,-49.72799 l -0.1894,-100.0215 c -0.081,-42.3565 -11.3561,-50.20449 -49.8008,-50.207 z m 0,400.06249 -900.26902,-0.059 c -38.94104,0.028 -49.60312,11.1656 -49.66602,50.0664 l -0.1621,100.3418 c -0.0643,39.8016 10.31176,49.5746 49.24023,49.5576 l 900.84521,0.049 c 41.9224,-0.018 50.0749,-12.1087 50.0039,-49.726 l -0.1895,-100.0234 c -0.081,-42.3565 -11.3581,-50.2351 -49.8027,-50.2071 z"
     sodipodi:nodetypes="sccsccccsscssccccsccssccccc" />
</svg>
