<svg height="1600" viewBox="0 0 1600 1600" width="1600" xmlns="http://www.w3.org/2000/svg" xmlns:inkscape="http://www.inkscape.org/namespaces/inkscape" xmlns:sodipodi="http://sodipodi.sourceforge.net/DTD/sodipodi-0.dtd"><sodipodi:namedview pagecolor="#303030" showgrid="true"><inkscape:grid id="grid5" units="px" spacingx="100" spacingy="100" color="#4772b3" opacity="0.2" visible="true" /></sodipodi:namedview><g fill="#fff"><g enable-background="new" transform="matrix(100 0 0 100 -34099.751 -30399.86)"><path d="m352.50003 305.0003c-1.933 0-3.5 1.567-3.5 3.5s1.567 3.5 3.5 3.5 3.5-1.567 3.5-3.5-1.567-3.5-3.5-3.5zm-.5 1h1v2h2v1h-2v2h-1v-2h-2v-1h2z"/><g enable-background="new" opacity=".7" transform="matrix(0 1 -1 0 889.995 424.997)"><path d="m-109.99609 533.99609-.004 7.11133c-1.67885.25428-2.99414 1.64686-2.99414 3.39453 0 1.92568 1.57041 3.49805 3.49609 3.49805 1.92569 0 3.49805-1.57236 3.49805-3.49805 0-1.74925-1.31894-3.14219-3-3.39453l.004-7.11133zm.49804 8.00977c1.38524 0 2.49805 1.11085 2.49805 2.49609 0 1.38525-1.1128 2.49805-2.49805 2.49805-1.38524 0-2.49609-1.11281-2.49609-2.49805 0-1.38523 1.11086-2.49609 2.49609-2.49609z" opacity="1"/><path d="m-108.5 534v3h1c.27613-.00003.49997-.22387.5-.5v-2c-.00003-.27613-.22387-.49997-.5-.5z" opacity="1"/></g></g></g></svg>