<?xml version="1.0" encoding="UTF-8" standalone="no"?>
<svg
   height="1800"
   viewBox="0 0 1800 1800"
   width="1800"
   version="1.1"
   id="svg1"
   xmlns="http://www.w3.org/2000/svg"
   xmlns:svg="http://www.w3.org/2000/svg" xmlns:inkscape="http://www.inkscape.org/namespaces/inkscape" xmlns:sodipodi="http://sodipodi.sourceforge.net/DTD/sodipodi-0.dtd"><sodipodi:namedview pagecolor="#303030" showgrid="true"><inkscape:grid id="grid5" units="px" spacingx="100" spacingy="100" color="#4772b3" opacity="0.2" visible="true" /></sodipodi:namedview>
  <defs
     id="defs1" />
  <g
     id="g1">
    <path
       d="m 31.484375,450.99731 c -1.92123,0 -3.483002,1.56042 -3.483002,3.48165 v 9.03666 c 0,1.92123 1.561772,3.48168 3.483002,3.48168 h 9.095609 c 1.92123,0 3.485856,-1.56045 3.485856,-3.48168 v -9.03666 c 0,-1.92123 -1.564626,-3.48165 -3.485856,-3.48165 z m 0,1.00001 h 9.095609 c 1.38453,0 2.481865,1.09711 2.481865,2.48164 v 9.03666 c 0,1.38453 -1.097335,2.48168 -2.481865,2.48168 h -9.095609 c -1.38453,0 -2.479002,-1.09715 -2.479002,-2.48168 v -9.03666 c 0,-1.38453 1.094472,-2.48164 2.479002,-2.48164 z"
       transform="matrix(99.598235,0,0,100,-2688.8846,-44999.729)"
       id="path1"
       style="fill:#ffffff" />
    <path
       id="rect8"
       style="fill:#ffffff;stroke-width:3.77958"
       d="M 2088 923.99999 L 2088 1011.3271 L 2175.327 1011.3271 L 2175.327 923.99999 L 2088 923.99999 z M 2184.9082 923.99999 L 2184.9082 1011.3271 L 2272.2353 1011.3271 L 2272.2353 923.99999 L 2184.9082 923.99999 z M 2088 1020.9158 L 2088 1108.2428 L 2175.327 1108.2428 L 2175.327 1020.9158 L 2088 1020.9158 z M 2184.9082 1020.9158 L 2184.9082 1108.2428 L 2272.2353 1108.2428 L 2272.2353 1020.9158 L 2184.9082 1020.9158 z "
       transform="matrix(5.4250961,0,0,5.4250961,-10927.495,-4612.4352)" />
  </g>
</svg>
