<?xml version="1.0" encoding="UTF-8" standalone="no"?>
<svg
   height="1800"
   viewBox="0 0 1800 1800"
   width="1800"
   version="1.1"
   id="svg1"
   xmlns="http://www.w3.org/2000/svg"
   xmlns:svg="http://www.w3.org/2000/svg" xmlns:inkscape="http://www.inkscape.org/namespaces/inkscape" xmlns:sodipodi="http://sodipodi.sourceforge.net/DTD/sodipodi-0.dtd"><sodipodi:namedview pagecolor="#303030" showgrid="true"><inkscape:grid id="grid5" units="px" spacingx="100" spacingy="100" color="#4772b3" opacity="0.2" visible="true" /></sodipodi:namedview>
  <defs
     id="defs1" />
  <g
     id="KEY_RETURN">
    <path
       d="m 446.90358,100.002 c -191.35112,0 -346.90085,156.042 -346.90085,348.165 v 903.666 c 0,192.123 155.54973,348.168 346.90085,348.168 h 905.90662 c 191.3511,0 347.1851,-156.045 347.1851,-348.168 V 448.167 c 0,-192.123 -155.834,-348.165 -347.1851,-348.165 z m 0,100.001 h 905.90662 c 137.8967,0 247.1894,109.711 247.1894,248.164 v 903.666 c 0,138.453 -109.2927,248.168 -247.1894,248.168 H 446.90358 c -137.89674,0 -246.90422,-109.715 -246.90422,-248.168 V 448.167 c 0,-138.453 109.00748,-248.164 246.90422,-248.164 z"
       id="path1"
       style="fill:#ffffff;stroke-width:99.7989" />
    <path
       style="color:#000000;fill:#ffffff;stroke-width:150;stroke-linecap:round;stroke-linejoin:round;-inkscape-stroke:none"
       d="m 1375.124,500.38497 c -41.4024,0.0134 -74.2552,33.57332 -74.2686,74.97572 v 84.12011 c 0,110.44041 -4.5822,155.23081 -14.059,173.83071 -11.7187,23.00151 -30.4058,41.68864 -53.4073,53.40736 -18.6011,9.47733 -63.3877,13.35184 -173.8307,13.35184 H 605.08168 L 726.89099,778.26143 c 29.27493,-29.28688 29.27493,-76.75761 0,-106.04446 -29.28685,-29.27493 -76.75758,-29.27493 -106.04443,0 L 372.53931,922.0242 c -14.05765,14.06477 -21.95424,33.13669 -21.95351,53.02224 -7.3e-4,19.88555 7.89586,38.95746 21.95351,53.02226 l 247.89303,249.393 c 29.28685,29.275 76.75758,29.275 106.04443,0 29.27498,-29.2868 29.27498,-76.7576 0,-106.0445 l -121.39509,-121.395 h 454.47672 c 110.443,0 176.2294,3.8552 242.0021,-29.6565 51.21,-26.09037 92.7924,-67.67273 118.8827,-118.8828 33.512,-65.77375 30.3637,-131.56169 30.3637,-242.0021 v -84.12011 c -0.013,-41.4024 -34.2805,-74.96233 -75.6829,-74.97572 z"
       id="path1-7" />
  </g>
</svg>
