<svg id="svg1" height="1800" viewBox="0 0 2600 1800" width="2600" xmlns="http://www.w3.org/2000/svg" xmlns:inkscape="http://www.inkscape.org/namespaces/inkscape" xmlns:sodipodi="http://sodipodi.sourceforge.net/DTD/sodipodi-0.dtd"><sodipodi:namedview pagecolor="#303030" showgrid="true"><inkscape:grid id="grid5" units="px" spacingx="100" spacingy="100" color="#4772b3" opacity="0.2" visible="true" /></sodipodi:namedview><g fill="#fff"><g id="g1"><path id="path1" d="m36.032648 450.99231-8.026255 8.00165 8.026255 8.00334h12.579581c1.92123 0 3.485856-1.56045 3.485856-3.48168v-9.03666c0-1.92123-1.564626-3.48165-3.485856-3.48165zm.579886 1.00622c16.960322 0 7.883477-.001 11.999695-.001 1.38453 0 2.481865 1.09711 2.481865 2.48164v9.03666c0 1.38453-1.097335 2.48168-2.481865 2.48168l-12.002027.004-7.028501-6.99981z" transform="matrix(99.598235 0 0 100 -2688.8846 -44999.729)"/></g><path id="path2" d="m1882.7318 475.59484 141.3358 141.6642-282.8358 282.33579 282.75 283.24997-141.5 141-282.5001-282.5-282.9999 282.5-141.5-141 282.75-283.24999-282.4993-282.49927 141.5-141.5 282.4993 282.9993z" fill-rule="evenodd"/></g></svg>