<?xml version="1.0" encoding="UTF-8" standalone="no"?>
<svg
   height="1800"
   viewBox="0 0 1800 1800"
   width="1800"
   version="1.1"
   id="svg1"
   xmlns="http://www.w3.org/2000/svg"
   xmlns:svg="http://www.w3.org/2000/svg" xmlns:inkscape="http://www.inkscape.org/namespaces/inkscape" xmlns:sodipodi="http://sodipodi.sourceforge.net/DTD/sodipodi-0.dtd"><sodipodi:namedview pagecolor="#303030" showgrid="true"><inkscape:grid id="grid5" units="px" spacingx="100" spacingy="100" color="#4772b3" opacity="0.2" visible="true" /></sodipodi:namedview>
  <defs
     id="defs1" />
  <g
     id="g1">
    <path
       d="m 31.484375,450.99731 c -1.92123,0 -3.483002,1.56042 -3.483002,3.48165 v 9.03666 c 0,1.92123 1.561772,3.48168 3.483002,3.48168 h 9.095609 c 1.92123,0 3.485856,-1.56045 3.485856,-3.48168 v -9.03666 c 0,-1.92123 -1.564626,-3.48165 -3.485856,-3.48165 z m 0,1.00001 h 9.095609 c 1.38453,0 2.481865,1.09711 2.481865,2.48164 v 9.03666 c 0,1.38453 -1.097335,2.48168 -2.481865,2.48168 h -9.095609 c -1.38453,0 -2.479002,-1.09715 -2.479002,-2.48168 v -9.03666 c 0,-1.38453 1.094472,-2.48164 2.479002,-2.48164 z"
       transform="matrix(99.598235,0,0,100,-2688.8846,-44999.729)"
       id="path1"
       style="fill:#ffffff" />
    <path
       id="path1-8"
       style="fill:#ffffff;stroke-width:1.00126;fill-opacity:0.80000001"
       d="M 446.56445 199.33398 C 308.49367 199.33398 199.34766 309.18287 199.34766 447.81055 L 199.34766 1352.6172 C 199.34766 1491.2448 308.49367 1601.0996 446.56445 1601.0996 L 1353.6152 1601.0996 C 1491.6859 1601.0996 1601.1172 1491.2448 1601.1172 1352.6172 L 1601.1172 447.81055 C 1601.1172 309.18287 1491.6859 199.33398 1353.6152 199.33398 L 446.56445 199.33398 z M 1375.123 500.38477 C 1416.5254 500.39816 1450.7932 533.95897 1450.8066 575.36133 L 1450.8066 659.48047 C 1450.8066 769.92076 1453.9553 835.70874 1420.4434 901.48242 C 1394.353 952.69244 1352.7706 994.27492 1301.5605 1020.3652 C 1235.788 1053.8769 1170.0015 1050.0215 1059.5586 1050.0215 L 605.08203 1050.0215 L 726.47656 1171.418 C 755.75151 1200.7048 755.75151 1248.1741 726.47656 1277.4609 C 697.18974 1306.7359 649.71846 1306.7359 620.43164 1277.4609 L 372.53906 1028.0684 C 358.48143 1014.0036 350.58521 994.93241 350.58594 975.04688 C 350.58521 955.16134 358.48143 936.0882 372.53906 922.02344 L 620.8457 672.2168 C 650.13252 642.94189 697.6038 642.94189 726.89062 672.2168 C 756.16553 701.50362 756.16553 748.97487 726.89062 778.26172 L 605.08203 900.07031 L 1059.5586 900.07031 C 1170.0015 900.07031 1214.7877 896.19607 1233.3887 886.71875 C 1256.3902 875.00004 1275.0782 856.31204 1286.7969 833.31055 C 1296.2737 814.71067 1300.8555 769.92076 1300.8555 659.48047 L 1300.8555 575.36133 C 1300.8689 533.95897 1333.7207 500.39816 1375.123 500.38477 z " />
  </g>
</svg>
