<?xml version="1.0" encoding="UTF-8" standalone="no"?>
<svg
   height="1800"
   viewBox="0 0 1800 1800"
   width="1800"
   version="1.1"
   id="svg1"
   xmlns="http://www.w3.org/2000/svg"
   xmlns:svg="http://www.w3.org/2000/svg" xmlns:inkscape="http://www.inkscape.org/namespaces/inkscape" xmlns:sodipodi="http://sodipodi.sourceforge.net/DTD/sodipodi-0.dtd"><sodipodi:namedview pagecolor="#303030" showgrid="true"><inkscape:grid id="grid5" units="px" spacingx="100" spacingy="100" color="#4772b3" opacity="0.2" visible="true" /></sodipodi:namedview>
  <defs
     id="defs1" />
  <g
     id="g1">
    <path
       d="m 31.484375,450.99731 c -1.92123,0 -3.483002,1.56042 -3.483002,3.48165 v 9.03666 c 0,1.92123 1.561772,3.48168 3.483002,3.48168 h 9.095609 c 1.92123,0 3.485856,-1.56045 3.485856,-3.48168 v -9.03666 c 0,-1.92123 -1.564626,-3.48165 -3.485856,-3.48165 z m 0,1.00001 h 9.095609 c 1.38453,0 2.481865,1.09711 2.481865,2.48164 v 9.03666 c 0,1.38453 -1.097335,2.48168 -2.481865,2.48168 h -9.095609 c -1.38453,0 -2.479002,-1.09715 -2.479002,-2.48168 v -9.03666 c 0,-1.38453 1.094472,-2.48164 2.479002,-2.48164 z"
       transform="matrix(99.598235,0,0,100,-2688.8846,-44999.729)"
       id="path1"
       style="fill:#ffffff" />
    <path
       id="path1-7"
       style="fill:#ffffff;stroke-width:2.02428;color:#000000;stroke-linecap:round;stroke-linejoin:round;-inkscape-stroke:none"
       d="M 22.290404 3.8386852 L 22.290404 12.274275 L 24.240568 12.274275 L 24.26007 3.8386852 L 22.290404 3.8386852 z M 30.782456 4.089644 C 30.500641 4.089644 30.218815 4.1804033 30.003761 4.3619224 L 26.513157 7.291082 C 26.306708 7.4654993 26.190721 7.702029 26.190733 7.9486297 C 26.190721 8.1952303 26.306708 8.4317271 26.513157 8.6061443 L 29.958702 11.732618 C 30.388809 12.095656 31.085947 12.095656 31.516053 11.732618 C 31.945986 11.369431 31.945986 10.780742 31.516053 10.417555 L 29.718626 8.8826076 L 40.766308 8.8826076 C 41.139031 8.8826077 41.786221 8.7355289 41.786221 7.9787144 C 41.786221 7.2932148 41.114838 7.2058862 40.776059 7.2002017 L 29.718626 7.2002017 L 31.561151 5.6769847 C 31.991082 5.3137981 31.991082 4.7251086 31.561151 4.3619224 C 31.346097 4.1804033 31.064271 4.089644 30.782456 4.089644 z M 39.857234 12.271474 L 39.837732 20.70703 L 41.807399 20.70703 L 41.807399 12.271474 L 39.857234 12.271474 z M 33.360444 12.54082 C 33.078629 12.54082 32.796802 12.631579 32.581749 12.813098 C 32.151817 13.176285 32.151817 13.764974 32.581749 14.12816 L 34.379176 15.663108 L 23.331495 15.663108 C 22.958771 15.663108 22.311581 15.81022 22.311581 16.567034 C 22.311581 17.252534 22.982964 17.339829 23.321744 17.345514 L 34.379176 17.345514 L 32.536652 18.868731 C 32.10672 19.231918 32.10672 19.820607 32.536652 20.183793 C 32.966759 20.546832 33.663934 20.546832 34.094041 20.183793 L 37.584645 17.254634 C 37.791095 17.080216 37.907082 16.84372 37.90707 16.597119 C 37.907082 16.350518 37.791095 16.113989 37.584645 15.939571 L 34.139139 12.813098 C 33.924085 12.631579 33.642259 12.54082 33.360444 12.54082 z "
       transform="matrix(51.277726,0,0,59.27268,-743.00122,173.47084)" />
  </g>
</svg>
