<?xml version="1.0" encoding="UTF-8" standalone="no"?>
<svg
   height="1800"
   viewBox="0 0 1800 1800"
   width="1800"
   version="1.1"
   id="svg1"
   xmlns="http://www.w3.org/2000/svg"
   xmlns:svg="http://www.w3.org/2000/svg" xmlns:inkscape="http://www.inkscape.org/namespaces/inkscape" xmlns:sodipodi="http://sodipodi.sourceforge.net/DTD/sodipodi-0.dtd"><sodipodi:namedview pagecolor="#303030" showgrid="true"><inkscape:grid id="grid5" units="px" spacingx="100" spacingy="100" color="#4772b3" opacity="0.2" visible="true" /></sodipodi:namedview>
  <defs
     id="defs1" />
  <g
     id="g1">
    <path
       d="m 31.484375,450.99731 c -1.92123,0 -3.483002,1.56042 -3.483002,3.48165 v 9.03666 c 0,1.92123 1.561772,3.48168 3.483002,3.48168 h 9.095609 c 1.92123,0 3.485856,-1.56045 3.485856,-3.48168 v -9.03666 c 0,-1.92123 -1.564626,-3.48165 -3.485856,-3.48165 z m 0,1.00001 h 9.095609 c 1.38453,0 2.481865,1.09711 2.481865,2.48164 v 9.03666 c 0,1.38453 -1.097335,2.48168 -2.481865,2.48168 h -9.095609 c -1.38453,0 -2.479002,-1.09715 -2.479002,-2.48168 v -9.03666 c 0,-1.38453 1.094472,-2.48164 2.479002,-2.48164 z"
       transform="matrix(99.598235,0,0,100,-2688.8846,-44999.729)"
       id="path1"
       style="fill:#ffffff" />
    <path
       id="path1-8"
       style="fill:#ffffff;stroke-width:1.00126;fill-opacity:0.80000001"
       d="M 446.56445 199.33398 C 308.49367 199.33398 199.34766 309.18287 199.34766 447.81055 L 199.34766 1352.6172 C 199.34766 1491.2448 308.49367 1601.0996 446.56445 1601.0996 L 1353.6152 1601.0996 C 1491.6859 1601.0996 1601.1172 1491.2448 1601.1172 1352.6172 L 1601.1172 447.81055 C 1601.1172 309.18287 1491.6859 199.33398 1353.6152 199.33398 L 446.56445 199.33398 z M 400 401 L 501 401 L 500 901 L 400 901 L 400 401 z M 835.45312 415.875 C 849.90394 415.875 864.35534 421.25456 875.38281 432.01367 C 897.42867 453.54067 897.42867 488.43392 875.38281 509.96094 L 780.90234 600.24609 L 1347.9023 600.24609 C 1365.2741 600.58303 1399.7012 605.75927 1399.7012 646.39062 C 1399.7012 691.249 1366.5147 699.9668 1347.4023 699.9668 L 780.90234 699.9668 L 873.07031 790.94727 C 895.11628 812.47431 895.11628 847.36749 873.07031 868.89453 C 851.01548 890.41274 815.26778 890.41274 793.21289 868.89453 L 616.5332 683.58008 C 605.94698 673.24191 599.99938 659.22409 600 644.60742 C 599.99938 629.99075 605.94698 615.97098 616.5332 605.63281 L 795.52344 432.01367 C 806.55091 421.25456 821.00231 415.875 835.45312 415.875 z M 1300.7871 900.83398 L 1400.7871 900.83398 L 1400.7871 1400.832 L 1299.7871 1400.832 L 1300.7871 900.83398 z M 967.64648 916.79883 C 982.0973 916.79883 996.5487 922.17839 1007.5762 932.9375 L 1184.2539 1118.252 C 1194.8402 1128.5902 1200.7877 1142.6099 1200.7871 1157.2266 C 1200.7877 1171.8433 1194.8402 1185.861 1184.2539 1196.1992 L 1005.2637 1369.8184 C 983.20879 1391.3366 947.45918 1391.3366 925.4043 1369.8184 C 903.35838 1348.2914 903.35838 1313.3981 925.4043 1291.8711 L 1019.8848 1201.5859 L 452.88477 1201.5859 C 435.51291 1201.249 401.08594 1196.0747 401.08594 1155.4434 C 401.08594 1110.585 434.27235 1101.8652 453.38477 1101.8652 L 1019.8848 1101.8652 L 927.7168 1010.8848 C 905.67088 989.35778 905.67088 954.46455 927.7168 932.9375 C 938.74421 922.17839 953.19567 916.79883 967.64648 916.79883 z " />
  </g>
</svg>
