<?xml version="1.0" encoding="UTF-8" standalone="no"?>
<svg
   height="1800"
   viewBox="0 0 1800 1800"
   width="1800"
   version="1.1"
   id="svg1"
   sodipodi:docname="key_shift.svg"
   xml:space="preserve"
   inkscape:version="1.3.2 (091e20e, 2023-11-25, custom)"
   xmlns:inkscape="http://www.inkscape.org/namespaces/inkscape"
   xmlns:sodipodi="http://sodipodi.sourceforge.net/DTD/sodipodi-0.dtd"
   xmlns="http://www.w3.org/2000/svg"
   xmlns:svg="http://www.w3.org/2000/svg"><defs
     id="defs1" /><sodipodi:namedview
     pagecolor="#073f3c"
     showgrid="true"
     id="namedview1"
     bordercolor="#000000"
     borderopacity="0.25"
     inkscape:showpageshadow="2"
     inkscape:pageopacity="0.0"
     inkscape:pagecheckerboard="0"
     inkscape:deskcolor="#d1d1d1"
     inkscape:zoom="0.26669253"
     inkscape:cx="266.22418"
     inkscape:cy="898.03791"
     inkscape:window-width="1920"
     inkscape:window-height="1009"
     inkscape:window-x="1912"
     inkscape:window-y="-8"
     inkscape:window-maximized="1"
     inkscape:current-layer="svg1"
     showguides="true"><inkscape:grid
       id="grid5"
       units="px"
       spacingx="50"
       spacingy="50"
       color="#4772b3"
       opacity="0.2"
       visible="true"
       originx="0"
       originy="0"
       empspacing="2" /></sodipodi:namedview><g
     id="g2"
     transform="matrix(12.467986,0,0,12.464937,1320.2753,-785.84062)"
     style="fill:#ffffff;fill-opacity:1"><path
       d="m -25.683279,74.626271 c -4.763505,-4.754888 -11.429476,-4.750014 -16.058382,-0.142961 l -53.705667,53.45212 c -4.971712,4.94825 -1.523831,15.31529 4.084739,15.32468 l 13.56107,0.0227 c 2.645399,0.004 3.96329,1.14044 3.9697,3.97372 l 0.06278,27.75038 c 0.03316,14.65826 -0.07318,24.42133 16.000057,24.421 l 48.1253755,-0.001 c 16.0775186,-3.4e-4 16.089285,-10.02945 16.0621447,-24.15618 l -0.053859,-28.03397 c -0.00516,-2.68487 1.0092566,-4.00455 4.0075438,-3.99701 l 13.363106,0.0336 c 5.784713,0.0145 9.314969,-10.01974 4.072176,-15.25305 z M -1.5576726,175.45807 c -0.1016219,11.73412 0.040504,15.94652 -12.1147894,15.94652 h -40.25719 c -12.333562,0 -11.549723,-4.07533 -11.904873,-16.05426 l 0.03836,-32.16491 c 0.0052,-4.33348 -3.176402,-7.92303 -8.040291,-7.92427 l -11.802624,-0.003 c -4.129012,-0.001 -3.772884,-2.17478 -2.010777,-3.92528 l 48.895713,-48.573612 c 5.158669,-5.124687 5.482955,-4.617169 10.150274,0.05419 l 48.376803,48.418682 c 1.473459,1.47473 3.121303,4.0331 -1.671324,4.02984 l -11.7436716,-0.008 c -4.9812408,-0.003 -7.9748377,2.99718 -7.9820861,8.03481 z"
       fill="#000000"
       id="path1-3"
       style="fill:#ffffff;fill-opacity:1;stroke-width:2.13948"
       sodipodi:nodetypes="ssssssssssssssscsscssssssssscc" /></g></svg>
