<?xml version="1.0" encoding="UTF-8" standalone="no"?>
<svg
   height="1800"
   viewBox="0 0 1800 1800"
   width="1800"
   version="1.1"
   id="svg1"
   sodipodi:docname="key_menu_filled.svg"
   inkscape:version="1.3.2 (091e20e, 2023-11-25, custom)"
   xmlns:inkscape="http://www.inkscape.org/namespaces/inkscape"
   xmlns:sodipodi="http://sodipodi.sourceforge.net/DTD/sodipodi-0.dtd"
   xmlns="http://www.w3.org/2000/svg"
   xmlns:svg="http://www.w3.org/2000/svg">
  <defs
     id="defs1" />
  <sodipodi:namedview
     pagecolor="#303030"
     showgrid="true"
     id="namedview1"
     bordercolor="#000000"
     borderopacity="0.25"
     inkscape:showpageshadow="2"
     inkscape:pageopacity="0.0"
     inkscape:pagecheckerboard="0"
     inkscape:deskcolor="#d1d1d1"
     inkscape:zoom="0.3535534"
     inkscape:cx="630.73922"
     inkscape:cy="1121.4713"
     inkscape:window-width="1920"
     inkscape:window-height="1009"
     inkscape:window-x="1912"
     inkscape:window-y="-8"
     inkscape:window-maximized="1"
     inkscape:current-layer="svg1">
    <inkscape:grid
       id="grid5"
       units="px"
       spacingx="100"
       spacingy="100"
       color="#4772b3"
       opacity="0.2"
       visible="true"
       originx="0"
       originy="0" />
  </sodipodi:namedview>
  <g
     fill="#ffffff"
     id="g1">
    <path
       d="m 31.484375,450.99731 c -1.92123,0 -3.483002,1.56042 -3.483002,3.48165 v 9.03666 c 0,1.92123 1.561772,3.48168 3.483002,3.48168 h 9.095609 c 1.92123,0 3.485856,-1.56045 3.485856,-3.48168 v -9.03666 c 0,-1.92123 -1.564626,-3.48165 -3.485856,-3.48165 z m 0,1.00001 h 9.095609 c 1.38453,0 2.481865,1.09711 2.481865,2.48164 v 9.03666 c 0,1.38453 -1.097335,2.48168 -2.481865,2.48168 h -9.095609 c -1.38453,0 -2.479002,-1.09715 -2.479002,-2.48168 v -9.03666 c 0,-1.38453 1.094472,-2.48164 2.479002,-2.48164 z"
       transform="matrix(99.598235,0,0,100,-2688.8846,-44999.729)"
       id="path1"
       sodipodi:nodetypes="ssssssssssssssssss" />
  </g>
  <path
     id="path1-8"
     style="fill:#ffffff;stroke-width:1.00126;fill-opacity:0.80000001"
     d="M 446.56445 199.33398 C 308.49367 199.33398 199.34766 309.18287 199.34766 447.81055 L 199.34766 1352.6172 C 199.34766 1491.2448 308.49367 1601.0996 446.56445 1601.0996 L 1353.6152 1601.0996 C 1491.6859 1601.0996 1601.1172 1491.2448 1601.1172 1352.6172 L 1601.1172 447.81055 C 1601.1172 309.18287 1491.6859 199.33398 1353.6152 199.33398 L 446.56445 199.33398 z M 1350.4102 400 C 1388.8549 399.99873 1400.1329 407.85055 1400.2129 450.20703 L 1400.4023 550.22852 C 1400.4733 587.8457 1392.3227 600.02672 1350.4004 600.04492 L 449.55273 600.43555 C 410.6243 600.45245 400.2482 590.1491 400.3125 550.34766 L 400.47461 450.00586 C 400.53751 411.10509 411.20157 400.0574 450.14258 400.0293 L 1350.4102 400 z M 449.94336 800.02344 L 1350.2129 800.08203 C 1388.6576 800.08454 1399.9327 807.9326 1400.0137 850.28906 L 1400.2031 950.31055 C 1400.2741 987.92771 1392.1235 1000.0211 1350.2012 1000.0391 L 449.35547 999.98828 C 410.42704 1000.0052 400.05093 990.23105 400.11523 950.42969 L 400.27734 850.08789 C 400.34024 811.18713 411.00236 800.05144 449.94336 800.02344 z M 449.94336 1200.0859 L 1350.2129 1200.1445 C 1388.6575 1200.1165 1399.9346 1207.9951 1400.0156 1250.3516 L 1400.2051 1350.375 C 1400.2761 1387.9923 1392.1235 1400.0816 1350.2012 1400.0996 L 449.35547 1400.0508 C 410.42704 1400.0678 400.05093 1390.2957 400.11523 1350.4941 L 400.27734 1250.1523 C 400.34024 1211.2516 411.00236 1200.1139 449.94336 1200.0859 z " />
</svg>
