<svg height="1100" viewBox="0 0 1100 1100" width="1100" xmlns="http://www.w3.org/2000/svg" xmlns:inkscape="http://www.inkscape.org/namespaces/inkscape" xmlns:sodipodi="http://sodipodi.sourceforge.net/DTD/sodipodi-0.dtd"><sodipodi:namedview pagecolor="#303030" showgrid="true"><inkscape:grid id="grid5" units="px" spacingx="100" spacingy="100" color="#4772b3" opacity="0.2" visible="true" /></sodipodi:namedview><g fill="#fff"><path d="m370.49414 224.00195a.50005.50005 0 0 0 -.34766.14649l-4 3.99804a.50005.50005 0 0 0 0 .70704l4 4a.50005.50005 0 0 0 .70508 0l3.99219-3.97852a.50005.50005 0 0 0 .002-.70703l-3.99218-4.01953a.50005.50005 0 0 0 -.35938-.14649zm.004 1.20899 3.28711 3.30859-3.28525 3.27344-3.29297-3.29297z" transform="matrix(99.99999677027 0 0 99.99999677027 -36499.560507113 -22300.04200165992)"/></g></svg>