<svg height="1600" viewBox="0 0 1600 1600" width="1600" xmlns="http://www.w3.org/2000/svg" xmlns:inkscape="http://www.inkscape.org/namespaces/inkscape" xmlns:sodipodi="http://sodipodi.sourceforge.net/DTD/sodipodi-0.dtd"><sodipodi:namedview pagecolor="#303030" showgrid="true"><inkscape:grid id="grid5" units="px" spacingx="100" spacingy="100" color="#4772b3" opacity="0.2" visible="true" /></sodipodi:namedview><g fill="#fff"><g enable-background="new" transform="translate(-233 -365)"><path d="m1028 1556c-3.2833 0-6 2.4414-6 5.5 0 1.7056.9046 3.146 2.1523 4.3594l.9942.9941a.50004997.50004997 0 0 0 .3027.1485.50004997.50004997 0 0 0 .051.998h5a.50004997.50004997 0 0 0 .045-.998.50004997.50004997 0 0 0 .3086-.1485l.9981-.998c1.2122-1.1985 2.1465-2.6518 2.1465-4.3535 0-3.0586-2.7167-5.5-6-5.5zm0 1c2.7919 0 5 2.0358 5 4.5 0 1.3342-.7428 2.5488-1.8516 3.6445l-1 1a.50004997.50004997 0 0 0 .2793.8535h-4.8594a.50004997.50004997 0 0 0 .2871-.8535l-1-1a.50004997.50004997 0 0 0 -.01-.01c-1.1397-1.1082-1.8477-2.2864-1.8477-3.6406 0-2.4642 2.2081-4.5 5-4.5zm-2.5 12a.50004997.50004997 0 1 0 0 1h1.5v.5a.50004997.50004997 0 0 0 .5.5h1a.50004997.50004997 0 0 0 .5-.5v-.5h1.5a.50004997.50004997 0 1 0 0-1z"/><path d="m1025.4902 1561.0059a.50005.50005 0 0 0 -.3437.8476l.8535.8535v1.543a.50005.50005 0 1 0 1 0v-1.25h2v1.25a.50005.50005 0 1 0 1 0v-1.543l.8535-.8535a.50005.50005 0 0 0 -.707-.707l-.8535.8535h-2.586l-.8535-.8535a.50005.50005 0 0 0 -.3633-.1406z" opacity=".6"/></g><g enable-background="new" transform="matrix(100 0 0 100 11499.747 -53200)"><path d="m-115 532h16.005051v16h-16.005051z" opacity="0"/><path d="m386.48633 221c-.27614.004-.49651.23167-.49219.50781v1 6.55664c-1.13392.23355-1.99414 1.24286-1.99414 2.44336 0 1.372 1.12214 2.49414 2.49414 2.49414s2.49414-1.12214 2.49414-2.49414c0-1.20116-.8593-2.21054-1.99414-2.44336v-6.55664-1c.004-.28226-.22555-.51223-.50781-.50781zm1.00781 1.00781v3h1c.27613-.00003.49997-.22387.5-.5v-2c-.00003-.27613-.22387-.49997-.5-.5zm-1 8.00586c.83156 0 1.49414.66258 1.49414 1.49414s-.66258 1.49414-1.49414 1.49414-1.49414-.66258-1.49414-1.49414.66258-1.49414 1.49414-1.49414z" transform="translate(-497.995 311.993)"/><path d="m-97.896484 538.39648-1.707032 1.70704.75.75c.195265.19518.511767.19518.707032 0l.52539-.5254.47461-.4746c.19519-.19527.19519-.51177 0-.70704zm-.614086-1.39969a.50005.50005 0 0 0 -.34376.15039l-4.4121 4.41015c-.38435-.27257-.83195-.45926-1.31446-.52734a.50005.50005 0 0 0 -.0996-.006.50005.50005 0 0 0 -.041.99609c.71727.10121 1.32147.58072 1.58398 1.25586.26252.67514.14019 1.43694-.32031 1.9961-.46051.55917-1.18354.82547-1.89649.69726a.50014796.50014796 0 1 0 -.17773.98438c1.06733.19194 2.15825-.20977 2.84766-1.04688.6894-.83711.87347-1.98341.48047-2.99414-.0911-.23424-.21129-.45079-.35352-.65039l4.41016-4.4082a.50005.50005 0 0 0 -.36328-.85742z" opacity=".7" transform="translate(-3)"/></g></g></svg>