<svg height="1600" viewBox="0 0 1600 1600" width="1600" xmlns="http://www.w3.org/2000/svg" xmlns:inkscape="http://www.inkscape.org/namespaces/inkscape" xmlns:sodipodi="http://sodipodi.sourceforge.net/DTD/sodipodi-0.dtd"><sodipodi:namedview pagecolor="#303030" showgrid="true"><inkscape:grid id="grid5" units="px" spacingx="100" spacingy="100" color="#4772b3" opacity="0.2" visible="true" /></sodipodi:namedview><g fill="#fff"><g enable-background="new" transform="matrix(100 0 0 100 11499.747 -53200)"><path d="m-115 532h16.005051v16h-16.005051z" opacity="0"/><path d="m386.48633 221c-.27614.004-.49651.23167-.49219.50781v1 6.55664c-1.13392.23355-1.99414 1.24286-1.99414 2.44336 0 1.372 1.12214 2.49414 2.49414 2.49414s2.49414-1.12214 2.49414-2.49414c0-1.20116-.8593-2.21054-1.99414-2.44336v-6.55664-1c.004-.28226-.22555-.51223-.50781-.50781zm1.00781 1.00781v3h1c.27613-.00003.49997-.22387.5-.5v-2c-.00003-.27613-.22387-.49997-.5-.5zm-1 8.00586c.83156 0 1.49414.66258 1.49414 1.49414s-.66258 1.49414-1.49414 1.49414-1.49414-.66258-1.49414-1.49414.66258-1.49414 1.49414-1.49414z" transform="translate(-497.995 311.993)"/><path d="m-97.896484 538.39648-1.707032 1.70704.75.75c.195265.19518.511767.19518.707032 0l.52539-.5254.47461-.4746c.19519-.19527.19519-.51177 0-.70704zm-.614086-1.39969a.50005.50005 0 0 0 -.34376.15039l-4.4121 4.41015c-.38435-.27257-.83195-.45926-1.31446-.52734a.50005.50005 0 0 0 -.0996-.006.50005.50005 0 0 0 -.041.99609c.71727.10121 1.32147.58072 1.58398 1.25586.26252.67514.14019 1.43694-.32031 1.9961-.46051.55917-1.18354.82547-1.89649.69726a.50014796.50014796 0 1 0 -.17773.98438c1.06733.19194 2.15825-.20977 2.84766-1.04688.6894-.83711.87347-1.98341.48047-2.99414-.0911-.23424-.21129-.45079-.35352-.65039l4.41016-4.4082a.50005.50005 0 0 0 -.36328-.85742z" opacity=".7" transform="translate(-3)"/></g></g></svg>