<svg height="1600" viewBox="0 0 1600 1600" width="1600" xmlns="http://www.w3.org/2000/svg" xmlns:inkscape="http://www.inkscape.org/namespaces/inkscape" xmlns:sodipodi="http://sodipodi.sourceforge.net/DTD/sodipodi-0.dtd"><sodipodi:namedview pagecolor="#303030" showgrid="true"><inkscape:grid id="grid5" units="px" spacingx="100" spacingy="100" color="#4772b3" opacity="0.2" visible="true" /></sodipodi:namedview><g fill="#fff"><path d="m154.49904 493.99904a.50005.50005 0 0 0 -.5.5v3a.50005.50005 0 0 0 .5.5h.86133l-.82812 3.30664a.50005.50005 0 0 0 -.002.006.50005.50005 0 0 0 -.0352.14258.50005.50005 0 0 0 0 .004l-1.48047 5.91993a.50005.50005 0 0 0 .48437.62304h4.92383a.50005.50005 0 0 0 .14453 0h4.90821a.50005.50005 0 0 0 .48437-.3789l3.03711-11.99024a.50005.50005 0 0 0 -.48437-.62109l-4.91016-.006a.50005.50005 0 0 0 -.20117 0l-3.40235-.006v-.5a.50005.50005 0 0 0 -.5-.5zm.5 1h2v2h-.92187a.50005.50005 0 0 0 -.14453 0h-.9336zm3 1 2.85938.004-1.24805 4.99609h-3.96875l.75-3h1.10742a.50005.50005 0 0 0 .5-.5zm3.89063.006 3.98047.006-1.26367 4.98828h-3.96485zm-6.49805 5.99414h3.96875l-1.25195 5.00195h-3.9668zm5 0h3.96094l-1.26758 5.00195h-3.94336z" transform="matrix(100 0 0 100 -15200.554 -49300.274)"/></g></svg>