<svg height="1600" viewBox="0 0 1600 1600" width="1600" xmlns="http://www.w3.org/2000/svg" xmlns:inkscape="http://www.inkscape.org/namespaces/inkscape" xmlns:sodipodi="http://sodipodi.sourceforge.net/DTD/sodipodi-0.dtd"><sodipodi:namedview pagecolor="#303030" showgrid="true"><inkscape:grid id="grid5" units="px" spacingx="100" spacingy="100" color="#4772b3" opacity="0.2" visible="true" /></sodipodi:namedview><g fill="#fff"><path d="m241.48438 452c-.12717.004-.248.0564-.3379.14648l-3 3c-.31479.315-.0918.85335.35352.85352h3c.27613-.00003.49997-.22387.5-.5v-3c.00011-.28235-.23341-.50879-.51562-.5zm1.51562 0v5h-5v1.5c.00002.1326.0527.25976.14648.35352l2 2c.19527.19519.51177.19519.70704 0l2.64648-2.64649 1.64648 1.64649c.19527.19519.51177.19519.70704 0l2.64648-2.64649.64648.64649 1 1c.315.31479.85335.0918.85352-.35352v-6c-.00003-.27613-.22387-.49997-.5-.5zm4.49219 9c-.12989.002-.25387.0546-.34571.14648l-2.64648 2.64649-1.64648-1.64649c-.19527-.19519-.51177-.19519-.70704 0l-2.64648 2.64649-1.64648-1.64649c-.315-.31479-.85335-.0918-.85352.35352v2c.00003.27613.22387.49997.5.5h2.00781 9.99219c.27613-.00003.49997-.22387.5-.5v-2c-.00002-.1326-.0527-.25976-.14648-.35352l-1-1-1-1c-.0957-.0957-.22603-.14855-.36133-.14648z" transform="matrix(100 0 0 100 -23600 -45099.9876)"/></g></svg>