<svg height="1600" viewBox="0 0 1600 1600" width="1600" xmlns="http://www.w3.org/2000/svg" xmlns:inkscape="http://www.inkscape.org/namespaces/inkscape" xmlns:sodipodi="http://sodipodi.sourceforge.net/DTD/sodipodi-0.dtd"><sodipodi:namedview pagecolor="#303030" showgrid="true"><inkscape:grid id="grid5" units="px" spacingx="100" spacingy="100" color="#4772b3" opacity="0.2" visible="true" /></sodipodi:namedview><g fill="#fff"><g enable-background="new" transform="translate(-233 -365)"><path d="m1028 1556c-3.2833 0-6 2.4414-6 5.5 0 1.7056.9046 3.146 2.1523 4.3594l.9942.9941a.50004997.50004997 0 0 0 .3027.1485.50004997.50004997 0 0 0 .051.998h5a.50004997.50004997 0 0 0 .045-.998.50004997.50004997 0 0 0 .3086-.1485l.9981-.998c1.2122-1.1985 2.1465-2.6518 2.1465-4.3535 0-3.0586-2.7167-5.5-6-5.5zm0 1c2.7919 0 5 2.0358 5 4.5 0 1.3342-.7428 2.5488-1.8516 3.6445l-1 1a.50004997.50004997 0 0 0 .2793.8535h-4.8594a.50004997.50004997 0 0 0 .2871-.8535l-1-1a.50004997.50004997 0 0 0 -.01-.01c-1.1397-1.1082-1.8477-2.2864-1.8477-3.6406 0-2.4642 2.2081-4.5 5-4.5zm-2.5 12a.50004997.50004997 0 1 0 0 1h1.5v.5a.50004997.50004997 0 0 0 .5.5h1a.50004997.50004997 0 0 0 .5-.5v-.5h1.5a.50004997.50004997 0 1 0 0-1z"/><path d="m1025.4902 1561.0059a.50005.50005 0 0 0 -.3437.8476l.8535.8535v1.543a.50005.50005 0 1 0 1 0v-1.25h2v1.25a.50005.50005 0 1 0 1 0v-1.543l.8535-.8535a.50005.50005 0 0 0 -.707-.707l-.8535.8535h-2.586l-.8535-.8535a.50005.50005 0 0 0 -.3633-.1406z" opacity=".6"/></g><path d="m241.48438 452c-.12717.004-.248.0564-.3379.14648l-3 3c-.31479.315-.0918.85335.35352.85352h3c.27613-.00003.49997-.22387.5-.5v-3c.00011-.28235-.23341-.50879-.51562-.5zm1.51562 0v5h-5v1.5c.00002.1326.0527.25976.14648.35352l2 2c.19527.19519.51177.19519.70704 0l2.64648-2.64649 1.64648 1.64649c.19527.19519.51177.19519.70704 0l2.64648-2.64649.64648.64649 1 1c.315.31479.85335.0918.85352-.35352v-6c-.00003-.27613-.22387-.49997-.5-.5zm4.49219 9c-.12989.002-.25387.0546-.34571.14648l-2.64648 2.64649-1.64648-1.64649c-.19527-.19519-.51177-.19519-.70704 0l-2.64648 2.64649-1.64648-1.64649c-.315-.31479-.85335-.0918-.85352.35352v2c.00003.27613.22387.49997.5.5h2.00781 9.99219c.27613-.00003.49997-.22387.5-.5v-2c-.00002-.1326-.0527-.25976-.14648-.35352l-1-1-1-1c-.0957-.0957-.22603-.14855-.36133-.14648z" transform="matrix(100 0 0 100 -23600 -45099.9876)"/></g></svg>