<svg height="1700" viewBox="0 0 1500 1700" width="1500" xmlns="http://www.w3.org/2000/svg" xmlns:inkscape="http://www.inkscape.org/namespaces/inkscape" xmlns:sodipodi="http://sodipodi.sourceforge.net/DTD/sodipodi-0.dtd"><sodipodi:namedview pagecolor="#303030" showgrid="true"><inkscape:grid id="grid5" units="px" spacingx="100" spacingy="100" color="#4772b3" opacity="0.2" visible="true" /></sodipodi:namedview><g fill="#fff"><path d="m348.48047 347c-3.16361.009-5.86504 2.31609-6.39063 5.45117-.52558 3.13508 1.27477 6.20467 4.25977 7.25781a.50005.50005 0 1 0 .33203-.94336c-2.52985-.89255-4.05213-3.48414-3.60547-6.14843s2.72792-4.6094 5.40821-4.61719c2.68028-.008 4.97166 1.92234 5.43359 4.58398.46193 2.66165-1.0456 5.26268-3.57031 6.16993a.50043111.50043111 0 1 0 .33984.9414c2.9789-1.07046 4.75841-4.14926 4.21484-7.28125-.54356-3.13198-3.25826-5.42325-6.42187-5.41406zm.0195 4.99999c-.8225 0-1.5.6775-1.5 1.5 0 .64684.42097 1.19777 1 1.40625v.59375c-.01.67616 1.00956.67616 1 0v-.59375c.57902-.20848 1-.75941 1-1.40625 0-.8225-.67751-1.5-1.5-1.5zm0 1c.28206 0 .5.21794.5.5s-.21794.5-.5.5c-.28207 0-.5-.21794-.5-.5s.21793-.5.5-.5zm-.002 3.98438c-.27614.004-.49651.23167-.49219.50781v1c-.01.67616 1.00957.67616 1 0v-1c.004-.28226-.22555-.51223-.50781-.50781zm0 3c-.27614.004-.49651.23167-.49219.50781v1.00195c-.01.67616 1.00957.67616 1 0v-1.00195c.004-.28226-.22555-.51223-.50781-.50781z" transform="matrix(100 0 0 100 -34099.93300000001 -34600.0611)"/></g></svg>