<svg height="1600" viewBox="0 0 1600 1600" width="1600" xmlns="http://www.w3.org/2000/svg" xmlns:inkscape="http://www.inkscape.org/namespaces/inkscape" xmlns:sodipodi="http://sodipodi.sourceforge.net/DTD/sodipodi-0.dtd"><sodipodi:namedview pagecolor="#303030" showgrid="true"><inkscape:grid id="grid5" units="px" spacingx="100" spacingy="100" color="#4772b3" opacity="0.2" visible="true" /></sodipodi:namedview><g fill="#fff"><path d="m343.50586 388.99219a.50005.50005 0 0 0 -.35547.14648l-1.00391 1.00781a.50005.50005 0 0 0 -.0937.57618l3 6a.50005.50005 0 1 0 .89454-.44532l-2.83985-5.67968.60547-.60547h6.4707l4.72266 10.39062-.60937.60938-5.98633.008-.35743-.72656a.50005.50005 0 1 0 -.89648.4414l.49414 1.00586a.50005.50005 0 0 0 .44917.27911l6.50586-.008a.50005.50005 0 0 0 .35352-.14649l1-1a.50005.50005 0 0 0 .10156-.56054l-5-11a.50005.50005 0 0 0 -.45508-.29297zm5.5 6.00195a1 1 0 0 0 -1 1 1 1 0 0 0 .0332.25977l-.14258.14257a.50005.50005 0 1 0 .70704.70704l.14453-.14454a1 1 0 0 0 .25781.0352 1 1 0 0 0 1-1 1 1 0 0 0 -1-1zm-2.50977 2.99219a.50005.50005 0 0 0 -.34375.15234l-1 1a.50005.50005 0 1 0 .70704.70703l1-1a.50005.50005 0 0 0 -.36329-.85937zm-3.00195 3a.50005.50005 0 0 0 -.34375.15234l-1 1.00391a.50005.50005 0 1 0 .70899.70508l1-1.00391a.50005.50005 0 0 0 -.36524-.85742z" transform="matrix(100 0 0 100 -34100.1808 -38799.711)"/></g></svg>