<svg height="1700" viewBox="0 0 1500 1700" width="1500" xmlns="http://www.w3.org/2000/svg" xmlns:inkscape="http://www.inkscape.org/namespaces/inkscape" xmlns:sodipodi="http://sodipodi.sourceforge.net/DTD/sodipodi-0.dtd"><sodipodi:namedview pagecolor="#303030" showgrid="true"><inkscape:grid id="grid5" units="px" spacingx="100" spacingy="100" color="#4772b3" opacity="0.2" visible="true" /></sodipodi:namedview><g fill="#fff"><g enable-background="new" transform="translate(-233 -365)"><path d="m1028 1556c-3.2833 0-6 2.4414-6 5.5 0 1.7056.9046 3.146 2.1523 4.3594l.9942.9941a.50004997.50004997 0 0 0 .3027.1485.50004997.50004997 0 0 0 .051.998h5a.50004997.50004997 0 0 0 .045-.998.50004997.50004997 0 0 0 .3086-.1485l.9981-.998c1.2122-1.1985 2.1465-2.6518 2.1465-4.3535 0-3.0586-2.7167-5.5-6-5.5zm0 1c2.7919 0 5 2.0358 5 4.5 0 1.3342-.7428 2.5488-1.8516 3.6445l-1 1a.50004997.50004997 0 0 0 .2793.8535h-4.8594a.50004997.50004997 0 0 0 .2871-.8535l-1-1a.50004997.50004997 0 0 0 -.01-.01c-1.1397-1.1082-1.8477-2.2864-1.8477-3.6406 0-2.4642 2.2081-4.5 5-4.5zm-2.5 12a.50004997.50004997 0 1 0 0 1h1.5v.5a.50004997.50004997 0 0 0 .5.5h1a.50004997.50004997 0 0 0 .5-.5v-.5h1.5a.50004997.50004997 0 1 0 0-1z"/><path d="m1025.4902 1561.0059a.50005.50005 0 0 0 -.3437.8476l.8535.8535v1.543a.50005.50005 0 1 0 1 0v-1.25h2v1.25a.50005.50005 0 1 0 1 0v-1.543l.8535-.8535a.50005.50005 0 0 0 -.707-.707l-.8535.8535h-2.586l-.8535-.8535a.50005.50005 0 0 0 -.3633-.1406z" opacity=".6"/></g><path d="m348.48047 347c-3.16361.009-5.86504 2.31609-6.39063 5.45117-.52558 3.13508 1.27477 6.20467 4.25977 7.25781a.50005.50005 0 1 0 .33203-.94336c-2.52985-.89255-4.05213-3.48414-3.60547-6.14843s2.72792-4.6094 5.40821-4.61719c2.68028-.008 4.97166 1.92234 5.43359 4.58398.46193 2.66165-1.0456 5.26268-3.57031 6.16993a.50043111.50043111 0 1 0 .33984.9414c2.9789-1.07046 4.75841-4.14926 4.21484-7.28125-.54356-3.13198-3.25826-5.42325-6.42187-5.41406zm.0195 4.99999c-.8225 0-1.5.6775-1.5 1.5 0 .64684.42097 1.19777 1 1.40625v.59375c-.01.67616 1.00956.67616 1 0v-.59375c.57902-.20848 1-.75941 1-1.40625 0-.8225-.67751-1.5-1.5-1.5zm0 1c.28206 0 .5.21794.5.5s-.21794.5-.5.5c-.28207 0-.5-.21794-.5-.5s.21793-.5.5-.5zm-.002 3.98438c-.27614.004-.49651.23167-.49219.50781v1c-.01.67616 1.00957.67616 1 0v-1c.004-.28226-.22555-.51223-.50781-.50781zm0 3c-.27614.004-.49651.23167-.49219.50781v1.00195c-.01.67616 1.00957.67616 1 0v-1.00195c.004-.28226-.22555-.51223-.50781-.50781z" transform="matrix(100 0 0 100 -34099.93300000001 -34600.0611)"/></g></svg>