<svg height="1600" viewBox="0 0 1600 1600" width="1600" xmlns="http://www.w3.org/2000/svg" xmlns:inkscape="http://www.inkscape.org/namespaces/inkscape" xmlns:sodipodi="http://sodipodi.sourceforge.net/DTD/sodipodi-0.dtd"><sodipodi:namedview pagecolor="#303030" showgrid="true"><inkscape:grid id="grid5" units="px" spacingx="100" spacingy="100" color="#4772b3" opacity="0.2" visible="true" /></sodipodi:namedview><g fill="#fff"><path d="m285.49219 388.99219c-.2763.004-.49651.23152-.49219.50781v2.6543c-.76567.19832-1.43883.61396-1.95508 1.18359l-2.1914-2.19141c-.0944-.0966-.22433-.15264-.35938-.15234-.4485.00024-.66889.54638-.34766.85938l2.32032 2.32031c-.28747.54952-.4655 1.16535-.4668 1.82617h-2.5c-.66693 0-.66693 1 0 1h2.64062c.19916.76891.61811 1.44388 1.19141 1.96094l-2.18555 2.18554c-.4717.4717.23534 1.17874.70704.70704l2.3164-2.31641c.54947.28561 1.16223.46289 1.82227.46289.003 0 .005.00001.008 0v2.5c0 .66693 1 .66693 1 0v-2.64648c.76569-.20169 1.4388-.6203 1.95312-1.19336l2.19336 2.19336c.47143.50593 1.2141-.23683.70704-.70704l-2.32422-2.32421c.28283-.54738.45703-1.15786.45703-1.81446 0-.003 0-.005 0-.008h2.51348c.66693 0 .66693-1 0-1h-2.66016c-.20083-.76245-.61615-1.43374-1.18554-1.94727l2.19922-2.19921c.32695-.31816.0927-.87325-.36329-.85938-.12999.004-.25338.0589-.34375.15234l-2.33007 2.33008c-.54727-.28427-1.15931-.46141-1.81641-.4627v-2.51367c.004-.28226-.22555-.51222-.50781-.50781zm.5 4.02148c1.65884 0 2.99414 1.3353 2.99414 2.99414 0 1.65885-1.3353 2.99219-2.99414 2.99219-1.65885 0-2.99219-1.33334-2.99219-2.99219 0-1.65884 1.33334-2.99414 2.99219-2.99414z" transform="matrix(100.000371795 0 0 100.000371795 -27800.1062664 -38799.76346438)"/></g></svg>