<svg height="1500" viewBox="0 0 1500 1500" width="1500" xmlns="http://www.w3.org/2000/svg" xmlns:inkscape="http://www.inkscape.org/namespaces/inkscape" xmlns:sodipodi="http://sodipodi.sourceforge.net/DTD/sodipodi-0.dtd"><sodipodi:namedview pagecolor="#303030" showgrid="true"><inkscape:grid id="grid5" units="px" spacingx="100" spacingy="100" color="#4772b3" opacity="0.2" visible="true" /></sodipodi:namedview><g fill="#fff"><g enable-background="new" transform="matrix(100 0 0 100 -29900 -36800)"><path d="m303.5 369a.50005.50005 0 0 0 -.35352.14648l-3 3a.50005.50005 0 0 0 -.14648.35352v9a.50005.50005 0 0 0 .5.5h9a.50005.50005 0 0 0 .35352-.14648l3-3a.50005.50005 0 0 0 .14648-.35352v-9a.50005.50005 0 0 0 -.5-.5zm.20703 1h8.29297v8.29297l-2.70703 2.70703h-8.29297v-8.29297zm1.79883 5.03711c-.82251 0-1.5.67749-1.5 1.5 0 .8225.67749 1.5 1.5 1.5.8225 0 1.5-.6775 1.5-1.5 0-.82251-.6775-1.5-1.5-1.5zm0 1c.28206 0 .5.21793.5.5 0 .28206-.21794.5-.5.5-.28207 0-.5-.21794-.5-.5 0-.28207.21793-.5.5-.5z"/><path d="m312.14648 369.14648-2.85351 2.85352h-8.79297v1h8.5l.006 8.53711h1l-.006-8.83008 2.85352-2.85351z" opacity=".7"/></g></g></svg>