<svg height="1500" viewBox="0 0 1500 1500" width="1500" xmlns="http://www.w3.org/2000/svg" xmlns:inkscape="http://www.inkscape.org/namespaces/inkscape" xmlns:sodipodi="http://sodipodi.sourceforge.net/DTD/sodipodi-0.dtd"><sodipodi:namedview pagecolor="#303030" showgrid="true"><inkscape:grid id="grid5" units="px" spacingx="100" spacingy="100" color="#4772b3" opacity="0.2" visible="true" /></sodipodi:namedview><g fill="#fff"><path d="m448.5 284c-.8225 0-1.5.6775-1.5 1.5s.6775 1.5 1.5 1.5 1.5-.6775 1.5-1.5-.6775-1.5-1.5-1.5zm5 0c-.8225 0-1.5.6775-1.5 1.5s.6775 1.5 1.5 1.5 1.5-.6775 1.5-1.5-.6775-1.5-1.5-1.5zm5 0c-.8225 0-1.5.6775-1.5 1.5s.6775 1.5 1.5 1.5 1.5-.6775 1.5-1.5-.6775-1.5-1.5-1.5zm-10 1c.28207 0 .5.21794.5.5s-.21793.5-.5.5-.5-.21794-.5-.5.21793-.5.5-.5zm5 0c.28207 0 .5.21794.5.5s-.21793.5-.5.5-.5-.21794-.5-.5.21793-.5.5-.5zm5 0c.28207 0 .5.21794.5.5s-.21793.5-.5.5-.5-.21794-.5-.5.21793-.5.5-.5zm-10 4c-.8225 0-1.5.6775-1.5 1.5s.6775 1.5 1.5 1.5 1.5-.6775 1.5-1.5-.6775-1.5-1.5-1.5zm5 0c-.8225 0-1.5.6775-1.5 1.5s.6775 1.5 1.5 1.5 1.5-.6775 1.5-1.5-.6775-1.5-1.5-1.5zm5 0c-.8225 0-1.5.6775-1.5 1.5s.6775 1.5 1.5 1.5 1.5-.6775 1.5-1.5-.6775-1.5-1.5-1.5zm-10 1c.28207 0 .5.21794.5.5s-.21793.5-.5.5-.5-.21794-.5-.5.21793-.5.5-.5zm5 0c.28206 0 .5.21794.5.5s-.21794.5-.5.5-.5-.21794-.5-.5.21794-.5.5-.5zm5 0c.28207 0 .5.21794.5.5s-.21793.5-.5.5-.5-.21794-.5-.5.21793-.5.5-.5zm-10 4c-.8225 0-1.5.6775-1.5 1.5s.6775 1.5 1.5 1.5 1.5-.6775 1.5-1.5-.6775-1.5-1.5-1.5zm5 0c-.8225 0-1.5.6775-1.5 1.5s.6775 1.5 1.5 1.5 1.5-.6775 1.5-1.5-.6775-1.5-1.5-1.5zm5 0c-.8225 0-1.5.6775-1.5 1.5s.6775 1.5 1.5 1.5 1.5-.6775 1.5-1.5-.6775-1.5-1.5-1.5zm-10 1c.28207 0 .5.21794.5.5s-.21793.5-.5.5-.5-.21794-.5-.5.21793-.5.5-.5zm5 0c.28207 0 .5.21794.5.5s-.21793.5-.5.5-.5-.21794-.5-.5.21793-.5.5-.5zm5 0c.28207 0 .5.21794.5.5s-.21793.5-.5.5-.5-.21794-.5-.5.21793-.5.5-.5z" transform="matrix(100 0 0 100 -44600 -28300)"/></g></svg>