<svg height="1600" viewBox="0 0 1600 1600" width="1600" xmlns="http://www.w3.org/2000/svg" xmlns:inkscape="http://www.inkscape.org/namespaces/inkscape" xmlns:sodipodi="http://sodipodi.sourceforge.net/DTD/sodipodi-0.dtd"><sodipodi:namedview pagecolor="#303030" showgrid="true"><inkscape:grid id="grid5" units="px" spacingx="100" spacingy="100" color="#4772b3" opacity="0.2" visible="true" /></sodipodi:namedview><g fill="#fff"><g enable-background="new" transform="translate(-233 -365)"><path d="m1028 1556c-3.2833 0-6 2.4414-6 5.5 0 1.7056.9046 3.146 2.1523 4.3594l.9942.9941a.50004997.50004997 0 0 0 .3027.1485.50004997.50004997 0 0 0 .051.998h5a.50004997.50004997 0 0 0 .045-.998.50004997.50004997 0 0 0 .3086-.1485l.9981-.998c1.2122-1.1985 2.1465-2.6518 2.1465-4.3535 0-3.0586-2.7167-5.5-6-5.5zm0 1c2.7919 0 5 2.0358 5 4.5 0 1.3342-.7428 2.5488-1.8516 3.6445l-1 1a.50004997.50004997 0 0 0 .2793.8535h-4.8594a.50004997.50004997 0 0 0 .2871-.8535l-1-1a.50004997.50004997 0 0 0 -.01-.01c-1.1397-1.1082-1.8477-2.2864-1.8477-3.6406 0-2.4642 2.2081-4.5 5-4.5zm-2.5 12a.50004997.50004997 0 1 0 0 1h1.5v.5a.50004997.50004997 0 0 0 .5.5h1a.50004997.50004997 0 0 0 .5-.5v-.5h1.5a.50004997.50004997 0 1 0 0-1z"/><path d="m1025.4902 1561.0059a.50005.50005 0 0 0 -.3437.8476l.8535.8535v1.543a.50005.50005 0 1 0 1 0v-1.25h2v1.25a.50005.50005 0 1 0 1 0v-1.543l.8535-.8535a.50005.50005 0 0 0 -.707-.707l-.8535.8535h-2.586l-.8535-.8535a.50005.50005 0 0 0 -.3633-.1406z" opacity=".6"/></g><path d="m325.05469 389.00391c-.66782-.018-1.21728.00046-1.57813.002h-.002c-.34416.00025-.65424.0639-.91602.22852-.2623.16491-.44433.43888-.51367.7207-.13867.56363.037 1.13654.3125 1.76758.55094 1.26206 1.63318 2.77176 2.73438 4.10351a.50004997.50004997 0 1 0 .76953-.63867c-1.06758-1.2911-2.11546-2.78301-2.58789-3.86523-.23622-.54112-.29509-.9754-.25782-1.12696.0186-.0758.0265-.0852.0742-.11523.0478-.03.16614-.0742.38672-.0742a.50004997.50004997 0 0 0 .002 0c1.54352-.006 5.58742-.20164 8.14453 2.35547 2.5571 2.5571 2.35972 6.59906 2.35351 8.14258a.50004997.50004997 0 0 0 0 .002c0 .22058-.0442.33897-.0742.38672-.03.0477-.0375.0575-.11328.0762-.15155.0373-.58779-.0216-1.1289-.25781-1.08223-.47244-2.57414-1.52227-3.86524-2.58985a.50015227.50015227 0 1 0 -.63672.77149c1.33176 1.1012 2.8395 2.18343 4.10157 2.73437.63103.27547 1.20395.45117 1.76757.3125.28182-.0693.55774-.25136.72266-.51367.16426-.26126.22607-.57268.22656-.91601v-.004c.006-1.44452.29493-5.9121-2.64648-8.85352-2.20662-2.20661-5.27193-2.59451-7.27539-2.64843zm3.95117 4.99023a1 1 0 0 0 -1 1 1 1 0 0 0 .0332.25781l-.88672.88672a.50005.50005 0 1 0 .70704.70703l.88671-.88672a1 1 0 0 0 .25977.0352 1 1 0 0 0 1-1 1 1 0 0 0 -1-1zm-3.50977 3.99219a.50005.50005 0 0 0 -.34375.15234l-1 1a.50005.50005 0 1 0 .70704.70703l1-1a.50005.50005 0 0 0 -.36329-.85937zm-3.00195 3a.50005.50005 0 0 0 -.34375.15234l-1 1.00391a.50005.50005 0 1 0 .70899.70508l1-1.00391a.50005.50005 0 0 0 -.36524-.85742z" transform="matrix(100 0 0 100 -31999.23480000001 -38799.915)"/></g></svg>