<svg height="1600" viewBox="0 0 1600 1600" width="1600" xmlns="http://www.w3.org/2000/svg" xmlns:inkscape="http://www.inkscape.org/namespaces/inkscape" xmlns:sodipodi="http://sodipodi.sourceforge.net/DTD/sodipodi-0.dtd"><sodipodi:namedview pagecolor="#303030" showgrid="true"><inkscape:grid id="grid5" units="px" spacingx="100" spacingy="100" color="#4772b3" opacity="0.2" visible="true" /></sodipodi:namedview><g fill="#fff"><g enable-background="new" transform="translate(-233 -365)"><path d="m1028 1556c-3.2833 0-6 2.4414-6 5.5 0 1.7056.9046 3.146 2.1523 4.3594l.9942.9941a.50004997.50004997 0 0 0 .3027.1485.50004997.50004997 0 0 0 .051.998h5a.50004997.50004997 0 0 0 .045-.998.50004997.50004997 0 0 0 .3086-.1485l.9981-.998c1.2122-1.1985 2.1465-2.6518 2.1465-4.3535 0-3.0586-2.7167-5.5-6-5.5zm0 1c2.7919 0 5 2.0358 5 4.5 0 1.3342-.7428 2.5488-1.8516 3.6445l-1 1a.50004997.50004997 0 0 0 .2793.8535h-4.8594a.50004997.50004997 0 0 0 .2871-.8535l-1-1a.50004997.50004997 0 0 0 -.01-.01c-1.1397-1.1082-1.8477-2.2864-1.8477-3.6406 0-2.4642 2.2081-4.5 5-4.5zm-2.5 12a.50004997.50004997 0 1 0 0 1h1.5v.5a.50004997.50004997 0 0 0 .5.5h1a.50004997.50004997 0 0 0 .5-.5v-.5h1.5a.50004997.50004997 0 1 0 0-1z"/><path d="m1025.4902 1561.0059a.50005.50005 0 0 0 -.3437.8476l.8535.8535v1.543a.50005.50005 0 1 0 1 0v-1.25h2v1.25a.50005.50005 0 1 0 1 0v-1.543l.8535-.8535a.50005.50005 0 0 0 -.707-.707l-.8535.8535h-2.586l-.8535-.8535a.50005.50005 0 0 0 -.3633-.1406z" opacity=".6"/></g><path d="m313.48633 389.00977a.50005.50005 0 0 0 -.13281.0156l-10.64454 2.70117a.50005.50005 0 0 0 -.0176.006c-.39202.1157-.73529.32904-1.00782.60156-.57977.57978-.79354 1.4303-.73828 2.33399.0553.90369.37679 1.88678.94141 2.83789a.50005.50005 0 0 0 0 .002c.0547.092.11038.1837.16992.27539a.50056694.50056694 0 1 0 .83984-.54492c-.0521-.0802-.10227-.16121-.15039-.24219-.4939-.83198-.75942-1.68043-.80273-2.38867-.0433-.70823.13039-1.24953.44726-1.5664.16272-.16272.36207-.28412.58399-.34961l9.81055-2.49024-2.49024 9.81445c-.0654.2249-.18247.41294-.34961.58008-.32315.32316-.90925.49604-1.67187.42578-.76263-.0702-1.66859-.38268-2.52735-.93164a.50005.50005 0 1 0 -.53906.8418c.97998.62645 2.02029.99785 2.97656 1.08594.95627.0881 1.86106-.10716 2.46875-.71485.27194-.27193.4884-.61189.60352-1.00781a.50005.50005 0 0 0 .004-.0176l2.70117-10.64453a.50005.50005 0 0 0 -.47461-.62304zm-5.48633 4.98437a1 1 0 0 0 -1 1 1 1 0 0 0 .0352.25586l-.88868.88867a.50005.50005 0 1 0 .70704.70703l.88671-.88672a1 1 0 0 0 .25977.0352 1 1 0 0 0 1-1 1 1 0 0 0 -1-1zm-3.50977 3.99219a.50005.50005 0 0 0 -.34375.15234l-1 1a.50005.50005 0 1 0 .70704.70703l1-1a.50005.50005 0 0 0 -.36329-.85937zm-3.00195 3a.50005.50005 0 0 0 -.3418.15234l-1 1.00391a.50005.50005 0 1 0 .70704.70508l1-1.00391a.50005.50005 0 0 0 -.36524-.85742z" transform="matrix(100 0 0 100 -29897.8248 -38801.2379)"/></g></svg>