<svg height="1600" viewBox="0 0 1600 1600" width="1600" xmlns="http://www.w3.org/2000/svg" xmlns:inkscape="http://www.inkscape.org/namespaces/inkscape" xmlns:sodipodi="http://sodipodi.sourceforge.net/DTD/sodipodi-0.dtd"><sodipodi:namedview pagecolor="#303030" showgrid="true"><inkscape:grid id="grid5" units="px" spacingx="100" spacingy="100" color="#4772b3" opacity="0.2" visible="true" /></sodipodi:namedview><g fill="#fff"><path d="m313.48633 389.00977a.50005.50005 0 0 0 -.13281.0156l-10.64454 2.70117a.50005.50005 0 0 0 -.0176.006c-.39202.1157-.73529.32904-1.00782.60156-.57977.57978-.79354 1.4303-.73828 2.33399.0553.90369.37679 1.88678.94141 2.83789a.50005.50005 0 0 0 0 .002c.0547.092.11038.1837.16992.27539a.50056694.50056694 0 1 0 .83984-.54492c-.0521-.0802-.10227-.16121-.15039-.24219-.4939-.83198-.75942-1.68043-.80273-2.38867-.0433-.70823.13039-1.24953.44726-1.5664.16272-.16272.36207-.28412.58399-.34961l9.81055-2.49024-2.49024 9.81445c-.0654.2249-.18247.41294-.34961.58008-.32315.32316-.90925.49604-1.67187.42578-.76263-.0702-1.66859-.38268-2.52735-.93164a.50005.50005 0 1 0 -.53906.8418c.97998.62645 2.02029.99785 2.97656 1.08594.95627.0881 1.86106-.10716 2.46875-.71485.27194-.27193.4884-.61189.60352-1.00781a.50005.50005 0 0 0 .004-.0176l2.70117-10.64453a.50005.50005 0 0 0 -.47461-.62304zm-5.48633 4.98437a1 1 0 0 0 -1 1 1 1 0 0 0 .0352.25586l-.88868.88867a.50005.50005 0 1 0 .70704.70703l.88671-.88672a1 1 0 0 0 .25977.0352 1 1 0 0 0 1-1 1 1 0 0 0 -1-1zm-3.50977 3.99219a.50005.50005 0 0 0 -.34375.15234l-1 1a.50005.50005 0 1 0 .70704.70703l1-1a.50005.50005 0 0 0 -.36329-.85937zm-3.00195 3a.50005.50005 0 0 0 -.3418.15234l-1 1.00391a.50005.50005 0 1 0 .70704.70508l1-1.00391a.50005.50005 0 0 0 -.36524-.85742z" transform="matrix(100 0 0 100 -29897.8248 -38801.2379)"/></g></svg>