<svg height="1600" viewBox="0 0 1400 1600" width="1400" xmlns="http://www.w3.org/2000/svg" xmlns:inkscape="http://www.inkscape.org/namespaces/inkscape" xmlns:sodipodi="http://sodipodi.sourceforge.net/DTD/sodipodi-0.dtd"><sodipodi:namedview pagecolor="#303030" showgrid="true"><inkscape:grid id="grid5" units="px" spacingx="100" spacingy="100" color="#4772b3" opacity="0.2" visible="true" /></sodipodi:namedview><g fill="#fff"><path d="m553.5 620a.50005.50005 0 1 0 0 1h10.99219a.50005.50005 0 1 0 0-1zm0 2a.50005.50005 0 1 0 0 1h10.99219a.50005.50005 0 1 0 0-1zm0 2a.50005.50005 0 1 0 0 1h10.99219a.50005.50005 0 1 0 0-1zm0 5a.50005.50005 0 1 0 0 1h10.99219a.50005.50005 0 1 0 0-1zm0 2a.50005.50005 0 1 0 0 1h10.99219a.50005.50005 0 1 0 0-1zm0 2a.50005.50005 0 1 0 0 1h11a.50005.50005 0 1 0 0-1z" transform="matrix(100 0 0 100 -55199.99999999999 -61900)"/></g></svg>