<svg height="1600" viewBox="0 0 1600 1600" width="1600" xmlns="http://www.w3.org/2000/svg" xmlns:inkscape="http://www.inkscape.org/namespaces/inkscape" xmlns:sodipodi="http://sodipodi.sourceforge.net/DTD/sodipodi-0.dtd"><sodipodi:namedview pagecolor="#303030" showgrid="true"><inkscape:grid id="grid5" units="px" spacingx="100" spacingy="100" color="#4772b3" opacity="0.2" visible="true" /></sodipodi:namedview><g fill="#fff"><path d="m352.72656 472.9707c-.84514-.0154-1.69148.28718-2.33008.92578l-2.13476 2.13477c-1.14247-.0826-2.16028-.0359-2.98047.30273-.89973.37145-1.59595 1.03428-2.08008 1.92774-.96826 1.78691-1.20117 4.46508-1.20117 8.23828a.50004997.50004997 0 0 0 .5.5c3.7729 0 6.45106-.23075 8.23828-1.19727.89361-.48326 1.5563-1.17766 1.92774-2.07812.33865-.82099.38541-1.84087.30273-2.98633l2.13477-2.13476c1.27714-1.27719 1.21033-3.38733-.0547-4.65235-.63251-.63254-1.47713-.96507-2.32227-.98047zm-.01 1.00391c.59016.0124 1.18356.24213 1.625.68359.88286.88287.92532 2.36759.0547 3.23828l-2.25 2.25a.50004997.50004997 0 0 0 -.14453.4043c.11985 1.19116.0231 2.10252-.26172 2.79297-.28481.69045-.74712 1.18455-1.47851 1.58008-1.27506.68955-3.50366.96361-6.50586 1.02734l3.10352-3.10351c.19538.094.41106.15234.64062.15234.8225 0 1.5-.6775 1.5-1.5s-.6775-1.5-1.5-1.5-1.5.6775-1.5 1.5c0 .22956.0584.44524.15234.64062l-3.10351 3.10352c.0645-3.00197.34215-5.23052 1.0332-6.50586.3964-.73154.8902-1.19371 1.58008-1.47851.68987-.28481 1.59959-.38153 2.78711-.26172a.50004997.50004997 0 0 0 .4043-.14453l2.25-2.25c.43534-.43536 1.02312-.64126 1.61328-.62891z" transform="matrix(100 0 0 100 -34101.501 -47198.507)"/></g></svg>