<svg height="1600" viewBox="0 0 1600 1600" width="1600" xmlns="http://www.w3.org/2000/svg" xmlns:inkscape="http://www.inkscape.org/namespaces/inkscape" xmlns:sodipodi="http://sodipodi.sourceforge.net/DTD/sodipodi-0.dtd"><sodipodi:namedview pagecolor="#303030" showgrid="true"><inkscape:grid id="grid5" units="px" spacingx="100" spacingy="100" color="#4772b3" opacity="0.2" visible="true" /></sodipodi:namedview><g fill="#fff"><g enable-background="new" transform="matrix(100 0 0 100 -55000.00499999999 -61899.99)"><path d="m557.5 620a.50005.50005 0 1 0 0 1h6.99219a.50005.50005 0 1 0 0-1zm0 2a.50005.50005 0 1 0 0 1h6.99219a.50005.50005 0 1 0 0-1zm0 2a.50005.50005 0 1 0 0 1h6.99219a.50005.50005 0 1 0 0-1zm0 5a.50005.50005 0 1 0 0 1h6.99219a.50005.50005 0 1 0 0-1zm0 2a.50005.50005 0 1 0 0 1h6.99219a.50005.50005 0 1 0 0-1zm0 2a.50005.50005 0 1 0 0 1h7a.50005.50005 0 1 0 0-1z"/><path d="m553.48438 620a.50005.50005 0 0 0 -.3379.14648l-2 2a.50005.50005 0 1 0 .70704.70704l1.14648-1.14649v3.79297a.50005.50005 0 1 0 1 0v-5a.50005.50005 0 0 0 -.51562-.5zm-.48438 8c-.79172 0-1.70536.42737-1.98047 1.35938a.50062501.50062501 0 1 0 .96094.28124c.12417-.42063.57767-.64062 1.01953-.64062.31942 0 .59941.0632.75391.16602.1545.10279.25034.21211.2539.58789.00056.20689-.076.32805-.29687.52148-.22152.19398-.57835.40234-.9668.64453s-.81151.52364-1.1543.93555c-.34278.4119-.58774.96871-.58984 1.64258a.50005.50005 0 0 0 .5.50195h3a.50005.50005 0 1 0 0-1h-2.32227c.0615-.1621.068-.36972.17969-.50391.22282-.26775.55267-.50197.91602-.72851s.7571-.44007 1.09765-.73828c.34056-.29822.6393-.73918.63672-1.28125a.50005.50005 0 0 0 0-.002c-.006-.62417-.29003-1.13985-.69922-1.41211-.40918-.27221-.87801-.33394-1.30859-.33394z"/></g></g></svg>