<svg height="1600" viewBox="0 0 1600 1600" width="1600" xmlns="http://www.w3.org/2000/svg" xmlns:inkscape="http://www.inkscape.org/namespaces/inkscape" xmlns:sodipodi="http://sodipodi.sourceforge.net/DTD/sodipodi-0.dtd"><sodipodi:namedview pagecolor="#303030" showgrid="true"><inkscape:grid id="grid5" units="px" spacingx="100" spacingy="100" color="#4772b3" opacity="0.2" visible="true" /></sodipodi:namedview><g fill="#fff"><g enable-background="new" transform="translate(-233 -365)"><path d="m1028 1556c-3.2833 0-6 2.4414-6 5.5 0 1.7056.9046 3.146 2.1523 4.3594l.9942.9941a.50004997.50004997 0 0 0 .3027.1485.50004997.50004997 0 0 0 .051.998h5a.50004997.50004997 0 0 0 .045-.998.50004997.50004997 0 0 0 .3086-.1485l.9981-.998c1.2122-1.1985 2.1465-2.6518 2.1465-4.3535 0-3.0586-2.7167-5.5-6-5.5zm0 1c2.7919 0 5 2.0358 5 4.5 0 1.3342-.7428 2.5488-1.8516 3.6445l-1 1a.50004997.50004997 0 0 0 .2793.8535h-4.8594a.50004997.50004997 0 0 0 .2871-.8535l-1-1a.50004997.50004997 0 0 0 -.01-.01c-1.1397-1.1082-1.8477-2.2864-1.8477-3.6406 0-2.4642 2.2081-4.5 5-4.5zm-2.5 12a.50004997.50004997 0 1 0 0 1h1.5v.5a.50004997.50004997 0 0 0 .5.5h1a.50004997.50004997 0 0 0 .5-.5v-.5h1.5a.50004997.50004997 0 1 0 0-1z"/><path d="m1025.4902 1561.0059a.50005.50005 0 0 0 -.3437.8476l.8535.8535v1.543a.50005.50005 0 1 0 1 0v-1.25h2v1.25a.50005.50005 0 1 0 1 0v-1.543l.8535-.8535a.50005.50005 0 0 0 -.707-.707l-.8535.8535h-2.586l-.8535-.8535a.50005.50005 0 0 0 -.3633-.1406z" opacity=".6"/></g><path d="m352.72656 472.9707c-.84514-.0154-1.69148.28718-2.33008.92578l-2.13476 2.13477c-1.14247-.0826-2.16028-.0359-2.98047.30273-.89973.37145-1.59595 1.03428-2.08008 1.92774-.96826 1.78691-1.20117 4.46508-1.20117 8.23828a.50004997.50004997 0 0 0 .5.5c3.7729 0 6.45106-.23075 8.23828-1.19727.89361-.48326 1.5563-1.17766 1.92774-2.07812.33865-.82099.38541-1.84087.30273-2.98633l2.13477-2.13476c1.27714-1.27719 1.21033-3.38733-.0547-4.65235-.63251-.63254-1.47713-.96507-2.32227-.98047zm-.01 1.00391c.59016.0124 1.18356.24213 1.625.68359.88286.88287.92532 2.36759.0547 3.23828l-2.25 2.25a.50004997.50004997 0 0 0 -.14453.4043c.11985 1.19116.0231 2.10252-.26172 2.79297-.28481.69045-.74712 1.18455-1.47851 1.58008-1.27506.68955-3.50366.96361-6.50586 1.02734l3.10352-3.10351c.19538.094.41106.15234.64062.15234.8225 0 1.5-.6775 1.5-1.5s-.6775-1.5-1.5-1.5-1.5.6775-1.5 1.5c0 .22956.0584.44524.15234.64062l-3.10351 3.10352c.0645-3.00197.34215-5.23052 1.0332-6.50586.3964-.73154.8902-1.19371 1.58008-1.47851.68987-.28481 1.59959-.38153 2.78711-.26172a.50004997.50004997 0 0 0 .4043-.14453l2.25-2.25c.43534-.43536 1.02312-.64126 1.61328-.62891z" transform="matrix(100 0 0 100 -34101.501 -47198.507)"/></g></svg>