<svg height="1600" viewBox="0 0 1600 1600" width="1600" xmlns="http://www.w3.org/2000/svg" xmlns:inkscape="http://www.inkscape.org/namespaces/inkscape" xmlns:sodipodi="http://sodipodi.sourceforge.net/DTD/sodipodi-0.dtd"><sodipodi:namedview pagecolor="#303030" showgrid="true"><inkscape:grid id="grid5" units="px" spacingx="100" spacingy="100" color="#4772b3" opacity="0.2" visible="true" /></sodipodi:namedview><g fill="#fff"><path d="m79.570312 578.01758c-.797869-.038-1.571767.27684-2.160156.86523l-1.486328 1.48828c-.615772.57533-.93433 1.35407-.892578 2.1543a.50005.50005 0 1 0 .998047-.0508c-.02687-.51495.155664-.98016.576172-1.37305a.50005.50005 0 0 0 .01172-.0117l1.5-1.5c.411611-.41161.889666-.59872 1.404296-.57422.514631.0245 1.084383.26993 1.638672.82422.554795.5548.809544 1.13546.837891 1.65235.02835.51688-.152405.9848-.574219 1.3789a.50005.50005 0 0 0 -.01367.0117l-1.5 1.5c-.412129.41213-.876932.60352-1.396484.60352a.50005.50005 0 1 0 0 1c.780667 0 1.524905-.31788 2.103516-.89649l1.488281-1.48828c.617686-.57711.936606-1.36125.892578-2.16406-.04403-.80281-.435654-1.60948-1.130859-2.30469-.695711-.69571-1.499006-1.07724-2.296876-1.11523zm-1.080078 3.97851a.50005.50005 0 0 0 -.34375.15039l-5 5a.50005.50005 0 1 0 .707032.70704l5-5a.50005.50005 0 0 0 -.363282-.85743zm-4.929687 2.02149c-.807524-.0482-1.595401.26944-2.175781.89062l-1.488282 1.48828c-.588388.58839-.903228 1.36034-.865234 2.15821.03799.79787.419524 1.60311 1.115234 2.29883.695206.6952 1.503832 1.08487 2.306641 1.1289.802809.044 1.584996-.27294 2.162109-.89062l1.488282-1.48828c.57861-.57862.896484-1.32285.896484-2.10352a.50005.50005 0 1 0 -1 0c0 .51955-.191386.98436-.603516 1.39648l-1.5 1.5a.50005.50005 0 0 0 -.01172.0117c-.394107.42182-.860068.60452-1.376954.57618-.516885-.0283-1.099502-.2831-1.654296-.8379-.55429-.55428-.79776-1.12404-.822266-1.63867-.02451-.51463.160654-.99268.572266-1.40429l1.5-1.5a.50005.50005 0 0 0 .01172-.0117c.39634-.4242.866283-.60725 1.386719-.57618a.50005.50005 0 1 0 .05859-.99804z" transform="matrix(100 0 0 100 -6801.512 -57700.048)"/></g></svg>