<svg height="1600" viewBox="0 0 1600 1600" width="1600" xmlns="http://www.w3.org/2000/svg" xmlns:inkscape="http://www.inkscape.org/namespaces/inkscape" xmlns:sodipodi="http://sodipodi.sourceforge.net/DTD/sodipodi-0.dtd"><sodipodi:namedview pagecolor="#303030" showgrid="true"><inkscape:grid id="grid5" units="px" spacingx="100" spacingy="100" color="#4772b3" opacity="0.2" visible="true" /></sodipodi:namedview><g fill="#fff"><g enable-background="new" transform="matrix(100 0 0 100 36200.003 -68900)"><path d="m-152 214.99997h16v16h-16z" fill-rule="evenodd" opacity="0" transform="matrix(0 -1 1 0 -577 553)"/><path d="m-350.42969 690.01758c-.79787-.038-1.57177.27684-2.16015.86523l-1.48633 1.48828c-.61577.57533-.93433 1.35407-.89258 2.1543a.50005.50005 0 1 0 .99805-.0508c-.0269-.51495.15566-.98016.57617-1.37305a.50005.50005 0 0 0 .0117-.0117l1.5-1.5c.41161-.41161.88966-.59872 1.40429-.57422.51464.0245 1.08439.26993 1.63868.82422.55479.5548.80954 1.13546.83789 1.65235.0283.51688-.15241.9848-.57422 1.3789a.50005.50005 0 0 0 -.0137.0117l-1.5 1.5c-.41213.41213-.87694.60352-1.39649.60352a.50005.50005 0 1 0 0 1c.78067 0 1.52491-.31788 2.10352-.89649l1.48828-1.48828c.61768-.57711.9366-1.36125.89258-2.16406-.044-.80281-.43566-1.60948-1.13086-2.30469-.69571-.69571-1.49901-1.07724-2.29688-1.11523zm-6.00976 6c-.80753-.0482-1.5954.26944-2.17578.89062l-1.48829 1.48828c-.58838.58839-.90322 1.36034-.86523 2.15821.038.79787.41952 1.60311 1.11523 2.29883.69521.6952 1.50384 1.08487 2.30664 1.1289.80281.044 1.585-.27294 2.16211-.89062l1.48829-1.48828c.57861-.57862.89648-1.32285.89648-2.10352a.50005.50005 0 1 0 -1 0c0 .51955-.19139.98436-.60352 1.39648l-1.5 1.5a.50005.50005 0 0 0 -.0117.0117c-.39411.42182-.86007.60452-1.37696.57618-.51688-.0283-1.0995-.2831-1.65429-.8379-.55429-.55428-.79776-1.12404-.82227-1.63867-.0245-.51463.16065-.99268.57227-1.40429l1.5-1.5a.50005.50005 0 0 0 .0117-.0117c.39634-.4242.86629-.60725 1.38672-.57618a.50005.50005 0 1 0 .0586-.99804zm4.92968-2.02149a.50005.50005 0 0 0 -.34375.15039l-5 5a.50005.50005 0 1 0 .70704.70704l5-5a.50005.50005 0 0 0 -.36329-.85743z"/></g></g></svg>