<svg height="1600" viewBox="0 0 1600 1600" width="1600" xmlns="http://www.w3.org/2000/svg" xmlns:inkscape="http://www.inkscape.org/namespaces/inkscape" xmlns:sodipodi="http://sodipodi.sourceforge.net/DTD/sodipodi-0.dtd"><sodipodi:namedview pagecolor="#303030" showgrid="true"><inkscape:grid id="grid5" units="px" spacingx="100" spacingy="100" color="#4772b3" opacity="0.2" visible="true" /></sodipodi:namedview><g fill="#fff"><g enable-background="new" transform="translate(-233 -365)"><path d="m1028 1556c-3.2833 0-6 2.4414-6 5.5 0 1.7056.9046 3.146 2.1523 4.3594l.9942.9941a.50004997.50004997 0 0 0 .3027.1485.50004997.50004997 0 0 0 .051.998h5a.50004997.50004997 0 0 0 .045-.998.50004997.50004997 0 0 0 .3086-.1485l.9981-.998c1.2122-1.1985 2.1465-2.6518 2.1465-4.3535 0-3.0586-2.7167-5.5-6-5.5zm0 1c2.7919 0 5 2.0358 5 4.5 0 1.3342-.7428 2.5488-1.8516 3.6445l-1 1a.50004997.50004997 0 0 0 .2793.8535h-4.8594a.50004997.50004997 0 0 0 .2871-.8535l-1-1a.50004997.50004997 0 0 0 -.01-.01c-1.1397-1.1082-1.8477-2.2864-1.8477-3.6406 0-2.4642 2.2081-4.5 5-4.5zm-2.5 12a.50004997.50004997 0 1 0 0 1h1.5v.5a.50004997.50004997 0 0 0 .5.5h1a.50004997.50004997 0 0 0 .5-.5v-.5h1.5a.50004997.50004997 0 1 0 0-1z"/><path d="m1025.4902 1561.0059a.50005.50005 0 0 0 -.3437.8476l.8535.8535v1.543a.50005.50005 0 1 0 1 0v-1.25h2v1.25a.50005.50005 0 1 0 1 0v-1.543l.8535-.8535a.50005.50005 0 0 0 -.707-.707l-.8535.8535h-2.586l-.8535-.8535a.50005.50005 0 0 0 -.3633-.1406z" opacity=".6"/></g><g enable-background="new" transform="matrix(100 0 0 100 -23599.652 -11499.609)"><path d="m446.5 161c-.27613.00003-.49997.22387-.5.5v8c.00003.27613.22387.49997.5.5h7c.67616.01.67616-1.00956 0-1h-6.5v-7h.5 4.9707 1.0293c.67616.01.67616-1.00956 0-1h-1.0293-4.9707zm4.50718 10.00717-.00718 1.99283h-1.5c-.67616-.01-.67616 1.00956 0 1h1.91992c.0537.009.10843.009.16211 0h1.91797c.67616.01.67616-1.00956 0-1h-1.5l.007-1.99283z" fill-rule="evenodd" opacity=".6" transform="translate(-209.007 -44.0072)"/><path d="m206.5 115.99219c-1.39025 0-2.5 1.19177-2.5 2.61523v1.89258a.50004994.50004994 0 1 0 1 0v-1.89258c0-.91233.68117-1.61523 1.5-1.61523.81884 0 1.5.70289 1.5 1.61523v1.89258a.50004994.50004994 0 1 0 1 0v-1.89258c0-1.42345-1.10974-2.61523-2.5-2.61523zm-2.00781 9a.50004994.50004994 0 0 0 -.49219.50781v1.88477c0 1.42346 1.10975 2.61523 2.5 2.61523 1.39026 0 2.5-1.19178 2.5-2.61523v-1.88477a.50004994.50004994 0 1 0 -1 0v1.88477c0 .91234-.68116 1.61523-1.5 1.61523-.81883 0-1.5-.7029-1.5-1.61523v-1.88477a.50004994.50004994 0 0 0 -.50781-.50781z" transform="translate(42)"/></g></g></svg>