<svg height="1600" viewBox="0 0 1600 1600" width="1600" xmlns="http://www.w3.org/2000/svg" xmlns:inkscape="http://www.inkscape.org/namespaces/inkscape" xmlns:sodipodi="http://sodipodi.sourceforge.net/DTD/sodipodi-0.dtd"><sodipodi:namedview pagecolor="#303030" showgrid="true"><inkscape:grid id="grid5" units="px" spacingx="100" spacingy="100" color="#4772b3" opacity="0.2" visible="true" /></sodipodi:namedview><g fill="#fff"><g enable-background="new" transform="matrix(100 0 0 100 -23599.652 -11499.609)"><path d="m446.5 161c-.27613.00003-.49997.22387-.5.5v8c.00003.27613.22387.49997.5.5h7c.67616.01.67616-1.00956 0-1h-6.5v-7h.5 4.9707 1.0293c.67616.01.67616-1.00956 0-1h-1.0293-4.9707zm4.50718 10.00717-.00718 1.99283h-1.5c-.67616-.01-.67616 1.00956 0 1h1.91992c.0537.009.10843.009.16211 0h1.91797c.67616.01.67616-1.00956 0-1h-1.5l.007-1.99283z" fill-rule="evenodd" opacity=".6" transform="translate(-209.007 -44.0072)"/><path d="m206.5 115.99219c-1.39025 0-2.5 1.19177-2.5 2.61523v1.89258a.50004994.50004994 0 1 0 1 0v-1.89258c0-.91233.68117-1.61523 1.5-1.61523.81884 0 1.5.70289 1.5 1.61523v1.89258a.50004994.50004994 0 1 0 1 0v-1.89258c0-1.42345-1.10974-2.61523-2.5-2.61523zm-2.00781 9a.50004994.50004994 0 0 0 -.49219.50781v1.88477c0 1.42346 1.10975 2.61523 2.5 2.61523 1.39026 0 2.5-1.19178 2.5-2.61523v-1.88477a.50004994.50004994 0 1 0 -1 0v1.88477c0 .91234-.68116 1.61523-1.5 1.61523-.81883 0-1.5-.7029-1.5-1.61523v-1.88477a.50004994.50004994 0 0 0 -.50781-.50781z" transform="translate(42)"/></g></g></svg>