<svg height="1600" viewBox="0 0 1600 1600" width="1600" xmlns="http://www.w3.org/2000/svg" xmlns:inkscape="http://www.inkscape.org/namespaces/inkscape" xmlns:sodipodi="http://sodipodi.sourceforge.net/DTD/sodipodi-0.dtd"><sodipodi:namedview pagecolor="#303030" showgrid="true"><inkscape:grid id="grid5" units="px" spacingx="100" spacingy="100" color="#4772b3" opacity="0.2" visible="true" /></sodipodi:namedview><g fill="#fff"><g enable-background="new"><g enable-background="new" transform="matrix(100 0 0 100 -25699.652 -11499.978)"><path d="m451.00718 171.00717-.00718 1.99283h-1.5c-.67616-.01-.67616 1.00956 0 1h1.91992c.0537.009.10843.009.16211 0h1.91797c.67616.01.67616-1.00956 0-1h-1.5l.007-1.99283zm-4.50718-10.00717a.50005.50005 0 0 0 -.5.5v8a.50005.50005 0 0 0 .5.5h7a.50005.50005 0 1 0 0-1h-6.5v-7h.5 4.9707 1.0293a.50005.50005 0 1 0 0-1h-1.0293-4.9707z" fill-rule="evenodd" opacity=".6" transform="translate(-188.007 -44.0072)"/><path d="m269.5 120c-1.40822 0-2.5 1.26701-2.5 2.75195v1.5c0 1.48181 1.09178 2.74805 2.5 2.74805 1.40823 0 2.5-1.26624 2.5-2.74805v-.32031a.50004994.50004994 0 1 0 -1 0v.32031c0 1.00094-.69911 1.74805-1.5 1.74805-.80086 0-1.5-.74712-1.5-1.74805v-1.5c0-1.00555.69914-1.75195 1.5-1.75195a.50004994.50004994 0 1 0 0-1zm0-4c-1.40823 0-2.5 1.26624-2.5 2.74805v.32031a.50004994.50004994 0 1 0 1 0v-.32031c0-1.00094.69911-1.74805 1.5-1.74805.80086 0 1.5.74712 1.5 1.74805v1.5c0 1.00555-.69914 1.75195-1.5 1.75195a.50004994.50004994 0 1 0 0 1c1.40822 0 2.5-1.26701 2.5-2.75195v-1.5c0-1.48181-1.09178-2.74805-2.5-2.74805z"/></g><path d="m300.348 400.022h600v500h-600z" opacity="0"/></g></g></svg>