<svg height="1500" viewBox="0 0 1400 1500" width="1400" xmlns="http://www.w3.org/2000/svg" xmlns:inkscape="http://www.inkscape.org/namespaces/inkscape" xmlns:sodipodi="http://sodipodi.sourceforge.net/DTD/sodipodi-0.dtd"><sodipodi:namedview pagecolor="#303030" showgrid="true"><inkscape:grid id="grid5" units="px" spacingx="100" spacingy="100" color="#4772b3" opacity="0.2" visible="true" /></sodipodi:namedview><g fill="#fff"><path d="m309.47936 53.98851c-.44941.000088-.6706.546838-.34766.859375l2.13002 2.152115h-5.26172c-2.7555 0-5 2.244499-5 5s2.2445 5 5 5h1.5c.67616.0096.67616-1.009563 0-1h-1.5c-2.21506 0-4-1.784939-4-4s1.78494-4 4-4h5.26172l-2.13002 2.130018c-.4905.471264.23578 1.197538.70704.707032l2.98353-2.983534c.19518-.195265.19518-.511767 0-.707032l-2.98353-3.005631c-.0942-.09737-.2239-.152345-.35938-.152343z" transform="matrix(100 0 0 100 -29998.433 -5299.429)"/></g></svg>