<svg height="900" viewBox="0 0 1100 900" width="1100" xmlns="http://www.w3.org/2000/svg" xmlns:inkscape="http://www.inkscape.org/namespaces/inkscape" xmlns:sodipodi="http://sodipodi.sourceforge.net/DTD/sodipodi-0.dtd"><sodipodi:namedview pagecolor="#303030" showgrid="true"><inkscape:grid id="grid5" units="px" spacingx="100" spacingy="100" color="#4772b3" opacity="0.2" visible="true" /></sodipodi:namedview><g fill="#fff"><path d="m328.48047 226.75a.50005.50005 0 0 0 -.39063.21484l-3.99023 5.72461a.50005.50005 0 0 0 -.0898.27735l-.00981.52539a.50005.50005 0 0 0 .5.50781h8a.50005.50005 0 0 0 .5-.5v-.5a.50005.50005 0 0 0 -.0898-.28516l-4-5.75a.50005.50005 0 0 0 -.42973-.21484zm.0195 1.375 3.39062 4.875h-6.78906z" transform="matrix(100 0 0 96.572189 -32299.997 -21796.42)"/></g></svg>