<svg height="1600" viewBox="0 0 1600 1600" width="1600" xmlns="http://www.w3.org/2000/svg" xmlns:inkscape="http://www.inkscape.org/namespaces/inkscape" xmlns:sodipodi="http://sodipodi.sourceforge.net/DTD/sodipodi-0.dtd"><sodipodi:namedview pagecolor="#303030" showgrid="true"><inkscape:grid id="grid5" units="px" spacingx="100" spacingy="100" color="#4772b3" opacity="0.2" visible="true" /></sodipodi:namedview><g fill="#fff"><g enable-background="new" transform="matrix(100 0 0 100 -15200 -3100)"><path d="m162.47852 32c-.75576.000001-1.40256.282822-1.83399.75-.30821.333747-.37373.80118-.46094 1.25h-.93359c-1.74879 0-3.25 1.267585-3.25 3 0 .03444.0105.06555.0117.09961.32011-.065263.65008-.09961.9883-.09961 2.03325 0 3.79424 1.241664 4.57227 3h2.67773c.73055 0 1.4115-.231259 1.91992-.667969.50842-.436709.83008-1.089905.83008-1.832031 0-1.192468-.94634-2.062761-2.04297-2.306641-.002-.488483.0124-1.101037-.24609-1.74414-.30395-.756154-1.05481-1.449217-2.23242-1.449219z" opacity=".6"/><path d="m157 38c-2.20322 0-4 1.796783-4 4s1.79678 4 4 4 4-1.796783 4-4-1.79678-4-4-4zm0 1c1.66278 0 3 1.337223 3 3s-1.33722 3-3 3-3-1.337223-3-3 1.33722-3 3-3z"/><path d="m154.5 32c.8225 0 1.5.677496 1.5 1.5s-.6775 1.5-1.5 1.5-1.5-.677496-1.5-1.5.6775-1.5 1.5-1.5z"/></g></g></svg>