<svg height="1600" viewBox="0 0 1600 1600" width="1600" xmlns="http://www.w3.org/2000/svg" xmlns:inkscape="http://www.inkscape.org/namespaces/inkscape" xmlns:sodipodi="http://sodipodi.sourceforge.net/DTD/sodipodi-0.dtd"><sodipodi:namedview pagecolor="#303030" showgrid="true"><inkscape:grid id="grid5" units="px" spacingx="100" spacingy="100" color="#4772b3" opacity="0.2" visible="true" /></sodipodi:namedview><g fill="#fff"><g enable-background="new" transform="translate(-233 -365)"><path d="m1028 1556c-3.2833 0-6 2.4414-6 5.5 0 1.7056.9046 3.146 2.1523 4.3594l.9942.9941a.50004997.50004997 0 0 0 .3027.1485.50004997.50004997 0 0 0 .051.998h5a.50004997.50004997 0 0 0 .045-.998.50004997.50004997 0 0 0 .3086-.1485l.9981-.998c1.2122-1.1985 2.1465-2.6518 2.1465-4.3535 0-3.0586-2.7167-5.5-6-5.5zm0 1c2.7919 0 5 2.0358 5 4.5 0 1.3342-.7428 2.5488-1.8516 3.6445l-1 1a.50004997.50004997 0 0 0 .2793.8535h-4.8594a.50004997.50004997 0 0 0 .2871-.8535l-1-1a.50004997.50004997 0 0 0 -.01-.01c-1.1397-1.1082-1.8477-2.2864-1.8477-3.6406 0-2.4642 2.2081-4.5 5-4.5zm-2.5 12a.50004997.50004997 0 1 0 0 1h1.5v.5a.50004997.50004997 0 0 0 .5.5h1a.50004997.50004997 0 0 0 .5-.5v-.5h1.5a.50004997.50004997 0 1 0 0-1z"/><path d="m1025.4902 1561.0059a.50005.50005 0 0 0 -.3437.8476l.8535.8535v1.543a.50005.50005 0 1 0 1 0v-1.25h2v1.25a.50005.50005 0 1 0 1 0v-1.543l.8535-.8535a.50005.50005 0 0 0 -.707-.707l-.8535.8535h-2.586l-.8535-.8535a.50005.50005 0 0 0 -.3633-.1406z" opacity=".6"/></g><g enable-background="new" transform="matrix(100 0 0 100 -15200 -3100)"><path d="m162.47852 32c-.75576.000001-1.40256.282822-1.83399.75-.30821.333747-.37373.80118-.46094 1.25h-.93359c-1.74879 0-3.25 1.267585-3.25 3 0 .03444.0105.06555.0117.09961.32011-.065263.65008-.09961.9883-.09961 2.03325 0 3.79424 1.241664 4.57227 3h2.67773c.73055 0 1.4115-.231259 1.91992-.667969.50842-.436709.83008-1.089905.83008-1.832031 0-1.192468-.94634-2.062761-2.04297-2.306641-.002-.488483.0124-1.101037-.24609-1.74414-.30395-.756154-1.05481-1.449217-2.23242-1.449219z" opacity=".6"/><path d="m157 38c-2.20322 0-4 1.796783-4 4s1.79678 4 4 4 4-1.796783 4-4-1.79678-4-4-4zm0 1c1.66278 0 3 1.337223 3 3s-1.33722 3-3 3-3-1.337223-3-3 1.33722-3 3-3z"/><path d="m154.5 32c.8225 0 1.5.677496 1.5 1.5s-.6775 1.5-1.5 1.5-1.5-.677496-1.5-1.5.6775-1.5 1.5-1.5z"/></g></g></svg>