<svg height="1600" viewBox="0 0 1600 1600" width="1600" xmlns="http://www.w3.org/2000/svg" xmlns:inkscape="http://www.inkscape.org/namespaces/inkscape" xmlns:sodipodi="http://sodipodi.sourceforge.net/DTD/sodipodi-0.dtd"><sodipodi:namedview pagecolor="#303030" showgrid="true"><inkscape:grid id="grid5" units="px" spacingx="100" spacingy="100" color="#4772b3" opacity="0.2" visible="true" /></sodipodi:namedview><g fill="#fff"><g enable-background="new" transform="matrix(100 0 0 100 -4700 -3100)"><path d="m51.5 32a.50005.50005 0 0 0 -.353516.146484l-3 3a.50005.50005 0 0 0 -.146484.353516v10a.50005.50005 0 0 0 .5.5h10a.50005.50005 0 0 0 .353516-.146484l3-3a.50005.50005 0 0 0 .146484-.353516v-10a.50005.50005 0 0 0 -.5-.5zm.207031 1h9.292969v9.292969l-2.707031 2.707031h-9.292969v-9.292969z"/><path d="m60.490234 32.988281a.50005.50005 0 0 0 -.34375.152344l-1.853515 1.859375h-7.792969a.50005.50005 0 1 0 0 1h7.5v7.5a.50005.50005 0 1 0 1 0v-7.792969l1.853516-1.861328a.50005.50005 0 0 0 -.363282-.857422z" opacity=".8"/></g></g></svg>