<svg height="1600" viewBox="0 0 1600 1600" width="1600" xmlns="http://www.w3.org/2000/svg" xmlns:inkscape="http://www.inkscape.org/namespaces/inkscape" xmlns:sodipodi="http://sodipodi.sourceforge.net/DTD/sodipodi-0.dtd"><sodipodi:namedview pagecolor="#303030" showgrid="true"><inkscape:grid id="grid5" units="px" spacingx="100" spacingy="100" color="#4772b3" opacity="0.2" visible="true" /></sodipodi:namedview><g fill="#fff"><path d="m202 494c-3.86008 0-7 3.13992-7 7s3.13992 7 7 7 7-3.13992 7-7-3.13992-7-7-7zm0 1c3.3058 0 5.97583 2.65852 5.99805 5.95898-1.11151.94364-3.00269 2.04102-5.99805 2.04102v4c-3.31963 0-6-2.68037-6-6 0-.0145.002-.0285.002-.043 1.1112.94401 3.00099 2.043 5.998 2.043z" transform="matrix(99.999620512 0 0 99.999620512 -19399.92287688 -49299.8098768)"/></g></svg>