<svg height="1600" viewBox="0 0 1600 1600" width="1600" xmlns="http://www.w3.org/2000/svg" xmlns:inkscape="http://www.inkscape.org/namespaces/inkscape" xmlns:sodipodi="http://sodipodi.sourceforge.net/DTD/sodipodi-0.dtd"><sodipodi:namedview pagecolor="#303030" showgrid="true"><inkscape:grid id="grid5" units="px" spacingx="100" spacingy="100" color="#4772b3" opacity="0.2" visible="true" /></sodipodi:namedview><g fill="#fff"><path d="m34 557c-3.860079 0-7 3.13992-7 7s3.139921 7 7 7 7-3.13992 7-7-3.139921-7-7-7zm0 1c3.305801 0 5.975833 2.65852 5.998047 5.95898-1.111503.94364-3.002682 2.04102-5.998047 2.04102v4c-3.319633 0-6-2.68037-6-6 0-.0145.0019-.0285.002-.043 1.111203.94401 3.000992 2.043 5.998 2.043z" transform="matrix(99.999620512 0 0 99.999620512 -2599.9870308 -55599.7860024)"/></g></svg>