<svg height="1600" viewBox="0 0 1200 1600" width="1200" xmlns="http://www.w3.org/2000/svg" xmlns:inkscape="http://www.inkscape.org/namespaces/inkscape" xmlns:sodipodi="http://sodipodi.sourceforge.net/DTD/sodipodi-0.dtd"><sodipodi:namedview pagecolor="#303030" showgrid="true"><inkscape:grid id="grid5" units="px" spacingx="100" spacingy="100" color="#4772b3" opacity="0.2" visible="true" /></sodipodi:namedview><g fill="#fff"><g enable-background="new" transform="translate(-233 -365)"><path d="m1028 1556c-3.2833 0-6 2.4414-6 5.5 0 1.7056.9046 3.146 2.1523 4.3594l.9942.9941a.50004997.50004997 0 0 0 .3027.1485.50004997.50004997 0 0 0 .051.998h5a.50004997.50004997 0 0 0 .045-.998.50004997.50004997 0 0 0 .3086-.1485l.9981-.998c1.2122-1.1985 2.1465-2.6518 2.1465-4.3535 0-3.0586-2.7167-5.5-6-5.5zm0 1c2.7919 0 5 2.0358 5 4.5 0 1.3342-.7428 2.5488-1.8516 3.6445l-1 1a.50004997.50004997 0 0 0 .2793.8535h-4.8594a.50004997.50004997 0 0 0 .2871-.8535l-1-1a.50004997.50004997 0 0 0 -.01-.01c-1.1397-1.1082-1.8477-2.2864-1.8477-3.6406 0-2.4642 2.2081-4.5 5-4.5zm-2.5 12a.50004997.50004997 0 1 0 0 1h1.5v.5a.50004997.50004997 0 0 0 .5.5h1a.50004997.50004997 0 0 0 .5-.5v-.5h1.5a.50004997.50004997 0 1 0 0-1z"/><path d="m1025.4902 1561.0059a.50005.50005 0 0 0 -.3437.8476l.8535.8535v1.543a.50005.50005 0 1 0 1 0v-1.25h2v1.25a.50005.50005 0 1 0 1 0v-1.543l.8535-.8535a.50005.50005 0 0 0 -.707-.707l-.8535.8535h-2.586l-.8535-.8535a.50005.50005 0 0 0 -.3633-.1406z" opacity=".6"/></g><path d="m54.75 284a.50004997.50004997 0 0 0 -.431641.24805l-3.646484 6.25a.50004997.50004997 0 0 0 -.002.002c-1.211575 2.0985-.741006 4.77251 1.115234 6.33008 1.856239 1.55756 4.573449 1.55756 6.429688 0 1.85624-1.55757 2.326809-4.23158 1.115234-6.33008a.50004997.50004997 0 0 0 -.002-.002l-3.646484-6.25a.50004997.50004997 0 0 0 -.431547-.24805zm.25 1.06445 3.464844 5.9375c.970958 1.6837.594513 3.81305-.894532 5.0625-1.489569 1.2499-3.651055 1.2499-5.140624 0-1.489045-1.24945-1.86549-3.3788-.894532-5.0625v-.00195zm-.511719 2.92969a.50004997.50004997 0 0 0 -.429687.27148l-1.697266 3.20704c-.166111.28617-.283806.59778-.349609.92187a.50005872.50005872 0 1 0 .980469.19727c.04414-.2174.122796-.42496.234374-.61719a.50004997.50004997 0 0 0 .0098-.0176l1.705078-3.22265a.50004997.50004997 0 0 0 -.453125-.74024z" transform="matrix(100 0 0 100 -4899.9953 -28299.915)"/></g></svg>