<svg height="1600" viewBox="0 0 1600 1600" width="1600" xmlns="http://www.w3.org/2000/svg" xmlns:inkscape="http://www.inkscape.org/namespaces/inkscape" xmlns:sodipodi="http://sodipodi.sourceforge.net/DTD/sodipodi-0.dtd"><sodipodi:namedview pagecolor="#303030" showgrid="true"><inkscape:grid id="grid5" units="px" spacingx="100" spacingy="100" color="#4772b3" opacity="0.2" visible="true" /></sodipodi:namedview><g fill="#fff"><g enable-background="new" transform="translate(-233 -365)"><path d="m1028 1556c-3.2833 0-6 2.4414-6 5.5 0 1.7056.9046 3.146 2.1523 4.3594l.9942.9941a.50004997.50004997 0 0 0 .3027.1485.50004997.50004997 0 0 0 .051.998h5a.50004997.50004997 0 0 0 .045-.998.50004997.50004997 0 0 0 .3086-.1485l.9981-.998c1.2122-1.1985 2.1465-2.6518 2.1465-4.3535 0-3.0586-2.7167-5.5-6-5.5zm0 1c2.7919 0 5 2.0358 5 4.5 0 1.3342-.7428 2.5488-1.8516 3.6445l-1 1a.50004997.50004997 0 0 0 .2793.8535h-4.8594a.50004997.50004997 0 0 0 .2871-.8535l-1-1a.50004997.50004997 0 0 0 -.01-.01c-1.1397-1.1082-1.8477-2.2864-1.8477-3.6406 0-2.4642 2.2081-4.5 5-4.5zm-2.5 12a.50004997.50004997 0 1 0 0 1h1.5v.5a.50004997.50004997 0 0 0 .5.5h1a.50004997.50004997 0 0 0 .5-.5v-.5h1.5a.50004997.50004997 0 1 0 0-1z"/><path d="m1025.4902 1561.0059a.50005.50005 0 0 0 -.3437.8476l.8535.8535v1.543a.50005.50005 0 1 0 1 0v-1.25h2v1.25a.50005.50005 0 1 0 1 0v-1.543l.8535-.8535a.50005.50005 0 0 0 -.707-.707l-.8535.8535h-2.586l-.8535-.8535a.50005.50005 0 0 0 -.3633-.1406z" opacity=".6"/></g><g enable-background="new" transform="matrix(100 0 0 100 -34100 -32499.961)"><path d="m180.82031 32.001953c-2.53256.0762-4.74925 1.739751-5.52929 4.150391-.66549 2.0566-.15791 4.2781 1.25 5.847656h-.29102a.50005.50005 0 0 0 -.35352.146484l-1.75 1.75a.50005.50005 0 0 0 -.14648.353516v1.25a.50005.50005 0 0 0 .5.5h13a.50005.50005 0 0 0 .5-.5v-1.25a.50005.50005 0 0 0 -.14648-.353516l-1.75-1.75a.50005.50005 0 0 0 -.35352-.146484h-.29492c1.50007-1.670137 1.96594-4.059297 1.13281-6.1875-.92362-2.35937-3.23501-3.886777-5.76758-3.810547zm.0332 1.099609c2.07177-.0624 3.95341 1.181239 4.70898 3.111329.75557 1.9301.2178 4.121692-1.3457 5.482421a.55028534.55028534 0 0 0 -.17773.304688h-.53906a.50005.50005 0 1 0 0 1h2.04297l1.45703 1.457031v.542969h-12v-.542969l1.45703-1.457031h4.04297a.50005.50005 0 1 0 0-1h-2.37695a.55005501.55005501 0 0 0 -.11133-.117188c-1.64252-1.264239-2.31195-3.418585-1.67383-5.390624.63812-1.972051 2.44385-3.328265 4.51563-3.390626z" transform="translate(168 294)"/><path d="m348.55469 328.69141a.50005.50005 0 0 0 -.0859.008c-1.42662.22929-2.54672 1.3539-2.77148 2.78125a.50012645.50012645 0 1 0 .98828.1543c.15806-1.00378.94009-1.78798 1.94336-1.94922a.50005.50005 0 0 0 -.0742-.99414z"/></g></g></svg>