<svg height="1600" viewBox="0 0 1600 1600" width="1600" xmlns="http://www.w3.org/2000/svg" xmlns:inkscape="http://www.inkscape.org/namespaces/inkscape" xmlns:sodipodi="http://sodipodi.sourceforge.net/DTD/sodipodi-0.dtd"><sodipodi:namedview pagecolor="#303030" showgrid="true"><inkscape:grid id="grid5" units="px" spacingx="100" spacingy="100" color="#4772b3" opacity="0.2" visible="true" /></sodipodi:namedview><g fill="#fff"><g enable-background="new" fill-rule="evenodd" transform="matrix(100 0 0 100 -2600 -3100)"><path d="m34 32c-3.860074 0-7 3.139926-7 7 0 3.860083 3.139927 7 7 7 3.860082 0 7-3.139918 7-7 0-3.860073-3.139917-7-7-7zm0 1c3.319643 0 6 2.680365 6 6 0 3.319644-2.680356 6-6 6-3.319635 0-6-2.680357-6-6 0-3.319634 2.680366-6 6-6z"/><path d="m28.507812 38.244141a.50005.50005 0 0 0 -.351562.857421c1.365675 1.376118 2.745434 1.898447 4.34375 1.898438h1.5c2.575017.000352 3.847654-.615233 4.722656-1.052734a.50005.50005 0 1 0 -.445312-.894532c-.874998.437499-1.852367.947598-4.277344.947266h-1.5c-1.401674.000007-2.403186-.362534-3.632812-1.601562a.50005.50005 0 0 0 -.359376-.154297z" opacity=".8"/></g></g></svg>