<svg height="1600" viewBox="0 0 1600 1600" width="1600" xmlns="http://www.w3.org/2000/svg" xmlns:inkscape="http://www.inkscape.org/namespaces/inkscape" xmlns:sodipodi="http://sodipodi.sourceforge.net/DTD/sodipodi-0.dtd"><sodipodi:namedview pagecolor="#303030" showgrid="true"><inkscape:grid id="grid5" units="px" spacingx="100" spacingy="100" color="#4772b3" opacity="0.2" visible="true" /></sodipodi:namedview><g fill="#fff"><g enable-background="new" transform="matrix(100 0 0 100 -29900.19600000001 -9399.965)"><path d="m263.50391 94.996094c-.25245 0-.505.169732-.5.507812l-.00391 1.496094h-2.5a.50005.50005 0 0 0 -.5.5v2.5l-1.49414-.002c-.67616-.0096-.67616 1.01 0 1l1.49414.002v2l-1.49414-.002c-.67616-.01-.67616 1.01 0 1l1.49414.002v2.5a.50005.50005 0 0 0 .5.5h2.5l.004 1.49609c-.01.67616 1.00956.67616 1 0l-.004-1.49609h2l.004 1.49609c-.01.67616 1.00956.67616 1 0l-.004-1.49609h2.5a.50005.50005 0 0 0 .5-.5v-2.5l1.49805-.002c.67616.01.67616-1.00956 0-1l-1.49805.002v-2l1.49805-.002c.67616.01.67616-1.009563 0-1.000003l-1.49805.002003v-2.5a.50005.50005 0 0 0 -.5-.5h-2.5l.004-1.496094c.01-.67616-1.01-.67616-1 0l-.004 1.496094h-2l.004-1.496094c.005-.33808-.24756-.507812-.5-.507812zm-2.50391 3.003906h8v8h-8z" transform="translate(42)"/><path d="m305.5 100a.50005.50005 0 0 0 -.5.5v3a.50005.50005 0 0 0 .5.5h3a.50005.50005 0 0 0 .5-.5v-3a.50005.50005 0 0 0 -.5-.5zm.5 1h2v2h-2z" opacity=".6"/></g></g></svg>