<svg id="svg5" height="1400" viewBox="0 0 1600 1400" width="1600" xmlns="http://www.w3.org/2000/svg" xmlns:inkscape="http://www.inkscape.org/namespaces/inkscape" xmlns:sodipodi="http://sodipodi.sourceforge.net/DTD/sodipodi-0.dtd"><sodipodi:namedview pagecolor="#303030" showgrid="true"><inkscape:grid id="grid5" units="px" spacingx="100" spacingy="100" color="#4772b3" opacity="0.2" visible="true" /></sodipodi:namedview><g fill="#fff" transform="matrix(100 0 0 100 -29899.991 -64600)"><path id="path2" d="m302 649v8h4v-8zm1 1h2v1h-2zm0 2h2v1h-2zm0 2h2v1h-2z"/><path id="path3" d="m301.5 647c-.82235 0-1.5.67765-1.5 1.5v9c0 .82235.67765 1.5 1.5 1.5h11c.82235 0 1.5-.67765 1.5-1.5v-9c0-.82235-.67765-1.5-1.5-1.5zm-.5 1h12v10h-12z" opacity=".6"/></g></svg>