<svg height="1600" viewBox="0 0 1600 1600" width="1600" xmlns="http://www.w3.org/2000/svg" xmlns:inkscape="http://www.inkscape.org/namespaces/inkscape" xmlns:sodipodi="http://sodipodi.sourceforge.net/DTD/sodipodi-0.dtd"><sodipodi:namedview pagecolor="#303030" showgrid="true"><inkscape:grid id="grid5" units="px" spacingx="100" spacingy="100" color="#4772b3" opacity="0.2" visible="true" /></sodipodi:namedview><g fill="#fff"><g enable-background="new" fill-rule="evenodd" transform="matrix(100 0 0 100 -6800 -38800)"><path d="m76 388.9375c-3.894591 0-7.0625 3.1679-7.0625 7.0625 0 3.89459 3.167908 7.0625 7.0625 7.0625s7.0625-3.16791 7.0625-7.0625c0-3.8946-3.167909-7.0625-7.0625-7.0625zm0 1c3.354153 0 6.0625 2.70834 6.0625 6.0625 0 3.35415-2.708348 6.0625-6.0625 6.0625s-6.0625-2.70835-6.0625-6.0625c0-3.35416 2.708347-6.0625 6.0625-6.0625z"/><path d="m75.476562 390.74414a.50005.50005 0 0 0 -.40039.24024c-.891756 1.42498-1.076172 2.99553-1.076172 5.01562 0 .33476.05553.60654.06836.92188-1.166939-.0798-2.112698-.42664-3.201171-1.52344a.50005.50005 0 1 0 -.710938.70312c1.257685 1.26731 2.545083 1.75219 3.986328 1.83008.125352 1.11893.352857 2.1649.933594 3.08594a.50122772.50122772 0 1 0 .847656-.53516c-.452752-.71805-.660262-1.55463-.781251-2.48242h.857422c2.575016.00035 3.847653-.61523 4.722656-1.05273a.50005.50005 0 1 0 -.445312-.89454c-.874997.4375-1.852366.9476-4.277344.94727h-.927734c-.016779-.34103-.072266-.61986-.072266-1 0-1.96025.172858-3.28436.923828-4.48438a.50005.50005 0 0 0 -.447266-.77148z" opacity=".8"/></g></g></svg>