<svg height="1600" viewBox="0 0 1600 1600" width="1600" xmlns="http://www.w3.org/2000/svg" xmlns:inkscape="http://www.inkscape.org/namespaces/inkscape" xmlns:sodipodi="http://sodipodi.sourceforge.net/DTD/sodipodi-0.dtd"><sodipodi:namedview pagecolor="#303030" showgrid="true"><inkscape:grid id="grid5" units="px" spacingx="100" spacingy="100" color="#4772b3" opacity="0.2" visible="true" /></sodipodi:namedview><g fill="#fff"><g enable-background="new" transform="matrix(100 0 0 100 -2600 -38800)"><path d="m30.5 389a.50005.50005 0 0 0 -.353516.14648l-3 3a.50005.50005 0 0 0 -.146484.35352v10a.50005.50005 0 0 0 .5.5h10a.50005.50005 0 0 0 .353516-.14648l3-3a.50005.50005 0 0 0 .146484-.35352v-10a.50005.50005 0 0 0 -.5-.5zm.207031 1h9.292969v9.29297l-2.707031 2.70703h-9.292969v-9.29297z"/><path d="m39.490234 389.98828a.50005.50005 0 0 0 -.34375.15234l-1.853515 1.85938h-7.792969a.50005.50005 0 1 0 0 1h7.5v7.5a.50005.50005 0 1 0 1 0v-7.79297l1.853516-1.86133a.50005.50005 0 0 0 -.363282-.85742z" opacity=".8"/></g></g></svg>