<svg height="1600" viewBox="0 0 1600 1600" width="1600" xmlns="http://www.w3.org/2000/svg" xmlns:inkscape="http://www.inkscape.org/namespaces/inkscape" xmlns:sodipodi="http://sodipodi.sourceforge.net/DTD/sodipodi-0.dtd"><sodipodi:namedview pagecolor="#303030" showgrid="true"><inkscape:grid id="grid5" units="px" spacingx="100" spacingy="100" color="#4772b3" opacity="0.2" visible="true" /></sodipodi:namedview><g fill="#fff"><g enable-background="new" transform="translate(-233 -365)"><path d="m1028 1556c-3.2833 0-6 2.4414-6 5.5 0 1.7056.9046 3.146 2.1523 4.3594l.9942.9941a.50004997.50004997 0 0 0 .3027.1485.50004997.50004997 0 0 0 .051.998h5a.50004997.50004997 0 0 0 .045-.998.50004997.50004997 0 0 0 .3086-.1485l.9981-.998c1.2122-1.1985 2.1465-2.6518 2.1465-4.3535 0-3.0586-2.7167-5.5-6-5.5zm0 1c2.7919 0 5 2.0358 5 4.5 0 1.3342-.7428 2.5488-1.8516 3.6445l-1 1a.50004997.50004997 0 0 0 .2793.8535h-4.8594a.50004997.50004997 0 0 0 .2871-.8535l-1-1a.50004997.50004997 0 0 0 -.01-.01c-1.1397-1.1082-1.8477-2.2864-1.8477-3.6406 0-2.4642 2.2081-4.5 5-4.5zm-2.5 12a.50004997.50004997 0 1 0 0 1h1.5v.5a.50004997.50004997 0 0 0 .5.5h1a.50004997.50004997 0 0 0 .5-.5v-.5h1.5a.50004997.50004997 0 1 0 0-1z"/><path d="m1025.4902 1561.0059a.50005.50005 0 0 0 -.3437.8476l.8535.8535v1.543a.50005.50005 0 1 0 1 0v-1.25h2v1.25a.50005.50005 0 1 0 1 0v-1.543l.8535-.8535a.50005.50005 0 0 0 -.707-.707l-.8535.8535h-2.586l-.8535-.8535a.50005.50005 0 0 0 -.3633-.1406z" opacity=".6"/></g><path d="m201.5 389a.50005.50005 0 0 0 -.41406.2207l-5.75 8.5a.50005.50005 0 0 0 -.0254.041c-.21263.39071-.31054.81822-.31054 1.2383 0 1.21742.89627 2.23231 2.16602 2.91602 1.26974.6837 2.96631 1.08398 4.83398 1.08398s3.56424-.40028 4.83398-1.08398c1.26975-.68371 2.16602-1.6986 2.16602-2.91602 0-.41956-.0964-.84696-.3125-1.24023a.50005.50005 0 0 0 -.0234-.0391l-5.75-8.5a.50005.50005 0 0 0 -.4141-.22067zm.26562 1h.46876l5.58007 8.24805c.1275.23498.18555.4834.18555.75195 0 .71558-.55783 1.45211-1.64062 2.03516-1.0828.58304-2.63722.96484-4.35938.96484s-3.27658-.3818-4.35938-.96484c-1.08279-.58305-1.64062-1.31958-1.64062-2.03516 0-.26272.0617-.52241.1875-.75586z" transform="matrix(100 0 0 100 -19400 -38800)"/></g></svg>