<svg height="1600" viewBox="0 0 1800 1600" width="1800" xmlns="http://www.w3.org/2000/svg" xmlns:inkscape="http://www.inkscape.org/namespaces/inkscape" xmlns:sodipodi="http://sodipodi.sourceforge.net/DTD/sodipodi-0.dtd"><sodipodi:namedview pagecolor="#303030" showgrid="true"><inkscape:grid id="grid5" units="px" spacingx="100" spacingy="100" color="#4772b3" opacity="0.2" visible="true" /></sodipodi:namedview><g fill="#fff"><g enable-background="new" transform="matrix(100 0 0 100 -13000 -38799.9999)"><path d="m135.5 389a.50004997.50004997 0 0 0 -.33008.12305l-2 1.75a.50004997.50004997 0 0 0 -.16992.37695v1.75h-1.5a.50004997.50004997 0 0 0 -.5.5v1.5c0 .98611.74054 1.6889 1.56836 1.91992.71525.19961 1.51421.0482 2.18359-.38476l1.24805 1.40429v2.31055c0 .88889.39419 1.61848.96875 2.07812.57456.45965 1.30625.67188 2.03125.67188s1.45669-.21223 2.03125-.67188c.57456-.45964.96875-1.18923.96875-2.07812v-2.31055l1.24805-1.40429c.66938.43298 1.46834.58437 2.18359.38476.82782-.23102 1.56836-.93381 1.56836-1.91992v-1.5a.50004997.50004997 0 0 0 -.5-.5h-1.5v-1.75a.50004997.50004997 0 0 0 -.16992-.37695l-2-1.75a.50004997.50004997 0 0 0 -.33008-.12305h-2a.50004997.50004997 0 0 0 -.35352.14648l-.85351.85352h-.58594l-.85351-.85352a.50004997.50004997 0 0 0 -.35352-.14648zm.1875 1h1.60547l.85351.85352a.50004997.50004997 0 0 0 .35352.14648h1a.50004997.50004997 0 0 0 .35352-.14648l.85351-.85352h1.60547l1.6875 1.47852v2.02148a.50004997.50004997 0 0 0 .5.5h1.5v1c0 .51389-.32196.8111-.83789.95508-.39408.10997-.8212-.0629-1.20703-.25a.50004997.50004997 0 0 0 -.82813-.53711l-2 2.25a.50004997.50004997 0 0 0 -.12695.33203v2.5c0 .61111-.23081 1.00652-.59375 1.29688-.36294.29035-.88125.45312-1.40625.45312s-1.04331-.16277-1.40625-.45312c-.36294-.29036-.59375-.68577-.59375-1.29688v-2.5a.50004997.50004997 0 0 0 -.12695-.33203l-2-2.25a.50004997.50004997 0 0 0 -.82813.53711c-.38583.18707-.81295.35997-1.20703.25-.51593-.14398-.83789-.44119-.83789-.95508v-1h1.5a.50004997.50004997 0 0 0 .5-.5v-2.02344z"/><path d="m137 392a.50005.50005 0 0 0 -.35352.14648l-.5.5a.50005.50005 0 0 0 -.14648.35352v.5a.50005.50005 0 1 0 1 0v-.29297l.20703-.20703h.29297a.50005.50005 0 1 0 0-1zm4 0a.50005.50005 0 0 0 -.35352.14648l-.5.5a.50005.50005 0 0 0 -.14648.35352v.5a.50005.50005 0 1 0 1 0v-.29297l.20703-.20703h.29297a.50005.50005 0 1 0 0-1zm-2.5 3a.50005.50005 0 1 0 0 1h1a.50005.50005 0 1 0 0-1z" opacity=".8"/></g></g></svg>