<svg height="1600" viewBox="0 0 1600 1600" width="1600" xmlns="http://www.w3.org/2000/svg" xmlns:inkscape="http://www.inkscape.org/namespaces/inkscape" xmlns:sodipodi="http://sodipodi.sourceforge.net/DTD/sodipodi-0.dtd"><sodipodi:namedview pagecolor="#303030" showgrid="true"><inkscape:grid id="grid5" units="px" spacingx="100" spacingy="100" color="#4772b3" opacity="0.2" visible="true" /></sodipodi:namedview><g fill="#fff"><g enable-background="new" fill-rule="evenodd" transform="matrix(100 0 0 100 -8850 -38800)"><path d="m96 389a.50005.50005 0 0 0 -.240234.0605l-5.5 3a.50005.50005 0 0 0 -.259766.4395v7a.50005.50005 0 0 0 .259766.43945l5.5 3a.50005.50005 0 0 0 .240234.06055h1a.50005.50005 0 0 0 .240234-.0605l5.499996-3a.50005.50005 0 0 0 .25977-.4395v-7a.50005.50005 0 0 0 -.25977-.43945l-5.499996-3a.50005.50005 0 0 0 -.240234-.06055zm.126953 1h.746094l5.126953 2.79688v6.40624l-5.126953 2.79688h-.746094l-5.126953-2.79688v-6.40624z"/><path d="m92.5 392a.50005.50005 0 1 0 0 1h6.013672 1.986328a.50005.50005 0 1 0 0-1zm6.013672 1a.50005.50005 0 0 0 -.404297.1875l-3.595703 4.49609-2.613281-3.48437a.50078095.50078095 0 1 0 -.800782.60156l3 4a.50005.50005 0 0 0 .386719.19922.50005.50005 0 0 0 .404297-.1875l3.595703-4.49609 2.613282 3.48437a.50078015.50078015 0 1 0 .80078-.60156l-2.999999-4a.50005.50005 0 0 0 -.386719-.19922zm-4.027344 6h-1.986328a.50005.50005 0 1 0 0 1h8a.50005.50005 0 1 0 0-1z" opacity=".8"/></g></g></svg>