<svg height="1600" viewBox="0 0 1400 1600" width="1400" xmlns="http://www.w3.org/2000/svg" xmlns:inkscape="http://www.inkscape.org/namespaces/inkscape" xmlns:sodipodi="http://sodipodi.sourceforge.net/DTD/sodipodi-0.dtd"><sodipodi:namedview pagecolor="#303030" showgrid="true"><inkscape:grid id="grid5" units="px" spacingx="100" spacingy="100" color="#4772b3" opacity="0.2" visible="true" /></sodipodi:namedview><g fill="#fff"><g enable-background="new" transform="matrix(100 0 0 100 -15300 -38800)"><path d="m156.49609 393.24609a.50005.50005 0 0 0 -.27343.91993c.927.618 2.37713.83398 3.77734.83398 1.39708 0 2.84978-.21561 3.77734-.83398a.50005.50005 0 1 0 -.55468-.83204c-.57244.38163-1.95046.66602-3.22266.66602-1.27563 0-2.64966-.28402-3.22266-.66602a.50005.50005 0 0 0 -.28125-.0879z" opacity=".8"/><path d="m160 389c-1.5802 0-3.01318.28529-4.0957.77734-.54126.24603-.9977.54261-1.33789.90821-.3402.3656-.56641.82065-.56641 1.31445v3 5c0 .4938.22621.94885.56641 1.31445.34019.3656.79663.66218 1.33789.90821 1.08252.49205 2.5155.77734 4.0957.77734s3.01318-.28529 4.0957-.77734c.54126-.24603.9977-.54261 1.33789-.90821.3402-.3656.56641-.82065.56641-1.31445v-5-3c0-.4938-.22621-.94885-.56641-1.31445-.34019-.3656-.79663-.66218-1.33789-.90821-1.08252-.49205-2.5155-.77734-4.0957-.77734zm0 1c1.45737 0 2.77356.27473 3.68164.6875.45404.20638.8031.4471 1.01953.67969s.29883.43625.29883.63281v3 5c0 .19656-.0824.40022-.29883.63281s-.56549.47331-1.01953.67969c-.90808.41277-2.22427.6875-3.68164.6875s-2.77356-.27473-3.68164-.6875c-.45404-.20638-.8031-.4471-1.01953-.67969s-.29883-.43625-.29883-.63281v-5-3c0-.19656.0824-.40022.29883-.63281s.56549-.47331 1.01953-.67969c.90808-.41277 2.22427-.6875 3.68164-.6875z"/></g></g></svg>