<svg height="1600" viewBox="0 0 1600 1600" width="1600" xmlns="http://www.w3.org/2000/svg" xmlns:inkscape="http://www.inkscape.org/namespaces/inkscape" xmlns:sodipodi="http://sodipodi.sourceforge.net/DTD/sodipodi-0.dtd"><sodipodi:namedview pagecolor="#303030" showgrid="true"><inkscape:grid id="grid5" units="px" spacingx="100" spacingy="100" color="#4772b3" opacity="0.2" visible="true" /></sodipodi:namedview><g fill="#fff"><path d="m225.02539 389.05664c-1.23014.0645-2.42356.6345-3.37891 1.58984l-4 4c-.95534.95535-1.53001 2.15146-1.59765 3.38477-.0676 1.23331.38786 2.49571 1.41406 3.50977 1.02392 1.0118 2.28158 1.46686 3.51172 1.40234 1.23014-.0645 2.42356-.6345 3.37891-1.58984l4-4c.95534-.95535 1.53001-2.15146 1.59765-3.38477.0676-1.23331-.38786-2.49571-1.41406-3.50977-1.02392-1.0118-2.28158-1.46686-3.51172-1.40234zm.0527.99805c.95617-.0502 1.91199.28134 2.75586 1.11523.8416.83164 1.17171 1.78562 1.11914 2.74414-.0526.95853-.50462 1.93041-1.30664 2.73242l-4 4c-.80201.80202-1.76844 1.24868-2.7246 1.29883-.95617.0502-1.91199-.28134-2.75586-1.11523-.8416-.83164-1.17171-1.78562-1.11914-2.74414.0526-.95853.50462-1.93041 1.30664-2.73242l4-4c.80201-.80202 1.76844-1.24868 2.7246-1.29883z" transform="matrix(100 0 0 100 -21500 -38800)"/></g></svg>