<svg height="1600" viewBox="0 0 1600 1600" width="1600" xmlns="http://www.w3.org/2000/svg" xmlns:inkscape="http://www.inkscape.org/namespaces/inkscape" xmlns:sodipodi="http://sodipodi.sourceforge.net/DTD/sodipodi-0.dtd"><sodipodi:namedview pagecolor="#303030" showgrid="true"><inkscape:grid id="grid5" units="px" spacingx="100" spacingy="100" color="#4772b3" opacity="0.2" visible="true" /></sodipodi:namedview><g fill="#fff"><path d="m201.5 389a.50005.50005 0 0 0 -.41406.2207l-5.75 8.5a.50005.50005 0 0 0 -.0254.041c-.21263.39071-.31054.81822-.31054 1.2383 0 1.21742.89627 2.23231 2.16602 2.91602 1.26974.6837 2.96631 1.08398 4.83398 1.08398s3.56424-.40028 4.83398-1.08398c1.26975-.68371 2.16602-1.6986 2.16602-2.91602 0-.41956-.0964-.84696-.3125-1.24023a.50005.50005 0 0 0 -.0234-.0391l-5.75-8.5a.50005.50005 0 0 0 -.4141-.22067zm.26562 1h.46876l5.58007 8.24805c.1275.23498.18555.4834.18555.75195 0 .71558-.55783 1.45211-1.64062 2.03516-1.0828.58304-2.63722.96484-4.35938.96484s-3.27658-.3818-4.35938-.96484c-1.08279-.58305-1.64062-1.31958-1.64062-2.03516 0-.26272.0617-.52241.1875-.75586z" transform="matrix(100 0 0 100 -19400 -38800)"/></g></svg>