<svg height="1400" viewBox="0 0 1800 1400" width="1800" xmlns="http://www.w3.org/2000/svg" xmlns:inkscape="http://www.inkscape.org/namespaces/inkscape" xmlns:sodipodi="http://sodipodi.sourceforge.net/DTD/sodipodi-0.dtd"><sodipodi:namedview pagecolor="#303030" showgrid="true"><inkscape:grid id="grid5" units="px" spacingx="100" spacingy="100" color="#4772b3" opacity="0.2" visible="true" /></sodipodi:namedview><g fill="#fff"><g enable-background="new" transform="translate(-233 -365)"><path d="m1028 1556c-3.2833 0-6 2.4414-6 5.5 0 1.7056.9046 3.146 2.1523 4.3594l.9942.9941a.50004997.50004997 0 0 0 .3027.1485.50004997.50004997 0 0 0 .051.998h5a.50004997.50004997 0 0 0 .045-.998.50004997.50004997 0 0 0 .3086-.1485l.9981-.998c1.2122-1.1985 2.1465-2.6518 2.1465-4.3535 0-3.0586-2.7167-5.5-6-5.5zm0 1c2.7919 0 5 2.0358 5 4.5 0 1.3342-.7428 2.5488-1.8516 3.6445l-1 1a.50004997.50004997 0 0 0 .2793.8535h-4.8594a.50004997.50004997 0 0 0 .2871-.8535l-1-1a.50004997.50004997 0 0 0 -.01-.01c-1.1397-1.1082-1.8477-2.2864-1.8477-3.6406 0-2.4642 2.2081-4.5 5-4.5zm-2.5 12a.50004997.50004997 0 1 0 0 1h1.5v.5a.50004997.50004997 0 0 0 .5.5h1a.50004997.50004997 0 0 0 .5-.5v-.5h1.5a.50004997.50004997 0 1 0 0-1z"/><path d="m1025.4902 1561.0059a.50005.50005 0 0 0 -.3437.8476l.8535.8535v1.543a.50005.50005 0 1 0 1 0v-1.25h2v1.25a.50005.50005 0 1 0 1 0v-1.543l.8535-.8535a.50005.50005 0 0 0 -.707-.707l-.8535.8535h-2.586l-.8535-.8535a.50005.50005 0 0 0 -.3633-.1406z" opacity=".6"/></g><g enable-background="new" fill-rule="evenodd" transform="matrix(100 0 0 100 -17200 -38900)"><path d="m181 390c-2.19521 0-4.16987.64081-5.61914 1.70898-1.44928 1.06818-2.38087 2.59156-2.38086 4.29102 0 1.69945.93159 3.22284 2.38086 4.29102 1.44927 1.06817 3.42393 1.70898 5.61914 1.70898s4.16987-.64081 5.61914-1.70898c1.44927-1.06818 2.38086-2.59157 2.38086-4.29102s-.93159-3.22284-2.38086-4.29102c-1.44927-1.06817-3.42392-1.70898-5.61914-1.70898zm0 1c1.99941 0 3.77332.59085 5.02539 1.51367 1.25207.92283 1.97461 2.14978 1.97461 3.48633s-.72254 2.5635-1.97461 3.48633c-1.25207.92282-3.02598 1.51367-5.02539 1.51367s-3.77332-.59085-5.02539-1.51367c-1.25207-.92283-1.97461-2.14978-1.97461-3.48633 0-1.33654.72254-2.5635 1.97461-3.48633 1.25207-.92282 3.02598-1.51367 5.02539-1.51367z"/><path d="m178.49219 394.49219a.50005.50005 0 0 0 -.49219.50976v.25c.00055.26762.10104.43267.23438.61719.13369.18504.32089.36854.5664.53516.49103.33322 1.21831.59296 2.19727.5957.98079.003 1.71165-.25661 2.20312-.5918.24574-.16759.43113-.35326.56445-.53906.13296-.18529.23383-.34989.23438-.61719v-.002-.24805a.50005.50005 0 1 0 -1-.004v.2521c0-.11242.009-.0414-.0469.0371-.0564.0786-.16044.18856-.3164.29492-.31192.21273-.83026.42022-1.63477.41797-.80517-.002-1.32795-.21164-1.64062-.42383-.15634-.10609-.26023-.21522-.31641-.29297-.05616-.07774-.0449-.14593-.0449-.03319v-.25195a.50005.50005 0 0 0 -.50781-.50586z" opacity=".8"/></g></g></svg>