<svg height="1600" viewBox="0 0 1600 1600" width="1600" xmlns="http://www.w3.org/2000/svg" xmlns:inkscape="http://www.inkscape.org/namespaces/inkscape" xmlns:sodipodi="http://sodipodi.sourceforge.net/DTD/sodipodi-0.dtd"><sodipodi:namedview pagecolor="#303030" showgrid="true"><inkscape:grid id="grid5" units="px" spacingx="100" spacingy="100" color="#4772b3" opacity="0.2" visible="true" /></sodipodi:namedview><g fill="#fff"><g enable-background="new" transform="matrix(100 0 0 100 -10998.34 -38804.785)"><path d="m111.4668 389a.50005.50005 0 0 0 -.5.5v13.0957a.50005.50005 0 0 0 .5.5h13.0332a.50005.50005 0 0 0 .5-.5v-13.0957a.50005.50005 0 0 0 -.5-.5zm.5 1h12.0332v12.0957h-12.0332z"/><path d="m115.49219 390.99219a.50005.50005 0 0 0 -.49219.50781v1.5h-1.5a.50005.50005 0 1 0 0 1h1.5v4h-1.5a.50005.50005 0 1 0 0 1h1.5v1.5a.50005.50005 0 1 0 1 0v-1.5h4v1.5a.50005.50005 0 1 0 1 0v-1.5h1.5a.50005.50005 0 1 0 0-1h-1.5v-4h1.5a.50005.50005 0 1 0 0-1h-1.5v-1.5a.50005.50005 0 1 0 -1 0v1.5h-4v-1.5a.50005.50005 0 0 0 -.50781-.50781zm.50781 3.00781h4v4h-4z" opacity=".8"/></g></g></svg>