<svg height="1600" viewBox="0 0 1600 1600" width="1600" xmlns="http://www.w3.org/2000/svg" xmlns:inkscape="http://www.inkscape.org/namespaces/inkscape" xmlns:sodipodi="http://sodipodi.sourceforge.net/DTD/sodipodi-0.dtd"><sodipodi:namedview pagecolor="#303030" showgrid="true"><inkscape:grid id="grid5" units="px" spacingx="100" spacingy="100" color="#4772b3" opacity="0.2" visible="true" /></sodipodi:namedview><g fill="#fff"><g enable-background="new" transform="translate(-233 -365)"><path d="m1028 1556c-3.2833 0-6 2.4414-6 5.5 0 1.7056.9046 3.146 2.1523 4.3594l.9942.9941a.50004997.50004997 0 0 0 .3027.1485.50004997.50004997 0 0 0 .051.998h5a.50004997.50004997 0 0 0 .045-.998.50004997.50004997 0 0 0 .3086-.1485l.9981-.998c1.2122-1.1985 2.1465-2.6518 2.1465-4.3535 0-3.0586-2.7167-5.5-6-5.5zm0 1c2.7919 0 5 2.0358 5 4.5 0 1.3342-.7428 2.5488-1.8516 3.6445l-1 1a.50004997.50004997 0 0 0 .2793.8535h-4.8594a.50004997.50004997 0 0 0 .2871-.8535l-1-1a.50004997.50004997 0 0 0 -.01-.01c-1.1397-1.1082-1.8477-2.2864-1.8477-3.6406 0-2.4642 2.2081-4.5 5-4.5zm-2.5 12a.50004997.50004997 0 1 0 0 1h1.5v.5a.50004997.50004997 0 0 0 .5.5h1a.50004997.50004997 0 0 0 .5-.5v-.5h1.5a.50004997.50004997 0 1 0 0-1z"/><path d="m1025.4902 1561.0059a.50005.50005 0 0 0 -.3437.8476l.8535.8535v1.543a.50005.50005 0 1 0 1 0v-1.25h2v1.25a.50005.50005 0 1 0 1 0v-1.543l.8535-.8535a.50005.50005 0 0 0 -.707-.707l-.8535.8535h-2.586l-.8535-.8535a.50005.50005 0 0 0 -.3633-.1406z" opacity=".6"/></g><g enable-background="new" fill-rule="evenodd" transform="matrix(100 0 0 100 -46699.99999999999 -38800)"><path d="m475 388.9375c-3.89459 0-7.0625 3.1679-7.0625 7.0625 0 3.89459 3.16791 7.0625 7.0625 7.0625s7.0625-3.16791 7.0625-7.0625c0-3.8946-3.16791-7.0625-7.0625-7.0625zm0 1c3.35415 0 6.0625 2.70834 6.0625 6.0625 0 3.35415-2.70835 6.0625-6.0625 6.0625s-6.0625-2.70835-6.0625-6.0625c0-3.35416 2.70835-6.0625 6.0625-6.0625z"/><path d="m474.47656 390.74414a.50005.50005 0 0 0 -.40039.24024c-.89175 1.42498-1.07617 2.99553-1.07617 5.01562 0 1.96736.17366 3.58622 1.07617 5.01758a.50122941.50122941 0 1 0 .84766-.53516c-.75263-1.19364-.92383-2.57438-.92383-4.48242 0-1.96025.17286-3.28436.92383-4.48438a.50005.50005 0 0 0 -.44727-.77148z" opacity=".8"/></g></g></svg>