<svg height="1600" viewBox="0 0 1600 1600" width="1600" xmlns="http://www.w3.org/2000/svg" xmlns:inkscape="http://www.inkscape.org/namespaces/inkscape" xmlns:sodipodi="http://sodipodi.sourceforge.net/DTD/sodipodi-0.dtd"><sodipodi:namedview pagecolor="#303030" showgrid="true"><inkscape:grid id="grid5" units="px" spacingx="100" spacingy="100" color="#4772b3" opacity="0.2" visible="true" /></sodipodi:namedview><g fill="#fff"><g enable-background="new" fill-rule="evenodd" transform="matrix(100 0 0 100 -46699.99999999999 -38800)"><path d="m475 388.9375c-3.89459 0-7.0625 3.1679-7.0625 7.0625 0 3.89459 3.16791 7.0625 7.0625 7.0625s7.0625-3.16791 7.0625-7.0625c0-3.8946-3.16791-7.0625-7.0625-7.0625zm0 1c3.35415 0 6.0625 2.70834 6.0625 6.0625 0 3.35415-2.70835 6.0625-6.0625 6.0625s-6.0625-2.70835-6.0625-6.0625c0-3.35416 2.70835-6.0625 6.0625-6.0625z"/><path d="m474.47656 390.74414a.50005.50005 0 0 0 -.40039.24024c-.89175 1.42498-1.07617 2.99553-1.07617 5.01562 0 1.96736.17366 3.58622 1.07617 5.01758a.50122941.50122941 0 1 0 .84766-.53516c-.75263-1.19364-.92383-2.57438-.92383-4.48242 0-1.96025.17286-3.28436.92383-4.48438a.50005.50005 0 0 0 -.44727-.77148z" opacity=".8"/></g></g></svg>