<svg height="1600" viewBox="0 0 1600 1600" width="1600" xmlns="http://www.w3.org/2000/svg" xmlns:inkscape="http://www.inkscape.org/namespaces/inkscape" xmlns:sodipodi="http://sodipodi.sourceforge.net/DTD/sodipodi-0.dtd"><sodipodi:namedview pagecolor="#303030" showgrid="true"><inkscape:grid id="grid5" units="px" spacingx="100" spacingy="100" color="#4772b3" opacity="0.2" visible="true" /></sodipodi:namedview><g fill="#fff"><g enable-background="new" transform="translate(-233 -365)"><path d="m1028 1556c-3.2833 0-6 2.4414-6 5.5 0 1.7056.9046 3.146 2.1523 4.3594l.9942.9941a.50004997.50004997 0 0 0 .3027.1485.50004997.50004997 0 0 0 .051.998h5a.50004997.50004997 0 0 0 .045-.998.50004997.50004997 0 0 0 .3086-.1485l.9981-.998c1.2122-1.1985 2.1465-2.6518 2.1465-4.3535 0-3.0586-2.7167-5.5-6-5.5zm0 1c2.7919 0 5 2.0358 5 4.5 0 1.3342-.7428 2.5488-1.8516 3.6445l-1 1a.50004997.50004997 0 0 0 .2793.8535h-4.8594a.50004997.50004997 0 0 0 .2871-.8535l-1-1a.50004997.50004997 0 0 0 -.01-.01c-1.1397-1.1082-1.8477-2.2864-1.8477-3.6406 0-2.4642 2.2081-4.5 5-4.5zm-2.5 12a.50004997.50004997 0 1 0 0 1h1.5v.5a.50004997.50004997 0 0 0 .5.5h1a.50004997.50004997 0 0 0 .5-.5v-.5h1.5a.50004997.50004997 0 1 0 0-1z"/><path d="m1025.4902 1561.0059a.50005.50005 0 0 0 -.3437.8476l.8535.8535v1.543a.50005.50005 0 1 0 1 0v-1.25h2v1.25a.50005.50005 0 1 0 1 0v-1.543l.8535-.8535a.50005.50005 0 0 0 -.707-.707l-.8535.8535h-2.586l-.8535-.8535a.50005.50005 0 0 0 -.3633-.1406z" opacity=".6"/></g><g enable-background="new" transform="matrix(100 0 0 100 -50899.99999999999 -38800)"><path d="m519.02539 389.05664c-1.23014.0645-2.42356.6345-3.37891 1.58984l-4 4c-.95534.95535-1.53001 2.15146-1.59765 3.38477-.0676 1.23331.38786 2.49571 1.41406 3.50977 1.02392 1.0118 2.28158 1.46686 3.51172 1.40234 1.23014-.0645 2.42356-.6345 3.37891-1.58984l4-4c.95534-.95535 1.53001-2.15146 1.59765-3.38477.0676-1.23331-.38786-2.4957-1.41406-3.50977-1.02392-1.0118-2.28158-1.46686-3.51172-1.40234zm.0527.99805c.95617-.0502 1.91199.28134 2.75586 1.11523.8416.83165 1.17171 1.78562 1.11914 2.74414-.0526.95853-.50462 1.93042-1.30664 2.73242l-4 4c-.80201.80202-1.76844 1.24868-2.7246 1.29883-.95617.0502-1.91199-.28134-2.75586-1.11523-.8416-.83164-1.17171-1.78562-1.11914-2.74414.0526-.95853.50462-1.93041 1.30664-2.73242l4-4c.80201-.80202 1.76844-1.24868 2.7246-1.29883z"/><path d="m517.47266 391.99414a.50005.50005 0 0 0 -.45899.62305c.18668.77642.28491 1.42494 1.14063 2.24414.815.78022 1.39282.94312 2.24023 1.12695a.50005.50005 0 1 0 .21094-.97656c-.84931-.18425-1.03849-.18255-1.75977-.87305-.72218-.69136-.65665-.91268-.85937-1.75586a.50005.50005 0 0 0 -.51367-.38867z" fill-rule="evenodd" opacity=".8"/></g></g></svg>