<svg height="1600" viewBox="0 0 1600 1600" width="1600" xmlns="http://www.w3.org/2000/svg" xmlns:inkscape="http://www.inkscape.org/namespaces/inkscape" xmlns:sodipodi="http://sodipodi.sourceforge.net/DTD/sodipodi-0.dtd"><sodipodi:namedview pagecolor="#303030" showgrid="true"><inkscape:grid id="grid5" units="px" spacingx="100" spacingy="100" color="#4772b3" opacity="0.2" visible="true" /></sodipodi:namedview><g fill="#fff"><g enable-background="new" transform="matrix(100 0 0 100 -44600 -38800)"><path d="m452.5 389c-.79539.00016-1.5587.31644-2.12109.87891l-2.5 2.5c-.56247.56239-.87875 1.3257-.87891 2.12109v5.5c.00017 1.65084 1.34916 2.99983 3 3h5.5c.79539-.00016 1.5587-.31644 2.12109-.87891l2.5-2.5c.56247-.56238.87875-1.3257.87891-2.12109v-5.75c-.00008-.79524-.25969-1.50187-.75391-1.99609s-1.20085-.75383-1.99609-.75391zm0 1h5.75c.58541.00006 1.00348.17535 1.28906.46094.28559.28558.46088.70365.46094 1.28906v5.75c-.0001.53061-.21073 1.03891-.58594 1.41406l-2.5 2.5c-.37517.37522-.88345.58584-1.41406.58594h-5.5c-1.11046-.00011-1.99989-.88954-2-2v-5.5c.0001-.53061.21072-1.03889.58594-1.41406l2.5-2.5c.37517-.37522.88345-.58584 1.41406-.58594z"/><path d="m458.49023 390.99609a.50005.50005 0 0 0 -.34375.15039l-1 1a.50005.50005 0 1 0 .70704.70704l1-1a.50005.50005 0 0 0 -.36329-.85743zm-7.99023 2.00391a.50005.50005 0 1 0 0 1h4a.50005.50005 0 1 0 0-1zm5.99219 1.99219a.50005.50005 0 0 0 -.49219.50781v4a.50005.50005 0 1 0 1 0v-4a.50005.50005 0 0 0 -.50781-.50781z" opacity=".8"/></g></g></svg>