<svg height="1600" viewBox="0 0 1600 1600" width="1600" xmlns="http://www.w3.org/2000/svg" xmlns:inkscape="http://www.inkscape.org/namespaces/inkscape" xmlns:sodipodi="http://sodipodi.sourceforge.net/DTD/sodipodi-0.dtd"><sodipodi:namedview pagecolor="#303030" showgrid="true"><inkscape:grid id="grid5" units="px" spacingx="100" spacingy="100" color="#4772b3" opacity="0.2" visible="true" /></sodipodi:namedview><g fill="#fff"><g enable-background="new" fill-rule="evenodd" transform="matrix(100 0 0 100 -48799.99999999999 -38800.0052)"><path d="m499.91406 389.05664c-.77439-.15321-1.63518-.1241-2.51367.0664-1.75698.38102-3.63558 1.4051-5.25391 3.02343s-2.64241 3.49693-3.02343 5.25391c-.38103 1.75698-.11706 3.43764.96093 4.51563 1.07799 1.07798 2.75865 1.34196 4.51563.96093 1.75698-.38102 3.63558-1.40511 5.25391-3.02343 1.61832-1.61833 2.64241-3.49693 3.02343-5.25391s.11705-3.43764-.96093-4.51563c-.539-.53899-1.22757-.87413-2.00196-1.02734zm-.21289.97656c.61146.11888 1.12564.37564 1.50781.75782.76435.76434 1.0245 2.05973.69141 3.5957s-1.26116 3.26702-2.75391 4.75976c-1.49274 1.49275-3.22379 2.42081-4.75976 2.75391s-2.83136.0729-3.5957-.69141c-.76435-.76434-1.02451-2.05973-.69141-3.5957.33309-1.53597 1.26117-3.26702 2.75391-4.75976 1.49274-1.49275 3.22379-2.42082 4.75976-2.75391.76799-.16655 1.47643-.18529 2.08789-.0664z"/><path d="m493.47266 393.99414a.50005.50005 0 0 0 -.45899.62305c.22122.92011.78151 1.92168 1.64063 2.74414.81151.77689 1.74924 1.41197 2.74023 1.62695a.50005.50005 0 1 0 .21094-.97656c-.70573-.1531-1.535-.67922-2.25977-1.37305-.71878-.6881-1.19119-1.55637-1.35937-2.25586a.50005.50005 0 0 0 -.51367-.38867z" opacity=".8"/></g></g></svg>