<svg height="1600" viewBox="0 0 1600 1600" width="1600" xmlns="http://www.w3.org/2000/svg" xmlns:inkscape="http://www.inkscape.org/namespaces/inkscape" xmlns:sodipodi="http://sodipodi.sourceforge.net/DTD/sodipodi-0.dtd"><sodipodi:namedview pagecolor="#303030" showgrid="true"><inkscape:grid id="grid5" units="px" spacingx="100" spacingy="100" color="#4772b3" opacity="0.2" visible="true" /></sodipodi:namedview><g fill="#fff"><path d="m429.50781 389c-1.93498 0-3.50781 1.57283-3.50781 3.50781v6.98438c0 1.93498 1.57283 3.50781 3.50781 3.50781h6.98438c1.93498 0 3.50781-1.57283 3.50781-3.50781v-6.98438c0-1.93498-1.57283-3.50781-3.50781-3.50781zm0 1h6.98438c1.39828 0 2.50781 1.10953 2.50781 2.50781v6.98438c0 1.39828-1.10953 2.50781-2.50781 2.50781h-6.98438c-1.39828 0-2.50781-1.10953-2.50781-2.50781v-6.98438c0-1.39828 1.10953-2.50781 2.50781-2.50781z" transform="matrix(100 0 0 100 -42500 -38800)"/></g></svg>