<svg height="1600" viewBox="0 0 1600 1600" width="1600" xmlns="http://www.w3.org/2000/svg" xmlns:inkscape="http://www.inkscape.org/namespaces/inkscape" xmlns:sodipodi="http://sodipodi.sourceforge.net/DTD/sodipodi-0.dtd"><sodipodi:namedview pagecolor="#303030" showgrid="true"><inkscape:grid id="grid5" units="px" spacingx="100" spacingy="100" color="#4772b3" opacity="0.2" visible="true" /></sodipodi:namedview><g fill="#fff"><g enable-background="new" transform="matrix(100 0 0 100 -50899.99999999999 -38800)"><path d="m519.02539 389.05664c-1.23014.0645-2.42356.6345-3.37891 1.58984l-4 4c-.95534.95535-1.53001 2.15146-1.59765 3.38477-.0676 1.23331.38786 2.49571 1.41406 3.50977 1.02392 1.0118 2.28158 1.46686 3.51172 1.40234 1.23014-.0645 2.42356-.6345 3.37891-1.58984l4-4c.95534-.95535 1.53001-2.15146 1.59765-3.38477.0676-1.23331-.38786-2.4957-1.41406-3.50977-1.02392-1.0118-2.28158-1.46686-3.51172-1.40234zm.0527.99805c.95617-.0502 1.91199.28134 2.75586 1.11523.8416.83165 1.17171 1.78562 1.11914 2.74414-.0526.95853-.50462 1.93042-1.30664 2.73242l-4 4c-.80201.80202-1.76844 1.24868-2.7246 1.29883-.95617.0502-1.91199-.28134-2.75586-1.11523-.8416-.83164-1.17171-1.78562-1.11914-2.74414.0526-.95853.50462-1.93041 1.30664-2.73242l4-4c.80201-.80202 1.76844-1.24868 2.7246-1.29883z"/><path d="m517.47266 391.99414a.50005.50005 0 0 0 -.45899.62305c.18668.77642.28491 1.42494 1.14063 2.24414.815.78022 1.39282.94312 2.24023 1.12695a.50005.50005 0 1 0 .21094-.97656c-.84931-.18425-1.03849-.18255-1.75977-.87305-.72218-.69136-.65665-.91268-.85937-1.75586a.50005.50005 0 0 0 -.51367-.38867z" fill-rule="evenodd" opacity=".8"/></g></g></svg>