<svg height="1600" viewBox="0 0 1600 1600" width="1600" xmlns="http://www.w3.org/2000/svg" xmlns:inkscape="http://www.inkscape.org/namespaces/inkscape" xmlns:sodipodi="http://sodipodi.sourceforge.net/DTD/sodipodi-0.dtd"><sodipodi:namedview pagecolor="#303030" showgrid="true"><inkscape:grid id="grid5" units="px" spacingx="100" spacingy="100" color="#4772b3" opacity="0.2" visible="true" /></sodipodi:namedview><g fill="#fff"><path d="m142.16211 494.00195c-.3928-.016-.79264.0268-1.18555.13086-1.05738.28017-1.9221.97933-2.44336 1.89453-2.51672-.22477-4.91162 1.1516-5.97656 3.44727-1.07271 2.31243-.56559 5.05473 1.26367 6.83008 1.82926 1.77534 4.58788 2.20194 6.86719 1.06054 2.20676-1.10505 3.49065-3.45007 3.27539-5.89257.59118-.33407 1.10512-.8107 1.46875-1.41797.83525-1.3949.74131-3.16186-.23633-4.46094-.73322-.97431-1.8548-1.54394-3.0332-1.5918zm-.041 1c.88379.0353 1.72432.4611 2.27539 1.19336.73477.97635.80549 2.29734.17774 3.34571-.62775 1.04836-1.82561 1.61054-3.0332 1.42382a.50005006.50005006 0 1 0 -.15235.98828c.54314.084 1.08325.0449 1.59571-.0859.0521 1.92511-.99653 3.7274-2.7461 4.60351-1.90239.95265-4.19394.59896-5.7207-.88281-1.52677-1.48177-1.94806-3.76137-1.05274-5.69141.84423-1.81987 2.6839-2.93301 4.66602-2.88086-.0398.15646-.0768.3137-.0977.47657a.50013931.50013931 0 0 0 .99219.12695c.15491-1.21208 1.02585-2.20656 2.20703-2.51953.2953-.0782.59408-.10943.88867-.0977z" transform="matrix(100 0 0 100 -13099.9389 -49299.9033)"/></g></svg>