<svg height="1600" viewBox="0 0 1600 1600" width="1600" xmlns="http://www.w3.org/2000/svg" xmlns:inkscape="http://www.inkscape.org/namespaces/inkscape" xmlns:sodipodi="http://sodipodi.sourceforge.net/DTD/sodipodi-0.dtd"><sodipodi:namedview pagecolor="#303030" showgrid="true"><inkscape:grid id="grid5" units="px" spacingx="100" spacingy="100" color="#4772b3" opacity="0.2" visible="true" /></sodipodi:namedview><g fill="#fff"><g enable-background="new" transform="matrix(100 0 0 100 -13100 -28400)"><path d="m132.5 285a.50005.50005 0 0 0 -.5.5v13a.50005.50005 0 0 0 .5.5h13a.50005.50005 0 0 0 .5-.5v-13a.50005.50005 0 0 0 -.5-.5zm.5 1h12v12h-12z" opacity=".5"/><path d="m139 287c-2.75493 0-5 2.24492-5 5s2.24507 5 5 5 5-2.24492 5-5-2.24507-5-5-5zm0 1.09961c2.1604 0 3.90039 1.73975 3.90039 3.90039s-1.73999 3.90039-3.90039 3.90039-3.90039-1.73975-3.90039-3.90039 1.73999-3.90039 3.90039-3.90039z"/></g></g></svg>