<svg height="1600" viewBox="0 0 1600 1600" width="1600" xmlns="http://www.w3.org/2000/svg" xmlns:inkscape="http://www.inkscape.org/namespaces/inkscape" xmlns:sodipodi="http://sodipodi.sourceforge.net/DTD/sodipodi-0.dtd"><sodipodi:namedview pagecolor="#303030" showgrid="true"><inkscape:grid id="grid5" units="px" spacingx="100" spacingy="100" color="#4772b3" opacity="0.2" visible="true" /></sodipodi:namedview><g fill="#fff"><g enable-background="new" transform="matrix(-100 0 0 100 31499.613 -28300.693)"><path d="m310.5 287-10.00781.008a.50005.50005 0 0 0 -.5.5v10a.50005.50005 0 0 0 .5.5h10a.50005.50005 0 0 0 .5-.5l.00781-10.008a.50005.50005 0 0 0 -.5-.5zm-.5 1-.008 9.00781h-9v-9.00195z" opacity=".5"/><path d="m300.5 284a.50005.50005 0 1 0 0 1h10a.50005.50005 0 1 0 0-1zm12.99219 2.99219a.50005.50005 0 0 0 -.49219.50781l-.008 10.00586a.50005.50005 0 1 0 1 .002l.008-10.00786a.50005.50005 0 0 0 -.50781-.50781z"/></g></g></svg>