<svg height="1600" viewBox="0 0 1600 1600" width="1600" xmlns="http://www.w3.org/2000/svg" xmlns:inkscape="http://www.inkscape.org/namespaces/inkscape" xmlns:sodipodi="http://sodipodi.sourceforge.net/DTD/sodipodi-0.dtd"><sodipodi:namedview pagecolor="#303030" showgrid="true"><inkscape:grid id="grid5" units="px" spacingx="100" spacingy="100" color="#4772b3" opacity="0.2" visible="true" /></sodipodi:namedview><g fill="#fff"><g enable-background="new" transform="matrix(-100 0 0 100 20999.65 -28300.395)"><path d="m286.49219 242a.50005.50005 0 0 0 -.5.5l.00781 13.00781a.50005.50005 0 0 0 .5.5h6a.50005.50005 0 0 0 .5-.5v-13.00781a.50005.50005 0 0 0 -.5-.5zm.5 1h4.72656l-4.7207 10.22852zm5.00781 1.77344v10.23437h-4.72266z" transform="matrix(-1 0 0 1 487.993 42.0001)"/><path d="m202.99219 284v1h5.00781l-.008 12.00781-4.99805-.008-.002 1 5.5.008a.50005.50005 0 0 0 .5-.5l.00805-13.00781a.50005.50005 0 0 0 -.5-.5z" opacity=".5"/></g></g></svg>