<svg height="1600" viewBox="0 0 1600 1600" width="1600" xmlns="http://www.w3.org/2000/svg" xmlns:inkscape="http://www.inkscape.org/namespaces/inkscape" xmlns:sodipodi="http://sodipodi.sourceforge.net/DTD/sodipodi-0.dtd"><sodipodi:namedview pagecolor="#303030" showgrid="true"><inkscape:grid id="grid5" units="px" spacingx="100" spacingy="100" color="#4772b3" opacity="0.2" visible="true" /></sodipodi:namedview><g fill="#fff"><g enable-background="new" transform="matrix(100 0 0 100 -2600 -28300)"><path d="m48.5 267c-.276131.00003-.499972.22387-.5.5v9c.000028.27613.223869.49997.5.5h13c.276131-.00003.499972-.22387.5-.5v-6c-.000028-.27613-.223869-.49997-.5-.5h-7.5v-2.5c-.000028-.27613-.223869-.49997-.5-.5zm.5 1h4v2h-4zm0 3h2v2h-2zm3 0h4v2h-4zm5 0h4v2h-4zm-8 3h4v2h-4zm5 0h4v2h-4zm5 0h2v2h-2z" transform="translate(-21 21)"/><path d="m40.5 284a.50005.50005 0 0 1 .5.5v3a.50005.50005 0 0 1 -.5.5h-5a.50005.50005 0 0 1 -.5-.5v-3a.50005.50005 0 0 1 .5-.5zm-.5 1h-4v2h4z" opacity=".5"/></g></g></svg>