<svg height="1500" viewBox="0 0 1600 1500" width="1600" xmlns="http://www.w3.org/2000/svg" xmlns:inkscape="http://www.inkscape.org/namespaces/inkscape" xmlns:sodipodi="http://sodipodi.sourceforge.net/DTD/sodipodi-0.dtd"><sodipodi:namedview pagecolor="#303030" showgrid="true"><inkscape:grid id="grid5" units="px" spacingx="100" spacingy="100" color="#4772b3" opacity="0.2" visible="true" /></sodipodi:namedview><g fill="#fff"><g enable-background="new" transform="translate(-233 -365)"><path d="m1028 1556c-3.2833 0-6 2.4414-6 5.5 0 1.7056.9046 3.146 2.1523 4.3594l.9942.9941a.50004997.50004997 0 0 0 .3027.1485.50004997.50004997 0 0 0 .051.998h5a.50004997.50004997 0 0 0 .045-.998.50004997.50004997 0 0 0 .3086-.1485l.9981-.998c1.2122-1.1985 2.1465-2.6518 2.1465-4.3535 0-3.0586-2.7167-5.5-6-5.5zm0 1c2.7919 0 5 2.0358 5 4.5 0 1.3342-.7428 2.5488-1.8516 3.6445l-1 1a.50004997.50004997 0 0 0 .2793.8535h-4.8594a.50004997.50004997 0 0 0 .2871-.8535l-1-1a.50004997.50004997 0 0 0 -.01-.01c-1.1397-1.1082-1.8477-2.2864-1.8477-3.6406 0-2.4642 2.2081-4.5 5-4.5zm-2.5 12a.50004997.50004997 0 1 0 0 1h1.5v.5a.50004997.50004997 0 0 0 .5.5h1a.50004997.50004997 0 0 0 .5-.5v-.5h1.5a.50004997.50004997 0 1 0 0-1z"/><path d="m1025.4902 1561.0059a.50005.50005 0 0 0 -.3437.8476l.8535.8535v1.543a.50005.50005 0 1 0 1 0v-1.25h2v1.25a.50005.50005 0 1 0 1 0v-1.543l.8535-.8535a.50005.50005 0 0 0 -.707-.707l-.8535.8535h-2.586l-.8535-.8535a.50005.50005 0 0 0 -.3633-.1406z" opacity=".6"/></g><path d="m219.50391 243a.50005.50005 0 0 0 -.45118.27734c-.67049 1.34099-1.7194 1.72266-2.55273 1.72266a.50005.50005 0 1 0 0 1c1.00319 0 2.15225-.6005 3-1.7832.82397 1.14952 1.9314 1.74461 2.91406 1.77734a.50005.50005 0 0 0 .002 0 .50005.50005 0 0 0 .084.006.50005.50005 0 0 0 .0996-.008c.97927-.0378 2.08023-.63118 2.90039-1.77539.84775 1.1827 1.99681 1.7832 3 1.7832a.50005.50005 0 1 0 0-1c-.83333 0-1.88224-.38167-2.55273-1.72266a.50005.50005 0 0 0 -.44341-.27729.50005.50005 0 0 0 -.45118.27734c-.67049 1.34099-1.7194 1.72266-2.55273 1.72266s-1.88224-.38167-2.55273-1.72266a.50005.50005 0 0 0 -.44336-.27734zm1 5a.50005.50005 0 0 0 -.45118.27734c-.67049 1.34099-1.7194 1.72266-2.55273 1.72266a.50005.50005 0 1 0 0 1c1.00319 0 2.15225-.6005 3-1.7832.82397 1.14952 1.9314 1.74461 2.91406 1.77734a.50005.50005 0 0 0 .002 0 .50005.50005 0 0 0 .084.006.50005.50005 0 0 0 .0859-.006.50005.50005 0 0 0 .0137-.002c.97927-.0378 2.08023-.63118 2.90039-1.77539.84775 1.1827 1.99681 1.7832 3 1.7832a.50005.50005 0 1 0 0-1c-.83333 0-1.88224-.38167-2.55273-1.72266a.50005.50005 0 0 0 -.44341-.27729.50005.50005 0 0 0 -.45118.27734c-.67049 1.34099-1.7194 1.72266-2.55273 1.72266s-1.88224-.38167-2.55273-1.72266a.50005.50005 0 0 0 -.44336-.27734zm-1 5a.50005.50005 0 0 0 -.45118.27734c-.67049 1.34099-1.7194 1.72266-2.55273 1.72266a.50005.50005 0 1 0 0 1c1.00319 0 2.15225-.6005 3-1.7832.82397 1.14952 1.9314 1.74461 2.91406 1.77734a.50005.50005 0 0 0 .002 0 .50005.50005 0 0 0 .084.006.50005.50005 0 0 0 .0996-.008c.97927-.0378 2.08023-.63118 2.90039-1.77539.84775 1.1827 1.99681 1.7832 3 1.7832a.50005.50005 0 1 0 0-1c-.83333 0-1.88224-.38167-2.55273-1.72266a.50005.50005 0 0 0 -.44341-.27729.50005.50005 0 0 0 -.45118.27734c-.67049 1.34099-1.7194 1.72266-2.55273 1.72266s-1.88224-.38167-2.55273-1.72266a.50005.50005 0 0 0 -.44336-.27734z" transform="matrix(100 0 0 100 -21500.003 -24200.011)"/></g></svg>