<svg height="1600" viewBox="0 0 1600 1600" width="1600" xmlns="http://www.w3.org/2000/svg" xmlns:inkscape="http://www.inkscape.org/namespaces/inkscape" xmlns:sodipodi="http://sodipodi.sourceforge.net/DTD/sodipodi-0.dtd"><sodipodi:namedview pagecolor="#303030" showgrid="true"><inkscape:grid id="grid5" units="px" spacingx="100" spacingy="100" color="#4772b3" opacity="0.2" visible="true" /></sodipodi:namedview><g fill="#fff"><g enable-background="new" transform="translate(-233 -365)"><path d="m1028 1556c-3.2833 0-6 2.4414-6 5.5 0 1.7056.9046 3.146 2.1523 4.3594l.9942.9941a.50004997.50004997 0 0 0 .3027.1485.50004997.50004997 0 0 0 .051.998h5a.50004997.50004997 0 0 0 .045-.998.50004997.50004997 0 0 0 .3086-.1485l.9981-.998c1.2122-1.1985 2.1465-2.6518 2.1465-4.3535 0-3.0586-2.7167-5.5-6-5.5zm0 1c2.7919 0 5 2.0358 5 4.5 0 1.3342-.7428 2.5488-1.8516 3.6445l-1 1a.50004997.50004997 0 0 0 .2793.8535h-4.8594a.50004997.50004997 0 0 0 .2871-.8535l-1-1a.50004997.50004997 0 0 0 -.01-.01c-1.1397-1.1082-1.8477-2.2864-1.8477-3.6406 0-2.4642 2.2081-4.5 5-4.5zm-2.5 12a.50004997.50004997 0 1 0 0 1h1.5v.5a.50004997.50004997 0 0 0 .5.5h1a.50004997.50004997 0 0 0 .5-.5v-.5h1.5a.50004997.50004997 0 1 0 0-1z"/><path d="m1025.4902 1561.0059a.50005.50005 0 0 0 -.3437.8476l.8535.8535v1.543a.50005.50005 0 1 0 1 0v-1.25h2v1.25a.50005.50005 0 1 0 1 0v-1.543l.8535-.8535a.50005.50005 0 0 0 -.707-.707l-.8535.8535h-2.586l-.8535-.8535a.50005.50005 0 0 0 -.3633-.1406z" opacity=".6"/></g><path d="m27.460938 284.01172a.50005.50005 0 1 0 .04297.99805c3.348416-.1388 6.600566 1.12874 8.972656 3.49609 2.372091 2.36735 3.645762 5.61811 3.513672 8.9668a.50038206.50038206 0 1 0 1 .0391c.143077-3.62723-1.237239-7.14863-3.80664-9.71289-2.569402-2.56427-6.09572-3.93745-9.722656-3.78711zm-.0332 4.00586a.50005.50005 0 1 0 .0625.99804c2.281784-.14542 4.516597.69332 6.140625 2.30274 1.62403 1.60942 2.482218 3.83613 2.357422 6.11914a.50005.50005 0 1 0 .998047.0547c.140364-2.5678-.823774-5.07459-2.65039-6.88477-1.826617-1.81018-4.341781-2.75341-6.908204-2.58984zm.03711 4.01172a.50005.50005 0 1 0 .107422.99414c1.199607-.12917 2.392346.29002 3.248046 1.14062.855701.8506 1.282148 2.03988 1.160157 3.24024a.50005.50005 0 1 0 .99414.10156c.152408-1.49965-.380162-2.99006-1.449218-4.05274s-2.561836-1.5852-4.060547-1.42382zm.535152 3.9707c-.546362 0-1 .45364-1 1s.453638 1 1 1 1-.45364 1-1-.453638-1-1-1z" transform="matrix(-100 0 0 100 4197.6029 -28300.03)"/></g></svg>