<svg height="1600" viewBox="0 0 1600 1600" width="1600" xmlns="http://www.w3.org/2000/svg" xmlns:inkscape="http://www.inkscape.org/namespaces/inkscape" xmlns:sodipodi="http://sodipodi.sourceforge.net/DTD/sodipodi-0.dtd"><sodipodi:namedview pagecolor="#303030" showgrid="true"><inkscape:grid id="grid5" units="px" spacingx="100" spacingy="100" color="#4772b3" opacity="0.2" visible="true" /></sodipodi:namedview><g fill="#fff"><g enable-background="new" transform="translate(-233 -365)"><path d="m1028 1556c-3.2833 0-6 2.4414-6 5.5 0 1.7056.9046 3.146 2.1523 4.3594l.9942.9941a.50004997.50004997 0 0 0 .3027.1485.50004997.50004997 0 0 0 .051.998h5a.50004997.50004997 0 0 0 .045-.998.50004997.50004997 0 0 0 .3086-.1485l.9981-.998c1.2122-1.1985 2.1465-2.6518 2.1465-4.3535 0-3.0586-2.7167-5.5-6-5.5zm0 1c2.7919 0 5 2.0358 5 4.5 0 1.3342-.7428 2.5488-1.8516 3.6445l-1 1a.50004997.50004997 0 0 0 .2793.8535h-4.8594a.50004997.50004997 0 0 0 .2871-.8535l-1-1a.50004997.50004997 0 0 0 -.01-.01c-1.1397-1.1082-1.8477-2.2864-1.8477-3.6406 0-2.4642 2.2081-4.5 5-4.5zm-2.5 12a.50004997.50004997 0 1 0 0 1h1.5v.5a.50004997.50004997 0 0 0 .5.5h1a.50004997.50004997 0 0 0 .5-.5v-.5h1.5a.50004997.50004997 0 1 0 0-1z"/><path d="m1025.4902 1561.0059a.50005.50005 0 0 0 -.3437.8476l.8535.8535v1.543a.50005.50005 0 1 0 1 0v-1.25h2v1.25a.50005.50005 0 1 0 1 0v-1.543l.8535-.8535a.50005.50005 0 0 0 -.707-.707l-.8535.8535h-2.586l-.8535-.8535a.50005.50005 0 0 0 -.3633-.1406z" opacity=".6"/></g><g enable-background="new" fill-rule="evenodd" transform="matrix(99.023655 0 0 100 -19210.925 -9379.872)"><path d="m198.0253 98.27163v1.5h1v-1.5zm0 2.5v2h1v-2zm0 3v1.2793l-2.58594 2.35156.67188.73828 2.60351-2.36719.49027-.002c.82475 0 .82408-1 0-1h-.17972v-1z" opacity=".6"/><path d="m207.2397 99.568306c-.33768-.02992-.70751.105959-1.01625.406518l-.51139.495896c-.13287.12942-.13287.34092 0 .47035l2.04339 1.98784c.13292.12938.3479.12938.48082 0l.50922-.49802c.3087-.30067.44811-.65869.41741-.98755-.0307-.32884-.20718-.60186-.41741-.80663l-.67969-.661886c-.21026-.204768-.48842-.37662-.8261-.406518zm-2.31222 1.800554c-.0883.00094-.17353.0367-.23603.0979l-4.25293 4.14168c-.0434.0426-.0749.095-.0896.15324l-.67969 2.65189c-.0614.24217.16235.46285.41088.40225l2.72308-.66402c.0599-.0144.11363-.0428.15735-.0851l4.2551-4.14382c.13286-.12943.13286-.33881 0-.46825l-2.0434-1.98784c-.0651-.0634-.15267-.0994-.24478-.0979z"/><path d="m198.52539 94.771484c-.1326.000027-.25978.05272-.35351.146485l-3 3c-.0938.09376-.14646.220915-.14649.353515v9.999996c.00003.27613.22387.49997.5.5h2.50158c.72806 0 .76638-1.01916 0-1h-2.00158v-8.999996h9v.186392c0 .766385 1 .767345 1 0v-.47936l2-2v.907841c0 .708905 1 .709935 1 0v-2.114873c-.00003-.276131-.22387-.499972-.5-.5zm.20703 1h8.58594l-2 2h-8.58594z"/></g></g></svg>