<svg height="1600" viewBox="0 0 1600 1600" width="1600" xmlns="http://www.w3.org/2000/svg" xmlns:inkscape="http://www.inkscape.org/namespaces/inkscape" xmlns:sodipodi="http://sodipodi.sourceforge.net/DTD/sodipodi-0.dtd"><sodipodi:namedview pagecolor="#303030" showgrid="true"><inkscape:grid id="grid5" units="px" spacingx="100" spacingy="100" color="#4772b3" opacity="0.2" visible="true" /></sodipodi:namedview><g fill="#fff"><path d="m417.92349 304.73964c-.7818-.0644-.86293 1.09626-.0796 1.1383l.41758.0202c.78182.0644.86296-1.09626.0796-1.13831zm-7.87437 1.29265c-.65325.42724.0163 1.38626.65667.94062l.34001-.23929c.65327-.42727-.0163-1.38631-.65662-.94061zm5.26412-.10772c.785-.0185.73895-1.18175-.0451-1.14009-.6811-.0652-1.43225-.0213-2.22341.0851-.785.0185-.73896 1.18176.0451 1.14011.8585-.10954 1.60282-.14009 2.22342-.0852zm-5.74172 5.34858c-.17789-.75187-1.32618-.47161-1.12597.27482-.008.72815.18352 1.43475.53595 2.12392.17789.75187 1.32617.47159 1.12598-.27483-.40688-.70818-.47775-1.41605-.53596-2.12391zm1.14987 4.81425c.55238.5479 1.3799-.2833.81165-.81524l-.30437-.28193c-.55238-.54789-1.37991.2833-.81163.81524zm2.55883.11471c-.78112.0716-.65484 1.22767.12391 1.13446.79706.0708 1.5429.0136 2.2124-.23372.7811-.0716.65482-1.22768-.12391-1.13445-.66955.35373-1.42049.37687-2.2124.23371zm4.35036-1.24066c.39775-.66505-.63058-1.23994-1.00859-.56384l-.19953.36135c-.39776.66506.63057 1.23995 1.00857.56383zm-1.53457-4.82813c-.44444-.63566-1.409.0364-.94666.65956.53116.53126.99257 1.10609 1.28624 1.78569.44445.63565 1.40902-.0364.94667-.65956-.24301-.74231-.69323-1.32054-1.28625-1.78569zm-2.73483-1.49223c-.72218-.30138-1.16808.7761-.43732 1.05681l.39025.14758c.7222.30141 1.1681-.7761.43732-1.0568zm-7.60223 1.91562c-.52109.57678.37464 1.33651.87855.74515l.26685-.31654c.52111-.57679-.37465-1.33654-.87854-.74516zm1.15912 7.09355c-.1906-.74845-1.33363-.44917-1.12109.29354l.11543.39523c.19062.74845 1.33365.44917 1.12109-.29354zm-.68592-4.36328c-.0858-.76698-1.25912-.62352-1.15127.14077-.065.75431-.008 1.50847.28594 2.26232.0859.76696 1.25912.62352 1.15129-.14076-.28468-.81162-.29126-1.53878-.28596-2.26233zm1.97398-4.7241c-.77314.13162-.55483 1.27463.21417 1.12135.7762-.30633 1.5005-.42412 2.18687-.40397.77313-.13163.55482-1.27462-.21418-1.12137-.74152.0229-1.4733.13255-2.18686.40399z" transform="matrix(101.19775 0 0 100 -40890.768 -30375.502)"/></g></svg>