<svg height="1600" viewBox="0 0 1600 1600" width="1600" xmlns="http://www.w3.org/2000/svg" xmlns:inkscape="http://www.inkscape.org/namespaces/inkscape" xmlns:sodipodi="http://sodipodi.sourceforge.net/DTD/sodipodi-0.dtd"><sodipodi:namedview pagecolor="#303030" showgrid="true"><inkscape:grid id="grid5" units="px" spacingx="100" spacingy="100" color="#4772b3" opacity="0.2" visible="true" /></sodipodi:namedview><g fill="#fff"><g enable-background="new" transform="matrix(100 0 0 100 -44599.99900000001 -24100.001)"><path d="m449 242c-1.0986 0-2 .90135-2 2 0 .73315.40645 1.37054 1 1.71875v4.28125h1v-4c1.0986 0 2-.90135 2-2h4v-1h-4.28125c-.34822-.59355-.98563-1-1.71875-1zm0 1c.5582 0 1 .44179 1 1s-.4418 1-1 1-1-.44179-1-1 .4418-1 1-1z" opacity=".5"/><path d="m459 242c-1.0986 0-2 .90135-2 2 0 .36859.10883.71022.28516 1.00781l-7.27735 7.27735c-.29759-.17633-.63923-.28516-1.00781-.28516-1.0986 0-2 .90135-2 2s.9014 2 2 2 2-.90135 2-2c0-.36859-.10883-.71022-.28516-1.00781l7.27735-7.27735c.29759.17633.63923.28516 1.00781.28516 1.0986 0 2-.90135 2-2s-.9014-2-2-2zm0 1c.5582 0 1 .44179 1 1s-.4418 1-1 1-1-.44179-1-1 .4418-1 1-1zm-10 10c.5582 0 1 .44179 1 1s-.4418 1-1 1-1-.44179-1-1 .4418-1 1-1z"/></g></g></svg>