<svg height="1600" viewBox="0 0 1400 1600" width="1400" xmlns="http://www.w3.org/2000/svg" xmlns:inkscape="http://www.inkscape.org/namespaces/inkscape" xmlns:sodipodi="http://sodipodi.sourceforge.net/DTD/sodipodi-0.dtd"><sodipodi:namedview pagecolor="#303030" showgrid="true"><inkscape:grid id="grid5" units="px" spacingx="100" spacingy="100" color="#4772b3" opacity="0.2" visible="true" /></sodipodi:namedview><g fill="#fff"><g enable-background="new" transform="matrix(100 0 0 100 -27899.998 -28300)"><path d="m280.5 284a.50004976.50004976 0 0 0 -.5.5v.75 7.25a.50004976.50004976 0 0 0 .5.5h.5a.50004976.50004976 0 0 0 .2832-.0879l10.5-7.25a.50004976.50004976 0 0 0 .2168-.4121v-.75a.50004976.50004976 0 0 0 -.5-.5zm.5 1h9.98242l-9.98242 6.89258v-6.64258z" opacity=".6"/><path d="m285.25 292a.50004976.50004976 0 1 0 0 1h5.75v.15625l-10 3.80859v-1.71484a.50004976.50004976 0 1 0 -1 0v2.25a.50004976.50004976 0 0 0 .5.5h.5a.50004976.50004976 0 0 0 .17773-.0332l10.5-4a.50004976.50004976 0 0 0 .32227-.4668v-1a.50004976.50004976 0 0 0 -.5-.5z"/></g></g></svg>