<svg height="1600" viewBox="0 0 1600 1600" width="1600" xmlns="http://www.w3.org/2000/svg" xmlns:inkscape="http://www.inkscape.org/namespaces/inkscape" xmlns:sodipodi="http://sodipodi.sourceforge.net/DTD/sodipodi-0.dtd"><sodipodi:namedview pagecolor="#303030" showgrid="true"><inkscape:grid id="grid5" units="px" spacingx="100" spacingy="100" color="#4772b3" opacity="0.2" visible="true" /></sodipodi:namedview><g fill="#fff"><g enable-background="new" transform="translate(-233 -365)"><path d="m1028 1556c-3.2833 0-6 2.4414-6 5.5 0 1.7056.9046 3.146 2.1523 4.3594l.9942.9941a.50004997.50004997 0 0 0 .3027.1485.50004997.50004997 0 0 0 .051.998h5a.50004997.50004997 0 0 0 .045-.998.50004997.50004997 0 0 0 .3086-.1485l.9981-.998c1.2122-1.1985 2.1465-2.6518 2.1465-4.3535 0-3.0586-2.7167-5.5-6-5.5zm0 1c2.7919 0 5 2.0358 5 4.5 0 1.3342-.7428 2.5488-1.8516 3.6445l-1 1a.50004997.50004997 0 0 0 .2793.8535h-4.8594a.50004997.50004997 0 0 0 .2871-.8535l-1-1a.50004997.50004997 0 0 0 -.01-.01c-1.1397-1.1082-1.8477-2.2864-1.8477-3.6406 0-2.4642 2.2081-4.5 5-4.5zm-2.5 12a.50004997.50004997 0 1 0 0 1h1.5v.5a.50004997.50004997 0 0 0 .5.5h1a.50004997.50004997 0 0 0 .5-.5v-.5h1.5a.50004997.50004997 0 1 0 0-1z"/><path d="m1025.4902 1561.0059a.50005.50005 0 0 0 -.3437.8476l.8535.8535v1.543a.50005.50005 0 1 0 1 0v-1.25h2v1.25a.50005.50005 0 1 0 1 0v-1.543l.8535-.8535a.50005.50005 0 0 0 -.707-.707l-.8535.8535h-2.586l-.8535-.8535a.50005.50005 0 0 0 -.3633-.1406z" opacity=".6"/></g><path d="m145.49219 241.99219a.50005.50005 0 0 0 -.49219.50781c0 1.27778-.82701 2.37965-2.66602 3.44141-1.66335.96034-4.28314 1.19403-6.30078 1.06054-.9786-.0647-1.78811-.30625-2.3125-.61133-.52058-.30284-.71591-.62257-.71875-.88476.003-.26222.19817-.58387.71875-.88672.5244-.30506 1.3339-.54463 2.3125-.60937 1.74084-.11517 3.90302.0169 5.24414.6875a.50005.50005 0 1 0 .44532-.89454c-1.65888-.82943-3.92118-.91239-5.75586-.79101-1.10098.0728-2.04234.3336-2.74805.74414-.63776.37101-1.097.90981-1.18359 1.55273a.50005.50005 0 0 0 -.03516.19141c0 .002.002.004.002.006-.00001.002-.002.004-.002.006a.50005.50005 0 0 0 .0352.18945.50005.50005 0 0 0 .002.006c.0881.64105.54525 1.17861 1.18164 1.54883.70571.41055 1.64707.66937 2.74805.74219 2.1415.14167 4.88621-.0477 6.86718-1.19141 1.99477-1.15215 3.16593-2.58484 3.16593-4.30706a.50005.50005 0 0 0 -.50781-.50781zm-.27539 5.25195a.50005.50005 0 0 0 -.4375.67578c.12158.33512.2207.66149.2207 1.08008 0 1.83333-.82701 2.87965-2.66602 3.94141-1.66335.96034-4.28314 1.19403-6.30078 1.06054-.9786-.0647-1.78811-.30625-2.3125-.61133-.52058-.30284-.71591-.62257-.71875-.88476.003-.26222.19817-.58387.71875-.88672.5244-.30506 1.3339-.54463 2.3125-.60937 1.74084-.11517 3.90302.0169 5.24414.6875a.50005.50005 0 1 0 .44532-.89454c-1.65888-.82943-3.92118-.91239-5.75586-.79101-1.10098.0728-2.04234.3336-2.74805.74414-.63776.37101-1.097.90981-1.18359 1.55273a.50005.50005 0 0 0 -.03516.19141c0 .002.002.004.002.006-.00001.002-.002.004-.002.006a.50005.50005 0 0 0 .0371.19531c.0881.64105.54525 1.17861 1.18164 1.54883.70571.41055 1.64707.66937 2.74805.74219 2.1415.14167 4.88621-.0477 6.86718-1.19141 1.96806-1.13625 3.12917-2.60303 3.16016-4.72266a.50005.50005 0 0 0 .00587-.08426.50005.50005 0 0 0 -.0137-.12695c-.0205-.51808-.14222-.95284-.26563-1.29297a.50005.50005 0 0 0 -.5039-.33594zm.043 7a.50005.50005 0 0 0 -.4336.76953s.17383.35663.17383.51953a.50005.50005 0 1 0 1 0c0-.59989-.32617-1.04687-.32617-1.04687a.50005.50005 0 0 0 -.41406-.24219z" transform="matrix(100 0 0 100 -13100.003 -24101.623)"/></g></svg>