<svg id="svg3" height="1600" viewBox="0 0 1600 1600" width="1600" xmlns="http://www.w3.org/2000/svg" xmlns:inkscape="http://www.inkscape.org/namespaces/inkscape" xmlns:sodipodi="http://sodipodi.sourceforge.net/DTD/sodipodi-0.dtd"><sodipodi:namedview pagecolor="#303030" showgrid="true"><inkscape:grid id="grid5" units="px" spacingx="100" spacingy="100" color="#4772b3" opacity="0.2" visible="true" /></sodipodi:namedview><g fill="#fff"><path id="path1" d="m-141 519.5v1.5h1v-1.5zm0 2.5v2h1v-2zm0 3v1.2793l-2.58594 2.35156.67188.73828 2.60351-2.36719 1.31055-.00195v-1h-1v-1zm3.00781 1v1h2v-1zm2.99219 0v1h1.5v-1z" opacity=".6" transform="matrix(100 0 0 100 14500 -51500)"/><path id="path2" d="m303.5 242a.50005.50005 0 0 0 -.35352.14648l-3 3a.50005.50005 0 0 0 -.14648.35352v10a.50005.50005 0 0 0 .5.5h10a.50005.50005 0 0 0 .35352-.14648l3-3a.50005.50005 0 0 0 .14648-.35352v-10a.50005.50005 0 0 0 -.5-.5zm.20703 1h8.58594l-2 2h-8.58594zm9.29297.70703v8.58594l-2 2v-8.58594zm-12 2.29297h9v9h-9z" transform="matrix(100 0 0 100 -29900 -24100)"/></g></svg>