<svg height="1500" viewBox="0 0 1500 1500" width="1500" xmlns="http://www.w3.org/2000/svg" xmlns:inkscape="http://www.inkscape.org/namespaces/inkscape" xmlns:sodipodi="http://sodipodi.sourceforge.net/DTD/sodipodi-0.dtd"><sodipodi:namedview pagecolor="#303030" showgrid="true"><inkscape:grid id="grid5" units="px" spacingx="100" spacingy="100" color="#4772b3" opacity="0.2" visible="true" /></sodipodi:namedview><g fill="#fff"><path d="m416.49023 242.95508a.55005501.55005501 0 0 0 -.55078.55078v.77539l-.44922.45117-.61132-.61133a.55005501.55005501 0 0 0 -.38868-.16211h-1.77148l-.83984-.83789a.55005501.55005501 0 0 0 -.77735 0l-1 1a.55005501.55005501 0 0 0 -.16211.38868v1.77148l-.67773.67773h-.77149a.55005501.55005501 0 0 0 -.39062.16211l-.83789.8418h-.77149a.55005501.55005501 0 0 0 -.55078.55078v2.00391a.55005501.55005501 0 0 0 .55078.55078h.77344l.67578.67383v.54492l-.67578.68164-.76758-.008a.55005501.55005501 0 0 0 -.55664.54883v1.21093.78907a.550785.550785 0 1 0 1.10157 0v-.78907-.65429l.44336.004a.55005501.55005501 0 0 0 .39648-.16211l1-1.00781a.55005501.55005501 0 0 0 .16016-.38672v-1a.55005501.55005501 0 0 0 -.16211-.39062l-1-.99414a.55005501.55005501 0 0 0 -.38868-.16211h-.44921v-.90235h.44921a.55005501.55005501 0 0 0 .38868-.16211l.83984-.84375h.77148a.55005501.55005501 0 0 0 .38868-.16015l1-1a.55005501.55005501 0 0 0 .16211-.38867v-1.77344l.44921-.44922.61133.61133a.55005501.55005501 0 0 0 .38867.16015h1.77149l.83984.83985a.55005501.55005501 0 0 0 .77735 0l1-1a.55005501.55005501 0 0 0 .16211-.38867v-.45508h1.44921a.55005501.55005501 0 1 0 0-1.09961z" transform="matrix(98.94742 0 0 99.157178 -40067.01 -23990.464)"/></g></svg>