<svg height="1600" viewBox="0 0 1600 1600" width="1600" xmlns="http://www.w3.org/2000/svg" xmlns:inkscape="http://www.inkscape.org/namespaces/inkscape" xmlns:sodipodi="http://sodipodi.sourceforge.net/DTD/sodipodi-0.dtd"><sodipodi:namedview pagecolor="#303030" showgrid="true"><inkscape:grid id="grid5" units="px" spacingx="100" spacingy="100" color="#4772b3" opacity="0.2" visible="true" /></sodipodi:namedview><g fill="#fff"><g enable-background="new" transform="matrix(100 0 0 100 -36199.61 -30400.4)"><path d="m363.5 308.5 3-3h6l-3 3z" stroke="#fff" stroke-linecap="square" stroke-linejoin="round"/><path d="m366.5 305a.50005.50005 0 0 0 -.35352.14648l-3 3a.50005.50005 0 0 0 .35352.85352h6a.50005.50005 0 0 0 .35352-.14648l3-3a.50005.50005 0 0 0 -.35352-.85352zm.20703 1h4.58594l-2 2h-4.58594zm9.77735 3a.50005.50005 0 0 0 -.3379.14648l-3 3a.50005.50005 0 0 0 -.14648.35352v6a.50005.50005 0 0 0 .85352.35352l3-3a.50005.50005 0 0 0 .14648-.35352v-6a.50005.50005 0 0 0 -.51562-.5zm-.48438 1.70703v4.58594l-2 2v-4.58594zm-6.5 1.29297-6.00781.008a.50005.50005 0 0 0 -.5.5v6a.50005.50005 0 0 0 .5.5h6a.50005.50005 0 0 0 .5-.5l.00781-6.008a.50005.50005 0 0 0 -.5-.5zm-.5 1-.008 5.00781h-5v-5.00195z"/></g></g></svg>