<svg height="1600" viewBox="0 0 1600 1600" width="1600" xmlns="http://www.w3.org/2000/svg" xmlns:inkscape="http://www.inkscape.org/namespaces/inkscape" xmlns:sodipodi="http://sodipodi.sourceforge.net/DTD/sodipodi-0.dtd"><sodipodi:namedview pagecolor="#303030" showgrid="true"><inkscape:grid id="grid5" units="px" spacingx="100" spacingy="100" color="#4772b3" opacity="0.2" visible="true" /></sodipodi:namedview><g fill="#fff"><g enable-background="new" transform="matrix(100 0 0 100 -21500 -28300.391)"><path d="m225.5 286a.50005.50005 0 0 0 -.5.5v6.5h-6.5a.50005.50005 0 0 0 -.5.5l-.008 4.00586a.50005.50005 0 0 0 .50195.50195l11.00605-.00781a.50005.50005 0 0 0 .5-.5v-11a.50005.50005 0 0 0 -.5-.5zm.5 1h3v10l-10.00781.008.006-3.00781h6.50181a.50005.50005 0 0 0 .5-.5z"/><path d="m222.5 284a.50005.50005 0 0 1 .5.5v6a.50005.50005 0 0 1 -.5.5h-6a.50005.50005 0 0 1 -.5-.5v-6a.50005.50005 0 0 1 .5-.5zm-.5 1h-5v5h5z" opacity=".5"/></g></g></svg>