<svg height="1600" viewBox="0 0 1600 1600" width="1600" xmlns="http://www.w3.org/2000/svg" xmlns:inkscape="http://www.inkscape.org/namespaces/inkscape" xmlns:sodipodi="http://sodipodi.sourceforge.net/DTD/sodipodi-0.dtd"><sodipodi:namedview pagecolor="#303030" showgrid="true"><inkscape:grid id="grid5" units="px" spacingx="100" spacingy="100" color="#4772b3" opacity="0.2" visible="true" /></sodipodi:namedview><g fill="#fff"><g enable-background="new" transform="matrix(100 0 0 -100 -143301.18500000003 60999.647)"><path d="m1437 595.60938c0 6.25034 4.6305 11.38281 10.4004 11.38281a.60006002.60006002 0 1 0 0-1.19922c-5.0564 0-9.2012-4.52271-9.2012-10.18359a.60006002.60006002 0 1 0 -1.1992 0z"/><path d="m1444.5 597c-1.4566.00001-2.897.34937-4.2207 1.02148a.50005.50005 0 1 0 .4531.89063c1.1877-.60305 2.4706-.9121 3.7676-.91211a.50005.50005 0 1 0 0-1zm-8.0176 4.01172a.50005.50005 0 0 0 -.4043.23242c-1.3493 2.05827-2.0781 4.61688-2.0781 7.25586a.50005.50005 0 1 0 1 0c0-2.45438.6833-4.83156 1.9141-6.70898a.50005.50005 0 0 0 -.4317-.7793z" opacity=".6"/></g></g></svg>