<svg height="1600" viewBox="0 0 1600 1600" width="1600" xmlns="http://www.w3.org/2000/svg" xmlns:inkscape="http://www.inkscape.org/namespaces/inkscape" xmlns:sodipodi="http://sodipodi.sourceforge.net/DTD/sodipodi-0.dtd"><sodipodi:namedview pagecolor="#303030" showgrid="true"><inkscape:grid id="grid5" units="px" spacingx="100" spacingy="100" color="#4772b3" opacity="0.2" visible="true" /></sodipodi:namedview><g fill="#fff"><path d="m145.49219 241.99219a.50005.50005 0 0 0 -.49219.50781c0 1.27778-.82701 2.37965-2.66602 3.44141-1.66335.96034-4.28314 1.19403-6.30078 1.06054-.9786-.0647-1.78811-.30625-2.3125-.61133-.52058-.30284-.71591-.62257-.71875-.88476.003-.26222.19817-.58387.71875-.88672.5244-.30506 1.3339-.54463 2.3125-.60937 1.74084-.11517 3.90302.0169 5.24414.6875a.50005.50005 0 1 0 .44532-.89454c-1.65888-.82943-3.92118-.91239-5.75586-.79101-1.10098.0728-2.04234.3336-2.74805.74414-.63776.37101-1.097.90981-1.18359 1.55273a.50005.50005 0 0 0 -.03516.19141c0 .002.002.004.002.006-.00001.002-.002.004-.002.006a.50005.50005 0 0 0 .0352.18945.50005.50005 0 0 0 .002.006c.0881.64105.54525 1.17861 1.18164 1.54883.70571.41055 1.64707.66937 2.74805.74219 2.1415.14167 4.88621-.0477 6.86718-1.19141 1.99477-1.15215 3.16593-2.58484 3.16593-4.30706a.50005.50005 0 0 0 -.50781-.50781zm-.27539 5.25195a.50005.50005 0 0 0 -.4375.67578c.12158.33512.2207.66149.2207 1.08008 0 1.83333-.82701 2.87965-2.66602 3.94141-1.66335.96034-4.28314 1.19403-6.30078 1.06054-.9786-.0647-1.78811-.30625-2.3125-.61133-.52058-.30284-.71591-.62257-.71875-.88476.003-.26222.19817-.58387.71875-.88672.5244-.30506 1.3339-.54463 2.3125-.60937 1.74084-.11517 3.90302.0169 5.24414.6875a.50005.50005 0 1 0 .44532-.89454c-1.65888-.82943-3.92118-.91239-5.75586-.79101-1.10098.0728-2.04234.3336-2.74805.74414-.63776.37101-1.097.90981-1.18359 1.55273a.50005.50005 0 0 0 -.03516.19141c0 .002.002.004.002.006-.00001.002-.002.004-.002.006a.50005.50005 0 0 0 .0371.19531c.0881.64105.54525 1.17861 1.18164 1.54883.70571.41055 1.64707.66937 2.74805.74219 2.1415.14167 4.88621-.0477 6.86718-1.19141 1.96806-1.13625 3.12917-2.60303 3.16016-4.72266a.50005.50005 0 0 0 .00587-.08426.50005.50005 0 0 0 -.0137-.12695c-.0205-.51808-.14222-.95284-.26563-1.29297a.50005.50005 0 0 0 -.5039-.33594zm.043 7a.50005.50005 0 0 0 -.4336.76953s.17383.35663.17383.51953a.50005.50005 0 1 0 1 0c0-.59989-.32617-1.04687-.32617-1.04687a.50005.50005 0 0 0 -.41406-.24219z" transform="matrix(100 0 0 100 -13100.003 -24101.623)"/></g></svg>