<svg height="1700" viewBox="0 0 1700 1700" width="1700" xmlns="http://www.w3.org/2000/svg" xmlns:inkscape="http://www.inkscape.org/namespaces/inkscape" xmlns:sodipodi="http://sodipodi.sourceforge.net/DTD/sodipodi-0.dtd"><sodipodi:namedview pagecolor="#303030" showgrid="true"><inkscape:grid id="grid5" units="px" spacingx="100" spacingy="100" color="#4772b3" opacity="0.2" visible="true" /></sodipodi:namedview><g enable-background="new" fill="none" stroke="#fff" stroke-linecap="round" transform="matrix(101.51992 0 0 100.71574 -36741.116 -30598.589)"><path d="m374.12695 305.31445c-1.10721 0-1.93616.24199-2.97851.63086-1.04236.38888-2.18224.95849-3.30078 1.77735-2.2371 1.63771-4.46485 4.54533-4.46485 8.40625a3.0581999 3.0581999 0 0 0 3.0586 3.05859 3.0581999 3.0581999 0 0 0 3.05859-3.05859c0-1.63187.77567-2.603 1.96094-3.47071.59263-.43385 1.26841-.77311 1.82422-.98047.5558-.20735 1.10962-.24804.84179-.24804a3.0581999 3.0581999 0 0 0 3.05664-3.0586 3.0581999 3.0581999 0 0 0 -3.05664-3.05664z" stroke-linejoin="round"/><path d="m366.4419 316.12916c0-5.49278 6.00534-7.75723 7.68412-7.75723" opacity=".5"/></g></svg>