<svg height="1600" viewBox="0 0 1200 1600" width="1200" xmlns="http://www.w3.org/2000/svg" xmlns:inkscape="http://www.inkscape.org/namespaces/inkscape" xmlns:sodipodi="http://sodipodi.sourceforge.net/DTD/sodipodi-0.dtd"><sodipodi:namedview pagecolor="#303030" showgrid="true"><inkscape:grid id="grid5" units="px" spacingx="100" spacingy="100" color="#4772b3" opacity="0.2" visible="true" /></sodipodi:namedview><g fill="#fff"><path d="m54.75 284a.50004997.50004997 0 0 0 -.431641.24805l-3.646484 6.25a.50004997.50004997 0 0 0 -.002.002c-1.211575 2.0985-.741006 4.77251 1.115234 6.33008 1.856239 1.55756 4.573449 1.55756 6.429688 0 1.85624-1.55757 2.326809-4.23158 1.115234-6.33008a.50004997.50004997 0 0 0 -.002-.002l-3.646484-6.25a.50004997.50004997 0 0 0 -.431547-.24805zm.25 1.06445 3.464844 5.9375c.970958 1.6837.594513 3.81305-.894532 5.0625-1.489569 1.2499-3.651055 1.2499-5.140624 0-1.489045-1.24945-1.86549-3.3788-.894532-5.0625v-.00195zm-.511719 2.92969a.50004997.50004997 0 0 0 -.429687.27148l-1.697266 3.20704c-.166111.28617-.283806.59778-.349609.92187a.50005872.50005872 0 1 0 .980469.19727c.04414-.2174.122796-.42496.234374-.61719a.50004997.50004997 0 0 0 .0098-.0176l1.705078-3.22265a.50004997.50004997 0 0 0 -.453125-.74024z" transform="matrix(100 0 0 100 -4899.9953 -28299.915)"/></g></svg>