<svg id="svg2" height="1700" viewBox="0 0 1700 1700" width="1700" xmlns="http://www.w3.org/2000/svg" xmlns:inkscape="http://www.inkscape.org/namespaces/inkscape" xmlns:sodipodi="http://sodipodi.sourceforge.net/DTD/sodipodi-0.dtd"><sodipodi:namedview pagecolor="#303030" showgrid="true"><inkscape:grid id="grid5" units="px" spacingx="100" spacingy="100" color="#4772b3" opacity="0.2" visible="true" /></sodipodi:namedview><g fill="#fff" transform="matrix(101.51992 0 0 100.71574 -36741.116 -30598.589)"><path id="path1" d="m374.12695 304.81445c-1.18006 0-2.0923.26664-3.15234.66211-1.08032.40305-2.26187.99258-3.42188 1.8418-2.33703 1.71087-4.66992 4.7573-4.66992 8.81055-.00025 1.95957 1.59902 3.55885 3.5586 3.55859 1.95956.00026 3.55885-1.59903 3.55859-3.55859 0-1.47343.63017-2.24232 1.75586-3.06641.56948-.41691.93848-.61904 1.45703-.8125.53282-.19878 1.60393-.55234 2.04102-.69922a.50005.50005 0 0 0 .01-.004c.38827-.13838.9414-.40925 1.43555-.91015.49414-.5009.91503-1.24604.98242-2.23242a.50005.50005 0 0 0 .002-.0332c-.00099-1.95781-1.59882-3.55564-3.55664-3.55664zm0 1c1.4117.00072 2.54043 1.1317 2.55078 2.54102-.0556.73239-.33849 1.22236-.68945 1.57812-.35488.35974-.78616.57408-1.06055.67188-.43094.14476-1.48779.4919-2.06445.70703-.59307.22126-1.08149.49061-1.69726.94141-1.24485.91132-2.16602 2.08469-2.16602 3.875.00018 1.41903-1.13956 2.55877-2.55859 2.55859-1.41905.00018-2.55878-1.13955-2.5586-2.55859 0-3.66859 2.12261-6.43741 4.25977-8.00196 1.07707-.7885 2.17529-1.33817 3.17969-1.71289 1.02465-.38227 1.77033-.59961 2.80468-.59961z"/><path id="path2" d="m374.12695 307.87109c-.5321 0-1.24513.1597-2.08398.47266s-1.78501.78553-2.6836 1.44336c-1.79716 1.31565-3.41796 3.41319-3.41796 6.3418a.5.5 0 0 0 .5.5.5.5 0 0 0 .5-.5c0-2.56417 1.38261-4.3454 3.00781-5.53516.8126-.59488 1.68405-1.03118 2.44336-1.31445.7593-.28328 1.42708-.40821 1.73437-.40821a.5.5 0 0 0 .5-.5.5.5 0 0 0 -.5-.5z" opacity=".5"/></g></svg>