<svg height="1700" viewBox="0 0 1700 1700" width="1700" xmlns="http://www.w3.org/2000/svg" xmlns:inkscape="http://www.inkscape.org/namespaces/inkscape" xmlns:sodipodi="http://sodipodi.sourceforge.net/DTD/sodipodi-0.dtd"><sodipodi:namedview pagecolor="#303030" showgrid="true"><inkscape:grid id="grid5" units="px" spacingx="100" spacingy="100" color="#4772b3" opacity="0.2" visible="true" /></sodipodi:namedview><g enable-background="new" fill="none" stroke="#fff" stroke-linecap="round" transform="matrix(101.51992 0 0 100.71574 -36741.116 -30598.589)"><path d="m374.12695 305.31445c-1.10721 0-1.93616.24199-2.97851.63086-1.04236.38888-2.18224.95849-3.30078 1.77735-2.2371 1.63771-4.46485 4.54533-4.46485 8.40625-.00022 1.68931 1.36929 3.05881 3.0586 3.05859 1.6893.00022 3.05881-1.36929 3.05859-3.05859 0-1.63187.77567-2.603 1.96094-3.47071.59263-.43385 1.02124-.6693 1.57705-.87666.5558-.20735 1.62455-.55947 2.05703-.7048.66266-.23618 1.9702-.97307 2.08857-2.70565-.00086-1.68778-1.36886-3.05578-3.05664-3.05664z" stroke-linejoin="round"/><path d="m366.4419 316.12916c0-5.49278 6.00534-7.75723 7.68412-7.75723" opacity=".5"/></g></svg>