<svg height="1600" viewBox="0 0 1600 1600" width="1600" xmlns="http://www.w3.org/2000/svg" xmlns:inkscape="http://www.inkscape.org/namespaces/inkscape" xmlns:sodipodi="http://sodipodi.sourceforge.net/DTD/sodipodi-0.dtd"><sodipodi:namedview pagecolor="#303030" showgrid="true"><inkscape:grid id="grid5" units="px" spacingx="100" spacingy="100" color="#4772b3" opacity="0.2" visible="true" /></sodipodi:namedview><g fill="#fff"><g enable-background="new"><path d="m154 242v2h-1v4h1v2h2v-8zm10 0v8h2v-2h1v-4h-1v-2zm-7 3v2h6v-2z" transform="matrix(100 0 0 100 -15200.39 -24100.4)"/><path d="m452.49219 387a.50005018.50005018 0 0 0 -.5.5v3.00781a.50005018.50005018 0 0 0 .5.5h3.00781a.50005018.50005018 0 0 0 .5-.5v-3.00781a.50005018.50005018 0 0 0 -.5-.5c-1.00252 0-2.0053 0-3.00781 0zm.5 1h2.00781v2.00781c-.66922 0-1.3386 0-2.00781 0zm4.50781.98438a.50005018.50005018 0 0 0 -.5.5v3.00781a.50005018.50005018 0 0 0 .5.5h3.00781a.50005018.50005018 0 0 0 .5-.5v-3.00781a.50005018.50005018 0 0 0 -.5-.5c-1.00252 0-2.00529 0-3.00781 0zm-10 .01562a.50005018.50005018 0 0 0 -.5.5v3a.50005018.50005018 0 0 0 .5.5c1-.00001 2 .00001 3 0a.50005018.50005018 0 0 0 .5-.5v-3a.50005018.50005018 0 0 0 -.5-.5c-1 0-2 0-3 0zm10.5.98438c.66922-.00001 1.3386 0 2.00781 0v2.00781c-.66922 0-1.33859 0-2.00781 0zm-10 .01562h2v2c-.66667 0-1.33333 0-2 0z" opacity=".6" transform="matrix(100 0 0 100 -44600.39 -37799.59999999999)"/></g></g></svg>