<svg height="1700" viewBox="0 0 1700 1700" width="1700" xmlns="http://www.w3.org/2000/svg" xmlns:inkscape="http://www.inkscape.org/namespaces/inkscape" xmlns:sodipodi="http://sodipodi.sourceforge.net/DTD/sodipodi-0.dtd"><sodipodi:namedview pagecolor="#303030" showgrid="true"><inkscape:grid id="grid5" units="px" spacingx="100" spacingy="100" color="#4772b3" opacity="0.2" visible="true" /></sodipodi:namedview><g enable-background="new" fill="#fff" transform="translate(-233 -365)"><path d="m1028 1556c-3.2833 0-6 2.4414-6 5.5 0 1.7056.9046 3.146 2.1523 4.3594l.9942.9941a.50004997.50004997 0 0 0 .3027.1485.50004997.50004997 0 0 0 .051.998h5a.50004997.50004997 0 0 0 .045-.998.50004997.50004997 0 0 0 .3086-.1485l.9981-.998c1.2122-1.1985 2.1465-2.6518 2.1465-4.3535 0-3.0586-2.7167-5.5-6-5.5zm0 1c2.7919 0 5 2.0358 5 4.5 0 1.3342-.7428 2.5488-1.8516 3.6445l-1 1a.50004997.50004997 0 0 0 .2793.8535h-4.8594a.50004997.50004997 0 0 0 .2871-.8535l-1-1a.50004997.50004997 0 0 0 -.01-.01c-1.1397-1.1082-1.8477-2.2864-1.8477-3.6406 0-2.4642 2.2081-4.5 5-4.5zm-2.5 12a.50004997.50004997 0 1 0 0 1h1.5v.5a.50004997.50004997 0 0 0 .5.5h1a.50004997.50004997 0 0 0 .5-.5v-.5h1.5a.50004997.50004997 0 1 0 0-1z"/><path d="m1025.4902 1561.0059a.50005.50005 0 0 0 -.3437.8476l.8535.8535v1.543a.50005.50005 0 1 0 1 0v-1.25h2v1.25a.50005.50005 0 1 0 1 0v-1.543l.8535-.8535a.50005.50005 0 0 0 -.707-.707l-.8535.8535h-2.586l-.8535-.8535a.50005.50005 0 0 0 -.3633-.1406z" opacity=".6"/></g><g enable-background="new" fill="none" stroke="#fff" stroke-linecap="round" transform="matrix(101.51992 0 0 100.71574 -36741.116 -30598.589)"><path d="m374.12695 305.31445c-1.10721 0-1.93616.24199-2.97851.63086-1.04236.38888-2.18224.95849-3.30078 1.77735-2.2371 1.63771-4.46485 4.54533-4.46485 8.40625a3.0581999 3.0581999 0 0 0 3.0586 3.05859 3.0581999 3.0581999 0 0 0 3.05859-3.05859c0-1.63187.77567-2.603 1.96094-3.47071.59263-.43385 1.26841-.77311 1.82422-.98047.5558-.20735 1.10962-.24804.84179-.24804a3.0581999 3.0581999 0 0 0 3.05664-3.0586 3.0581999 3.0581999 0 0 0 -3.05664-3.05664z" stroke-linejoin="round"/><path d="m366.4419 316.12916c0-5.49278 6.00534-7.75723 7.68412-7.75723" opacity=".5"/></g></svg>