<svg height="1600" viewBox="0 0 1600 1600" width="1600" xmlns="http://www.w3.org/2000/svg" xmlns:inkscape="http://www.inkscape.org/namespaces/inkscape" xmlns:sodipodi="http://sodipodi.sourceforge.net/DTD/sodipodi-0.dtd"><sodipodi:namedview pagecolor="#303030" showgrid="true"><inkscape:grid id="grid5" units="px" spacingx="100" spacingy="100" color="#4772b3" opacity="0.2" visible="true" /></sodipodi:namedview><g fill="#fff"><g enable-background="new" transform="translate(-233 -365)"><path d="m1028 1556c-3.2833 0-6 2.4414-6 5.5 0 1.7056.9046 3.146 2.1523 4.3594l.9942.9941a.50004997.50004997 0 0 0 .3027.1485.50004997.50004997 0 0 0 .051.998h5a.50004997.50004997 0 0 0 .045-.998.50004997.50004997 0 0 0 .3086-.1485l.9981-.998c1.2122-1.1985 2.1465-2.6518 2.1465-4.3535 0-3.0586-2.7167-5.5-6-5.5zm0 1c2.7919 0 5 2.0358 5 4.5 0 1.3342-.7428 2.5488-1.8516 3.6445l-1 1a.50004997.50004997 0 0 0 .2793.8535h-4.8594a.50004997.50004997 0 0 0 .2871-.8535l-1-1a.50004997.50004997 0 0 0 -.01-.01c-1.1397-1.1082-1.8477-2.2864-1.8477-3.6406 0-2.4642 2.2081-4.5 5-4.5zm-2.5 12a.50004997.50004997 0 1 0 0 1h1.5v.5a.50004997.50004997 0 0 0 .5.5h1a.50004997.50004997 0 0 0 .5-.5v-.5h1.5a.50004997.50004997 0 1 0 0-1z"/><path d="m1025.4902 1561.0059a.50005.50005 0 0 0 -.3437.8476l.8535.8535v1.543a.50005.50005 0 1 0 1 0v-1.25h2v1.25a.50005.50005 0 1 0 1 0v-1.543l.8535-.8535a.50005.50005 0 0 0 -.707-.707l-.8535.8535h-2.586l-.8535-.8535a.50005.50005 0 0 0 -.3633-.1406z" opacity=".6"/></g><g enable-background="new" transform="matrix(100 0 0 100 -34099.67 -24099.706)"><path d="m347.75 247-5.25781.002a.50005.50005 0 0 0 -.5.5v8a.50005.50005 0 0 0 .5.5h8a.50005.50005 0 0 0 .5-.49804l.00781-4.00201a.50005.50005 0 1 0 -1-.004l-.008 3.5039h-7v-7l4.758-.00185a.50005.50005 0 1 0 0-1z" opacity=".5"/><path d="m350.49219 241.99219a.50005.50005 0 0 0 -.49219.50781v4.59766c-.58199.20687-1.00586.75933-1.00586 1.4082 0 .82235.67765 1.5 1.5 1.5.36227 0 .69258-.13606.95313-.35352l3.79492 2.27735a.50109829.50109829 0 1 0 .51562-.85938l-3.79297-2.27734c.0184-.0931.0293-.18901.0293-.28711 0-.10213-.0114-.20218-.0312-.29883l3.79492-2.27734a.50109829.50109829 0 1 0 -.51562-.85938l-3.80469 2.28321c-.13066-.10739-.27627-.19312-.43755-.25196v-4.60156a.50005.50005 0 0 0 -.50781-.50781z"/></g></g></svg>