<svg height="1600" viewBox="0 0 1600 1600" width="1600" xmlns="http://www.w3.org/2000/svg" xmlns:inkscape="http://www.inkscape.org/namespaces/inkscape" xmlns:sodipodi="http://sodipodi.sourceforge.net/DTD/sodipodi-0.dtd"><sodipodi:namedview pagecolor="#303030" showgrid="true"><inkscape:grid id="grid5" units="px" spacingx="100" spacingy="100" color="#4772b3" opacity="0.2" visible="true" /></sodipodi:namedview><g fill="#fff"><g enable-background="new" transform="matrix(100 0 0 100 -21399.274 -28298.99)"><circle cx="221" cy="285" r="0" stroke="#fff" stroke-linecap="round" stroke-linejoin="round"/><path d="m221 284c-.54636 0-1 .45364-1 1s.45364 1 1 1 1-.45364 1-1-.45364-1-1-1zm3 0c-.54636 0-1 .45364-1 1s.45364 1 1 1 1-.45364 1-1-.45364-1-1-1zm3 1c-.54636 0-1 .45364-1 1s.45364 1 1 1 1-.45364 1-1-.45364-1-1-1zm-5.67188 2.04688c-.72617.0892-1.40636.31348-2.02343.63867-1.23415.65038-2.22638 1.68758-2.94922 2.84375s-1.1805 2.43169-1.32227 3.60742c-.14176 1.17573.0178 2.28295.6875 3.0293.68189.75993 1.69067.98063 2.61328.6914 1.01833-.31924 1.66602-1.30745 1.66602-2.35742 0-.87561.22937-1.10992.64258-1.29297s1.11179-.20703 1.85742-.20703c.79276 0 1.56488-.14919 2.20703-.5332.52292-.31271.89501-.8382 1.11524-1.4668h1.13281a.50004994.50004994 0 0 0 .002 0c1.02746 0 1.90966-.75672 2.0293-1.76953.11964-1.01284-.5686-1.95303-1.57031-2.17969-.73109-.16542-1.38414.17264-1.8711.68945-.49389-.69239-1.0864-1.29918-1.91601-1.52148-.80279-.21511-1.57461-.26104-2.30079-.17187zm.11915.98632c.59872-.0738 1.23897-.0331 1.92382.15039.66836.17909 1.23082.75735 1.69727 1.56446a.50004994.50004994 0 0 0 .90234-.0781c.17721-.4818.69836-.76361 1.22461-.64453s.85819.58537.79883 1.08789-.49576.88669-1.03711.88669h-1.45703a.50004994.50004994 0 0 0 -.49219.41406c-.10308.5846-.38181.93776-.8125 1.19532-.43068.25755-1.03219.39062-1.69531.39062-.74508 0-1.54761-.0253-2.26172.29102-.71411.31633-1.23828 1.08213-1.23828 2.20898 0 .63163-.40649 1.2273-.96484 1.40234-.62221.19506-1.12911.0874-1.57032-.40429-.37675-.41988-.55858-1.23603-.4375-2.24024.12109-1.00421.53101-2.16478 1.17774-3.19922.64673-1.03443 1.52684-1.94044 2.5664-2.48828.51979-.27392 1.07706-.46333 1.67579-.53711z"/></g></g></svg>