<svg width="1700" height="1700" xmlns="http://www.w3.org/2000/svg" xmlns:inkscape="http://www.inkscape.org/namespaces/inkscape" xmlns:sodipodi="http://sodipodi.sourceforge.net/DTD/sodipodi-0.dtd"><sodipodi:namedview pagecolor="#303030" showgrid="true"><inkscape:grid id="grid5" units="px" spacingx="100" spacingy="100" color="#4772b3" opacity="0.2" visible="true" /></sodipodi:namedview><g fill="#fff"><path d="m800.29 450s291.71-27.836 341.79 249.69c76.269 422.6-391.79 550.31-591.79 550.31" fill="none" opacity=".5" stroke="#fff" stroke-linecap="round" stroke-linejoin="round" stroke-width="100"/><path d="m829.54 100.61c-32.024-0.32776-62.048 2.325-63.357 2.4414-181.28 17.901-330.28 198.67-312.97 380.07v6e-3c16.379 171.61 178.82 314.46 349.89 315.24-0.29627 7.8269-2.263 8.0558-2.5117 8.541-0.44367 0.86559-6.924 12.405-38.689 32.727-50.158 32.087-191.89 61.721-211.61 61.721-182.55 0-348.65 166.1-348.65 348.65 2e-5 182.55 166.1 348.65 348.65 348.65 169.3 0 379.49-38.643 587.38-171.63 219.16-140.2 410.1-442.48 347.52-789.25-47.716-264.39-246.66-436.21-417.55-496.05-99.781-34.944-183.55-40.553-238.09-41.111zm-1.0117 98.949c47.139 0.48264 120.9 5.6116 206.4 35.555 144.31 50.54 311.66 191.84 352.88 420.23 55.585 308-109.29 564.1-303.46 688.32-186.63 119.39-384.19 156.03-534.05 156.03-130.74 0-249.7-118.95-249.7-249.7s118.95-249.7 249.7-249.7c42.797 0 191.24-30.17 264.94-77.318 41.322-26.434 62.623-49.872 73.426-70.947 10.802-21.075 29.08-52.039 11.346-103.54-12.969-37.662-84.231-48.499-100-48.499-100 0-235.86-96.13-248.28-226.28v-4e-3c-12.398-129.93 94.344-259.41 224.2-272.2 0.87159-0.0791 24.838-2.2434 52.615-1.959z" fill="#fff"/></g></svg>
