<svg height="1600" viewBox="0 0 1600 1600" width="1600" xmlns="http://www.w3.org/2000/svg" xmlns:inkscape="http://www.inkscape.org/namespaces/inkscape" xmlns:sodipodi="http://sodipodi.sourceforge.net/DTD/sodipodi-0.dtd"><sodipodi:namedview pagecolor="#303030" showgrid="true"><inkscape:grid id="grid5" units="px" spacingx="100" spacingy="100" color="#4772b3" opacity="0.2" visible="true" /></sodipodi:namedview><g fill="#fff"><path d="m120.85938 263.01172c-2.71113-.14985-5.132.84146-7.07032 2.78125-2.61921 2.6212-3.50441 6.90582-2.24609 9.9043.25386.60493.66496 1.06469 1.2168 1.20507.55183.14039 1.13738-.0925 1.59375-.54882l10-10a.50005.50005 0 0 0 .01-.01c.45574-.48275.74002-1.03795.61133-1.61328s-.64203-.96413-1.31445-1.18164c-.96105-.31088-1.89708-.48716-2.80078-.53711zm-.0586.98437c.81237.051 1.66258.21855 2.55078.50586.49509.16015.62426.33915.64844.44727.0242.10812-.028.35187-.36328.70703l-9.99024 9.99023c-.29363.29364-.48952.32555-.64062.28711-.1511-.0384-.36452-.20246-.54102-.62304-1.05362-2.51071-.27172-6.50583 2.03125-8.81055 1.77041-1.77175 3.86758-2.65679 6.30469-2.50391zm-5.3164 3.00391a.50005.50005 0 0 0 -.34376.15234c-1.38576 1.38576-2.14362 3.67071-2.14062 5.34766a.50005.50005 0 1 0 1 0c-.002-1.34281.7435-3.53647 1.84766-4.64062a.50005.50005 0 0 0 -.36328-.85938zm7.02343 3a.50005.50005 0 1 0 0 1c.67897 0 1.01439.13886 1.19922.33398.18483.19513.30078.54691.30078 1.16602a.50005.50005 0 1 0 1 0c0-.74159-.136-1.38882-.57617-1.85352-.44017-.46469-1.10279-.64648-1.92383-.64648zm-2.01562 1.99219a.50005.50005 0 0 0 -.49219.50781c0 .86111.31215 1.53681.80469 1.94727.49254.41045 1.11198.55273 1.69531.55273.41667 0 .79723.10772 1.05469.32227.25746.21454.44531.53884.44531 1.17773a.50005.50005 0 1 0 1 0c0-.86111-.31215-1.53681-.80469-1.94727-.49254-.41045-1.11198-.55273-1.69531-.55273-.41667 0-.79723-.10772-1.05469-.32227-.25746-.21454-.44531-.53884-.44531-1.17773a.50005.50005 0 0 0 -.50781-.50781zm-2 2a.50005.50005 0 0 0 -.49219.50781c0 .82103.18179 1.48561.64648 1.92578.4647.44017 1.11193.57422 1.85352.57422h1a.50005.50005 0 1 0 0-1h-1c-.61911 0-.97089-.11595-1.16602-.30078-.19512-.18483-.33398-.52025-.33398-1.19922a.50005.50005 0 0 0 -.50781-.50781z" transform="matrix(100 0 0 100 -10999.3003 -26200.201)"/></g></svg>