<?xml version="1.0" encoding="UTF-8" standalone="no"?>
<svg
   height="1600"
   viewBox="0 0 1600 1600"
   width="1600"
   version="1.1"
   id="svg1"
   xmlns="http://www.w3.org/2000/svg"
   xmlns:svg="http://www.w3.org/2000/svg">
  <defs
     id="defs1" />
  <g
     id="g1"
     transform="matrix(2.386373,0,0,2.386373,-532.38882,-905.91275)">
    <path
       d="m 581.14648,639.44464 c 0.2803,1.24602 0.41929,2.48276 0.40099,3.68552 l 0.0161,84.25292 c 0.003,12.82572 -10.39315,23.22236 -23.21933,23.22133 -12.82665,-0.003 -23.22635,-10.40321 -23.22738,-23.22939 l -0.0141,-84.25292 c -0.0187,-1.20171 0.11815,-2.43534 0.39697,-3.67543 A 146.67354,146.67354 0 0 0 411.6593,784.33218 146.67354,146.67354 0 0 0 558.33218,931.00506 146.67354,146.67354 0 0 0 705.00506,784.33218 146.67354,146.67354 0 0 0 581.14648,639.44464 Z"
       style="display:inline;fill:#ffffff;stroke-width:93.6627;stroke-linecap:round"
       id="path18" />
    <path
       id="path12"
       style="baseline-shift:baseline;display:inline;overflow:visible;opacity:0.5;vector-effect:none;fill:#ffffff;stroke-linecap:round;stroke-linejoin:round;enable-background:accumulate;stop-color:#000000;stop-opacity:1"
       d="m 697.6093,522.42374 c -7.75761,-0.0184 -15.05635,3.38727 -18.74248,10.0039 l -28.24223,48.91789 c -5.92084,10.25368 -2.36296,23.54007 7.89067,29.4609 l 0.002,0.002 c 10.25432,5.91946 23.54137,2.35805 29.46089,-7.89639 h -0.002 l 28.24222,-48.91789 c 2.77601,-4.64169 3.0563,-10.0808 1.75394,-15.25589 -1.30236,-5.17509 -4.44154,-10.32303 -9.74364,-13.46922 -0.005,-0.003 -0.0104,-0.007 -0.0156,-0.01 -3.37028,-1.98586 -7.07771,-2.82759 -10.60383,-2.83593 z m 100.62915,101.56627 v 8.2e-4 c -3.30495,-0.006 -6.61175,0.68748 -9.56685,2.45453 l 0.0786,-0.0467 -48.9981,28.28888 c -10.25444,5.91952 -13.81421,19.20495 -7.89476,29.45926 v 0.002 c 5.92083,10.25363 19.20723,13.81395 29.4609,7.89312 l 48.91788,-28.24468 c 4.72505,-2.63187 7.68513,-7.2027 9.14454,-12.33567 1.4594,-5.13297 1.31538,-11.15953 -1.7032,-16.53512 -0.003,-0.005 -0.007,-0.0104 -0.01,-0.0156 -4.2359,-7.49007 -12.15877,-10.90649 -19.42916,-10.92056 z m 38.60952,138.77542 -56.57857,8.2e-4 c -11.84045,-7.6e-4 -21.56782,9.72586 -21.56859,21.56613 7.7e-4,11.84028 9.72852,21.56691 21.56859,21.56614 h 56.57857 l -0.0925,-0.002 c 5.40782,0.0833 10.25595,-2.39424 14.08633,-6.10972 3.83038,-3.71548 6.7195,-9.00692 6.79313,-15.17159 10e-6,-0.007 10e-6,-0.0131 0,-0.0197 0.0555,-6.25791 -2.78084,-11.68587 -6.61716,-15.51206 -3.83632,-3.82618 -8.75443,-6.40037 -14.2623,-6.31597 z m -85.73828,110.9727 c -7.65299,-0.19924 -15.18187,3.72809 -19.25238,10.77734 v 0.002 c -5.91945,10.25432 -2.35968,23.53975 7.89476,29.45926 l 48.92198,28.24386 c 4.64153,2.77525 10.07734,3.05232 15.2518,1.74984 5.17505,-1.30262 10.32227,-4.43998 13.4684,-9.742 0.004,-0.005 0.007,-0.0104 0.0106,-0.0155 3.17699,-5.3918 3.43418,-11.51296 2.02484,-16.74465 -1.40887,-5.22992 -4.38033,-9.91631 -9.18954,-12.59757 l -0.004,-0.004 -48.91788,-28.24223 c -3.20378,-1.84998 -6.72887,-2.79606 -10.20852,-2.88667 z" />
    <path
       id="path13"
       style="baseline-shift:baseline;display:inline;overflow:visible;opacity:1;vector-effect:none;fill:#ffffff;stroke-linecap:round;stroke-linejoin:round;enable-background:accumulate;stop-color:#000000;stop-opacity:1"
       d="m 558.59735,485.02962 c -6.25807,-0.0554 -11.68738,2.78073 -15.5137,6.61716 -3.82631,3.83644 -6.40038,8.75336 -6.31598,14.26147 l -0.002,-0.09 v 56.57612 c -7.6e-4,11.84045 9.72667,21.56783 21.56695,21.56859 11.84028,-7.6e-4 21.56691,-9.72814 21.56614,-21.56859 v -56.48445 c 0.0832,-5.40783 -2.39595,-10.25739 -6.11136,-14.08797 -3.71542,-3.83059 -9.00673,-6.71868 -15.17159,-6.7923 -0.006,-1e-5 -0.012,-1e-5 -0.018,0 z m -139.17319,37.35893 c -3.47474,-0.0503 -7.13907,0.7131 -10.49825,2.59939 -0.005,0.003 -0.0104,0.005 -0.0155,0.008 -5.44728,3.08097 -8.72968,8.25256 -10.12503,13.48804 -1.39536,5.23549 -1.16721,10.78267 1.65981,15.51043 l 28.24223,48.91789 c 5.91951,10.25444 19.20494,13.81585 29.45926,7.89639 l 0.002,-0.002 c 10.25363,-5.92083 13.81151,-19.20722 7.89067,-29.4609 h 0.002 l -28.24468,-48.91789 c -3.61864,-6.49658 -10.73029,-9.92837 -18.37255,-10.03909 z M 318.59777,623.98264 c -7.15466,-0.0582 -15.00257,3.16298 -19.3285,10.45323 -0.003,0.005 -0.007,0.0104 -0.01,0.0155 -3.17704,5.39188 -3.43251,11.51201 -2.0232,16.74384 1.40931,5.23184 4.37891,9.92076 9.19118,12.60166 l 48.91789,28.24386 c 10.25367,5.92083 23.54007,2.36133 29.4609,-7.8923 l 0.002,-0.002 c 5.91946,-10.25431 2.35804,-23.53974 -7.8964,-29.45926 l -48.9187,-28.24222 c -2.90145,-1.73525 -6.14348,-2.43624 -9.3958,-2.46272 z m -38.7814,138.78361 0.0917,0.002 c -5.40782,-0.0832 -10.25514,2.39424 -14.08551,6.10972 -3.83038,3.71548 -6.71951,9.00693 -6.79313,15.17159 -1e-5,0.007 -1e-5,0.0131 0,0.0196 -0.0554,6.25787 2.78087,11.68507 6.61716,15.51125 3.8363,3.82618 8.75361,6.40119 14.26148,6.31679 l -0.0917,0.002 h 56.57776 c 11.84008,7.7e-4 21.56782,-9.72587 21.56859,-21.56614 -7.7e-4,-11.8396 -9.72658,-21.56581 -21.56614,-21.56613 z m 85.73828,110.97188 c -3.47965,0.0906 -7.00555,1.03751 -10.20933,2.88749 l -48.91789,28.24141 v 8.2e-4 h -8.2e-4 v 8.2e-4 h -8.2e-4 v 8.2e-4 l -8.1e-4,8.1e-4 v 8.2e-4 h -8.2e-4 -8.2e-4 c -4.72222,2.63231 -7.68154,7.20119 -9.14044,12.33239 -1.4594,5.13298 -1.31539,11.15954 1.70319,16.53513 0.003,0.006 0.007,0.0115 0.01,0.0172 3.08097,5.44727 8.25338,8.72968 13.48886,10.12504 5.23491,1.3952 10.77811,1.16632 15.50552,-1.65982 h 0.002 l 48.91952,-28.24386 c 10.25444,-5.91951 13.81585,-19.20494 7.8964,-29.45926 l -0.002,-0.002 c -4.07051,-7.04925 -11.5994,-10.97659 -19.25238,-10.77734 z" />
  </g>
</svg>
