<svg height="1600" viewBox="0 0 1600 1600" width="1600" xmlns="http://www.w3.org/2000/svg" xmlns:inkscape="http://www.inkscape.org/namespaces/inkscape" xmlns:sodipodi="http://sodipodi.sourceforge.net/DTD/sodipodi-0.dtd"><sodipodi:namedview pagecolor="#303030" showgrid="true"><inkscape:grid id="grid5" units="px" spacingx="100" spacingy="100" color="#4772b3" opacity="0.2" visible="true" /></sodipodi:namedview><g fill="#fff"><g enable-background="new" transform="matrix(-99.21709 0 0 -99.217086 141683.095 58439.94699999999)"><path d="m1419.4941 588.00195c4.1402 0 7.5079-3.36769 7.5079-7.50781a.50004997.50004997 0 1 0 -1 0c0 3.59968-2.9082 6.50781-6.5079 6.50781a.50004997.50004997 0 1 0 0 1z" opacity=".6"/><path d="m1416.4941 585.10156c4.1942 0 7.6075-3.41326 7.6075-7.60742a.6006.6006 0 1 0 -1.2012 0c0 3.54564-2.8606 6.40625-6.4063 6.40625a.600585.600585 0 1 0 0 1.20117z"/><path d="m1413.4941 582.10156c4.1942 0 7.6075-3.41326 7.6075-7.60742a.6006.6006 0 1 0 -1.2012 0c0 3.54564-2.8606 6.40625-6.4063 6.40625a.600585.600585 0 1 0 0 1.20117z"/></g></g></svg>