<svg height="1600" viewBox="0 0 1600 1600" width="1600" xmlns="http://www.w3.org/2000/svg" xmlns:inkscape="http://www.inkscape.org/namespaces/inkscape" xmlns:sodipodi="http://sodipodi.sourceforge.net/DTD/sodipodi-0.dtd"><sodipodi:namedview pagecolor="#303030" showgrid="true"><inkscape:grid id="grid5" units="px" spacingx="100" spacingy="100" color="#4772b3" opacity="0.2" visible="true" /></sodipodi:namedview><g fill="#fff"><g enable-background="new" transform="translate(-233 -365)"><path d="m1028 1556c-3.2833 0-6 2.4414-6 5.5 0 1.7056.9046 3.146 2.1523 4.3594l.9942.9941a.50004997.50004997 0 0 0 .3027.1485.50004997.50004997 0 0 0 .051.998h5a.50004997.50004997 0 0 0 .045-.998.50004997.50004997 0 0 0 .3086-.1485l.9981-.998c1.2122-1.1985 2.1465-2.6518 2.1465-4.3535 0-3.0586-2.7167-5.5-6-5.5zm0 1c2.7919 0 5 2.0358 5 4.5 0 1.3342-.7428 2.5488-1.8516 3.6445l-1 1a.50004997.50004997 0 0 0 .2793.8535h-4.8594a.50004997.50004997 0 0 0 .2871-.8535l-1-1a.50004997.50004997 0 0 0 -.01-.01c-1.1397-1.1082-1.8477-2.2864-1.8477-3.6406 0-2.4642 2.2081-4.5 5-4.5zm-2.5 12a.50004997.50004997 0 1 0 0 1h1.5v.5a.50004997.50004997 0 0 0 .5.5h1a.50004997.50004997 0 0 0 .5-.5v-.5h1.5a.50004997.50004997 0 1 0 0-1z"/><path d="m1025.4902 1561.0059a.50005.50005 0 0 0 -.3437.8476l.8535.8535v1.543a.50005.50005 0 1 0 1 0v-1.25h2v1.25a.50005.50005 0 1 0 1 0v-1.543l.8535-.8535a.50005.50005 0 0 0 -.707-.707l-.8535.8535h-2.586l-.8535-.8535a.50005.50005 0 0 0 -.3633-.1406z" opacity=".6"/></g><g enable-background="new" transform="matrix(-100 0 0 100 31499.99600000001 -30400.003)"><path d="m268.5 242c-1.88693 0-3.42464 1.51084-3.48828 3.38281-.009.0385-.0124.0778-.0117.11719-.00041.0117-.00041.0234 0 .0352v3.4648h-3.5c-.0381-.00042-.0761.004-.11328.0117-1.87384.06164-3.38674 1.60004-3.38674 3.4883 0 1.88693 1.51084 3.42464 3.38281 3.48828.0385.009.0778.0124.11719.0117h7c.92807 0 1.81837-.36915 2.47461-1.02539.65624-.65622 1.02539-1.54652 1.02539-2.47459v-7c.00072-.0394-.003-.0787-.0117-.11719-.06368-1.87197-1.60137-3.38281-3.4883-3.38281zm0 1c1.38663 0 2.5 1.11337 2.5 2.5-.00041.0117-.00041.0234 0 .0352v6.9648c0 .66323-.26345 1.2986-.73242 1.76758-.46898.46897-1.10435.73242-1.76758.73242h-7c-1.38663 0-2.5-1.11337-2.5-2.5s1.11337-2.5 2.5-2.5h3.75c.1326-.00002.25976-.0527.35352-.14648l.25-.25c.0938-.0938.14646-.22092.14648-.35352v-3.75c0-1.38663 1.11337-2.5 2.5-2.5z" fill-rule="evenodd" transform="matrix(-1 0 0 1 572 63)"/><path d="m303.49219 307.99219a.50005.50005 0 0 0 -.49219.50781v6.91992a.50005.50005 0 0 0 .11328.4043.50005.50005 0 0 0 .0156.0195.50005.50005 0 0 0 .0176.0176.50005.50005 0 0 0 .004.002.50005.50005 0 0 0 .0332.0312.50005.50005 0 0 0 .004.002.50005.50005 0 0 0 .39435.10348h6.91797a.50005.50005 0 1 0 0-1h-6.5v-6.5a.50005.50005 0 0 0 -.50781-.50781z" opacity=".6"/></g></g></svg>