<svg height="1600" viewBox="0 0 1600 1600" width="1600" xmlns="http://www.w3.org/2000/svg" xmlns:inkscape="http://www.inkscape.org/namespaces/inkscape" xmlns:sodipodi="http://sodipodi.sourceforge.net/DTD/sodipodi-0.dtd"><sodipodi:namedview pagecolor="#303030" showgrid="true"><inkscape:grid id="grid5" units="px" spacingx="100" spacingy="100" color="#4772b3" opacity="0.2" visible="true" /></sodipodi:namedview><g fill="#fff"><g enable-background="new" transform="translate(-233 -365)"><path d="m1028 1556c-3.2833 0-6 2.4414-6 5.5 0 1.7056.9046 3.146 2.1523 4.3594l.9942.9941a.50004997.50004997 0 0 0 .3027.1485.50004997.50004997 0 0 0 .051.998h5a.50004997.50004997 0 0 0 .045-.998.50004997.50004997 0 0 0 .3086-.1485l.9981-.998c1.2122-1.1985 2.1465-2.6518 2.1465-4.3535 0-3.0586-2.7167-5.5-6-5.5zm0 1c2.7919 0 5 2.0358 5 4.5 0 1.3342-.7428 2.5488-1.8516 3.6445l-1 1a.50004997.50004997 0 0 0 .2793.8535h-4.8594a.50004997.50004997 0 0 0 .2871-.8535l-1-1a.50004997.50004997 0 0 0 -.01-.01c-1.1397-1.1082-1.8477-2.2864-1.8477-3.6406 0-2.4642 2.2081-4.5 5-4.5zm-2.5 12a.50004997.50004997 0 1 0 0 1h1.5v.5a.50004997.50004997 0 0 0 .5.5h1a.50004997.50004997 0 0 0 .5-.5v-.5h1.5a.50004997.50004997 0 1 0 0-1z"/><path d="m1025.4902 1561.0059a.50005.50005 0 0 0 -.3437.8476l.8535.8535v1.543a.50005.50005 0 1 0 1 0v-1.25h2v1.25a.50005.50005 0 1 0 1 0v-1.543l.8535-.8535a.50005.50005 0 0 0 -.707-.707l-.8535.8535h-2.586l-.8535-.8535a.50005.50005 0 0 0 -.3633-.1406z" opacity=".6"/></g><g enable-background="new" transform="matrix(0 100 -100 0 36200.00000000001 -46600)"><path d="m479 347c-1.09865 0-1.99999.90135-2 2 0 1.09865.90135 2 2 2s2-.90135 2-2c-.00001-1.09865-.90135-2-2-2zm0 1c.55821 0 1 .44179 1 1s-.44179 1-1 1-1-.44179-1-1 .44179-1 1-1zm.5 9c-.8225 0-1.5.6775-1.5 1.5s.6775 1.5 1.5 1.5 1.5-.6775 1.5-1.5-.6775-1.5-1.5-1.5zm0 1c.28206 0 .5.21794.5.5s-.21794.5-.5.5-.5-.21794-.5-.5.21794-.5.5-.5zm-10-11c-.82251 0-1.5.67749-1.5 1.5s.67749 1.5 1.5 1.5c.8225 0 1.5-.6775 1.5-1.5 0-.82251-.67749-1.5-1.5-1.5zm0 1c.28207 0 .5.21793.5.5s-.21793.5-.5.5-.5-.21793-.5-.5.21793-.5.5-.5zm0 8c-1.37478 0-2.5 1.12522-2.5 2.5s1.12522 2.5 2.5 2.5 2.5-1.12522 2.5-2.5-1.12522-2.5-2.5-2.5zm0 1c.83434 0 1.5.66566 1.5 1.5s-.66566 1.5-1.5 1.5-1.5-.66566-1.5-1.5.66566-1.5 1.5-1.5z" fill-rule="evenodd"/><path d="m469.49219 348.99219a.50005.50005 0 0 0 -.49219.50781v5a.50005.50005 0 1 0 1 0v-5a.50005.50005 0 0 0 -.50781-.50781zm7.99804 1.0039a.50005.50005 0 0 0 -.34375.15039l-5 5a.50005.50005 0 1 0 .70704.70704l5-5a.50005.50005 0 0 0 -.36329-.85743zm-3.99023 8.00391a.50005.50005 0 1 0 0 1h5a.50005.50005 0 1 0 0-1z" opacity=".7"/></g></g></svg>