<svg height="1500" viewBox="0 0 1600 1500" width="1600" xmlns="http://www.w3.org/2000/svg" xmlns:inkscape="http://www.inkscape.org/namespaces/inkscape" xmlns:sodipodi="http://sodipodi.sourceforge.net/DTD/sodipodi-0.dtd"><sodipodi:namedview pagecolor="#303030" showgrid="true"><inkscape:grid id="grid5" units="px" spacingx="100" spacingy="100" color="#4772b3" opacity="0.2" visible="true" /></sodipodi:namedview><g fill="#fff"><g enable-background="new" transform="matrix(100 0 0 100 -17300 -47300)"><path d="m52.0071 410.99995v1l9.4929.00005c.676161.01.676161-1.00956 0-1zm-3.5071 5.00005c-.676161-.01-.676161 1.00956 0 1l5.5071-.00005v-1zm10.5071-.00005v1l2.4929.00005c.676161.01.676161-1.00956 0-1zm-10.5071 5.00005c-.676161-.01-.676161 1.00956 0 1l9.5071-.00005v-1z" opacity=".594" transform="translate(126 64.0001)"/><path d="m175.5 474c-.8225 0-1.5.6775-1.5 1.5s.6775 1.5 1.5 1.5 1.5-.6775 1.5-1.5-.6775-1.5-1.5-1.5zm0 1c.28206 0 .5.21794.5.5s-.21794.5-.5.5-.5-.21794-.5-.5.21794-.5.5-.5zm7 4c-.8225 0-1.5.6775-1.5 1.5s.6775 1.5 1.5 1.5 1.5-.6775 1.5-1.5-.6775-1.5-1.5-1.5zm0 1c.28206 0 .5.21794.5.5s-.21794.5-.5.5-.5-.21794-.5-.5.21794-.5.5-.5zm4 4c-.8225 0-1.5.6775-1.5 1.5s.6775 1.5 1.5 1.5 1.5-.6775 1.5-1.5-.6775-1.5-1.5-1.5zm0 1c.28206 0 .5.21794.5.5s-.21794.5-.5.5-.5-.21794-.5-.5.21794-.5.5-.5z"/></g></g></svg>