<?xml version="1.0" encoding="UTF-8" standalone="no"?>
<svg
   id="svg3"
   height="1600"
   viewBox="0 0 1600 1600"
   width="1600"
   version="1.1"
   xmlns="http://www.w3.org/2000/svg"
   xmlns:svg="http://www.w3.org/2000/svg">
  <defs
     id="defs1" />
  <g
     id="g5">
    <path
       d="m 149.91406,99.972656 c -8.806,0.001 -16.95453,2.476614 -24.14453,6.474614 -0.46018,0.23898 -0.91662,0.4851 -1.36914,0.73828 -7.112,4.2516 -13.02344,10.16043 -17.27344,17.27343 -0.24006,0.45212 -0.47316,0.90791 -0.69922,1.36719 -3.99,7.1864 -6.469699,15.33753 -6.470699,24.14453 v 1300 c 0.007,18.9657 10.011109,33.4916 23.662109,41.9551 1.00797,0.6409 2.03858,1.2454 3.08984,1.8125 7.184,3.7877 15.05047,6.1642 23.23047,6.2285 h 0.0176 0.082 c 0.51,0 1.01953,0.083 1.51953,0.07 h 0.0156 c 0.2,-0.01 0.50117,-0.061 0.70117,-0.07 H 1449.957 c 27.6131,0 49.9972,-22.3869 50,-50 V 152.28906 c 0.03,-0.748 0,-1.48633 0,-2.23633 v -0.082 l -0.049,-0.0137 c -0.07,-8.1835 -2.4385,-16.04647 -6.2285,-23.23047 -0.5663,-1.05322 -1.1702,-2.08578 -1.8106,-3.0957 -8.463,-13.6475 -22.989,-23.650904 -41.955,-23.658204 z M 550,300 c 27.61424,0 50,22.38576 50,50 v 150 h 150 c 27.61424,0 50,22.38576 50,50 0,27.61424 -22.38576,50 -50,50 H 600 v 150 c 0,27.61424 -22.38576,50 -50,50 -27.61424,0 -50,-22.38576 -50,-50 V 600 H 350 c -27.61424,0 -50,-22.38576 -50,-50 0,-27.61424 22.38576,-50 50,-50 H 500 V 350 c 0,-27.61424 22.38576,-50 50,-50 z m 849.957,-29.32617 V 1399.9707 H 270.66016 Z"
       style="fill:#ffffff"
       id="path6" />
    <path
       style="fill:none;fill-opacity:0.6;stroke:#ffffff;stroke-width:88.7273;stroke-linecap:round;stroke-dasharray:none;stroke-opacity:1"
       d="M 1156.5003,1152.6082 H 842.69009"
       id="path4" />
  </g>
</svg>
