<svg height="1600" viewBox="0 0 1600 1600" width="1600" xmlns="http://www.w3.org/2000/svg" xmlns:inkscape="http://www.inkscape.org/namespaces/inkscape" xmlns:sodipodi="http://sodipodi.sourceforge.net/DTD/sodipodi-0.dtd"><sodipodi:namedview pagecolor="#303030" showgrid="true"><inkscape:grid id="grid5" units="px" spacingx="100" spacingy="100" color="#4772b3" opacity="0.2" visible="true" /></sodipodi:namedview><g fill="#fff"><g enable-background="new" transform="matrix(100 0 0 100 -34099.67 -24099.706)"><path d="m347.75 247-5.25781.002a.50005.50005 0 0 0 -.5.5v8a.50005.50005 0 0 0 .5.5h8a.50005.50005 0 0 0 .5-.49804l.00781-4.00201a.50005.50005 0 1 0 -1-.004l-.008 3.5039h-7v-7l4.758-.00185a.50005.50005 0 1 0 0-1z" opacity=".5"/><path d="m350.49219 241.99219a.50005.50005 0 0 0 -.49219.50781v4.59766c-.58199.20687-1.00586.75933-1.00586 1.4082 0 .82235.67765 1.5 1.5 1.5.36227 0 .69258-.13606.95313-.35352l3.79492 2.27735a.50109829.50109829 0 1 0 .51562-.85938l-3.79297-2.27734c.0184-.0931.0293-.18901.0293-.28711 0-.10213-.0114-.20218-.0312-.29883l3.79492-2.27734a.50109829.50109829 0 1 0 -.51562-.85938l-3.80469 2.28321c-.13066-.10739-.27627-.19312-.43755-.25196v-4.60156a.50005.50005 0 0 0 -.50781-.50781z"/></g></g></svg>