<svg height="1600" viewBox="0 0 1600 1600" width="1600" xmlns="http://www.w3.org/2000/svg" xmlns:inkscape="http://www.inkscape.org/namespaces/inkscape" xmlns:sodipodi="http://sodipodi.sourceforge.net/DTD/sodipodi-0.dtd"><sodipodi:namedview pagecolor="#303030" showgrid="true"><inkscape:grid id="grid5" units="px" spacingx="100" spacingy="100" color="#4772b3" opacity="0.2" visible="true" /></sodipodi:namedview><g fill="#fff"><g enable-background="new" transform="matrix(100 0 0 100 -21500.355 -28299.645)"><path d="m216.49219 286a.50005.50005 0 0 0 -.5.5l.00781 11.00781a.50005.50005 0 0 0 .5.5h11a.50005.50005 0 0 0 .5-.5v-2.50781h-1v2.00781h-10l-.00781-10.00781h2.00781v-1z" opacity=".5"/><path d="m227.53906 284c-.61479.0726-1.18185.348-1.74609.6543-1.12848.6126-2.25964 1.3457-3.29297 1.3457h-1a.50005.50005 0 1 0 0 1h1c1.46667 0 2.71051-.8919 3.76953-1.4668.52951-.28745 1.00932-.49644 1.38672-.54101.3774-.0446.64533.0164.99023.36133.34491.3449.40591.61283.36133.99023-.0446.3774-.25356.85721-.54101 1.38672-.5749 1.05902-1.4668 2.30286-1.4668 3.76953v1a.50005.50005 0 1 0 1 0v-1c0-1.03333.7331-2.16449 1.3457-3.29297.3063-.56424.58169-1.1313.6543-1.74609.0726-.61479-.11639-1.28436-.64648-1.81446-.5301-.53009-1.19967-.71909-1.81446-.64648z"/></g></g></svg>