<svg id="svg3" height="1600" viewBox="0 0 1600 1600" width="1600" xmlns="http://www.w3.org/2000/svg" xmlns:inkscape="http://www.inkscape.org/namespaces/inkscape" xmlns:sodipodi="http://sodipodi.sourceforge.net/DTD/sodipodi-0.dtd"><sodipodi:namedview pagecolor="#303030" showgrid="true"><inkscape:grid id="grid5" units="px" spacingx="100" spacingy="100" color="#4772b3" opacity="0.2" visible="true" /></sodipodi:namedview><g fill="#fff" transform="matrix(96.222213 0 0 101.17642 -32801.006 -30806.974)"><path id="path7" d="m355.01619 306.964a.5.5 0 0 0 -.28383.1239h.00006l-4.21485 3.7246a.5.5 0 0 0 -.04299.70703.5.5 0 0 0 .70702.04299l4.21291-3.7246a.5.5 0 0 0 .0449-.70703.5.5 0 0 0 -.42322-.16689zm-7.09405 6.06612a.5.5 0 0 0 -.28346.12223v-.00001l-4.51758 3.99414a.5.5 0 0 0 -.04302.70508.5.5 0 0 0 .7051.04491l4.51758-3.99415a.5.5 0 0 0 .04299-.70506.5.5 0 0 0 -.42161-.16714z" opacity=".5"/><path id="path2" d="m355.99023 305.47461c-3.56991-.0161-5.49793.82669-6.44336 2.22461-.94542 1.39792-.84008 3.14087-.77734 4.75976.0627 1.6189.0835 3.11133-.62891 4.13086-.71236 1.01953-2.2354 1.77394-5.68945 1.73828a.50674874.50674874 0 0 0 -.51367.50196.50674874.50674874 0 0 0 .50195.51172c3.60845.0373 5.56218-.78494 6.53125-2.17188.96908-1.38693.87532-3.12907.8125-4.75-.0628-1.62093-.0926-3.1231.60352-4.15234.69608-1.02924 2.18691-1.79666 5.59961-1.78125a.50674874.50674874 0 0 0 .50781-.50391.50674874.50674874 0 0 0 -.50391-.50781z"/></g></svg>