<svg height="1600" viewBox="0 0 1600 1600" width="1600" xmlns="http://www.w3.org/2000/svg" xmlns:inkscape="http://www.inkscape.org/namespaces/inkscape" xmlns:sodipodi="http://sodipodi.sourceforge.net/DTD/sodipodi-0.dtd"><sodipodi:namedview pagecolor="#303030" showgrid="true"><inkscape:grid id="grid5" units="px" spacingx="100" spacingy="100" color="#4772b3" opacity="0.2" visible="true" /></sodipodi:namedview><g fill="#fff"><g enable-background="new" transform="matrix(100 0 0 100 -139102.755 -57300.514)"><path d="m1404.4688 576.96289a1.50015 1.50015 0 0 0 -.1036.01c-4.9348.53258-8.8525 4.44095-9.3925 9.375a1.5001977 1.5001977 0 1 0 2.9824.32812c.3887-3.55095 3.1789-6.33741 6.7304-6.7207a1.50015 1.50015 0 0 0 -.2167-2.99219z"/><path d="m1405.498 573.99805c-7.4498 0-13.5 6.0501-13.5 13.5a.50004997.50004997 0 1 0 1 0c0-6.90946 5.5906-12.5 12.5-12.5a.50004997.50004997 0 1 0 0-1z" opacity=".6"/></g></g></svg>