<svg height="1600" viewBox="0 0 1600 1600" width="1600" xmlns="http://www.w3.org/2000/svg" xmlns:inkscape="http://www.inkscape.org/namespaces/inkscape" xmlns:sodipodi="http://sodipodi.sourceforge.net/DTD/sodipodi-0.dtd"><sodipodi:namedview pagecolor="#303030" showgrid="true"><inkscape:grid id="grid5" units="px" spacingx="100" spacingy="100" color="#4772b3" opacity="0.2" visible="true" /></sodipodi:namedview><g fill="#fff"><path d="m10.492188 241.99219a.50005.50005 0 0 0 -.074219.00781h-3.917969a.50005.50005 0 0 0 -.5.5v5a.50005.50005 0 0 0 .5.5h1.5v7.5a.50005.50005 0 0 0 .5.5h9a.50005.50005 0 0 0 .5-.5v-7.5h1.5a.50005.50005 0 0 0 .5-.5v-5a.50005.50005 0 0 0 -.5-.5h-3.919922a.50005.50005 0 0 0 -.404297.11328.50005.50005 0 0 0 -.01953.0156.50005.50005 0 0 0 -.01758.0176.50005.50005 0 0 0 -.002.004.50005.50005 0 0 0 -.03125.0332.50005.50005 0 0 0 -.002.004.50005.50005 0 0 0 -.103421.39435v.41797c0 .71532-.380592 1.37478-1 1.73242-.619409.35765-1.380591.35765-2 0-.619408-.35764-1-1.0171-1-1.73242v-.41992a.50005.50005 0 0 0 -.113281-.4043.50005.50005 0 0 0 -.002-.004.50005.50005 0 0 0 -.03125-.0332.50005.50005 0 0 0 -.0039-.002.50005.50005 0 0 0 -.0332-.0312.50005.50005 0 0 0 -.0039-.002.50005.50005 0 0 0 -.320312-.11133zm-3.492188 1.00781h3c0 1.07096.57257 2.06216 1.5 2.59766.927429.53549 2.072571.53549 3 0 .92743-.5355 1.5-1.5267 1.5-2.59766h3v4h-1.5a.50005.50005 0 0 0 -.5.5v7.5h-8v-7.5a.50005.50005 0 0 0 -.5-.5h-1.5z" transform="matrix(100 0 0 100 -500 -24099.601)"/></g></svg>