<svg height="1600" viewBox="0 0 1600 1600" width="1600" xmlns="http://www.w3.org/2000/svg" xmlns:inkscape="http://www.inkscape.org/namespaces/inkscape" xmlns:sodipodi="http://sodipodi.sourceforge.net/DTD/sodipodi-0.dtd"><sodipodi:namedview pagecolor="#303030" showgrid="true"><inkscape:grid id="grid5" units="px" spacingx="100" spacingy="100" color="#4772b3" opacity="0.2" visible="true" /></sodipodi:namedview><g fill="#fff"><g enable-background="new" transform="matrix(100 0 0 100 -27800 -28300)"><path d="m279.5 288c-.27613.00003-.49997.22387-.5.5v2c.00003.27613.22387.49997.5.5h.71484l2.78516 4.64062v1.85938c.00003.27613.22387.49997.5.5h2c.27613-.00003.49997-.22387.5-.5v-1.85938l2.78516-4.64062h.71484c.27613-.00003.49997-.22387.5-.5v-2c-.00003-.27613-.22387-.49997-.5-.5h-2c-.27613.00003-.49997.22387-.5.5v.5h-5v-.5c-.00003-.27613-.22387-.49997-.5-.5zm.5 1h1v1h-1zm8 0h1v1h-1zm-6 1h5v.5c.00003.27613.22387.49997.5.5h.11523l-2.40039 4h-1.42968l-2.40039-4h.11523c.27613-.00003.49997-.22387.5-.5zm2 6h1v1h-1z"/><path d="m283.5 284c-.27613.00003-.49997.22387-.5.5v3.5h1v-3h8v10h-3.5c-.67616-.01-.67616 1.00956 0 1h4c.27613-.00003.49997-.22387.5-.5v-11c-.00003-.27613-.22387-.49997-.5-.5z" opacity=".5"/></g></g></svg>