<svg height="1600" viewBox="0 0 1700 1600" width="1700" xmlns="http://www.w3.org/2000/svg" xmlns:inkscape="http://www.inkscape.org/namespaces/inkscape" xmlns:sodipodi="http://sodipodi.sourceforge.net/DTD/sodipodi-0.dtd"><sodipodi:namedview pagecolor="#303030" showgrid="true"><inkscape:grid id="grid5" units="px" spacingx="100" spacingy="100" color="#4772b3" opacity="0.2" visible="true" /></sodipodi:namedview><g fill="#fff"><g enable-background="new" transform="matrix(100 0 0 100 -42400 -34600.005)"><path d="m427.5 348c-1.37479 0-2.5 1.12521-2.5 2.5 0 1.17958.69047 1.86035 1.13281 2.33984.59193.64165 1.20449 1.21721 1.66016 1.66016l-.89649.89648c-.91207.91207-1.15649 2.32468-.5625 3.35352.56456.97783 1.72188 1.4563 2.8125 1.16406 1.09063-.29223 1.85352-1.28496 1.85352-2.41406a.50005.50005 0 1 0 -1 0c0 .68132-.45321 1.27287-1.11133 1.44922-.65811.17634-1.34683-.10917-1.6875-.69922-.31121-.53904-.18558-1.55855.40235-2.14648l1.25-1.25a.50005.50005 0 0 0 0-.70704c-.4316-.43159-1.30799-1.251-1.98633-1.98632-.48018-.52051-.86719-.83974-.86719-1.66016 0-.83435.66565-1.5 1.5-1.5 1.16667 0 2.02863 1.23566 2.64648 1.85352a.50005.50005 0 1 0 .70704-.70704c-.38215-.38214-1.52019-2.14648-3.35352-2.14648z" opacity=".6"/><path d="m437.5 348c-1.83333 0-2.97137 1.76434-3.35352 2.14648a.50005.50005 0 1 0 .70704.70704c.61785-.61786 1.47981-1.85352 2.64648-1.85352.83435 0 1.5.66565 1.5 1.5 0 .82042-.38701 1.13965-.86719 1.66016-.67834.73532-1.55473 1.55473-1.98633 1.98632a.50005.50005 0 0 0 0 .70704l1.25 1.25c.58793.58793.71356 1.60744.40235 2.14648-.34067.59005-1.02939.87556-1.6875.69922-.65812-.17635-1.11133-.7679-1.11133-1.44922a.50005.50005 0 1 0 -1 0c0 1.1291.76289 2.12183 1.85352 2.41406 1.09062.29224 2.24794-.18623 2.8125-1.16406.59399-1.02884.34957-2.44145-.5625-3.35352l-.89649-.89648c.45567-.44295 1.06823-1.01851 1.66016-1.66016.44234-.47949 1.13281-1.16026 1.13281-2.33984 0-1.37479-1.12521-2.5-2.5-2.5zm-4.5 4.00005v-2h-1v2zm0-3v-2h-1v2zm0 12v-2h-1v2zm0-3v-2h-1v2zm0-3v-2h-1v2z"/></g></g></svg>