<svg height="1600" viewBox="0 0 1600 1600" width="1600" xmlns="http://www.w3.org/2000/svg" xmlns:inkscape="http://www.inkscape.org/namespaces/inkscape" xmlns:sodipodi="http://sodipodi.sourceforge.net/DTD/sodipodi-0.dtd"><sodipodi:namedview pagecolor="#303030" showgrid="true"><inkscape:grid id="grid5" units="px" spacingx="100" spacingy="100" color="#4772b3" opacity="0.2" visible="true" /></sodipodi:namedview><g fill="#fff"><g enable-background="new" transform="matrix(100 0 0 100 -4599.61 -57700.003)"><path d="m47.5 578a.50005.50005 0 0 0 -.5.5l-.0078 10.5c0 1.51667 1.219298 3 2.984374 3 1.765077 0 3.015625-1.475 3.015626-3l.0078-10.5a.50005.50005 0 0 0 -.5-.5zm.5 1h4l-.0078 10c0 .975-.811952 2-2.015626 2-1.203673 0-1.984375-1.01667-1.984374-2z"/><path d="m58.492188 586a.50005.50005 0 1 0 0 1h1.507812v4h-6.257812a.50005.50005 0 1 0 0 1h6.757812a.50005.50005 0 0 0 .5-.5v-5a.50005.50005 0 0 0 -.5-.5z" opacity=".6"/><path d="m56.492188 579a.50005.50005 0 0 0 -.345704.14648l-2 2a.50005.50005 0 1 0 .707032.70704l1.646484-1.64649 2.292969 2.29297-4.646485 4.64648a.50005.50005 0 1 0 .707032.70704l5-5a.50005.50005 0 0 0 0-.70704l-3-3a.50005.50005 0 0 0 -.361328-.14648z" opacity=".8"/><path d="m50 588c-.546362 0-1 .45364-1 1s.453638 1 1 1 1-.45364 1-1-.453638-1-1-1z" opacity=".6"/></g></g></svg>