<svg height="1600" viewBox="0 0 1600 1600" width="1600" xmlns="http://www.w3.org/2000/svg" xmlns:inkscape="http://www.inkscape.org/namespaces/inkscape" xmlns:sodipodi="http://sodipodi.sourceforge.net/DTD/sodipodi-0.dtd"><sodipodi:namedview pagecolor="#303030" showgrid="true"><inkscape:grid id="grid5" units="px" spacingx="100" spacingy="100" color="#4772b3" opacity="0.2" visible="true" /></sodipodi:namedview><g fill="#fff"><path d="m391.5 263.00781c-.82054 0-1.49609.67557-1.49609 1.4961 0 .82054.67555 1.49609 1.49609 1.49609.82053 0 1.49609-.67555 1.49609-1.49609 0-.82053-.67556-1.4961-1.49609-1.4961zm5.5.99219c-.71373 0-1.37556.3819-1.73242 1-.19053.33001-.2484.68266-.25586.99609v.0117h-1.54297c-.45945.59661-1.17125.99221-1.96875.99221-.79751 0-1.50931-.3956-1.96875-.99219h-.0195-5.01563c-.67616-.01-.67616 1.00956 0 1h5.01563.49805l-.0137 3.28711c-1.65939 1.40974-3.24134 2.62162-3.98828 6.10742-.17787.67446.8602.89868.97657.21094.67528-3.15139 1.9234-4.08819 3.51757-5.42773 1.58398 1.34059 2.83152 2.27746 3.51953 5.42968.13318.66658 1.13544.44609.97657-.21484-.76273-3.49457-2.35105-4.70351-4.00196-6.11719l.0137-3.27539h2.21679 1.78516v.004c.007.31344.0653.66608.25586.99609.35686.61811 1.01869 1 1.73242 1h.5c.67616.01.67616-1.00956 0-1h-.50003c-.35807 0-.6862-.1899-.86523-.5-.0738-.12789-.11835-.32209-.12305-.51953v-.96875c.005-.19744.0492-.39164.12305-.51953.17903-.3101.50716-.5.86523-.5h.5c.67616.01.67616-1.00956 0-1z" transform="matrix(100 0 0 100 -38299.807 -26201.963)"/></g></svg>