<svg height="1600" viewBox="0 0 1600 1600" width="1600" xmlns="http://www.w3.org/2000/svg" xmlns:inkscape="http://www.inkscape.org/namespaces/inkscape" xmlns:sodipodi="http://sodipodi.sourceforge.net/DTD/sodipodi-0.dtd"><sodipodi:namedview pagecolor="#303030" showgrid="true"><inkscape:grid id="grid5" units="px" spacingx="100" spacingy="100" color="#4772b3" opacity="0.2" visible="true" /></sodipodi:namedview><g fill="#fff"><g enable-background="new" transform="translate(-233 -365)"><path d="m1028 1556c-3.2833 0-6 2.4414-6 5.5 0 1.7056.9046 3.146 2.1523 4.3594l.9942.9941a.50004997.50004997 0 0 0 .3027.1485.50004997.50004997 0 0 0 .051.998h5a.50004997.50004997 0 0 0 .045-.998.50004997.50004997 0 0 0 .3086-.1485l.9981-.998c1.2122-1.1985 2.1465-2.6518 2.1465-4.3535 0-3.0586-2.7167-5.5-6-5.5zm0 1c2.7919 0 5 2.0358 5 4.5 0 1.3342-.7428 2.5488-1.8516 3.6445l-1 1a.50004997.50004997 0 0 0 .2793.8535h-4.8594a.50004997.50004997 0 0 0 .2871-.8535l-1-1a.50004997.50004997 0 0 0 -.01-.01c-1.1397-1.1082-1.8477-2.2864-1.8477-3.6406 0-2.4642 2.2081-4.5 5-4.5zm-2.5 12a.50004997.50004997 0 1 0 0 1h1.5v.5a.50004997.50004997 0 0 0 .5.5h1a.50004997.50004997 0 0 0 .5-.5v-.5h1.5a.50004997.50004997 0 1 0 0-1z"/><path d="m1025.4902 1561.0059a.50005.50005 0 0 0 -.3437.8476l.8535.8535v1.543a.50005.50005 0 1 0 1 0v-1.25h2v1.25a.50005.50005 0 1 0 1 0v-1.543l.8535-.8535a.50005.50005 0 0 0 -.707-.707l-.8535.8535h-2.586l-.8535-.8535a.50005.50005 0 0 0 -.3633-.1406z" opacity=".6"/></g><g enable-background="new" transform="matrix(102.83638 0 0 100 -22165.448 -9434.479)"><path d="m224.38607 100.78271c-.15574.005-.30353.0699-.41211.18164l-2.05673 2.00254c-.62065.56444.28322 1.46831.84766.84765l2.05673-2.00254c.39088-.38144.1104-1.04428-.43555-1.02929z"/><path d="m225.6621 95.349988c-.67621-.0096-.67621 1.009611 0 1h2.79493c-1.0479 1.117288-1.7641 1.668027-2.82812 2.732043-.62065.56444.28321 1.468319.84765.847657 1.06063-1.101282 1.59202-1.777197 2.68554-2.870716v2.791016c-.01.676162 1.00956.676162 1 0v-4c-.00003-.276131-.22387-.499973-.5-.5z"/><path d="m221.03217 109.33958c.67621.01.67621-1.00961 0-1h-2.79493c1.0479-1.11729 1.7641-1.66802 2.82812-2.73204.62065-.56444-.28321-1.46832-.84765-.84766-1.06063 1.10128-1.59202 1.7772-2.68554 2.87072v-2.79102c.01-.67616-1.00956-.67616-1 0v4c.00003.27613.22387.49998.5.5z"/></g></g></svg>