<svg height="1600" viewBox="0 0 1700 1600" width="1700" xmlns="http://www.w3.org/2000/svg" xmlns:inkscape="http://www.inkscape.org/namespaces/inkscape" xmlns:sodipodi="http://sodipodi.sourceforge.net/DTD/sodipodi-0.dtd"><sodipodi:namedview pagecolor="#303030" showgrid="true"><inkscape:grid id="grid5" units="px" spacingx="100" spacingy="100" color="#4772b3" opacity="0.2" visible="true" /></sodipodi:namedview><g fill="#fff"><g enable-background="new" transform="translate(-233 -365)"><path d="m1028 1556c-3.2833 0-6 2.4414-6 5.5 0 1.7056.9046 3.146 2.1523 4.3594l.9942.9941a.50004997.50004997 0 0 0 .3027.1485.50004997.50004997 0 0 0 .051.998h5a.50004997.50004997 0 0 0 .045-.998.50004997.50004997 0 0 0 .3086-.1485l.9981-.998c1.2122-1.1985 2.1465-2.6518 2.1465-4.3535 0-3.0586-2.7167-5.5-6-5.5zm0 1c2.7919 0 5 2.0358 5 4.5 0 1.3342-.7428 2.5488-1.8516 3.6445l-1 1a.50004997.50004997 0 0 0 .2793.8535h-4.8594a.50004997.50004997 0 0 0 .2871-.8535l-1-1a.50004997.50004997 0 0 0 -.01-.01c-1.1397-1.1082-1.8477-2.2864-1.8477-3.6406 0-2.4642 2.2081-4.5 5-4.5zm-2.5 12a.50004997.50004997 0 1 0 0 1h1.5v.5a.50004997.50004997 0 0 0 .5.5h1a.50004997.50004997 0 0 0 .5-.5v-.5h1.5a.50004997.50004997 0 1 0 0-1z"/><path d="m1025.4902 1561.0059a.50005.50005 0 0 0 -.3437.8476l.8535.8535v1.543a.50005.50005 0 1 0 1 0v-1.25h2v1.25a.50005.50005 0 1 0 1 0v-1.543l.8535-.8535a.50005.50005 0 0 0 -.707-.707l-.8535.8535h-2.586l-.8535-.8535a.50005.50005 0 0 0 -.3633-.1406z" opacity=".6"/></g><g enable-background="new" transform="matrix(100 0 0 100 -42400 -34600.005)"><path d="m427.5 348c-1.37479 0-2.5 1.12521-2.5 2.5 0 1.17958.69047 1.86035 1.13281 2.33984.59193.64165 1.20449 1.21721 1.66016 1.66016l-.89649.89648c-.91207.91207-1.15649 2.32468-.5625 3.35352.56456.97783 1.72188 1.4563 2.8125 1.16406 1.09063-.29223 1.85352-1.28496 1.85352-2.41406a.50005.50005 0 1 0 -1 0c0 .68132-.45321 1.27287-1.11133 1.44922-.65811.17634-1.34683-.10917-1.6875-.69922-.31121-.53904-.18558-1.55855.40235-2.14648l1.25-1.25a.50005.50005 0 0 0 0-.70704c-.4316-.43159-1.30799-1.251-1.98633-1.98632-.48018-.52051-.86719-.83974-.86719-1.66016 0-.83435.66565-1.5 1.5-1.5 1.16667 0 2.02863 1.23566 2.64648 1.85352a.50005.50005 0 1 0 .70704-.70704c-.38215-.38214-1.52019-2.14648-3.35352-2.14648z" opacity=".6"/><path d="m437.5 348c-1.83333 0-2.97137 1.76434-3.35352 2.14648a.50005.50005 0 1 0 .70704.70704c.61785-.61786 1.47981-1.85352 2.64648-1.85352.83435 0 1.5.66565 1.5 1.5 0 .82042-.38701 1.13965-.86719 1.66016-.67834.73532-1.55473 1.55473-1.98633 1.98632a.50005.50005 0 0 0 0 .70704l1.25 1.25c.58793.58793.71356 1.60744.40235 2.14648-.34067.59005-1.02939.87556-1.6875.69922-.65812-.17635-1.11133-.7679-1.11133-1.44922a.50005.50005 0 1 0 -1 0c0 1.1291.76289 2.12183 1.85352 2.41406 1.09062.29224 2.24794-.18623 2.8125-1.16406.59399-1.02884.34957-2.44145-.5625-3.35352l-.89649-.89648c.45567-.44295 1.06823-1.01851 1.66016-1.66016.44234-.47949 1.13281-1.16026 1.13281-2.33984 0-1.37479-1.12521-2.5-2.5-2.5zm-4.5 4.00005v-2h-1v2zm0-3v-2h-1v2zm0 12v-2h-1v2zm0-3v-2h-1v2zm0-3v-2h-1v2z"/></g></g></svg>