<svg height="1600" viewBox="0 0 1600 1600" width="1600" xmlns="http://www.w3.org/2000/svg" xmlns:inkscape="http://www.inkscape.org/namespaces/inkscape" xmlns:sodipodi="http://sodipodi.sourceforge.net/DTD/sodipodi-0.dtd"><sodipodi:namedview pagecolor="#303030" showgrid="true"><inkscape:grid id="grid5" units="px" spacingx="100" spacingy="100" color="#4772b3" opacity="0.2" visible="true" /></sodipodi:namedview><g fill="#fff"><g enable-background="new" transform="translate(-233 -365)"><path d="m1028 1556c-3.2833 0-6 2.4414-6 5.5 0 1.7056.9046 3.146 2.1523 4.3594l.9942.9941a.50004997.50004997 0 0 0 .3027.1485.50004997.50004997 0 0 0 .051.998h5a.50004997.50004997 0 0 0 .045-.998.50004997.50004997 0 0 0 .3086-.1485l.9981-.998c1.2122-1.1985 2.1465-2.6518 2.1465-4.3535 0-3.0586-2.7167-5.5-6-5.5zm0 1c2.7919 0 5 2.0358 5 4.5 0 1.3342-.7428 2.5488-1.8516 3.6445l-1 1a.50004997.50004997 0 0 0 .2793.8535h-4.8594a.50004997.50004997 0 0 0 .2871-.8535l-1-1a.50004997.50004997 0 0 0 -.01-.01c-1.1397-1.1082-1.8477-2.2864-1.8477-3.6406 0-2.4642 2.2081-4.5 5-4.5zm-2.5 12a.50004997.50004997 0 1 0 0 1h1.5v.5a.50004997.50004997 0 0 0 .5.5h1a.50004997.50004997 0 0 0 .5-.5v-.5h1.5a.50004997.50004997 0 1 0 0-1z"/><path d="m1025.4902 1561.0059a.50005.50005 0 0 0 -.3437.8476l.8535.8535v1.543a.50005.50005 0 1 0 1 0v-1.25h2v1.25a.50005.50005 0 1 0 1 0v-1.543l.8535-.8535a.50005.50005 0 0 0 -.707-.707l-.8535.8535h-2.586l-.8535-.8535a.50005.50005 0 0 0 -.3633-.1406z" opacity=".6"/></g><g enable-background="new" transform="matrix(100 0 0 100 -19399.991 -28300.41)"><path d="m205.49805 242-3.00586.008a.50005.50005 0 0 0 -.5.5v4 5 4a.50005.50005 0 0 0 .5.5h3a.50005.50005 0 0 0 .5-.5l.00781-3.508h2.5a.50005.50005 0 0 0 .5-.5v-5a.50005.50005 0 0 0 -.5-.5h-2.5v-3.5a.50005.50005 0 0 0 -.50195-.5zm-.49805 1.00195v2.99805h-2.00781v-2.99414zm-2.00781 3.99805h2.00781v4h-2.00781zm3.00781 0h2v4h-2zm-3.00781 5h2.00586l-.006 3.00781h-2z" transform="translate(.000002 42.0001)"/><path d="m200.53711 284.16992a.50005.50005 0 0 0 -.13477.0156c-3.14392.73681-5.37898 3.53464-5.40234 6.76367-.0234 3.22902 2.17176 6.05956 5.30469 6.8418a.50005.50005 0 1 0 .24219-.96875c-2.69014-.67168-4.56694-3.09259-4.54688-5.86524.0201-2.77265 1.93128-5.16615 4.63086-5.79883a.50005.50005 0 0 0 -.0937-.98828z" opacity=".7"/></g></g></svg>