<?xml version="1.0" encoding="UTF-8" standalone="no"?>
<svg
   height="1600"
   viewBox="0 0 1600 1600"
   width="1600"
   version="1.1"
   id="svg4"
   xmlns="http://www.w3.org/2000/svg"
   xmlns:svg="http://www.w3.org/2000/svg">
  <defs
     id="defs4" />
  <g
     fill="#fff"
     id="g4">
    <path
       id="path3"
       style="stroke-width:100"
       d="m 751.81836,200 c -110.26293,0 -200,90.13528 -200,200 v 362.64062 c -90.54685,63.19156 -150,168.12818 -150,286.44918 0,192.2051 156.88476,349.0918 349.08984,349.0918 192.20509,0 349.0918,-156.8867 349.0918,-349.0918 0,-117.5265 -58.6582,-221.84708 -148.18164,-285.16988 V 400 c 0,-109.86472 -89.13528,-200 -200,-200 z m 0,100 c 49.81836,0 100,44.17929 100,100 V 572.96094 714.91992 800 c 2e-5,8.33011 2.08127,16.52822 6.05469,23.84961 15.35046,7.25857 29.82625,16.03681 43.23633,26.14453 C 961.28362,895.35001 1000,967.4683 1000,1049.0898 c 0,138.1611 -110.93072,249.0918 -249.0918,249.0918 -138.16107,2e-4 -249.08984,-110.9307 -249.08984,-249.0918 0,-81.6259 38.71925,-153.74609 98.89844,-199.10152 14.10761,-10.63253 29.39474,-19.79531 45.63867,-27.26367 3.59065,-7.03693 5.46276,-14.82454 5.46289,-22.72461 V 714.37305 572.96094 400 c 0,-55.82071 43.68664,-100 100,-100 z m 0,600.1816 c -82.74185,6e-4 -149.81691,67.0766 -149.81641,149.8184 6.1e-4,82.7411 67.07534,149.8158 149.81641,149.8164 82.74183,5e-4 149.81775,-67.0746 149.81836,-149.8164 5e-4,-82.7426 -67.07575,-149.8189 -149.81836,-149.8184 z" />
    <path
       id="path14"
       style="baseline-shift:baseline;display:inline;overflow:visible;opacity:0.6;vector-effect:none;fill:#ffffff;fill-opacity:1;stroke:none;stroke-linecap:round;enable-background:accumulate;stop-color:#000000;stop-opacity:1"
       d="m 1150,300 c -27.6142,0 -50,22.38576 -50,50 0,27.61424 22.3858,50 50,50 h 300 c 27.6142,0 50,-22.38576 50,-50 0,-27.61424 -22.3858,-50 -50,-50 z m 3.3242,200 c -27.6142,0 -50,22.38576 -50,50 0,27.61424 22.3858,50 50,50 H 1350 c 27.6142,0 50,-22.38576 50,-50 0,-27.61424 -22.3858,-50 -50,-50 z M 1150,700 c -27.6142,0 -50,22.38576 -50,50 0,27.61424 22.3858,50 50,50 h 100 c 27.6142,0 50,-22.38576 50,-50 0,-27.61424 -22.3858,-50 -50,-50 z" />
  </g>
</svg>
