<svg height="1500" viewBox="0 0 1600 1500" width="1600" xmlns="http://www.w3.org/2000/svg" xmlns:inkscape="http://www.inkscape.org/namespaces/inkscape" xmlns:sodipodi="http://sodipodi.sourceforge.net/DTD/sodipodi-0.dtd"><sodipodi:namedview pagecolor="#303030" showgrid="true"><inkscape:grid id="grid5" units="px" spacingx="100" spacingy="100" color="#4772b3" opacity="0.2" visible="true" /></sodipodi:namedview><g fill="#fff"><path d="m219.50391 243a.50005.50005 0 0 0 -.45118.27734c-.67049 1.34099-1.7194 1.72266-2.55273 1.72266a.50005.50005 0 1 0 0 1c1.00319 0 2.15225-.6005 3-1.7832.82397 1.14952 1.9314 1.74461 2.91406 1.77734a.50005.50005 0 0 0 .002 0 .50005.50005 0 0 0 .084.006.50005.50005 0 0 0 .0996-.008c.97927-.0378 2.08023-.63118 2.90039-1.77539.84775 1.1827 1.99681 1.7832 3 1.7832a.50005.50005 0 1 0 0-1c-.83333 0-1.88224-.38167-2.55273-1.72266a.50005.50005 0 0 0 -.44341-.27729.50005.50005 0 0 0 -.45118.27734c-.67049 1.34099-1.7194 1.72266-2.55273 1.72266s-1.88224-.38167-2.55273-1.72266a.50005.50005 0 0 0 -.44336-.27734zm1 5a.50005.50005 0 0 0 -.45118.27734c-.67049 1.34099-1.7194 1.72266-2.55273 1.72266a.50005.50005 0 1 0 0 1c1.00319 0 2.15225-.6005 3-1.7832.82397 1.14952 1.9314 1.74461 2.91406 1.77734a.50005.50005 0 0 0 .002 0 .50005.50005 0 0 0 .084.006.50005.50005 0 0 0 .0859-.006.50005.50005 0 0 0 .0137-.002c.97927-.0378 2.08023-.63118 2.90039-1.77539.84775 1.1827 1.99681 1.7832 3 1.7832a.50005.50005 0 1 0 0-1c-.83333 0-1.88224-.38167-2.55273-1.72266a.50005.50005 0 0 0 -.44341-.27729.50005.50005 0 0 0 -.45118.27734c-.67049 1.34099-1.7194 1.72266-2.55273 1.72266s-1.88224-.38167-2.55273-1.72266a.50005.50005 0 0 0 -.44336-.27734zm-1 5a.50005.50005 0 0 0 -.45118.27734c-.67049 1.34099-1.7194 1.72266-2.55273 1.72266a.50005.50005 0 1 0 0 1c1.00319 0 2.15225-.6005 3-1.7832.82397 1.14952 1.9314 1.74461 2.91406 1.77734a.50005.50005 0 0 0 .002 0 .50005.50005 0 0 0 .084.006.50005.50005 0 0 0 .0996-.008c.97927-.0378 2.08023-.63118 2.90039-1.77539.84775 1.1827 1.99681 1.7832 3 1.7832a.50005.50005 0 1 0 0-1c-.83333 0-1.88224-.38167-2.55273-1.72266a.50005.50005 0 0 0 -.44341-.27729.50005.50005 0 0 0 -.45118.27734c-.67049 1.34099-1.7194 1.72266-2.55273 1.72266s-1.88224-.38167-2.55273-1.72266a.50005.50005 0 0 0 -.44336-.27734z" transform="matrix(100 0 0 100 -21500.003 -24200.011)"/></g></svg>