<svg height="1600" viewBox="0 0 1600 1600" width="1600" xmlns="http://www.w3.org/2000/svg" xmlns:inkscape="http://www.inkscape.org/namespaces/inkscape" xmlns:sodipodi="http://sodipodi.sourceforge.net/DTD/sodipodi-0.dtd"><sodipodi:namedview pagecolor="#303030" showgrid="true"><inkscape:grid id="grid5" units="px" spacingx="100" spacingy="100" color="#4772b3" opacity="0.2" visible="true" /></sodipodi:namedview><g fill="#fff"><g enable-background="new" transform="matrix(100 0 0 100 -48800.354 -30400.354)"><path d="m495.5 305a.50005.50005 0 0 0 -.5.5v1.5h-3.5a.50005.50005 0 0 0 -.5.5v3.5h-1.5a.50005.50005 0 0 0 -.5.5v7a.50005.50005 0 1 0 1 0v-6.5h1.5a.50005.50005 0 0 0 .5-.5v-3.5h3.5a.50005.50005 0 0 0 .5-.5v-1.5h6.5a.50005.50005 0 1 0 0-1z" opacity=".5"/><path d="m502.5 308c-5.79307 0-10.5 4.70693-10.5 10.5a.50004997.50004997 0 1 0 1 0c0-5.25263 4.24737-9.5 9.5-9.5a.50004997.50004997 0 1 0 0-1z"/></g></g></svg>