<svg height="1600" viewBox="0 0 1600 1600" width="1600" xmlns="http://www.w3.org/2000/svg" xmlns:inkscape="http://www.inkscape.org/namespaces/inkscape" xmlns:sodipodi="http://sodipodi.sourceforge.net/DTD/sodipodi-0.dtd"><sodipodi:namedview pagecolor="#303030" showgrid="true"><inkscape:grid id="grid5" units="px" spacingx="100" spacingy="100" color="#4772b3" opacity="0.2" visible="true" /></sodipodi:namedview><g fill="#fff"><g enable-background="new" transform="matrix(102.83638 0 0 100 -22165.448 -9434.479)"><path d="m224.38607 100.78271c-.15574.005-.30353.0699-.41211.18164l-2.05673 2.00254c-.62065.56444.28322 1.46831.84766.84765l2.05673-2.00254c.39088-.38144.1104-1.04428-.43555-1.02929z"/><path d="m225.6621 95.349988c-.67621-.0096-.67621 1.009611 0 1h2.79493c-1.0479 1.117288-1.7641 1.668027-2.82812 2.732043-.62065.56444.28321 1.468319.84765.847657 1.06063-1.101282 1.59202-1.777197 2.68554-2.870716v2.791016c-.01.676162 1.00956.676162 1 0v-4c-.00003-.276131-.22387-.499973-.5-.5z"/><path d="m221.03217 109.33958c.67621.01.67621-1.00961 0-1h-2.79493c1.0479-1.11729 1.7641-1.66802 2.82812-2.73204.62065-.56444-.28321-1.46832-.84765-.84766-1.06063 1.10128-1.59202 1.7772-2.68554 2.87072v-2.79102c.01-.67616-1.00956-.67616-1 0v4c.00003.27613.22387.49998.5.5z"/></g></g></svg>