<svg height="1600" viewBox="0 0 1600 1600" width="1600" xmlns="http://www.w3.org/2000/svg" xmlns:inkscape="http://www.inkscape.org/namespaces/inkscape" xmlns:sodipodi="http://sodipodi.sourceforge.net/DTD/sodipodi-0.dtd"><sodipodi:namedview pagecolor="#303030" showgrid="true"><inkscape:grid id="grid5" units="px" spacingx="100" spacingy="100" color="#4772b3" opacity="0.2" visible="true" /></sodipodi:namedview><g fill="#fff"><g enable-background="new" transform="matrix(100 0 0 -100 -19400.409 29900.50000000001)"><g enable-background="new" transform="matrix(0 -1 -1 0 558.008 761.005)"><g fill-rule="evenodd"><path d="m469.00195 355c-1.10028 0-2.00195.90326-2.00195 2.00391 0 1.10064.90167 2.00391 2.00195 2.0039 1.10028 0 2.00196-.90326 2.00196-2.0039s-.90168-2.00391-2.00196-2.00391z"/><path d="m468.5 349c-.82251 0-1.5.67749-1.5 1.5s.67749 1.5 1.5 1.5c.8225 0 1.5-.6775 1.5-1.5 0-.82251-.67749-1.5-1.5-1.5z"/><path d="m475.5 356c-.8225 0-1.5.6775-1.5 1.5s.6775 1.5 1.5 1.5 1.5-.6775 1.5-1.5-.6775-1.5-1.5-1.5z"/><path d="m474.50195 350.00781c-.82202.00001-1.50195.67415-1.50195 1.4961s.67993 1.49609 1.50195 1.49609c.82203 0 1.50195-.67414 1.50196-1.49609-.00001-.82196-.67993-1.4961-1.50196-1.4961z"/></g><path d="m468 351.5v4h1v-4zm5.14648.64648-3.49609 3.50977.70899.70508 3.49414-3.50781zm-2.64648 4.85352v1h4v-1z" opacity=".7"/></g><g enable-background="new" opacity=".6" transform="matrix(0 -1 -1 0 554.008 765.005)"><path d="m468.5 349c-.82251 0-1.5.67749-1.5 1.5s.67749 1.5 1.5 1.5c.8225 0 1.5-.6775 1.5-1.5 0-.82251-.67749-1.5-1.5-1.5zm0 1c.28207 0 .5.21793.5.5s-.21793.5-.5.5-.5-.21793-.5-.5.21793-.5.5-.5zm.50195 5c-1.10028 0-2.00195.90326-2.00195 2.00391 0 1.10064.90167 2.00391 2.00195 2.0039 1.10028 0 2.00196-.90326 2.00196-2.0039s-.90168-2.00391-2.00196-2.00391zm0 1c.55916 0 1.00196.44302 1.00196 1.00391 0 .56088-.4428 1.0039-1.00196 1.0039-.55915 0-1.00195-.44302-1.00195-1.0039 0-.56089.4428-1.00391 1.00195-1.00391zm6.49805 0c-.8225 0-1.5.6775-1.5 1.5s.6775 1.5 1.5 1.5 1.5-.6775 1.5-1.5-.6775-1.5-1.5-1.5zm0 1c.28206 0 .5.21794.5.5s-.21794.5-.5.5-.5-.21794-.5-.5.21794-.5.5-.5z" fill-rule="evenodd" opacity="1"/><path d="m468 351.5v4h1v-4z" opacity=".7"/><path d="m470.5 357v1h4v-1z" opacity=".7"/></g></g></g></svg>