<svg height="1600" viewBox="0 0 1600 1600" width="1600" xmlns="http://www.w3.org/2000/svg" xmlns:inkscape="http://www.inkscape.org/namespaces/inkscape" xmlns:sodipodi="http://sodipodi.sourceforge.net/DTD/sodipodi-0.dtd"><sodipodi:namedview pagecolor="#303030" showgrid="true"><inkscape:grid id="grid5" units="px" spacingx="100" spacingy="100" color="#4772b3" opacity="0.2" visible="true" /></sodipodi:namedview><g fill="#fff"><g enable-background="new" transform="translate(-233 -365)"><path d="m1028 1556c-3.2833 0-6 2.4414-6 5.5 0 1.7056.9046 3.146 2.1523 4.3594l.9942.9941a.50004997.50004997 0 0 0 .3027.1485.50004997.50004997 0 0 0 .051.998h5a.50004997.50004997 0 0 0 .045-.998.50004997.50004997 0 0 0 .3086-.1485l.9981-.998c1.2122-1.1985 2.1465-2.6518 2.1465-4.3535 0-3.0586-2.7167-5.5-6-5.5zm0 1c2.7919 0 5 2.0358 5 4.5 0 1.3342-.7428 2.5488-1.8516 3.6445l-1 1a.50004997.50004997 0 0 0 .2793.8535h-4.8594a.50004997.50004997 0 0 0 .2871-.8535l-1-1a.50004997.50004997 0 0 0 -.01-.01c-1.1397-1.1082-1.8477-2.2864-1.8477-3.6406 0-2.4642 2.2081-4.5 5-4.5zm-2.5 12a.50004997.50004997 0 1 0 0 1h1.5v.5a.50004997.50004997 0 0 0 .5.5h1a.50004997.50004997 0 0 0 .5-.5v-.5h1.5a.50004997.50004997 0 1 0 0-1z"/><path d="m1025.4902 1561.0059a.50005.50005 0 0 0 -.3437.8476l.8535.8535v1.543a.50005.50005 0 1 0 1 0v-1.25h2v1.25a.50005.50005 0 1 0 1 0v-1.543l.8535-.8535a.50005.50005 0 0 0 -.707-.707l-.8535.8535h-2.586l-.8535-.8535a.50005.50005 0 0 0 -.3633-.1406z" opacity=".6"/></g><g enable-background="new" transform="matrix(100 0 0 100 -21500.355 -28299.645)"><path d="m216.49219 286a.50005.50005 0 0 0 -.5.5l.00781 11.00781a.50005.50005 0 0 0 .5.5h11a.50005.50005 0 0 0 .5-.5v-2.50781h-1v2.00781h-10l-.00781-10.00781h2.00781v-1z" opacity=".5"/><path d="m227.53906 284c-.61479.0726-1.18185.348-1.74609.6543-1.12848.6126-2.25964 1.3457-3.29297 1.3457h-1a.50005.50005 0 1 0 0 1h1c1.46667 0 2.71051-.8919 3.76953-1.4668.52951-.28745 1.00932-.49644 1.38672-.54101.3774-.0446.64533.0164.99023.36133.34491.3449.40591.61283.36133.99023-.0446.3774-.25356.85721-.54101 1.38672-.5749 1.05902-1.4668 2.30286-1.4668 3.76953v1a.50005.50005 0 1 0 1 0v-1c0-1.03333.7331-2.16449 1.3457-3.29297.3063-.56424.58169-1.1313.6543-1.74609.0726-.61479-.11639-1.28436-.64648-1.81446-.5301-.53009-1.19967-.71909-1.81446-.64648z"/></g></g></svg>