<svg height="1600" viewBox="0 0 1300 1600" width="1300" xmlns="http://www.w3.org/2000/svg" xmlns:inkscape="http://www.inkscape.org/namespaces/inkscape" xmlns:sodipodi="http://sodipodi.sourceforge.net/DTD/sodipodi-0.dtd"><sodipodi:namedview pagecolor="#303030" showgrid="true"><inkscape:grid id="grid5" units="px" spacingx="100" spacingy="100" color="#4772b3" opacity="0.2" visible="true" /></sodipodi:namedview><g fill="#fff"><g enable-background="new" transform="translate(-233 -365)"><path d="m1028 1556c-3.2833 0-6 2.4414-6 5.5 0 1.7056.9046 3.146 2.1523 4.3594l.9942.9941a.50004997.50004997 0 0 0 .3027.1485.50004997.50004997 0 0 0 .051.998h5a.50004997.50004997 0 0 0 .045-.998.50004997.50004997 0 0 0 .3086-.1485l.9981-.998c1.2122-1.1985 2.1465-2.6518 2.1465-4.3535 0-3.0586-2.7167-5.5-6-5.5zm0 1c2.7919 0 5 2.0358 5 4.5 0 1.3342-.7428 2.5488-1.8516 3.6445l-1 1a.50004997.50004997 0 0 0 .2793.8535h-4.8594a.50004997.50004997 0 0 0 .2871-.8535l-1-1a.50004997.50004997 0 0 0 -.01-.01c-1.1397-1.1082-1.8477-2.2864-1.8477-3.6406 0-2.4642 2.2081-4.5 5-4.5zm-2.5 12a.50004997.50004997 0 1 0 0 1h1.5v.5a.50004997.50004997 0 0 0 .5.5h1a.50004997.50004997 0 0 0 .5-.5v-.5h1.5a.50004997.50004997 0 1 0 0-1z"/><path d="m1025.4902 1561.0059a.50005.50005 0 0 0 -.3437.8476l.8535.8535v1.543a.50005.50005 0 1 0 1 0v-1.25h2v1.25a.50005.50005 0 1 0 1 0v-1.543l.8535-.8535a.50005.50005 0 0 0 -.707-.707l-.8535.8535h-2.586l-.8535-.8535a.50005.50005 0 0 0 -.3633-.1406z" opacity=".6"/></g><g enable-background="new" transform="matrix(100 0 0 100 -51099.99999999999 -28300)"><path d="m521.5 287c-5.3 0-9.5 4.7037-9.5 9.5v1a.50005.50005 0 0 0 .5.5h3a.50005.50005 0 0 0 .5-.5v-1c0-1.05.68155-2.47832 1.73828-3.59375s2.45616-1.90625 3.76172-1.90625h1a.50005.50005 0 0 0 .5-.5v-3a.50005.50005 0 0 0 -.5-.5zm0 1h.5v2h-.5c-1.69444 0-3.29501.95918-4.48828 2.21875s-2.01172 2.83125-2.01172 4.28125v.5h-2v-.5c0-4.2037 3.8-8.5 8.5-8.5z"/><path d="m512.5 263c-.27613.00003-.49997.22387-.5.5v6.60938c.29756-.51189.62592-1.00687 1-1.46876v-4.64062h2v2.71875c.32103-.24305.65292-.47168 1-.67969v-2.53906c-.00003-.27613-.22387-.49997-.5-.5z" opacity=".5" transform="translate(.000002 21)"/></g></g></svg>