<svg height="1600" viewBox="0 0 1600 1600" width="1600" xmlns="http://www.w3.org/2000/svg" xmlns:inkscape="http://www.inkscape.org/namespaces/inkscape" xmlns:sodipodi="http://sodipodi.sourceforge.net/DTD/sodipodi-0.dtd"><sodipodi:namedview pagecolor="#303030" showgrid="true"><inkscape:grid id="grid5" units="px" spacingx="100" spacingy="100" color="#4772b3" opacity="0.2" visible="true" /></sodipodi:namedview><g fill="#fff"><g enable-background="new" transform="translate(-233 -365)"><path d="m1028 1556c-3.2833 0-6 2.4414-6 5.5 0 1.7056.9046 3.146 2.1523 4.3594l.9942.9941a.50004997.50004997 0 0 0 .3027.1485.50004997.50004997 0 0 0 .051.998h5a.50004997.50004997 0 0 0 .045-.998.50004997.50004997 0 0 0 .3086-.1485l.9981-.998c1.2122-1.1985 2.1465-2.6518 2.1465-4.3535 0-3.0586-2.7167-5.5-6-5.5zm0 1c2.7919 0 5 2.0358 5 4.5 0 1.3342-.7428 2.5488-1.8516 3.6445l-1 1a.50004997.50004997 0 0 0 .2793.8535h-4.8594a.50004997.50004997 0 0 0 .2871-.8535l-1-1a.50004997.50004997 0 0 0 -.01-.01c-1.1397-1.1082-1.8477-2.2864-1.8477-3.6406 0-2.4642 2.2081-4.5 5-4.5zm-2.5 12a.50004997.50004997 0 1 0 0 1h1.5v.5a.50004997.50004997 0 0 0 .5.5h1a.50004997.50004997 0 0 0 .5-.5v-.5h1.5a.50004997.50004997 0 1 0 0-1z"/><path d="m1025.4902 1561.0059a.50005.50005 0 0 0 -.3437.8476l.8535.8535v1.543a.50005.50005 0 1 0 1 0v-1.25h2v1.25a.50005.50005 0 1 0 1 0v-1.543l.8535-.8535a.50005.50005 0 0 0 -.707-.707l-.8535.8535h-2.586l-.8535-.8535a.50005.50005 0 0 0 -.3633-.1406z" opacity=".6"/></g><g enable-background="new" transform="matrix(100 0 0 -100 -19400.409 29900.50000000001)"><g enable-background="new" transform="matrix(0 -1 -1 0 558.008 761.005)"><g fill-rule="evenodd"><path d="m469.00195 355c-1.10028 0-2.00195.90326-2.00195 2.00391 0 1.10064.90167 2.00391 2.00195 2.0039 1.10028 0 2.00196-.90326 2.00196-2.0039s-.90168-2.00391-2.00196-2.00391z"/><path d="m468.5 349c-.82251 0-1.5.67749-1.5 1.5s.67749 1.5 1.5 1.5c.8225 0 1.5-.6775 1.5-1.5 0-.82251-.67749-1.5-1.5-1.5z"/><path d="m475.5 356c-.8225 0-1.5.6775-1.5 1.5s.6775 1.5 1.5 1.5 1.5-.6775 1.5-1.5-.6775-1.5-1.5-1.5z"/><path d="m474.50195 350.00781c-.82202.00001-1.50195.67415-1.50195 1.4961s.67993 1.49609 1.50195 1.49609c.82203 0 1.50195-.67414 1.50196-1.49609-.00001-.82196-.67993-1.4961-1.50196-1.4961z"/></g><path d="m468 351.5v4h1v-4zm5.14648.64648-3.49609 3.50977.70899.70508 3.49414-3.50781zm-2.64648 4.85352v1h4v-1z" opacity=".7"/></g><g enable-background="new" opacity=".6" transform="matrix(0 -1 -1 0 554.008 765.005)"><path d="m468.5 349c-.82251 0-1.5.67749-1.5 1.5s.67749 1.5 1.5 1.5c.8225 0 1.5-.6775 1.5-1.5 0-.82251-.67749-1.5-1.5-1.5zm0 1c.28207 0 .5.21793.5.5s-.21793.5-.5.5-.5-.21793-.5-.5.21793-.5.5-.5zm.50195 5c-1.10028 0-2.00195.90326-2.00195 2.00391 0 1.10064.90167 2.00391 2.00195 2.0039 1.10028 0 2.00196-.90326 2.00196-2.0039s-.90168-2.00391-2.00196-2.00391zm0 1c.55916 0 1.00196.44302 1.00196 1.00391 0 .56088-.4428 1.0039-1.00196 1.0039-.55915 0-1.00195-.44302-1.00195-1.0039 0-.56089.4428-1.00391 1.00195-1.00391zm6.49805 0c-.8225 0-1.5.6775-1.5 1.5s.6775 1.5 1.5 1.5 1.5-.6775 1.5-1.5-.6775-1.5-1.5-1.5zm0 1c.28206 0 .5.21794.5.5s-.21794.5-.5.5-.5-.21794-.5-.5.21794-.5.5-.5z" fill-rule="evenodd" opacity="1"/><path d="m468 351.5v4h1v-4z" opacity=".7"/><path d="m470.5 357v1h4v-1z" opacity=".7"/></g></g></g></svg>