<svg height="1600" viewBox="0 0 1600 1600" width="1600" xmlns="http://www.w3.org/2000/svg" xmlns:inkscape="http://www.inkscape.org/namespaces/inkscape" xmlns:sodipodi="http://sodipodi.sourceforge.net/DTD/sodipodi-0.dtd"><sodipodi:namedview pagecolor="#303030" showgrid="true"><inkscape:grid id="grid5" units="px" spacingx="100" spacingy="100" color="#4772b3" opacity="0.2" visible="true" /></sodipodi:namedview><g fill="#fff"><path d="m-76.509766 394.00586a.50005.50005 0 0 0 -.486328.38867l-3.011718 12.98828a.50005.50005 0 0 0 .486328.61328h9.974609a.50005.50005 0 0 0 .488281-.38476l3.03711-12.99024a.50005.50005 0 0 0 -.488282-.61523zm.398438 1h3.974609l-1.154297 5h-3.978515zm5 0h3.972656l-1.169922 5h-3.955078zm-6.390625 6h3.980469l-1.382813 5.99023h-3.986328zm5.005859 0h3.953125l-1.40039 5.99023h-3.933594z" transform="matrix(100 0 0 100 8101.442 -39300.0975)"/></g></svg>