<svg width="1600" height="1600" xmlns="http://www.w3.org/2000/svg" xmlns:inkscape="http://www.inkscape.org/namespaces/inkscape" xmlns:sodipodi="http://sodipodi.sourceforge.net/DTD/sodipodi-0.dtd"><sodipodi:namedview pagecolor="#303030" showgrid="true"><inkscape:grid id="grid5" units="px" spacingx="100" spacingy="100" color="#4772b3" opacity="0.2" visible="true" /></sodipodi:namedview><g fill="#fff">
 <g transform="matrix(.92242 0 0 .92242 50.673 73.337)" fill="#fff">
  <g transform="matrix(100 0 0 100 -36184 -55584)" enable-background="new">
   <path d="m373.22 563.36c-2.0453 0-3.7134 1.668-3.7134 3.7134 0 2.0453 1.668 3.7134 3.7134 3.7134 2.0453 0 3.7134-1.668 3.7134-3.7134 0-2.0453-1.668-3.7134-3.7134-3.7134z"/>
   <path d="m366.5 561.83c-1.314 0-2.3855 1.0716-2.3855 2.3855s1.0716 2.3856 2.3855 2.3856c1.314 0 2.3855-1.0716 2.3855-2.3856 0-1.314-1.0716-2.3855-2.3855-2.3855z" opacity=".85"/>
   <path d="m368.88 557.69c-1.062 0-1.928 0.86602-1.928 1.928 0 1.0619 0.86604 1.928 1.928 1.928 1.062 0 1.928-0.86606 1.928-1.928 0-1.062-0.86606-1.928-1.928-1.928z" opacity=".6"/>
  </g>
 </g>
 <path d="m242.86 200c-23.668 0.00239-42.857 19.189-42.857 42.857v349.34 51.254 56.252c23.872-44.91 58.334-83.43 100-112.34v-287.37h154.1c19.981-39.724 49.241-73.989 84.961-100h-54.928-241.28zm618.11 0c35.699 26.016 64.937 60.284 84.902 100h354.13v418.5c36.57 18.854 70.204 42.657 100 70.561v-546.21c0-23.668-19.189-42.855-42.857-42.857h-496.18zm-660.96 792.28v364.87c2e-3 23.668 19.189 42.855 42.857 42.857h527.91c-26.512-30.037-49.093-63.613-66.719-100h-404.04v-194.27c-41.715-29.236-76.15-68.158-100-113.46z" fill="#fff" opacity=".5" stroke-linecap="round" stroke-linejoin="round" stroke-width=".85714"/></g>
</svg>
