<svg height="1600" viewBox="0 0 1600 1600" width="1600" xmlns="http://www.w3.org/2000/svg" xmlns:inkscape="http://www.inkscape.org/namespaces/inkscape" xmlns:sodipodi="http://sodipodi.sourceforge.net/DTD/sodipodi-0.dtd"><sodipodi:namedview pagecolor="#303030" showgrid="true"><inkscape:grid id="grid5" units="px" spacingx="100" spacingy="100" color="#4772b3" opacity="0.2" visible="true" /></sodipodi:namedview><g fill="#fff"><g enable-background="new" transform="translate(-233 -365)"><path d="m1028 1556c-3.2833 0-6 2.4414-6 5.5 0 1.7056.9046 3.146 2.1523 4.3594l.9942.9941a.50004997.50004997 0 0 0 .3027.1485.50004997.50004997 0 0 0 .051.998h5a.50004997.50004997 0 0 0 .045-.998.50004997.50004997 0 0 0 .3086-.1485l.9981-.998c1.2122-1.1985 2.1465-2.6518 2.1465-4.3535 0-3.0586-2.7167-5.5-6-5.5zm0 1c2.7919 0 5 2.0358 5 4.5 0 1.3342-.7428 2.5488-1.8516 3.6445l-1 1a.50004997.50004997 0 0 0 .2793.8535h-4.8594a.50004997.50004997 0 0 0 .2871-.8535l-1-1a.50004997.50004997 0 0 0 -.01-.01c-1.1397-1.1082-1.8477-2.2864-1.8477-3.6406 0-2.4642 2.2081-4.5 5-4.5zm-2.5 12a.50004997.50004997 0 1 0 0 1h1.5v.5a.50004997.50004997 0 0 0 .5.5h1a.50004997.50004997 0 0 0 .5-.5v-.5h1.5a.50004997.50004997 0 1 0 0-1z"/><path d="m1025.4902 1561.0059a.50005.50005 0 0 0 -.3437.8476l.8535.8535v1.543a.50005.50005 0 1 0 1 0v-1.25h2v1.25a.50005.50005 0 1 0 1 0v-1.543l.8535-.8535a.50005.50005 0 0 0 -.707-.707l-.8535.8535h-2.586l-.8535-.8535a.50005.50005 0 0 0 -.3633-.1406z" opacity=".6"/></g><g enable-background="new" transform="matrix(100 0 0 100 -131099.595 -18200.381)"><path d="m433 263c-3.84758 0-6.97776 3.12003-6.99805 6.96289-.00006.0125-.002.0246-.002.0371a.50004994.50004994 0 0 0 .002.0488.50004994.50004994 0 0 0 0 .002l-.01 6.45508a.50005.50005 0 0 0 .50195.50195l6.47094-.00782a.50004994.50004994 0 0 0 .03516 0c.0171 0 .0337-.002.0508-.002a.50005.50005 0 0 0 .008 0c3.83274-.03187 6.9412-3.15769 6.9412-6.998 0-3.86007-3.1399-7-7-7zm0 1c3.3196 0 6 2.68037 6 6s-2.6804 6-6 6l-6.00781.008.01-6.00781a.50005.50005 0 0 0 0-.0215c.01145-3.30974 2.68547-5.97869 5.99781-5.97869z" transform="translate(886 -80.0001)"/><path d="m1314.5 189a.50005.50005 0 1 0 0 1h4.5v4.5a.50005.50005 0 1 0 1 0v-5a.50005.50005 0 0 0 -.5-.5z" opacity=".6"/></g></g></svg>