<svg height="1600" viewBox="0 0 1600 1600" width="1600" xmlns="http://www.w3.org/2000/svg" xmlns:inkscape="http://www.inkscape.org/namespaces/inkscape" xmlns:sodipodi="http://sodipodi.sourceforge.net/DTD/sodipodi-0.dtd"><sodipodi:namedview pagecolor="#303030" showgrid="true"><inkscape:grid id="grid5" units="px" spacingx="100" spacingy="100" color="#4772b3" opacity="0.2" visible="true" /></sodipodi:namedview><g fill="#fff"><g enable-background="new" transform="translate(-233 -365)"><path d="m1028 1556c-3.2833 0-6 2.4414-6 5.5 0 1.7056.9046 3.146 2.1523 4.3594l.9942.9941a.50004997.50004997 0 0 0 .3027.1485.50004997.50004997 0 0 0 .051.998h5a.50004997.50004997 0 0 0 .045-.998.50004997.50004997 0 0 0 .3086-.1485l.9981-.998c1.2122-1.1985 2.1465-2.6518 2.1465-4.3535 0-3.0586-2.7167-5.5-6-5.5zm0 1c2.7919 0 5 2.0358 5 4.5 0 1.3342-.7428 2.5488-1.8516 3.6445l-1 1a.50004997.50004997 0 0 0 .2793.8535h-4.8594a.50004997.50004997 0 0 0 .2871-.8535l-1-1a.50004997.50004997 0 0 0 -.01-.01c-1.1397-1.1082-1.8477-2.2864-1.8477-3.6406 0-2.4642 2.2081-4.5 5-4.5zm-2.5 12a.50004997.50004997 0 1 0 0 1h1.5v.5a.50004997.50004997 0 0 0 .5.5h1a.50004997.50004997 0 0 0 .5-.5v-.5h1.5a.50004997.50004997 0 1 0 0-1z"/><path d="m1025.4902 1561.0059a.50005.50005 0 0 0 -.3437.8476l.8535.8535v1.543a.50005.50005 0 1 0 1 0v-1.25h2v1.25a.50005.50005 0 1 0 1 0v-1.543l.8535-.8535a.50005.50005 0 0 0 -.707-.707l-.8535.8535h-2.586l-.8535-.8535a.50005.50005 0 0 0 -.3633-.1406z" opacity=".6"/></g><path d="m10.492188 241.99219a.50005.50005 0 0 0 -.074219.00781h-3.917969a.50005.50005 0 0 0 -.5.5v5a.50005.50005 0 0 0 .5.5h1.5v7.5a.50005.50005 0 0 0 .5.5h9a.50005.50005 0 0 0 .5-.5v-7.5h1.5a.50005.50005 0 0 0 .5-.5v-5a.50005.50005 0 0 0 -.5-.5h-3.919922a.50005.50005 0 0 0 -.404297.11328.50005.50005 0 0 0 -.01953.0156.50005.50005 0 0 0 -.01758.0176.50005.50005 0 0 0 -.002.004.50005.50005 0 0 0 -.03125.0332.50005.50005 0 0 0 -.002.004.50005.50005 0 0 0 -.103421.39435v.41797c0 .71532-.380592 1.37478-1 1.73242-.619409.35765-1.380591.35765-2 0-.619408-.35764-1-1.0171-1-1.73242v-.41992a.50005.50005 0 0 0 -.113281-.4043.50005.50005 0 0 0 -.002-.004.50005.50005 0 0 0 -.03125-.0332.50005.50005 0 0 0 -.0039-.002.50005.50005 0 0 0 -.0332-.0312.50005.50005 0 0 0 -.0039-.002.50005.50005 0 0 0 -.320312-.11133zm-3.492188 1.00781h3c0 1.07096.57257 2.06216 1.5 2.59766.927429.53549 2.072571.53549 3 0 .92743-.5355 1.5-1.5267 1.5-2.59766h3v4h-1.5a.50005.50005 0 0 0 -.5.5v7.5h-8v-7.5a.50005.50005 0 0 0 -.5-.5h-1.5z" transform="matrix(100 0 0 100 -500 -24099.601)"/></g></svg>