<svg height="1600" viewBox="0 0 1600 1600" width="1600" xmlns="http://www.w3.org/2000/svg" xmlns:inkscape="http://www.inkscape.org/namespaces/inkscape" xmlns:sodipodi="http://sodipodi.sourceforge.net/DTD/sodipodi-0.dtd"><sodipodi:namedview pagecolor="#303030" showgrid="true"><inkscape:grid id="grid5" units="px" spacingx="100" spacingy="100" color="#4772b3" opacity="0.2" visible="true" /></sodipodi:namedview><g fill="#fff"><g enable-background="new" transform="matrix(100 0 0 100 -23599.609 -28300.4)"><path d="m240.49805 288-3.00586.008a.50005.50005 0 0 0 -.5.5v9a.50005.50005 0 0 0 .5.5h3a.50005.50005 0 0 0 .5-.5l.00781-9.008a.50005.50005 0 0 0 -.50195-.5zm-.49805 1.00195-.008 8.00586h-2v-8.00195z" opacity=".5"/><path d="m250.49805 284-3.00586.008a.50005.50005 0 0 0 -.5.5v9a.50005.50005 0 0 0 .5.5h3a.50005.50005 0 0 0 .5-.5l.00781-9.008a.50005.50005 0 0 0 -.50195-.5zm-.49805 1.00195-.008 8.00586h-2v-8.00195zm-4.50195.99805-3.00586.008a.50005.50005 0 0 0 -.5.5v9a.50005.50005 0 0 0 .5.5h3a.50005.50005 0 0 0 .5-.5l.00781-9.008a.50005.50005 0 0 0 -.50195-.5zm-.49805 1.00195-.008 8.00586h-2v-8.00195z"/></g></g></svg>