<svg height="1600" viewBox="0 0 1600 1600" width="1600" xmlns="http://www.w3.org/2000/svg" xmlns:inkscape="http://www.inkscape.org/namespaces/inkscape" xmlns:sodipodi="http://sodipodi.sourceforge.net/DTD/sodipodi-0.dtd"><sodipodi:namedview pagecolor="#303030" showgrid="true"><inkscape:grid id="grid5" units="px" spacingx="100" spacingy="100" color="#4772b3" opacity="0.2" visible="true" /></sodipodi:namedview><g fill="#fff"><g enable-background="new" transform="matrix(0 -100 -100 0 29900.141 16799.6)"><path d="m153.49219 289.73828a.50005.50005 0 0 0 -.49219.50586l-.008 7.26172a.50005.50005 0 0 0 .50195.50195l7.25586-.0137a.50005.50005 0 1 0 0-1l-6.75781.0137.008-6.76172a.50005.50005 0 0 0 -.50781-.50781z" opacity=".5"/><path d="m115.04297 242-4 4h9.95117l.006 9.95703 3.85352-3.85351.14634-.14649-.00586-9.95703zm.41406 1h7.9707l-2 2h-7.9707zm8.53711.56641.006 7.97656-2 2-.006-7.97656z" transform="matrix(0 -1 -1 0 409 408.995)"/></g></g></svg>