<svg id="svg3" height="1600" viewBox="0 0 1600 1600" width="1600" xmlns="http://www.w3.org/2000/svg" xmlns:inkscape="http://www.inkscape.org/namespaces/inkscape" xmlns:sodipodi="http://sodipodi.sourceforge.net/DTD/sodipodi-0.dtd"><sodipodi:namedview pagecolor="#303030" showgrid="true"><inkscape:grid id="grid5" units="px" spacingx="100" spacingy="100" color="#4772b3" opacity="0.2" visible="true" /></sodipodi:namedview><g fill="#fff" transform="matrix(100 0 0 100 -36199.61 -30400.4)"><path id="path4" d="m366.50001 305a.50005.50005 0 0 0 -.35354.14648l-3 3a.50005.50005 0 0 0 .35354.85352h6a.50005.50005 0 0 0 .35351-.14649l3-3a.50005.50005 0 0 0 -.35351-.85351z" stroke-linecap="square" stroke-linejoin="round"/><path id="path2" d="m376.48438 309c-.12717.004-.248.0564-.3379.14648l-3 3c-.0938.0938-.14646.22092-.14648.35352v6c.00017.44533.53852.66831.85352.35352l3-3c.0938-.0938.14646-.22092.14648-.35352v-6c.00011-.28235-.23341-.50879-.51562-.5zm-.48438 1.70703v4.58594l-2 2v-4.58594zm-6.5 1.29297-6.00781.008c-.27613.00003-.49997.22387-.5.5v6c.00003.27613.22387.49997.5.5h6c.27613-.00003.49997-.22387.5-.5l.00781-6.008c-.00003-.27613-.22387-.49997-.5-.5zm-.5 1-.008 5.00781h-5v-5.00195z"/></g></svg>