<svg height="1600" viewBox="0 0 1600 1600" width="1600" xmlns="http://www.w3.org/2000/svg" xmlns:inkscape="http://www.inkscape.org/namespaces/inkscape" xmlns:sodipodi="http://sodipodi.sourceforge.net/DTD/sodipodi-0.dtd"><sodipodi:namedview pagecolor="#303030" showgrid="true"><inkscape:grid id="grid5" units="px" spacingx="100" spacingy="100" color="#4772b3" opacity="0.2" visible="true" /></sodipodi:namedview><g fill="#fff"><g enable-background="new" transform="matrix(100 0 0 100 -17300.561 -26200.624)"><path d="m180.5 263c-.27613.00003-.49997.22387-.5.5v4c.00003.27613.22387.49997.5.5h1.5v.5c.00003.27613.22387.49997.5.5h1.5v1.5c.00003.27613.22387.49997.5.5h3c.27613-.00003.49997-.22387.5-.5v-7c-.00003-.27613-.22387-.49997-.5-.5zm.5 1h6v6h-2v-1.5c-.00003-.27613-.22387-.49997-.5-.5h-1.5v-.5c-.00003-.27613-.22387-.49997-.5-.5h-1.5z"/><path d="m176.50781 262.99414a.50005.50005 0 0 0 -.45508.72852l1 2a.50005.50005 0 1 0 .89454-.44532l-1-2a.50005.50005 0 0 0 -.43946-.2832zm-2.02539 3.00195a.50005.50005 0 0 0 -.20508.95118l2 1a.50005.50005 0 1 0 .44532-.89454l-2-1a.50005.50005 0 0 0 -.24024-.0566zm11 6a.50005.50005 0 0 0 -.20508.95118l2 1a.50005.50005 0 1 0 .44532-.89454l-2-1a.50005.50005 0 0 0 -.24024-.0566zm-.97461 1.99805a.50005.50005 0 0 0 -.45508.72852l1 2a.50005.50005 0 1 0 .89454-.44532l-1-2a.50005.50005 0 0 0 -.43946-.2832z" opacity=".7"/><path d="m174.5 269a.50005.50005 0 0 0 -.5.5v7a.50005.50005 0 0 0 .5.5h7a.50005.50005 0 0 0 .5-.5l-.008-4a.50005.50005 0 0 0 -.5-.5h-1.5v-1.5a.50005.50005 0 0 0 -.5-.5h-1.4961l.0041-.49609a.50005.50005 0 0 0 -.5-.50391zm.5 1h1.99609l-.004.49609a.50005.50005 0 0 0 .5.50391h1.5v1.5a.50005.50005 0 0 0 .5.5h1.5l.008 3h-6z"/></g></g></svg>