<?xml version="1.0" encoding="UTF-8" standalone="no"?>
<svg
   height="1600"
   viewBox="0 0 1600 1600"
   width="1600"
   version="1.1"
   id="svg1"
   xmlns="http://www.w3.org/2000/svg"
   xmlns:svg="http://www.w3.org/2000/svg">
  <defs
     id="defs1" />
  <path
     id="path9-7"
     style="fill:#ffffff;stroke-width:0.874442"
     d="m 300.20508,15.681641 c -8.5035,-0.07535 -15.41994,7.859149 -15.32031,14.361328 v 51.341212 c -5.4e-4,8.348451 6.76678,15.116646 15.11523,15.117188 8.34845,-5.42e-4 15.11577,-6.768737 15.11523,-15.117188 V 30.042969 c 0.0982,-6.379122 -6.56803,-14.261701 -14.91015,-14.361328 z M 137.53959,82.889997 c -6.06616,5.959602 -5.34628,16.460802 -0.6781,20.988083 l 36.30372,36.30372 c 5.90287,5.90363 15.47392,5.90425 21.37755,0.001 5.90286,-5.90363 5.90224,-15.47468 -0.001,-21.37755 L 158.23765,82.501922 c -4.44128,-4.580159 -14.72884,-5.440247 -20.69806,0.388075 z M 70.041211,245.43535 c -0.07535,8.5035 7.859149,15.41994 14.361328,15.32031 h 51.341211 c 8.34845,5.4e-4 15.11665,-6.76678 15.11719,-15.11523 -5.4e-4,-8.34845 -6.76874,-15.11577 -15.11719,-15.11523 H 84.402539 c -6.379122,-0.0982 -14.261701,6.56803 -14.361328,14.91015 z m 67.208359,162.66549 c 5.9596,6.06616 16.4608,5.34628 20.98808,0.6781 l 36.30372,-36.30372 c 5.90363,-5.90287 5.90425,-15.47392 0.001,-21.37755 -5.90363,-5.90286 -15.47468,-5.90224 -21.37755,0.001 l -36.30372,36.30372 c -4.58016,4.44128 -5.44025,14.72884 0.38808,20.69806 z m 162.54535,67.49838 c 8.5035,0.0754 15.41994,-7.85915 15.32031,-14.36133 v -51.34121 c 5.4e-4,-8.34845 -6.76678,-15.11665 -15.11523,-15.11719 -8.34845,5.4e-4 -15.11577,6.76874 -15.11523,15.11719 v 51.34121 c -0.0982,6.37912 6.56803,14.2617 14.91015,14.36133 z m 162.66549,-67.20836 c 6.06616,-5.9596 5.34628,-16.4608 0.6781,-20.98808 l -36.30372,-36.30372 c -5.90287,-5.90363 -15.47392,-5.90425 -21.37755,-0.001 -5.90286,5.90363 -5.90224,15.47468 0.001,21.37755 l 36.30372,36.30372 c 4.44128,4.58016 14.72884,5.44025 20.69806,-0.38808 z m 67.49838,-162.54535 c 0.0753,-8.5035 -7.85915,-15.41994 -14.36133,-15.32031 h -51.34121 c -8.34845,-5.4e-4 -15.11665,6.76678 -15.11719,15.11523 5.4e-4,8.34845 6.76874,15.11577 15.11719,15.11523 h 51.34121 c 6.37912,0.0982 14.2617,-6.56803 14.36133,-14.91015 z M 462.75043,83.180024 c -5.9596,-6.066163 -16.4608,-5.346286 -20.98808,-0.678102 l -36.30372,36.303718 c -5.90363,5.90287 -5.90425,15.47392 -0.001,21.37755 5.90363,5.90286 15.47468,5.90224 21.37755,-0.001 l 36.30372,-36.30372 c 4.58016,-4.441278 5.44025,-14.728839 -0.38808,-20.698056 z"
     transform="matrix(3.0440242,0,0,3.0440242,-113.20727,52.264581)" />
  <path
     d="m 800,400 c -219.73005,0 -400,180.27 -400,400 0,219.73 180.26995,400 400,400 219.7301,0 400,-180.27 400,-400 0,-219.73 -180.2699,-400 -400,-400 z m 0,100 a 300,300 0 0 1 300,300 300,300 0 0 1 -300,300 z"
     style="fill:#ffffff;stroke-width:200"
     id="path3" />
</svg>
