<svg height="1600" viewBox="0 0 1600 1600" width="1600" xmlns="http://www.w3.org/2000/svg" xmlns:inkscape="http://www.inkscape.org/namespaces/inkscape" xmlns:sodipodi="http://sodipodi.sourceforge.net/DTD/sodipodi-0.dtd"><sodipodi:namedview pagecolor="#303030" showgrid="true"><inkscape:grid id="grid5" units="px" spacingx="100" spacingy="100" color="#4772b3" opacity="0.2" visible="true" /></sodipodi:namedview><g fill="#fff"><g enable-background="new" transform="matrix(100 0 0 100 -19399.991 -28300.41)"><path d="m205.49805 242-3.00586.008a.50005.50005 0 0 0 -.5.5v4 5 4a.50005.50005 0 0 0 .5.5h3a.50005.50005 0 0 0 .5-.5l.00781-3.508h2.5a.50005.50005 0 0 0 .5-.5v-5a.50005.50005 0 0 0 -.5-.5h-2.5v-3.5a.50005.50005 0 0 0 -.50195-.5zm-.49805 1.00195v2.99805h-2.00781v-2.99414zm-2.00781 3.99805h2.00781v4h-2.00781zm3.00781 0h2v4h-2zm-3.00781 5h2.00586l-.006 3.00781h-2z" transform="translate(.000002 42.0001)"/><path d="m200.53711 284.16992a.50005.50005 0 0 0 -.13477.0156c-3.14392.73681-5.37898 3.53464-5.40234 6.76367-.0234 3.22902 2.17176 6.05956 5.30469 6.8418a.50005.50005 0 1 0 .24219-.96875c-2.69014-.67168-4.56694-3.09259-4.54688-5.86524.0201-2.77265 1.93128-5.16615 4.63086-5.79883a.50005.50005 0 0 0 -.0937-.98828z" opacity=".7"/></g></g></svg>