<svg height="1600" viewBox="0 0 1600 1600" width="1600" xmlns="http://www.w3.org/2000/svg" xmlns:inkscape="http://www.inkscape.org/namespaces/inkscape" xmlns:sodipodi="http://sodipodi.sourceforge.net/DTD/sodipodi-0.dtd"><sodipodi:namedview pagecolor="#303030" showgrid="true"><inkscape:grid id="grid5" units="px" spacingx="100" spacingy="100" color="#4772b3" opacity="0.2" visible="true" /></sodipodi:namedview><g fill="#fff"><path d="m97.689453 242.01172c-.394683.0302-.787753.12022-1.167969.27148-1.520864.60507-2.521484 2.07999-2.521484 3.7168a.50005.50005 0 0 0 .01563.13281c-.365184.0927-.722816.22834-1.058594.42774-1.441397.85595-2.170881 2.51688-1.878906 4.14453-.687144.57705-1.108155 1.44799-1.076172 2.39648.05016 1.48769 1.192146 2.71921 2.671875 2.88086 1.398175.15274 2.699752-.69789 3.152344-2.00781.896041.0388 1.769696-.22225 2.498047-.74609 1.073726.85551 2.557876 1.01607 3.789066.37695 1.30171-.67573 2.04374-2.09602 1.85742-3.55078-.16328-1.27499-1.01006-2.34261-2.17968-2.80664.45466-1.38242.13144-2.9211-.88477-3.9961-.56221-.59473-1.277273-.98709-2.042974-1.15625-.38285-.0846-.779145-.11418-1.173828-.084zm.521485.99609c.734455.0517 1.440532.37287 1.968752.93164.84514.89404 1.0593 2.20845.54101 3.32422a.50005.50005 0 0 0 -.0527.2168.50005.50005 0 0 0 .38672.58203c1.02426.23341 1.79232 1.07713 1.92578 2.11914.13345 1.04201-.39575 2.0531-1.32813 2.53711s-2.064441.33572-2.83984-.37305a.50005.50005 0 0 0 -.203125-.11914.50005.50005 0 0 0 -.28125-.0977.50005.50005 0 0 0 -.351563.1289c-.657713.57559-1.533142.83597-2.398437.71289a.50008765.50008765 0 0 0 -.542969.33008.50005.50005 0 0 0 -.09766.19727c-.248328.96717-1.16166 1.59867-2.154297 1.49023-.992636-.10844-1.747599-.92195-1.78125-1.91992-.02307-.68418.30371-1.29829.824219-1.67774a.50005.50005 0 0 0 .166016-.11718c.198328-.11547.417989-.19976.65625-.24219a.50005.50005 0 0 0 -.08984-.99414.50005.50005 0 0 0 -.08398.01c-.160251.0285-.313314.0746-.46289.12695-.0646-1.10299.477746-2.17237 1.457031-2.75391 1.157707-.68748 2.624443-.52021 3.599609.4082a.50009764.50009764 0 0 0 .689453-.7246c-.648161-.6171-1.462878-.98259-2.308593-1.07813-.148752-.017-.299358-.0157-.449254-.0158a.50005.50005 0 0 0 0-.00977c0-1.23027.747501-2.33232 1.890625-2.78711.428672-.17055.879639-.23611 1.320313-.20508z" transform="matrix(100 0 0 100 -8899.9698 -24100.015)"/></g></svg>