<svg height="1600" viewBox="0 0 1300 1600" width="1300" xmlns="http://www.w3.org/2000/svg" xmlns:inkscape="http://www.inkscape.org/namespaces/inkscape" xmlns:sodipodi="http://sodipodi.sourceforge.net/DTD/sodipodi-0.dtd"><sodipodi:namedview pagecolor="#303030" showgrid="true"><inkscape:grid id="grid5" units="px" spacingx="100" spacingy="100" color="#4772b3" opacity="0.2" visible="true" /></sodipodi:namedview><g fill="#fff"><g enable-background="new" transform="matrix(100 0 0 100 -51099.99999999999 -28300)"><path d="m521.5 287c-5.3 0-9.5 4.7037-9.5 9.5v1a.50005.50005 0 0 0 .5.5h3a.50005.50005 0 0 0 .5-.5v-1c0-1.05.68155-2.47832 1.73828-3.59375s2.45616-1.90625 3.76172-1.90625h1a.50005.50005 0 0 0 .5-.5v-3a.50005.50005 0 0 0 -.5-.5zm0 1h.5v2h-.5c-1.69444 0-3.29501.95918-4.48828 2.21875s-2.01172 2.83125-2.01172 4.28125v.5h-2v-.5c0-4.2037 3.8-8.5 8.5-8.5z"/><path d="m512.5 263c-.27613.00003-.49997.22387-.5.5v6.60938c.29756-.51189.62592-1.00687 1-1.46876v-4.64062h2v2.71875c.32103-.24305.65292-.47168 1-.67969v-2.53906c-.00003-.27613-.22387-.49997-.5-.5z" opacity=".5" transform="translate(.000002 21)"/></g></g></svg>