<?xml version="1.0" encoding="UTF-8" standalone="no"?>
<svg
   height="1600"
   viewBox="0 0 1600 1600"
   width="1600"
   version="1.1"
   id="svg3"
   xmlns="http://www.w3.org/2000/svg"
   xmlns:svg="http://www.w3.org/2000/svg">
  <defs
     id="defs3" />
  <g
     fill="#fff"
     id="g3">
    <g
       enable-background="new"
       transform="matrix(100 0 0 100 -44600.356 -59800.356)"
       id="g2">
      <path
         id="path1"
         d="m 447.50001,599.00001 c -0.27613,3e-5 -0.49997,0.22387 -0.5,0.5 v 13.00355 c 3e-5,0.27613 0.22397,0.48947 0.5,0.5 h 13 c 0.0229,3e-4 0.045,-5.7e-4 0.0664,-0.003 0.32026,-0.0296 0.46599,-0.30644 0.43719,-0.56098 v -12.94003 c -3e-5,-0.27613 -0.22387,-0.49997 -0.5,-0.5 z m 0.5,1 h 12.00355 v 12.00355 h -12.00355 z"
         style="opacity:0.5" />
      <path
         style="display:inline;fill:none;fill-opacity:0.6;stroke:#ffffff;stroke-width:1;stroke-linecap:round;stroke-dasharray:none;stroke-dashoffset:0;stroke-opacity:1"
         d="m 450.00356,610.00356 c 0,0 2.99141,1.00812 6,-2 3,-3 2,-6 2,-6"
         id="path9" />
      <path
         id="path10"
         style="baseline-shift:baseline;display:inline;overflow:visible;opacity:0.6;vector-effect:none;fill:#ffffff;fill-opacity:1;stroke:none;stroke-width:0.01;stroke-linecap:round;stroke-linejoin:round;enable-background:accumulate;stop-color:#000000"
         d="m 454.30099,605.0345 c -0.13256,0.005 -0.25777,0.0617 -0.34826,0.1586 l -0.68593,0.73573 c -0.18827,0.20204 -0.17742,0.51833 0.0245,0.7067 0.20201,0.18824 0.51831,0.1774 0.70666,-0.0245 l 0.68596,-0.73577 c 0.1883,-0.20197 0.1774,-0.51831 -0.0245,-0.70668 -0.0971,-0.0904 -0.22591,-0.13866 -0.35843,-0.13408 z m 2.05085,-2.18954 c -0.13257,0.005 -0.25779,0.0617 -0.34828,0.1586 l -0.68593,0.73574 c -0.18826,0.20203 -0.1774,0.51832 0.0246,0.70669 0.20201,0.18825 0.51831,0.17741 0.70666,-0.0245 l 0.68596,-0.73577 c 0.1883,-0.20197 0.1774,-0.51831 -0.0245,-0.70668 -0.0971,-0.0904 -0.22591,-0.13866 -0.35842,-0.13408 z m -4.0961,4.38429 c -0.13257,0.005 -0.25778,0.0617 -0.34827,0.1586 l -0.68593,0.73574 c -0.18826,0.20203 -0.17741,0.51831 0.0245,0.7067 0.20201,0.18823 0.51831,0.17739 0.70667,-0.0245 l 0.68595,-0.73577 c 0.1883,-0.20197 0.17741,-0.51831 -0.0245,-0.70668 -0.0971,-0.0904 -0.22592,-0.13866 -0.35844,-0.13408 z" />
    </g>
  </g>
</svg>
