<svg height="1600" viewBox="0 0 1600 1600" width="1600" xmlns="http://www.w3.org/2000/svg" xmlns:inkscape="http://www.inkscape.org/namespaces/inkscape" xmlns:sodipodi="http://sodipodi.sourceforge.net/DTD/sodipodi-0.dtd"><sodipodi:namedview pagecolor="#303030" showgrid="true"><inkscape:grid id="grid5" units="px" spacingx="100" spacingy="100" color="#4772b3" opacity="0.2" visible="true" /></sodipodi:namedview><g fill="#fff"><g enable-background="new" transform="matrix(100 0 0 100 -48799.99999999999 -30400)"><path d="m496 305c-3.86007 0-7 3.13993-7 7s3.13993 7 7 7 7-3.13993 7-7-3.13993-7-7-7zm0 1c3.31963 0 6 2.68037 6 6s-2.68037 6-6 6-6-2.68037-6-6 2.68037-6 6-6z" opacity=".6"/><path d="m496.49219 306.99219a.50005.50005 0 0 0 -.49219.50781v5a.50005.50005 0 0 0 .22266.41602l3 2a.50005.50005 0 1 0 .55468-.83204l-2.77734-1.85156v-4.73242a.50005.50005 0 0 0 -.50781-.50781z"/><path d="m491.5 312a.50005.50005 0 1 0 0 1h3a.50005.50005 0 1 0 0-1z" opacity=".75"/><path d="m492.74414 308.24414a.50005.50005 0 0 0 -.34766.85938l1.75 1.75a.50005.50005 0 1 0 .70704-.70704l-1.75-1.75a.50005.50005 0 0 0 -.35938-.15234z" opacity=".9"/></g></g></svg>