<svg height="1600" viewBox="0 0 1600 1600" width="1600" xmlns="http://www.w3.org/2000/svg" xmlns:inkscape="http://www.inkscape.org/namespaces/inkscape" xmlns:sodipodi="http://sodipodi.sourceforge.net/DTD/sodipodi-0.dtd"><sodipodi:namedview pagecolor="#303030" showgrid="true"><inkscape:grid id="grid5" units="px" spacingx="100" spacingy="100" color="#4772b3" opacity="0.2" visible="true" /></sodipodi:namedview><g fill="#fff"><path d="m327.41406 263a.50005.50005 0 1 0 0 1h1.17969c1.54365 0 2.90268.42079 3.85937 1.21484.9567.79406 1.54688 1.95474 1.54688 3.60352 0 1.90166-.93943 3.66928-2.68164 4.99414s-4.29199 2.1875-7.44922 2.1875h-2.36133a.50005.50005 0 1 0 0 1h2.36133c3.33916 0 6.10577-.91054 8.05469-2.39258 1.94891-1.48204 3.07617-3.55426 3.07617-5.78906 0-1.89677-.72902-3.39433-1.9082-4.37305-1.17919-.97872-2.77359-1.44531-4.49805-1.44531z" transform="matrix(100 0 0 100 -32000.03400000001 -26200)"/></g></svg>