<svg height="1600" viewBox="0 0 1600 1600" width="1600" xmlns="http://www.w3.org/2000/svg" xmlns:inkscape="http://www.inkscape.org/namespaces/inkscape" xmlns:sodipodi="http://sodipodi.sourceforge.net/DTD/sodipodi-0.dtd"><sodipodi:namedview pagecolor="#303030" showgrid="true"><inkscape:grid id="grid5" units="px" spacingx="100" spacingy="100" color="#4772b3" opacity="0.2" visible="true" /></sodipodi:namedview><g fill="#fff"><path d="m14.505859 263.01562a.55005501.55005501 0 0 0 -.05664.004c-1.480032.16258-2.81124.9768-3.632813 2.21875-.754587 1.14068-.9438173 2.54615-.65039 3.875l-3.5234379 3.52149c-.4164576.37981-.6354253.95498-.6601562 1.61328-.024627.65553.1896767 1.40646.7832031 2 .5945619.59455 1.3481437.80114 1.9980469.76953.6519363-.0317 1.2112985-.25543 1.5917971-.63672l3.533203-3.54297c1.328363.29148 2.734045.0991 3.873047-.6543 1.240498-.82051 2.05459-2.151 2.21875-3.6289a.55005501.55005501 0 0 0 -.160157-.45117l-.943359-.92969a.55005501.55005501 0 0 0 -.775391.002l-1.80664 1.79883h-.589844l-1.679687-1.67969v-.58984l1.804687-1.80078a.55005501.55005501 0 0 0 .0039-.77539l-.93164-.94727a.55005501.55005501 0 0 0 -.396485-.16602zm-.15625 1.17383.316407.32227-1.580078 1.57617a.55005501.55005501 0 0 0 -.16211.39063l.002 1.04687a.55005501.55005501 0 0 0 .16211.38672l2.001953 2.00195a.55005501.55005501 0 0 0 .388672.16211l1.046875-.002a.55005501.55005501 0 0 0 .386718-.16016l1.580079-1.57422.318359.31446c-.183326 1.05859-.751902 2.01444-1.654297 2.61132-.970627.64202-2.219467.82961-3.330078.49219a.55005501.55005501 0 0 0 -.548828.13672l-3.699219 3.70899c-.1021327.10234-.4754005.29532-.8691406.31445-.395773.0192-.8021096-.0834-1.1660156-.44727-.3650748-.36508-.4778317-.78393-.4628907-1.18164.014838-.39496.2099663-.75541.3046875-.84179a.55005501.55005501 0 0 0 .017578-.0176l3.7070314-3.70508a.55005501.55005501 0 0 0 .136719-.54883c-.339386-1.11269-.154519-2.36033.488281-3.33203.59791-.90384 1.555081-1.47203 2.615234-1.6543z" transform="matrix(100 0 0 100 -498.2139 -26201.82)"/></g></svg>