<svg height="1400" viewBox="0 0 1400 1400" width="1400" xmlns="http://www.w3.org/2000/svg" xmlns:inkscape="http://www.inkscape.org/namespaces/inkscape" xmlns:sodipodi="http://sodipodi.sourceforge.net/DTD/sodipodi-0.dtd"><sodipodi:namedview pagecolor="#303030" showgrid="true"><inkscape:grid id="grid5" units="px" spacingx="100" spacingy="100" color="#4772b3" opacity="0.2" visible="true" /></sodipodi:namedview><g fill="#fff"><g enable-background="new" transform="translate(-233 -365)"><path d="m1028 1556c-3.2833 0-6 2.4414-6 5.5 0 1.7056.9046 3.146 2.1523 4.3594l.9942.9941a.50004997.50004997 0 0 0 .3027.1485.50004997.50004997 0 0 0 .051.998h5a.50004997.50004997 0 0 0 .045-.998.50004997.50004997 0 0 0 .3086-.1485l.9981-.998c1.2122-1.1985 2.1465-2.6518 2.1465-4.3535 0-3.0586-2.7167-5.5-6-5.5zm0 1c2.7919 0 5 2.0358 5 4.5 0 1.3342-.7428 2.5488-1.8516 3.6445l-1 1a.50004997.50004997 0 0 0 .2793.8535h-4.8594a.50004997.50004997 0 0 0 .2871-.8535l-1-1a.50004997.50004997 0 0 0 -.01-.01c-1.1397-1.1082-1.8477-2.2864-1.8477-3.6406 0-2.4642 2.2081-4.5 5-4.5zm-2.5 12a.50004997.50004997 0 1 0 0 1h1.5v.5a.50004997.50004997 0 0 0 .5.5h1a.50004997.50004997 0 0 0 .5-.5v-.5h1.5a.50004997.50004997 0 1 0 0-1z"/><path d="m1025.4902 1561.0059a.50005.50005 0 0 0 -.3437.8476l.8535.8535v1.543a.50005.50005 0 1 0 1 0v-1.25h2v1.25a.50005.50005 0 1 0 1 0v-1.543l.8535-.8535a.50005.50005 0 0 0 -.707-.707l-.8535.8535h-2.586l-.8535-.8535a.50005.50005 0 0 0 -.3633-.1406z" opacity=".6"/></g><path d="m413.49609 411c-1.31297 0-2.2906.33758-3.34961 1.39648-1.07833 1.0783-1.34444 2.83666-.73437 4.48438l-2.51563 2.51562c-1.00968 1.00969-1.01874 2.3133-.3125 3.01954s2.00985.69718 3.01954-.3125l2.51757-2.51758c1.64574.60684 3.4036.3464 4.48243-.73242 1.05892-1.05893 1.39668-2.03818 1.39257-3.35547a.50005.50005 0 0 0 -.14648-.35157l-1-1a.50005.50005 0 0 0 -.70703 0l-1.85352 1.85352h-.58594l-.70703-.70703v-.58594l1.85352-1.85351a.50005.50005 0 0 0 0-.70704l-1-1a.50005.50005 0 0 0 -.35352-.14648zm-.18164 1.02539.47461.47461-1.64648 1.64648a.50005.50005 0 0 0 -.14649.35352v1a.50005.50005 0 0 0 .14649.35352l1 1a.50005.50005 0 0 0 .35351.14648h1a.50005.50005 0 0 0 .35352-.14648l1.64648-1.64649.47461.47461c-.0187 1.03267-.19304 1.58367-1.07422 2.46484-.83209.8321-2.35353 1.13617-3.75195.47266a.50005.50005 0 0 0 -.56836.0977l-2.67969 2.67968c-.74031.74032-1.3117.60626-1.60546.3125s-.42782-.86515.3125-1.60546l2.67773-2.67774a.50005.50005 0 0 0 .0977-.56836c-.66677-1.39852-.3581-2.92122.47461-3.7539.88058-.8805 1.43264-1.05616 2.46093-1.07813z" opacity=".6" transform="matrix(100 0 0 100 -40504.36 -40995.446)"/></g></svg>