<svg height="1400" viewBox="0 0 1400 1400" width="1400" xmlns="http://www.w3.org/2000/svg" xmlns:inkscape="http://www.inkscape.org/namespaces/inkscape" xmlns:sodipodi="http://sodipodi.sourceforge.net/DTD/sodipodi-0.dtd"><sodipodi:namedview pagecolor="#303030" showgrid="true"><inkscape:grid id="grid5" units="px" spacingx="100" spacingy="100" color="#4772b3" opacity="0.2" visible="true" /></sodipodi:namedview><g fill="#fff"><path d="m433.60156 411.10938c-.0348.00029-.0695.004-.10351.0117-2.03912.46668-3.49042 2.28707-3.49219 4.37891.0009.50625.15089.99318.31836 1.46875l-2.42774 2.42773c-1.00968 1.00969-1.01874 2.3133-.3125 3.01954s2.00985.69718 3.01954-.3125l2.42968-2.42969c.47476.16775.9595.31841 1.46485.32031h.002c2.10425-.00093 3.93168-1.46897 4.38672-3.52344.0316-.14237-.00047-.29146-.0879-.4082l-.64844-.86328c-.17598-.23372-.51414-.2671-.73242-.0723l-2.10746 1.87309h-1.08008l-1.23047-1.43555v-.85742l1.85352-1.85351c.19519-.19527.19519-.51177 0-.70704l-.89063-.89062c-.0957-.0957-.22603-.14855-.36133-.14648z" transform="matrix(100 0 0 100 -42599.487 -41000.9115)"/></g></svg>