<svg height="1600" viewBox="0 0 1600 1600" width="1600" xmlns="http://www.w3.org/2000/svg" xmlns:inkscape="http://www.inkscape.org/namespaces/inkscape" xmlns:sodipodi="http://sodipodi.sourceforge.net/DTD/sodipodi-0.dtd"><sodipodi:namedview pagecolor="#303030" showgrid="true"><inkscape:grid id="grid5" units="px" spacingx="100" spacingy="100" color="#4772b3" opacity="0.2" visible="true" /></sodipodi:namedview><g fill="#fff"><g enable-background="new" transform="translate(-233 -365)"><path d="m1028 1556c-3.2833 0-6 2.4414-6 5.5 0 1.7056.9046 3.146 2.1523 4.3594l.9942.9941a.50004997.50004997 0 0 0 .3027.1485.50004997.50004997 0 0 0 .051.998h5a.50004997.50004997 0 0 0 .045-.998.50004997.50004997 0 0 0 .3086-.1485l.9981-.998c1.2122-1.1985 2.1465-2.6518 2.1465-4.3535 0-3.0586-2.7167-5.5-6-5.5zm0 1c2.7919 0 5 2.0358 5 4.5 0 1.3342-.7428 2.5488-1.8516 3.6445l-1 1a.50004997.50004997 0 0 0 .2793.8535h-4.8594a.50004997.50004997 0 0 0 .2871-.8535l-1-1a.50004997.50004997 0 0 0 -.01-.01c-1.1397-1.1082-1.8477-2.2864-1.8477-3.6406 0-2.4642 2.2081-4.5 5-4.5zm-2.5 12a.50004997.50004997 0 1 0 0 1h1.5v.5a.50004997.50004997 0 0 0 .5.5h1a.50004997.50004997 0 0 0 .5-.5v-.5h1.5a.50004997.50004997 0 1 0 0-1z"/><path d="m1025.4902 1561.0059a.50005.50005 0 0 0 -.3437.8476l.8535.8535v1.543a.50005.50005 0 1 0 1 0v-1.25h2v1.25a.50005.50005 0 1 0 1 0v-1.543l.8535-.8535a.50005.50005 0 0 0 -.707-.707l-.8535.8535h-2.586l-.8535-.8535a.50005.50005 0 0 0 -.3633-.1406z" opacity=".6"/></g><path d="m14.505859 263.01562a.55005501.55005501 0 0 0 -.05664.004c-1.480032.16258-2.81124.9768-3.632813 2.21875-.754587 1.14068-.9438173 2.54615-.65039 3.875l-3.5234379 3.52149c-.4164576.37981-.6354253.95498-.6601562 1.61328-.024627.65553.1896767 1.40646.7832031 2 .5945619.59455 1.3481437.80114 1.9980469.76953.6519363-.0317 1.2112985-.25543 1.5917971-.63672l3.533203-3.54297c1.328363.29148 2.734045.0991 3.873047-.6543 1.240498-.82051 2.05459-2.151 2.21875-3.6289a.55005501.55005501 0 0 0 -.160157-.45117l-.943359-.92969a.55005501.55005501 0 0 0 -.775391.002l-1.80664 1.79883h-.589844l-1.679687-1.67969v-.58984l1.804687-1.80078a.55005501.55005501 0 0 0 .0039-.77539l-.93164-.94727a.55005501.55005501 0 0 0 -.396485-.16602zm-.15625 1.17383.316407.32227-1.580078 1.57617a.55005501.55005501 0 0 0 -.16211.39063l.002 1.04687a.55005501.55005501 0 0 0 .16211.38672l2.001953 2.00195a.55005501.55005501 0 0 0 .388672.16211l1.046875-.002a.55005501.55005501 0 0 0 .386718-.16016l1.580079-1.57422.318359.31446c-.183326 1.05859-.751902 2.01444-1.654297 2.61132-.970627.64202-2.219467.82961-3.330078.49219a.55005501.55005501 0 0 0 -.548828.13672l-3.699219 3.70899c-.1021327.10234-.4754005.29532-.8691406.31445-.395773.0192-.8021096-.0834-1.1660156-.44727-.3650748-.36508-.4778317-.78393-.4628907-1.18164.014838-.39496.2099663-.75541.3046875-.84179a.55005501.55005501 0 0 0 .017578-.0176l3.7070314-3.70508a.55005501.55005501 0 0 0 .136719-.54883c-.339386-1.11269-.154519-2.36033.488281-3.33203.59791-.90384 1.555081-1.47203 2.615234-1.6543z" transform="matrix(100 0 0 100 -498.2139 -26201.82)"/></g></svg>