<svg height="1600" viewBox="0 0 1600 1600" width="1600" xmlns="http://www.w3.org/2000/svg" xmlns:inkscape="http://www.inkscape.org/namespaces/inkscape" xmlns:sodipodi="http://sodipodi.sourceforge.net/DTD/sodipodi-0.dtd"><sodipodi:namedview pagecolor="#303030" showgrid="true"><inkscape:grid id="grid5" units="px" spacingx="100" spacingy="100" color="#4772b3" opacity="0.2" visible="true" /></sodipodi:namedview><g fill="#fff"><path d="m351.48242 557.01562-.96875.0156c-.0189.00026-.0378.002-.0566.004-2.58289.33067-4.57988 2.60038-4.45117 5.21484.0288.58487.23179 1.09854.44141 1.5957l-3.78516 3.78516c-.33708.30742-.60091.7293-.64063 1.23047-.0397.50117.17261 1.03979.625 1.49219.45357.45356.99596.65829 1.49219.61328.49624-.045.906-.30379 1.21485-.61328l3.80664-3.80664c.52791.22561 1.0693.4331 1.69336.45117 2.60313.0754 4.83493-1.87377 5.11328-4.46289.001-.0136.002-.0273.002-.041l.0215-.9668c.0105-.45102-.53451-.68424-.85351-.36523l-2.84386 2.83781h-1.58594l-1.70703-1.70703v-1.58594l2.84375-2.83789c.31756-.31766.0878-.86042-.36133-.85352z" transform="matrix(100 0 0 100 -34100.366 -55599.425)"/></g></svg>