<svg height="1600" viewBox="0 0 1800 1600" width="1800" xmlns="http://www.w3.org/2000/svg" xmlns:inkscape="http://www.inkscape.org/namespaces/inkscape" xmlns:sodipodi="http://sodipodi.sourceforge.net/DTD/sodipodi-0.dtd"><sodipodi:namedview pagecolor="#303030" showgrid="true"><inkscape:grid id="grid5" units="px" spacingx="100" spacingy="100" color="#4772b3" opacity="0.2" visible="true" /></sodipodi:namedview><g fill="#fff"><g enable-background="new" transform="matrix(100 0 0 100 -6700 -3100)"><path d="m72.5 32a.50004997.50004997 0 0 0 -.330078.123047l-2 1.75a.50004997.50004997 0 0 0 -.169922.376953v1.75h-1.5a.50004997.50004997 0 0 0 -.5.5v1.5c0 .986111.740543 1.688903 1.568359 1.919922.715248.199604 1.51421.04822 2.183594-.384766l1.248047 1.404297v2.310547c0 .888889.394191 1.618478.96875 2.078125s1.30625.671875 2.03125.671875 1.456691-.212228 2.03125-.671875.96875-1.189236.96875-2.078125v-2.310547l1.248047-1.404297c.669384.432987 1.468346.58437 2.183594.384766.827816-.231019 1.568359-.933811 1.568359-1.919922v-1.5a.50004997.50004997 0 0 0 -.5-.5h-1.5v-1.75a.50004997.50004997 0 0 0 -.169922-.376953l-2-1.75a.50004997.50004997 0 0 0 -.330078-.123047h-2a.50004997.50004997 0 0 0 -.353516.146484l-.853515.853516h-.585938l-.853515-.853516a.50004997.50004997 0 0 0 -.353516-.146484zm.1875 1h1.605469l.853515.853516a.50004997.50004997 0 0 0 .353516.146484h1a.50004997.50004997 0 0 0 .353516-.146484l.853515-.853516h1.605469l1.6875 1.478516v2.021484a.50004997.50004997 0 0 0 .5.5h1.5v1c0 .513889-.321957.811097-.837891.955078-.394082.109977-.821203-.06293-1.207031-.25a.50004997.50004997 0 0 0 -.828125-.537109l-2 2.25a.50004997.50004997 0 0 0 -.126953.332031v2.5c0 .611111-.230809 1.006522-.59375 1.296875s-.88125.453125-1.40625.453125-1.043309-.162772-1.40625-.453125-.59375-.685764-.59375-1.296875v-2.5a.50004997.50004997 0 0 0 -.126953-.332031l-2-2.25a.50004997.50004997 0 0 0 -.828125.537109c-.385828.187069-.812949.359977-1.207031.25-.515934-.143981-.837891-.441189-.837891-.955078v-1h1.5a.50004997.50004997 0 0 0 .5-.5v-2.023438z"/><path d="m74 35a.50005.50005 0 0 0 -.353516.146484l-.5.5a.50005.50005 0 0 0 -.146484.353516v.5a.50005.50005 0 1 0 1 0v-.292969l.207031-.207031h.292969a.50005.50005 0 1 0 0-1zm4 0a.50005.50005 0 0 0 -.353516.146484l-.5.5a.50005.50005 0 0 0 -.146484.353516v.5a.50005.50005 0 1 0 1 0v-.292969l.207031-.207031h.292969a.50005.50005 0 1 0 0-1zm-2.5 3a.50005.50005 0 1 0 0 1h1a.50005.50005 0 1 0 0-1z" opacity=".8"/></g></g></svg>