<svg height="1800" viewBox="0 0 1400 1800" width="1400" xmlns="http://www.w3.org/2000/svg" xmlns:inkscape="http://www.inkscape.org/namespaces/inkscape" xmlns:sodipodi="http://sodipodi.sourceforge.net/DTD/sodipodi-0.dtd"><sodipodi:namedview pagecolor="#303030" showgrid="true"><inkscape:grid id="grid5" units="px" spacingx="100" spacingy="100" color="#4772b3" opacity="0.2" visible="true" /></sodipodi:namedview><g fill="#fff"><g enable-background="new" transform="translate(-233 -365)"><path d="m1028 1556c-3.2833 0-6 2.4414-6 5.5 0 1.7056.9046 3.146 2.1523 4.3594l.9942.9941a.50004997.50004997 0 0 0 .3027.1485.50004997.50004997 0 0 0 .051.998h5a.50004997.50004997 0 0 0 .045-.998.50004997.50004997 0 0 0 .3086-.1485l.9981-.998c1.2122-1.1985 2.1465-2.6518 2.1465-4.3535 0-3.0586-2.7167-5.5-6-5.5zm0 1c2.7919 0 5 2.0358 5 4.5 0 1.3342-.7428 2.5488-1.8516 3.6445l-1 1a.50004997.50004997 0 0 0 .2793.8535h-4.8594a.50004997.50004997 0 0 0 .2871-.8535l-1-1a.50004997.50004997 0 0 0 -.01-.01c-1.1397-1.1082-1.8477-2.2864-1.8477-3.6406 0-2.4642 2.2081-4.5 5-4.5zm-2.5 12a.50004997.50004997 0 1 0 0 1h1.5v.5a.50004997.50004997 0 0 0 .5.5h1a.50004997.50004997 0 0 0 .5-.5v-.5h1.5a.50004997.50004997 0 1 0 0-1z"/><path d="m1025.4902 1561.0059a.50005.50005 0 0 0 -.3437.8476l.8535.8535v1.543a.50005.50005 0 1 0 1 0v-1.25h2v1.25a.50005.50005 0 1 0 1 0v-1.543l.8535-.8535a.50005.50005 0 0 0 -.707-.707l-.8535.8535h-2.586l-.8535-.8535a.50005.50005 0 0 0 -.3633-.1406z" opacity=".6"/></g><path d="m10.484375 450.98353c-.752 0-1.4538175.239-2.0234375.64453-.88567.63055-1.4609375 1.67061-1.4609375 2.83985v4.03209c.00003.27537.2226769.4989.4980469.5l4.0097651.008c.27613-.00003.49997-.22387.5-.5l-.007812-6.98931v-.002-.0352c-.001-.27524-.22466-.49793-.5-.49796zm2.515625 0v1h2.508368c1.38452 0 2.484375 1.09985 2.484375 2.48438v9.04771c0 1.38452-1.099855 2.48438-2.484375 2.48438h-5.023993c-1.38452 0-2.484375-1.09986-2.484375-2.48438v-3.51562h-1v3.51562c0 1.92123 1.563145 3.48438 3.484375 3.48438h5.023993c1.92123 0 3.484375-1.56314 3.484375-3.48438v-9.04771c0-1.92123-1.563145-3.48438-3.484375-3.48438z" transform="matrix(100 0 0 100 -599.6372 -44999.1765)"/></g></svg>