<svg id="svg1" height="1800" viewBox="0 0 1800 1800" width="1800" xmlns="http://www.w3.org/2000/svg" xmlns:inkscape="http://www.inkscape.org/namespaces/inkscape" xmlns:sodipodi="http://sodipodi.sourceforge.net/DTD/sodipodi-0.dtd"><sodipodi:namedview pagecolor="#303030" showgrid="true"><inkscape:grid id="grid5" units="px" spacingx="100" spacingy="100" color="#4772b3" opacity="0.2" visible="true" /></sodipodi:namedview><g fill="#fff"><path id="path1-3" d="m1347.7138 101.47718c-44.785 1.82-64.741 57.103-31.445 87.11 58.809 54.453 84.18 108.56 84.18 160.156l-.391 600.571c-1 67.61622 100.956 67.61622 100 0l.4-600.586c0-85.09-43.179-165.971-116.211-233.594-9.82-9.31-23.001-14.246-36.524-13.672zm301.563 201.563c-27.537.4-49.542 23.047-49.219 50.586v405.859c-1 67.616 100.956 67.616 100 0v-405.859c.3-28.15-22.632-51.025-50.781-50.586z" stroke-width="100"/><path id="path1" d="m31.484375 450.99458c-1.92123 0-3.484375 1.56315-3.484375 3.48438v9.03666c0 1.92123 1.563145 3.48438 3.484375 3.48438h5.082348c1.92123 0 3.484375-1.56315 3.484375-3.48438v-9.03666c0-1.92123-1.563145-3.48438-3.484375-3.48438zm0 1h5.082348c1.38453 0 2.484375 1.09985 2.484375 2.48438v9.03666c0 1.38453-1.099845 2.48438-2.484375 2.48438h-5.082348c-1.38453 0-2.484375-1.09985-2.484375-2.48438v-9.03666c0-1.38453 1.099845-2.48438 2.484375-2.48438z" transform="matrix(99.598235 0 0 100 -2688.8846 -44999.729)"/></g></svg>