<svg height="1800" viewBox="0 0 1800 1800" width="1800" xmlns="http://www.w3.org/2000/svg" xmlns:inkscape="http://www.inkscape.org/namespaces/inkscape" xmlns:sodipodi="http://sodipodi.sourceforge.net/DTD/sodipodi-0.dtd"><sodipodi:namedview pagecolor="#303030" showgrid="true"><inkscape:grid id="grid5" units="px" spacingx="100" spacingy="100" color="#4772b3" opacity="0.2" visible="true" /></sodipodi:namedview><g fill="#fff"><path d="m80.476562 451.02148c-.447856.0182-.647418.57103-.314453.8711.58809.54453.841797 1.0856.841797 1.60156l-.003906 6.00586c-.0096.67616 1.009563.67616 1 0l.0039-6.00586c0-.8509-.431789-1.65971-1.162109-2.33594-.09822-.0931-.230004-.14246-.365235-.13672zm-8.914062-.02148c-1.96498 0-3.5625 1.59753-3.5625 3.5625v8.875c0 1.96497 1.59752 3.5625 3.5625 3.5625h3.875c1.96497 0 3.5625-1.59753 3.5625-3.5625v-8.875c0-1.96497-1.59753-3.5625-3.5625-3.5625zm0 1h3.875c1.42827 0 2.5625 1.13423 2.5625 2.5625v8.875c0 1.42827-1.13423 2.5625-2.5625 2.5625h-3.875c-1.42828 0-2.5625-1.13423-2.5625-2.5625v-8.875c0-1.42827 1.13422-2.5625 2.5625-2.5625zm11.929688 1.0371c-.275376.004-.495427.23048-.492188.50587v4.05859c-.0096.67616 1.009563.67616 1 0v-4.05859c.0033-.2815-.226323-.51025-.507812-.50586z" transform="matrix(100 0 0 100 -6700.003 -45000)"/></g></svg>