<svg id="svg1" height="1800" viewBox="0 0 1800 1800" width="1800" xmlns="http://www.w3.org/2000/svg" xmlns:inkscape="http://www.inkscape.org/namespaces/inkscape" xmlns:sodipodi="http://sodipodi.sourceforge.net/DTD/sodipodi-0.dtd"><sodipodi:namedview pagecolor="#303030" showgrid="true"><inkscape:grid id="grid5" units="px" spacingx="100" spacingy="100" color="#4772b3" opacity="0.2" visible="true" /></sodipodi:namedview><g fill="#fff"><g id="g1"><path id="path1" d="m31.484382 450.99458c-1.921226 0-3.484389 1.56316-3.484389 3.48439v9.03664c0 1.92123 1.563163 3.48439 3.484389 3.48439h1.988723c-.0023-.007-.986951-1-.986951-1h-1.001824c-1.384526 0-2.484376-1.09986-2.484376-2.48439v-9.03664c0-1.38453 1.09985-2.48439 2.484376-2.48439h1.034848s1.00328-.99586 1.00327-1.00003zm3.042928.00001 1.004566 1.00003h1.03478c1.384528 0 2.484376 1.09986 2.484376 2.48439v9.03664c0 1.38453-1.099848 2.48439-2.484376 2.48439h-1.011359l-1.002942 1.00004h2.014337c1.921226 0 3.484389-1.56316 3.484389-3.48439v-9.03664c0-1.92123-1.563163-3.4844-3.484389-3.4844zm-1.469324 5.01106c-.571325.003-1.046863.47556-1.046863 1.04689v3.89319c0 .57133.475533 1.04689 1.046863 1.04689h1.928585c.571328 0 1.046862-.47556 1.046862-1.04689v-3.89319c0-.57133-.473869-1.0621-1.045187-1.05863z" transform="matrix(99.598235 0 0 100 -2688.8846 -44999.729)"/></g><g fill-rule="evenodd" stroke-width="25"><path id="path2" d="m700.0224 1600.3852-299.81007-300.3127 599.88877-.1344z"/><path id="path2-6" d="m699.97151 200.01734 300.20149 299.92135-599.88879.13433z"/></g></g></svg>