<svg id="svg1" height="1800" viewBox="0 0 1800 1800" width="1800" xmlns="http://www.w3.org/2000/svg" xmlns:inkscape="http://www.inkscape.org/namespaces/inkscape" xmlns:sodipodi="http://sodipodi.sourceforge.net/DTD/sodipodi-0.dtd"><sodipodi:namedview pagecolor="#303030" showgrid="true"><inkscape:grid id="grid5" units="px" spacingx="100" spacingy="100" color="#4772b3" opacity="0.2" visible="true" /></sodipodi:namedview><g id="g1" fill="#fff"><path id="path1" d="m10.484375 450.98353c-.752 0-1.4538175.239-2.0234375.64453-.88567.63055-1.4609375 1.67061-1.4609375 2.83985v4.03209c.00003.27537.2226769.4989.4980469.5l4.0097651.008c.27613-.00003.49997-.22387.5-.5l-.007812-6.98931v-.002-.0352c-.001-.27524-.22466-.49793-.5-.49796zm2.515625 0v1h2.508368c1.38452 0 2.484375 1.09985 2.484375 2.48438v9.04771c0 1.38452-1.099855 2.48438-2.484375 2.48438h-5.023993c-1.38452 0-2.484375-1.09986-2.484375-2.48438v-3.51562h-1v3.51562c0 1.92123 1.563145 3.48438 3.484375 3.48438h5.023993c1.92123 0 3.484375-1.56314 3.484375-3.48438v-9.04771c0-1.92123-1.563145-3.48438-3.484375-3.48438z" transform="matrix(100 0 0 100 -599.6372 -44999.17700000001)"/></g></svg>