<svg id="svg1" height="1800" viewBox="0 0 1800 1800" width="1800" xmlns="http://www.w3.org/2000/svg" xmlns:inkscape="http://www.inkscape.org/namespaces/inkscape" xmlns:sodipodi="http://sodipodi.sourceforge.net/DTD/sodipodi-0.dtd"><sodipodi:namedview pagecolor="#303030" showgrid="true"><inkscape:grid id="grid5" units="px" spacingx="100" spacingy="100" color="#4772b3" opacity="0.2" visible="true" /></sodipodi:namedview><g fill="#fff"><g id="g1"><path id="path1" d="m15.508364 450.98329-2.508359.00024v1h2.508359c1.384518 0 2.484375 1.09984 2.484375 2.48437v1.52677h1.000002v-1.527c0-1.92123-1.563149-3.48438-3.484375-3.48438zm-4.00834.00022-1.015644.00002c-.7519988 0-1.4538189.239-2.0234377.64453-.8856682.63055-1.4609375 1.6706-1.4609375 2.83984v4.03209c.00003.27537.2226775.4989.4980469.5l4.0097653.008c.27613-.00003.49997-.22387.5-.5l-.0078-6.98932v-.002-.0352c-.001-.27524-.22466-.49794-.5-.49797zm-4.5000192 9.01648v3.51563c0 1.92123 1.5631486 3.48437 3.4843752 3.48437h5.023984c1.357288 0 2.582661-.87045 3.157608-2.00588l-1.149211-.00026c-.451437.59602-1.193338 1.0066-2.008398 1.0066h-5.023983c-1.3845176 0-2.4843752-1.09984-2.4843752-2.48435v-3.51565z" transform="matrix(100 0 0 100 -599.6372 -44999.17700000001)"/></g><path id="text1" d="m1179.7115 1354.2299h-127.4248l-99.9569-190.2608-102.20585 190.2608h-128.42606l166.0455-293.0658-163.42176-310.37998h131.42461l98.45766 204.37652 98.8326-204.37652h124.8007l-163.7964 306.26768zm520.0311 45.401h-443.08v-105.6194c63.6238-73.4053 142.5751-129.8923 207.2165-201.7214 30.2356-35.6391 51.7253-66.7091 64.4692-93.21004 12.7438-26.50081 19.1158-52.69701 19.1158-78.58865 0-31.06998-8.246-54.98169-24.7381-71.73509-16.2423-17.05804-39.7309-25.58704-70.4663-25.58704-22.9891 0-68.116 15.28054-93.6037 26.85563-39.0848 15.49928-102.1204 49.74497-102.1204 49.74497v-151.23768c17.7416-9.44284 63.5138-24.31024 97.9973-33.75307 34.7334-9.44283 69.4667-14.16426 104.2002-14.16426 69.9664 0 123.3157 17.97186 160.0482 53.91555 36.7325 35.63909 55.0986 86.20394 55.0986 151.69459 0 42.94968-8.8707 83.76707-26.6121 122.45229-17.4916 38.6852-44.3539 78.5886-80.5864 119.7107-22.7391 25.587-45.6033 49.1942-68.5921 70.8213-22.9891 21.3226-39.3562 49.1317-49.1016 57.6607h250.7549z" fill-rule="evenodd" stroke-width="43.3615"/></g></svg>