<svg height="1800" viewBox="0 0 1800 1800" width="1800" xmlns="http://www.w3.org/2000/svg" xmlns:inkscape="http://www.inkscape.org/namespaces/inkscape" xmlns:sodipodi="http://sodipodi.sourceforge.net/DTD/sodipodi-0.dtd"><sodipodi:namedview pagecolor="#303030" showgrid="true"><inkscape:grid id="grid5" units="px" spacingx="100" spacingy="100" color="#4772b3" opacity="0.2" visible="true" /></sodipodi:namedview><g fill="#fff"><path d="m92.484375 451.01563c-.752 0-1.453818.239-2.023438.64453-.88567.63055-1.460937 1.67061-1.460937 2.83985v3.99999c.00003.27537.222677.4989.498047.5l4.009765.008c.27613-.00003.49997-.22387.5-.5l-.007812-6.95721v-.002-.0352c-.001-.27524-.22466-.49793-.5-.49796zm2.515625 0v1h1.515625c1.38452 0 2.484375 1.09985 2.484375 2.48438v9.01561c0 1.38452-1.099855 2.48438-2.484375 2.48438h-4.03125c-1.38452 0-2.484375-1.09986-2.484375-2.48438v-3.51562h-1v3.51562c0 1.92123 1.563145 3.48438 3.484375 3.48438h4.03125c1.92123 0 3.484375-1.56314 3.484375-3.48438v-9.01561c0-1.92123-1.563145-3.48438-3.484375-3.48438zm6.47656.006c-.44785.0182-.64741.57103-.31445.8711.58809.54453.8418 1.0856.8418 1.60156l-.00391 6.00571c-.01.67616 1.00956.67616 1 0l.004-6.00586c0-.8509-.43179-1.65971-1.16211-2.33594-.0982-.0931-.23001-.14246-.36524-.13672zm3.01563 2.01563c-.27537.004-.49542.23047-.49219.50586v4.05859c-.01.67616 1.00956.67616 1 0v-4.05859c.003-.2815-.22632-.51025-.50781-.50586z" transform="matrix(100 0 0 100 -8800.0033 -45000.7815)"/></g></svg>