<svg id="svg1" height="1800" viewBox="0 0 1800 1800" width="1800" xmlns="http://www.w3.org/2000/svg" xmlns:inkscape="http://www.inkscape.org/namespaces/inkscape" xmlns:sodipodi="http://sodipodi.sourceforge.net/DTD/sodipodi-0.dtd"><sodipodi:namedview pagecolor="#303030" showgrid="true"><inkscape:grid id="grid5" units="px" spacingx="100" spacingy="100" color="#4772b3" opacity="0.2" visible="true" /></sodipodi:namedview><g id="g1" fill="#fff"><path id="path1" d="m31.484375 450.99458c-1.92123 0-3.484375 1.56315-3.484375 3.48438v9.03666c0 1.92123 1.563145 3.48438 3.484375 3.48438h5.082348c1.92123 0 3.484375-1.56315 3.484375-3.48438v-9.03666c0-1.92123-1.563145-3.48438-3.484375-3.48438zm0 1h5.082348c1.38453 0 2.484375 1.09985 2.484375 2.48438v9.03666c0 1.38453-1.099845 2.48438-2.484375 2.48438h-5.082348c-1.38453 0-2.484375-1.09985-2.484375-2.48438v-9.03666c0-1.38453 1.099845-2.48438 2.484375-2.48438zm1.5625 1c-.57133 0-1.046875.47555-1.046875 1.04688v4.91166c0 .57133.475545 1.04688 1.046875 1.04688h1.973036c.57133 0 1.046875-.47555 1.046875-1.04688v-4.91166c0-.57133-.475545-1.04688-1.046875-1.04688z" transform="matrix(99.598235 0 0 100 -2688.8846 -44999.729)"/></g></svg>