<svg id="svg1" height="1800" viewBox="0 0 1800 1800" width="1800" xmlns="http://www.w3.org/2000/svg" xmlns:inkscape="http://www.inkscape.org/namespaces/inkscape" xmlns:sodipodi="http://sodipodi.sourceforge.net/DTD/sodipodi-0.dtd"><sodipodi:namedview pagecolor="#303030" showgrid="true"><inkscape:grid id="grid5" units="px" spacingx="100" spacingy="100" color="#4772b3" opacity="0.2" visible="true" /></sodipodi:namedview><g fill="#fff"><g id="g1"><path id="path1" d="m57.512484 450.98438c.752 0 1.453818.239 2.023438.64453.88567.63055 1.460937 1.67061 1.460937 2.83985v4.03124c-.00003.27537-.222677.4989-.498047.5l-4.009765.008c-.27613-.00003-.49997-.22387-.5-.5l.0078-6.98846v-.002-.0352c.001-.27524.22466-.49793.5-.49796zm-2.515625 0v1h-2.512484c-1.38452 0-2.484375 1.09985-2.484375 2.48438v9.04686c0 1.38452 1.099855 2.48438 2.484375 2.48438h5.028109c1.38452 0 2.484375-1.09986 2.484375-2.48438v-3.51562h1v3.51562c0 1.92123-1.563145 3.48438-3.484375 3.48438h-5.028109c-1.92123 0-3.484375-1.56314-3.484375-3.48438v-9.04686c0-1.92123 1.563145-3.48438 3.484375-3.48438z" transform="matrix(100 0 0 100 -4799.843 -44999.219)"/></g><path id="path1-4" d="m1347.6666 101.46971c-44.785 1.82001-64.741 57.10305-31.445 87.11005 58.809 54.453 84.18 108.56 84.18 160.156l-.391 600.571c-1 67.61594 100.956 67.61594 100 0l.4-600.586c0-85.09-43.179-165.971-116.211-233.594-9.82-9.31002-23.001-14.24606-36.524-13.67205zm301.563 201.56305c-27.537.4-49.542 23.047-49.219 50.586v405.859c-1 67.616 100.956 67.616 100 0v-405.859c.3-28.15-22.632-51.025-50.781-50.586z" stroke-width="100"/></g></svg>