<svg id="svg1" height="1800" viewBox="0 0 1800 1800" width="1800" xmlns="http://www.w3.org/2000/svg" xmlns:inkscape="http://www.inkscape.org/namespaces/inkscape" xmlns:sodipodi="http://sodipodi.sourceforge.net/DTD/sodipodi-0.dtd"><sodipodi:namedview pagecolor="#303030" showgrid="true"><inkscape:grid id="grid5" units="px" spacingx="100" spacingy="100" color="#4772b3" opacity="0.2" visible="true" /></sodipodi:namedview><g fill="#fff"><path id="path1-0" d="m1347.9272 100.2289c-44.785 1.82-64.741 57.103-31.445 87.11 58.809 54.453 84.18 108.56 84.18 160.156l-.391 601.94086c-1 67.61594 100.6792 67.61594 99.7232 0l.4-601.95586c0-85.09-42.9022-165.971-115.9342-233.594-9.82-9.31-23.001-14.245998-36.524-13.672zm301.563 200.17924c-27.537.4-49.542 23.047-49.219 50.586v398.10992c-1 67.616 100.8176 67.616 99.8616 0v-398.10992c.3-28.15-22.4936-51.025-50.6426-50.586z" stroke-width="100"/><path id="path1" d="m10.484375 450.98353c-.752 0-1.4538175.239-2.0234375.64453-.88567.63055-1.4609375 1.67061-1.4609375 2.83985v4.03209c.00003.27537.2226769.4989.4980469.5l4.0097651.008c.27613-.00003.49997-.22387.5-.5l-.007812-6.98931v-.002-.0352c-.001-.27524-.22466-.49793-.5-.49796zm2.515625 0v1h2.508368c1.38452 0 2.484375 1.09985 2.484375 2.48438v9.04771c0 1.38452-1.099855 2.48438-2.484375 2.48438h-5.023993c-1.38452 0-2.484375-1.09986-2.484375-2.48438v-3.51562h-1v3.51562c0 1.92123 1.563145 3.48438 3.484375 3.48438h5.023993c1.92123 0 3.484375-1.56314 3.484375-3.48438v-9.04771c0-1.92123-1.563145-3.48438-3.484375-3.48438z" transform="matrix(100 0 0 100 -599.6372 -44999.17700000001)"/></g></svg>