<svg height="1400" viewBox="0 0 1400 1400" width="1400" xmlns="http://www.w3.org/2000/svg" xmlns:inkscape="http://www.inkscape.org/namespaces/inkscape" xmlns:sodipodi="http://sodipodi.sourceforge.net/DTD/sodipodi-0.dtd"><sodipodi:namedview pagecolor="#303030" showgrid="true"><inkscape:grid id="grid5" units="px" spacingx="100" spacingy="100" color="#4772b3" opacity="0.2" visible="true" /></sodipodi:namedview><g fill="#fff"><g enable-background="new" transform="translate(-233 -365)"><path d="m1028 1556c-3.2833 0-6 2.4414-6 5.5 0 1.7056.9046 3.146 2.1523 4.3594l.9942.9941a.50004997.50004997 0 0 0 .3027.1485.50004997.50004997 0 0 0 .051.998h5a.50004997.50004997 0 0 0 .045-.998.50004997.50004997 0 0 0 .3086-.1485l.9981-.998c1.2122-1.1985 2.1465-2.6518 2.1465-4.3535 0-3.0586-2.7167-5.5-6-5.5zm0 1c2.7919 0 5 2.0358 5 4.5 0 1.3342-.7428 2.5488-1.8516 3.6445l-1 1a.50004997.50004997 0 0 0 .2793.8535h-4.8594a.50004997.50004997 0 0 0 .2871-.8535l-1-1a.50004997.50004997 0 0 0 -.01-.01c-1.1397-1.1082-1.8477-2.2864-1.8477-3.6406 0-2.4642 2.2081-4.5 5-4.5zm-2.5 12a.50004997.50004997 0 1 0 0 1h1.5v.5a.50004997.50004997 0 0 0 .5.5h1a.50004997.50004997 0 0 0 .5-.5v-.5h1.5a.50004997.50004997 0 1 0 0-1z"/><path d="m1025.4902 1561.0059a.50005.50005 0 0 0 -.3437.8476l.8535.8535v1.543a.50005.50005 0 1 0 1 0v-1.25h2v1.25a.50005.50005 0 1 0 1 0v-1.543l.8535-.8535a.50005.50005 0 0 0 -.707-.707l-.8535.8535h-2.586l-.8535-.8535a.50005.50005 0 0 0 -.3633-.1406z" opacity=".6"/></g><path d="m164.50781 224a.50004997.50004997 0 0 1 .43164.27148c1.44011 2.71955 1.43779 6.74164-.008 9.45899a.50022794.50022794 0 1 1 -.88281-.4707c1.24398-2.33836 1.24519-6.17912.006-8.51954a.50004997.50004997 0 0 1 .45317-.74023zm-1.99609 1.99805a.50004997.50004997 0 0 1 .49219.50586v4.99218a.50004997.50004997 0 1 1 -1 0v-4.99218a.50004997.50004997 0 0 1 .50781-.50586zm-3.26172-2.99805c-.1326.00002-.25976.0527-.35352.14648l-2.85351 2.85352h-1.54297c-.27613.00003-.49997.22387-.5.5v5c.00003.27613.22387.49997.5.5h1.54297l2.85351 2.85352c.0938.0938.22092.14646.35352.14648h.25c.27613-.00003.49997-.22387.5-.5v-10.71875-.28125c-.00003-.27613-.22387-.49997-.5-.5z" transform="matrix(100 0 0 100 -15300.883 -22200)"/></g></svg>