<svg height="1400" viewBox="0 0 1400 1400" width="1400" xmlns="http://www.w3.org/2000/svg" xmlns:inkscape="http://www.inkscape.org/namespaces/inkscape" xmlns:sodipodi="http://sodipodi.sourceforge.net/DTD/sodipodi-0.dtd"><sodipodi:namedview pagecolor="#303030" showgrid="true"><inkscape:grid id="grid5" units="px" spacingx="100" spacingy="100" color="#4772b3" opacity="0.2" visible="true" /></sodipodi:namedview><g fill="#fff"><path d="m164.50781 224a.50004997.50004997 0 0 1 .43164.27148c1.44011 2.71955 1.43779 6.74164-.008 9.45899a.50022794.50022794 0 1 1 -.88281-.4707c1.24398-2.33836 1.24519-6.17912.006-8.51954a.50004997.50004997 0 0 1 .45317-.74023zm-1.99609 1.99805a.50004997.50004997 0 0 1 .49219.50586v4.99218a.50004997.50004997 0 1 1 -1 0v-4.99218a.50004997.50004997 0 0 1 .50781-.50586zm-3.26172-2.99805c-.1326.00002-.25976.0527-.35352.14648l-2.85351 2.85352h-1.54297c-.27613.00003-.49997.22387-.5.5v5c.00003.27613.22387.49997.5.5h1.54297l2.85351 2.85352c.0938.0938.22092.14646.35352.14648h.25c.27613-.00003.49997-.22387.5-.5v-10.71875-.28125c-.00003-.27613-.22387-.49997-.5-.5z" transform="matrix(100 0 0 100 -15300.883 -22200)"/></g></svg>