<svg height="1400" viewBox="0 0 900 1400" width="900" xmlns="http://www.w3.org/2000/svg" xmlns:inkscape="http://www.inkscape.org/namespaces/inkscape" xmlns:sodipodi="http://sodipodi.sourceforge.net/DTD/sodipodi-0.dtd"><sodipodi:namedview pagecolor="#303030" showgrid="true"><inkscape:grid id="grid5" units="px" spacingx="100" spacingy="100" color="#4772b3" opacity="0.2" visible="true" /></sodipodi:namedview><g fill="#fff"><path d="m453.5 222a.50005.50005 0 0 0 -.35352.14648l-2.85351 2.85352h-1.79297a.50005.50005 0 0 0 -.5.5v5a.50005.50005 0 0 0 .5.5h1.79297l2.85351 2.85352a.50005.50005 0 0 0 .35352.14648h1a.50005.50005 0 0 0 .5-.5v-10.71875-.28125a.50005.50005 0 0 0 -.5-.5zm.20703 1h.29297v10h-.29297l-2.85351-2.85352a.50005.50005 0 0 0 -.35352-.14648h-1.5v-4h1.5a.50005.50005 0 0 0 .35352-.14648z" opacity=".6" transform="matrix(100 0 0 100 -44700 -22100)"/></g></svg>