<svg height="1700" viewBox="0 0 1600 1700" width="1600" xmlns="http://www.w3.org/2000/svg" xmlns:inkscape="http://www.inkscape.org/namespaces/inkscape" xmlns:sodipodi="http://sodipodi.sourceforge.net/DTD/sodipodi-0.dtd"><sodipodi:namedview pagecolor="#303030" showgrid="true"><inkscape:grid id="grid5" units="px" spacingx="100" spacingy="100" color="#4772b3" opacity="0.2" visible="true" /></sodipodi:namedview><g fill="#fff"><g enable-background="new"><path d="m543.5 33c-.8225 0-1.5.677492-1.5 1.5 0 .230167.0579.446791.15234.642578a.50005.50005 0 0 0 -.006.0039l-1.85337 1.853522h-.79297a.50005.50005 0 1 0 0 1h1a.50005.50005 0 0 0 .35352-.146484l2-2a.50005.50005 0 0 0 .004-.0059c.19569.094478.41232.152384.64248.152384.8225 0 1.5-.677492 1.5-1.5s-.6775-1.5-1.5-1.5zm0 1c.28206 0 .5.217938.5.5s-.21794.5-.5.5-.5-.217938-.5-.5.21794-.5.5-.5zm0 5c-.64684 0-1.19777.420971-1.40625 1h-2.59375a.50005.50005 0 1 0 0 1h2.59375c.20848.579029.75941 1 1.40625 1 .8225 0 1.5-.677492 1.5-1.5s-.6775-1.5-1.5-1.5zm0 1c.28206 0 .5.217938.5.5s-.21794.5-.5.5-.5-.217938-.5-.5.21794-.5.5-.5zm-4 2.992188a.50005.50005 0 1 0 0 1h.79297l1.85351 1.853515a.50005.50005 0 0 0 .008.0078c-.09582.196806-.15448.414779-.15448.646497 0 .822508.6775 1.5 1.5 1.5s1.5-.677492 1.5-1.5-.6775-1.5-1.5-1.5c-.22767 0-.44256.05591-.63672.148438a.50005.50005 0 0 0 -.01-.0098l-2-2a.50005.50005 0 0 0 -.35328-.14645zm4 3.007812c.28206 0 .5.217938.5.5s-.21794.5-.5.5-.5-.217938-.5-.5.21794-.5.5-.5z" transform="matrix(100 0 0 100 -52999.99999999999 -3200)"/><path d="m616 85h1v.999999h-1zm-2 0h1v.999999h-1zm-.46289-8c-.84275 0-1.53711.694362-1.53711 1.537109v7.925782c0 .842747.69436 1.537109 1.53711 1.537109h5.92578c.73741 0 1.36143-.531036 1.50586-1.228516.0206-.09964.0312-.20325.0312-.308593v-7.925782c.00005-.842747-.69431-1.537109-1.53706-1.537109zm0 7h5.92578c.30605 0 .53711.231065.53711.537109v1.925782c0 .306044-.23106.537109-.53711.537109h-5.92578c-.30605 0-.53711-.231065-.53711-.537109v-1.925782c0-.306044.23106-.537109.53711-.537109z" transform="matrix(100 0 0 100 -61099.99999999999 -7300)"/></g></g></svg>