<svg height="1600" viewBox="0 0 1500 1600" width="1500" xmlns="http://www.w3.org/2000/svg" xmlns:inkscape="http://www.inkscape.org/namespaces/inkscape" xmlns:sodipodi="http://sodipodi.sourceforge.net/DTD/sodipodi-0.dtd"><sodipodi:namedview pagecolor="#303030" showgrid="true"><inkscape:grid id="grid5" units="px" spacingx="100" spacingy="100" color="#4772b3" opacity="0.2" visible="true" /></sodipodi:namedview><g fill="#fff"><g enable-background="new" transform="matrix(7.142518 0 0 7.29198 -16627.317 2856.22)"><path d="m2506.2815-377.92073c-5.52.36326-8.7584 3.47967-8.7584 8.43246 0 4.43345 3.2458 8.13054 7.4769 8.85937v13.6289c0 9.91268-7.251 17.99291-17 18l-15.3901.0264v2.96484h15.3901c11.4103-.008 20.0341-9.52115 20.0341-20.99121v-13.6289c4.2339-.72648 7.4827-4.42393 7.4827-8.85937 0-4.95279-3.4428-8.31926-9.2353-8.43249zm.406 2.98323c3.3303 0 5.8304 2.11776 5.8304 5.44923s-2.6676 6-5.9979 6c-3.3304 0-5.9979-2.66853-5.9979-6s2.835-5.44923 6.1654-5.44923zm8.3125 71.9375c-4.4432-.00001-8.6177 3.4839-9 7h-34l1 4h33c.7202 4.24251 4.561 7.00001 9 7 4.9511.00001 9-4.04722 9-9 0-4.95279-4.0489-9.00001-9-9zm0 3c3.3304 0 6 2.66853 6 6 0 3.33146-2.6696 6-6 6-3.3303 0-6-2.66854-6-6 0-3.33147 2.6697-6 6-6zm-42 37v4h15c9.749.007 17 8.08732 17 18v13c-4.2311.72882-7.0144 4.57086-7.0144 9.00433 0 4.9528 4.0457 9.00001 8.9969 8.99999 4.9511.00002 8.9968-4.04719 8.9968-8.99999 0-4.43545-2.7454-8.27785-6.9793-9.00433v-14c0-11.47007-9.5897-20.99166-21-21zm33.9825 38.00433c3.3303 0 5.9979 2.66852 5.9979 6s-2.6676 6-5.9979 6c-3.3304 0-5.9979-2.66852-5.9979-6s2.6675-6 5.9979-6z"/><g enable-background="new" stroke-width=".123097" transform="matrix(12.319682 0 0 12.172353 -5203.9739 -996.3403)"><path d="m613.67414 61.612633h8.65173c.57439 0 1.03681.46242 1.03681 1.036815v2.762566c0 .574395-.46242 1.036815-1.03681 1.036815h-8.65173c-.57439 0-1.03681-.46242-1.03681-1.036815v-2.762566c0-.574395.46242-1.036815 1.03681-1.036815z" opacity=".2"/><path d="m145.24609-711c-5.67681-.01185-10.24609 4.5175-10.24609 10.12891v78c0-5.61141 4.56928-10.14076 10.24609-10.12891l85.17749.17786c5.67681.0118 10.24609 4.5175 10.24609 10.12891v-78c0-5.61141-4.56928-10.11706-10.24609-10.12891l-42.58875-.0889z" transform="matrix(.10118267 0 0 .10236222 598.97766 126.33073)"/><path d="m717.48242 42.996094c-5.24135 0-9.49414 4.190752-9.49414 9.355468v65.017578 22.26953c0 5.16472 4.25279 9.35547 9.49414 9.35547h70.02539c5.24136 0 9.49414-4.19075 9.49414-9.35547v-22.26953-65.017578c0-5.164716-4.25278-9.355468-9.49414-9.355468zm0 1.984375h70.02539c4.15996 0 7.48047 3.271903 7.48047 7.371093v59.269528c-1.73801-2.19271-4.43984-3.60742-7.48047-3.60742h-70.02539c-3.04062 0-5.74244 1.41471-7.48047 3.60742v-59.269528c0-4.09919 3.32052-7.371093 7.48047-7.371093zm0 65.017581h70.02539c4.15996 0 6.83699 3.09748 6.83699 7.19666v21.86209c-.00001 4.09919-3.14714 7.28737-7.3071 7.28737h-69.08523c-4.15995 0-7.3071-3.18818-7.30709-7.28737v-21.86209c0-4.09918 2.67709-7.19666 6.83704-7.19666z" transform="matrix(.12219364 0 0 .1240074 526.00203 48.095825)"/><g stroke-width=".123097" transform="matrix(-1 0 0 1 1235.8994 0)"><path d="m613.88871 62.499042c-.23599 0-.42773.193143-.42773.429687v.0098c0 .236544.19174.429687.42773.429687s.42774-.193143.42774-.429687v-.0098c0-.236544-.19175-.429687-.42774-.429687z"/><path d="m613.40672 62.503836c-.0633.0071-.11074.06131-.10937.125v2.851562c0 .165367.24805.165367.24805 0v-2.851562c.002-.07532-.0639-.13455-.13868-.125zm.64937.000003c-.0633.0071-.11074.06131-.10937.125v2.851562c-.005.169458.25158.169458.24609 0v-2.851562c.002-.07444-.0627-.133249-.13672-.125zm.64936.000003c-.0633.0071-.11074.06131-.10937.125v2.851562c-.005.169458.25158.169458.24609 0v-2.851562c.002-.07444-.0627-.133249-.13672-.125zm.64938.000003c-.0633.0071-.11075.06131-.10938.125v2.851562c-.005.169248.25136.169248.2461 0v-2.851562c.002-.07444-.0627-.133249-.13672-.125zm.64937-.000009c-.0633.0071-.11075.06131-.10938.125v2.851562c-.005.169248.25136.169248.2461 0v-2.851562c.002-.07444-.0627-.133249-.13672-.125z" transform="translate(6.273326)"/></g></g></g></g></svg>