<?xml version="1.0" encoding="UTF-8" standalone="no"?>
<svg
   id="svg3"
   height="1700"
   viewBox="0 0 1600 1700"
   width="1600"
   version="1.1"
   xmlns="http://www.w3.org/2000/svg"
   xmlns:svg="http://www.w3.org/2000/svg" xmlns:inkscape="http://www.inkscape.org/namespaces/inkscape" xmlns:sodipodi="http://sodipodi.sourceforge.net/DTD/sodipodi-0.dtd"><sodipodi:namedview pagecolor="#303030" showgrid="true"><inkscape:grid id="grid5" units="px" spacingx="100" spacingy="100" color="#4772b3" opacity="0.2" visible="true" /></sodipodi:namedview>
  <defs
     id="defs1" />
  <g
     id="g1">
    <path
       id="path1"
       d="m543.5 33c-.8225 0-1.5.677493-1.5 1.5 0 .230167.0579.446791.15234.642578a.50005.50005 0 0 0 -.00599.003906l-1.85338 1.853516h-.39303c-.22012-.581115-.78308-1-1.43705-1h-5.92578c-.84275 0-1.53711.694363-1.53711 1.537109v7.925782c0 .842746.69436 1.537109 1.53711 1.537109h5.92578c.73741 0 1.36143-.531036 1.50586-1.228516.0206-.09964.03119-.20325.03119-.308593v-1.470703h.29303l1.85351 1.853515a.50005.50005 0 0 0 .00799.007793c-.09582.196806-.15447.414786-.15447.646504 0 .822507.6775 1.5 1.5 1.5s1.5-.677493 1.5-1.5-.6775-1.5-1.5-1.5c-.22767 0-.44256.05591-.63672.148438a.50005.50005 0 0 0 -.01-.009805l-2-2a.50005.50005 0 0 0 -.35328-.146445h-.50006v-1.992188h2.09381c.20848.579028.75941 1 1.40625 1 .8225 0 1.5-.677493 1.5-1.5s-.6775-1.5-1.5-1.5c-.64684 0-1.19777.420972-1.40625 1h-2.09381v-2h.50006a.50005.50005 0 0 0 .35352-.146484l2-2a.50005.50005 0 0 0 .004-.005899c.19569.094478.41232.152383.64248.152383.8225 0 1.5-.677493 1.5-1.5s-.6775-1.5-1.5-1.5zm0 1c.28206 0 .5.217938.5.5s-.21794.5-.5.5-.5-.217938-.5-.5.21794-.5.5-.5zm0 6c.28206 0 .5.217938.5.5s-.21794.5-.5.5-.5-.217938-.5-.5.21794-.5.5-.5zm-10.96289 3h5.92578c.30605 0 .53711.231066.53711.537109v1.925782c0 .306043-.23106.537109-.53711.537109h-5.92578c-.30605 0-.53711-.231066-.53711-.537109v-1.925782c0-.306043.23106-.537109.53711-.537109zm.46289 1v1h1v-1zm2 0v1h1v-1zm8.5 2c.28206 0 .5.217938.5.5s-.21794.5-.5.5-.5-.217938-.5-.5.21794-.5.5-.5z"
       fill="#fff"
       transform="matrix(100 0 0 100 -53000 -3200)" />
  </g>
</svg>
