<svg height="1600" viewBox="0 0 1700 1600" width="1700" xmlns="http://www.w3.org/2000/svg" xmlns:inkscape="http://www.inkscape.org/namespaces/inkscape" xmlns:sodipodi="http://sodipodi.sourceforge.net/DTD/sodipodi-0.dtd"><sodipodi:namedview pagecolor="#303030" showgrid="true"><inkscape:grid id="grid5" units="px" spacingx="100" spacingy="100" color="#4772b3" opacity="0.2" visible="true" /></sodipodi:namedview><g fill="#fff"><g enable-background="new" transform="matrix(100 0 0 100 -29900 -7300)"><path d="m300.5 76c-.27613.000028-.49997.223869-.5.5v11c.00003.27613.22387.49997.5.5h12c.27613-.00003.49997-.22387.5-.5v-5.558594c-.31959.108004-.65516.175732-1 .212891v4.845703h-11v-7c2.01109.01725 4.25811.0051 6.54102 0-.37613-.591554-.61026-1.271947-.68946-2h-2.85156v-1.5c-.00003-.276131-.22387-.499972-.5-.5z" opacity=".6"/><path d="m311.5 74c-1.933 0-3.5 1.567-3.5 3.5s1.567 3.5 3.5 3.5 3.5-1.567 3.5-3.5-1.567-3.5-3.5-3.5zm-.5 1h1v2h2v1h-2v2h-1v-2h-2v-1h2z"/></g></g></svg>