<svg id="svg5" height="1600" viewBox="0 0 1600 1600" width="1600" xmlns="http://www.w3.org/2000/svg" xmlns:inkscape="http://www.inkscape.org/namespaces/inkscape" xmlns:sodipodi="http://sodipodi.sourceforge.net/DTD/sodipodi-0.dtd"><sodipodi:namedview pagecolor="#303030" showgrid="true"><inkscape:grid id="grid5" units="px" spacingx="100" spacingy="100" color="#4772b3" opacity="0.2" visible="true" /></sodipodi:namedview><g fill="#fff" transform="matrix(100 0 0 100 -77299.976 -28300)"><path id="path2" d="m775.46875 284c-.80504 0-1.46875.66371-1.46875 1.46875v11.0625c0 .80504.66371 1.46875 1.46875 1.46875h8.0625c.80504 0 1.46875-.66371 1.46875-1.46875v-.58203c-1.68181-.24823-3-1.70468-3-3.44922s1.31819-3.20099 3-3.44922v-3.58203c0-.80504-.66371-1.46875-1.46875-1.46875zm-.46875 1h9v3h-9z"/><path id="path3" d="m785.5 295c-1.37479 0-2.5-1.12521-2.5-2.5s1.12521-2.5 2.5-2.5 2.5 1.12521 2.5 2.5-1.12521 2.5-2.5 2.5z" opacity=".6"/></g></svg>