<?xml version="1.0" encoding="UTF-8" standalone="no"?>
<svg
   height="1600"
   viewBox="0 0 1600 1600"
   width="1600"
   version="1.1"
   id="svg3"
   xmlns="http://www.w3.org/2000/svg"
   xmlns:svg="http://www.w3.org/2000/svg">
  <defs
     id="defs3" />
  <g
     enable-background="new"
     transform="matrix(100,0,0,100,-8900,-32499.241)"
     id="g2"
     style="fill:#ffffff">
    <path
       d="m 91.25,334.00465 c -0.683851,0 -1.25,0.56615 -1.25,1.25 v 3.5 c 0,0.68385 0.566149,1.25 1.25,1.25 h 3.5 c 0.683851,0 1.25,-0.56615 1.25,-1.25 v -3.5 c 0,-0.68385 -0.566149,-1.25 -1.25,-1.25 z m 8,0 c -0.683851,0 -1.25,0.56615 -1.25,1.25 v 3.5 c 0,0.68385 0.566149,1.25 1.25,1.25 h 3.5 c 0.68385,0 1.25,-0.56615 1.25,-1.25 v -3.5 c 0,-0.68385 -0.56615,-1.25 -1.25,-1.25 z m -7.75,4 h 2 1 a 0.50005,0.50005 0 1 1 0,1 h -1 -2 a 0.50005,0.50005 0 1 1 0,-1 z m 8,0 h 2 1 a 0.50005,0.50005 0 1 1 0,1 h -1 -2 a 0.50005,0.50005 0 1 1 0,-1 z"
       id="path2"
       style="opacity:1;fill:#ffffff" />
    <path
       id="path2-4"
       d="m 92.535504,326.97604 c -0.1267,-0.006 -0.260466,0.0401 -0.378281,0.16276 l -1.957031,1.95705 c -0.26095,0.19951 -0.261932,0.59213 -0.002,0.79295 0.002,10e-4 0.004,0.003 0.006,0.004 l 1.953125,1.95313 c 0.47126,0.49057 1.1976,-0.23578 0.707031,-0.70704 l -1.146484,-1.14658 10.531556,1e-4 -1.14648,1.14648 c -0.49057,0.47126 0.23575,1.19761 0.70701,0.70704 l 1.95705,-1.95704 c 0.26095,-0.19951 0.26193,-0.59214 0.002,-0.79296 -0.002,-0.001 -0.004,-0.003 -0.006,-0.004 l -1.95313,-1.95312 c -0.47126,-0.49057 -1.1976,0.23579 -0.70703,0.70705 l 1.14649,1.14656 -10.531564,-10e-5 1.146484,-1.14646 c 0.367927,-0.35345 0.05135,-0.85039 -0.32875,-0.86981 z" />
  </g>
</svg>
