<svg height="1600" viewBox="0 0 1600 1600" width="1600" xmlns="http://www.w3.org/2000/svg" xmlns:inkscape="http://www.inkscape.org/namespaces/inkscape" xmlns:sodipodi="http://sodipodi.sourceforge.net/DTD/sodipodi-0.dtd"><sodipodi:namedview pagecolor="#303030" showgrid="true"><inkscape:grid id="grid5" units="px" spacingx="100" spacingy="100" color="#4772b3" opacity="0.2" visible="true" /></sodipodi:namedview><g fill="#fff"><g enable-background="new" fill-rule="evenodd" transform="matrix(100 0 0 100 -44599.997 -53499.99)"><path d="m451.5 536a.50005.50005 0 0 0 -.5.5v9a.50005.50005 0 0 0 .5.5h9a.50005.50005 0 0 0 .5-.5v-9a.50005.50005 0 0 0 -.5-.5zm.5 1h8v8h-8z"/><path d="m449.49219 537.99219a.50005.50005 0 0 0 -.49219.50781v9a.50005.50005 0 0 0 .5.5h9a.50005.50005 0 1 0 0-1h-8.5v-8.5a.50005.50005 0 0 0 -.50781-.50781zm-2 2a.50005.50005 0 0 0 -.49219.50781v9a.50005.50005 0 0 0 .5.5h9a.50005.50005 0 1 0 0-1h-8.5v-8.5a.50005.50005 0 0 0 -.50781-.50781z" opacity=".6"/><path d="m460.48438 536c-.12717.004-.248.0564-.3379.14648l-9 9c-.31479.315-.0918.85335.35352.85352h9c.27613-.00003.49997-.22387.5-.5v-9c.00011-.28235-.23341-.50879-.51562-.5z"/></g></g></svg>