<?xml version="1.0" encoding="UTF-8" standalone="no"?>
<svg
   height="1600"
   viewBox="0 0 1600 1600"
   width="1600"
   version="1.1"
   id="svg3"
   xmlns="http://www.w3.org/2000/svg"
   xmlns:svg="http://www.w3.org/2000/svg">
  <defs
     id="defs3" />
  <g
     fill="#fff"
     id="g3">
    <path
       d="m 91.25,334 c -0.683851,0 -1.25,0.56615 -1.25,1.25 v 3.5 c 0,0.68385 0.566149,1.25 1.25,1.25 h 3.5 c 0.683851,0 1.25,-0.56615 1.25,-1.25 v -3.5 C 96,334.56615 95.433851,334 94.75,334 Z m 8,0 c -0.683851,0 -1.25,0.56615 -1.25,1.25 v 3.5 c 0,0.68385 0.566149,1.25 1.25,1.25 h 3.5 c 0.68385,0 1.25,-0.56615 1.25,-1.25 v -3.5 c 0,-0.68385 -0.56615,-1.25 -1.25,-1.25 z m -7.75,4 h 2 1 a 0.50005,0.50005 0 1 1 0,1 h -1 -2 a 0.50005,0.50005 0 1 1 0,-1 z m 8,0 h 2 1 a 0.50005,0.50005 0 1 1 0,1 h -1 -2 a 0.50005,0.50005 0 1 1 0,-1 z"
       id="path2"
       style="fill:#ffffff;opacity:1"
       transform="matrix(100,0,0,100,-8900,-32498.776)" />
    <path
       id="path2-9"
       style="fill:#ffffff;opacity:0.6"
       d="M 93.546035 326.98288 C 93.419335 326.97688 93.28559 327.02298 93.167773 327.14563 L 91.210742 329.10268 C 90.949792 329.30219 90.948806 329.69481 91.20875 329.89563 C 91.21075 329.89663 91.212746 329.89864 91.214746 329.89964 L 93.167871 331.85274 C 93.639134 332.34331 94.365492 331.61699 93.874922 331.14573 L 92.728418 329.99915 L 92.728848 329.99915 L 92.228594 329.49887 L 92.72832 328.99915 L 92.72834 328.99915 L 93.436387 328.29108 L 93.874805 327.85266 C 94.242735 327.49921 93.926105 327.0023 93.546055 326.98288 L 93.546035 326.98288 z M 100.45387 326.9829 C 100.07376 327.00231 99.757167 327.49924 100.1251 327.85268 L 101.2716 328.99926 L 101.27117 328.99926 L 101.77143 329.49952 L 101.2717 329.99926 L 101.27168 329.99926 L 100.56363 330.70731 L 100.12521 331.14573 C 99.757288 331.49918 100.07391 331.99611 100.45396 332.01553 L 100.45398 332.01551 C 100.58068 332.02151 100.71443 331.97543 100.83225 331.85278 L 102.78928 329.89573 C 103.05023 329.69622 103.05121 329.3036 102.79127 329.10278 C 102.78927 329.10178 102.78727 329.09978 102.78527 329.09878 L 100.83215 327.14565 C 100.71433 327.02301 100.58057 326.97643 100.45387 326.9829 z M 99.491855 328.98098 C 98.815694 328.97098 98.815694 329.99054 99.491855 329.98098 L 99.990137 329.98098 C 100.66629 329.99098 100.66629 328.97141 99.990137 328.98098 L 99.491855 328.98098 z M 93.98291 328.99919 C 93.306749 328.98919 93.306749 330.00875 93.98291 329.99919 L 94.5 329.99919 C 95.176161 330.00919 95.176161 328.98963 94.5 328.99919 L 93.98291 328.99919 z M 96.5 328.99919 C 95.823839 328.98919 95.823839 330.00875 96.5 329.99919 L 97.5 329.99919 C 98.176161 330.00919 98.176161 328.98963 97.5 328.99919 L 96.5 328.99919 z "
       transform="matrix(100,0,0,100,-8900,-32498.776)" />
  </g>
</svg>
