<svg id="svg5" height="1600" viewBox="0 0 1600 1600" width="1600" xmlns="http://www.w3.org/2000/svg" xmlns:inkscape="http://www.inkscape.org/namespaces/inkscape" xmlns:sodipodi="http://sodipodi.sourceforge.net/DTD/sodipodi-0.dtd"><sodipodi:namedview pagecolor="#303030" showgrid="true"><inkscape:grid id="grid5" units="px" spacingx="100" spacingy="100" color="#4772b3" opacity="0.2" visible="true" /></sodipodi:namedview><g fill="#fff" transform="matrix(100 0 0 100 -79399.976 -28300)"><path id="path2" d="m797 284c-1.09935 0-2 .90065-2 2v2 8c0 1.09935.90065 2 2 2h7c1.09935 0 2-.90065 2-2v-.5c.01-.67616-1.00956-.67616-1 0v.5c0 .56265-.43735 1-1 1h-7c-.56265 0-1-.43735-1-1v-8h10v-2c0-1.09935-.90065-2-2-2z"/><path id="path3" d="m806.5 294c-1.37479 0-2.5-1.12521-2.5-2.5s1.12521-2.5 2.5-2.5 2.5 1.12521 2.5 2.5-1.12521 2.5-2.5 2.5z" opacity=".6"/></g></svg>