<svg height="1600" viewBox="0 0 1600 1600" width="1600" xmlns="http://www.w3.org/2000/svg" xmlns:inkscape="http://www.inkscape.org/namespaces/inkscape" xmlns:sodipodi="http://sodipodi.sourceforge.net/DTD/sodipodi-0.dtd"><sodipodi:namedview pagecolor="#303030" showgrid="true"><inkscape:grid id="grid5" units="px" spacingx="100" spacingy="100" color="#4772b3" opacity="0.2" visible="true" /></sodipodi:namedview><g fill="#fff"><g enable-background="new" opacity=".4" transform="matrix(100 0 0 100 -8900 -32499.241)"><path d="m92.496094 325.99414a.50005.50005 0 0 0 -.382813.82227l4.5 5.5a.50005.50005 0 0 0 .773438 0l4.500001-5.5a.50005.50005 0 1 0 -.77344-.63282l-4.11328 5.02735-4.113281-5.02735a.50005.50005 0 0 0 -.390625-.18945z" opacity="1"/><path d="m91.25 334c-.683851 0-1.25.56615-1.25 1.25v3.5c0 .68385.566149 1.25 1.25 1.25h3.5c.683851 0 1.25-.56615 1.25-1.25v-3.5c0-.68385-.566149-1.25-1.25-1.25zm8 0c-.683851 0-1.25.56615-1.25 1.25v3.5c0 .68385.566149 1.25 1.25 1.25h3.5c.68385 0 1.25-.56615 1.25-1.25v-3.5c0-.68385-.56615-1.25-1.25-1.25zm-7.75 4h2 1a.50005.50005 0 1 1 0 1h-1-2a.50005.50005 0 1 1 0-1zm8 0h2 1a.50005.50005 0 1 1 0 1h-1-2a.50005.50005 0 1 1 0-1z" opacity="1"/></g></g></svg>