<svg height="1600" viewBox="0 0 1600 1600" width="1600" xmlns="http://www.w3.org/2000/svg" xmlns:inkscape="http://www.inkscape.org/namespaces/inkscape" xmlns:sodipodi="http://sodipodi.sourceforge.net/DTD/sodipodi-0.dtd"><sodipodi:namedview pagecolor="#303030" showgrid="true"><inkscape:grid id="grid5" units="px" spacingx="100" spacingy="100" color="#4772b3" opacity="0.2" visible="true" /></sodipodi:namedview><g fill="#fff"><g enable-background="new" stroke-width="1.14286" transform="matrix(87.5 0 0 87.5 -22387.636 -37525.1732)"><path d="m257 430h16v16h-16z" opacity="0"/><path d="m496 535.9375c-2.73936 0-5.1213 1.56371-6.29102 3.84961-.49329.96401-.77148 2.05765-.77148 3.21289 0 3.89459 3.16791 7.0625 7.0625 7.0625s7.0625-3.16791 7.0625-7.0625-3.16791-7.0625-7.0625-7.0625zm0 1c3.35415 0 6.0625 2.70835 6.0625 6.0625s-2.70834 6.0625-6.0625 6.0625c-3.35415 0-6.0625-2.70835-6.0625-6.0625 0-.99492.23889-1.93072.66211-2.75781 1.00359-1.96124 3.04116-3.30469 5.40039-3.30469zm0 1.0625a.99999996.99999996 0 0 0 -1 1 .99999996.99999996 0 0 0 1 1 .99999996.99999996 0 0 0 1-1 .99999996.99999996 0 0 0 -1-1zm-2.82422 1.16211a1.0001001 1.0001001 0 0 0 -.6875.30469c-.61854.6208-1.06287 1.393-1.28906 2.24023a1.0001001 1.0001001 0 1 0 1.93164.51563c.13595-.50922.40262-.97353.77344-1.34571a1.0001001 1.0001001 0 0 0 -.72852-1.71484z" fill-rule="evenodd" transform="matrix(1.14286 0 0 1.14286 -301.857 -182.571)"/></g></g></svg>