<svg height="1600" viewBox="0 0 1600 1600" width="1600" xmlns="http://www.w3.org/2000/svg" xmlns:inkscape="http://www.inkscape.org/namespaces/inkscape" xmlns:sodipodi="http://sodipodi.sourceforge.net/DTD/sodipodi-0.dtd"><sodipodi:namedview pagecolor="#303030" showgrid="true"><inkscape:grid id="grid5" units="px" spacingx="100" spacingy="100" color="#4772b3" opacity="0.2" visible="true" /></sodipodi:namedview><g fill="#fff"><g enable-background="new" transform="translate(-233 -365)"><path d="m1028 1556c-3.2833 0-6 2.4414-6 5.5 0 1.7056.9046 3.146 2.1523 4.3594l.9942.9941a.50004997.50004997 0 0 0 .3027.1485.50004997.50004997 0 0 0 .051.998h5a.50004997.50004997 0 0 0 .045-.998.50004997.50004997 0 0 0 .3086-.1485l.9981-.998c1.2122-1.1985 2.1465-2.6518 2.1465-4.3535 0-3.0586-2.7167-5.5-6-5.5zm0 1c2.7919 0 5 2.0358 5 4.5 0 1.3342-.7428 2.5488-1.8516 3.6445l-1 1a.50004997.50004997 0 0 0 .2793.8535h-4.8594a.50004997.50004997 0 0 0 .2871-.8535l-1-1a.50004997.50004997 0 0 0 -.01-.01c-1.1397-1.1082-1.8477-2.2864-1.8477-3.6406 0-2.4642 2.2081-4.5 5-4.5zm-2.5 12a.50004997.50004997 0 1 0 0 1h1.5v.5a.50004997.50004997 0 0 0 .5.5h1a.50004997.50004997 0 0 0 .5-.5v-.5h1.5a.50004997.50004997 0 1 0 0-1z"/><path d="m1025.4902 1561.0059a.50005.50005 0 0 0 -.3437.8476l.8535.8535v1.543a.50005.50005 0 1 0 1 0v-1.25h2v1.25a.50005.50005 0 1 0 1 0v-1.543l.8535-.8535a.50005.50005 0 0 0 -.707-.707l-.8535.8535h-2.586l-.8535-.8535a.50005.50005 0 0 0 -.3633-.1406z" opacity=".6"/></g><g enable-background="new" stroke-width="1.14286" transform="matrix(87.5 0 0 87.5 -22387.636 -37525.1732)"><path d="m257 430h16v16h-16z" opacity="0"/><path d="m496 535.9375c-2.73936 0-5.1213 1.56371-6.29102 3.84961-.49329.96401-.77148 2.05765-.77148 3.21289 0 3.89459 3.16791 7.0625 7.0625 7.0625s7.0625-3.16791 7.0625-7.0625-3.16791-7.0625-7.0625-7.0625zm0 1c3.35415 0 6.0625 2.70835 6.0625 6.0625s-2.70834 6.0625-6.0625 6.0625c-3.35415 0-6.0625-2.70835-6.0625-6.0625 0-.99492.23889-1.93072.66211-2.75781 1.00359-1.96124 3.04116-3.30469 5.40039-3.30469zm0 1.0625a.99999996.99999996 0 0 0 -1 1 .99999996.99999996 0 0 0 1 1 .99999996.99999996 0 0 0 1-1 .99999996.99999996 0 0 0 -1-1zm-2.82422 1.16211a1.0001001 1.0001001 0 0 0 -.6875.30469c-.61854.6208-1.06287 1.393-1.28906 2.24023a1.0001001 1.0001001 0 1 0 1.93164.51563c.13595-.50922.40262-.97353.77344-1.34571a1.0001001 1.0001001 0 0 0 -.72852-1.71484z" fill-rule="evenodd" transform="matrix(1.14286 0 0 1.14286 -301.857 -182.571)"/></g></g></svg>