<svg height="1600" viewBox="0 0 1600 1600" width="1600" xmlns="http://www.w3.org/2000/svg" xmlns:inkscape="http://www.inkscape.org/namespaces/inkscape" xmlns:sodipodi="http://sodipodi.sourceforge.net/DTD/sodipodi-0.dtd"><sodipodi:namedview pagecolor="#303030" showgrid="true"><inkscape:grid id="grid5" units="px" spacingx="100" spacingy="100" color="#4772b3" opacity="0.2" visible="true" /></sodipodi:namedview><g fill="#fff"><g enable-background="new" transform="matrix(100 0 0 100 -32000 -53500)"><path d="m324.60938 536c-.8565 0-1.60938.6483-1.60938 1.5v3c0 .8517.75288 1.5 1.60938 1.5h4.78124c.8565 0 1.60938-.6483 1.60938-1.5v-3c0-.8517-.75287-1.5-1.60938-1.5zm7.39062 1v3c.56267 0 1-.50398 1-1.03125v-.9375c0-.52717-.43731-1.03125-1-1.03125zm-7.53516 3a.50005.50005 0 0 1 .0352 0h5a.50005.50005 0 1 1 0 1h-5a.50030966.50030966 0 0 1 -.0352-1zm-1.85546 4c-.8565 0-1.60938.6483-1.60938 1.5v3c0 .8517.75288 1.5 1.60938 1.5h4.78124c.8565 0 1.60938-.6483 1.60938-1.5v-3c0-.8517-.75287-1.5-1.60938-1.5zm7.39062 2v3c.56267 0 1-.50398 1-1.03125v-.9375c0-.52717-.43731-1.03125-1-1.03125zm-7.53516 2a.50005.50005 0 0 1 .0352 0h5a.50005.50005 0 1 1 0 1h-5a.50030966.50030966 0 0 1 -.0352-1z"/><path d="m332.5 307v1c.55917 0 .9084.14278 1.13281.36719s.36719.57364.36719 1.13281v5c0 .55917-.14278.9084-.36719 1.13281s-.57364.36719-1.13281.36719h-2v1h2c.73927 0 1.38886-.20918 1.83984-.66016s.66016-1.10057.66016-1.83984v-5c0-.73927-.20918-1.38886-.66016-1.83984s-1.10057-.66016-1.83984-.66016z" opacity=".7" transform="translate(0 231)"/></g></g></svg>