<svg height="1600" viewBox="0 0 1600 1600" width="1600" xmlns="http://www.w3.org/2000/svg" xmlns:inkscape="http://www.inkscape.org/namespaces/inkscape" xmlns:sodipodi="http://sodipodi.sourceforge.net/DTD/sodipodi-0.dtd"><sodipodi:namedview pagecolor="#303030" showgrid="true"><inkscape:grid id="grid5" units="px" spacingx="100" spacingy="100" color="#4772b3" opacity="0.2" visible="true" /></sodipodi:namedview><g fill="#fff"><g enable-background="new" opacity=".99" transform="matrix(-100 0 0 -100 118901.037 62799.999)"><path d="m746.49219-91.007812a.50005.50005 0 0 0 -.49219.507812v2.503906l-2.5.0039a.50005.50005 0 1 0 0 1l3-.0039a.50005.50005 0 0 0 .5-.5v-3.003906a.50005.50005 0 0 0 -.50781-.507812zm2.00781 3.015624a.50005.50005 0 1 0 0 1h3a.50005.50005 0 1 0 0-1zm5 0a.50005.50005 0 1 0 0 1h3a.50005.50005 0 1 0 0-1zm-7.00781 1.986329a.50005.50005 0 0 0 -.49219.505859v3a.50005.50005 0 1 0 1 0v-3a.50005.50005 0 0 0 -.50781-.505859zm0 5a.50005.50005 0 0 0 -.49219.505859v3a.50005.50005 0 1 0 1 0v-3a.50005.50005 0 0 0 -.50781-.505859z" opacity="1" transform="matrix(0 1 -1 0 1097.01 -130)"/><path d="m160.5 327c-.8223 0-1.5.67765-1.5 1.5v4c0 .82235.6777 1.5 1.5 1.5h5c.8224 0 1.5-.67765 1.5-1.5v-4c0-.82235-.6776-1.5-1.5-1.5zm0 5h5a.50005.50005 0 1 1 0 1h-5a.50005.50005 0 1 1 0-1z" opacity="1" transform="matrix(-1 0 0 -1 1341.01 953)"/></g></g></svg>