<svg height="1600" viewBox="0 0 1300 1600" width="1300" xmlns="http://www.w3.org/2000/svg" xmlns:inkscape="http://www.inkscape.org/namespaces/inkscape" xmlns:sodipodi="http://sodipodi.sourceforge.net/DTD/sodipodi-0.dtd"><sodipodi:namedview pagecolor="#303030" showgrid="true"><inkscape:grid id="grid5" units="px" spacingx="100" spacingy="100" color="#4772b3" opacity="0.2" visible="true" /></sodipodi:namedview><g fill="#fff"><g enable-background="new" opacity=".99" transform="matrix(100 0 0 100 -115400.005 -61199.962)"><path d="m746.49219-91.007812a.50005.50005 0 0 0 -.49219.507812v3a.50005.50005 0 1 0 1 0v-3a.50005.50005 0 0 0 -.50781-.507812zm0 5a.50005.50005 0 0 0 -.49219.507812v3a.50005.50005 0 1 0 1 0v-3a.50005.50005 0 0 0 -.50781-.507812zm0 5a.50005.50005 0 0 0 -.49219.507812v3a.50005.50005 0 1 0 1 0v-3a.50005.50005 0 0 0 -.50781-.507812z" opacity="1" transform="translate(419 704)"/><path d="m134.5 330c-.8224 0-1.5.67765-1.5 1.5v4c0 .82235.6776 1.5 1.5 1.5h5c.8224 0 1.5-.67765 1.5-1.5v-4c0-.82235-.6776-1.5-1.5-1.5zm0 5h5a.50005.50005 0 1 1 0 1h-5a.50005.50005 0 1 1 0-1z" opacity="1" transform="translate(1022 287)"/></g></g></svg>