<svg height="1600" viewBox="0 0 1600 1600" width="1600" xmlns="http://www.w3.org/2000/svg" xmlns:inkscape="http://www.inkscape.org/namespaces/inkscape" xmlns:sodipodi="http://sodipodi.sourceforge.net/DTD/sodipodi-0.dtd"><sodipodi:namedview pagecolor="#303030" showgrid="true"><inkscape:grid id="grid5" units="px" spacingx="100" spacingy="100" color="#4772b3" opacity="0.2" visible="true" /></sodipodi:namedview><g fill="#fff"><g enable-background="new" transform="matrix(100 0 0 100 -44600.391 -19900.391)"><path d="m447.5 200a.50005.50005 0 0 0 -.5.5v4a.50005.50005 0 1 0 1 0v-3.5h3.5a.50005.50005 0 1 0 0-1zm9.00781 0a.50005.50005 0 1 0 0 1h3.5v3.5a.50005.50005 0 1 0 1 0v-4a.50005.50005 0 0 0 -.5-.5zm-9.01562 9a.50005.50005 0 0 0 -.49219.50781v4a.50005.50005 0 0 0 .5.5h4a.50005.50005 0 1 0 0-1h-3.5v-3.5a.50005.50005 0 0 0 -.50781-.50781zm13.00781 0a.50005.50005 0 0 0 -.49219.50781v3.5h-3.5a.50005.50005 0 1 0 0 1h4a.50005.50005 0 0 0 .5-.5v-4a.50005.50005 0 0 0 -.50781-.50781z" opacity=".6"/><path d="m449.5 203a.50005.50005 0 1 0 0 1h1c.39167 0 .74862.27445 1.13672.86719.3881.59273.74407 1.4462 1.08594 2.3164.34186.8702.67067 1.75605 1.06836 2.4668.19884.35538.41332.66981.68554.91797s.62761.43164 1.02344.43164c.625 0 1.13349-.27613 1.44727-.64648.31377-.37036.47247-.79704.61523-1.17774s.2723-.71757.41406-.91016c.14177-.19258.2288-.26562.52344-.26562a.50005.50005 0 1 0 0-1c-.58036 0-1.05583.30196-1.32812.67188-.2723.36991-.40839.78304-.54688 1.15234s-.27667.69262-.43945.88476c-.16279.19215-.31055.29102-.68555.29102-.10417 0-.20191-.0353-.34961-.16992-.1477-.13465-.31994-.3671-.48828-.66797-.33669-.60175-.66413-1.4659-1.00977-2.3457-.34563-.8798-.70841-1.77633-1.17968-2.4961-.47128-.71976-1.11433-1.32031-1.97266-1.32031z"/></g></g></svg>