<svg height="1600" viewBox="0 0 1600 1600" width="1600" xmlns="http://www.w3.org/2000/svg" xmlns:inkscape="http://www.inkscape.org/namespaces/inkscape" xmlns:sodipodi="http://sodipodi.sourceforge.net/DTD/sodipodi-0.dtd"><sodipodi:namedview pagecolor="#303030" showgrid="true"><inkscape:grid id="grid5" units="px" spacingx="100" spacingy="100" color="#4772b3" opacity="0.2" visible="true" /></sodipodi:namedview><g fill="#fff"><g enable-background="new"><path d="m501.98047 136.99023a1.0001 1.0001 0 0 0 -.6875.30274l-2.7207 2.7207c-.0264-.001-.0514-.008-.0781-.008-.82235 0-1.5.67765-1.5 1.5s.67765 1.5 1.5 1.5 1.5-.67765 1.5-1.5c0-.0267-.006-.0518-.008-.0781l2.7207-2.7207a1.0001 1.0001 0 0 0 -.72656-1.7168z" transform="matrix(100 0 0 100 -48800.452 -13599.482)"/><path d="m489.49414 140a.50005.50005 0 0 0 -.5.5v2a.50005.50005 0 0 0 .5.5h.5v5h-.5a.50005.50005 0 0 0 -.5.5v2a.50005.50005 0 0 0 .5.5h2a.50005.50005 0 0 0 .5-.5v-.50781h5v.50781a.50005.50005 0 0 0 .5.5h2a.50005.50005 0 0 0 .5-.5v-2a.50005.50005 0 0 0 -.5-.5h-.5v-4h-1v4h-.5a.50005.50005 0 0 0 -.5.5v.49219h-5v-.49219a.50005.50005 0 0 0 -.5-.5h-.5v-5h.5a.50005.50005 0 0 0 .5-.5v-.50781h4.00586v-1h-4.00586v-.49219a.50005.50005 0 0 0 -.5-.5zm.5 1h1v1h-1zm0 8h1v1h-1zm8 0h1v1h-1z" opacity=".6" transform="matrix(100 0 0 100 -48799.952 -13599.482)"/></g></g></svg>