<svg id="svg8" fill="none" height="1600" viewBox="0 0 48 48" width="1600" xmlns="http://www.w3.org/2000/svg" xmlns:inkscape="http://www.inkscape.org/namespaces/inkscape" xmlns:sodipodi="http://sodipodi.sourceforge.net/DTD/sodipodi-0.dtd"><sodipodi:namedview pagecolor="#303030" showgrid="true"><inkscape:grid id="grid5" units="px" spacingx="100" spacingy="100" color="#ffffff" opacity="0.2" visible="true" /></sodipodi:namedview><g fill="#fff"><path id="path1-1" d="m5.9972213 3.0020547c-2.808152.0030853-3.0063786.1357382-3.0059938 3.0082759l.00482 35.9875574c.0004394 3.280005.5216064 3.013264 2.989982 3.012574l36.0186395-.010072c2.358112-.000659 2.980726-1.199828 2.980981-2.983596l-.008138-36.0091685c-.000488-2.1594139-.629553-3.0477066-2.992106-3.0451109z" fill-opacity=".17817" stroke-linecap="round" stroke-linejoin="round" stroke-width="5.41905"/><g id="g9" fill-opacity=".664526"><path id="path8" d="m43.488281 35.960937c-.828427 0-1.5.671573-1.5 1.5v4.541016h-10.478515c-.828427 0-1.5.671573-1.5 1.5s.671573 1.5 1.5 1.5h10.49512c2.142046.01468 2.983312-1.025851 2.990775-2.998155l-.0074-4.542861c-.0013-.828426-.671573-1.5-1.5-1.5z"/><path id="path1" d="m23.998047 10.539063c-.828427 0-1.5.671573-1.5 1.5v17.691406c0 .828427.671573 1.5 1.5 1.5s1.5-.671573 1.5-1.5v-17.691406c0-.828427-.671573-1.5-1.5-1.5z"/><path id="path2" d="m24.017578 34.080078a1.95 1.95 0 0 0 -1.380859.564453l-.02344.02344a1.95 1.95 0 0 0 -.01172 2.757812 1.95 1.95 0 0 0 2.757813.01367l.02344-.02539a1.95 1.95 0 0 0 .01172-2.757812 1.95 1.95 0 0 0 -1.376953-.576172z"/><path id="path3" d="m4.5039062 3.0078125a1.50015 1.50015 0 0 0 -1.4999999 1.5v5.9843755a1.5 1.5 0 0 0 1.4999999 1.5 1.5 1.5 0 0 0 1.5-1.5v-4.4843755h10.4960938a1.5 1.5 0 0 0 1.5-1.5 1.5 1.5 0 0 0 -1.5-1.5z"/><path id="path4" d="m4.515625 19.505859a1.5 1.5 0 0 0 -1.5 1.5v6a1.5 1.5 0 0 0 1.5 1.5 1.5 1.5 0 0 0 1.5-1.5v-6a1.5 1.5 0 0 0 -1.5-1.5z"/><path id="path5" d="m43.494141 19.486328a1.5 1.5 0 0 0 -1.5 1.5v6.011719a1.5 1.5 0 0 0 1.5 1.5 1.5 1.5 0 0 0 1.5-1.5v-6.011719a1.5 1.5 0 0 0 -1.5-1.5z"/><path id="path6" d="m31.505859 2.9707031c-.828427 0-1.5.6715729-1.5 1.5s.671573 1.5 1.5 1.5h10.488282v4.5332029c0 .828427.671573 1.5 1.5 1.5s1.5-.671573 1.5-1.5v-4.5055276c-.000083-1.9206438-.509245-3.0423526-2.990775-3.0276753z"/><path id="path7" d="m4.5058594 36.007812a1.5 1.5 0 0 0 -1.5 1.5v6.00586a1.50015 1.50015 0 0 0 1.5 1.5h11.9882816a1.5 1.5 0 0 0 1.5-1.5 1.5 1.5 0 0 0 -1.5-1.5h-10.4882816v-4.50586a1.5 1.5 0 0 0 -1.5-1.5z"/></g></g></svg>