<svg id="svg8" fill="none" height="1600" viewBox="0 0 48 48" width="1600" xmlns="http://www.w3.org/2000/svg" xmlns:inkscape="http://www.inkscape.org/namespaces/inkscape" xmlns:sodipodi="http://sodipodi.sourceforge.net/DTD/sodipodi-0.dtd"><sodipodi:namedview pagecolor="#303030" showgrid="true"><inkscape:grid id="grid5" units="px" spacingx="100" spacingy="100" color="#4772b3" opacity="0.2" visible="true" /></sodipodi:namedview><g id="g1" fill="#fff"><path id="path7" d="m4.5058594 36.007812a1.5 1.5 0 0 0 -1.5 1.5v6.00586a1.50015 1.50015 0 0 0 1.5 1.5h11.9882816a1.5 1.5 0 0 0 1.5-1.5 1.5 1.5 0 0 0 -1.5-1.5h-10.4882816v-4.50586a1.5 1.5 0 0 0 -1.5-1.5zm26.9999996-33.0371089c-.828427 0-1.5.6715729-1.5 1.5s.671573 1.5 1.5 1.5h10.488282v4.5332029c0 .828427.671573 1.5 1.5 1.5s1.5-.671573 1.5-1.5v-4.5055276c-.000083-1.9206438-.509245-3.0423526-2.990775-3.0276753zm11.988282 16.5156249a1.5 1.5 0 0 0 -1.5 1.5v6.011719a1.5 1.5 0 0 0 1.5 1.5 1.5 1.5 0 0 0 1.5-1.5v-6.011719a1.5 1.5 0 0 0 -1.5-1.5zm-38.978516.01953a1.5 1.5 0 0 0 -1.5 1.5v6a1.5 1.5 0 0 0 1.5 1.5 1.5 1.5 0 0 0 1.5-1.5v-6a1.5 1.5 0 0 0 -1.5-1.5zm-.0117188-16.4980455a1.50015 1.50015 0 0 0 -1.4999999 1.5v5.9843755a1.5 1.5 0 0 0 1.4999999 1.5 1.5 1.5 0 0 0 1.5-1.5v-4.4843755h10.4960938a1.5 1.5 0 0 0 1.5-1.5 1.5 1.5 0 0 0 -1.5-1.5zm38.9843748 32.9531245c-.828427 0-1.5.671573-1.5 1.5v4.541016h-10.478515c-.828427 0-1.5.671573-1.5 1.5s.671573 1.5 1.5 1.5h10.49512c2.142046.01468 2.983312-1.025851 2.990775-2.998155l-.0074-4.542861c-.0013-.828426-.671573-1.5-1.5-1.5z" fill="#fff"/><path id="path2" d="m24.027955 33.008129a2.9858684 2.9858669 0 0 0 -2.114392.864298l-.03589.03589a2.9858684 2.9858669 0 0 0 -.01796 4.222799 2.9858684 2.9858669 0 0 0 4.222803.02093l.03589-.03888a2.9858684 2.9858669 0 0 0 .01796-4.222799 2.9858684 2.9858669 0 0 0 -2.108411-.882242zm-.000131-23.8983464c-1.667133 0-3.427772.7232255-3.375931 1.6119954l.952854 16.335902c.05184.888769.755944 1.611995 2.423077 1.611995 1.667132 0 2.371235-.723226 2.423076-1.611995l.952854-16.335902c.05184-.8887699-1.708798-1.6119954-3.37593-1.6119954z"/></g></svg>