<svg height="1600" viewBox="0 0 1600 1600" width="1600" xmlns="http://www.w3.org/2000/svg" xmlns:inkscape="http://www.inkscape.org/namespaces/inkscape" xmlns:sodipodi="http://sodipodi.sourceforge.net/DTD/sodipodi-0.dtd"><sodipodi:namedview pagecolor="#303030" showgrid="true"><inkscape:grid id="grid5" units="px" spacingx="100" spacingy="100" color="#4772b3" opacity="0.2" visible="true" /></sodipodi:namedview><g fill="#fff"><g enable-background="new" transform="matrix(100 0 0 100 -42500.134 -13399.818)"><path d="m430.49219 134.99219a.50005.50005 0 0 0 -.38867.19531.50005.50005 0 0 0 -.004.006l-1.95313 1.95312a.50005.50005 0 1 0 .70703.70704l1.14658-1.14663v3.79297a.50005.50005 0 1 0 1 0v-3.79297l1.14648 1.14649a.50005.50005 0 1 0 .70704-.70704l-1.95704-1.95703a.50005.50005 0 0 0 -.40429-.19726zm7.00195 7.00195a.50005.50005 0 0 0 -.34766.85938l1.14649 1.14648h-3.79297a.50005.50005 0 1 0 0 1h3.79297l-1.14649 1.14648a.50005.50005 0 1 0 .70704.70704l1.95703-1.95704a.50005.50005 0 0 0 .002-.79296.50005.50005 0 0 0 -.006-.004l-1.95313-1.95313a.50005.50005 0 0 0 -.35937-.15234zm-11.00195 2.99805a.50005.50005 0 0 0 -.49219.50781v2.93945a.50005.50005 0 0 0 .56055.56055h2.93945a.50005.50005 0 1 0 0-1h-1.79297l1.14649-1.14648a.50005.50005 0 1 0 -.70704-.70704l-1.14648 1.14649v-1.79297a.50005.50005 0 0 0 -.50781-.50781z" opacity=".6"/><path d="m432.99635 144a1.99635 1.99635 0 0 1 -1.99635 1.99635 1.99635 1.99635 0 0 1 -1.99635-1.99635 1.99635 1.99635 0 0 1 1.99635-1.99635 1.99635 1.99635 0 0 1 1.99635 1.99635z"/></g></g></svg>