<svg height="1400" viewBox="0 0 1600 1400" width="1600" xmlns="http://www.w3.org/2000/svg" xmlns:inkscape="http://www.inkscape.org/namespaces/inkscape" xmlns:sodipodi="http://sodipodi.sourceforge.net/DTD/sodipodi-0.dtd"><sodipodi:namedview pagecolor="#303030" showgrid="true"><inkscape:grid id="grid5" units="px" spacingx="100" spacingy="100" color="#4772b3" opacity="0.2" visible="true" /></sodipodi:namedview><g fill="#fff"><g enable-background="new" transform="translate(-233 -365)"><path d="m1028 1556c-3.2833 0-6 2.4414-6 5.5 0 1.7056.9046 3.146 2.1523 4.3594l.9942.9941a.50004997.50004997 0 0 0 .3027.1485.50004997.50004997 0 0 0 .051.998h5a.50004997.50004997 0 0 0 .045-.998.50004997.50004997 0 0 0 .3086-.1485l.9981-.998c1.2122-1.1985 2.1465-2.6518 2.1465-4.3535 0-3.0586-2.7167-5.5-6-5.5zm0 1c2.7919 0 5 2.0358 5 4.5 0 1.3342-.7428 2.5488-1.8516 3.6445l-1 1a.50004997.50004997 0 0 0 .2793.8535h-4.8594a.50004997.50004997 0 0 0 .2871-.8535l-1-1a.50004997.50004997 0 0 0 -.01-.01c-1.1397-1.1082-1.8477-2.2864-1.8477-3.6406 0-2.4642 2.2081-4.5 5-4.5zm-2.5 12a.50004997.50004997 0 1 0 0 1h1.5v.5a.50004997.50004997 0 0 0 .5.5h1a.50004997.50004997 0 0 0 .5-.5v-.5h1.5a.50004997.50004997 0 1 0 0-1z"/><path d="m1025.4902 1561.0059a.50005.50005 0 0 0 -.3437.8476l.8535.8535v1.543a.50005.50005 0 1 0 1 0v-1.25h2v1.25a.50005.50005 0 1 0 1 0v-1.543l.8535-.8535a.50005.50005 0 0 0 -.707-.707l-.8535.8535h-2.586l-.8535-.8535a.50005.50005 0 0 0 -.3633-.1406z" opacity=".6"/></g><g enable-background="new" transform="matrix(100 0 0 100 -42500.018 -40999.9337)"><path d="m469.08398 415.58594c-.81593.95753-1.21878 2.22985-1.04296 3.52148.24625 1.80912 1.56436 3.29294 3.33203 3.75 1.43669.37149 2.93514-.006 4.03515-.9414-.29636.0501-.5984.084-.9082.084-.38579 0-.76279-.0423-1.12695-.11914-.56283.14546-1.16207.15983-1.75.008-1.37737-.35614-2.39992-1.50634-2.5918-2.91601-.0626-.45958-.0236-.91417.0879-1.34571-.07647-.36307-.11915-.73885-.11915-1.12325 0-.31305.0328-.61873.084-.91797z" opacity=".8" transform="translate(-42)"/><path d="m473.08594 412.25c-1.78545.59735-3.08594 2.26742-3.08594 4.25 0 2.47936 2.02064 4.5 4.5 4.5.48878 0 .95142-.0971 1.39258-.24219-.56289-.17378-1.08535-.43906-1.55664-.77343-1.86047-.08694-3.33594-1.60168-3.33594-3.48438 0-1.08365.4989-2.0367 1.26758-2.67773.18577-.57127.46679-1.09859.81836-1.57227z" transform="translate(-42)"/><path d="m435.5 411c-2.47344 0-4.5 2.02656-4.5 4.5s2.02656 4.5 4.5 4.5 4.5-2.02656 4.5-4.5-2.02656-4.5-4.5-4.5zm0 2c1.39256 0 2.5 1.10744 2.5 2.5s-1.10744 2.5-2.5 2.5-2.5-1.10744-2.5-2.5 1.10744-2.5 2.5-2.5z"/></g></g></svg>