<svg id="svg3" height="1500" viewBox="0 0 1500 1500" width="1500" xmlns="http://www.w3.org/2000/svg" xmlns:inkscape="http://www.inkscape.org/namespaces/inkscape" xmlns:sodipodi="http://sodipodi.sourceforge.net/DTD/sodipodi-0.dtd"><sodipodi:namedview pagecolor="#303030" showgrid="true"><inkscape:grid id="grid5" units="px" spacingx="100" spacingy="100" color="#4772b3" opacity="0.2" visible="true" /></sodipodi:namedview><g fill="#fff"><path id="path2" d="m435.91471 1838.9185a.49989467.50020516 0 0 1 -.10766.08c-1.55117.8755-2.8107 1.2341-3.77887.8468-.48409-.1937-.84555-.6327-.96369-1.1577-.11806-.525-.0453-1.1245.17673-1.8153.88827-2.7631 3.96133-6.3033 7.15309-8.3953 1.59595-1.046 2.94158-1.5736 4.02185-1.474.5401.05 1.04109.3065 1.31713.757.27597.4504.3235 1.0201.20985 1.6633a.50049929.50081015 0 1 1 -.98577-.174c.0873-.4946.0235-.8034-.076-.9657-.0994-.1623-.23754-.2538-.55637-.2832-.63756-.059-1.88509.331-3.38253 1.3124-2.99493 1.9629-5.99799 5.5314-6.74857 7.8663-.18764.5837-.21297 1.0235-.15327 1.2889.0597.2653.15122.3664.35757.449.41277.1651 1.48565.019 2.91733-.7889a.49989467.50020516 0 0 1 .59917.7903z" opacity=".6" transform="matrix(100 0 0 100 -43000.441 -182599.5)"/><path id="path1" d="m-58.978516 159.00391c-.268711-.0142-.522461.007-.761718.0664-.47849.1192-.892924.44895-1.089844.90235-.19686.4535-.203572.98669-.07617 1.59179.50982 2.4202 3.039112 5.6664 6.039062 8.0293 1.49994 1.1815 2.89794 1.95798 4.06836 2.26758.58523.1549 1.120142.1985 1.601562.0664.48143-.1318.896965-.48805 1.078125-.97265.36233-.9692-.01465-2.1613-.732421-3.5-.585772-1.09244-1.450912-2.27994-2.509766-3.44922h1.695312a.50005.50005 0 1 0 0-1h-2.828125a.50005.50005 0 0 0 -.5.5v2.82812a.50005.50005 0 1 0 1 0v-1.53906c.962773 1.08028 1.742337 2.16783 2.259766 3.13281.65736 1.226.838188 2.25364.679687 2.67774-.0793.212-.1766.29452-.40625.35742-.229719.063-.603428.0576-1.080078-.0684-.95331-.2522-2.281914-.96184-3.708984-2.08594-2.85409-2.248-5.274721-5.54511-5.675781-7.44921-.10032-.47611-.06643-.80379.01367-.98829s.178092-.26942.414062-.32812c.47178-.1177 1.518783.0927 2.851563.85351a.50043231.50036032 0 0 0 .496093-.86914c-1.081755-.61755-2.02199-.98079-2.828125-1.02343z" transform="matrix(100 0 0 100 6198.559 -15800.503)"/></g></svg>