<svg height="1600" viewBox="0 0 1600 1600" width="1600" xmlns="http://www.w3.org/2000/svg" xmlns:inkscape="http://www.inkscape.org/namespaces/inkscape" xmlns:sodipodi="http://sodipodi.sourceforge.net/DTD/sodipodi-0.dtd"><sodipodi:namedview pagecolor="#303030" showgrid="true"><inkscape:grid id="grid5" units="px" spacingx="100" spacingy="100" color="#4772b3" opacity="0.2" visible="true" /></sodipodi:namedview><g fill="#fff"><g enable-background="new" transform="matrix(-100 0 0 100 52499.13900000001 -11499.7)"><path d="m-28.482422 162.00195a.50005.50005 0 0 0 -.365234.85743l1.146484 1.14648h-5.585937c-.348208-.59355-.987551-1-1.720703-1-1.098651 0-2 .90135-2 2s.901349 2 2 2c1.09865 0 2-.90135 2-2h5.30664l-1.146484 1.14648a.50064056.50064056 0 0 0 .708984.70704l2-2a.50005.50005 0 0 0 0-.70704l-2-2a.50005.50005 0 0 0 -.34375-.15039zm-6.52539 2.00391c.55821 0 1 .44179 1 1s-.44179 1-1 1c-.558211 0-1-.44179-1-1s.441789-1 1-1z" transform="matrix(-1 0 0 1 483.993 -42.006)"/><path d="m-559.99805 608.99609-4.50195.00391a.50005.50005 0 0 0 -.5.50391l.008 1.00195a.50005.50005 0 0 0 .0195.13281l1.99219 6.99805a.50005.50005 0 0 0 .48031.36328h11a.50005.50005 0 0 0 .5-.49609l.01-.99805a.50005.50005 0 0 0 -.0195-.14063l-2.00585-7.00195a.50005.50005 0 0 0 -.48074-.36328l-3.50196-.004v1l3.125.004 1.88086 6.57031-.002.42969h-10.12695l-1.8711-6.56836-.004-.43164 3.99804-.004z" opacity=".6" transform="matrix(0 1 1 0 -94.0025 680.992)"/></g></g></svg>