<svg height="1600" viewBox="0 0 1600 1600" width="1600" xmlns="http://www.w3.org/2000/svg" xmlns:inkscape="http://www.inkscape.org/namespaces/inkscape" xmlns:sodipodi="http://sodipodi.sourceforge.net/DTD/sodipodi-0.dtd"><sodipodi:namedview pagecolor="#303030" showgrid="true"><inkscape:grid id="grid5" units="px" spacingx="100" spacingy="100" color="#4772b3" opacity="0.2" visible="true" /></sodipodi:namedview><g fill="#fff"><g enable-background="new" transform="matrix(100 0 0 100 -8899.6048 -28299.993)"><path d="m-71.318359 158.00586a.50005.50005 0 1 0 0 1h1.689453l-3.382813 4.26953c-.291076-.16603-.621698-.26953-.978515-.26953-.733151 0-1.370542.40645-1.71875 1h-4.582032l1.146485-1.14648a.50005.50005 0 0 0 -.363281-.85743.50005.50005 0 0 0 -.34375.15039l-2 2a.50005.50005 0 0 0 0 .70704l2 2a.50005.50005 0 1 0 .707031-.70704l-1.146485-1.14648h4.300782c0 1.09865.901352 2 2 2s2-.90135 2-2c0-.37821-.113913-.72852-.298828-1.03125l3.298828-4.16211v1.52148a.50005.50005 0 1 0 1 0v-2.82812a.50005.50005 0 0 0 -.5-.5zm-2.671875 6c.558208 0 1 .44179 1 1s-.441792 1-1 1-1-.44179-1-1 .441792-1 1-1z" transform="translate(171.99 125.994)"/><path d="m99.244141 291.73828a.50005.50005 0 0 0 -.396485.81641l3.513674 4.44531h-1.68945a.50005.50005 0 1 0 0 1h2.82812a.50005.50005 0 0 0 .5-.5v-2.82812a.50005.50005 0 1 0 -1 0v1.52148l-3.367188-4.25977a.50005.50005 0 0 0 -.388671-.19531z" opacity=".6"/></g></g></svg>