<svg height="1600" viewBox="0 0 1600 1600" width="1600" xmlns="http://www.w3.org/2000/svg" xmlns:inkscape="http://www.inkscape.org/namespaces/inkscape" xmlns:sodipodi="http://sodipodi.sourceforge.net/DTD/sodipodi-0.dtd"><sodipodi:namedview pagecolor="#303030" showgrid="true"><inkscape:grid id="grid5" units="px" spacingx="100" spacingy="100" color="#4772b3" opacity="0.2" visible="true" /></sodipodi:namedview><g fill="#fff"><g enable-background="new" transform="matrix(100 0 0 100 -6799.9531 -28299.957)"><path d="m79.490234 286.99609a.50005.50005 0 0 0 -.050781.00391h-2.939453a.50005.50005 0 1 0 0 1h1.792969l-5.146485 5.14648a.50005.50005 0 1 0 .707032.70704l5.146484-5.14649v1.79297a.50005.50005 0 1 0 1 0v-2.93945a.50005.50005 0 0 0 -.509766-.56446z" opacity=".6"/><path d="m-100.49805 157.99805a.50005.50005 0 0 0 -.38867.19531.50005.50005 0 0 0 -.004.006l-1.95313 1.95312a.50005.50005 0 1 0 .70703.70704l1.14649-1.14649v7.57422c-.59356.34821-1 .9856-1 1.71875 0 1.09865.90135 2 1.999996 2 .73315 0 1.370541-.40645 1.71875-1h7.574218l-1.146484 1.14648a.50005.50005 0 1 0 .707031.70704l1.957031-1.95704a.50005.50005 0 0 0 .002-.79296.50005.50005 0 0 0 -.0059-.004l-1.953125-1.95313a.50005.50005 0 0 0 -.359281-.15239.50005.50005 0 0 0 -.347656.85938l1.146484 1.14648h-7.292968c0-1.09865-.901352-2-2-2v-7.29297l1.146484 1.14649a.50005.50005 0 1 0 .707031-.70704l-1.957031-1.95703a.50005.50005 0 0 0 -.4043-.19726zm.507816 10.00781c.558208 0 1 .44179 1 1s-.441792 1-1 1c-.558206 0-.999996-.44179-.999996-1s.44179-1 .999996-1z" transform="translate(171.99 125.994)"/></g></g></svg>