<svg height="1600" viewBox="0 0 1600 1600" width="1600" xmlns="http://www.w3.org/2000/svg" xmlns:inkscape="http://www.inkscape.org/namespaces/inkscape" xmlns:sodipodi="http://sodipodi.sourceforge.net/DTD/sodipodi-0.dtd"><sodipodi:namedview pagecolor="#303030" showgrid="true"><inkscape:grid id="grid5" units="px" spacingx="100" spacingy="100" color="#4772b3" opacity="0.2" visible="true" /></sodipodi:namedview><g enable-background="new" fill="#fff" transform="translate(-233 -365)"><path d="m1028 1556c-3.2833 0-6 2.4414-6 5.5 0 1.7056.9046 3.146 2.1523 4.3594l.9942.9941a.50004997.50004997 0 0 0 .3027.1485.50004997.50004997 0 0 0 .051.998h5a.50004997.50004997 0 0 0 .045-.998.50004997.50004997 0 0 0 .3086-.1485l.9981-.998c1.2122-1.1985 2.1465-2.6518 2.1465-4.3535 0-3.0586-2.7167-5.5-6-5.5zm0 1c2.7919 0 5 2.0358 5 4.5 0 1.3342-.7428 2.5488-1.8516 3.6445l-1 1a.50004997.50004997 0 0 0 .2793.8535h-4.8594a.50004997.50004997 0 0 0 .2871-.8535l-1-1a.50004997.50004997 0 0 0 -.01-.01c-1.1397-1.1082-1.8477-2.2864-1.8477-3.6406 0-2.4642 2.2081-4.5 5-4.5zm-2.5 12a.50004997.50004997 0 1 0 0 1h1.5v.5a.50004997.50004997 0 0 0 .5.5h1a.50004997.50004997 0 0 0 .5-.5v-.5h1.5a.50004997.50004997 0 1 0 0-1z"/><path d="m1025.4902 1561.0059a.50005.50005 0 0 0 -.3437.8476l.8535.8535v1.543a.50005.50005 0 1 0 1 0v-1.25h2v1.25a.50005.50005 0 1 0 1 0v-1.543l.8535-.8535a.50005.50005 0 0 0 -.707-.707l-.8535.8535h-2.586l-.8535-.8535a.50005.50005 0 0 0 -.3633-.1406z" opacity=".6"/></g><g enable-background="new" fill="none" stroke="#fff" transform="matrix(100 0 0 100 -46698.876 -19900)"><g enable-background="new" opacity=".7" stroke-width="1.44731" transform="matrix(.6914962 0 0 .6915053 144.53231 65.869882)"><g transform="translate(-1.186006 2.312607)"><path d="m471.48986 207.6v-6.605"/><path d="m469.75403 202.73197 1.73583-1.73697 1.73628 1.73697" stroke-linecap="round" stroke-linejoin="round"/></g><g transform="matrix(0 1 -1 0 682.12784 -264.19038)"><path d="m475.88023 210.00984v-6.10464"/><path d="m474.14424 205.64156 1.73599-1.73636 1.73612 1.73636" stroke-linecap="round" stroke-linejoin="round"/></g><circle cx="470.30371" cy="211.68971" r="1.800632" stroke-linecap="round" stroke-linejoin="round"/></g><g enable-background="new" stroke-width="1.44731" transform="matrix(.6914962 0 0 .6915053 150.788 59.912101)"><g transform="translate(-1.186006 2.312607)"><path d="m471.48986 207.6v-6.605"/><path d="m469.75403 202.73197 1.73583-1.73697 1.73628 1.73697" stroke-linecap="round" stroke-linejoin="round"/></g><g transform="matrix(0 1 -1 0 682.12784 -264.19038)"><path d="m475.88023 210.00984v-6.10464"/><path d="m474.14424 205.64156 1.73599-1.73636 1.73612 1.73636" stroke-linecap="round" stroke-linejoin="round"/></g><circle cx="470.30371" cy="211.68971" r="1.800632" stroke-linecap="round" stroke-linejoin="round"/></g><g stroke-linecap="round" stroke-width="1.00082"><path d="m473.31787 208.67619.4302-.44676" opacity=".7"/><path d="m471.76625 210.24534.4302-.44676" opacity=".7"/></g></g></svg>