<svg height="1600" viewBox="0 0 1600 1600" width="1600" xmlns="http://www.w3.org/2000/svg" xmlns:inkscape="http://www.inkscape.org/namespaces/inkscape" xmlns:sodipodi="http://sodipodi.sourceforge.net/DTD/sodipodi-0.dtd"><sodipodi:namedview pagecolor="#303030" showgrid="true"><inkscape:grid id="grid5" units="px" spacingx="100" spacingy="100" color="#4772b3" opacity="0.2" visible="true" /></sodipodi:namedview><g fill="#fff"><g enable-background="new" transform="translate(-233 -365)"><path d="m1028 1556c-3.2833 0-6 2.4414-6 5.5 0 1.7056.9046 3.146 2.1523 4.3594l.9942.9941a.50004997.50004997 0 0 0 .3027.1485.50004997.50004997 0 0 0 .051.998h5a.50004997.50004997 0 0 0 .045-.998.50004997.50004997 0 0 0 .3086-.1485l.9981-.998c1.2122-1.1985 2.1465-2.6518 2.1465-4.3535 0-3.0586-2.7167-5.5-6-5.5zm0 1c2.7919 0 5 2.0358 5 4.5 0 1.3342-.7428 2.5488-1.8516 3.6445l-1 1a.50004997.50004997 0 0 0 .2793.8535h-4.8594a.50004997.50004997 0 0 0 .2871-.8535l-1-1a.50004997.50004997 0 0 0 -.01-.01c-1.1397-1.1082-1.8477-2.2864-1.8477-3.6406 0-2.4642 2.2081-4.5 5-4.5zm-2.5 12a.50004997.50004997 0 1 0 0 1h1.5v.5a.50004997.50004997 0 0 0 .5.5h1a.50004997.50004997 0 0 0 .5-.5v-.5h1.5a.50004997.50004997 0 1 0 0-1z"/><path d="m1025.4902 1561.0059a.50005.50005 0 0 0 -.3437.8476l.8535.8535v1.543a.50005.50005 0 1 0 1 0v-1.25h2v1.25a.50005.50005 0 1 0 1 0v-1.543l.8535-.8535a.50005.50005 0 0 0 -.707-.707l-.8535.8535h-2.586l-.8535-.8535a.50005.50005 0 0 0 -.3633-.1406z" opacity=".6"/></g><g enable-background="new" transform="matrix(100 0 0 100 -8899.6048 -28299.993)"><path d="m-71.318359 158.00586a.50005.50005 0 1 0 0 1h1.689453l-3.382813 4.26953c-.291076-.16603-.621698-.26953-.978515-.26953-.733151 0-1.370542.40645-1.71875 1h-4.582032l1.146485-1.14648a.50005.50005 0 0 0 -.363281-.85743.50005.50005 0 0 0 -.34375.15039l-2 2a.50005.50005 0 0 0 0 .70704l2 2a.50005.50005 0 1 0 .707031-.70704l-1.146485-1.14648h4.300782c0 1.09865.901352 2 2 2s2-.90135 2-2c0-.37821-.113913-.72852-.298828-1.03125l3.298828-4.16211v1.52148a.50005.50005 0 1 0 1 0v-2.82812a.50005.50005 0 0 0 -.5-.5zm-2.671875 6c.558208 0 1 .44179 1 1s-.441792 1-1 1-1-.44179-1-1 .441792-1 1-1z" transform="translate(171.99 125.994)"/><path d="m99.244141 291.73828a.50005.50005 0 0 0 -.396485.81641l3.513674 4.44531h-1.68945a.50005.50005 0 1 0 0 1h2.82812a.50005.50005 0 0 0 .5-.5v-2.82812a.50005.50005 0 1 0 -1 0v1.52148l-3.367188-4.25977a.50005.50005 0 0 0 -.388671-.19531z" opacity=".6"/></g></g></svg>