<svg height="1600" viewBox="0 0 1600 1600" width="1600" xmlns="http://www.w3.org/2000/svg" xmlns:inkscape="http://www.inkscape.org/namespaces/inkscape" xmlns:sodipodi="http://sodipodi.sourceforge.net/DTD/sodipodi-0.dtd"><sodipodi:namedview pagecolor="#303030" showgrid="true"><inkscape:grid id="grid5" units="px" spacingx="100" spacingy="100" color="#4772b3" opacity="0.2" visible="true" /></sodipodi:namedview><g fill="#fff"><g enable-background="new" transform="translate(-233 -365)"><path d="m1028 1556c-3.2833 0-6 2.4414-6 5.5 0 1.7056.9046 3.146 2.1523 4.3594l.9942.9941a.50004997.50004997 0 0 0 .3027.1485.50004997.50004997 0 0 0 .051.998h5a.50004997.50004997 0 0 0 .045-.998.50004997.50004997 0 0 0 .3086-.1485l.9981-.998c1.2122-1.1985 2.1465-2.6518 2.1465-4.3535 0-3.0586-2.7167-5.5-6-5.5zm0 1c2.7919 0 5 2.0358 5 4.5 0 1.3342-.7428 2.5488-1.8516 3.6445l-1 1a.50004997.50004997 0 0 0 .2793.8535h-4.8594a.50004997.50004997 0 0 0 .2871-.8535l-1-1a.50004997.50004997 0 0 0 -.01-.01c-1.1397-1.1082-1.8477-2.2864-1.8477-3.6406 0-2.4642 2.2081-4.5 5-4.5zm-2.5 12a.50004997.50004997 0 1 0 0 1h1.5v.5a.50004997.50004997 0 0 0 .5.5h1a.50004997.50004997 0 0 0 .5-.5v-.5h1.5a.50004997.50004997 0 1 0 0-1z"/><path d="m1025.4902 1561.0059a.50005.50005 0 0 0 -.3437.8476l.8535.8535v1.543a.50005.50005 0 1 0 1 0v-1.25h2v1.25a.50005.50005 0 1 0 1 0v-1.543l.8535-.8535a.50005.50005 0 0 0 -.707-.707l-.8535.8535h-2.586l-.8535-.8535a.50005.50005 0 0 0 -.3633-.1406z" opacity=".6"/></g><path d="m533.49219 157.99219a.50005.50005 0 0 0 -.38867.19531.50005.50005 0 0 0 -.004.006l-1.95313 1.95312a.50005.50005 0 1 0 .70704.70704l1.14657-1.14663v7.57422c-.59355.34821-1 .9856-1 1.71875 0 1.09865.90135 2 2 2 .73315 0 1.37054-.40645 1.71875-1h7.57422l-1.14649 1.14648a.50005.50005 0 1 0 .70704.70704l1.95703-1.95704a.50005.50005 0 0 0 .002-.79296.50005.50005 0 0 0 -.006-.004l-1.95312-1.95313a.50005.50005 0 0 0 -.35938-.15234.50005.50005 0 0 0 -.34766.85938l1.14658 1.14657h-7.29297c0-1.09865-.90135-2-2-2v-7.29297l1.14648 1.14649a.50005.50005 0 1 0 .70704-.70704l-1.95704-1.95703a.50005.50005 0 0 0 -.40429-.19726zm.50781 10.00781c.55821 0 1 .44179 1 1s-.44179 1-1 1-1-.44179-1-1 .44179-1 1-1z" transform="matrix(100 0 0 100 -52999.9886 -15699.959)"/></g></svg>