<svg id="svg11" height="1600" viewBox="0 0 1600 1600" width="1600" xmlns="http://www.w3.org/2000/svg" xmlns:inkscape="http://www.inkscape.org/namespaces/inkscape" xmlns:sodipodi="http://sodipodi.sourceforge.net/DTD/sodipodi-0.dtd"><sodipodi:namedview pagecolor="#303030" showgrid="true"><inkscape:grid id="grid5" units="px" spacingx="100" spacingy="100" color="#4772b3" opacity="0.2" visible="true" /></sodipodi:namedview><g fill="#fff"><path id="path1" d="m471.49023 200.27148a.72372735.72372735 0 0 0 -.51172.21288l-1.73633 1.73633a.72365499.72365499 0 0 0 0 1.02345.72365499.72365499 0 0 0 1.02343 0l.50002-.50081v4.21728c-1.03716.31365-1.80033 1.28168-1.80033 2.41623 0 1.38555 1.13788 2.52541 2.52343 2.52541 1.13442 0 2.10368-.76428 2.41793-1.80172h3.75683l-.50197.50196a.72365499.72365499 0 0 0 0 1.02344.72365499.72365499 0 0 0 1.02148 0l1.73828-1.73633a.72372735.72372735 0 0 0 0-1.02344l-1.73828-1.73634a.72365499.72365499 0 0 0 -1.02148 0 .72365499.72365499 0 0 0 0 1.02344l.49999.50002h-3.75488c-.24465-.80721-.8862-1.448-1.69373-1.69242v-4.21945l.50194.50273a.72365499.72365499 0 0 0 1.02343 0 .72365499.72365499 0 0 0 0-1.02345l-1.73633-1.73633a.72372735.72372735 0 0 0 -.51171-.21288zm-.0015 8.02919c.60337 0 1.07813.47282 1.07813 1.07617 0 .60337-.47476 1.07813-1.07813 1.07813-.60336 0-1.07616-.47476-1.07616-1.07813 0-.60335.4728-1.07617 1.07616-1.07617z" opacity=".7" transform="matrix(69.14962 0 0 69.15053 -32327.657 -13153.094)"/><path id="path9" d="m473.78212 207.7298a.50041002.50041002 0 0 0 -.39539.15303l-.42971.44531a.50041002.50041002 0 0 0 .01371.70901.50041002.50041002 0 0 0 .70703-.01371l.43164-.44727a.50041002.50041002 0 0 0 -.01371-.70703.50041002.50041002 0 0 0 -.31357-.13934zm-1.5519 1.56932a.50041002.50041002 0 0 0 -.39427.15207l-.42971.44729a.50041002.50041002 0 0 0 .01371.70703.50041002.50041002 0 0 0 .70703-.01371l.42969-.44532a.50041002.50041002 0 0 0 -.01369-.70898.50041002.50041002 0 0 0 -.31276-.13838z" opacity=".7" transform="matrix(100 0 0 100 -46698.876 -19900)"/><path id="circle8" d="m470.30424 202.5841a.72372735.72372735 0 0 0 -.51172.21288l-1.73632 1.73633a.72365499.72365499 0 0 0 0 1.02344.72365499.72365499 0 0 0 1.02342 0l.49999-.5008v4.21728c-1.03715.31365-1.8003 1.28168-1.8003 2.41623 0 1.38555 1.13788 2.52537 2.52343 2.52537 1.1344 0 2.10364-.76426 2.4179-1.80169h3.7568l-.50194.50194a.72365499.72365499 0 0 0 0 1.02344.72365499.72365499 0 0 0 1.02148 0l1.73828-1.73634a.72372735.72372735 0 0 0 0-1.02344l-1.73828-1.7363a.72365499.72365499 0 0 0 -1.02148 0 .72365499.72365499 0 0 0 0 1.02344l.5.49998h-3.75486c-.24465-.80721-.88623-1.44796-1.69376-1.69238v-4.21948l.50194.50275a.72365499.72365499 0 0 0 1.02346 0 .72365499.72365499 0 0 0 0-1.02344l-1.73633-1.73633a.72372735.72372735 0 0 0 -.51171-.21288zm-.0015 8.02919c.60337 0 1.07811.47281 1.07811 1.07617 0 .60337-.47474 1.07812-1.07811 1.07812-.60336 0-1.07619-.47475-1.07619-1.07812 0-.60336.47283-1.07617 1.07619-1.07617z" transform="matrix(69.14962 0 0 69.15053 -31620.076 -13908.79)"/></g></svg>