<svg height="1600" viewBox="0 0 1600 1600" width="1600" xmlns="http://www.w3.org/2000/svg" xmlns:inkscape="http://www.inkscape.org/namespaces/inkscape" xmlns:sodipodi="http://sodipodi.sourceforge.net/DTD/sodipodi-0.dtd"><sodipodi:namedview pagecolor="#303030" showgrid="true"><inkscape:grid id="grid5" units="px" spacingx="100" spacingy="100" color="#4772b3" opacity="0.2" visible="true" /></sodipodi:namedview><g fill="#fff"><g enable-background="new" transform="translate(-233 -365)"><path d="m1028 1556c-3.2833 0-6 2.4414-6 5.5 0 1.7056.9046 3.146 2.1523 4.3594l.9942.9941a.50004997.50004997 0 0 0 .3027.1485.50004997.50004997 0 0 0 .051.998h5a.50004997.50004997 0 0 0 .045-.998.50004997.50004997 0 0 0 .3086-.1485l.9981-.998c1.2122-1.1985 2.1465-2.6518 2.1465-4.3535 0-3.0586-2.7167-5.5-6-5.5zm0 1c2.7919 0 5 2.0358 5 4.5 0 1.3342-.7428 2.5488-1.8516 3.6445l-1 1a.50004997.50004997 0 0 0 .2793.8535h-4.8594a.50004997.50004997 0 0 0 .2871-.8535l-1-1a.50004997.50004997 0 0 0 -.01-.01c-1.1397-1.1082-1.8477-2.2864-1.8477-3.6406 0-2.4642 2.2081-4.5 5-4.5zm-2.5 12a.50004997.50004997 0 1 0 0 1h1.5v.5a.50004997.50004997 0 0 0 .5.5h1a.50004997.50004997 0 0 0 .5-.5v-.5h1.5a.50004997.50004997 0 1 0 0-1z"/><path d="m1025.4902 1561.0059a.50005.50005 0 0 0 -.3437.8476l.8535.8535v1.543a.50005.50005 0 1 0 1 0v-1.25h2v1.25a.50005.50005 0 1 0 1 0v-1.543l.8535-.8535a.50005.50005 0 0 0 -.707-.707l-.8535.8535h-2.586l-.8535-.8535a.50005.50005 0 0 0 -.3633-.1406z" opacity=".6"/></g><g enable-background="new" transform="matrix(100 0 0 100 -6799.9531 -28299.957)"><path d="m79.490234 286.99609a.50005.50005 0 0 0 -.050781.00391h-2.939453a.50005.50005 0 1 0 0 1h1.792969l-5.146485 5.14648a.50005.50005 0 1 0 .707032.70704l5.146484-5.14649v1.79297a.50005.50005 0 1 0 1 0v-2.93945a.50005.50005 0 0 0 -.509766-.56446z" opacity=".6"/><path d="m-100.49805 157.99805a.50005.50005 0 0 0 -.38867.19531.50005.50005 0 0 0 -.004.006l-1.95313 1.95312a.50005.50005 0 1 0 .70703.70704l1.14649-1.14649v7.57422c-.59356.34821-1 .9856-1 1.71875 0 1.09865.90135 2 1.999996 2 .73315 0 1.370541-.40645 1.71875-1h7.574218l-1.146484 1.14648a.50005.50005 0 1 0 .707031.70704l1.957031-1.95704a.50005.50005 0 0 0 .002-.79296.50005.50005 0 0 0 -.0059-.004l-1.953125-1.95313a.50005.50005 0 0 0 -.359281-.15239.50005.50005 0 0 0 -.347656.85938l1.146484 1.14648h-7.292968c0-1.09865-.901352-2-2-2v-7.29297l1.146484 1.14649a.50005.50005 0 1 0 .707031-.70704l-1.957031-1.95703a.50005.50005 0 0 0 -.4043-.19726zm.507816 10.00781c.558208 0 1 .44179 1 1s-.441792 1-1 1c-.558206 0-.999996-.44179-.999996-1s.44179-1 .999996-1z" transform="translate(171.99 125.994)"/></g></g></svg>