<svg height="1600" viewBox="0 0 1600 1600" width="1600" xmlns="http://www.w3.org/2000/svg" xmlns:inkscape="http://www.inkscape.org/namespaces/inkscape" xmlns:sodipodi="http://sodipodi.sourceforge.net/DTD/sodipodi-0.dtd"><sodipodi:namedview pagecolor="#303030" showgrid="true"><inkscape:grid id="grid5" units="px" spacingx="100" spacingy="100" color="#4772b3" opacity="0.2" visible="true" /></sodipodi:namedview><g enable-background="new" fill="none" stroke="#fff" transform="matrix(100 0 0 100 -46698.876 -19900)"><g enable-background="new" opacity=".7" stroke-width="1.44731" transform="matrix(.6914962 0 0 .6915053 144.53231 65.869882)"><g transform="translate(-1.186006 2.312607)"><path d="m471.48986 207.6v-6.605"/><path d="m469.75403 202.73197 1.73583-1.73697 1.73628 1.73697" stroke-linecap="round" stroke-linejoin="round"/></g><g transform="matrix(0 1 -1 0 682.12784 -264.19038)"><path d="m475.88023 210.00984v-6.10464"/><path d="m474.14424 205.64156 1.73599-1.73636 1.73612 1.73636" stroke-linecap="round" stroke-linejoin="round"/></g><circle cx="470.30371" cy="211.68971" r="1.800632" stroke-linecap="round" stroke-linejoin="round"/></g><g enable-background="new" stroke-width="1.44731" transform="matrix(.6914962 0 0 .6915053 150.788 59.912101)"><g transform="translate(-1.186006 2.312607)"><path d="m471.48986 207.6v-6.605"/><path d="m469.75403 202.73197 1.73583-1.73697 1.73628 1.73697" stroke-linecap="round" stroke-linejoin="round"/></g><g transform="matrix(0 1 -1 0 682.12784 -264.19038)"><path d="m475.88023 210.00984v-6.10464"/><path d="m474.14424 205.64156 1.73599-1.73636 1.73612 1.73636" stroke-linecap="round" stroke-linejoin="round"/></g><circle cx="470.30371" cy="211.68971" r="1.800632" stroke-linecap="round" stroke-linejoin="round"/></g><g stroke-linecap="round" stroke-width="1.00082"><path d="m473.31787 208.67619.4302-.44676" opacity=".7"/><path d="m471.76625 210.24534.4302-.44676" opacity=".7"/></g></g></svg>