<svg height="1600" viewBox="0 0 1600 1600" width="1600" xmlns="http://www.w3.org/2000/svg" xmlns:inkscape="http://www.inkscape.org/namespaces/inkscape" xmlns:sodipodi="http://sodipodi.sourceforge.net/DTD/sodipodi-0.dtd"><sodipodi:namedview pagecolor="#303030" showgrid="true"><inkscape:grid id="grid5" units="px" spacingx="100" spacingy="100" color="#4772b3" opacity="0.2" visible="true" /></sodipodi:namedview><g fill="#fff"><path d="m533.49219 157.99219a.50005.50005 0 0 0 -.38867.19531.50005.50005 0 0 0 -.004.006l-1.95313 1.95312a.50005.50005 0 1 0 .70704.70704l1.14657-1.14663v7.57422c-.59355.34821-1 .9856-1 1.71875 0 1.09865.90135 2 2 2 .73315 0 1.37054-.40645 1.71875-1h7.57422l-1.14649 1.14648a.50005.50005 0 1 0 .70704.70704l1.95703-1.95704a.50005.50005 0 0 0 .002-.79296.50005.50005 0 0 0 -.006-.004l-1.95312-1.95313a.50005.50005 0 0 0 -.35938-.15234.50005.50005 0 0 0 -.34766.85938l1.14658 1.14657h-7.29297c0-1.09865-.90135-2-2-2v-7.29297l1.14648 1.14649a.50005.50005 0 1 0 .70704-.70704l-1.95704-1.95703a.50005.50005 0 0 0 -.40429-.19726zm.50781 10.00781c.55821 0 1 .44179 1 1s-.44179 1-1 1-1-.44179-1-1 .44179-1 1-1z" transform="matrix(100 0 0 100 -52999.9886 -15699.959)"/></g></svg>