<svg height="1600" viewBox="0 0 1600 1600" width="1600" xmlns="http://www.w3.org/2000/svg" xmlns:inkscape="http://www.inkscape.org/namespaces/inkscape" xmlns:sodipodi="http://sodipodi.sourceforge.net/DTD/sodipodi-0.dtd"><sodipodi:namedview pagecolor="#303030" showgrid="true"><inkscape:grid id="grid5" units="px" spacingx="100" spacingy="100" color="#4772b3" opacity="0.2" visible="true" /></sodipodi:namedview><g fill="#fff"><g enable-background="new" transform="translate(-233 -365)"><path d="m1028 1556c-3.2833 0-6 2.4414-6 5.5 0 1.7056.9046 3.146 2.1523 4.3594l.9942.9941a.50004997.50004997 0 0 0 .3027.1485.50004997.50004997 0 0 0 .051.998h5a.50004997.50004997 0 0 0 .045-.998.50004997.50004997 0 0 0 .3086-.1485l.9981-.998c1.2122-1.1985 2.1465-2.6518 2.1465-4.3535 0-3.0586-2.7167-5.5-6-5.5zm0 1c2.7919 0 5 2.0358 5 4.5 0 1.3342-.7428 2.5488-1.8516 3.6445l-1 1a.50004997.50004997 0 0 0 .2793.8535h-4.8594a.50004997.50004997 0 0 0 .2871-.8535l-1-1a.50004997.50004997 0 0 0 -.01-.01c-1.1397-1.1082-1.8477-2.2864-1.8477-3.6406 0-2.4642 2.2081-4.5 5-4.5zm-2.5 12a.50004997.50004997 0 1 0 0 1h1.5v.5a.50004997.50004997 0 0 0 .5.5h1a.50004997.50004997 0 0 0 .5-.5v-.5h1.5a.50004997.50004997 0 1 0 0-1z"/><path d="m1025.4902 1561.0059a.50005.50005 0 0 0 -.3437.8476l.8535.8535v1.543a.50005.50005 0 1 0 1 0v-1.25h2v1.25a.50005.50005 0 1 0 1 0v-1.543l.8535-.8535a.50005.50005 0 0 0 -.707-.707l-.8535.8535h-2.586l-.8535-.8535a.50005.50005 0 0 0 -.3633-.1406z" opacity=".6"/></g><path d="m471.32227 452.0625c-1.71014.07277-3.32227 1.4838-3.32227 3.9375 0 1.29326.43161 2.55298 1.07227 3.72852.16015.29312.55714.34983.79296.11328l3.63477-3.63477 1.64648 1.64649c.19527.19519.51177.19519.70704 0l2.64648-2.64649 2.48242 2.48242c.27743.27645.75058.14111.83985-.24023.11084-.47404.17773-.95765.17773-1.44922 0-2.4537-1.61213-3.86473-3.32227-3.9375-1.52139-.0647-3.0532.927-3.67773 2.69727-.62453-1.77027-2.15634-2.76201-3.67773-2.69727zm7.16992 5.9375c-.12989.002-.25387.0546-.34571.14648l-2.64648 2.64649-1.64648-1.64649c-.19527-.19519-.51177-.19519-.70704 0l-2.34765 2.34766c-.18257.18194-.19694.47283-.0332.67188 1.2321 1.49847 2.62304 2.79208 3.65235 3.70703.0914.0816.20953.12673.33202.12695h.5c.12249-.00022.24064-.0454.33203-.12695 1.41546-1.2582 3.54029-3.21344 4.96094-5.48828.12374-.19754.0946-.45438-.0703-.61915l-1.61914-1.61914c-.0957-.0957-.22604-.14856-.36134-.14648z" transform="matrix(100 0 0 100 -46699.99999999999 -45102.9758)"/></g></svg>