<svg height="1600" viewBox="0 0 1600 1600" width="1600" xmlns="http://www.w3.org/2000/svg" xmlns:inkscape="http://www.inkscape.org/namespaces/inkscape" xmlns:sodipodi="http://sodipodi.sourceforge.net/DTD/sodipodi-0.dtd"><sodipodi:namedview pagecolor="#303030" showgrid="true"><inkscape:grid id="grid5" units="px" spacingx="100" spacingy="100" color="#4772b3" opacity="0.2" visible="true" /></sodipodi:namedview><g fill="#fff"><path d="m471.32227 452.0625c-1.71014.07277-3.32227 1.4838-3.32227 3.9375 0 1.29326.43161 2.55298 1.07227 3.72852.16015.29312.55714.34983.79296.11328l3.63477-3.63477 1.64648 1.64649c.19527.19519.51177.19519.70704 0l2.64648-2.64649 2.48242 2.48242c.27743.27645.75058.14111.83985-.24023.11084-.47404.17773-.95765.17773-1.44922 0-2.4537-1.61213-3.86473-3.32227-3.9375-1.52139-.0647-3.0532.927-3.67773 2.69727-.62453-1.77027-2.15634-2.76201-3.67773-2.69727zm7.16992 5.9375c-.12989.002-.25387.0546-.34571.14648l-2.64648 2.64649-1.64648-1.64649c-.19527-.19519-.51177-.19519-.70704 0l-2.34765 2.34766c-.18257.18194-.19694.47283-.0332.67188 1.2321 1.49847 2.62304 2.79208 3.65235 3.70703.0914.0816.20953.12673.33202.12695h.5c.12249-.00022.24064-.0454.33203-.12695 1.41546-1.2582 3.54029-3.21344 4.96094-5.48828.12374-.19754.0946-.45438-.0703-.61915l-1.61914-1.61914c-.0957-.0957-.22604-.14856-.36134-.14648z" transform="matrix(100 0 0 100 -46699.99999999999 -45102.9758)"/></g></svg>