<svg height="1600" viewBox="0 0 1600 1600" width="1600" xmlns="http://www.w3.org/2000/svg" xmlns:inkscape="http://www.inkscape.org/namespaces/inkscape" xmlns:sodipodi="http://sodipodi.sourceforge.net/DTD/sodipodi-0.dtd"><sodipodi:namedview pagecolor="#303030" showgrid="true"><inkscape:grid id="grid5" units="px" spacingx="100" spacingy="100" color="#4772b3" opacity="0.2" visible="true" /></sodipodi:namedview><g fill="#fff"><path d="m30.560537 94.85135a.50005.50005 0 0 0 -.41797.20312c-2.41605 3.180716-3.44475 6.00321-3.85742 8.28711s-.21655 4.04989-.21875 5.00586a.50005.50005 0 1 0 1 .004c.002-1.08433-.18375-2.69094.20312-4.83203.38687-2.1411 1.34101-4.795944 3.66797-7.85938a.50005.50005 0 0 0 -.37695-.80858zm4.95508 3.001946a.50005.50005 0 0 0 -.30469.12695c-4.12358 3.585044-5.17188 7.536354-5.17188 10.376954a.50005.50005 0 1 0 1 0c0-2.60021.91362-6.21978 4.82813-9.623044a.50005.50005 0 0 0 -.35156-.88086zm4.02539 5.003904c-3.01703-.006-5.49429 2.47075-5.50196 5.49805a.50005.50005 0 1 0 1 .004c.006-2.48438 2.031-4.50726 4.50001-4.50195a.50005.50005 0 1 0 .002-1z" transform="matrix(100 0 0 100 -2503.4417 -9385.772)"/></g></svg>