<svg height="1600" viewBox="0 0 1600 1600" width="1600" xmlns="http://www.w3.org/2000/svg" xmlns:inkscape="http://www.inkscape.org/namespaces/inkscape" xmlns:sodipodi="http://sodipodi.sourceforge.net/DTD/sodipodi-0.dtd"><sodipodi:namedview pagecolor="#303030" showgrid="true"><inkscape:grid id="grid5" units="px" spacingx="100" spacingy="100" color="#4772b3" opacity="0.2" visible="true" /></sodipodi:namedview><g fill="#fff"><g enable-background="new" transform="translate(-233 -365)"><path d="m1028 1556c-3.2833 0-6 2.4414-6 5.5 0 1.7056.9046 3.146 2.1523 4.3594l.9942.9941a.50004997.50004997 0 0 0 .3027.1485.50004997.50004997 0 0 0 .051.998h5a.50004997.50004997 0 0 0 .045-.998.50004997.50004997 0 0 0 .3086-.1485l.9981-.998c1.2122-1.1985 2.1465-2.6518 2.1465-4.3535 0-3.0586-2.7167-5.5-6-5.5zm0 1c2.7919 0 5 2.0358 5 4.5 0 1.3342-.7428 2.5488-1.8516 3.6445l-1 1a.50004997.50004997 0 0 0 .2793.8535h-4.8594a.50004997.50004997 0 0 0 .2871-.8535l-1-1a.50004997.50004997 0 0 0 -.01-.01c-1.1397-1.1082-1.8477-2.2864-1.8477-3.6406 0-2.4642 2.2081-4.5 5-4.5zm-2.5 12a.50004997.50004997 0 1 0 0 1h1.5v.5a.50004997.50004997 0 0 0 .5.5h1a.50004997.50004997 0 0 0 .5-.5v-.5h1.5a.50004997.50004997 0 1 0 0-1z"/><path d="m1025.4902 1561.0059a.50005.50005 0 0 0 -.3437.8476l.8535.8535v1.543a.50005.50005 0 1 0 1 0v-1.25h2v1.25a.50005.50005 0 1 0 1 0v-1.543l.8535-.8535a.50005.50005 0 0 0 -.707-.707l-.8535.8535h-2.586l-.8535-.8535a.50005.50005 0 0 0 -.3633-.1406z" opacity=".6"/></g><path d="m221.5 410a.50005.50005 0 0 0 -.35352.14648l-2.85351 2.85352h-1.79297a.50005.50005 0 0 0 -.5.5v7a.50005.50005 0 0 0 .5.5h1.79297l2.85351 2.85352a.50005.50005 0 0 0 .35352.14648h1a.50005.50005 0 0 0 .5-.5v-12.71875-.28125a.50005.50005 0 0 0 -.5-.5zm.20703 1h.29297v12h-.29297l-2.85351-2.85352a.50005.50005 0 0 0 -.35352-.14648h-1.5v-6h1.5a.50005.50005 0 0 0 .35352-.14648zm6.75977 1.01562a.50005.50005 0 0 0 -.42188.72071c1.27607 2.70648 1.27328 5.84072-.008 8.54492a.50017783.50017783 0 1 0 .9043.42773c1.40867-2.97397 1.41099-6.42391.008-9.40039a.50005.50005 0 0 0 -.48242-.29297zm-2.86133.9375a.50005.50005 0 0 0 -.43359.74219c1.10286 2.06013 1.1045 4.5334.006 6.59571a.50023236.50023236 0 1 0 .88282.4707c1.25518-2.35583 1.25221-5.18378-.008-7.53711a.50005.50005 0 0 0 -.44726-.27149z" transform="matrix(100 0 0 100 -21499.98 -40900)"/></g></svg>