<svg height="1600" viewBox="0 0 1600 1600" width="1600" xmlns="http://www.w3.org/2000/svg" xmlns:inkscape="http://www.inkscape.org/namespaces/inkscape" xmlns:sodipodi="http://sodipodi.sourceforge.net/DTD/sodipodi-0.dtd"><sodipodi:namedview pagecolor="#303030" showgrid="true"><inkscape:grid id="grid5" units="px" spacingx="100" spacingy="100" color="#4772b3" opacity="0.2" visible="true" /></sodipodi:namedview><g fill="#fff"><path d="m269.13867 410.0332c-.49613-.0451-1.03862.15972-1.49219.61328l-8.5 8.5c-.0639.0642-.10909.14453-.13086.23243l-1 4c-.0904.36537.2401.69582.60547.60547l4-1c.0879-.0218.16823-.067.23243-.13086l8.5-8.5c.45356-.45357.65838-.99606.61328-1.49219s-.30436-.90592-.61328-1.21485l-1-1c-.30893-.30892-.71872-.56817-1.21485-.61328zm-1.88867 2.42383 2.29297 2.29297-7.29883 7.29883-3.05859.76562.76562-3.05859z" transform="matrix(100 0 0 100 -25698.672 -40901.3271)"/></g></svg>