<svg height="1600" viewBox="0 0 1600 1600" width="1600" xmlns="http://www.w3.org/2000/svg" xmlns:inkscape="http://www.inkscape.org/namespaces/inkscape" xmlns:sodipodi="http://sodipodi.sourceforge.net/DTD/sodipodi-0.dtd"><sodipodi:namedview pagecolor="#303030" showgrid="true"><inkscape:grid id="grid5" units="px" spacingx="100" spacingy="100" color="#4772b3" opacity="0.2" visible="true" /></sodipodi:namedview><g fill="#fff"><path d="m139.512 94.8218c-.39468.0302-.78775.12022-1.16797.27148-1.52086.60507-2.52148 2.07999-2.52148 3.716796-.00076.0448.004.0894.0156.13281-.36519.0927-.72282.22834-1.0586.42774-1.44139.855954-2.17088 2.516884-1.8789 4.144534-.68715.57705-1.10816 1.44799-1.07617 2.39648.0502 1.48769 1.19214 2.71921 2.67187 2.88086 1.39818.15274 2.69975-.69789 3.15234-2.00781.89605.0388 1.7697-.22225 2.49805-.74609 1.07373.85551 2.55788 1.01607 3.78907.37695 1.3017-.67573 2.04373-2.09602 1.85741-3.55078-.16328-1.27499-1.01005-2.34261-2.17967-2.80664.45466-1.382424.13144-2.9211-.88477-3.9961-.56221-.59473-1.27728-.98709-2.04298-1.15625-.38285-.0846-.77914-.11418-1.17382-.084z" transform="matrix(100 0 0 100 -13082.221 -9381.02299999999)"/></g></svg>