<svg height="1600" viewBox="0 0 1600 1600" width="1600" xmlns="http://www.w3.org/2000/svg" xmlns:inkscape="http://www.inkscape.org/namespaces/inkscape" xmlns:sodipodi="http://sodipodi.sourceforge.net/DTD/sodipodi-0.dtd"><sodipodi:namedview pagecolor="#303030" showgrid="true"><inkscape:grid id="grid5" units="px" spacingx="100" spacingy="100" color="#4772b3" opacity="0.2" visible="true" /></sodipodi:namedview><g fill="#fff"><g enable-background="new" transform="translate(-233 -365)"><path d="m1028 1556c-3.2833 0-6 2.4414-6 5.5 0 1.7056.9046 3.146 2.1523 4.3594l.9942.9941a.50004997.50004997 0 0 0 .3027.1485.50004997.50004997 0 0 0 .051.998h5a.50004997.50004997 0 0 0 .045-.998.50004997.50004997 0 0 0 .3086-.1485l.9981-.998c1.2122-1.1985 2.1465-2.6518 2.1465-4.3535 0-3.0586-2.7167-5.5-6-5.5zm0 1c2.7919 0 5 2.0358 5 4.5 0 1.3342-.7428 2.5488-1.8516 3.6445l-1 1a.50004997.50004997 0 0 0 .2793.8535h-4.8594a.50004997.50004997 0 0 0 .2871-.8535l-1-1a.50004997.50004997 0 0 0 -.01-.01c-1.1397-1.1082-1.8477-2.2864-1.8477-3.6406 0-2.4642 2.2081-4.5 5-4.5zm-2.5 12a.50004997.50004997 0 1 0 0 1h1.5v.5a.50004997.50004997 0 0 0 .5.5h1a.50004997.50004997 0 0 0 .5-.5v-.5h1.5a.50004997.50004997 0 1 0 0-1z"/><path d="m1025.4902 1561.0059a.50005.50005 0 0 0 -.3437.8476l.8535.8535v1.543a.50005.50005 0 1 0 1 0v-1.25h2v1.25a.50005.50005 0 1 0 1 0v-1.543l.8535-.8535a.50005.50005 0 0 0 -.707-.707l-.8535.8535h-2.586l-.8535-.8535a.50005.50005 0 0 0 -.3633-.1406z" opacity=".6"/></g><path d="m160.5 431a1.5 1.5 0 0 0 -1.5 1.5 1.5 1.5 0 0 0 .0879.5h-4.56836a1.50015 1.50015 0 1 0 0 3h3.48046v1.94922c-1.31983 1.3363-2.47353 2.76999-2.9707 5.25586a1.50015 1.50015 0 1 0 2.9414.58984c.37009-1.85045.99513-2.60285 2.0293-3.6289 1.03417 1.02605 1.65921 1.77845 2.0293 3.6289a1.50015 1.50015 0 1 0 2.9414-.58984c-.49717-2.48587-1.65087-3.91956-2.9707-5.25586v-1.94922h3.48047a1.50015 1.50015 0 1 0 0-3h-2.53711c-.0387.18925-.094.37697-.17774.55664-.41009.87946-1.29524 1.44336-2.26562 1.44336a.50005.50005 0 1 1 0-1 1.5 1.5 0 0 0 .41406-.0586c.009-.002.0169-.005.0254-.008a1.5 1.5 0 0 0 .35157-.16211c.006-.004.0133-.006.0195-.01a1.5 1.5 0 0 0 .004-.002 1.5 1.5 0 0 0 .29102-.25c.009-.0103.0202-.0187.0293-.0293a1.5 1.5 0 0 0 .21484-.33008c.003-.006.007-.01.01-.0156.002-.005.004-.0104.006-.0156a1.5 1.5 0 0 0 .13431-.61871 1.5 1.5 0 0 0 -1.5-1.5z" transform="matrix(100 0 0 100 -15200 -43001.1187)"/></g></svg>