<?xml version="1.0" encoding="UTF-8" standalone="no"?>
<svg
   height="1600"
   viewBox="0 0 1600 1600"
   width="1600"
   version="1.1"
   id="svg1"
   xmlns="http://www.w3.org/2000/svg"
   xmlns:svg="http://www.w3.org/2000/svg" xmlns:inkscape="http://www.inkscape.org/namespaces/inkscape" xmlns:sodipodi="http://sodipodi.sourceforge.net/DTD/sodipodi-0.dtd"><sodipodi:namedview pagecolor="#303030" showgrid="true"><inkscape:grid id="grid5" units="px" spacingx="100" spacingy="100" color="#4772b3" opacity="0.2" visible="true" /></sodipodi:namedview>
  <defs
     id="defs1" />
  <g
     id="g1">
    <path
       d="m161.50391 410.01476c-.82054 0-1.4961.67556-1.4961 1.49609 0 .82054.67556 1.4961 1.4961 1.4961.82053 0 1.49609-.67556 1.49609-1.4961 0-.82053-.67556-1.49609-1.49609-1.49609zm-8.00391.99568c-.27613.00002-.49649.21343-.49652.48956v3c.00003.27613.22039.51215.49652.51218h3c.27613-.00003.49997-.23605.5-.51218l.003-.48956h.51214 2.49283l-.005 3.27667c-1.65939 1.40974-3.2309 2.61118-3.97784 6.09698-.17787.67446.86019.89868.97656.21094.67528-3.15139 1.90949-4.07776 3.50366-5.4173 1.58398 1.34059 2.81586 2.27747 3.50387 5.42969.13318.66658 1.13543.44609.97656-.21484-.76273-3.49457-2.33364-4.70351-3.98455-6.11719l.003-3.26495h2.2255 3.28167c.6573-.009.6573-.9907 0-1l-3.03948.002c-.45945.59659-1.17125.98001-1.96875.98001-.79751 0-1.50931-.38516-1.96875-.98175h-2.01954-.51214l-.00274-1.5107c-.00003-.27613-.22387-.48954-.5-.48956zm.50348 1 2 .002-.003 2.00258h-2z"
       fill="#fff"
       fill-rule="evenodd"
       transform="matrix(100 0 0 100 -15200.43 -40901.182)"
       id="path1" />
  </g>
</svg>
