<svg height="1600" viewBox="0 0 1600 1600" width="1600" xmlns="http://www.w3.org/2000/svg" xmlns:inkscape="http://www.inkscape.org/namespaces/inkscape" xmlns:sodipodi="http://sodipodi.sourceforge.net/DTD/sodipodi-0.dtd"><sodipodi:namedview pagecolor="#303030" showgrid="true"><inkscape:grid id="grid5" units="px" spacingx="100" spacingy="100" color="#4772b3" opacity="0.2" visible="true" /></sodipodi:namedview><g fill="#fff"><path d="m70.5 410a.50005.50005 0 0 0 -.5.5v3a.50005.50005 0 0 0 .5.5h.859375l-.824219 3.29883a.50005.50005 0 0 0 -.04102.16797l-1.478516 5.91211a.50005.50005 0 0 0 .48438.62109h4.921875a.50005.50005 0 0 0 .160156 0h4.892578a.50005.50005 0 0 0 .484375-.37695l3.03711-11.99024a.50005.50005 0 0 0 -.484375-.62304l-4.90625-.006a.50005.50005 0 0 0 -.205078 0l-3.400391-.00377v-.5a.50005.50005 0 0 0 -.5-.5zm.5 1h2v2h-.921875a.50005.50005 0 0 0 -.160156 0h-.917969zm3 1 2.859375.004-1.25 4.99609h-3.96875l.75-3h1.109375a.50005.50005 0 0 0 .5-.5zm3.888672.004 3.980469.006-1.263672 4.99h-3.964844zm-6.498047 5.996h3.96875l-1.25 5h-3.96875zm5 0h3.960937l-1.265624 5h-3.945313z" transform="matrix(100 0 0 100 -6800.6102 -40900.3227)"/></g></svg>