<svg height="1600" viewBox="0 0 1600 1600" width="1600" xmlns="http://www.w3.org/2000/svg" xmlns:inkscape="http://www.inkscape.org/namespaces/inkscape" xmlns:sodipodi="http://sodipodi.sourceforge.net/DTD/sodipodi-0.dtd"><sodipodi:namedview pagecolor="#303030" showgrid="true"><inkscape:grid id="grid5" units="px" spacingx="100" spacingy="100" color="#4772b3" opacity="0.2" visible="true" /></sodipodi:namedview><g fill="#fff"><path d="m291.98438 431.0625c-1.31822 0-2.69153.28723-3.69727 1.29297a1.0001 1.0001 0 1 0 1.41406 1.41406c.49426-.49426 1.2483-.70703 2.28321-.70703a1.0001 1.0001 0 1 0 0-2zm-7.24024 3.04297c-.74589-.0115-1.46694.0868-2.13086.30664-1.32784.43972-2.4721 1.53683-2.61719 3.06055-.19518 2.0499.80702 3.49399 1.02735 4.3457.14607.56468.0225.72298-.18164.91797-.20413.19499-.61247.33203-.84961.33203a1.0001 1.0001 0 1 0 0 2c.76285 0 1.57391-.25956 2.23047-.88672.65655-.62715 1.03297-1.71849.73632-2.86523-.37187-1.43756-1.0944-2.37562-.97265-3.6543.0682-.71615.4403-1.08149 1.25586-1.35156.81556-.27008 2.03005-.27431 3.23242.0684 1.20237.34267 2.38417 1.01511 3.21875 1.95703.83458.94191 1.35114 2.12713 1.29297 3.68945-.0218.58526-.18864.77371-.37305.89453-.18441.12083-.50228.18156-.91016.0723-.65709-.17607-1.01294-.58503-1.30078-1.30274-.28784-.7177-.4082-1.70364-.4082-2.62695a1.0001 1.0001 0 1 0 -2 0c0 1.07669.11104 2.27463.55078 3.37109.43975 1.09647 1.30771 2.13309 2.64063 2.49024.84212.22565 1.76567.1664 2.52343-.33008.75729-.49617 1.23505-1.42269 1.2754-2.49219v-.002c.0762-2.06159-.66061-3.80964-1.79493-5.08984-1.1347-1.28064-2.63964-2.11968-4.16601-2.55469-.76319-.21751-1.53341-.33806-2.2793-.34961z" transform="matrix(100 0 0 100 -27798.828 -43006.543)"/></g></svg>