<svg height="1600" viewBox="0 0 1600 1600" width="1600" xmlns="http://www.w3.org/2000/svg" xmlns:inkscape="http://www.inkscape.org/namespaces/inkscape" xmlns:sodipodi="http://sodipodi.sourceforge.net/DTD/sodipodi-0.dtd"><sodipodi:namedview pagecolor="#303030" showgrid="true"><inkscape:grid id="grid5" units="px" spacingx="100" spacingy="100" color="#4772b3" opacity="0.2" visible="true" /></sodipodi:namedview><g fill="#fff"><path d="m100.45117 431c-.36065.005-.725199.0666-1.080078.1875-1.419514.48381-2.371094 1.8128-2.371094 3.3125a.50005006.50005006 0 1 1 -1 0c0-.53249.102694-1.04562.277344-1.52734-.0921.0103-.173784.0274-.277344.0273-3.307786 0-6 2.69221-6 6s2.692214 6 6 6 6.000002-2.69221 6.000002-6v-.002c-.00047-.11093.014-.19694.0332-.27344-.83987.3046-1.77022.36483-2.67578.12695a.50005006.50005006 0 1 1 .253906-.96679c1.450494.38101 2.978064-.20116 3.806644-1.45118.82858-1.25001.7694-2.88277-.14649-4.07031-.68691-.89068-1.73836-1.37897-2.82031-1.36328z" transform="matrix(100 0 0 100 -8900.0586 -42999.9752)"/></g></svg>