<svg height="1600" viewBox="0 0 1600 1600" width="1600" xmlns="http://www.w3.org/2000/svg" xmlns:inkscape="http://www.inkscape.org/namespaces/inkscape" xmlns:sodipodi="http://sodipodi.sourceforge.net/DTD/sodipodi-0.dtd"><sodipodi:namedview pagecolor="#303030" showgrid="true"><inkscape:grid id="grid5" units="px" spacingx="100" spacingy="100" color="#4772b3" opacity="0.2" visible="true" /></sodipodi:namedview><g fill="#fff"><path d="m161.50391 410c-.82054 0-1.4961.67556-1.4961 1.49609 0 .82054.67556 1.4961 1.4961 1.4961.82053 0 1.49609-.67556 1.49609-1.4961 0-.82053-.67556-1.49609-1.49609-1.49609zm-8.00391 1a.50005.50005 0 0 0 -.5.5v3a.50005.50005 0 0 0 .5.5h3a.50005.50005 0 0 0 .5-.5v-.5h.51562 2.49805l-.01367 3.28711c-1.65939 1.40974-3.24134 2.62162-3.98828 6.10742-.17787.67446.86019.89868.97656.21094.67528-3.15139 1.92341-4.0882 3.51758-5.42774 1.58398 1.34059 2.83152 2.27747 3.51953 5.42969.13318.66658 1.13543.44609.97656-.21484-.76273-3.49457-2.35104-4.70351-4.00195-6.11719l.01367-3.27539h2.2168 3.28515c.6573-.009.6573-.9907 0-1h-3.04296c-.45945.59659-1.17125.99219-1.96875.99219-.79751 0-1.50931-.3956-1.96875-.99219h-2.01954-.51562v-1.5a.50005.50005 0 0 0 -.5-.5zm.5 1h2v2h-2z" fill-rule="evenodd" transform="matrix(100 0 0 100 -15200.42999999999 -40901.1816)"/></g></svg>