<svg height="1600" viewBox="0 0 1600 1600" width="1600" xmlns="http://www.w3.org/2000/svg" xmlns:inkscape="http://www.inkscape.org/namespaces/inkscape" xmlns:sodipodi="http://sodipodi.sourceforge.net/DTD/sodipodi-0.dtd"><sodipodi:namedview pagecolor="#303030" showgrid="true"><inkscape:grid id="grid5" units="px" spacingx="100" spacingy="100" color="#4772b3" opacity="0.2" visible="true" /></sodipodi:namedview><g fill="#fff"><g enable-background="new" transform="matrix(94.749902 0 0 100.99748 -8415.0689 -28548.536)"><path d="m92.893099 283.6795c1.65093 0 3 1.34907 3 3s-1.34907 3-3 3-3-1.34907-3-3 1.34907-3 3-3zm0 1c-1.11049 0-2 .88951-2 2s.88951 2 2 2 2-.88951 2-2-.88951-2-2-2z"/><path d="m101.62043 287.72696c1.65093 0 3 1.34907 3 3s-1.34907 3-3 3c-1.65092 0-2.999992-1.34907-2.999992-3s1.349072-3 2.999992-3zm0 1c-1.11049 0-1.999992.88951-1.999992 2s.889502 2 1.999992 2 2-.88951 2-2-.88951-2-2-2z"/><path d="m94.284412 291.52146c1.65093 0 3 1.34907 3 3s-1.34907 3-3 3-2.999998-1.34907-2.999998-3 1.349068-3 2.999998-3zm0 1c-1.11049 0-1.999998.88951-1.999998 2s.889508 2 1.999998 2 2-.88951 2-2-.88951-2-2-2z"/></g></g></svg>