<svg height="1600" viewBox="0 0 1600 1600" width="1600" xmlns="http://www.w3.org/2000/svg" xmlns:inkscape="http://www.inkscape.org/namespaces/inkscape" xmlns:sodipodi="http://sodipodi.sourceforge.net/DTD/sodipodi-0.dtd"><sodipodi:namedview pagecolor="#303030" showgrid="true"><inkscape:grid id="grid5" units="px" spacingx="100" spacingy="100" color="#4772b3" opacity="0.2" visible="true" /></sodipodi:namedview><g fill="#fff"><g enable-background="new" transform="matrix(100 0 0 100 45300.00000000001 -71000)"><path d="m437 710h16v16h-16z" fill-rule="evenodd" opacity="0" transform="scale(-1 1)"/><path d="m-447.96289 710.98828a1.0001 1.0001 0 0 0 -.83789.41211c-3.30626 4.40835-3.18183 10.96743-3.18555 12.58399a1.0001 1.0001 0 1 0 2 .006c.004-1.64212.0934-7.79897 2.78711-11.39062a1.0001 1.0001 0 0 0 -.76367-1.61133zm4.97461 3.00195a1.0001 1.0001 0 0 0 -.69727.28125c-2.25424 2.12239-3.3739 3.98924-3.89062 5.64258-.51673 1.65335-.42383 3.04979-.42383 4.08594a1.0001 1.0001 0 1 0 2 0c0-1.13631-.0696-2.20308.33203-3.48828.40167-1.28521 1.28135-2.83224 3.35352-4.7832a1.0001 1.0001 0 0 0 -.67383-1.73829zm3.94531 4.00782a1.0001 1.0001 0 0 0 -.16797.0234c-2.45714.52828-4.78906 2.80717-4.78906 5.97855a1.0001 1.0001 0 1 0 2 0c0-2.17354 1.66808-3.68979 3.21094-4.02148a1.0001 1.0001 0 0 0 -.25391-1.98047z"/></g></g></svg>