<svg height="1600" viewBox="0 0 1600 1600" width="1600" xmlns="http://www.w3.org/2000/svg" xmlns:inkscape="http://www.inkscape.org/namespaces/inkscape" xmlns:sodipodi="http://sodipodi.sourceforge.net/DTD/sodipodi-0.dtd"><sodipodi:namedview pagecolor="#303030" showgrid="true"><inkscape:grid id="grid5" units="px" spacingx="100" spacingy="100" color="#4772b3" opacity="0.2" visible="true" /></sodipodi:namedview><g fill="#fff"><path d="m197.50977 409.99414c-.27613.00003-.49997.22387-.5.5v3c.00003.27613.22387.49997.5.5h1.5039c.0205.58311.0403 1.03618-.0488 1.24805-.22838.54301-.5609.82668-1.00781 1.10937s-1.00733.53131-1.53711.97461c-.52977.4433-1.00108 1.10059-1.22656 2.08789s-.2332 2.29903.0625 4.16406c.0385.24311.24801.42203.49414.42188h8.75586c.30739.00014.54213-.2745.49414-.57812-.36883-2.32606-.21493-3.6368.12305-4.40821.33798-.7714.85304-1.08606 1.49804-1.45508.645-.36901 1.43565-.7809 1.90821-1.70703.47255-.92613.59571-2.25921.21289-4.4375-.04179-.23922-.24938-.41386-.49222-.41406h-7.24023v-.50586c-.00003-.27613-.22387-.49997-.5-.5zm.5 1h2v2h-2zm3 1.00586h6.78125c.25456 1.74951.14487 2.81594-.15235 3.39844-.3247.63637-.84774.91198-1.51367 1.29297-.66593.38098-1.46183.87882-1.91797 1.91992-.41222.94085-.49675 2.35477-.23633 4.38867h-7.73437c-.19264-1.47462-.23076-2.65205-.0684-3.36328.18281-.80045.49635-1.21142.89258-1.54297.39622-.33155.90291-.56523 1.42968-.89844.52678-.33321 1.07351-.7985 1.39649-1.5664.22021-.52359.17686-1.05487.13867-1.63477h.48438c.27613-.00003.49997-.22387.5-.5z" transform="matrix(100 0 0 100 -19399.871 -40899.707)"/></g></svg>