<svg height="1600" viewBox="0 0 1600 1600" width="1600" xmlns="http://www.w3.org/2000/svg" xmlns:inkscape="http://www.inkscape.org/namespaces/inkscape" xmlns:sodipodi="http://sodipodi.sourceforge.net/DTD/sodipodi-0.dtd"><sodipodi:namedview pagecolor="#303030" showgrid="true"><inkscape:grid id="grid5" units="px" spacingx="100" spacingy="100" color="#4772b3" opacity="0.2" visible="true" /></sodipodi:namedview><g fill="#fff"><path d="m52.5 410a.50005.50005 0 0 0 -.5.5v3a.50005.50005 0 0 0 .5.5h3a.50005.50005 0 0 0 .5-.5v-1.5h.5c1.293073 0 2.425866.35206 3.21875 1.00977.792884.6577 1.28125 1.61429 1.28125 2.99023 0 1.58333-.78109 3.05511-2.240234 4.16406-1.459145 1.10895-3.600675 1.83594-6.259766 1.83594h-.5v-1.5a.50005.50005 0 0 0 -.5-.5h-3a.50005.50005 0 0 0 -.5.5v3a.50005.50005 0 0 0 .5.5h3a.50005.50005 0 0 0 .5-.5v-.5h.5c2.840909 0 5.199379-.77301 6.865234-2.03906 1.665856-1.26605 2.634766-3.04427 2.634766-4.96094 0-1.62406-.627176-2.91747-1.642578-3.75977-1.015402-.84229-2.383638-1.24023-3.857422-1.24023h-.5v-.5a.50005.50005 0 0 0 -.5-.5zm.5 1h2v2h-2zm-4 10h2v2h-2z" fill-rule="evenodd" transform="matrix(100 0 0 100 -4700 -40900)"/></g></svg>