<svg height="1600" viewBox="0 0 1500 1600" width="1500" xmlns="http://www.w3.org/2000/svg" xmlns:inkscape="http://www.inkscape.org/namespaces/inkscape" xmlns:sodipodi="http://sodipodi.sourceforge.net/DTD/sodipodi-0.dtd"><sodipodi:namedview pagecolor="#303030" showgrid="true"><inkscape:grid id="grid5" units="px" spacingx="100" spacingy="100" color="#4772b3" opacity="0.2" visible="true" /></sodipodi:namedview><g fill="#fff"><g enable-background="new" transform="translate(-233 -365)"><path d="m1028 1556c-3.2833 0-6 2.4414-6 5.5 0 1.7056.9046 3.146 2.1523 4.3594l.9942.9941a.50004997.50004997 0 0 0 .3027.1485.50004997.50004997 0 0 0 .051.998h5a.50004997.50004997 0 0 0 .045-.998.50004997.50004997 0 0 0 .3086-.1485l.9981-.998c1.2122-1.1985 2.1465-2.6518 2.1465-4.3535 0-3.0586-2.7167-5.5-6-5.5zm0 1c2.7919 0 5 2.0358 5 4.5 0 1.3342-.7428 2.5488-1.8516 3.6445l-1 1a.50004997.50004997 0 0 0 .2793.8535h-4.8594a.50004997.50004997 0 0 0 .2871-.8535l-1-1a.50004997.50004997 0 0 0 -.01-.01c-1.1397-1.1082-1.8477-2.2864-1.8477-3.6406 0-2.4642 2.2081-4.5 5-4.5zm-2.5 12a.50004997.50004997 0 1 0 0 1h1.5v.5a.50004997.50004997 0 0 0 .5.5h1a.50004997.50004997 0 0 0 .5-.5v-.5h1.5a.50004997.50004997 0 1 0 0-1z"/><path d="m1025.4902 1561.0059a.50005.50005 0 0 0 -.3437.8476l.8535.8535v1.543a.50005.50005 0 1 0 1 0v-1.25h2v1.25a.50005.50005 0 1 0 1 0v-1.543l.8535-.8535a.50005.50005 0 0 0 -.707-.707l-.8535.8535h-2.586l-.8535-.8535a.50005.50005 0 0 0 -.3633-.1406z" opacity=".6"/></g><path d="m180.25977 430.99023c-1.56005 0-2.83737.68503-4 1.32227-.15986.0876-.25939.25522-.25977.4375v1.75c-.002.58015.81953.69801.98047.14062.5477-1.86218 2.26129-2.69946 3.87109-2.56445.056.003.0879.0161.14258.0195 1.59419.19583 3.00586 1.28621 3.00586 3.65433v1.25h-4.17383c-1.71873 0-2.95078.48602-3.73828 1.26172-.7875.77569-1.09766 1.80326-1.09766 2.77539 0 1.37482.63393 2.43409 1.58008 3.07031.94615.63623 2.16713.89258 3.42969.89258 1.61266 0 3.42658-.64151 4.45508-1.56836.43191.42904.80166.78819 1.11328 1.03906.38759.31203.75096.5293 1.18164.5293h.75c.31531 0 .5-.25.5-.5s-.16406-.5-.5-.5c-.0833 0-.22505-.0571-.33398-.16602-.10894-.1089-.16602-.25065-.16602-.33398v-7c0-1.04167-.0843-2.5-1.08398-3.57617-1.37045-1.47528-2.91602-1.9336-5.65625-1.9336zm1.24023 7.00977h2.5v4.49023c-.8549.62028-1.60427.95721-2.2793 1.14844-.1561.0477-.30873.061-.46679.0977-.63626.10402-1.2211.10508-1.65821-.0742-1.00893-.41394-1.5957-1.45384-1.5957-2.66217 0-.63889.21654-1.3962.74414-1.97656s1.36697-1.02344 2.75586-1.02344z" transform="matrix(100 0 0 100 -17399.511 -42999.5115)"/></g></svg>