<svg height="1700" viewBox="0 0 1700 1700" width="1700" xmlns="http://www.w3.org/2000/svg" xmlns:inkscape="http://www.inkscape.org/namespaces/inkscape" xmlns:sodipodi="http://sodipodi.sourceforge.net/DTD/sodipodi-0.dtd"><sodipodi:namedview pagecolor="#303030" showgrid="true"><inkscape:grid id="grid5" units="px" spacingx="100" spacingy="100" color="#4772b3" opacity="0.2" visible="true" /></sodipodi:namedview><g fill="#fff"><g enable-background="new" transform="translate(-233 -365)"><path d="m1028 1556c-3.2833 0-6 2.4414-6 5.5 0 1.7056.9046 3.146 2.1523 4.3594l.9942.9941a.50004997.50004997 0 0 0 .3027.1485.50004997.50004997 0 0 0 .051.998h5a.50004997.50004997 0 0 0 .045-.998.50004997.50004997 0 0 0 .3086-.1485l.9981-.998c1.2122-1.1985 2.1465-2.6518 2.1465-4.3535 0-3.0586-2.7167-5.5-6-5.5zm0 1c2.7919 0 5 2.0358 5 4.5 0 1.3342-.7428 2.5488-1.8516 3.6445l-1 1a.50004997.50004997 0 0 0 .2793.8535h-4.8594a.50004997.50004997 0 0 0 .2871-.8535l-1-1a.50004997.50004997 0 0 0 -.01-.01c-1.1397-1.1082-1.8477-2.2864-1.8477-3.6406 0-2.4642 2.2081-4.5 5-4.5zm-2.5 12a.50004997.50004997 0 1 0 0 1h1.5v.5a.50004997.50004997 0 0 0 .5.5h1a.50004997.50004997 0 0 0 .5-.5v-.5h1.5a.50004997.50004997 0 1 0 0-1z"/><path d="m1025.4902 1561.0059a.50005.50005 0 0 0 -.3437.8476l.8535.8535v1.543a.50005.50005 0 1 0 1 0v-1.25h2v1.25a.50005.50005 0 1 0 1 0v-1.543l.8535-.8535a.50005.50005 0 0 0 -.707-.707l-.8535.8535h-2.586l-.8535-.8535a.50005.50005 0 0 0 -.3633-.1406z" opacity=".6"/></g><g enable-background="new" transform="matrix(100 0 0 100 36800.00300000001 -184600.223)"><path d="m-356.5 1850c-.8225 0-1.5.6775-1.5 1.5s.6775 1.5 1.5 1.5 1.5-.6775 1.5-1.5-.6775-1.5-1.5-1.5zm0 1c.28206 0 .5.2179.5.5s-.21794.5-.5.5-.5-.2179-.5-.5.21794-.5.5-.5zm-7 1a.5.5 0 0 0 -.5.5.5.5 0 0 0 .5.5.5.5 0 0 0 .5-.5.5.5 0 0 0 -.5-.5z" opacity=".7"/><path d="m-357.5 1856.0041h.49805c3.5943 0 5.00195-2.5001 5.00195-4.5001 0-2.4794-2.02064-4.5-4.5-4.5-1.88915 0-3.45662 1.2594-4.10547 3h-.51758c-.64602-.6132-1.47755-.9979-2.375-1h-.002c-1.92707 0-3.5 1.5729-3.5 3.5s1.57293 3.5 3.5 3.5zm-6-1.0041c-1.38663 0-2.5-1.1134-2.5-2.5 0-1.386 1.11233-2.4989 2.49805-2.5.71036 0 1.38608.3048 1.85937.834.0951.1059.23074.1663.37305.166h.90234c.22809.0001.42734-.1542.48438-.375.39914-1.5459 1.78609-2.6224 3.38281-2.625 1.93892 0 3.5 1.5611 3.5 3.5 0 1.9279-1.54523 3.4765-3.46875 3.4941-.0392 0-.0785-.0006-.11719.01h-.91406zm-1.00781 1.9922c-.27614 0-.4965.2317-.49219.5078v1 1c.009.6573.9907.6573 1 0v-.5h1v1.5c.00003.1326.0527.2597.14648.3535l1 1c.0937.094.22092.1465.35352.1465h5c.27613 0 .49997-.2239.5-.5v-1.5039h.33594l2.61914 1.9043c.0852.064.18852.099.29492.1h.25c.27613 0 .49997-.2239.5-.5v-4c-.00003-.2761-.22387-.5-.5-.5h-.25c-.106-.0001-.20927.034-.29492.096l-2.61719 1.9036h-.33789v-2h-1v4h-4.29297l-.70703-.707v-3.293h-1v1h-1v-.5c.004-.2823-.22555-.5122-.50781-.5078zm11.50781 1.3086v2.3984l-1.65039-1.1992z"/><path d="m-362 1857h5v1h-5z" opacity=".6"/></g></g></svg>