<svg height="1700" viewBox="0 0 1700 1700" width="1700" xmlns="http://www.w3.org/2000/svg" xmlns:inkscape="http://www.inkscape.org/namespaces/inkscape" xmlns:sodipodi="http://sodipodi.sourceforge.net/DTD/sodipodi-0.dtd"><sodipodi:namedview pagecolor="#303030" showgrid="true"><inkscape:grid id="grid5" units="px" spacingx="100" spacingy="100" color="#4772b3" opacity="0.2" visible="true" /></sodipodi:namedview><g fill="#fff"><g enable-background="new" transform="matrix(100 0 0 100 38900.00000000001 -184600.173)"><path d="m-377.5 1847c-2.13972 0-3.85417 1.5351-4.30664 3.541-.63415-.8727-1.53397-1.541-2.69336-1.541-1.92708 0-3.5 1.573-3.5 3.5 0 1.9271 1.57294 3.5 3.5 3.5h7c2.47937 0 4.5-2.0207 4.5-4.5s-2.02063-4.5-4.5-4.5zm0 3c.82251 0 1.5.6775 1.5 1.5s-.67749 1.5-1.5 1.5-1.5-.6775-1.5-1.5.67749-1.5 1.5-1.5zm-7 1c.82251 0 1.5.6775 1.5 1.5s-.67749 1.5-1.5 1.5-1.5-.6775-1.5-1.5.67749-1.5 1.5-1.5zm7 0c-.28208 0-.5.2179-.5.5s.21792.5.5.5.5-.2179.5-.5-.21792-.5-.5-.5zm-3.94922.998c.00008.0007-.00008 0 0 0h-.05078a.50005006.50005006 0 0 0 .0508 0zm-3.05078 0c-.28208 0-.5.2179-.5.5s.21792.5.5.5.5-.2179.5-.5-.21792-.5-.5-.5z"/><path d="m-385.50781 1856.9922a.50005.50005 0 0 0 -.49219.5078v1 1a.50005.50005 0 0 0 1 0v-.5h1v1.5c.00003.1326.0527.2597.14648.3535l1 1c.0937.094.22092.1465.35352.1465h5c.27613 0 .49997-.2239.5-.5v-4c-.00003-.2761-.22387-.5-.5-.5h-6c-.27613 0-.49997.2239-.5.5v.5h-1v-.5a.50005.50005 0 0 0 -.50781-.5078zm11.99219.01c-.10819 0-.21237.042-.29688.1094l-2.5 2c-.25044.2002-.25044.581 0 .7812l2.5 2c.32747.2621.81265.029.8125-.3906v-4c.00011-.2823-.23341-.5088-.51562-.5z"/></g></g></svg>