<svg height="1600" viewBox="0 0 1600 1600" width="1600" xmlns="http://www.w3.org/2000/svg" xmlns:inkscape="http://www.inkscape.org/namespaces/inkscape" xmlns:sodipodi="http://sodipodi.sourceforge.net/DTD/sodipodi-0.dtd"><sodipodi:namedview pagecolor="#303030" showgrid="true"><inkscape:grid id="grid5" units="px" spacingx="100" spacingy="100" color="#4772b3" opacity="0.2" visible="true" /></sodipodi:namedview><g fill="#fff"><path d="m53.5 431a1.50015 1.50015 0 1 0 0 3h1.5c1.249468.006 2.332699.37671 3.013672.94141.682107.56564 1.059323 1.26298.988281 2.4707-.09036 1.53611-.972327 2.5432-2.498047 3.35351-1.525719.81032-3.632465 1.22991-5.447265 1.23438h-1.556641a1.50015 1.50015 0 1 0 0 3h1.5625.002c2.24072-.006 4.728077-.46126 6.845703-1.58594 2.117627-1.12468 3.928252-3.11228 4.087891-5.82617.120132-2.04228-.719411-3.83841-2.068359-4.95703-1.348949-1.11862-3.108979-1.6232-4.923829-1.63086h-.002z" transform="matrix(100 0 0 100 -4699.4061 -43000)"/></g></svg>