<svg height="1600" viewBox="0 0 1600 1600" width="1600" xmlns="http://www.w3.org/2000/svg" xmlns:inkscape="http://www.inkscape.org/namespaces/inkscape" xmlns:sodipodi="http://sodipodi.sourceforge.net/DTD/sodipodi-0.dtd"><sodipodi:namedview pagecolor="#303030" showgrid="true"><inkscape:grid id="grid5" units="px" spacingx="100" spacingy="100" color="#4772b3" opacity="0.2" visible="true" /></sodipodi:namedview><g fill="#fff"><path d="m199.50586 431c-.31034.00027-.5455.28021-.49219.58594.36378 2.06995.21088 3.24033-.13086 3.98828-.34174.74794-.89741 1.14621-1.5625 1.65234-.66509.50614-1.42742 1.12518-1.87304 2.24414s-.57595 2.68203-.19141 5.10742c.0385.24306.24806.422.49414.42188h8.75586c.30739.00014.54213-.27449.49414-.57812-.36857-2.32471-.21903-3.70089.13086-4.58204.34989-.88114.89751-1.32255 1.54492-1.8164s1.4068-1.03318 1.86328-2.03516.58623-2.39428.20313-4.57422c-.04176-.23922-.24935-.41386-.49219-.41406z" transform="matrix(100 0 0 100 -19399.82 -43000)"/></g></svg>