<svg height="1600" viewBox="0 0 1600 1600" width="1600" xmlns="http://www.w3.org/2000/svg" xmlns:inkscape="http://www.inkscape.org/namespaces/inkscape" xmlns:sodipodi="http://sodipodi.sourceforge.net/DTD/sodipodi-0.dtd"><sodipodi:namedview pagecolor="#303030" showgrid="true"><inkscape:grid id="grid5" units="px" spacingx="100" spacingy="100" color="#4772b3" opacity="0.2" visible="true" /></sodipodi:namedview><g fill="#fff"><path d="m160.5 431a1.5 1.5 0 0 0 -1.5 1.5 1.5 1.5 0 0 0 .0879.5h-4.56836a1.50015 1.50015 0 1 0 0 3h3.48046v1.94922c-1.31983 1.3363-2.47353 2.76999-2.9707 5.25586a1.50015 1.50015 0 1 0 2.9414.58984c.37009-1.85045.99513-2.60285 2.0293-3.6289 1.03417 1.02605 1.65921 1.77845 2.0293 3.6289a1.50015 1.50015 0 1 0 2.9414-.58984c-.49717-2.48587-1.65087-3.91956-2.9707-5.25586v-1.94922h3.48047a1.50015 1.50015 0 1 0 0-3h-2.53711c-.0387.18925-.094.37697-.17774.55664-.41009.87946-1.29524 1.44336-2.26562 1.44336a.50005.50005 0 1 1 0-1 1.5 1.5 0 0 0 .41406-.0586c.009-.002.0169-.005.0254-.008a1.5 1.5 0 0 0 .35157-.16211c.006-.004.0133-.006.0195-.01a1.5 1.5 0 0 0 .004-.002 1.5 1.5 0 0 0 .29102-.25c.009-.0103.0202-.0187.0293-.0293a1.5 1.5 0 0 0 .21484-.33008c.003-.006.007-.01.01-.0156.002-.005.004-.0104.006-.0156a1.5 1.5 0 0 0 .13431-.61871 1.5 1.5 0 0 0 -1.5-1.5z" transform="matrix(100 0 0 100 -15200 -43001.1187)"/></g></svg>