<svg height="1700" viewBox="0 0 1700 1700" width="1700" xmlns="http://www.w3.org/2000/svg" xmlns:inkscape="http://www.inkscape.org/namespaces/inkscape" xmlns:sodipodi="http://sodipodi.sourceforge.net/DTD/sodipodi-0.dtd"><sodipodi:namedview pagecolor="#303030" showgrid="true"><inkscape:grid id="grid5" units="px" spacingx="100" spacingy="100" color="#4772b3" opacity="0.2" visible="true" /></sodipodi:namedview><g fill="#fff"><g enable-background="new" transform="translate(-233 -365)"><path d="m1028 1556c-3.2833 0-6 2.4414-6 5.5 0 1.7056.9046 3.146 2.1523 4.3594l.9942.9941a.50004997.50004997 0 0 0 .3027.1485.50004997.50004997 0 0 0 .051.998h5a.50004997.50004997 0 0 0 .045-.998.50004997.50004997 0 0 0 .3086-.1485l.9981-.998c1.2122-1.1985 2.1465-2.6518 2.1465-4.3535 0-3.0586-2.7167-5.5-6-5.5zm0 1c2.7919 0 5 2.0358 5 4.5 0 1.3342-.7428 2.5488-1.8516 3.6445l-1 1a.50004997.50004997 0 0 0 .2793.8535h-4.8594a.50004997.50004997 0 0 0 .2871-.8535l-1-1a.50004997.50004997 0 0 0 -.01-.01c-1.1397-1.1082-1.8477-2.2864-1.8477-3.6406 0-2.4642 2.2081-4.5 5-4.5zm-2.5 12a.50004997.50004997 0 1 0 0 1h1.5v.5a.50004997.50004997 0 0 0 .5.5h1a.50004997.50004997 0 0 0 .5-.5v-.5h1.5a.50004997.50004997 0 1 0 0-1z"/><path d="m1025.4902 1561.0059a.50005.50005 0 0 0 -.3437.8476l.8535.8535v1.543a.50005.50005 0 1 0 1 0v-1.25h2v1.25a.50005.50005 0 1 0 1 0v-1.543l.8535-.8535a.50005.50005 0 0 0 -.707-.707l-.8535.8535h-2.586l-.8535-.8535a.50005.50005 0 0 0 -.3633-.1406z" opacity=".6"/></g><g enable-background="new" transform="matrix(100 0 0 100 38900.00000000001 -184600.173)"><path d="m-377.5 1847c-2.13972 0-3.85417 1.5351-4.30664 3.541-.63415-.8727-1.53397-1.541-2.69336-1.541-1.92708 0-3.5 1.573-3.5 3.5 0 1.9271 1.57294 3.5 3.5 3.5h7c2.47937 0 4.5-2.0207 4.5-4.5s-2.02063-4.5-4.5-4.5zm0 3c.82251 0 1.5.6775 1.5 1.5s-.67749 1.5-1.5 1.5-1.5-.6775-1.5-1.5.67749-1.5 1.5-1.5zm-7 1c.82251 0 1.5.6775 1.5 1.5s-.67749 1.5-1.5 1.5-1.5-.6775-1.5-1.5.67749-1.5 1.5-1.5zm7 0c-.28208 0-.5.2179-.5.5s.21792.5.5.5.5-.2179.5-.5-.21792-.5-.5-.5zm-3.94922.998c.00008.0007-.00008 0 0 0h-.05078a.50005006.50005006 0 0 0 .0508 0zm-3.05078 0c-.28208 0-.5.2179-.5.5s.21792.5.5.5.5-.2179.5-.5-.21792-.5-.5-.5z"/><path d="m-385.50781 1856.9922a.50005.50005 0 0 0 -.49219.5078v1 1a.50005.50005 0 0 0 1 0v-.5h1v1.5c.00003.1326.0527.2597.14648.3535l1 1c.0937.094.22092.1465.35352.1465h5c.27613 0 .49997-.2239.5-.5v-4c-.00003-.2761-.22387-.5-.5-.5h-6c-.27613 0-.49997.2239-.5.5v.5h-1v-.5a.50005.50005 0 0 0 -.50781-.5078zm11.99219.01c-.10819 0-.21237.042-.29688.1094l-2.5 2c-.25044.2002-.25044.581 0 .7812l2.5 2c.32747.2621.81265.029.8125-.3906v-4c.00011-.2823-.23341-.5088-.51562-.5z"/></g></g></svg>