<svg xmlns="http://www.w3.org/2000/svg" width="1600" height="1600">
  <g fill="#fff">
    <path d="M483 107.5c0 .272-.196.5-.5.5h-13a.5.5 0 0 1-.5-.5V102h1v5h12V97h-8v3.5a.5.5 0 0 1-.5.5h-4a.5.5 0 0 1-.353-.854l3.95-3.949a.5.5 0 0 1 .384-.197h9.02c.303 0 .5.228.5.5z" style="display:inline;opacity:1;fill:#fff;fill-opacity:1" transform="matrix(-100 0 0 100 48400.017 -9400)"/>
    <path d="M-480.5 105c-.277 0-.5.22-.5.493v.014c0 .273.223.493.5.493h2c.277 0 .5-.22.5-.493v-.014a.495.495 0 0 0-.5-.493h-2zm3.939 0c-.243 0-.44.223-.44.5s.197.5.44.5h1.122c.243 0 .439-.223.439-.5s-.196-.5-.439-.5h-1.122zm3.06 0a.499.499 0 1 0 0 1h2a.499.499 0 1 0 0-1h-2z" style="opacity:.6;fill:#fff;fill-opacity:1;stroke:none;stroke-width:.02;stroke-linecap:round;stroke-linejoin:round" transform="matrix(100 0 0 100 48400.017 -9400)"/>
  </g>
</svg>
