<svg height="1600" viewBox="0 0 1600 1600" width="1600" xmlns="http://www.w3.org/2000/svg" xmlns:inkscape="http://www.inkscape.org/namespaces/inkscape" xmlns:sodipodi="http://sodipodi.sourceforge.net/DTD/sodipodi-0.dtd"><sodipodi:namedview pagecolor="#303030" showgrid="true"><inkscape:grid id="grid5" units="px" spacingx="100" spacingy="100" color="#4772b3" opacity="0.2" visible="true" /></sodipodi:namedview><g fill="#fff"><path d="m968.5 168.00021c.2761.00003.5.22387.5.5v13c0 .27613-.2239.49997-.5.5h-13c-.2761-.00003-.5-.22387-.5-.5v-13c0-.27613.2239-.49997.5-.5zm-10 2c-.8225 0-1.5.67749-1.5 1.5s.6775 1.5 1.5 1.5 1.5-.67749 1.5-1.5-.6775-1.5-1.5-1.5zm4.97656 3c-.1708.008-.32545.10335-.41015.25195l-4 7c-.1903.33312.05.74758.43359.74805h8c.3836-.00047.62389-.41493.43359-.74805l-4-7c-.093-.16311-.26943-.26042-.45703-.25195z" fill-rule="evenodd" opacity=".99" transform="matrix(-100 0 0 100 97000 -16700.021)"/></g></svg>