<svg height="1600" viewBox="0 0 1600 1600" width="1600" xmlns="http://www.w3.org/2000/svg" xmlns:inkscape="http://www.inkscape.org/namespaces/inkscape" xmlns:sodipodi="http://sodipodi.sourceforge.net/DTD/sodipodi-0.dtd"><sodipodi:namedview pagecolor="#303030" showgrid="true"><inkscape:grid id="grid5" units="px" spacingx="100" spacingy="100" color="#4772b3" opacity="0.2" visible="true" /></sodipodi:namedview><g fill="#fff"><path d="m289.50391 410a.50005.50005 0 0 0 -.5.5v1.5h-.99414c-1.17529 0-2.25213.41841-2.88477 1.18164-.28029.32895-.0395.83456.39258.82422.14712-.004.28501-.0726.37695-.1875.37548-.45299 1.18853-.81836 2.11524-.81836h.99414v.5a.50005.50005 0 0 0 .5.5h3a.50005.50005 0 0 0 .5-.5v-3a.50005.50005 0 0 0 -.5-.5zm.5 1h2v2h-2zm-4.58594 3.95898c-1.10666.0478-2.07229.36866-2.82031.91211-.99737.72461-1.58789 1.85424-1.58789 3.12891v1h-1.50586a.50005.50005 0 0 0 -.5.5v3a.50005.50005 0 0 0 .5.5h3a.50005.50005 0 0 0 .5-.5v-3a.50005.50005 0 0 0 -.5-.5h-.49414v-1c0-.97533.41802-1.76979 1.17578-2.32031.75777-.55053 1.87662-.84701 3.26562-.6836 1.98998.23412 3.41358 1.22814 4.10352 2.33203.68994 1.10391.68215 2.23778-.14844 3.06836-.83795.83796-1.98844.89361-3.08398.26368-1.09554-.62994-2.08242-1.9799-2.31641-3.96875-.0504-.69579-1.10528-.57121-.99219.11718.26601 2.26115 1.40414 3.91119 2.8086 4.71875.70223.40379 1.48456.58895 2.23632.52735s1.47366-.37015 2.05469-.95117c1.16941-1.16942 1.16162-2.91055.28906-4.30664-.87256-1.3961-2.57396-2.52709-4.83398-2.79297-.39761-.0468-.78151-.0608-1.15039-.0449zm-5.41406 6.04102h2v2h-2z" fill-rule="evenodd" transform="matrix(100 0 0 100 -27800.391 -40900.001)"/></g></svg>