<svg height="1600" viewBox="0 0 1600 1600" width="1600" xmlns="http://www.w3.org/2000/svg" xmlns:inkscape="http://www.inkscape.org/namespaces/inkscape" xmlns:sodipodi="http://sodipodi.sourceforge.net/DTD/sodipodi-0.dtd"><sodipodi:namedview pagecolor="#303030" showgrid="true"><inkscape:grid id="grid5" units="px" spacingx="100" spacingy="100" color="#4772b3" opacity="0.2" visible="true" /></sodipodi:namedview><g fill="#fff"><g enable-background="new" transform="translate(-233 -365)"><path d="m1028 1556c-3.2833 0-6 2.4414-6 5.5 0 1.7056.9046 3.146 2.1523 4.3594l.9942.9941a.50004997.50004997 0 0 0 .3027.1485.50004997.50004997 0 0 0 .051.998h5a.50004997.50004997 0 0 0 .045-.998.50004997.50004997 0 0 0 .3086-.1485l.9981-.998c1.2122-1.1985 2.1465-2.6518 2.1465-4.3535 0-3.0586-2.7167-5.5-6-5.5zm0 1c2.7919 0 5 2.0358 5 4.5 0 1.3342-.7428 2.5488-1.8516 3.6445l-1 1a.50004997.50004997 0 0 0 .2793.8535h-4.8594a.50004997.50004997 0 0 0 .2871-.8535l-1-1a.50004997.50004997 0 0 0 -.01-.01c-1.1397-1.1082-1.8477-2.2864-1.8477-3.6406 0-2.4642 2.2081-4.5 5-4.5zm-2.5 12a.50004997.50004997 0 1 0 0 1h1.5v.5a.50004997.50004997 0 0 0 .5.5h1a.50004997.50004997 0 0 0 .5-.5v-.5h1.5a.50004997.50004997 0 1 0 0-1z"/><path d="m1025.4902 1561.0059a.50005.50005 0 0 0 -.3437.8476l.8535.8535v1.543a.50005.50005 0 1 0 1 0v-1.25h2v1.25a.50005.50005 0 1 0 1 0v-1.543l.8535-.8535a.50005.50005 0 0 0 -.707-.707l-.8535.8535h-2.586l-.8535-.8535a.50005.50005 0 0 0 -.3633-.1406z" opacity=".6"/></g><path d="m70.5 410a.50005.50005 0 0 0 -.5.5v3a.50005.50005 0 0 0 .5.5h.859375l-.824219 3.29883a.50005.50005 0 0 0 -.04102.16797l-1.478516 5.91211a.50005.50005 0 0 0 .48438.62109h4.921875a.50005.50005 0 0 0 .160156 0h4.892578a.50005.50005 0 0 0 .484375-.37695l3.03711-11.99024a.50005.50005 0 0 0 -.484375-.62304l-4.90625-.006a.50005.50005 0 0 0 -.205078 0l-3.400391-.00377v-.5a.50005.50005 0 0 0 -.5-.5zm.5 1h2v2h-.921875a.50005.50005 0 0 0 -.160156 0h-.917969zm3 1 2.859375.004-1.25 4.99609h-3.96875l.75-3h1.109375a.50005.50005 0 0 0 .5-.5zm3.888672.004 3.980469.006-1.263672 4.99h-3.964844zm-6.498047 5.996h3.96875l-1.25 5h-3.96875zm5 0h3.960937l-1.265624 5h-3.945313z" transform="matrix(100 0 0 100 -6800.6102 -40900.3227)"/></g></svg>