<svg height="1600" viewBox="0 0 1600 1600" width="1600" xmlns="http://www.w3.org/2000/svg" xmlns:inkscape="http://www.inkscape.org/namespaces/inkscape" xmlns:sodipodi="http://sodipodi.sourceforge.net/DTD/sodipodi-0.dtd"><sodipodi:namedview pagecolor="#303030" showgrid="true"><inkscape:grid id="grid5" units="px" spacingx="100" spacingy="100" color="#4772b3" opacity="0.2" visible="true" /></sodipodi:namedview><g fill="#fff"><g enable-background="new" transform="translate(-233 -365)"><path d="m1028 1556c-3.2833 0-6 2.4414-6 5.5 0 1.7056.9046 3.146 2.1523 4.3594l.9942.9941a.50004997.50004997 0 0 0 .3027.1485.50004997.50004997 0 0 0 .051.998h5a.50004997.50004997 0 0 0 .045-.998.50004997.50004997 0 0 0 .3086-.1485l.9981-.998c1.2122-1.1985 2.1465-2.6518 2.1465-4.3535 0-3.0586-2.7167-5.5-6-5.5zm0 1c2.7919 0 5 2.0358 5 4.5 0 1.3342-.7428 2.5488-1.8516 3.6445l-1 1a.50004997.50004997 0 0 0 .2793.8535h-4.8594a.50004997.50004997 0 0 0 .2871-.8535l-1-1a.50004997.50004997 0 0 0 -.01-.01c-1.1397-1.1082-1.8477-2.2864-1.8477-3.6406 0-2.4642 2.2081-4.5 5-4.5zm-2.5 12a.50004997.50004997 0 1 0 0 1h1.5v.5a.50004997.50004997 0 0 0 .5.5h1a.50004997.50004997 0 0 0 .5-.5v-.5h1.5a.50004997.50004997 0 1 0 0-1z"/><path d="m1025.4902 1561.0059a.50005.50005 0 0 0 -.3437.8476l.8535.8535v1.543a.50005.50005 0 1 0 1 0v-1.25h2v1.25a.50005.50005 0 1 0 1 0v-1.543l.8535-.8535a.50005.50005 0 0 0 -.707-.707l-.8535.8535h-2.586l-.8535-.8535a.50005.50005 0 0 0 -.3633-.1406z" opacity=".6"/></g><path d="m100.24805 410.01367c-1.271268.11136-2.328782.98616-2.845706 2.17774-2.575841-.61979-5.266939.50372-6.597656 2.80859-1.356612 2.34971-.965414 5.32365.953124 7.24219 1.918537 1.91853 4.892473 2.30974 7.242188.95312 2.30486-1.33072 3.42838-4.02182 2.80859-6.59765 1.3618-.59077 2.3103-1.88718 2.17774-3.40235-.14775-1.68875-1.49289-3.03389-3.18164-3.18164-.1894-.0166-.37503-.0159-.55664 0zm.0234.9961c.14685-.0133.29578-.0133.44727 0 1.21193.10603 2.16545 1.05955 2.27148 2.27148.10604 1.21192-.66865 2.31795-1.84375 2.63281a.50005006.50005006 0 0 0 -.35937.58203l.0352.17969a.50005006.50005006 0 0 0 .008.0293c.58634 2.18824-.36816 4.49227-2.33008 5.625-1.961931 1.13272-4.433244.80698-6.035156-.79492-1.601912-1.60191-1.927645-4.07323-.794922-6.03516 1.132722-1.96193 3.43675-2.91642 5.625-2.33008a.50005006.50005006 0 0 0 .0293.008l.179687.0352a.50005006.50005006 0 0 0 .582032-.35937c.275511-1.02822 1.157648-1.75045 2.185539-1.84375zm-5.77145 4.99023a.50005.50005 0 0 0 -.5.5v3a.50005.50005 0 0 0 .5.5h3a.50005.50005 0 0 0 .5-.5v-3a.50005.50005 0 0 0 -.5-.5zm.5 1h2v2h-2z" transform="matrix(100 0 0 100 -8900.0127 -40899.9954)"/></g></svg>