<svg height="1600" viewBox="0 0 1600 1600" width="1600" xmlns="http://www.w3.org/2000/svg" xmlns:inkscape="http://www.inkscape.org/namespaces/inkscape" xmlns:sodipodi="http://sodipodi.sourceforge.net/DTD/sodipodi-0.dtd"><sodipodi:namedview pagecolor="#303030" showgrid="true"><inkscape:grid id="grid5" units="px" spacingx="100" spacingy="100" color="#4772b3" opacity="0.2" visible="true" /></sodipodi:namedview><g fill="#fff"><g enable-background="new" transform="matrix(94.937409 0 0 100.59849 -6441.0006 -28432.589)"><path d="m71.893099 283.6795c1.650931 0 3.000001 1.34907 3.000001 3s-1.34907 3-3.000001 3c-1.65093 0-3-1.34907-3-3s1.34907-3 3-3z"/><path d="m80.620438 287.72696c1.65093 0 3 1.34907 3 3s-1.34907 3-3 3-3-1.34907-3-3 1.34907-3 3-3z"/><path d="m73.284414 291.52146c1.650931 0 3.000001 1.34907 3.000001 3s-1.34907 3-3.000001 3c-1.65093 0-3-1.34907-3-3s1.34907-3 3-3z"/></g></g></svg>