<svg height="1600" viewBox="0 0 1500 1600" width="1500" xmlns="http://www.w3.org/2000/svg" xmlns:inkscape="http://www.inkscape.org/namespaces/inkscape" xmlns:sodipodi="http://sodipodi.sourceforge.net/DTD/sodipodi-0.dtd"><sodipodi:namedview pagecolor="#303030" showgrid="true"><inkscape:grid id="grid5" units="px" spacingx="100" spacingy="100" color="#4772b3" opacity="0.2" visible="true" /></sodipodi:namedview><g fill="#fff"><path d="m180.25977 430.99023c-1.56005 0-2.83737.68503-4 1.32227-.15986.0876-.25939.25522-.25977.4375v1.75c-.002.58015.81953.69801.98047.14062.5477-1.86218 2.26129-2.69946 3.87109-2.56445.056.003.0879.0161.14258.0195 1.59419.19583 3.00586 1.28621 3.00586 3.65433v1.25h-4.17383c-1.71873 0-2.95078.48602-3.73828 1.26172-.7875.77569-1.09766 1.80326-1.09766 2.77539 0 1.37482.63393 2.43409 1.58008 3.07031.94615.63623 2.16713.89258 3.42969.89258 1.61266 0 3.42658-.64151 4.45508-1.56836.43191.42904.80166.78819 1.11328 1.03906.38759.31203.75096.5293 1.18164.5293h.75c.31531 0 .5-.25.5-.5s-.16406-.5-.5-.5c-.0833 0-.22505-.0571-.33398-.16602-.10894-.1089-.16602-.25065-.16602-.33398v-7c0-1.04167-.0843-2.5-1.08398-3.57617-1.37045-1.47528-2.91602-1.9336-5.65625-1.9336zm1.24023 7.00977h2.5v4.49023c-.8549.62028-1.60427.95721-2.2793 1.14844-.1561.0477-.30873.061-.46679.0977-.63626.10402-1.2211.10508-1.65821-.0742-1.00893-.41394-1.5957-1.45384-1.5957-2.66217 0-.63889.21654-1.3962.74414-1.97656s1.36697-1.02344 2.75586-1.02344z" transform="matrix(100 0 0 100 -17399.511 -42999.5115)"/></g></svg>