<svg height="1600" viewBox="0 0 1600 1600" width="1600" xmlns="http://www.w3.org/2000/svg" xmlns:inkscape="http://www.inkscape.org/namespaces/inkscape" xmlns:sodipodi="http://sodipodi.sourceforge.net/DTD/sodipodi-0.dtd"><sodipodi:namedview pagecolor="#303030" showgrid="true"><inkscape:grid id="grid5" units="px" spacingx="100" spacingy="100" color="#4772b3" opacity="0.2" visible="true" /></sodipodi:namedview><g fill="#fff"><path d="m160.47797 94.72823c-.39468.0302-.78775.12022-1.16797.27148-1.52086.60507-2.52148 2.07999-2.52148 3.716796a.50005.50005 0 0 0 .0156.13281c-.36518.0927-.72282.22834-1.05859.42774-1.4414.855954-2.17089 2.516884-1.87891 4.144534-.68714.57705-1.10816 1.44799-1.07617 2.39648.0502 1.48769 1.19214 2.71921 2.67187 2.88086 1.39818.15274 2.69975-.69789 3.15235-2.00781.89604.0388 1.76969-.22225 2.49804-.74609 1.07373.85551 2.55788 1.01607 3.78907.37695 1.30171-.67573 2.04374-2.09602 1.85742-3.55078-.16328-1.27499-1.01006-2.34261-2.17968-2.806644.45466-1.38242.13144-2.921096-.88477-3.996096-.56221-.59473-1.27727-.98709-2.04297-1.15625-.38285-.0846-.77915-.11418-1.17383-.084zm.52149.99609c.73445.0517 1.44053.37287 1.96875.93164.84514.89404 1.0593 2.208446.54101 3.324216a.50005.50005 0 0 0 -.0527.216804.50005.50005 0 0 0 .38672.58203c1.02426.23341 1.79232 1.07713 1.92578 2.11914.13345 1.04201-.39575 2.0531-1.32813 2.53711s-2.06444.33572-2.83984-.37305a.50005.50005 0 0 0 -.20313-.11914.50005.50005 0 0 0 -.28125-.0977.50005.50005 0 0 0 -.35156.1289c-.65771.57559-1.53314.83597-2.39844.71289a.50008765.50008765 0 0 0 -.54296.33008.50005.50005 0 0 0 -.0977.19727c-.24833.96717-1.16166 1.59867-2.1543 1.49023s-1.7476-.92195-1.78125-1.91992c-.0231-.68418.30371-1.29829.82422-1.67774a.50005.50005 0 0 0 .16601-.11718c.19833-.11547.41799-.19976.65625-.24219a.50005.50005 0 0 0 -.0898-.99414.50005.50005 0 0 0 -.084.01c-.16025.0285-.31331.0746-.46289.12695-.0646-1.10299.47775-2.17237 1.45703-2.75391 1.15771-.687484 2.62445-.520214 3.59961.4082a.5001015.5001015 0 0 0 .68946-.724604c-.64816-.6171-1.46288-.98259-2.3086-1.07813-.14875-.017-.29935-.0157-.44925-.0158a.50005.50005 0 0 0 0-.01c0-1.230266.7475-2.332316 1.89062-2.787106.42868-.17055.87964-.23611 1.32032-.20508z" transform="matrix(100 0 0 100 -15178.819 -9371.666)"/></g></svg>