<svg height="1600" viewBox="0 0 1600 1600" width="1600" xmlns="http://www.w3.org/2000/svg" xmlns:inkscape="http://www.inkscape.org/namespaces/inkscape" xmlns:sodipodi="http://sodipodi.sourceforge.net/DTD/sodipodi-0.dtd"><sodipodi:namedview pagecolor="#303030" showgrid="true"><inkscape:grid id="grid5" units="px" spacingx="100" spacingy="100" color="#4772b3" opacity="0.2" visible="true" /></sodipodi:namedview><g fill="#fff"><g enable-background="new" transform="translate(-233 -365)"><path d="m1028 1556c-3.2833 0-6 2.4414-6 5.5 0 1.7056.9046 3.146 2.1523 4.3594l.9942.9941a.50004997.50004997 0 0 0 .3027.1485.50004997.50004997 0 0 0 .051.998h5a.50004997.50004997 0 0 0 .045-.998.50004997.50004997 0 0 0 .3086-.1485l.9981-.998c1.2122-1.1985 2.1465-2.6518 2.1465-4.3535 0-3.0586-2.7167-5.5-6-5.5zm0 1c2.7919 0 5 2.0358 5 4.5 0 1.3342-.7428 2.5488-1.8516 3.6445l-1 1a.50004997.50004997 0 0 0 .2793.8535h-4.8594a.50004997.50004997 0 0 0 .2871-.8535l-1-1a.50004997.50004997 0 0 0 -.01-.01c-1.1397-1.1082-1.8477-2.2864-1.8477-3.6406 0-2.4642 2.2081-4.5 5-4.5zm-2.5 12a.50004997.50004997 0 1 0 0 1h1.5v.5a.50004997.50004997 0 0 0 .5.5h1a.50004997.50004997 0 0 0 .5-.5v-.5h1.5a.50004997.50004997 0 1 0 0-1z"/><path d="m1025.4902 1561.0059a.50005.50005 0 0 0 -.3437.8476l.8535.8535v1.543a.50005.50005 0 1 0 1 0v-1.25h2v1.25a.50005.50005 0 1 0 1 0v-1.543l.8535-.8535a.50005.50005 0 0 0 -.707-.707l-.8535.8535h-2.586l-.8535-.8535a.50005.50005 0 0 0 -.3633-.1406z" opacity=".6"/></g><path d="m139.512 94.8218c-.39468.0302-.78775.12022-1.16797.27148-1.52086.60507-2.52148 2.07999-2.52148 3.716796-.00076.0448.004.0894.0156.13281-.36519.0927-.72282.22834-1.0586.42774-1.44139.855954-2.17088 2.516884-1.8789 4.144534-.68715.57705-1.10816 1.44799-1.07617 2.39648.0502 1.48769 1.19214 2.71921 2.67187 2.88086 1.39818.15274 2.69975-.69789 3.15234-2.00781.89605.0388 1.7697-.22225 2.49805-.74609 1.07373.85551 2.55788 1.01607 3.78907.37695 1.3017-.67573 2.04373-2.09602 1.85741-3.55078-.16328-1.27499-1.01005-2.34261-2.17967-2.80664.45466-1.382424.13144-2.9211-.88477-3.9961-.56221-.59473-1.27728-.98709-2.04298-1.15625-.38285-.0846-.77914-.11418-1.17382-.084z" transform="matrix(100 0 0 100 -13082.221 -9381.02299999999)"/></g></svg>