<svg height="1700" viewBox="0 0 1400 1700" width="1400" xmlns="http://www.w3.org/2000/svg" xmlns:inkscape="http://www.inkscape.org/namespaces/inkscape" xmlns:sodipodi="http://sodipodi.sourceforge.net/DTD/sodipodi-0.dtd"><sodipodi:namedview pagecolor="#303030" showgrid="true"><inkscape:grid id="grid5" units="px" spacingx="100" spacingy="100" color="#4772b3" opacity="0.2" visible="true" /></sodipodi:namedview><g fill="#fff"><path d="m115.5 442a.50004997.50004997 0 1 0 0 1h5a.50004997.50004997 0 1 0 0-1zm0 2a.50004997.50004997 0 1 0 0 1h1.5v.5a.50004997.50004997 0 0 0 .5.5h1a.50004997.50004997 0 0 0 .5-.5v-.5h1.5a.50004997.50004997 0 1 0 0-1zm2.5-13c-3.2833 0-6 2.4414-6 5.5 0 1.7222 1.0876 3.2946 2.1465 4.3535.094.094.2209.1465.3535.1465h7c.1326 0 .2598-.053.3535-.1465.7109-.7108 1.4222-1.6513 1.8262-2.7148.1979-.5208.3203-1.0727.3203-1.6387 0-3.0586-2.7167-5.5-6-5.5zm-2.5098 5.0059c.1351 0 .2662.047.3633.1406l.8535.8535h2.586l.8535-.8535c.4712-.4506 1.1576.2358.707.707l-.8535.8535v1.793.5h-1v-.5-1.5h-2v1.5.5h-1v-.5-1.793l-.8535-.8535c-.302-.3119-.09-.8341.3437-.8476z" transform="matrix(100 0 0 100 -11100 -43000)"/></g></svg>