<svg height="1600" viewBox="0 0 1600 1600" width="1600" xmlns="http://www.w3.org/2000/svg" xmlns:inkscape="http://www.inkscape.org/namespaces/inkscape" xmlns:sodipodi="http://sodipodi.sourceforge.net/DTD/sodipodi-0.dtd"><sodipodi:namedview pagecolor="#303030" showgrid="true"><inkscape:grid id="grid5" units="px" spacingx="100" spacingy="100" color="#4772b3" opacity="0.2" visible="true" /></sodipodi:namedview><g fill="#fff"><path d="m302.64518 431.00052a1.1251124 1.1233465 0 0 0 -.7734.3412l-1.5313 1.5269a1.1251124 1.1233465 0 1 0 1.5918 1.5874l1.5293-1.5269a1.1251124 1.1233465 0 0 0 -.8164-1.9286zm5.0977 0a1.1251124 1.1233465 0 0 0 -.7735.3393l-6.6289 6.6185a1.125572 1.1238054 0 1 0 1.5918 1.5893l2.1289-2.1256c.2384-1.1729 1.1734-2.1044 2.3477-2.344l2.1523-2.1489a1.1251124 1.1233465 0 0 0 -.8183-1.9286zm5.0996 0a1.1251124 1.1233465 0 0 0 -.7735.3393l-3.916 3.9099c.7144.3005 1.2901.8706 1.5996 1.5795l3.9063-3.9001a1.1251124 1.1233465 0 0 0 -.8164-1.9286zm0 5.0916a1.1251124 1.1233465 0 0 0 -.7735.3393l-2.123 2.1197c-.2257 1.2122-1.1902 2.1751-2.4043 2.4005l-2.1016 2.0983a1.1251124 1.1233465 0 1 0 1.5918 1.5873l6.627-6.6165a1.1251124 1.1233465 0 0 0 -.8164-1.9286zm-5.8418.9204c-.5601 0-.9917.4296-.9981.9867.01.5524.4434.9887.9981.9887s.9926-.4363.998-.9887c-.01-.5571-.438-.9867-.998-.9867zm-2.7656 2.149-3.8946 3.8884a1.1251124 1.1233465 0 1 0 1.5918 1.5873l3.8848-3.8786c-.7095-.3088-1.2808-.8846-1.582-1.5971zm8.6074 2.0202a1.1251124 1.1233465 0 0 0 -.7735.3413l-1.5293 1.5269a1.1251124 1.1233465 0 1 0 1.5899 1.5873l1.5293-1.5269a1.1251124 1.1233465 0 0 0 -.8164-1.9286z" transform="matrix(100 0 0 100 -29899.72800000001 -42999.9518)"/></g></svg>