<svg height="1600" viewBox="0 0 1600 1600" width="1600" xmlns="http://www.w3.org/2000/svg" xmlns:inkscape="http://www.inkscape.org/namespaces/inkscape" xmlns:sodipodi="http://sodipodi.sourceforge.net/DTD/sodipodi-0.dtd"><sodipodi:namedview pagecolor="#303030" showgrid="true"><inkscape:grid id="grid5" units="px" spacingx="100" spacingy="100" color="#4772b3" opacity="0.2" visible="true" /></sodipodi:namedview><g fill="#fff"><g enable-background="new" transform="matrix(100 0 0 100 -36900 -66700)"><path d="m301.5 305c-.82235 0-1.5.67765-1.5 1.5v5c0 .82235 1 1.5 1.5 1.5h.5v-3h-.5c-.67616.01-.67616-1.01 0-1h11c.67616-.01.67616 1.01 0 1h-.5v3h.5c.82235 0 1.5-.67765 1.5-1.5v-5c0-.82235-.67765-1.5-1.5-1.5h-.5-10z" transform="translate(70 363)"/><path d="m135 562v8.5c.00003.27613.22387.49997.5.5h7c.27613-.00003.49997-.22387.5-.5v-8.5zm6 2c.54636 0 1 .45364 1 1s-.45364 1-1 1-1-.45364-1-1 .45364-1 1-1zm-2.50781 2c.16994-.003.32953.0812.42383.22266l2 3c.22142.33228-.0167.77726-.41602.77734h-4c-.39932-.00008-.63744-.44506-.41602-.77734l2-3c.0912-.13686.24381-.21966.40821-.22266z" opacity=".7" transform="translate(238 111)"/></g></g></svg>