<svg height="1600" viewBox="0 0 1600 1600" width="1600" xmlns="http://www.w3.org/2000/svg" xmlns:inkscape="http://www.inkscape.org/namespaces/inkscape" xmlns:sodipodi="http://sodipodi.sourceforge.net/DTD/sodipodi-0.dtd"><sodipodi:namedview pagecolor="#303030" showgrid="true"><inkscape:grid id="grid5" units="px" spacingx="100" spacingy="100" color="#4772b3" opacity="0.2" visible="true" /></sodipodi:namedview><g fill="#fff"><g enable-background="new" transform="matrix(100 0 0 100 -2600.0076 -7299.966)"><path d="m36 74c-2.455669 0-4.49388 1.771475-4.916016 4.105469.482305-.09011.975221-.129499 1.470704-.07422.662841.07415.551512 1.068296-.111329.994141-.485685-.05419-.971969-.01789-1.4375.101562.06678 2.656434 2.202258 4.79532 4.857422 4.867188.121572-.473413.166164-.965209.109375-1.455079-.03822-.293198.18493-.555356.480469-.564453.262666-.0085.487095.187762.513672.449219.05787.499184.03624 1.001242-.05469 1.490234 2.325433-.42908 4.087893-2.464466 4.087893-4.914061 0-2.76142-2.238574-5-5-5zm-1.568358 4.830076c.100656.000956.198679.03227.28125.08984.540828.363139 1.00483.82779 1.367188 1.369141.405708.559881-.466114 1.144515-.830078.556641-.289893-.43309-.661079-.805188-1.09375-1.095703-.420141-.271725-.224948-.923754.27539-.919922z" fill-rule="evenodd"/><path d="m29.484375 78.757812a.50005.50005 0 0 0 -.267578.08789c-1.670208 1.118756-2.507905 3.13395-2.125 5.107422s1.913458 3.526488 3.880859 3.939453c1.967402.412965 3.994569-.393928 5.138672-2.046875a.50005.50005 0 1 0 -.822266-.568359c-.916718 1.324431-2.534938 1.967608-4.111328 1.636718-1.576389-.330889-2.798664-1.57109-3.105468-3.152343-.306805-1.581254.36291-3.18953 1.701172-4.085938a.50005.50005 0 0 0 -.289063-.917968z"/></g></g></svg>