<svg height="1600" viewBox="0 0 1600 1600" width="1600" xmlns="http://www.w3.org/2000/svg" xmlns:inkscape="http://www.inkscape.org/namespaces/inkscape" xmlns:sodipodi="http://sodipodi.sourceforge.net/DTD/sodipodi-0.dtd"><sodipodi:namedview pagecolor="#303030" showgrid="true"><inkscape:grid id="grid5" units="px" spacingx="100" spacingy="100" color="#4772b3" opacity="0.2" visible="true" /></sodipodi:namedview><g fill="#fff"><g enable-background="new" transform="translate(-233 -365)"><path d="m1028 1556c-3.2833 0-6 2.4414-6 5.5 0 1.7056.9046 3.146 2.1523 4.3594l.9942.9941a.50004997.50004997 0 0 0 .3027.1485.50004997.50004997 0 0 0 .051.998h5a.50004997.50004997 0 0 0 .045-.998.50004997.50004997 0 0 0 .3086-.1485l.9981-.998c1.2122-1.1985 2.1465-2.6518 2.1465-4.3535 0-3.0586-2.7167-5.5-6-5.5zm0 1c2.7919 0 5 2.0358 5 4.5 0 1.3342-.7428 2.5488-1.8516 3.6445l-1 1a.50004997.50004997 0 0 0 .2793.8535h-4.8594a.50004997.50004997 0 0 0 .2871-.8535l-1-1a.50004997.50004997 0 0 0 -.01-.01c-1.1397-1.1082-1.8477-2.2864-1.8477-3.6406 0-2.4642 2.2081-4.5 5-4.5zm-2.5 12a.50004997.50004997 0 1 0 0 1h1.5v.5a.50004997.50004997 0 0 0 .5.5h1a.50004997.50004997 0 0 0 .5-.5v-.5h1.5a.50004997.50004997 0 1 0 0-1z"/><path d="m1025.4902 1561.0059a.50005.50005 0 0 0 -.3437.8476l.8535.8535v1.543a.50005.50005 0 1 0 1 0v-1.25h2v1.25a.50005.50005 0 1 0 1 0v-1.543l.8535-.8535a.50005.50005 0 0 0 -.707-.707l-.8535.8535h-2.586l-.8535-.8535a.50005.50005 0 0 0 -.3633-.1406z" opacity=".6"/></g><g enable-background="new" transform="matrix(100 0 0 100 -2600.0076 -7299.966)"><path d="m36 74c-2.455669 0-4.49388 1.771475-4.916016 4.105469.482305-.09011.975221-.129499 1.470704-.07422.662841.07415.551512 1.068296-.111329.994141-.485685-.05419-.971969-.01789-1.4375.101562.06678 2.656434 2.202258 4.79532 4.857422 4.867188.121572-.473413.166164-.965209.109375-1.455079-.03822-.293198.18493-.555356.480469-.564453.262666-.0085.487095.187762.513672.449219.05787.499184.03624 1.001242-.05469 1.490234 2.325433-.42908 4.087893-2.464466 4.087893-4.914061 0-2.76142-2.238574-5-5-5zm-1.568358 4.830076c.100656.000956.198679.03227.28125.08984.540828.363139 1.00483.82779 1.367188 1.369141.405708.559881-.466114 1.144515-.830078.556641-.289893-.43309-.661079-.805188-1.09375-1.095703-.420141-.271725-.224948-.923754.27539-.919922z" fill-rule="evenodd"/><path d="m29.484375 78.757812a.50005.50005 0 0 0 -.267578.08789c-1.670208 1.118756-2.507905 3.13395-2.125 5.107422s1.913458 3.526488 3.880859 3.939453c1.967402.412965 3.994569-.393928 5.138672-2.046875a.50005.50005 0 1 0 -.822266-.568359c-.916718 1.324431-2.534938 1.967608-4.111328 1.636718-1.576389-.330889-2.798664-1.57109-3.105468-3.152343-.306805-1.581254.36291-3.18953 1.701172-4.085938a.50005.50005 0 0 0 -.289063-.917968z"/></g></g></svg>