<svg height="1600" viewBox="0 0 1600 1600" width="1600" xmlns="http://www.w3.org/2000/svg" xmlns:inkscape="http://www.inkscape.org/namespaces/inkscape" xmlns:sodipodi="http://sodipodi.sourceforge.net/DTD/sodipodi-0.dtd"><sodipodi:namedview pagecolor="#303030" showgrid="true"><inkscape:grid id="grid5" units="px" spacingx="100" spacingy="100" color="#4772b3" opacity="0.2" visible="true" /></sodipodi:namedview><g fill="#fff"><path d="m823.98994 430.00453v2h5v3.7086l1.8538-1.85485c.0937-.0939.14631-.22111.1462-.35375.0114-.97402 0-3.0415 0-3.5zm-3 3v4h7l-.00004-4zm11.48438 1.125c-.12717.004-.24801.0564-.3379.14648l-3.72851 3.72852h-8.91211c-.27613.00003-.49997.22387-.5.5v5c.00003.27613.22387.49997.5.5h8.49414v-4.5a.50005.50005 0 0 1 .49219-.50586.50005.50005 0 0 1 .50781.50586v4.33203l3.85352-3.85351c.0938-.0938.14645-.22092.14648-.35352v-5c.00011-.28235-.23342-.50879-.51562-.5z" opacity=".99" transform="matrix(100 0 0 100 -81799.287 -42900.453)"/></g></svg>