<svg height="1600" viewBox="0 0 1600 1600" width="1600" xmlns="http://www.w3.org/2000/svg" xmlns:inkscape="http://www.inkscape.org/namespaces/inkscape" xmlns:sodipodi="http://sodipodi.sourceforge.net/DTD/sodipodi-0.dtd"><sodipodi:namedview pagecolor="#303030" showgrid="true"><inkscape:grid id="grid5" units="px" spacingx="100" spacingy="100" color="#4772b3" opacity="0.2" visible="true" /></sodipodi:namedview><g fill="#fff"><path d="m184.27734 515c-.3909-.007-.822.0708-1.2832.25781-1.22985.49878-2.7569 1.66874-4.85742 3.90039-2.09205 2.22266-3.24657 3.73559-3.77539 4.91602-.26441.59022-.37396 1.11195-.31641 1.58984.0576.4779.29454.88243.60156 1.18946.013.0131.0267.0255.041.0371l2.5 2c.49277.39559 1.11361-.29808.66602-.74414l-2-2c-.36948-.36947-.29946-.99351 0-1.29296.3216-.32161.86101-.43196 1.29296 0l2 2a.50005.50005 0 1 0 .70704-.70704l-2-2c-.36948-.36947-.29946-.99351 0-1.29296.3216-.32161.86101-.43196 1.29296 0l2 2a.50005.50005 0 1 0 .70704-.70704l-1.97657-1.9746c-.008-.009-.0153-.0172-.0234-.0254-.36948-.36947-.29946-.99351 0-1.29296.3216-.32161.86101-.43196 1.29296 0l2 2a.50005.50005 0 1 0 .70704-.70704l-1.97657-1.9746c-.008-.009-.0153-.0172-.0234-.0254-.36948-.36947-.29946-.99351 0-1.29296.3216-.32161.86101-.43196 1.29296 0l2 2a.50005.50005 0 1 0 .70704-.70704l-2-2c-.36948-.36947-.29946-.99351 0-1.29296.3216-.32161.86101-.43196 1.29296 0l2 2c.44606.44759 1.13973-.17325.74414-.66602l-2-2.5c-.0116-.0143-.024-.028-.0371-.041-.30703-.30702-.7149-.52843-1.19922-.61132-.12109-.0207-.24665-.0327-.37696-.0352z" transform="matrix(100 0 0 100 -17301.908 -51400.3845)"/></g></svg>