<svg height="1600" viewBox="0 0 1600 1600" width="1600" xmlns="http://www.w3.org/2000/svg" xmlns:inkscape="http://www.inkscape.org/namespaces/inkscape" xmlns:sodipodi="http://sodipodi.sourceforge.net/DTD/sodipodi-0.dtd"><sodipodi:namedview pagecolor="#303030" showgrid="true"><inkscape:grid id="grid5" units="px" spacingx="100" spacingy="100" color="#4772b3" opacity="0.2" visible="true" /></sodipodi:namedview><g fill="#fff"><g enable-background="new" fill-rule="evenodd" transform="matrix(0 100 -100 0 36200.00000000001 -46600)"><path d="m469.5 356c-1.37478 0-2.5 1.12522-2.5 2.5s1.12522 2.5 2.5 2.5 2.5-1.12522 2.5-2.5-1.12522-2.5-2.5-2.5z"/><path d="m218.5 557c-.8225 0-1.5.6775-1.5 1.5 0 .64684.42097 1.19777 1 1.40625v4.59375c-.01.67616 1.01.67616 1 0v-4.59375c.57903-.20848 1-.75941 1-1.40625 0-.8225-.6775-1.5-1.5-1.5zm9.5 0c-1.09865 0-2 .90135-2 2 0 .36859.10883.71022.28516 1.00781l-5.13868 5.13867c-.49023.47127.23577 1.19727.70704.70704l5.13867-5.13868c.29759.17633.63922.28516 1.00781.28516 1.09865-.00001 2-.90135 2-2s-.90135-1.99999-2-2zm.5 10c-.64684 0-1.19777.42097-1.40625 1h-4.59375c-.67616-.01-.67616 1.01 0 1h4.59375c.20848.57903.75941 1 1.40625 1 .82251 0 1.5-.67749 1.5-1.5s-.67749-1.5-1.5-1.5z" opacity=".7" transform="matrix(0 -1 -1 0 1038 577)"/></g></g></svg>