<svg height="1600" viewBox="0 0 1600 1600" width="1600" xmlns="http://www.w3.org/2000/svg" xmlns:inkscape="http://www.inkscape.org/namespaces/inkscape" xmlns:sodipodi="http://sodipodi.sourceforge.net/DTD/sodipodi-0.dtd"><sodipodi:namedview pagecolor="#303030" showgrid="true"><inkscape:grid id="grid5" units="px" spacingx="100" spacingy="100" color="#4772b3" opacity="0.2" visible="true" /></sodipodi:namedview><g fill="#fff"><g enable-background="new" transform="translate(-233 -365)"><path d="m1028 1556c-3.2833 0-6 2.4414-6 5.5 0 1.7056.9046 3.146 2.1523 4.3594l.9942.9941a.50004997.50004997 0 0 0 .3027.1485.50004997.50004997 0 0 0 .051.998h5a.50004997.50004997 0 0 0 .045-.998.50004997.50004997 0 0 0 .3086-.1485l.9981-.998c1.2122-1.1985 2.1465-2.6518 2.1465-4.3535 0-3.0586-2.7167-5.5-6-5.5zm0 1c2.7919 0 5 2.0358 5 4.5 0 1.3342-.7428 2.5488-1.8516 3.6445l-1 1a.50004997.50004997 0 0 0 .2793.8535h-4.8594a.50004997.50004997 0 0 0 .2871-.8535l-1-1a.50004997.50004997 0 0 0 -.01-.01c-1.1397-1.1082-1.8477-2.2864-1.8477-3.6406 0-2.4642 2.2081-4.5 5-4.5zm-2.5 12a.50004997.50004997 0 1 0 0 1h1.5v.5a.50004997.50004997 0 0 0 .5.5h1a.50004997.50004997 0 0 0 .5-.5v-.5h1.5a.50004997.50004997 0 1 0 0-1z"/><path d="m1025.4902 1561.0059a.50005.50005 0 0 0 -.3437.8476l.8535.8535v1.543a.50005.50005 0 1 0 1 0v-1.25h2v1.25a.50005.50005 0 1 0 1 0v-1.543l.8535-.8535a.50005.50005 0 0 0 -.707-.707l-.8535.8535h-2.586l-.8535-.8535a.50005.50005 0 0 0 -.3633-.1406z" opacity=".6"/></g><path d="m184.27734 515c-.3909-.007-.822.0708-1.2832.25781-1.22985.49878-2.7569 1.66874-4.85742 3.90039-2.09205 2.22266-3.24657 3.73559-3.77539 4.91602-.26441.59022-.37396 1.11195-.31641 1.58984.0576.4779.29454.88243.60156 1.18946.013.0131.0267.0255.041.0371l2.5 2c.49277.39559 1.11361-.29808.66602-.74414l-2-2c-.36948-.36947-.29946-.99351 0-1.29296.3216-.32161.86101-.43196 1.29296 0l2 2a.50005.50005 0 1 0 .70704-.70704l-2-2c-.36948-.36947-.29946-.99351 0-1.29296.3216-.32161.86101-.43196 1.29296 0l2 2a.50005.50005 0 1 0 .70704-.70704l-1.97657-1.9746c-.008-.009-.0153-.0172-.0234-.0254-.36948-.36947-.29946-.99351 0-1.29296.3216-.32161.86101-.43196 1.29296 0l2 2a.50005.50005 0 1 0 .70704-.70704l-1.97657-1.9746c-.008-.009-.0153-.0172-.0234-.0254-.36948-.36947-.29946-.99351 0-1.29296.3216-.32161.86101-.43196 1.29296 0l2 2a.50005.50005 0 1 0 .70704-.70704l-2-2c-.36948-.36947-.29946-.99351 0-1.29296.3216-.32161.86101-.43196 1.29296 0l2 2c.44606.44759 1.13973-.17325.74414-.66602l-2-2.5c-.0116-.0143-.024-.028-.0371-.041-.30703-.30702-.7149-.52843-1.19922-.61132-.12109-.0207-.24665-.0327-.37696-.0352z" transform="matrix(100 0 0 100 -17301.908 -51400.3845)"/></g></svg>