<svg height="1600" viewBox="0 0 1600 1600" width="1600" xmlns="http://www.w3.org/2000/svg" xmlns:inkscape="http://www.inkscape.org/namespaces/inkscape" xmlns:sodipodi="http://sodipodi.sourceforge.net/DTD/sodipodi-0.dtd"><sodipodi:namedview pagecolor="#303030" showgrid="true"><inkscape:grid id="grid5" units="px" spacingx="100" spacingy="100" color="#4772b3" opacity="0.2" visible="true" /></sodipodi:namedview><g fill="#fff"><g enable-background="new" transform="matrix(100 0 0 100 -4700.8741 -13600.744)"><path d="m48.492188 137a.50005.50005 0 0 0 -.492188.50781v3a.50005.50005 0 1 0 1 0v-3a.50005.50005 0 0 0 -.507812-.50781zm0 5a.50005.50005 0 0 0 -.492188.50781v3a.50005.50005 0 1 0 1 0v-3a.50005.50005 0 0 0 -.507812-.50781zm0 5a.50005.50005 0 0 0 -.492188.50781v3a.50005.50005 0 1 0 1 0v-3a.50005.50005 0 0 0 -.507812-.50781z"/><path d="m51.509766 137c-.27613.00003-.49997.22387-.5.5v.5h-1.009766v1h1.509766 1 2.515625v-.5c0-.24768-.186975-.495-.515625-.5h-1.5v-.5c-.00004-.27613-.22388-.49997-.5-.5zm3.515625 2-.01563.5v.5h-5.009761v9h4.009766v-4.31641c-.12178-.91601.605587-1.72326 1.529296-1.69726.05424.002.10831.007.16211.0137h1.308594v-3.5c-.00004-.27613-.22388-.49997-.5-.5z" opacity=".5"/><path d="m-158.49414 143.99609a.50005.50005 0 0 0 -.0508.004h-3.93946a.50005.50005 0 1 0 0 1h2.79297l-5.14648 5.14648a.50005.50005 0 1 0 .70703.70704l5.14648-5.14649v2.79288a.50005.50005 0 1 0 1 0v-3.94336a.50005.50005 0 0 0 -.50976-.56055z" transform="matrix(-1 0 0 1 -102.974 .000001)"/></g></g></svg>