<svg height="1600" viewBox="0 0 1600 1600" width="1600" xmlns="http://www.w3.org/2000/svg" xmlns:inkscape="http://www.inkscape.org/namespaces/inkscape" xmlns:sodipodi="http://sodipodi.sourceforge.net/DTD/sodipodi-0.dtd"><sodipodi:namedview pagecolor="#303030" showgrid="true"><inkscape:grid id="grid5" units="px" spacingx="100" spacingy="100" color="#4772b3" opacity="0.2" visible="true" /></sodipodi:namedview><g fill="#fff"><g enable-background="new" transform="matrix(-100 0 0 100 -12898.665 -13600.204)"><path d="m-144.5 139c-.27613.00003-.49997.22387-.5.5v9c.00003.27613.22387.49997.5.5h7 2c.10658-.00001.20011-.0408.28125-.0977l-3.3418-3.34179a1.50015 1.50015 0 1 1 2.1211-2.1211l1.43945 1.4395v-5.37891c-.00003-.27613-.22387-.49997-.5-.5h-1.48438l-.01562.5v.5h-6v-.5l.0156-.5zm5-2c.27613.00003.49997.22387.5.5v.5h1.5c.32865.005.51562.25232.51562.5v.5h-2.51562-1-2.48438v-.5c0-.25267.14909-.49526.48438-.5h1.5v-.5c.00003-.27613.22387-.49997.5-.5z" opacity=".5" transform="matrix(-1 0 0 1 -274.984 0)"/><path d="m-158.49414 143.99609a.50005.50005 0 0 0 -.0508.004h-3.93946a.50005.50005 0 1 0 0 1h2.79297l-5.14648 5.14648a.50005.50005 0 1 0 .70703.70704l5.14648-5.14649v2.79288a.50005.50005 0 1 0 1 0v-3.94336a.50005.50005 0 0 0 -.50976-.56055z" transform="matrix(-1 0 0 -1 -301.97 295)"/></g></g></svg>