<svg height="1600" viewBox="0 0 1600 1600" width="1600" xmlns="http://www.w3.org/2000/svg" xmlns:inkscape="http://www.inkscape.org/namespaces/inkscape" xmlns:sodipodi="http://sodipodi.sourceforge.net/DTD/sodipodi-0.dtd"><sodipodi:namedview pagecolor="#303030" showgrid="true"><inkscape:grid id="grid5" units="px" spacingx="100" spacingy="100" color="#4772b3" opacity="0.2" visible="true" /></sodipodi:namedview><g fill="#fff"><g enable-background="new" transform="translate(-233 -365)"><path d="m1028 1556c-3.2833 0-6 2.4414-6 5.5 0 1.7056.9046 3.146 2.1523 4.3594l.9942.9941a.50004997.50004997 0 0 0 .3027.1485.50004997.50004997 0 0 0 .051.998h5a.50004997.50004997 0 0 0 .045-.998.50004997.50004997 0 0 0 .3086-.1485l.9981-.998c1.2122-1.1985 2.1465-2.6518 2.1465-4.3535 0-3.0586-2.7167-5.5-6-5.5zm0 1c2.7919 0 5 2.0358 5 4.5 0 1.3342-.7428 2.5488-1.8516 3.6445l-1 1a.50004997.50004997 0 0 0 .2793.8535h-4.8594a.50004997.50004997 0 0 0 .2871-.8535l-1-1a.50004997.50004997 0 0 0 -.01-.01c-1.1397-1.1082-1.8477-2.2864-1.8477-3.6406 0-2.4642 2.2081-4.5 5-4.5zm-2.5 12a.50004997.50004997 0 1 0 0 1h1.5v.5a.50004997.50004997 0 0 0 .5.5h1a.50004997.50004997 0 0 0 .5-.5v-.5h1.5a.50004997.50004997 0 1 0 0-1z"/><path d="m1025.4902 1561.0059a.50005.50005 0 0 0 -.3437.8476l.8535.8535v1.543a.50005.50005 0 1 0 1 0v-1.25h2v1.25a.50005.50005 0 1 0 1 0v-1.543l.8535-.8535a.50005.50005 0 0 0 -.707-.707l-.8535.8535h-2.586l-.8535-.8535a.50005.50005 0 0 0 -.3633-.1406z" opacity=".6"/></g><g enable-background="new" transform="matrix(100 0 0 100 -4700.8741 -13600.744)"><path d="m48.492188 137a.50005.50005 0 0 0 -.492188.50781v3a.50005.50005 0 1 0 1 0v-3a.50005.50005 0 0 0 -.507812-.50781zm0 5a.50005.50005 0 0 0 -.492188.50781v3a.50005.50005 0 1 0 1 0v-3a.50005.50005 0 0 0 -.507812-.50781zm0 5a.50005.50005 0 0 0 -.492188.50781v3a.50005.50005 0 1 0 1 0v-3a.50005.50005 0 0 0 -.507812-.50781z"/><path d="m51.509766 137c-.27613.00003-.49997.22387-.5.5v.5h-1.009766v1h1.509766 1 2.515625v-.5c0-.24768-.186975-.495-.515625-.5h-1.5v-.5c-.00004-.27613-.22388-.49997-.5-.5zm3.515625 2-.01563.5v.5h-5.009761v9h4.009766v-4.31641c-.12178-.91601.605587-1.72326 1.529296-1.69726.05424.002.10831.007.16211.0137h1.308594v-3.5c-.00004-.27613-.22388-.49997-.5-.5z" opacity=".5"/><path d="m-158.49414 143.99609a.50005.50005 0 0 0 -.0508.004h-3.93946a.50005.50005 0 1 0 0 1h2.79297l-5.14648 5.14648a.50005.50005 0 1 0 .70703.70704l5.14648-5.14649v2.79288a.50005.50005 0 1 0 1 0v-3.94336a.50005.50005 0 0 0 -.50976-.56055z" transform="matrix(-1 0 0 1 -102.974 .000001)"/></g></g></svg>