<svg height="1600" viewBox="0 0 1600 1600" width="1600" xmlns="http://www.w3.org/2000/svg" xmlns:inkscape="http://www.inkscape.org/namespaces/inkscape" xmlns:sodipodi="http://sodipodi.sourceforge.net/DTD/sodipodi-0.dtd"><sodipodi:namedview pagecolor="#303030" showgrid="true"><inkscape:grid id="grid5" units="px" spacingx="100" spacingy="100" color="#4772b3" opacity="0.2" visible="true" /></sodipodi:namedview><g fill="#fff"><g enable-background="new" fill-rule="evenodd" transform="matrix(100 0 0 100 -23599.965 -55599.895)"><path d="m244 561c-1.65093 0-3 1.34907-3 3s1.34907 3 3 3 3-1.34907 3-3-1.34907-3-3-3z"/><path d="m243.92383 557c-.2146.003-.42883.0151-.64063.0371-2.54151.26418-4.8299 1.914-5.80664 4.42187-1.30231 3.34383.14236 7.14072 3.33789 8.77344 3.19554 1.63272 7.11991.57913 9.06641-2.43554a.50005.50005 0 1 0 -.83984-.54297c-1.67274 2.59068-5.02539 3.49293-7.77149 2.08984s-3.98048-4.64795-2.86133-7.52148c1.11915-2.87354 4.22361-4.42733 7.19532-3.60352a.50036742.50036742 0 1 0 .26562-.96484c-.64839-.17975-1.3015-.26149-1.94531-.25391zm5.07617 0c-1.09865 0-2 .90135-2 2s.90135 2 2 2 2-.90135 2-2-.90135-2-2-2z" opacity=".7"/></g></g></svg>