<svg height="1600" viewBox="0 0 1600 1600" width="1600" xmlns="http://www.w3.org/2000/svg" xmlns:inkscape="http://www.inkscape.org/namespaces/inkscape" xmlns:sodipodi="http://sodipodi.sourceforge.net/DTD/sodipodi-0.dtd"><sodipodi:namedview pagecolor="#303030" showgrid="true"><inkscape:grid id="grid5" units="px" spacingx="100" spacingy="100" color="#4772b3" opacity="0.2" visible="true" /></sodipodi:namedview><g fill="#fff"><path d="m372.50586 598.99414c-.27613.00003-.49997.22387-.5.5v.79297l3.70703 3.70703h.79297c.27613-.00003.49997-.22387.5-.5v-1c-.00002-.1326-.0527-.25975-.14648-.35352l-3-3c-.0938-.0938-.22092-.14646-.35352-.14648zm-1.20703 2-2 2h-2.79297c-.1326.00002-.25976.0527-.35352.14648l-1 1c-.19519.19528-.19519.51177 0 .70704l6 6c.19527.1952.51176.1952.70704 0l1-1c.0938-.0938.14646-.22092.14648-.35352v-2.79297l2-2zm-4.05274 7.24609a.50005.50005 0 0 0 -.34375.15039l-3.75 3.75a.50005.50005 0 1 0 .70704.70704l3.75-3.75a.50005.50005 0 0 0 -.36329-.85743z" transform="matrix(100 0 0 100 -36200.23499999999 -59799.765)"/></g></svg>