<svg height="1600" viewBox="0 0 1600 1600" width="1600" xmlns="http://www.w3.org/2000/svg" xmlns:inkscape="http://www.inkscape.org/namespaces/inkscape" xmlns:sodipodi="http://sodipodi.sourceforge.net/DTD/sodipodi-0.dtd"><sodipodi:namedview pagecolor="#303030" showgrid="true"><inkscape:grid id="grid5" units="px" spacingx="100" spacingy="100" color="#4772b3" opacity="0.2" visible="true" /></sodipodi:namedview><g fill="#fff"><g enable-background="new" transform="translate(-233 -365)"><path d="m1028 1556c-3.2833 0-6 2.4414-6 5.5 0 1.7056.9046 3.146 2.1523 4.3594l.9942.9941a.50004997.50004997 0 0 0 .3027.1485.50004997.50004997 0 0 0 .051.998h5a.50004997.50004997 0 0 0 .045-.998.50004997.50004997 0 0 0 .3086-.1485l.9981-.998c1.2122-1.1985 2.1465-2.6518 2.1465-4.3535 0-3.0586-2.7167-5.5-6-5.5zm0 1c2.7919 0 5 2.0358 5 4.5 0 1.3342-.7428 2.5488-1.8516 3.6445l-1 1a.50004997.50004997 0 0 0 .2793.8535h-4.8594a.50004997.50004997 0 0 0 .2871-.8535l-1-1a.50004997.50004997 0 0 0 -.01-.01c-1.1397-1.1082-1.8477-2.2864-1.8477-3.6406 0-2.4642 2.2081-4.5 5-4.5zm-2.5 12a.50004997.50004997 0 1 0 0 1h1.5v.5a.50004997.50004997 0 0 0 .5.5h1a.50004997.50004997 0 0 0 .5-.5v-.5h1.5a.50004997.50004997 0 1 0 0-1z"/><path d="m1025.4902 1561.0059a.50005.50005 0 0 0 -.3437.8476l.8535.8535v1.543a.50005.50005 0 1 0 1 0v-1.25h2v1.25a.50005.50005 0 1 0 1 0v-1.543l.8535-.8535a.50005.50005 0 0 0 -.707-.707l-.8535.8535h-2.586l-.8535-.8535a.50005.50005 0 0 0 -.3633-.1406z" opacity=".6"/></g><g enable-background="new" transform="matrix(100 0 0 100 -17299.973 -19900.014)"><path d="m183.8125 200.01562c2.21359.18235 3.97803 1.94071 4.16992 4.1543.19189 2.2136-1.24344 4.25155-3.39258 4.8125a.5007349.5007349 0 1 1 -.2539-.96875c1.68376-.43948 2.80079-2.02289 2.65039-3.75781s-1.52164-3.10129-3.25586-3.24414c-1.73423-.14285-3.31219.98104-3.74414 2.66797a.50005.50005 0 1 1 -.96875-.24805c.55114-2.15241 2.58133-3.59836 4.79492-3.41602zm-5.3125 4.98438a.50005.50005 0 1 1 0 1c-1.41705 0-2.69209.85096-3.23438 2.16016-.54228 1.30919-.24224 2.81243.75977 3.81445 1.00201 1.00201 2.50527 1.30205 3.81445.75977 1.30919-.54229 2.16016-1.81732 2.16016-3.23438a.50005.50005 0 1 1 1 0c0 1.81865-1.09714 3.46223-2.77734 4.1582-1.68021.69597-3.61833.30942-4.9043-.97656-1.28598-1.28598-1.67253-3.22408-.97656-4.9043.69596-1.68021 2.33956-2.77734 4.1582-2.77734z"/><path d="m182.99634 206.50183a1.4981741 1.4981725 0 0 1 -1.49817 1.49817 1.4981741 1.4981725 0 0 1 -1.49818-1.49817 1.4981741 1.4981725 0 0 1 1.49818-1.49817 1.4981741 1.4981725 0 0 1 1.49817 1.49817z"/></g></g></svg>