<svg height="1600" viewBox="0 0 1600 1600" width="1600" xmlns="http://www.w3.org/2000/svg" xmlns:inkscape="http://www.inkscape.org/namespaces/inkscape" xmlns:sodipodi="http://sodipodi.sourceforge.net/DTD/sodipodi-0.dtd"><sodipodi:namedview pagecolor="#303030" showgrid="true"><inkscape:grid id="grid5" units="px" spacingx="100" spacingy="100" color="#4772b3" opacity="0.2" visible="true" /></sodipodi:namedview><g fill="#fff"><g enable-background="new" transform="matrix(100 0 0 100 -15199.968 -19900.018)"><path d="m157.5 205c2.47936 0 4.5 2.02063 4.5 4.5s-2.02064 4.5-4.5 4.5-4.5-2.02063-4.5-4.5 2.02064-4.5 4.5-4.5zm0 1c-1.93892 0-3.5 1.56107-3.5 3.5s1.56108 3.5 3.5 3.5 3.5-1.56107 3.5-3.5-1.56108-3.5-3.5-3.5z"/><path d="m162.86914 200.01562c2.18302.17973 3.92401 1.9135 4.11328 4.09571.18928 2.18221-1.22622 4.18928-3.3457 4.74219a.50005.50005 0 1 1 -.25391-.9668c1.65432-.43156 2.75125-1.98618 2.60352-3.68945-.14774-1.70328-1.49531-3.04527-3.19922-3.18555s-3.25342.96296-3.67773 2.61914a.50005.50005 0 1 1 -.96876-.24805c.54363-2.12187 2.5455-3.54691 4.72852-3.36719z"/><path d="m159.00001 209.49817a1.498175 1.498175 0 0 1 -1.49818 1.49817 1.498175 1.498175 0 0 1 -1.49817-1.49817 1.498175 1.498175 0 0 1 1.49817-1.49818 1.498175 1.498175 0 0 1 1.49818 1.49818z"/><path d="m164.00001 204.49817a1.498175 1.498175 0 0 1 -1.49818 1.49817 1.498175 1.498175 0 0 1 -1.49817-1.49817 1.498175 1.498175 0 0 1 1.49817-1.49818 1.498175 1.498175 0 0 1 1.49818 1.49818z"/></g></g></svg>