<svg height="1600" viewBox="0 0 1600 1600" width="1600" xmlns="http://www.w3.org/2000/svg" xmlns:inkscape="http://www.inkscape.org/namespaces/inkscape" xmlns:sodipodi="http://sodipodi.sourceforge.net/DTD/sodipodi-0.dtd"><sodipodi:namedview pagecolor="#303030" showgrid="true"><inkscape:grid id="grid5" units="px" spacingx="100" spacingy="100" color="#4772b3" opacity="0.2" visible="true" /></sodipodi:namedview><g fill="#fff"><g enable-background="new" transform="matrix(100 0 0 100 -17299.973 -19900.014)"><path d="m183.8125 200.01562c2.21359.18235 3.97803 1.94071 4.16992 4.1543.19189 2.2136-1.24344 4.25155-3.39258 4.8125a.5007349.5007349 0 1 1 -.2539-.96875c1.68376-.43948 2.80079-2.02289 2.65039-3.75781s-1.52164-3.10129-3.25586-3.24414c-1.73423-.14285-3.31219.98104-3.74414 2.66797a.50005.50005 0 1 1 -.96875-.24805c.55114-2.15241 2.58133-3.59836 4.79492-3.41602zm-5.3125 4.98438a.50005.50005 0 1 1 0 1c-1.41705 0-2.69209.85096-3.23438 2.16016-.54228 1.30919-.24224 2.81243.75977 3.81445 1.00201 1.00201 2.50527 1.30205 3.81445.75977 1.30919-.54229 2.16016-1.81732 2.16016-3.23438a.50005.50005 0 1 1 1 0c0 1.81865-1.09714 3.46223-2.77734 4.1582-1.68021.69597-3.61833.30942-4.9043-.97656-1.28598-1.28598-1.67253-3.22408-.97656-4.9043.69596-1.68021 2.33956-2.77734 4.1582-2.77734z"/><path d="m182.99634 206.50183a1.4981741 1.4981725 0 0 1 -1.49817 1.49817 1.4981741 1.4981725 0 0 1 -1.49818-1.49817 1.4981741 1.4981725 0 0 1 1.49818-1.49817 1.4981741 1.4981725 0 0 1 1.49817 1.49817z"/></g></g></svg>