<svg height="1600" viewBox="0 0 1600 1600" width="1600" xmlns="http://www.w3.org/2000/svg" xmlns:inkscape="http://www.inkscape.org/namespaces/inkscape" xmlns:sodipodi="http://sodipodi.sourceforge.net/DTD/sodipodi-0.dtd"><sodipodi:namedview pagecolor="#303030" showgrid="true"><inkscape:grid id="grid5" units="px" spacingx="100" spacingy="100" color="#4772b3" opacity="0.2" visible="true" /></sodipodi:namedview><g fill="#fff"><g enable-background="new" transform="translate(-233 -365)"><path d="m1028 1556c-3.2833 0-6 2.4414-6 5.5 0 1.7056.9046 3.146 2.1523 4.3594l.9942.9941a.50004997.50004997 0 0 0 .3027.1485.50004997.50004997 0 0 0 .051.998h5a.50004997.50004997 0 0 0 .045-.998.50004997.50004997 0 0 0 .3086-.1485l.9981-.998c1.2122-1.1985 2.1465-2.6518 2.1465-4.3535 0-3.0586-2.7167-5.5-6-5.5zm0 1c2.7919 0 5 2.0358 5 4.5 0 1.3342-.7428 2.5488-1.8516 3.6445l-1 1a.50004997.50004997 0 0 0 .2793.8535h-4.8594a.50004997.50004997 0 0 0 .2871-.8535l-1-1a.50004997.50004997 0 0 0 -.01-.01c-1.1397-1.1082-1.8477-2.2864-1.8477-3.6406 0-2.4642 2.2081-4.5 5-4.5zm-2.5 12a.50004997.50004997 0 1 0 0 1h1.5v.5a.50004997.50004997 0 0 0 .5.5h1a.50004997.50004997 0 0 0 .5-.5v-.5h1.5a.50004997.50004997 0 1 0 0-1z"/><path d="m1025.4902 1561.0059a.50005.50005 0 0 0 -.3437.8476l.8535.8535v1.543a.50005.50005 0 1 0 1 0v-1.25h2v1.25a.50005.50005 0 1 0 1 0v-1.543l.8535-.8535a.50005.50005 0 0 0 -.707-.707l-.8535.8535h-2.586l-.8535-.8535a.50005.50005 0 0 0 -.3633-.1406z" opacity=".6"/></g><g enable-background="new" transform="matrix(100 0 0 100 -19399.968 -19900.018)"><path d="m199.5 205c2.47936 0 4.5 2.02063 4.5 4.5s-2.02064 4.5-4.5 4.5-4.5-2.02063-4.5-4.5 2.02064-4.5 4.5-4.5zm0 1c-1.93892 0-3.5 1.56107-3.5 3.5s1.56108 3.5 3.5 3.5 3.5-1.56107 3.5-3.5-1.56108-3.5-3.5-3.5z"/><path d="m204.86914 200.01562c2.18302.17973 3.92401 1.9135 4.11328 4.09571.18928 2.18221-1.22622 4.18928-3.3457 4.74219a.50005.50005 0 1 1 -.25391-.9668c1.65432-.43156 2.75125-1.98618 2.60352-3.68945-.14774-1.70328-1.49531-3.04527-3.19922-3.18555s-3.25342.96296-3.67773 2.61914a.50005.50005 0 1 1 -.96876-.24805c.54363-2.12187 2.5455-3.54691 4.72852-3.36719z" opacity=".6"/><path d="m201.00001 209.49817a1.498175 1.498175 0 0 1 -1.49818 1.49817 1.498175 1.498175 0 0 1 -1.49817-1.49817 1.498175 1.498175 0 0 1 1.49817-1.49818 1.498175 1.498175 0 0 1 1.49818 1.49818z"/></g></g></svg>