<svg height="1400" viewBox="0 0 1600 1400" width="1600" xmlns="http://www.w3.org/2000/svg" xmlns:inkscape="http://www.inkscape.org/namespaces/inkscape" xmlns:sodipodi="http://sodipodi.sourceforge.net/DTD/sodipodi-0.dtd"><sodipodi:namedview pagecolor="#303030" showgrid="true"><inkscape:grid id="grid5" units="px" spacingx="100" spacingy="100" color="#4772b3" opacity="0.2" visible="true" /></sodipodi:namedview><g fill="#fff"><g enable-background="new" transform="matrix(100 0 0 100 -15199.983 -22100)"><path d="m158.5 222a.50005.50005 0 0 0 -.35352.14648l-2.85351 2.85352h-1.79297a.50005.50005 0 0 0 -.5.5v5a.50005.50005 0 0 0 .5.5h1.79297l2.85351 2.85352a.50005.50005 0 0 0 .35352.14648h1a.50005.50005 0 0 0 .5-.5v-10.71875-.28125a.50005.50005 0 0 0 -.5-.5zm.20703 1h.29297v10h-.29297l-2.85351-2.85352a.50005.50005 0 0 0 -.35352-.14648h-1.5v-4h1.5a.50005.50005 0 0 0 .35352-.14648z"/><path d="m165.4668 223.01562a.50005.50005 0 0 0 -.42188.72071c1.27607 2.70648 1.27309 5.84072-.008 8.54492a.50017783.50017783 0 1 0 .9043.42773c1.40867-2.97397 1.41118-6.42391.008-9.40039a.50005.50005 0 0 0 -.48242-.29297zm-2.86133.9375a.50005.50005 0 0 0 -.43359.74219c1.10287 2.06013 1.10465 4.5334.006 6.59571a.50023236.50023236 0 1 0 .88282.4707c1.25518-2.35583 1.25203-5.18378-.008-7.53711a.50005.50005 0 0 0 -.44726-.27149z"/></g></g></svg>