<?xml version="1.0" encoding="UTF-8" standalone="no"?>
<!-- Created with Inkscape (http://www.inkscape.org/) -->

<svg
   width="1800"
   height="1800"
   viewBox="0 0 1800 1800"
   version="1.1"
   id="svg1"
   xml:space="preserve"
   xmlns="http://www.w3.org/2000/svg"
   xmlns:svg="http://www.w3.org/2000/svg"><defs
     id="defs1" /><g
     id="g1"
     transform="translate(82.74029,120.31173)"
     style="display:inline"><path
       style="color:#000000;fill:#ffffff;fill-opacity:0.6;stroke-linecap:round;stroke-linejoin:round;-inkscape-stroke:none"
       d="m 819.75781,74.958984 c -177.80121,0 -330.03499,53.397116 -436.65039,158.789066 -106.6154,105.39194 -164.43359,259.99622 -164.43359,450.04492 v 345.98043 a 50.005,50.005 0 0 0 50,50 h 250.08984 a 50.005,50.005 0 0 0 50,-50 V 679.95703 a 50.005,50.005 0 0 0 -0.01,-1.05078 c 0,0 -0.57755,-60.23843 29.83203,-119.30664 30.40957,-59.06821 83.21926,-116.12891 221.17187,-116.12891 137.9526,0 190.76039,57.0607 221.16989,116.12891 30.4096,59.06821 29.834,119.30664 29.834,119.30664 a 50.005,50.005 0 0 0 -0.01,1.05078 v 349.81637 a 50.005,50.005 0 0 0 50,50 h 250.0878 a 50.005,50.005 0 0 0 50,-50 V 683.79297 c 0,-190.0487 -57.8162,-344.65298 -164.4316,-450.04492 C 1149.7928,128.3561 997.55901,74.958984 819.75781,74.958984 Z m 0,99.999996 c 158.08732,0 281.39609,45.92952 366.34959,129.90821 84.9536,83.97868 134.7324,208.79232 134.7324,378.92578 V 979.77344 H 1170.752 V 679.95703 l -0.012,1.04883 c 0,0 2.4322,-83.00379 -40.9023,-167.17774 C 1086.5033,429.65418 988.81516,343.4707 819.75781,343.4707 c -169.05736,0 -266.74553,86.18348 -310.08008,170.35742 -43.33454,84.17395 -40.90234,167.17774 -40.90234,167.17774 l -0.0117,-1.04883 V 979.77344 H 318.67383 V 683.79297 c 0,-170.13346 49.78081,-294.9471 134.73437,-378.92578 84.95356,-83.97868 208.26228,-129.90821 366.34961,-129.90821 z"
       id="path3"
       transform="translate(-2.4978449)" /><path
       style="color:#000000;fill:#ffffff;fill-opacity:0.6;stroke-linecap:round;stroke-linejoin:round;-inkscape-stroke:none"
       d="m 113.73242,1280.0742 a 50,50 0 0 0 -49.999998,50 50,50 0 0 0 49.999998,50 H 1527.3789 a 50,50 0 0 0 50,-50 50,50 0 0 0 -50,-50 z"
       id="path4" /></g></svg>
