<?xml version="1.0" encoding="UTF-8" standalone="no"?>
<!-- Created with Inkscape (http://www.inkscape.org/) -->

<svg
   width="1800"
   height="1800"
   viewBox="0 0 1800 1800"
   version="1.1"
   id="svg1"
   xml:space="preserve"
   xmlns="http://www.w3.org/2000/svg"
   xmlns:svg="http://www.w3.org/2000/svg"><defs
     id="defs1" /><g
     id="layer1"
     transform="translate(-25.557461,25.557461)"
     style="display:inline"><path
       id="path6"
       style="baseline-shift:baseline;display:inline;overflow:visible;opacity:1;vector-effect:none;fill:#ffffff;fill-opacity:0.6;stroke-linecap:round;stroke-linejoin:round;enable-background:accumulate;stop-color:#000000;stop-opacity:1"
       d="m 113.73237,1280.075 a 50,50 0 0 0 -50.000003,50 50,50 0 0 0 50.000003,50 h 300.99804 v -100 z m 1106.05663,0 v 100 h 307.5899 a 50,50 0 0 0 50,-50 50,50 0 0 0 -50,-50 z"
       transform="translate(108.29775,94.754269)" /><path
       style="color:#000000;fill:#ffffff;fill-opacity:0.9;stroke-linecap:round;stroke-linejoin:round;-inkscape-stroke:none"
       d="m 874.49609,892.66211 a 60,60 0 0 0 -34.5332,13.51367 60,60 0 0 0 -8.32031,84.44336 L 940.89062,1123.75 782.67383,1287.793 a 60.006,60.006 0 0 0 -2.89258,80.082 l 151.15625,181.2422 a 60,60 0 0 0 84.5078,7.6484 60,60 0 0 0 7.6484,-84.5078 L 906.41406,1332.3555 1064.332,1168.6191 a 60.006,60.006 0 0 0 3.1953,-79.7128 L 924.4082,914.49609 a 60,60 0 0 0 -49.91211,-21.83398 z"
       id="path7" /><path
       style="color:#000000;fill:#ffffff;stroke-linecap:round;stroke-linejoin:round;-inkscape-stroke:none"
       d="m 925.55772,174.13317 c -177.58192,0 -329.69868,52.08651 -436.4414,156.37305 C 382.37359,434.79277 324.47374,588.49854 324.47374,778.54724 v 49.88086 c 0.003,27.61309 22.38691,49.99724 50,50 h 250.08984 c 27.61309,-0.003 49.99724,-22.38691 50,-50 v -53.7168 c 2.4e-4,-0.34508 -0.003,-0.69015 -0.01,-1.03516 0,0 -0.56997,-61.56095 29.97461,-121.80664 30.54457,-60.24568 83.3166,-118.0625 221.02929,-118.0625 137.71272,0 190.48472,57.81681 221.02932,118.0625 30.5446,60.24569 29.9746,121.80664 29.9746,121.80664 -0.01,0.34501 -0.01,0.69008 -0.01,1.03516 v 53.7168 c 0,27.61309 22.3869,49.99724 50,50 h 250.0878 c 27.6131,-0.003 49.9972,-22.38691 50,-50 v -49.88086 c 0,-190.0487 -57.8979,-343.75447 -164.6406,-448.04102 C 1255.2564,226.21968 1103.1396,174.13317 925.55772,174.13317 Z"
       id="path4" /><path
       style="color:#000000;fill:#ffffff;stroke-linecap:round;stroke-linejoin:round;-inkscape-stroke:none"
       d="m 374.47374,980.28552 a 50.005,50.005 0 0 0 -50,49.99998 v 94.2422 a 50.005,50.005 0 0 0 50,50 h 250.08984 a 50.005,50.005 0 0 0 50,-50 v -94.2422 a 50.005,50.005 0 0 0 -50,-49.99998 z m 852.07816,0 a 50.005,50.005 0 0 0 -50,49.99998 v 94.2422 a 50.005,50.005 0 0 0 50,50 h 250.0878 a 50.005,50.005 0 0 0 50,-50 v -94.2422 a 50.005,50.005 0 0 0 -50,-49.99998 z"
       id="path2" /></g></svg>
