<svg height="1600" viewBox="0 0 1600 1600" width="1600" xmlns="http://www.w3.org/2000/svg" xmlns:inkscape="http://www.inkscape.org/namespaces/inkscape" xmlns:sodipodi="http://sodipodi.sourceforge.net/DTD/sodipodi-0.dtd"><sodipodi:namedview pagecolor="#303030" showgrid="true"><inkscape:grid id="grid5" units="px" spacingx="100" spacingy="100" color="#4772b3" opacity="0.2" visible="true" /></sodipodi:namedview><g fill="#fff"><g enable-background="new" transform="translate(-233 -365)"><path d="m1028 1556c-3.2833 0-6 2.4414-6 5.5 0 1.7056.9046 3.146 2.1523 4.3594l.9942.9941a.50004997.50004997 0 0 0 .3027.1485.50004997.50004997 0 0 0 .051.998h5a.50004997.50004997 0 0 0 .045-.998.50004997.50004997 0 0 0 .3086-.1485l.9981-.998c1.2122-1.1985 2.1465-2.6518 2.1465-4.3535 0-3.0586-2.7167-5.5-6-5.5zm0 1c2.7919 0 5 2.0358 5 4.5 0 1.3342-.7428 2.5488-1.8516 3.6445l-1 1a.50004997.50004997 0 0 0 .2793.8535h-4.8594a.50004997.50004997 0 0 0 .2871-.8535l-1-1a.50004997.50004997 0 0 0 -.01-.01c-1.1397-1.1082-1.8477-2.2864-1.8477-3.6406 0-2.4642 2.2081-4.5 5-4.5zm-2.5 12a.50004997.50004997 0 1 0 0 1h1.5v.5a.50004997.50004997 0 0 0 .5.5h1a.50004997.50004997 0 0 0 .5-.5v-.5h1.5a.50004997.50004997 0 1 0 0-1z"/><path d="m1025.4902 1561.0059a.50005.50005 0 0 0 -.3437.8476l.8535.8535v1.543a.50005.50005 0 1 0 1 0v-1.25h2v1.25a.50005.50005 0 1 0 1 0v-1.543l.8535-.8535a.50005.50005 0 0 0 -.707-.707l-.8535.8535h-2.586l-.8535-.8535a.50005.50005 0 0 0 -.3633-.1406z" opacity=".6"/></g><g enable-background="new" transform="matrix(100 0 0 100 -52999.621 -59800)"><path d="m534.49219 599c-.27229 0-.49219.223-.49219.5v1.5h-2.5a.50005.50005 0 1 0 0 1h2.5v3h-2.5a.50005.50005 0 1 0 0 1h2.5v1.5c0 .277.2199.5.49219.5h.0156c.27231 0 .49221-.223.49221-.5v-8c0-.277-.2199-.5-.49219-.5zm1.25781 1v7h1.25c1.69468 0 3-1.30532 3-3v-1c0-1.69468-1.30532-3-3-3z"/><path d="m541.48633 603.02734c-.55718.017-.67407.7946-.14649.97461 1.47614.5388 2.51343 1.91841 2.64454 3.53711.13105 1.61806-.67507 3.15416-2.04493 3.94532-.61541.35542-1.24895.51562-1.93945.51562h-9v1h9c.84916 0 1.67422-.20648 2.43945-.64844 1.70819-.98656 2.70486-2.89381 2.54297-4.89258-.16183-1.99811-1.44941-3.72267-3.30078-4.39843-.0622-.024-.12865-.0353-.19531-.0332z" opacity=".6"/></g></g></svg>