<svg height="1600" viewBox="0 0 1600 1600" width="1600" xmlns="http://www.w3.org/2000/svg" xmlns:inkscape="http://www.inkscape.org/namespaces/inkscape" xmlns:sodipodi="http://sodipodi.sourceforge.net/DTD/sodipodi-0.dtd"><sodipodi:namedview pagecolor="#303030" showgrid="true"><inkscape:grid id="grid5" units="px" spacingx="100" spacingy="100" color="#4772b3" opacity="0.2" visible="true" /></sodipodi:namedview><g fill="#fff"><g enable-background="new" transform="matrix(100 0 0 100 -52999.621 -59800)"><path d="m534.49219 599c-.27229 0-.49219.223-.49219.5v1.5h-2.5a.50005.50005 0 1 0 0 1h2.5v3h-2.5a.50005.50005 0 1 0 0 1h2.5v1.5c0 .277.2199.5.49219.5h.0156c.27231 0 .49221-.223.49221-.5v-8c0-.277-.2199-.5-.49219-.5zm1.25781 1v7h1.25c1.69468 0 3-1.30532 3-3v-1c0-1.69468-1.30532-3-3-3z"/><path d="m541.48633 603.02734c-.55718.017-.67407.7946-.14649.97461 1.47614.5388 2.51343 1.91841 2.64454 3.53711.13105 1.61806-.67507 3.15416-2.04493 3.94532-.61541.35542-1.24895.51562-1.93945.51562h-9v1h9c.84916 0 1.67422-.20648 2.43945-.64844 1.70819-.98656 2.70486-2.89381 2.54297-4.89258-.16183-1.99811-1.44941-3.72267-3.30078-4.39843-.0622-.024-.12865-.0353-.19531-.0332z" opacity=".6"/></g></g></svg>