<?xml version="1.0" encoding="UTF-8" standalone="no"?>
<svg
   id="svg2"
   height="1300"
   viewBox="0 0 1300 1300"
   width="1300"
   version="1.1"
   xmlns="http://www.w3.org/2000/svg"
   xmlns:svg="http://www.w3.org/2000/svg" xmlns:inkscape="http://www.inkscape.org/namespaces/inkscape" xmlns:sodipodi="http://sodipodi.sourceforge.net/DTD/sodipodi-0.dtd"><sodipodi:namedview pagecolor="#303030" showgrid="true"><inkscape:grid id="grid5" units="px" spacingx="100" spacingy="100" color="#4772b3" opacity="0.2" visible="true" /></sodipodi:namedview>
  <defs
     id="defs1" />
  <g
     id="g1">
    <path
       id="path1"
       d="m202.5 621.00003a5.4999997 5.4999997 0 0 0 -5.5 5.5 5.4999997 5.4999997 0 0 0 5.5 5.5 5.4999997 5.4999997 0 0 0 5.5-5.5 5.4999997 5.4999997 0 0 0 -5.5-5.5zm-.002 1.98438a.50005001.50005001 0 0 1 .50781.52343v2.5h2.50195a.50005001.50005001 0 1 1 0 .99805h-2.50195v2.50195a.50005001.50005001 0 0 1 -.50586.50586.50005001.50005001 0 0 1 -.49219-.50586v-2.50195h-2.5a.50005001.50005001 0 1 1 0-.99805h2.5v-2.5a.50005001.50005001 0 0 1 .49024-.52343z"
       fill="#fff"
       transform="matrix(100 0 0 100 -19600.421 -62000.722)" />
  </g>
</svg>
