<svg height="1600" viewBox="0 0 1100 1600" width="1100" xmlns="http://www.w3.org/2000/svg" xmlns:inkscape="http://www.inkscape.org/namespaces/inkscape" xmlns:sodipodi="http://sodipodi.sourceforge.net/DTD/sodipodi-0.dtd"><sodipodi:namedview pagecolor="#303030" showgrid="true"><inkscape:grid id="grid5" units="px" spacingx="100" spacingy="100" color="#4772b3" opacity="0.2" visible="true" /></sodipodi:namedview><g fill="#fff"><path d="m264.49219 220.9707a.50005.50005 0 0 0 -.4336.29688l-4 9a.50005.50005 0 0 0 .10352.55664l4 4a.50005.50005 0 0 0 .70703 0l4-4a.50005.50005 0 0 0 .10352-.55664l-4-9a.50005.50005 0 0 0 -.48047-.29688zm.0234 1.73047 3.4043 7.65821-3.4043 3.40429-3.40429-3.40429z" fill-rule="evenodd" transform="matrix(100 0 0 100 -25901.562 -21997.038)"/></g></svg>