<svg height="1600" viewBox="0 0 1600 1600" width="1600" xmlns="http://www.w3.org/2000/svg" xmlns:inkscape="http://www.inkscape.org/namespaces/inkscape" xmlns:sodipodi="http://sodipodi.sourceforge.net/DTD/sodipodi-0.dtd"><sodipodi:namedview pagecolor="#303030" showgrid="true"><inkscape:grid id="grid5" units="px" spacingx="100" spacingy="100" color="#4772b3" opacity="0.2" visible="true" /></sodipodi:namedview><g enable-background="new" fill="#fff" transform="matrix(100 0 0 100 -34100.43 -34600.19799)"><path d="m342.5 348c-.27613.00003-.49997.22387-.5.5v3c.00003.27613.22387.49997.5.5h3c.27613-.00003.49997-.22387.5-.5v-3c-.00003-.27613-.22387-.49997-.5-.5z" fill-rule="evenodd"/><path d="m162.50391 410c-.82054 0-1.4961.67556-1.4961 1.49609 0 .82054.67556 1.49958 1.4961 1.49958.82053 0 1.49609-.67904 1.49609-1.49958 0-.82053-.67556-1.49609-1.49609-1.49609zm-2.99347 3c-.67616-.01-.67616 1.00956 0 1h1.00518.49109l-.00671 3.28711c-1.65939 1.40974-3.2315 2.60194-3.97844 6.08774-.17787.67446.86019.89868.97656.21094.67528-3.15139 1.91357-4.06852 3.50774-5.40806 1.58398 1.34059 2.81676 2.27009 3.50477 5.42231.13318.66658 1.13543.44609.97656-.21484-.76273-3.49457-2.33628-4.69613-3.98719-6.10981l.00671-3.27539h2.22376 3.28515c.6573-.009.6573-.9907 0-1h-3.04296c-.45945.59659-1.17125.99219-1.96875.99219-.79751 0-1.50931-.3956-1.96875-.99219h-.0195z" opacity=".6" transform="translate(188 -63)"/></g></svg>