<svg height="1600" viewBox="0 0 1600 1600" width="1600" xmlns="http://www.w3.org/2000/svg" xmlns:inkscape="http://www.inkscape.org/namespaces/inkscape" xmlns:sodipodi="http://sodipodi.sourceforge.net/DTD/sodipodi-0.dtd"><sodipodi:namedview pagecolor="#303030" showgrid="true"><inkscape:grid id="grid5" units="px" spacingx="100" spacingy="100" color="#4772b3" opacity="0.2" visible="true" /></sodipodi:namedview><g fill="#fff"><g enable-background="new" transform="translate(-233 -365)"><path d="m1028 1556c-3.2833 0-6 2.4414-6 5.5 0 1.7056.9046 3.146 2.1523 4.3594l.9942.9941a.50004997.50004997 0 0 0 .3027.1485.50004997.50004997 0 0 0 .051.998h5a.50004997.50004997 0 0 0 .045-.998.50004997.50004997 0 0 0 .3086-.1485l.9981-.998c1.2122-1.1985 2.1465-2.6518 2.1465-4.3535 0-3.0586-2.7167-5.5-6-5.5zm0 1c2.7919 0 5 2.0358 5 4.5 0 1.3342-.7428 2.5488-1.8516 3.6445l-1 1a.50004997.50004997 0 0 0 .2793.8535h-4.8594a.50004997.50004997 0 0 0 .2871-.8535l-1-1a.50004997.50004997 0 0 0 -.01-.01c-1.1397-1.1082-1.8477-2.2864-1.8477-3.6406 0-2.4642 2.2081-4.5 5-4.5zm-2.5 12a.50004997.50004997 0 1 0 0 1h1.5v.5a.50004997.50004997 0 0 0 .5.5h1a.50004997.50004997 0 0 0 .5-.5v-.5h1.5a.50004997.50004997 0 1 0 0-1z"/><path d="m1025.4902 1561.0059a.50005.50005 0 0 0 -.3437.8476l.8535.8535v1.543a.50005.50005 0 1 0 1 0v-1.25h2v1.25a.50005.50005 0 1 0 1 0v-1.543l.8535-.8535a.50005.50005 0 0 0 -.707-.707l-.8535.8535h-2.586l-.8535-.8535a.50005.50005 0 0 0 -.3633-.1406z" opacity=".6"/></g><g enable-background="new" transform="matrix(100 0 0 100 -34100.43 -34601.1816)"><path d="m342.5 348c-.27613.00003-.49997.22387-.5.5v3c.00003.27613.22387.49997.5.5h3c.27613-.00003.49997-.22387.5-.5v-3c-.00003-.27613-.22387-.49997-.5-.5z" fill-rule="evenodd"/><path d="m162.50391 410c-.82054 0-1.4961.67556-1.4961 1.49609 0 .82054.67556 1.4961 1.4961 1.4961.82053 0 1.49609-.67556 1.49609-1.4961 0-.82053-.67556-1.49609-1.49609-1.49609zm-3.00391 3c-.67616-.01-.67616 1.00956 0 1h1.01562.49805l-.01367 3.28711c-1.65939 1.40974-3.24134 2.62162-3.98828 6.10742-.17787.67446.86019.89868.97656.21094.67528-3.15139 1.92341-4.0882 3.51758-5.42774 1.58398 1.34059 2.83152 2.27747 3.51953 5.42969.13318.66658 1.13543.44609.97656-.21484-.76273-3.49457-2.35104-4.70351-4.00195-6.11719l.01367-3.27539h2.2168 3.28515c.6573-.009.6573-.9907 0-1h-3.04296c-.45945.59659-1.17125.99219-1.96875.99219-.79751 0-1.50931-.3956-1.96875-.99219h-.0195z" opacity=".6" transform="translate(188 -63)"/></g></g></svg>