<svg height="1600" viewBox="0 0 1600 1600" width="1600" xmlns="http://www.w3.org/2000/svg" xmlns:inkscape="http://www.inkscape.org/namespaces/inkscape" xmlns:sodipodi="http://sodipodi.sourceforge.net/DTD/sodipodi-0.dtd"><sodipodi:namedview pagecolor="#303030" showgrid="true"><inkscape:grid id="grid5" units="px" spacingx="100" spacingy="100" color="#4772b3" opacity="0.2" visible="true" /></sodipodi:namedview><g fill="#fff"><path d="m285 536-.15625 1.90625c-.6231.14227-1.07677.25145-1.59375.59375l-1.75-1.5-1.5 1.5 1.5 1.75c-.34229.51699-.45148.97065-.59375 1.59375l-1.90625.15625v1 1l1.90625.15625c.14227.6231.25145 1.07677.59375 1.59375l-1.5 1.75 1.5 1.5 1.75-1.5c.51699.34229.97065.45148 1.59375.59375l.15625 1.90625h1 1l.15625-1.90625c.6231-.14227 1.07677-.25145 1.59375-.59375l1.75 1.5 1.5-1.5-1.5-1.75c.34229-.51699.45148-.97065.59375-1.59375l1.90625-.15625v-1-1l-1.90625-.15625c-.14227-.6231-.25145-1.07677-.59375-1.59375l1.5-1.75-1.5-1.5-1.75 1.5c-.51699-.34229-.97065-.45148-1.59375-.59375l-.15625-1.90625h-1zm1 5c1.11641 0 2 .88359 2 2s-.88359 2-2 2-2-.88359-2-2 .88359-2 2-2z" transform="matrix(100 0 0 100 -27800 -53500)"/></g></svg>