<svg id="svg4" height="1500" viewBox="0 0 1600 1500" width="1600" xmlns="http://www.w3.org/2000/svg" xmlns:xlink="http://www.w3.org/1999/xlink" xmlns:inkscape="http://www.inkscape.org/namespaces/inkscape" xmlns:sodipodi="http://sodipodi.sourceforge.net/DTD/sodipodi-0.dtd"><sodipodi:namedview pagecolor="#303030" showgrid="true"><inkscape:grid id="grid5" units="px" spacingx="100" spacingy="100" color="#4772b3" opacity="0.2" visible="true" /></sodipodi:namedview><g id="g1" fill="#fff" transform="matrix(0 100 -100 0 146650.33 28251.031)"><g id="g4"><path id="path2" d="m-272.5 1451.4947c-.8225 0-.99505.011-.98765 2.0053.007 2.0019.15813 1.9983.98063 1.9983s.99067.01.98064-1.9983c-.01-1.9805-.15112-2.0053-.97362-2.0053zm-5 5.0069c-.8225 0-1.01366.014-1.01222 1.9984.001 2.0016.18972 2.0018 1.01222 2.0018s.99055 0 .99116-2.0018c.00061-1.9911-.16866-1.9984-.99116-1.9984zm3 5.0021c-.8225 0-1.01572 0-1.00871 1.9972.007 1.9937.17628 1.997.99878 1.997s.99758 0 .99553-1.9979c-.002-1.9937-.1631-1.9963-.9856-1.9963z" fill="#fff"/></g><g fill="#fff"><g id="g2"><path id="path6" d="m-281.50781 1458c-.6573.01-.6573.9907 0 1h1.5v-1z" opacity=".4"/><path id="path4" d="m-281.50781 1453c-.6573.01-.6573.9907 0 1h6.49095v-1z" opacity=".4"/><path id="path1" d="m-276.98878 1463v1h-4.51903c-.6573-.01-.6573-.9907 0-1z" opacity=".4"/></g><g id="g3"><path id="path7" d="m-276.25991 1458v1h7.75991c.6573-.01.6573-.9907 0-1z" opacity=".8"/><path id="path5" d="m-271.24205 1453v1h2.74205c.6573-.01.6573-.9907 0-1z" opacity=".8"/><path id="path3" d="m-268.5 1463c.6573.01.6573.9907 0 1h-4.74588v-1z" opacity=".8"/></g></g></g></svg>