<svg height="1600" viewBox="0 0 1600 1600" width="1600" xmlns="http://www.w3.org/2000/svg" xmlns:inkscape="http://www.inkscape.org/namespaces/inkscape" xmlns:sodipodi="http://sodipodi.sourceforge.net/DTD/sodipodi-0.dtd"><sodipodi:namedview pagecolor="#303030" showgrid="true"><inkscape:grid id="grid5" units="px" spacingx="100" spacingy="100" color="#4772b3" opacity="0.2" visible="true" /></sodipodi:namedview><g fill="#fff"><g enable-background="new" transform="matrix(100 0 0 100 -29900 -9400.004)"><path d="m301 99c-.54636 0-1 .453638-1 1 0 .54636.45364 1 1 1s1-.45364 1-1c0-.546362-.45364-1-1-1zm0 4c-.54636 0-1 .45364-1 1s.45364 1 1 1 1-.45364 1-1-.45364-1-1-1zm0 4c-.54636 0-1 .45364-1 1s.45364 1 1 1 1-.45364 1-1-.45364-1-1-1zm3.5-7c-.67616-.0096-.67616 1.00956 0 1h2.25977c-.20553-.30677-.35861-.64616-.48438-1zm0 4c-.67616-.01-.67616 1.00956 0 1h8c.67616.01.67616-1.00956 0-1zm0 4c-.67616-.01-.67616 1.00956 0 1h8c.67616.01.67616-1.00956 0-1z" opacity=".6"/><path d="m310.5 95c-1.933 0-3.5 1.567-3.5 3.5s1.567 3.5 3.5 3.5 3.5-1.567 3.5-3.5-1.567-3.5-3.5-3.5zm-.5 1h1v2h2v1h-2v2h-1v-2h-2v-1h2z"/></g></g></svg>