<svg height="1600" viewBox="0 0 1500 1600" width="1500" xmlns="http://www.w3.org/2000/svg" xmlns:inkscape="http://www.inkscape.org/namespaces/inkscape" xmlns:sodipodi="http://sodipodi.sourceforge.net/DTD/sodipodi-0.dtd"><sodipodi:namedview pagecolor="#303030" showgrid="true"><inkscape:grid id="grid5" units="px" spacingx="100" spacingy="100" color="#4772b3" opacity="0.2" visible="true" /></sodipodi:namedview><g fill="#fff"><g enable-background="new" transform="matrix(100 0 0 100 -19500.303 -22000.192)"><path d="m199.5 221.00391c-.67616-.01-.67616 1.00956 0 1h1.5v1.08789c-2.83241.47934-5.00001 2.94243-5 5.9082 0 3.30787 2.69334 6 6.00195 6s6.00196-2.69214 6.00196-6c0-1.22417-.37149-2.36223-1.00391-3.3125a.50005.50005 0 0 0 .10352-.0801l1.75-1.75a.50005.50005 0 0 0 -.36329-.85937.50005.50005 0 0 0 -.34375.15234l-1.75 1.75a.50005.50005 0 0 0 -.0117.0137c-1.09645-1.17448-2.65347-1.91407-4.38283-1.91407-.00065 0-.001 0-.002 0v-.99609h1.5c.67616.01.67616-1.00956 0-1zm2.50195 2.99609c2.76833 0 5.00196 2.23273 5.00196 5 0 2.76726-2.23363 5-5.00196 5s-5.00195-2.23273-5.00195-5c-.00001-2.76727 2.23362-5 5.00195-5z" fill-rule="evenodd"/><path d="m201.49219 224.99609a.50005.50005 0 0 0 -.49219.50782v3.91992a.50005.50005 0 0 0 .11328.40429.50005.50005 0 0 0 .0156.0195.50005.50005 0 0 0 .0176.0176.50005.50005 0 0 0 .004.002.50005.50005 0 0 0 .0332.0312.50005.50005 0 0 0 .004.002.50005.50005 0 0 0 .39453.10352h2.91779a.50005.50005 0 1 0 0-1h-2.5v-3.5a.50005.50005 0 0 0 -.50781-.50782z"/></g></g></svg>