<?xml version="1.0" encoding="UTF-8" standalone="no"?>
<svg
   height="1500"
   viewBox="0 0 1600 1500"
   width="1600"
   version="1.1"
   id="svg4"
   xmlns="http://www.w3.org/2000/svg"
   xmlns:svg="http://www.w3.org/2000/svg">
  <defs
     id="defs4" />
  <g
     fill="#fff"
     id="g4">
    <g
       enable-background="new"
       transform="matrix(100 0 0 100 -48799.99999999999 -3199.999)"
       id="g3">
      <path
         d="m 498,37.5 c -3e-5,0.276131 -0.22387,0.499972 -0.5,0.5 h -2 c -0.27613,-2.8e-5 -0.49997,-0.223869 -0.5,-0.5 v -2 c 3e-5,-0.276131 0.22387,-0.499972 0.5,-0.5 h 2 c 0.27613,2.8e-5 0.49997,0.223869 0.5,0.5 z"
         id="path1" />
      <path
         d="m 489.5,33 c -0.27613,2.8e-5 -0.49997,0.223869 -0.5,0.5 v 12 c 3e-5,0.276131 0.22387,0.499972 0.5,0.5 h 13 c 0.27613,-2.8e-5 0.49997,-0.223869 0.5,-0.5 v -12 c -3e-5,-0.276131 -0.22387,-0.499972 -0.5,-0.5 z m 0.5,1 h 12 v 11 h -12 z"
         id="path2" />
      <path
         d="m 494,37.5 c -3e-5,0.276131 -0.22387,0.499972 -0.5,0.5 h -2 c -0.27613,-2.8e-5 -0.49997,-0.223869 -0.5,-0.5 v -2 c 3e-5,-0.276131 0.22387,-0.499972 0.5,-0.5 h 2 c 0.27613,2.8e-5 0.49997,0.223869 0.5,0.5 z"
         id="path3" />
      <path
         d="m 494,41.5 c -3e-5,0.276131 -0.22387,0.499972 -0.5,0.5 h -2 c -0.27613,-2.8e-5 -0.49997,-0.223869 -0.5,-0.5 v -2 c 3e-5,-0.276131 0.22387,-0.499972 0.5,-0.5 h 2 c 0.27613,2.8e-5 0.49997,0.223869 0.5,0.5 z"
         id="path4"
         style="opacity:0.65" />
    </g>
  </g>
</svg>
