<svg id="svg3" height="1500" viewBox="0 0 1600 1499.9999" width="1600" xmlns="http://www.w3.org/2000/svg" xmlns:inkscape="http://www.inkscape.org/namespaces/inkscape" xmlns:sodipodi="http://sodipodi.sourceforge.net/DTD/sodipodi-0.dtd"><sodipodi:namedview pagecolor="#303030" showgrid="true"><inkscape:grid id="grid5" units="px" spacingx="100" spacingy="100" color="#4772b3" opacity="0.2" visible="true" /></sodipodi:namedview><g id="g5" fill="#fff"><path id="path2" d="m-257.87111 1462.2129c-.44071 0-.80373.363-.80373.8037s.36302.8038.80373.8038.80373-.3631.80373-.8038-.36302-.8037-.80373-.8037zm.001 3.0161c-.44071 0-.80373.363-.80373.8037s.36302.8038.80373.8038.80373-.3631.80373-.8038-.36302-.8037-.80373-.8037z" stroke-width=".53582" transform="matrix(100 0 0 100 26235.262 -145552.2)"/><path id="path3-5" d="m-287.0971 1456.4439c-.6573.01-.6573.9792 0 .9885h5.09553c.62811.0003.57196-1.001 0-1z" transform="matrix(100 0 0 100 29405.504 -144943.26)"/><path id="path3-5-6" d="m-287.27328 1456.43c-.6573.01-.6573.9882 0 .9975h5.09553c.62811 0 .57196-1.0003 0-1z" transform="matrix(100 0 0 100 29423.131 -144642.92)"/></g><g id="g6"><path id="path1" d="m363.5 95c-.27613.00003-.49997.22387-.5.5v12.02056c0 .25175.23793.47457.50371.47457h12.99506c.25147 0 .50123-.23303.50123-.49195v-10.00318c-.00003-.27613-.22387-.49997-.5-.5h-8.5v-1.5c-.00003-.27613-.22387-.49997-.5-.5zm.50025 3.000499 11.99851-.0014-.00033 9.001821-11.99974-.00068z" fill="#fff" fill-opacity=".8" transform="matrix(100 0 0 100 -36200 -9400)"/></g></svg>