<svg height="1600" viewBox="0 0 1600 1600" width="1600" xmlns="http://www.w3.org/2000/svg" xmlns:inkscape="http://www.inkscape.org/namespaces/inkscape" xmlns:sodipodi="http://sodipodi.sourceforge.net/DTD/sodipodi-0.dtd"><sodipodi:namedview pagecolor="#303030" showgrid="true"><inkscape:grid id="grid5" units="px" spacingx="100" spacingy="100" color="#4772b3" opacity="0.2" visible="true" /></sodipodi:namedview><g fill="#fff"><g enable-background="new" fill-rule="evenodd" stroke-width="1.15385" transform="matrix(86.6667 0 0 86.6667 -38546.682 -48080.0188)"><path d="m454 555.92383c-4.45393 0-8.07617 3.62224-8.07617 8.07617s3.62224 8.07617 8.07617 8.07617 8.07617-3.62224 8.07617-8.07617-3.62224-8.07617-8.07617-8.07617zm0 1.15234c3.83034 0 6.92383 3.09349 6.92383 6.92383s-3.09349 6.92383-6.92383 6.92383-6.92383-3.09349-6.92383-6.92383 3.09349-6.92383 6.92383-6.92383z" opacity=".6"/><path d="m454 561.69141c-1.26767-.00001-2.3086 1.04092-2.30859 2.30859-.00001 1.26767 1.04092 2.3086 2.30859 2.30859 1.26767.00001 2.3086-1.04092 2.30859-2.30859.00001-1.26767-1.04092-2.3086-2.30859-2.30859z"/><path d="m454 558.23047c-3.17259.00001-5.76953 2.59694-5.76953 5.76953-.00001 3.17259 2.59694 5.76952 5.76953 5.76953 3.1726.00001 5.76954-2.59693 5.76953-5.76953 0-3.1726-2.59693-5.76954-5.76953-5.76953zm0 2.30859c1.92543 0 3.46094 1.53551 3.46094 3.46094s-1.53551 3.46094-3.46094 3.46094c-1.92542-.00001-3.46094-1.53552-3.46094-3.46094s1.53552-3.46093 3.46094-3.46094z" opacity=".9"/></g></g></svg>