<svg height="1600" viewBox="0 0 1600 1600" width="1600" xmlns="http://www.w3.org/2000/svg" xmlns:inkscape="http://www.inkscape.org/namespaces/inkscape" xmlns:sodipodi="http://sodipodi.sourceforge.net/DTD/sodipodi-0.dtd"><sodipodi:namedview pagecolor="#303030" showgrid="true"><inkscape:grid id="grid5" units="px" spacingx="100" spacingy="100" color="#4772b3" opacity="0.2" visible="true" /></sodipodi:namedview><g fill="#fff"><g enable-background="new" fill-rule="evenodd" stroke-width="1.15385" transform="matrix(86.6667 0 0 86.6667 -38546.682 -48080.0188)"><path d="m454 555.92383c-4.45393 0-8.07617 3.62224-8.07617 8.07617s3.62224 8.07617 8.07617 8.07617 8.07617-3.62224 8.07617-8.07617-3.62224-8.07617-8.07617-8.07617zm0 1.15234c3.83034 0 6.92383 3.09349 6.92383 6.92383s-3.09349 6.92383-6.92383 6.92383-6.92383-3.09349-6.92383-6.92383 3.09349-6.92383 6.92383-6.92383z" opacity=".7"/><path d="m454 558.23047c-3.17259 0-5.76953 2.59694-5.76953 5.76953-.00001 3.1726 2.59693 5.76953 5.76953 5.76953s5.76954-2.59693 5.76953-5.76953c0-3.17259-2.59694-5.76953-5.76953-5.76953zm0 2.30859c1.92542 0 3.46093 1.53552 3.46094 3.46094 0 1.92543-1.53551 3.46094-3.46094 3.46094s-3.46094-1.53551-3.46094-3.46094c.00001-1.92542 1.53552-3.46094 3.46094-3.46094z"/></g></g></svg>