<svg height="1600" viewBox="0 0 1600 1600" width="1600" xmlns="http://www.w3.org/2000/svg" xmlns:inkscape="http://www.inkscape.org/namespaces/inkscape" xmlns:sodipodi="http://sodipodi.sourceforge.net/DTD/sodipodi-0.dtd"><sodipodi:namedview pagecolor="#303030" showgrid="true"><inkscape:grid id="grid5" units="px" spacingx="100" spacingy="100" color="#4772b3" opacity="0.2" visible="true" /></sodipodi:namedview><g fill="#fff"><g enable-background="new" transform="matrix(100 0 0 100 -42500.707 -53500)"><path d="m433 541c-1.09865 0-2 .90135-2 2s.90135 2 2 2 2-.90135 2-2-.90135-2-2-2z" fill-rule="evenodd"/><path d="m433.08008 537.98438c-2.77576 0-5.01953 2.26323-5.01953 5.01562 0 2.7524 2.24277 5.02307 5.02148 5.01562l5.91992-.01562a1.0001 1.0001 0 1 0 -.004-2l-5.91993.0156c-1.70285.005-3.01757-1.33278-3.01757-3.01562 0-1.68217 1.31272-3.01459 3.01757-3.01562l5.92003.01564a1.0001 1.0001 0 1 0 .004-2l-5.91992-.0156a1.0001 1.0001 0 0 0 -.002 0z" fill-rule="evenodd" opacity=".9"/><path d="m433 536c-2.50006 0-4.81247 1.33488-6.0625 3.5-1.25002 2.16512-1.25002 4.83488 0 7 1.25003 2.16512 3.56244 3.5 6.0625 3.5h6.5a.50005.50005 0 1 0 0-1h-6.5c-2.1444 0-4.12312-1.1429-5.19531-3-1.0722-1.8571-1.0722-4.1429 0-6 1.07219-1.8571 3.05091-3 5.19531-3h6.5a.50005.50005 0 1 0 0-1z" opacity=".6"/></g></g></svg>