<svg height="1600" viewBox="0 0 1600 1600" width="1600" xmlns="http://www.w3.org/2000/svg" xmlns:inkscape="http://www.inkscape.org/namespaces/inkscape" xmlns:sodipodi="http://sodipodi.sourceforge.net/DTD/sodipodi-0.dtd"><sodipodi:namedview pagecolor="#303030" showgrid="true"><inkscape:grid id="grid5" units="px" spacingx="100" spacingy="100" color="#4772b3" opacity="0.2" visible="true" /></sodipodi:namedview><g fill="#fff"><path d="m71.5 536c-1.3819 0-2.5 1.1181-2.5 2.5v1c0 1.3818 1.118 2.5 2.5 2.5h9c1.382 0 2.5-1.1182 2.5-2.5v-1c0-1.3857-1.13452-2.48443-2.51172-2.48633zm3.5 1.00586 5.48633.008c.8628 0 1.51367.63203 1.51367 1.48633v1c0 .8578-.642 1.5-1.5 1.5h-5.5zm-3.5 6.99414c-1.3819 0-2.5 1.1181-2.5 2.5v1c0 1.3818 1.118 2.5 2.5 2.5h9c1.382 0 2.5-1.1182 2.5-2.5v-1c0-1.3857-1.13452-2.48443-2.51172-2.48633zm6.50977 1.00977 2.47656.004c.8628 0 1.51367.63203 1.51367 1.48633v1c0 .8578-.642 1.5-1.5 1.5h-2.5z" transform="matrix(100 0 0 100 -6800 -53500)"/></g></svg>