<?xml version="1.0" encoding="UTF-8" standalone="no"?>
<svg
   id="svg3"
   height="1600"
   viewBox="0 0 1600 1600"
   width="1600"
   version="1.1"
   xmlns="http://www.w3.org/2000/svg"
   xmlns:svg="http://www.w3.org/2000/svg" xmlns:inkscape="http://www.inkscape.org/namespaces/inkscape" xmlns:sodipodi="http://sodipodi.sourceforge.net/DTD/sodipodi-0.dtd"><sodipodi:namedview pagecolor="#303030" showgrid="true"><inkscape:grid id="grid5" units="px" spacingx="100" spacingy="100" color="#4772b3" opacity="0.2" visible="true" /></sodipodi:namedview>
  <defs
     id="defs1" />
  <g
     id="g1">
    <path
       id="path2"
       d="m34 622c-1.783333 0-3 1.5-3 3h2c0-.5.283333-1 1-1s1 .5 1 1c0 .24702-.03644.30082-.117188.41016-.08074.10934-.253932.25966-.513671.4707-.519479.42208-1.369141 1.28581-1.369141 2.61914v.5h2v-.5c0-.66667.150338-.67794.630859-1.06836.240261-.19521.567072-.43551.861329-.83398.294256-.39848.507812-.96968.507812-1.59766 0-1.5-1.216667-3-3-3zm-1 8.00009h2v2h-2zm1-10.00009c-3.86007 0-7 3.13991-7 7s3.13993 7 7 7c3.86008 0 7-3.13991 7-7s-3.13992-7-7-7zm0 1c3.31964 0 6 2.68035 6 6s-2.68036 6-6 6c-3.31963 0-6-2.68035-6-6s2.68037-6 6-6z"
       fill="#fff"
       transform="matrix(100 0 0 100 -2600.0002 -61900)" />
  </g>
</svg>
