<svg id="svg4" height="1600" viewBox="0 0 1600 1599.9999" width="1600" xmlns="http://www.w3.org/2000/svg" xmlns:inkscape="http://www.inkscape.org/namespaces/inkscape" xmlns:sodipodi="http://sodipodi.sourceforge.net/DTD/sodipodi-0.dtd"><sodipodi:namedview pagecolor="#303030" showgrid="true"><inkscape:grid id="grid5" units="px" spacingx="100" spacingy="100" color="#4772b3" opacity="0.2" visible="true" /></sodipodi:namedview><g id="g1"><g id="blender_info" fill="none"><path id="path1" d="m799.78455 179.90086c342.43575 0 620.55515 277.73924 620.55515 620.0115 0 342.27234-278.1194 620.50664-620.55515 620.50664-342.43441 0-620.16037-278.2343-620.16037-620.50664 0-342.27226 277.72596-620.0115 620.16037-620.0115z" stroke-width="1.00181"/></g><g id="blender_text" fill="#fff" fill-rule="evenodd" transform="matrix(26.924199 0 0 26.917795 -1784.6771 -61.216)"><path id="path3" d="m97.000019 18.000014c-4.683996-.023-7.966055 2.174981-7.964055 2.185981l1.513001 3.293012s1.513005-.691021 2.961004-1.166021c1.122999-.367999 1.907021-.525979 2.99002-.525979.896999 0 2.460047.162975 3.257046.864974.868995.766 1.035965 1.712023 1.035965 2.482022s-.09699 1.589015-.63699 2.399014c-.565995.846999-1.637017 1.811979-2.841016 2.813978-1.227998 1.020999-1.890022 1.693985-2.599021 2.905984-.683999 1.171998-.715986 3.242051-.715986 3.511051v1.235968h3.499988v-.855034c0-.741999.119993-1.784997.599992-2.484996.680999-.992999 1.934063-1.958968 2.411063-2.340967.478-.383 1.94199-1.614019 2.82499-2.656018.52-.613999.93395-1.355011 1.22595-2.142011.329-.883999.42401-1.825988.42401-2.566988 0-2.390997-.94598-4.165953-2.13098-5.104952-.642-.509-2.29798-1.831018-5.854981-1.849018zm-.999987 23.000003a3 3 0 0 0 -3.000031 2.999947 3 3 0 0 0 3.000031 3.00002 3 3 0 0 0 2.999959-3.00002 3 3 0 0 0 -2.999959-2.999947z"/><path id="path2" d="m96 6c14.35 0 26 11.65 26 26s-11.65 26-26 26-26-11.65-26-26 11.65-26 26-26zm0 3c12.694 0 23 10.306 23 23s-10.306 23-23 23-23-10.306-23-23 10.306-23 23-23z"/></g></g></svg>