<svg height="1600" viewBox="0 0 1600 1600" width="1600" xmlns="http://www.w3.org/2000/svg" xmlns:inkscape="http://www.inkscape.org/namespaces/inkscape" xmlns:sodipodi="http://sodipodi.sourceforge.net/DTD/sodipodi-0.dtd"><sodipodi:namedview pagecolor="#303030" showgrid="true"><inkscape:grid id="grid5" units="px" spacingx="100" spacingy="100" color="#4772b3" opacity="0.2" visible="true" /></sodipodi:namedview><g fill="#fff"><g enable-background="new" transform="translate(-233 -365)"><path d="m1028 1556c-3.2833 0-6 2.4414-6 5.5 0 1.7056.9046 3.146 2.1523 4.3594l.9942.9941a.50004997.50004997 0 0 0 .3027.1485.50004997.50004997 0 0 0 .051.998h5a.50004997.50004997 0 0 0 .045-.998.50004997.50004997 0 0 0 .3086-.1485l.9981-.998c1.2122-1.1985 2.1465-2.6518 2.1465-4.3535 0-3.0586-2.7167-5.5-6-5.5zm0 1c2.7919 0 5 2.0358 5 4.5 0 1.3342-.7428 2.5488-1.8516 3.6445l-1 1a.50004997.50004997 0 0 0 .2793.8535h-4.8594a.50004997.50004997 0 0 0 .2871-.8535l-1-1a.50004997.50004997 0 0 0 -.01-.01c-1.1397-1.1082-1.8477-2.2864-1.8477-3.6406 0-2.4642 2.2081-4.5 5-4.5zm-2.5 12a.50004997.50004997 0 1 0 0 1h1.5v.5a.50004997.50004997 0 0 0 .5.5h1a.50004997.50004997 0 0 0 .5-.5v-.5h1.5a.50004997.50004997 0 1 0 0-1z"/><path d="m1025.4902 1561.0059a.50005.50005 0 0 0 -.3437.8476l.8535.8535v1.543a.50005.50005 0 1 0 1 0v-1.25h2v1.25a.50005.50005 0 1 0 1 0v-1.543l.8535-.8535a.50005.50005 0 0 0 -.707-.707l-.8535.8535h-2.586l-.8535-.8535a.50005.50005 0 0 0 -.3633-.1406z" opacity=".6"/></g><g enable-background="new" transform="matrix(100 0 0 100 -2600.0002 -61900)"><path d="m25.000002-636h18v18h-18z" fill="none" stroke-width="1.627" transform="scale(1 -1)"/><path d="m34 622c-1.783333 0-3 1.5-3 3h2c0-.5.283333-1 1-1s1 .5 1 1c0 .24702-.03644.30082-.117188.41016-.08074.10934-.253932.25966-.513671.4707-.519479.42208-1.369141 1.28581-1.369141 2.61914v.5h2v-.5c0-.66667.150338-.67794.630859-1.06836.240261-.19521.567072-.43551.861329-.83398.294256-.39848.507812-.96968.507812-1.59766 0-1.5-1.216667-3-3-3zm-1 8.00009h2v2h-2zm1-10.00009c-3.86007 0-7 3.13991-7 7s3.13993 7 7 7c3.86008 0 7-3.13991 7-7s-3.13992-7-7-7zm0 1c3.31964 0 6 2.68035 6 6s-2.68036 6-6 6c-3.31963 0-6-2.68035-6-6s2.68037-6 6-6z" fill="#fff"/></g></g></svg>