<svg height="1600" viewBox="0 0 1600 1599.9999" width="1600" xmlns="http://www.w3.org/2000/svg" xmlns:inkscape="http://www.inkscape.org/namespaces/inkscape" xmlns:sodipodi="http://sodipodi.sourceforge.net/DTD/sodipodi-0.dtd"><sodipodi:namedview pagecolor="#303030" showgrid="true"><inkscape:grid id="grid5" units="px" spacingx="100" spacingy="100" color="#4772b3" opacity="0.2" visible="true" /></sodipodi:namedview><g clip-rule="evenodd" enable-background="new" transform="matrix(100 0 0 100 -2876.575 -43092.903)"><path d="m30.583145 445.29776h56.316948v15.124175h-56.316948z" fill="none" stroke-linejoin="round" stroke-miterlimit="2" stroke-width=".025131"/><g fill="#fff" fill-rule="evenodd" transform="matrix(.26924199 0 0 .26917795 10.918979 430.31687)"><path d="m96 6c14.35 0 26 11.65 26 26s-11.65 26-26 26-26-11.65-26-26 11.65-26 26-26zm0 3c12.694 0 23 10.306 23 23s-10.306 23-23 23-23-10.306-23-23 10.306-23 23-23z"/><circle cx="96" cy="44" r="3"/><path d="m90.549 23.479-1.513-3.293c-.002-.011 3.28-2.209 7.964-2.186 3.557.018 5.213 1.34 5.855 1.849 1.185.939 2.131 2.714 2.131 5.105 0 .741-.095 1.683-.424 2.567-.292.787-.706 1.528-1.226 2.142-.883 1.042-2.347 2.273-2.825 2.656-.477.382-1.73 1.348-2.411 2.341-.48.7-.6 1.743-.6 2.485v.855h-3.5v-1.236c0-.269.032-2.339.716-3.511.709-1.212 1.371-1.885 2.599-2.906 1.204-1.002 2.275-1.967 2.841-2.814.54-.81.637-1.629.637-2.399s-.167-1.716-1.036-2.482c-.797-.702-2.36-.865-3.257-.865-1.083 0-1.867.158-2.99.526-1.448.475-2.961 1.166-2.961 1.166z"/></g></g></svg>