<svg height="1600" viewBox="0 0 1500 1600" width="1500" xmlns="http://www.w3.org/2000/svg" xmlns:inkscape="http://www.inkscape.org/namespaces/inkscape" xmlns:sodipodi="http://sodipodi.sourceforge.net/DTD/sodipodi-0.dtd"><sodipodi:namedview pagecolor="#303030" showgrid="true"><inkscape:grid id="grid5" units="px" spacingx="100" spacingy="100" color="#4772b3" opacity="0.2" visible="true" /></sodipodi:namedview><g fill="#fff"><path d="m411.49219 577.94727a.50005.50005 0 0 0 -.49219.50781v7a.50005.50005 0 1 0 1 0v-7a.50005.50005 0 0 0 -.50781-.50781zm-3.01563 2.05273a.50005.50005 0 0 0 -.22265.0684c-2.54449 1.43695-3.79437 4.38222-3.03125 7.16797s3.34282 4.71875 6.27734 4.71875 5.51422-1.933 6.27734-4.71875-.48676-5.73102-3.03125-7.16797a.50025967.50025967 0 1 0 -.49218.87109c2.15894 1.21922 3.20113 3.68764 2.55859 6.03321s-2.81597 3.98242-5.3125 3.98242-4.66996-1.63685-5.3125-3.98242.39965-4.81399 2.55859-6.03321a.50005.50005 0 0 0 -.26953-.93949z" transform="matrix(100 0 0 100 -40400 -57695.11599999999)"/></g></svg>