<svg height="1600" viewBox="0 0 1500 1600" width="1500" xmlns="http://www.w3.org/2000/svg" xmlns:inkscape="http://www.inkscape.org/namespaces/inkscape" xmlns:sodipodi="http://sodipodi.sourceforge.net/DTD/sodipodi-0.dtd"><sodipodi:namedview pagecolor="#303030" showgrid="true"><inkscape:grid id="grid5" units="px" spacingx="100" spacingy="100" color="#4772b3" opacity="0.2" visible="true" /></sodipodi:namedview><g fill="#fff"><g enable-background="new" transform="translate(-233 -365)"><path d="m1028 1556c-3.2833 0-6 2.4414-6 5.5 0 1.7056.9046 3.146 2.1523 4.3594l.9942.9941a.50004997.50004997 0 0 0 .3027.1485.50004997.50004997 0 0 0 .051.998h5a.50004997.50004997 0 0 0 .045-.998.50004997.50004997 0 0 0 .3086-.1485l.9981-.998c1.2122-1.1985 2.1465-2.6518 2.1465-4.3535 0-3.0586-2.7167-5.5-6-5.5zm0 1c2.7919 0 5 2.0358 5 4.5 0 1.3342-.7428 2.5488-1.8516 3.6445l-1 1a.50004997.50004997 0 0 0 .2793.8535h-4.8594a.50004997.50004997 0 0 0 .2871-.8535l-1-1a.50004997.50004997 0 0 0 -.01-.01c-1.1397-1.1082-1.8477-2.2864-1.8477-3.6406 0-2.4642 2.2081-4.5 5-4.5zm-2.5 12a.50004997.50004997 0 1 0 0 1h1.5v.5a.50004997.50004997 0 0 0 .5.5h1a.50004997.50004997 0 0 0 .5-.5v-.5h1.5a.50004997.50004997 0 1 0 0-1z"/><path d="m1025.4902 1561.0059a.50005.50005 0 0 0 -.3437.8476l.8535.8535v1.543a.50005.50005 0 1 0 1 0v-1.25h2v1.25a.50005.50005 0 1 0 1 0v-1.543l.8535-.8535a.50005.50005 0 0 0 -.707-.707l-.8535.8535h-2.586l-.8535-.8535a.50005.50005 0 0 0 -.3633-.1406z" opacity=".6"/></g><path d="m411.49219 577.94727a.50005.50005 0 0 0 -.49219.50781v7a.50005.50005 0 1 0 1 0v-7a.50005.50005 0 0 0 -.50781-.50781zm-3.01563 2.05273a.50005.50005 0 0 0 -.22265.0684c-2.54449 1.43695-3.79437 4.38222-3.03125 7.16797s3.34282 4.71875 6.27734 4.71875 5.51422-1.933 6.27734-4.71875-.48676-5.73102-3.03125-7.16797a.50025967.50025967 0 1 0 -.49218.87109c2.15894 1.21922 3.20113 3.68764 2.55859 6.03321s-2.81597 3.98242-5.3125 3.98242-4.66996-1.63685-5.3125-3.98242.39965-4.81399 2.55859-6.03321a.50005.50005 0 0 0 -.26953-.93949z" transform="matrix(100 0 0 100 -40400 -57695.11599999999)"/></g></svg>