<svg height="1600" viewBox="0 0 1600 1600" width="1600" xmlns="http://www.w3.org/2000/svg" xmlns:inkscape="http://www.inkscape.org/namespaces/inkscape" xmlns:sodipodi="http://sodipodi.sourceforge.net/DTD/sodipodi-0.dtd"><sodipodi:namedview pagecolor="#303030" showgrid="true"><inkscape:grid id="grid5" units="px" spacingx="100" spacingy="100" color="#4772b3" opacity="0.2" visible="true" /></sodipodi:namedview><g fill="#fff"><path d="m447.49414 577.99023a.50005.50005 0 0 0 -.49219.50782v4a.50005.50005 0 0 0 .5.5h4a.50005.50005 0 1 0 0-1h-2.6875c1.48423-2.56389 4.60739-3.65907 7.36719-2.58008 2.762 1.07985 4.31643 4.00744 3.66406 6.90039s-3.31139 4.87021-6.26953 4.66016c-2.95814-.21006-5.31375-2.5439-5.55078-5.5a.50005.50005 0 1 0 -.99609.0801c.27595 3.44157 3.03067 6.17147 6.47461 6.41602 3.44393.24455 6.55885-2.06751 7.31836-5.43555.7595-3.36803-1.05982-6.79554-4.27539-8.05273-.8039-.3143-1.63664-.46878-2.45899-.47852-2.43307-.0288-4.77966 1.22272-6.08594 3.40821v-2.91797a.50005.50005 0 0 0 -.50781-.50782zm8.98828 3.00391a.50005.50005 0 0 0 -.38281.20508l-3 4a.50005.50005 0 0 0 -.0156.57812l2 3a.50005.50005 0 1 0 .83204-.55468l-1.80274-2.70508 2.78711-3.7168a.50005.50005 0 0 0 .10352-.3125.50005.50005 0 0 0 -.52149-.49414z" opacity=".99" transform="matrix(100 0 0 100 -44599.795 -57699.128)"/></g></svg>