<svg id="svg2" height="1200" viewBox="0 0 1200 1200" width="1200" xmlns="http://www.w3.org/2000/svg" xmlns:inkscape="http://www.inkscape.org/namespaces/inkscape" xmlns:sodipodi="http://sodipodi.sourceforge.net/DTD/sodipodi-0.dtd"><sodipodi:namedview pagecolor="#303030" showgrid="true"><inkscape:grid id="grid5" units="px" spacingx="100" spacingy="100" color="#4772b3" opacity="0.2" visible="true" /></sodipodi:namedview><g><g id="blender.red_alert" fill="#ffffff" transform="matrix(1 0 0 .99407813 0 5.93843)"><path id="path1" d="m599.97471 191.39126c-220.28631 0-403.19327 185.73026-403.19327 406.16752 0 229.42349 172.48512 404.04942 403.19327 404.04942 230.70813 0 401.14369-178.37144 401.89049-404.04942.7445-224.93037-181.60419-406.16752-401.89049-406.16752z" stroke-width="79.9717"/></g><g id="blender.text" fill="#ffffff" opacity=".8"><path id="path1-1" d="m599.88703 100.19229c-275.55 0-499.81389 224.2639-499.81389 499.8139s224.26389 499.81391 499.81389 499.81391 499.81387-224.45002 499.81387-500.00002-224.26387-499.62779-499.81387-499.62779zm0 99.62779c221.506 0 400.18607 178.68011 400.18607 400.18611s-178.68007 400.18611-400.18607 400.18611-400.55831-175.88855-400.55831-397.39455 179.05231-402.97767 400.55831-402.97767z" stroke-width="100"/></g></g></svg>