<svg height="1600" viewBox="0 0 1600 1600" width="1600" xmlns="http://www.w3.org/2000/svg" xmlns:inkscape="http://www.inkscape.org/namespaces/inkscape" xmlns:sodipodi="http://sodipodi.sourceforge.net/DTD/sodipodi-0.dtd"><sodipodi:namedview pagecolor="#303030" showgrid="true"><inkscape:grid id="grid5" units="px" spacingx="100" spacingy="100" color="#4772b3" opacity="0.2" visible="true" /></sodipodi:namedview><g fill="#fff"><g enable-background="new" transform="translate(-233 -365)"><path d="m1028 1556c-3.2833 0-6 2.4414-6 5.5 0 1.7056.9046 3.146 2.1523 4.3594l.9942.9941a.50004997.50004997 0 0 0 .3027.1485.50004997.50004997 0 0 0 .051.998h5a.50004997.50004997 0 0 0 .045-.998.50004997.50004997 0 0 0 .3086-.1485l.9981-.998c1.2122-1.1985 2.1465-2.6518 2.1465-4.3535 0-3.0586-2.7167-5.5-6-5.5zm0 1c2.7919 0 5 2.0358 5 4.5 0 1.3342-.7428 2.5488-1.8516 3.6445l-1 1a.50004997.50004997 0 0 0 .2793.8535h-4.8594a.50004997.50004997 0 0 0 .2871-.8535l-1-1a.50004997.50004997 0 0 0 -.01-.01c-1.1397-1.1082-1.8477-2.2864-1.8477-3.6406 0-2.4642 2.2081-4.5 5-4.5zm-2.5 12a.50004997.50004997 0 1 0 0 1h1.5v.5a.50004997.50004997 0 0 0 .5.5h1a.50004997.50004997 0 0 0 .5-.5v-.5h1.5a.50004997.50004997 0 1 0 0-1z"/><path d="m1025.4902 1561.0059a.50005.50005 0 0 0 -.3437.8476l.8535.8535v1.543a.50005.50005 0 1 0 1 0v-1.25h2v1.25a.50005.50005 0 1 0 1 0v-1.543l.8535-.8535a.50005.50005 0 0 0 -.707-.707l-.8535.8535h-2.586l-.8535-.8535a.50005.50005 0 0 0 -.3633-.1406z" opacity=".6"/></g><path d="m447.49414 577.99023a.50005.50005 0 0 0 -.49219.50782v4a.50005.50005 0 0 0 .5.5h4a.50005.50005 0 1 0 0-1h-2.6875c1.48423-2.56389 4.60739-3.65907 7.36719-2.58008 2.762 1.07985 4.31643 4.00744 3.66406 6.90039s-3.31139 4.87021-6.26953 4.66016c-2.95814-.21006-5.31375-2.5439-5.55078-5.5a.50005.50005 0 1 0 -.99609.0801c.27595 3.44157 3.03067 6.17147 6.47461 6.41602 3.44393.24455 6.55885-2.06751 7.31836-5.43555.7595-3.36803-1.05982-6.79554-4.27539-8.05273-.8039-.3143-1.63664-.46878-2.45899-.47852-2.43307-.0288-4.77966 1.22272-6.08594 3.40821v-2.91797a.50005.50005 0 0 0 -.50781-.50782zm8.98828 3.00391a.50005.50005 0 0 0 -.38281.20508l-3 4a.50005.50005 0 0 0 -.0156.57812l2 3a.50005.50005 0 1 0 .83204-.55468l-1.80274-2.70508 2.78711-3.7168a.50005.50005 0 0 0 .10352-.3125.50005.50005 0 0 0 -.52149-.49414z" opacity=".99" transform="matrix(100 0 0 100 -44599.795 -57699.128)"/></g></svg>