<svg height="1700" viewBox="0 0 1600 1700" width="1600" xmlns="http://www.w3.org/2000/svg" xmlns:inkscape="http://www.inkscape.org/namespaces/inkscape" xmlns:sodipodi="http://sodipodi.sourceforge.net/DTD/sodipodi-0.dtd"><sodipodi:namedview pagecolor="#303030" showgrid="true"><inkscape:grid id="grid5" units="px" spacingx="100" spacingy="100" color="#4772b3" opacity="0.2" visible="true" /></sodipodi:namedview><g fill="#fff"><g enable-background="new" transform="translate(-233 -365)"><path d="m1028 1556c-3.2833 0-6 2.4414-6 5.5 0 1.7056.9046 3.146 2.1523 4.3594l.9942.9941a.50004997.50004997 0 0 0 .3027.1485.50004997.50004997 0 0 0 .051.998h5a.50004997.50004997 0 0 0 .045-.998.50004997.50004997 0 0 0 .3086-.1485l.9981-.998c1.2122-1.1985 2.1465-2.6518 2.1465-4.3535 0-3.0586-2.7167-5.5-6-5.5zm0 1c2.7919 0 5 2.0358 5 4.5 0 1.3342-.7428 2.5488-1.8516 3.6445l-1 1a.50004997.50004997 0 0 0 .2793.8535h-4.8594a.50004997.50004997 0 0 0 .2871-.8535l-1-1a.50004997.50004997 0 0 0 -.01-.01c-1.1397-1.1082-1.8477-2.2864-1.8477-3.6406 0-2.4642 2.2081-4.5 5-4.5zm-2.5 12a.50004997.50004997 0 1 0 0 1h1.5v.5a.50004997.50004997 0 0 0 .5.5h1a.50004997.50004997 0 0 0 .5-.5v-.5h1.5a.50004997.50004997 0 1 0 0-1z"/><path d="m1025.4902 1561.0059a.50005.50005 0 0 0 -.3437.8476l.8535.8535v1.543a.50005.50005 0 1 0 1 0v-1.25h2v1.25a.50005.50005 0 1 0 1 0v-1.543l.8535-.8535a.50005.50005 0 0 0 -.707-.707l-.8535.8535h-2.586l-.8535-.8535a.50005.50005 0 0 0 -.3633-.1406z" opacity=".6"/></g><path d="m218.5 472a.50005.50005 0 1 0 0 1h3a.50005.50005 0 1 0 0-1zm-2 2c-.27613.00003-.49997.22387-.5.5v12c.00003.27613.22387.49997.5.5h7c.67616.01.67616-1.00956 0-1h-6.5v-1h2.50781c.27613-.00003.49997-.22387.5-.5v-7.5h8.99219v2.5c0 .525-.14815.87861-.38477 1.11523-.23661.23663-.59024.38477-1.11523.38477h-1c-.27613.00003-.49997.22387-.5.5v2.5h-4.5c-.67616-.01-.67616 1.00956 0 1h5c.27613-.00003.49997-.22387.5-.5v-2.5h.5c.72501 0 1.37138-.22683 1.82227-.67773.45088-.4509.67773-1.09727.67773-1.82227v-3c-.00003-.27613-.22387-.49997-.5-.5h-5.5v-1.5c-.00003-.27613-.22387-.49997-.5-.5zm.5 1h6v1h-6zm4 3v1h1v-1zm2 0v1h1v-1zm2 0v1h1v-1zm2 0v1h1v-1z" transform="matrix(100 0 0 100 -21500 -47100.0012)"/></g></svg>