<svg id="svg4" height="1600" viewBox="0 0 1600 1600" width="1600" xmlns="http://www.w3.org/2000/svg" xmlns:inkscape="http://www.inkscape.org/namespaces/inkscape" xmlns:sodipodi="http://sodipodi.sourceforge.net/DTD/sodipodi-0.dtd"><sodipodi:namedview pagecolor="#303030" showgrid="true"><inkscape:grid id="grid5" units="px" spacingx="100" spacingy="100" color="#4772b3" opacity="0.2" visible="true" /></sodipodi:namedview><g fill="#fff" transform="matrix(100 0 0 100 -2599.9969 -49300.003)"><path id="path1" d="m31.500008 494.00001a.50005.50005 0 0 0 -.5.5v9a.50005.50005 0 0 0 .5.5h9a.50005.50005 0 0 0 .5-.5v-9a.50005.50005 0 0 0 -.5-.5zm.5 1h8v8h-2.051445c.000216-.07153-.016217-.14491-.054024-.21485l-3-5.5c-.08111-.14873-.238867-.2393-.408203-.23437-.16529.005-.314526.10023-.388672.24804l-2.097656 4.19532zm6 1c-.546361 0-1 .45364-1 1 0 .54635.453639 1 1 1 .546362 0 1-.45365 1-1 0-.54636-.453638-1-1-1z"/><path id="path3" d="m29.492188 495.99219a.50005.50005 0 0 0 -.492188.50781v9a.50005.50005 0 0 0 .5.5h9a.50005.50005 0 1 0 0-1h-8.5v-8.5a.50005.50005 0 0 0 -.507812-.50781zm-2 2a.50005.50005 0 0 0 -.492188.50781v9a.50005.50005 0 0 0 .5.5h9a.50005.50005 0 1 0 0-1h-8.5v-8.5a.50005.50005 0 0 0 -.507812-.50781z" fill-rule="evenodd" opacity=".693"/></g></svg>