<svg height="1600" viewBox="0 0 1600 1600" width="1600" xmlns="http://www.w3.org/2000/svg" xmlns:inkscape="http://www.inkscape.org/namespaces/inkscape" xmlns:sodipodi="http://sodipodi.sourceforge.net/DTD/sodipodi-0.dtd"><sodipodi:namedview pagecolor="#303030" showgrid="true"><inkscape:grid id="grid5" units="px" spacingx="100" spacingy="100" color="#4772b3" opacity="0.2" visible="true" /></sodipodi:namedview><g fill="#fff"><g enable-background="new" transform="matrix(100 0 0 100 -2599.9969 -49300.0025)"><path d="m31.5 494a.50005.50005 0 0 0 -.5.5v9a.50005.50005 0 0 0 .5.5h9a.50005.50005 0 0 0 .5-.5v-9a.50005.50005 0 0 0 -.5-.5zm.5 1h8v8h-8z" fill-rule="evenodd"/><path d="m38 496c-.546362 0-1 .45364-1 1s.453638 1 1 1 1-.45364 1-1-.453638-1-1-1zm-3.513672 1.05078c-.16529.005-.314526.10024-.388672.24805l-2.75 5.5c-.148607.29892.06852.64991.402344.65039h5.75c.340259-.001.55634-.36474.394531-.66406l-3-5.5c-.08111-.14873-.238867-.23931-.408203-.23438z"/><path d="m29.492188 495.99219a.50005.50005 0 0 0 -.492188.50781v9a.50005.50005 0 0 0 .5.5h9a.50005.50005 0 1 0 0-1h-8.5v-8.5a.50005.50005 0 0 0 -.507812-.50781zm-2 2a.50005.50005 0 0 0 -.492188.50781v9a.50005.50005 0 0 0 .5.5h9a.50005.50005 0 1 0 0-1h-8.5v-8.5a.50005.50005 0 0 0 -.507812-.50781z" fill-rule="evenodd" opacity=".693"/></g></g></svg>