<svg height="1600" viewBox="0 0 1600 1600" width="1600" xmlns="http://www.w3.org/2000/svg" xmlns:inkscape="http://www.inkscape.org/namespaces/inkscape" xmlns:sodipodi="http://sodipodi.sourceforge.net/DTD/sodipodi-0.dtd"><sodipodi:namedview pagecolor="#303030" showgrid="true"><inkscape:grid id="grid5" units="px" spacingx="100" spacingy="100" color="#4772b3" opacity="0.2" visible="true" /></sodipodi:namedview><g fill="#fff"><g enable-background="new" transform="translate(-233 -365)"><path d="m1028 1556c-3.2833 0-6 2.4414-6 5.5 0 1.7056.9046 3.146 2.1523 4.3594l.9942.9941a.50004997.50004997 0 0 0 .3027.1485.50004997.50004997 0 0 0 .051.998h5a.50004997.50004997 0 0 0 .045-.998.50004997.50004997 0 0 0 .3086-.1485l.9981-.998c1.2122-1.1985 2.1465-2.6518 2.1465-4.3535 0-3.0586-2.7167-5.5-6-5.5zm0 1c2.7919 0 5 2.0358 5 4.5 0 1.3342-.7428 2.5488-1.8516 3.6445l-1 1a.50004997.50004997 0 0 0 .2793.8535h-4.8594a.50004997.50004997 0 0 0 .2871-.8535l-1-1a.50004997.50004997 0 0 0 -.01-.01c-1.1397-1.1082-1.8477-2.2864-1.8477-3.6406 0-2.4642 2.2081-4.5 5-4.5zm-2.5 12a.50004997.50004997 0 1 0 0 1h1.5v.5a.50004997.50004997 0 0 0 .5.5h1a.50004997.50004997 0 0 0 .5-.5v-.5h1.5a.50004997.50004997 0 1 0 0-1z"/><path d="m1025.4902 1561.0059a.50005.50005 0 0 0 -.3437.8476l.8535.8535v1.543a.50005.50005 0 1 0 1 0v-1.25h2v1.25a.50005.50005 0 1 0 1 0v-1.543l.8535-.8535a.50005.50005 0 0 0 -.707-.707l-.8535.8535h-2.586l-.8535-.8535a.50005.50005 0 0 0 -.3633-.1406z" opacity=".6"/></g><g enable-background="new" transform="matrix(100 0 0 100 -2599.9969 -49300.0025)"><path d="m31.5 494a.50005.50005 0 0 0 -.5.5v9a.50005.50005 0 0 0 .5.5h9a.50005.50005 0 0 0 .5-.5v-9a.50005.50005 0 0 0 -.5-.5zm.5 1h8v8h-8z" fill-rule="evenodd"/><path d="m38 496c-.546362 0-1 .45364-1 1s.453638 1 1 1 1-.45364 1-1-.453638-1-1-1zm-3.513672 1.05078c-.16529.005-.314526.10024-.388672.24805l-2.75 5.5c-.148607.29892.06852.64991.402344.65039h5.75c.340259-.001.55634-.36474.394531-.66406l-3-5.5c-.08111-.14873-.238867-.23931-.408203-.23438z"/><path d="m29.492188 495.99219a.50005.50005 0 0 0 -.492188.50781v9a.50005.50005 0 0 0 .5.5h9a.50005.50005 0 1 0 0-1h-8.5v-8.5a.50005.50005 0 0 0 -.507812-.50781zm-2 2a.50005.50005 0 0 0 -.492188.50781v9a.50005.50005 0 0 0 .5.5h9a.50005.50005 0 1 0 0-1h-8.5v-8.5a.50005.50005 0 0 0 -.507812-.50781z" fill-rule="evenodd" opacity=".693"/></g></g></svg>