<svg height="1700" viewBox="0 0 1600 1700" width="1600" xmlns="http://www.w3.org/2000/svg" xmlns:inkscape="http://www.inkscape.org/namespaces/inkscape" xmlns:sodipodi="http://sodipodi.sourceforge.net/DTD/sodipodi-0.dtd"><sodipodi:namedview pagecolor="#303030" showgrid="true"><inkscape:grid id="grid5" units="px" spacingx="100" spacingy="100" color="#4772b3" opacity="0.2" visible="true" /></sodipodi:namedview><g fill="#fff"><path d="m218.5 472a.50005.50005 0 1 0 0 1h3a.50005.50005 0 1 0 0-1zm-2 2c-.27613.00003-.49997.22387-.5.5v12c.00003.27613.22387.49997.5.5h7c.67616.01.67616-1.00956 0-1h-6.5v-1h2.50781c.27613-.00003.49997-.22387.5-.5v-7.5h8.99219v2.5c0 .525-.14815.87861-.38477 1.11523-.23661.23663-.59024.38477-1.11523.38477h-1c-.27613.00003-.49997.22387-.5.5v2.5h-4.5c-.67616-.01-.67616 1.00956 0 1h5c.27613-.00003.49997-.22387.5-.5v-2.5h.5c.72501 0 1.37138-.22683 1.82227-.67773.45088-.4509.67773-1.09727.67773-1.82227v-3c-.00003-.27613-.22387-.49997-.5-.5h-5.5v-1.5c-.00003-.27613-.22387-.49997-.5-.5zm.5 1h6v1h-6zm4 3v1h1v-1zm2 0v1h1v-1zm2 0v1h1v-1zm2 0v1h1v-1z" transform="matrix(100 0 0 100 -21500 -47100.0012)"/></g></svg>