<svg height="1700" viewBox="0 0 1700 1700" width="1700" xmlns="http://www.w3.org/2000/svg" xmlns:inkscape="http://www.inkscape.org/namespaces/inkscape" xmlns:sodipodi="http://sodipodi.sourceforge.net/DTD/sodipodi-0.dtd"><sodipodi:namedview pagecolor="#303030" showgrid="true"><inkscape:grid id="grid5" units="px" spacingx="100" spacingy="100" color="#4772b3" opacity="0.2" visible="true" /></sodipodi:namedview><g fill="#fff"><path d="m202 473c-3.86007 0-7 3.13993-7 7s3.13993 7 7 7 7-3.13993 7-7-3.13993-7-7-7zm0 1c1.09865 0 2 .90135 2 2s-.90135 2-2 2-2-.90135-2-2 .90135-2 2-2zm-4 4c1.09865 0 2 .90135 2 2s-.90135 2-2 2-2-.90135-2-2 .90135-2 2-2zm8 0c1.09865 0 2 .90135 2 2s-.90135 2-2 2-2-.90135-2-2 .90135-2 2-2zm-4 1c.54636 0 1 .45364 1 1s-.45364 1-1 1-1-.45364-1-1 .45364-1 1-1zm0 3c1.09865 0 2 .90135 2 2s-.90135 2-2 2-2-.90135-2-2 .90135-2 2-2zm4.96484 4a.50005.50005 0 0 0 -.47265.49219.50005.50005 0 0 0 .50781.50781h.5c.83333 0 1.14655.35353 1.64648.85352a.50005.50005 0 1 0 .70704-.70704c-.49997-.50001-1.18685-1.14648-2.35352-1.14648h-.5a.50005.50005 0 0 0 -.0352 0z" transform="matrix(100 0 0 100 -19400.351 -47200.351)"/></g></svg>