<svg height="1700" viewBox="0 0 1700 1700" width="1700" xmlns="http://www.w3.org/2000/svg" xmlns:inkscape="http://www.inkscape.org/namespaces/inkscape" xmlns:sodipodi="http://sodipodi.sourceforge.net/DTD/sodipodi-0.dtd"><sodipodi:namedview pagecolor="#303030" showgrid="true"><inkscape:grid id="grid5" units="px" spacingx="100" spacingy="100" color="#4772b3" opacity="0.2" visible="true" /></sodipodi:namedview><g fill="#fff"><g enable-background="new" transform="translate(-233 -365)"><path d="m1028 1556c-3.2833 0-6 2.4414-6 5.5 0 1.7056.9046 3.146 2.1523 4.3594l.9942.9941a.50004997.50004997 0 0 0 .3027.1485.50004997.50004997 0 0 0 .051.998h5a.50004997.50004997 0 0 0 .045-.998.50004997.50004997 0 0 0 .3086-.1485l.9981-.998c1.2122-1.1985 2.1465-2.6518 2.1465-4.3535 0-3.0586-2.7167-5.5-6-5.5zm0 1c2.7919 0 5 2.0358 5 4.5 0 1.3342-.7428 2.5488-1.8516 3.6445l-1 1a.50004997.50004997 0 0 0 .2793.8535h-4.8594a.50004997.50004997 0 0 0 .2871-.8535l-1-1a.50004997.50004997 0 0 0 -.01-.01c-1.1397-1.1082-1.8477-2.2864-1.8477-3.6406 0-2.4642 2.2081-4.5 5-4.5zm-2.5 12a.50004997.50004997 0 1 0 0 1h1.5v.5a.50004997.50004997 0 0 0 .5.5h1a.50004997.50004997 0 0 0 .5-.5v-.5h1.5a.50004997.50004997 0 1 0 0-1z"/><path d="m1025.4902 1561.0059a.50005.50005 0 0 0 -.3437.8476l.8535.8535v1.543a.50005.50005 0 1 0 1 0v-1.25h2v1.25a.50005.50005 0 1 0 1 0v-1.543l.8535-.8535a.50005.50005 0 0 0 -.707-.707l-.8535.8535h-2.586l-.8535-.8535a.50005.50005 0 0 0 -.3633-.1406z" opacity=".6"/></g><path d="m202 473c-3.86007 0-7 3.13993-7 7s3.13993 7 7 7 7-3.13993 7-7-3.13993-7-7-7zm0 1c1.09865 0 2 .90135 2 2s-.90135 2-2 2-2-.90135-2-2 .90135-2 2-2zm-4 4c1.09865 0 2 .90135 2 2s-.90135 2-2 2-2-.90135-2-2 .90135-2 2-2zm8 0c1.09865 0 2 .90135 2 2s-.90135 2-2 2-2-.90135-2-2 .90135-2 2-2zm-4 1c.54636 0 1 .45364 1 1s-.45364 1-1 1-1-.45364-1-1 .45364-1 1-1zm0 3c1.09865 0 2 .90135 2 2s-.90135 2-2 2-2-.90135-2-2 .90135-2 2-2zm4.96484 4a.50005.50005 0 0 0 -.47265.49219.50005.50005 0 0 0 .50781.50781h.5c.83333 0 1.14655.35353 1.64648.85352a.50005.50005 0 1 0 .70704-.70704c-.49997-.50001-1.18685-1.14648-2.35352-1.14648h-.5a.50005.50005 0 0 0 -.0352 0z" transform="matrix(100 0 0 100 -19400.351 -47200.351)"/></g></svg>