<svg height="1300" viewBox="0 0 1300 1300" width="1300" xmlns="http://www.w3.org/2000/svg" xmlns:inkscape="http://www.inkscape.org/namespaces/inkscape" xmlns:sodipodi="http://sodipodi.sourceforge.net/DTD/sodipodi-0.dtd"><sodipodi:namedview pagecolor="#303030" showgrid="true"><inkscape:grid id="grid5" units="px" spacingx="100" spacingy="100" color="#4772b3" opacity="0.2" visible="true" /></sodipodi:namedview><g fill="#fff"><g enable-background="new" transform="matrix(100 0 0 100 -46899.995 -41000)"><path d="m473.49999 411-2.99609.006c-.2754.00061-.49976.22265-.5.49805l-.004 8.45884c0 1.02328.80629 2.03747 2 2.03711 1.19534 0 1.99609-1.02155 1.99609-2.04297l.004-8.45703c-.00018-.27638-.22362-.50048-.5-.5zm-1.5 8c.55228 0 1 .44772 1 1s-.44772 1-1 1-1-.44772-1-1 .44772-1 1-1z"/><path d="m478.14648 418.14648-3 3c-.31399.31533-.0915.85354.35352.85352h3 2c.27591-.00019.49982-.22409.5-.5v-3c-.00007-.28163-.23215-.50794-.51367-.5h-2c-.12731.004-.24956.0566-.33985.14648z" opacity=".5"/><path d="m477.49257 412.00014c-.12999.002-.25408.0546-.34596.14655l-2.00065 1.99942c-.094.094-.14673.22146-.14655.35436v4.0001c-.00002.4458.53925.66879.85409.35316l3.99954-4.00067c.19472-.19518.19472-.51115 0-.70633l-2.00009-2.00004c-.0954-.0955-.2254-.14835-.36038-.14655z" opacity=".75"/></g></g></svg>