<svg height="1300" viewBox="0 0 1500 1300" width="1500" xmlns="http://www.w3.org/2000/svg" xmlns:inkscape="http://www.inkscape.org/namespaces/inkscape" xmlns:sodipodi="http://sodipodi.sourceforge.net/DTD/sodipodi-0.dtd"><sodipodi:namedview pagecolor="#303030" showgrid="true"><inkscape:grid id="grid5" units="px" spacingx="100" spacingy="100" color="#4772b3" opacity="0.2" visible="true" /></sodipodi:namedview><g fill="#fff"><g enable-background="new" transform="translate(-233 -365)"><path d="m1028 1556c-3.2833 0-6 2.4414-6 5.5 0 1.7056.9046 3.146 2.1523 4.3594l.9942.9941a.50004997.50004997 0 0 0 .3027.1485.50004997.50004997 0 0 0 .051.998h5a.50004997.50004997 0 0 0 .045-.998.50004997.50004997 0 0 0 .3086-.1485l.9981-.998c1.2122-1.1985 2.1465-2.6518 2.1465-4.3535 0-3.0586-2.7167-5.5-6-5.5zm0 1c2.7919 0 5 2.0358 5 4.5 0 1.3342-.7428 2.5488-1.8516 3.6445l-1 1a.50004997.50004997 0 0 0 .2793.8535h-4.8594a.50004997.50004997 0 0 0 .2871-.8535l-1-1a.50004997.50004997 0 0 0 -.01-.01c-1.1397-1.1082-1.8477-2.2864-1.8477-3.6406 0-2.4642 2.2081-4.5 5-4.5zm-2.5 12a.50004997.50004997 0 1 0 0 1h1.5v.5a.50004997.50004997 0 0 0 .5.5h1a.50004997.50004997 0 0 0 .5-.5v-.5h1.5a.50004997.50004997 0 1 0 0-1z"/><path d="m1025.4902 1561.0059a.50005.50005 0 0 0 -.3437.8476l.8535.8535v1.543a.50005.50005 0 1 0 1 0v-1.25h2v1.25a.50005.50005 0 1 0 1 0v-1.543l.8535-.8535a.50005.50005 0 0 0 -.707-.707l-.8535.8535h-2.586l-.8535-.8535a.50005.50005 0 0 0 -.3633-.1406z" opacity=".6"/></g><path d="m515.5 432c-.1326.00002-.25976.0527-.35352.14647l-1.85351 1.85353h-2.79297c-.27613.00003-.49997.22387-.5.5v8c.00003.27613.22387.49997.5.5h6.45312.004c.0131-.00082.0261-.002.0391-.004.004.00005.008.00005.0117 0 .0143.002.0286.003.043.004h.006 5.44336c.27613-.00003.49997-.22387.5-.5v-8c-.00003-.27613-.22387-.49997-.5-.5h-1.79297l-1.85351-1.85353c-.0938-.09379-.2211-.14652-.3538-.14647zm1.49781 1.99804c2.21589-.00032 4.00185 1.7855 4.00195 4.00196-.0009 2.19736-1.75841 3.97457-3.95508 4-.0131.00082-.0261.002-.0391.004-.0149-.002-.0299-.003-.0449-.004-.001 0-.003 0-.004 0-2.19824-.0228-3.95803-1.80057-3.95898-4 .00009-2.21578 1.78479-4.00131 4-4.00196zm.00024 1.00196c-1.65063 0-2.99805 1.34922-2.99805 3 0 1.65079 1.34742 3 2.99805 3s3-1.34921 3-3c0-1.65078-1.34937-3-3-3zm0 1c1.11009 0 2 .88955 2 2s-.88991 2-2 2-1.99805-.88955-1.99805-2 .88796-2 1.99805-2z" transform="matrix(100 0 0 100 -50900.014 -43100)"/></g></svg>