<svg id="svg1" height="1300" viewBox="0 0 1500 1300" width="1500" xmlns="http://www.w3.org/2000/svg" xmlns:inkscape="http://www.inkscape.org/namespaces/inkscape" xmlns:sodipodi="http://sodipodi.sourceforge.net/DTD/sodipodi-0.dtd"><sodipodi:namedview pagecolor="#303030" showgrid="true"><inkscape:grid id="grid5" units="px" spacingx="100" spacingy="100" color="#4772b3" opacity="0.2" visible="true" /></sodipodi:namedview><g id="g1" fill="#fff"><path id="path1" d="m515.00432 432c-.1326.00002-.25978.0527-.35354.14646l-1.85349 1.85354h-2.29729c-.27613.00003-.49997.22387-.5.5v8c.00003.27613.22387.49997.5.5h6.45313.004c.0131-.00082.0261-.002.0391-.004.004.00005.008.00005.0117 0 .0143.002.0286.003.043.004h.006 5.44336c.27613-.00003.49997-.22387.5-.5v-8c-.00003-.27613-.22387-.49997-.5-.5h-2.28866l-1.85351-1.85354c-.0938-.0938-.22109-.14651-.35379-.14646zm1.4977 1.99805h.00009c2.21589 0 4.00186 1.78549 4.00196 4.00195-.0009 2.19736-1.75841 3.97457-3.95508 4-.0131.00082-.0261.002-.0391.004-.0149-.002-.0299-.003-.0449-.004h-.004c-2.19824-.0228-3.95804-1.80057-3.95898-4 .00008-2.21578 1.78478-4.00195 4-4.00195zm.00035 1.00195c-1.65063 0-2.99805 1.34922-2.99805 3 0 1.65079 1.34742 3 2.99805 3 1.65062 0 3-1.34921 3-3 0-1.65078-1.34938-3-3-3zm0 1c1.11009 0 2 .88955 2 2s-.88991 2-2 2-1.99805-.88955-1.99805-2 .88796-2 1.99805-2z" transform="matrix(100 0 0 100 -50900.014 -43100)"/></g></svg>