<svg height="1300" viewBox="0 0 1300 1300" width="1300" xmlns="http://www.w3.org/2000/svg" xmlns:inkscape="http://www.inkscape.org/namespaces/inkscape" xmlns:sodipodi="http://sodipodi.sourceforge.net/DTD/sodipodi-0.dtd"><sodipodi:namedview pagecolor="#303030" showgrid="true"><inkscape:grid id="grid5" units="px" spacingx="100" spacingy="100" color="#4772b3" opacity="0.2" visible="true" /></sodipodi:namedview><g fill="#fff"><g enable-background="new" opacity=".6" transform="matrix(100 0 0 100 -36400 -43200)"><path d="m365.5 433a.50005.50005 0 0 0 -.5.5v8.5c0 1.09865.90135 2 2 2s2-.90135 2-2v-8.5a.50005.50005 0 0 0 -.5-.5zm.5 1h2v8c0 .55821-.44179 1-1 1s-1-.44179-1-1z" opacity="1"/><path d="m-345.50781-403a.50005.50005 0 0 0 -.34571.14648l-2.14648 2.14649v1.41406l2.5-2.5 1.29297 1.29297-3.79297 3.79297v1.41406l4.85352-4.85351a.50005.50005 0 0 0 0-.70704l-2-2a.50005.50005 0 0 0 -.36133-.14648z" opacity=".8" transform="translate(718 837)"/><path d="m373.25 440-1 1h2.75v2h-4.75l-1 1h6.25c.27613-.00003.49997-.22387.5-.5v-3c-.00003-.27613-.22387-.49997-.5-.5z" opacity=".6"/></g></g></svg>