<svg id="svg1" height="1300" viewBox="0 0 1300 1300" width="1300" xmlns="http://www.w3.org/2000/svg" xmlns:inkscape="http://www.inkscape.org/namespaces/inkscape" xmlns:sodipodi="http://sodipodi.sourceforge.net/DTD/sodipodi-0.dtd"><sodipodi:namedview pagecolor="#303030" showgrid="true"><inkscape:grid id="grid5" units="px" spacingx="100" spacingy="100" color="#4772b3" opacity="0.2" visible="true" /></sodipodi:namedview><g fill="#fff" fill-opacity=".6"><g id="g2" transform="translate(-.17354 .056848)"><path id="path1-6" d="m470.49126 433c-.3497.006-.58489.36077-.45508.68555l1.5998 3.52041 3.6817-2.12565-4.63111-2.04515c-.0621-.0247-.12851-.0366-.19531-.0351zm8.37252 3.50425-6.08945 3.52418 1.26185 3.65907c.1779.45034.82806.41021.94922-.0586l1.17578-4.46875 4.4668-1.17578c.46498-.12321.50485-.76771.0586-.94729z" fill="#fff" fill-opacity=".6" transform="matrix(100 0 0 100 -46899.999 -43200.19)"/></g><path id="path2" d="m100.71603 730.84149 1048.62487-607.14684 50.0323 86.65864-1048.55416 607.26916z" stroke-opacity=".6" stroke-width="242.281"/></g></svg>