<svg height="1600" viewBox="0 0 1600 1600" width="1600" xmlns="http://www.w3.org/2000/svg" xmlns:inkscape="http://www.inkscape.org/namespaces/inkscape" xmlns:sodipodi="http://sodipodi.sourceforge.net/DTD/sodipodi-0.dtd"><sodipodi:namedview pagecolor="#303030" showgrid="true"><inkscape:grid id="grid5" units="px" spacingx="100" spacingy="100" color="#4772b3" opacity="0.2" visible="true" /></sodipodi:namedview><g fill="#fff"><path d="m534.23047 436.74023a1.0001 1.0001 0 0 0 -.6875.30274l-1.47656 1.47656c-.71563.66862-1.1007 1.61087-1.04883 2.55664.0519.94577.50998 1.86545 1.27539 2.63086.76642.76642 1.68942 1.21503 2.6289 1.25977.93949.0447 1.85838-.33299 2.53516-1.00977l1.5-1.5a1.0001 1.0001 0 1 0 -1.41406-1.41406l-1.5 1.5c-.32323.32322-.65433.4455-1.02735.42773-.37301-.0178-.82501-.19415-1.30859-.67773-.48459-.48459-.6709-.9542-.69141-1.32813-.0205-.37392.0941-.68177.41797-.98437a1.0001 1.0001 0 0 0 .0234-.0234l1.5-1.5a1.0001 1.0001 0 0 0 -.72656-1.7168zm6.84765-5.70703c-.93948-.0447-1.85838.33299-2.53515 1.00977l-1.5 1.5a1.0001 1.0001 0 1 0 1.41406 1.41406l1.5-1.5c.32322-.32322.65433-.4455 1.02734-.42773.37302.0178.82502.19415 1.3086.67773.48459.48459.6709.9542.6914 1.32813.0205.37392-.0941.68177-.41796.98437a1.0001 1.0001 0 0 0 -.0234.0234l-1.5 1.5a1.0001 1.0001 0 1 0 1.41406 1.41406l1.47656-1.47656c.71562-.66862 1.1007-1.61087 1.04883-2.55664-.0519-.94577-.50998-1.86545-1.27539-2.63086-.76642-.76642-1.68942-1.21503-2.62891-1.25977zm-1.09765 3.95703a1.0001 1.0001 0 0 0 -.6875.30274l-4 4a1.0001 1.0001 0 1 0 1.41406 1.41406l4-4a1.0001 1.0001 0 0 0 -.72656-1.7168z" transform="matrix(100 0 0 100 -53000.00199999999 -43000)"/></g></svg>