<svg height="1300" viewBox="0 0 1500 1300" width="1500" xmlns="http://www.w3.org/2000/svg" xmlns:inkscape="http://www.inkscape.org/namespaces/inkscape" xmlns:sodipodi="http://sodipodi.sourceforge.net/DTD/sodipodi-0.dtd"><sodipodi:namedview pagecolor="#303030" showgrid="true"><inkscape:grid id="grid5" units="px" spacingx="100" spacingy="100" color="#4772b3" opacity="0.2" visible="true" /></sodipodi:namedview><g fill="#fff"><path d="m489.5 412c-.27613.00003-.49997.22387-.5.5v8c.00003.27613.22387.49997.5.5h5.5v1h-2.5c-.67616-.01-.67616 1.00956 0 1h6c.6573-.009.6573-.9907 0-1h-2.5v-1h5.5c.27613-.00003.49997-.22387.5-.5v-8c-.00003-.27613-.22387-.49997-.5-.5zm.5 1h11v7h-11z" fill-rule="evenodd" opacity=".6" transform="matrix(100 0 0 100 -48799.99999999999 -41100.0033)"/></g></svg>