<svg height="1600" viewBox="0 0 1600 1600" width="1600" xmlns="http://www.w3.org/2000/svg" xmlns:inkscape="http://www.inkscape.org/namespaces/inkscape" xmlns:sodipodi="http://sodipodi.sourceforge.net/DTD/sodipodi-0.dtd"><sodipodi:namedview pagecolor="#303030" showgrid="true"><inkscape:grid id="grid5" units="px" spacingx="100" spacingy="100" color="#4772b3" opacity="0.2" visible="true" /></sodipodi:namedview><g fill="#fff"><path d="m541.57031 410.01758c-.79787-.038-1.57177.27684-2.16015.86523l-1.26368 1.26367a.50005.50005 0 1 0 .70704.70704l1.26367-1.26368c.41161-.41161.88966-.59872 1.40429-.57422.51464.0245 1.08439.26993 1.63868.82422.55479.5548.80954 1.13546.83789 1.65235.0283.51688-.15241.9848-.57422 1.3789a.50005.50005 0 0 0 -.0137.0117l-1.26368 1.26367a.50005.50005 0 1 0 .70704.70704l1.25195-1.25196c.61768-.57711.9366-1.36125.89258-2.16406-.044-.80281-.43566-1.60948-1.13086-2.30469-.69571-.69571-1.49901-1.07724-2.29688-1.11523zm-8.08008 6.97851a.50005.50005 0 0 0 -.34375.15039l-1.25 1.25c-.58838.58839-.90322 1.36034-.86523 2.15821.038.79787.41952 1.60311 1.11523 2.29883.69521.6952 1.50384 1.08487 2.30664 1.1289.80281.044 1.585-.27294 2.16211-.89062l1.23829-1.23828a.50005.50005 0 1 0 -.70704-.70704l-1.25 1.25a.50005.50005 0 0 0 -.0117.0117c-.39411.42182-.86007.60452-1.37696.57618-.51688-.0283-1.0995-.2831-1.65429-.8379-.55429-.55428-.79776-1.12404-.82227-1.63867-.0245-.51463.16065-.99268.57227-1.40429l1.25-1.25a.50005.50005 0 0 0 -.36329-.85743z" opacity=".6" transform="matrix(100 0 0 100 -53001.50999999999 -40900.0477)"/></g></svg>