<svg id="svg1" height="1300" viewBox="0 0 1500 1300" width="1500" xmlns="http://www.w3.org/2000/svg" xmlns:inkscape="http://www.inkscape.org/namespaces/inkscape" xmlns:sodipodi="http://sodipodi.sourceforge.net/DTD/sodipodi-0.dtd"><sodipodi:namedview pagecolor="#303030" showgrid="true"><inkscape:grid id="grid5" units="px" spacingx="100" spacingy="100" color="#4772b3" opacity="0.2" visible="true" /></sodipodi:namedview><g fill="#fff"><g id="g1"><path id="path1" d="m494.00682 432c-.1326.00002-.25976.0527-.35352.14648l-1.85351 1.85352h-2.29979c-.27613.00003-.49997.22387-.5.5v8c.00003.27613.22387.49997.5.5h12c.27613-.00003.49997-.22387.5-.5v-8c-.00003-.27613-.22387-.49997-.5-.5h-2.28615l-1.85351-1.85352c-.0938-.0938-.22092-.14646-.35352-.14648zm.20703 1h2.58594l1.85351 1.85352c.0938.0938.22092.14646.35352.14648h1.99318v7h-11v-7h2.00682c.1326-.00002.25976-.0527.35352-.14648z" opacity=".6" transform="matrix(100 0 0 100 -48800 -43100)"/></g><path id="path1-3" d="m748.76476 424.7605c-151.30601 0-274.81809 123.67708-274.81809 274.99683 0 151.32068 123.51208 274.99662 274.81809 274.99662s274.99674-123.67594 274.99674-274.99662c0-151.31975-123.69073-274.99683-274.99674-274.99683zm0 91.66561c101.75708 0 183.33122 81.54115 183.33122 183.33122 0 101.79008-81.57414 183.33123-183.33122 183.33123s-183.15248-81.54115-183.15248-183.33123c0-101.79007 81.3954-183.33122 183.15248-183.33122z" opacity=".6" stroke-width=".916656"/></g></svg>