<svg height="1400" viewBox="0 0 1600 1400" width="1600" xmlns="http://www.w3.org/2000/svg" xmlns:inkscape="http://www.inkscape.org/namespaces/inkscape" xmlns:sodipodi="http://sodipodi.sourceforge.net/DTD/sodipodi-0.dtd"><sodipodi:namedview pagecolor="#303030" showgrid="true"><inkscape:grid id="grid5" units="px" spacingx="100" spacingy="100" color="#4772b3" opacity="0.2" visible="true" /></sodipodi:namedview><g fill="#fff"><g enable-background="new" transform="translate(-233 -365)"><path d="m1028 1556c-3.2833 0-6 2.4414-6 5.5 0 1.7056.9046 3.146 2.1523 4.3594l.9942.9941a.50004997.50004997 0 0 0 .3027.1485.50004997.50004997 0 0 0 .051.998h5a.50004997.50004997 0 0 0 .045-.998.50004997.50004997 0 0 0 .3086-.1485l.9981-.998c1.2122-1.1985 2.1465-2.6518 2.1465-4.3535 0-3.0586-2.7167-5.5-6-5.5zm0 1c2.7919 0 5 2.0358 5 4.5 0 1.3342-.7428 2.5488-1.8516 3.6445l-1 1a.50004997.50004997 0 0 0 .2793.8535h-4.8594a.50004997.50004997 0 0 0 .2871-.8535l-1-1a.50004997.50004997 0 0 0 -.01-.01c-1.1397-1.1082-1.8477-2.2864-1.8477-3.6406 0-2.4642 2.2081-4.5 5-4.5zm-2.5 12a.50004997.50004997 0 1 0 0 1h1.5v.5a.50004997.50004997 0 0 0 .5.5h1a.50004997.50004997 0 0 0 .5-.5v-.5h1.5a.50004997.50004997 0 1 0 0-1z"/><path d="m1025.4902 1561.0059a.50005.50005 0 0 0 -.3437.8476l.8535.8535v1.543a.50005.50005 0 1 0 1 0v-1.25h2v1.25a.50005.50005 0 1 0 1 0v-1.543l.8535-.8535a.50005.50005 0 0 0 -.707-.707l-.8535.8535h-2.586l-.8535-.8535a.50005.50005 0 0 0 -.3633-.1406z" opacity=".6"/></g><g enable-background="new" transform="matrix(100 0 0 100 -31999.903 -34699.6557)"><path d="m329.97518 350.98014a.52004817.52004817 0 0 0 -.38086.19532l-3.61133 4.51562-3.09179-3.5332a.52004817.52004817 0 1 0 -.78321.68359l3.5 4a.52004817.52004817 0 0 0 .79883-.0176l3.61133-4.51367 3.08984 3.53125a.52004817.52004817 0 1 0 .78321-.68359l-3.5-4a.52004817.52004817 0 0 0 -.41602-.17774z" opacity=".75"/><path d="m321.49219 347.97266a.52004817.52004817 0 0 0 -.51367.52734v11a.520505.520505 0 0 0 1.04101 0v-1.5h11.95899v1.5a.520505.520505 0 0 0 1.04101 0v-11a.52004817.52004817 0 0 0 -.52734-.52734.52004817.52004817 0 0 0 -.51367.52734v1.5h-11.95899v-1.5a.52004817.52004817 0 0 0 -.52734-.52734zm.52734 3.02734h11.95899v6h-11.95899z"/></g></g></svg>