<svg height="1600" viewBox="0 0 1500 1600" width="1500" xmlns="http://www.w3.org/2000/svg" xmlns:inkscape="http://www.inkscape.org/namespaces/inkscape" xmlns:sodipodi="http://sodipodi.sourceforge.net/DTD/sodipodi-0.dtd"><sodipodi:namedview pagecolor="#303030" showgrid="true"><inkscape:grid id="grid5" units="px" spacingx="100" spacingy="100" color="#4772b3" opacity="0.2" visible="true" /></sodipodi:namedview><g fill="#fff"><g enable-background="new" transform="matrix(100 0 0 100 -34100.042 -34600.0075)"><path d="m346.49261 354.99229a.50005.50005 0 0 0 -.49219.50781v3c0 .725.22685 1.37138.67773 1.82226.45089.45089 1.09727.67774 1.82227.67774s1.37138-.22685 1.82226-.67774c.45089-.45088.67774-1.09726.67774-1.82226v-3a.50005.50005 0 1 0 -1 0v3c0 .525-.14815.87862-.38477 1.11523-.23661.23661-.59023.38477-1.11523.38477s-.87862-.14816-1.11524-.38477c-.23661-.23661-.38476-.59023-.38476-1.11523v-3a.50005.50005 0 0 0 -.50781-.50781z" opacity=".75"/><path d="m348.49261 349.99229a.50005.50005 0 0 0 -.49219.50781v6a.50005.50005 0 1 0 1 0v-6a.50005.50005 0 0 0 -.50781-.50781zm-5.99219-2.99219a.50005.50005 0 1 0 0 1h2.5v1.75c0 .97222.53688 1.82801 1.27539 2.19726a.50005635.50005635 0 1 0 .44726-.89453c-.26148-.13074-.72265-.77495-.72265-1.30273v-1.75h5v1.75c0 .52778-.46312 1.17199-.72461 1.30273a.50005635.50005635 0 1 0 .44726.89453c.73852-.36925 1.27735-1.22504 1.27735-2.19726v-1.75h2.5a.50005.50005 0 1 0 0-1z"/></g></g></svg>