<svg height="1400" viewBox="0 0 1600 1400" width="1600" xmlns="http://www.w3.org/2000/svg" xmlns:inkscape="http://www.inkscape.org/namespaces/inkscape" xmlns:sodipodi="http://sodipodi.sourceforge.net/DTD/sodipodi-0.dtd"><sodipodi:namedview pagecolor="#303030" showgrid="true"><inkscape:grid id="grid5" units="px" spacingx="100" spacingy="100" color="#4772b3" opacity="0.2" visible="true" /></sodipodi:namedview><g fill="#fff"><g enable-background="new" transform="matrix(100 0 0 100 -31999.903 -34699.6557)"><path d="m329.97518 350.98014a.52004817.52004817 0 0 0 -.38086.19532l-3.61133 4.51562-3.09179-3.5332a.52004817.52004817 0 1 0 -.78321.68359l3.5 4a.52004817.52004817 0 0 0 .79883-.0176l3.61133-4.51367 3.08984 3.53125a.52004817.52004817 0 1 0 .78321-.68359l-3.5-4a.52004817.52004817 0 0 0 -.41602-.17774z" opacity=".75"/><path d="m321.49219 347.97266a.52004817.52004817 0 0 0 -.51367.52734v11a.520505.520505 0 0 0 1.04101 0v-1.5h11.95899v1.5a.520505.520505 0 0 0 1.04101 0v-11a.52004817.52004817 0 0 0 -.52734-.52734.52004817.52004817 0 0 0 -.51367.52734v1.5h-11.95899v-1.5a.52004817.52004817 0 0 0 -.52734-.52734zm.52734 3.02734h11.95899v6h-11.95899z"/></g></g></svg>