<svg height="1600" viewBox="0 0 1400 1600" width="1400" xmlns="http://www.w3.org/2000/svg" xmlns:inkscape="http://www.inkscape.org/namespaces/inkscape" xmlns:sodipodi="http://sodipodi.sourceforge.net/DTD/sodipodi-0.dtd"><sodipodi:namedview pagecolor="#303030" showgrid="true"><inkscape:grid id="grid5" units="px" spacingx="100" spacingy="100" color="#4772b3" opacity="0.2" visible="true" /></sodipodi:namedview><g fill="#fff"><g enable-background="new" transform="matrix(100 0 0 100 -55399.99999999999 -40899.7602)"><path d="m556.57617 409.98047a.55005501.55005501 0 0 0 -.42383.18555c-.46657.51387-1.20227 1.13094-1.20312 2.14257-.001 1.1847.85571 2.11411 1.94336 2.91797s2.47935 1.527 3.84765 2.25782c.44143.23577.88243.47055 1.3086.70312 1.11316.60746 2.13512 1.2144 2.84375 1.81836.70862.60396 1.05894 1.15906 1.05859 1.68359-.0004.48086-.32771 1.0064-.79492 1.38086a.55027044.55027044 0 1 0 .6875.85938c.65297-.52334 1.20625-1.30182 1.20703-2.23828.00066-.99421-.62031-1.82029-1.44531-2.52344s-1.89813-1.32892-3.03125-1.94727c-.43383-.23675-.87476-.47023-1.31445-.70508-1.37366-.73367-2.73478-1.45092-3.71289-2.17382-.97812-.72291-1.49874-1.40647-1.49805-2.03125.00037-.43907.39742-.83099.91797-1.4043a.55005501.55005501 0 0 0 -.39063-.92578z"/><path d="m565.45508 409.94531a.55005501.55005501 0 0 0 -.31446.97071c.44122.38244.8125 1.03351.8125 1.58398-.002.56635-.25363.95243-.74218 1.35938-.48909.40739-1.20703.77343-1.95703 1.14843a.55028291.55028291 0 1 0 .49218.98438c.75-.375 1.5313-.75874 2.16797-1.28907.63668-.53032 1.13681-1.26964 1.13867-2.20312 0-.98667-.54281-1.85212-1.19335-2.41602a.55005501.55005501 0 0 0 -.4043-.13867zm-6.95313 8.00196a.55005501.55005501 0 0 0 -.24804.0605c-.75.375-1.5313.75874-2.16797 1.28907-.63668.53032-1.13681 1.26964-1.13867 2.20312 0 .98843.53602 1.85319 1.19335 2.41797a.55122854.55122854 0 1 0 .71876-.83594c-.44771-.38466-.8125-1.01968-.8125-1.58203.002-.56635.25363-.95243.74218-1.35938.48909-.40739 1.20703-.77343 1.95703-1.14843a.55005501.55005501 0 0 0 -.24414-1.04492z" opacity=".6"/><path d="m557.5 421a.50005.50005 0 1 0 0 1h2a.50005.50005 0 0 0 .5-.41992.50005.50005 0 0 0 .5.41992h4a.50005.50005 0 1 0 0-1h-4a.50005.50005 0 0 0 -.5.41992.50005.50005 0 0 0 -.5-.41992zm0-9a.50005.50005 0 1 0 0 1h4a.50005.50005 0 0 0 .5-.41992.50005.50005 0 0 0 .5.41992h2a.50005.50005 0 1 0 0-1h-2a.50005.50005 0 0 0 -.5.41992.50005.50005 0 0 0 -.5-.41992z" opacity=".5"/></g></g></svg>