<?xml version="1.0" encoding="UTF-8" standalone="no"?>
<svg
   height="1600"
   viewBox="0 0 1400 1600"
   width="1400"
   version="1.1"
   id="svg4"
   xmlns="http://www.w3.org/2000/svg"
   xmlns:svg="http://www.w3.org/2000/svg">
  <defs
     id="defs4" />
  <g
     fill="#ffffff"
     id="g4"
     transform="matrix(-1,0,0,1,1400,0)">
    <g
       enable-background="new"
       transform="matrix(100,0,0,100,-55400,-40899.76)"
       id="g3">
      <path
         d="m 556.57617,409.98047 a 0.55005501,0.55005501 0 0 0 -0.42383,0.18555 c -0.46657,0.51387 -1.20227,1.13094 -1.20312,2.14257 -10e-4,1.1847 0.85571,2.11411 1.94336,2.91797 1.08765,0.80386 2.47935,1.527 3.84765,2.25782 0.44143,0.23577 0.88243,0.47055 1.3086,0.70312 1.11316,0.60746 2.13512,1.2144 2.84375,1.81836 0.70862,0.60396 1.05894,1.15906 1.05859,1.68359 -4e-4,0.48086 -0.32771,1.0064 -0.79492,1.38086 a 0.55027044,0.55027044 0 1 0 0.6875,0.85938 c 0.65297,-0.52334 1.20625,-1.30182 1.20703,-2.23828 6.6e-4,-0.99421 -0.62031,-1.82029 -1.44531,-2.52344 -0.825,-0.70315 -1.89813,-1.32892 -3.03125,-1.94727 -0.43383,-0.23675 -0.87476,-0.47023 -1.31445,-0.70508 -1.37366,-0.73367 -2.73478,-1.45092 -3.71289,-2.17382 -0.97812,-0.72291 -1.49874,-1.40647 -1.49805,-2.03125 3.7e-4,-0.43907 0.39742,-0.83099 0.91797,-1.4043 a 0.55005501,0.55005501 0 0 0 -0.39063,-0.92578 z"
         id="path1" />
      <path
         d="m 565.45508,409.94531 a 0.55005501,0.55005501 0 0 0 -0.31446,0.97071 c 0.44122,0.38244 0.8125,1.03351 0.8125,1.58398 -0.002,0.56635 -0.25363,0.95243 -0.74218,1.35938 -0.48909,0.40739 -1.20703,0.77343 -1.95703,1.14843 a 0.55028291,0.55028291 0 1 0 0.49218,0.98438 c 0.75,-0.375 1.5313,-0.75874 2.16797,-1.28907 0.63668,-0.53032 1.13681,-1.26964 1.13867,-2.20312 0,-0.98667 -0.54281,-1.85212 -1.19335,-2.41602 a 0.55005501,0.55005501 0 0 0 -0.4043,-0.13867 z m -6.95313,8.00196 a 0.55005501,0.55005501 0 0 0 -0.24804,0.0605 c -0.75,0.375 -1.5313,0.75874 -2.16797,1.28907 -0.63668,0.53032 -1.13681,1.26964 -1.13867,2.20312 0,0.98843 0.53602,1.85319 1.19335,2.41797 a 0.55122854,0.55122854 0 1 0 0.71876,-0.83594 c -0.44771,-0.38466 -0.8125,-1.01968 -0.8125,-1.58203 0.002,-0.56635 0.25363,-0.95243 0.74218,-1.35938 0.48909,-0.40739 1.20703,-0.77343 1.95703,-1.14843 a 0.55005501,0.55005501 0 0 0 -0.24414,-1.04492 z"
         opacity="0.6"
         id="path2" />
      <path
         d="m 557.5,421 a 0.50005,0.50005 0 1 0 0,1 h 2 A 0.50005,0.50005 0 0 0 560,421.58008 0.50005,0.50005 0 0 0 560.5,422 h 4 a 0.50005,0.50005 0 1 0 0,-1 h -4 A 0.50005,0.50005 0 0 0 560,421.41992 0.50005,0.50005 0 0 0 559.5,421 Z m 0,-9 a 0.50005,0.50005 0 1 0 0,1 h 4 A 0.50005,0.50005 0 0 0 562,412.58008 0.50005,0.50005 0 0 0 562.5,413 h 2 a 0.50005,0.50005 0 1 0 0,-1 h -2 A 0.50005,0.50005 0 0 0 562,412.41992 0.50005,0.50005 0 0 0 561.5,412 Z"
         opacity="0.5"
         id="path3" />
    </g>
  </g>
</svg>
