<svg height="1600" viewBox="0 0 1500 1600" width="1500" xmlns="http://www.w3.org/2000/svg" xmlns:inkscape="http://www.inkscape.org/namespaces/inkscape" xmlns:sodipodi="http://sodipodi.sourceforge.net/DTD/sodipodi-0.dtd"><sodipodi:namedview pagecolor="#303030" showgrid="true"><inkscape:grid id="grid5" units="px" spacingx="100" spacingy="100" color="#4772b3" opacity="0.2" visible="true" /></sodipodi:namedview><g fill="#fff"><g enable-background="new" transform="translate(-233 -365)"><path d="m1028 1556c-3.2833 0-6 2.4414-6 5.5 0 1.7056.9046 3.146 2.1523 4.3594l.9942.9941a.50004997.50004997 0 0 0 .3027.1485.50004997.50004997 0 0 0 .051.998h5a.50004997.50004997 0 0 0 .045-.998.50004997.50004997 0 0 0 .3086-.1485l.9981-.998c1.2122-1.1985 2.1465-2.6518 2.1465-4.3535 0-3.0586-2.7167-5.5-6-5.5zm0 1c2.7919 0 5 2.0358 5 4.5 0 1.3342-.7428 2.5488-1.8516 3.6445l-1 1a.50004997.50004997 0 0 0 .2793.8535h-4.8594a.50004997.50004997 0 0 0 .2871-.8535l-1-1a.50004997.50004997 0 0 0 -.01-.01c-1.1397-1.1082-1.8477-2.2864-1.8477-3.6406 0-2.4642 2.2081-4.5 5-4.5zm-2.5 12a.50004997.50004997 0 1 0 0 1h1.5v.5a.50004997.50004997 0 0 0 .5.5h1a.50004997.50004997 0 0 0 .5-.5v-.5h1.5a.50004997.50004997 0 1 0 0-1z"/><path d="m1025.4902 1561.0059a.50005.50005 0 0 0 -.3437.8476l.8535.8535v1.543a.50005.50005 0 1 0 1 0v-1.25h2v1.25a.50005.50005 0 1 0 1 0v-1.543l.8535-.8535a.50005.50005 0 0 0 -.707-.707l-.8535.8535h-2.586l-.8535-.8535a.50005.50005 0 0 0 -.3633-.1406z" opacity=".6"/></g><g enable-background="new" transform="matrix(100 0 0 100 -52997.364 -47165.0594)"><g><path d="m532.57617 472.98047a.55005501.55005501 0 0 0 -.42383.18555c-.46657.51387-1.20227 1.13094-1.20312 2.14257-.001 1.1847.85571 2.11411 1.94336 2.91797s2.47935 1.527 3.84765 2.25782c.44144.23578.88242.47056 1.3086.70312 1.11316.60746 2.13512 1.2144 2.84375 1.81836.70862.60396 1.05894 1.15906 1.05859 1.68359-.0004.48086-.32771 1.0064-.79492 1.38086a.55027044.55027044 0 1 0 .6875.85938c.65297-.52334 1.20625-1.30182 1.20703-2.23828.00066-.99421-.62031-1.82029-1.44531-2.52344s-1.89813-1.32892-3.03125-1.94727c-.43382-.23673-.87477-.47022-1.31445-.70508-1.37366-.73367-2.73478-1.45092-3.71289-2.17382-.97812-.72291-1.49874-1.40647-1.49805-2.03125.00037-.43907.39742-.83099.91797-1.4043a.55005501.55005501 0 0 0 -.39063-.92578zm1.92578 7.9668a.55005501.55005501 0 0 0 -.24804.0605c-.75.375-1.5313.75874-2.16797 1.28907-.63668.53032-1.13681 1.26964-1.13867 2.20312 0 .98843.53602 1.85319 1.19335 2.41797a.55122854.55122854 0 1 0 .71876-.83594c-.44771-.38466-.8125-1.01968-.8125-1.58203.002-.56635.25363-.95243.74218-1.35938.48909-.40739 1.20703-.77343 1.95703-1.14843a.55005501.55005501 0 0 0 -.24414-1.04492z" opacity=".6"/><path d="m533.5 475a.50005.50005 0 1 0 0 1h2a.50005.50005 0 1 0 0-1zm0 9a.50005.50005 0 1 0 0 1h2a.50005.50005 0 0 0 .5-.41992.50005.50005 0 0 0 .5.41992h4a.50005.50005 0 1 0 0-1h-4a.50005.50005 0 0 0 -.5.41992.50005.50005 0 0 0 -.5-.41992z" opacity=".5"/></g><path d="m540.5 472.25c-1.933 0-3.5 1.567-3.5 3.5s1.567 3.5 3.5 3.5 3.5-1.567 3.5-3.5-1.567-3.5-3.5-3.5zm-.5 1h1v2h2v1h-2v2h-1v-2h-2v-1h2z"/></g></g></svg>