<svg height="1400" viewBox="0 0 1600 1400" width="1600" xmlns="http://www.w3.org/2000/svg" xmlns:inkscape="http://www.inkscape.org/namespaces/inkscape" xmlns:sodipodi="http://sodipodi.sourceforge.net/DTD/sodipodi-0.dtd"><sodipodi:namedview pagecolor="#303030" showgrid="true"><inkscape:grid id="grid5" units="px" spacingx="100" spacingy="100" color="#4772b3" opacity="0.2" visible="true" /></sodipodi:namedview><g fill="#fff"><path d="m9.96875 29.048828c-.5028895-.183999-1.0662172-.061904-1.4277344.261719s-.5811939.774245-.7714844 1.302734c-.3805808 1.056978-.6093734 2.473513-.8632812 3.910157-.2539078 1.436643-.5324149 2.889409-.9414062 3.929687-.2044957.520139-.4424423.932648-.6894532 1.1875-.2470108.254852-.473033.363281-.7851562.363281a.50005.50005 0 1 0 0 1c.5904168 0 1.1159371-.267683 1.5039062-.667968.3879692-.400286.6690516-.922242.9023438-1.515626.4665844-1.186767.7390333-2.679616.9941406-4.123046.2551073-1.443431.4935421-2.842034.8183594-3.744141.1624086-.451054.3541704-.76594.5-.896484.1458295-.130544.1865427-.15232.4160156-.06836.057045.02087.1634141.101911.2832031.296875.1197889.194965.2422649.485737.3515629.826172.218596.680871.393488 1.55941.582031 2.373047s.358157 1.549689.740234 2.082031c.191039.266171.511622.515788.900391.50586.388769-.0099.704011-.230804 1.001953-.542969.337514-.353626.595779-.497442.722656-.529297.126878-.03186.138013-.02504.242188.06836.20835.186805.512485.892009.740234 1.732422s.429042 1.804722.716797 2.601563c.143877.39842.30542.75895.542969 1.05664.237548.297691.601614.544922 1.027343.544922a.50005.50005 0 1 0 0-1c-.0724 0-.124723-.01782-.246093-.169922-.12137-.152098-.260285-.426776-.384766-.771484-.248961-.689415-.452791-1.642926-.691406-2.523438-.238616-.880511-.460258-1.699598-1.037109-2.216796-.288426-.2586-.735893-.398016-1.154297-.292969-.418405.105047-.794027.38192-1.203125.810547-.205362.215165-.318948.232836-.302735.232422.01621-.000414.02252.02861-.0625-.08984-.170041-.236922-.395024-.934462-.578125-1.724615-.183101-.790152-.358879-1.685062-.605468-2.453124-.123295-.384032-.261653-.737692-.449219-1.042969-.187567-.305277-.433643-.581419-.792969-.712891z" transform="matrix(-100 0 0 100 1898.3398 -2798.337)"/></g></svg>