<svg height="1200" viewBox="0 0 1600 1200" width="1600" xmlns="http://www.w3.org/2000/svg" xmlns:inkscape="http://www.inkscape.org/namespaces/inkscape" xmlns:sodipodi="http://sodipodi.sourceforge.net/DTD/sodipodi-0.dtd"><sodipodi:namedview pagecolor="#303030" showgrid="true"><inkscape:grid id="grid5" units="px" spacingx="100" spacingy="100" color="#4772b3" opacity="0.2" visible="true" /></sodipodi:namedview><g fill="#fff"><path d="m30.216797 30a.51780782.51780782 0 0 0 -.337891.126953l-3.761718 3.242188c-1.859424 1.602556-3.136719 3.536893-3.136719 6.128906a.51780782.51780782 0 1 0 1.035156 0c0-2.262051 1.045193-3.852838 2.777344-5.345703l3.615234-3.115235h.152344l3.617187 3.115235a.51780782.51780782 0 0 0 0 .002c1.732844 1.491631 2.775391 3.081554 2.775391 5.34375a.5185545.5185545 0 1 0 1.037109 0c0-2.591868-1.275948-4.527155-3.136718-6.128906l-3.761719-3.242235a.51780782.51780782 0 0 0 -.337891-.126953z" transform="matrix(93.0364 0 0 100.239 -2036.2367 -2909.933)"/></g></svg>