<svg height="1600" viewBox="0 0 1600 1600" width="1600" xmlns="http://www.w3.org/2000/svg" xmlns:inkscape="http://www.inkscape.org/namespaces/inkscape" xmlns:sodipodi="http://sodipodi.sourceforge.net/DTD/sodipodi-0.dtd"><sodipodi:namedview pagecolor="#303030" showgrid="true"><inkscape:grid id="grid5" units="px" spacingx="100" spacingy="100" color="#4772b3" opacity="0.2" visible="true" /></sodipodi:namedview><g fill="#fff"><path d="m10.482422 494c-.189602.007-.359053.12023-.4375.29297l-3.7734376 8.25c-.00134.003-.00264.007-.00391.01-.1088219.25336-.2675744.54822-.2675744.94703 0 .83813.5261723 1.53471 1.296875 1.92188.7707027.38715 1.7901254.55582 3.023437.57226.295371.003.52928-.24867.503907-.54297.000947.0108-.01109-.37852-.01563-.70898-.0045-.33047-.0078-.6698-.0078-.74219 0-1.86768 1.015625-3.51914 2.519531-4.4375.228366-.13928.306682-.43361.177735-.66797l-2.560555-4.63672c-.091075-.16474-.266951-.26438-.455078-.25781zm7.517578 0c-1.098638 0-1.999999.90136-2 2 .000001 1.09864.901362 2 2 2s1.999999-.90136 2-2c-.000001-1.09864-.901362-2-2-2zm-2 6c-2.203217 0-3.999999 1.79678-4 4 .000001 2.20322 1.796783 4 4 4s3.999999-1.79678 4-4c-.000001-2.20322-1.796783-4-4-4zm0 1c1.662777 0 2.999999 1.33722 3 3-.000001 1.66278-1.337223 3-3 3s-2.999999-1.33722-3-3c.000001-1.66278 1.337223-3 3-3zm-.541016 1.0332c-.800247 0-1.458984.66069-1.458984 1.46094a.50005.50005 0 1 0 1 0c0-.25981.199172-.46094.458984-.46094a.50005.50005 0 1 0 0-1z" transform="matrix(100 0 0 100 -500 -49299.9847)"/></g></svg>