<svg height="1500" viewBox="0 0 1600 1500" width="1600" xmlns="http://www.w3.org/2000/svg" xmlns:inkscape="http://www.inkscape.org/namespaces/inkscape" xmlns:sodipodi="http://sodipodi.sourceforge.net/DTD/sodipodi-0.dtd"><sodipodi:namedview pagecolor="#303030" showgrid="true"><inkscape:grid id="grid5" units="px" spacingx="100" spacingy="100" color="#4772b3" opacity="0.2" visible="true" /></sodipodi:namedview><g fill="#fff"><g enable-background="new" transform="matrix(100 0 0 100 -33000 -77599.996)"><path d="m334.5 777c-.15738-.0003-.30571.0735-.40039.19922l-1.34961 1.80078h-.75c-.54535 0-1 .45465-1 1v9c0 .54535.45465 1 1 1h12c.54535 0 1-.45465 1-1v-9c0-.54535-.45465-1-1-1h-3.75l-1.34961-1.80078c-.09468-.12571-.24301-.19952-.40039-.19922zm1 1h2c.27613.00003.49997.22387.5.5v1c-.00003.27613-.22387.49997-.5.5h-2c-.27613-.00003-.49997-.22387-.5-.5v-1c.00003-.27613.22387-.49997.5-.5zm-3.5 3h9v7h-9v-6.5zm11 1c.54636 0 1 .45364 1 1s-.45364 1-1 1-1-.45364-1-1 .45364-1 1-1zm0 4c.54636 0 1 .45364 1 1s-.45364 1-1 1-1-.45364-1-1 .45364-1 1-1z"/><path d="m333.5 782a.50005006.50005006 0 1 0 0 1h6.00195a.50005006.50005006 0 1 0 0-1zm0 2a.50005006.50005006 0 1 0 0 1h6.00195a.50005006.50005006 0 1 0 0-1zm0 2a.50005006.50005006 0 1 0 0 1h6.00195a.50005006.50005006 0 1 0 0-1z" opacity=".2"/><path d="m342.50195 777c-.67617-.01-.67617 1.00957 0 1h1c.67617.01.67617-1.00957 0-1z" opacity=".8"/></g></g></svg>