<svg height="1600" viewBox="0 0 1600 1600" width="1600" xmlns="http://www.w3.org/2000/svg" xmlns:inkscape="http://www.inkscape.org/namespaces/inkscape" xmlns:sodipodi="http://sodipodi.sourceforge.net/DTD/sodipodi-0.dtd"><sodipodi:namedview pagecolor="#303030" showgrid="true"><inkscape:grid id="grid5" units="px" spacingx="100" spacingy="100" color="#4772b3" opacity="0.2" visible="true" /></sodipodi:namedview><g fill="#fff"><g enable-background="new" transform="matrix(100 0 0 100 -40399.28 -55599.304)"><path d="m447.5 159c-.27613.00003-.49997.22387-.5.5v10c.00003.27613.22387.49997.5.5h5.5v2h-2.5c-.67616-.01-.67616 1.00956 0 1h7c.67616.01.67616-1.00956 0-1h-2.5v-2h5.5c.27613-.00003.49997-.22387.5-.5v-10c-.00003-.27613-.22387-.49997-.5-.5zm.5 1h12v9h-12z" fill-rule="evenodd" opacity=".6" transform="translate(-42.0072 397.993)"/><path d="m410.49023 558.99609a.50005.50005 0 0 0 -.34375.15039l-3 3a.50005.50005 0 0 0 0 .70704l3 3a.50005.50005 0 1 0 .70704-.70704l-2.14649-2.14648h7.79297a.50005.50005 0 1 0 0-1h-7.79297l2.14649-2.14648a.50005.50005 0 0 0 -.36329-.85743z"/></g></g></svg>