<svg height="1600" viewBox="0 0 1600 1600" width="1600" xmlns="http://www.w3.org/2000/svg" xmlns:inkscape="http://www.inkscape.org/namespaces/inkscape" xmlns:sodipodi="http://sodipodi.sourceforge.net/DTD/sodipodi-0.dtd"><sodipodi:namedview pagecolor="#303030" showgrid="true"><inkscape:grid id="grid5" units="px" spacingx="100" spacingy="100" color="#4772b3" opacity="0.2" visible="true" /></sodipodi:namedview><g fill="#fff"><path d="m202 556.99628c-1.79823.00001-2.78534.23261-3.38867.75196-.60334.51935-.61133 1.25444-.61133 1.74804v.5h-.002c-.12828 0-.91099.00004-1.63867.53711-.72848.53766-1.35958 1.60963-1.35938 3.4668.00009.84676.12547 1.43896.35352 1.89453.22804.45557.5457.7425.81445.98047a.50086817.50086817 0 1 0 .66406-.75c-.2639-.23368-.44506-.40021-.58398-.67773-.13888-.27753-.24792-.69815-.248-1.44727-.00017-1.64286.494-2.32325.95312-2.66211.45913-.33885.92388-.3418 1.04688-.3418h.44336a.50005.50005 0 0 0 .0586.004l3-.01a.50005.50005 0 0 0 -.002-1h-.002-.002l-2.49596.004v-.49805c0-.4936-.008-.75638.26367-.99023s1.03456-.50976 2.73633-.50977c1.70177 0 2.46467.27592 2.73633.50977s.26367.49663.26367.99023v1.99414c-.00006.47857-.26457.78886-.8457 1.12891-.58114.34005-1.43184.62116-2.30664.90234-.87481.28119-1.77478.56315-2.50586.98829-.73108.42513-1.34192 1.08253-1.3418 1.98046v2.01368c0 .4936.008 1.22869.61133 1.74804.60334.51936 1.59044.75196 3.38867.75196 1.79823-.00001 2.78534-.23261 3.38867-.75196.60334-.51935.61133-1.25444.61133-1.74804v-.5c.127 0 .91215.00054 1.64062-.53711.72848-.53766 1.35958-1.60963 1.35938-3.4668-.00016-1.56962-.66959-2.34844-1.13672-2.84375a.5001364.5001364 0 1 0 -.72656.6875c.47073.49913.86314.83133.86328 2.15625.00017 1.64286-.494 2.32325-.95312 2.66211-.45913.33885-.92388.3418-1.04688.3418h-.44336a.50005.50005 0 0 0 -.0586-.004l-3 .01a.50005.50005 0 0 0 .002 1h.002.002l2.49595-.004v.49805c0 .4936.008.75638-.26367.99023s-1.03456.50976-2.73633.50977c-1.70177 0-2.46467-.27592-2.73633-.50977-.27166-.2339-.26367-.49668-.26367-.99028v-2.01368c-.00006-.47218.26437-.77913.8457-1.11718s1.43145-.61908 2.30664-.90039c.8752-.28132 1.77441-.56222 2.50586-.99024.73146-.42801 1.34168-1.09087 1.3418-1.99219v-1.99414c0-.4936-.008-1.22869-.61133-1.74804-.60334-.51936-1.59044-.75196-3.38867-.75196z" transform="matrix(100 0 0 100 -19399.997 -55600.014)"/></g></svg>