<svg height="1600" viewBox="0 0 1600 1600" width="1600" xmlns="http://www.w3.org/2000/svg" xmlns:inkscape="http://www.inkscape.org/namespaces/inkscape" xmlns:sodipodi="http://sodipodi.sourceforge.net/DTD/sodipodi-0.dtd"><sodipodi:namedview pagecolor="#303030" showgrid="true"><inkscape:grid id="grid5" units="px" spacingx="100" spacingy="100" color="#4772b3" opacity="0.2" visible="true" /></sodipodi:namedview><g fill="#fff"><path d="m143.13867 515.0332c-.49613-.0451-1.03862.15972-1.49219.61328l-1.75 1.75c-.19519.19527-.19519.51177 0 .70704l3 3c.19527.19519.51177.19519.70704 0l1.75-1.75c.45356-.45357.65838-.99606.61328-1.49219s-.30436-.90592-.61328-1.21485l-1-1c-.30893-.30892-.71872-.56817-1.21485-.61328zm-4.39648 3.7168a.50005.50005 0 0 0 -.34571.14648l-.25.25a.50005.50005 0 0 0 0 .70704l3 3a.50005.50005 0 0 0 .70704 0l.25-.25a.50005.50005 0 0 0 0-.70704l-3-3a.50005.50005 0 0 0 -.36133-.14648zm-1.25196 2.24609a.50005.50005 0 0 0 -.34375.15039l-4.25 4.25c-.83838.83839-1.06879 1.7573-.80273 2.4668s.94792 1.13672 1.65625 1.13672h4.25c1.00042 0 2-.79793 2-2v-3.5a.50005.50005 0 1 0 -1 0v3.5c0 .66505-.50442 1-1 1h-4.25c-.29167 0-.60981-.19778-.71875-.48828s-.0893-.74659.57227-1.4082l4.25-4.25a.50005.50005 0 0 0 -.36329-.85743z" transform="matrix(100 0 0 100 -13098.08899999999 -51401.3548)"/></g></svg>