<svg height="1600" viewBox="0 0 1600 1600" width="1600" xmlns="http://www.w3.org/2000/svg" xmlns:inkscape="http://www.inkscape.org/namespaces/inkscape" xmlns:sodipodi="http://sodipodi.sourceforge.net/DTD/sodipodi-0.dtd"><sodipodi:namedview pagecolor="#303030" showgrid="true"><inkscape:grid id="grid5" units="px" spacingx="100" spacingy="100" color="#4772b3" opacity="0.2" visible="true" /></sodipodi:namedview><g fill="#fff"><path d="m535.49609 325.98633c-.27689.00003-.50105.22506-.5.50195l.008 3.00781c.001.27537.22463.49802.5.49805h5.5v5.50195c.00003.27613.22387.49997.5.5h3c.27613-.00003.49997-.22387.5-.5v-9c-.00003-.27613-.22387-.49997-.5-.5zm-4 4.0039c-.27613.00003-.49997.22387-.5.5v9c.00003.27613.22387.49997.5.5l9.00782.01c.27689-.00003.50105-.22506.5-.50195l-.008-3.00586c-.00003-.27613-.22387-.49997-.5-.5h-5.5v-5.50196c-.00003-.27613-.22387-.49997-.5-.5z" transform="matrix(100 0 0 100 -53000.00899999999 -32499.328)"/></g></svg>