<svg height="1600" viewBox="0 0 1600 1600" width="1600" xmlns="http://www.w3.org/2000/svg" xmlns:inkscape="http://www.inkscape.org/namespaces/inkscape" xmlns:sodipodi="http://sodipodi.sourceforge.net/DTD/sodipodi-0.dtd"><sodipodi:namedview pagecolor="#303030" showgrid="true"><inkscape:grid id="grid5" units="px" spacingx="100" spacingy="100" color="#4772b3" opacity="0.2" visible="true" /></sodipodi:namedview><g fill="#fff"><path d="m447.00391 325.99805v2h1v-1h1v-1zm4 0v1h2v-1zm4 0v1h2v-1zm4 0v1h1v1h1v-2zm-12 4v2h1v-2zm13 0v2h1v-2zm-13 4v2h1v-2zm13 0v2h1v-2zm-13 4v2h2v-1h-1v-1zm13 0v1h-1v1h2v-2zm-9 1v1h2v-1zm4 0v1h2v-1z" transform="matrix(100 0 0 100 -44600.39099999999 -32499.805)"/></g></svg>