<svg height="1600" viewBox="0 0 1600 1600" width="1600" xmlns="http://www.w3.org/2000/svg" xmlns:inkscape="http://www.inkscape.org/namespaces/inkscape" xmlns:sodipodi="http://sodipodi.sourceforge.net/DTD/sodipodi-0.dtd"><sodipodi:namedview pagecolor="#303030" showgrid="true"><inkscape:grid id="grid5" units="px" spacingx="100" spacingy="100" color="#4772b3" opacity="0.2" visible="true" /></sodipodi:namedview><g fill="#fff"><g enable-background="new" transform="matrix(100 0 0 100 -500 1500)"><g transform="matrix(1 0 0 -1 -294 368)"><path d="m300.5 375a.50005.50005 0 0 0 -.5.5v3a.50005.50005 0 0 0 .5.5h11a.50005.50005 0 0 0 .5-.5v-3a.50005.50005 0 0 0 -.5-.5zm.5 1h10v2h-10z"/><path d="m302.5 378a.50005.50005 0 0 0 -.5.5v3a.50005.50005 0 0 0 .5.5h11a.50005.50005 0 0 0 .5-.5v-3a.50005.50005 0 0 0 -.5-.5zm.5 1h10v2h-10z"/></g><path d="m8.5-4a.50005.50005 0 0 0 -.5.5v3a.50005.50005 0 0 0 .5.5h11a.50005.50005 0 0 0 .5-.5v-3a.50005.50005 0 0 0 -.5-.5zm.5 1h10v2h-10z"/></g></g></svg>