<?xml version="1.0" encoding="UTF-8" standalone="no"?>
<svg
   height="1200"
   viewBox="0 0 1600 1200"
   width="1600"
   version="1.1"
   id="svg1"
   xmlns="http://www.w3.org/2000/svg"
   xmlns:svg="http://www.w3.org/2000/svg">
  <defs
     id="defs1" />
  <g
     fill="#fff"
     id="g1">
    <path
       d="m114.5 97c-.27613.000028-.49997.223869-.5.5v3c.00003.27613.22387.49997.5.5h10c.27613-.00003.49997-.22387.5-.5v-3c-.00003-.276131-.22387-.499972-.5-.5zm-3 6c-.27613.00003-.49997.22387-.5.5v3c.00003.27613.22387.49997.5.5h10c.27613-.00003.49997-.22387.5-.5v-3c-.00003-.27613-.22387-.49997-.5-.5z"
       transform="matrix(100 0 0 100 -11000 -9600)"
       id="path1" />
  </g>
</svg>
