<svg height="1600" viewBox="0 0 1500 1600" width="1500" xmlns="http://www.w3.org/2000/svg" xmlns:inkscape="http://www.inkscape.org/namespaces/inkscape" xmlns:sodipodi="http://sodipodi.sourceforge.net/DTD/sodipodi-0.dtd"><sodipodi:namedview pagecolor="#303030" showgrid="true"><inkscape:grid id="grid5" units="px" spacingx="100" spacingy="100" color="#4772b3" opacity="0.2" visible="true" /></sodipodi:namedview><g fill="#fff"><path d="m76 11c-.08389-.000287-.166503.02054-.240234.06055l-5.5 3c-.160469.087924-.2601.256473-.259766.43945v7c-.000335.182978.0993.351528.259766.439453l5.5 3c.073732.040014.156345.060835.240234.060547h1c.08389.000287.166503-.02053.240234-.06055l5.5-3c.160469-.087924.2601-.256473.259766-.43945v-7c.000335-.182978-.0993-.351528-.259766-.439453l-5.5-3c-.073732-.040014-.156345-.060835-.240234-.060547zm.382812 2h.240235l4.376953 2.390625v5.21875l-4.382812 2.390625h-.234376l-4.382812-2.390625v-5.21875z" fill-rule="evenodd" transform="matrix(100 0 0 100 -6900 -1000)"/></g></svg>