<svg height="1600" viewBox="0 0 1600 1600" width="1600" xmlns="http://www.w3.org/2000/svg" xmlns:inkscape="http://www.inkscape.org/namespaces/inkscape" xmlns:sodipodi="http://sodipodi.sourceforge.net/DTD/sodipodi-0.dtd"><sodipodi:namedview pagecolor="#303030" showgrid="true"><inkscape:grid id="grid5" units="px" spacingx="100" spacingy="100" color="#4772b3" opacity="0.2" visible="true" /></sodipodi:namedview><g fill="#fff"><g enable-background="new" transform="translate(-233 -365)"><path d="m1028 1556c-3.2833 0-6 2.4414-6 5.5 0 1.7056.9046 3.146 2.1523 4.3594l.9942.9941a.50004997.50004997 0 0 0 .3027.1485.50004997.50004997 0 0 0 .051.998h5a.50004997.50004997 0 0 0 .045-.998.50004997.50004997 0 0 0 .3086-.1485l.9981-.998c1.2122-1.1985 2.1465-2.6518 2.1465-4.3535 0-3.0586-2.7167-5.5-6-5.5zm0 1c2.7919 0 5 2.0358 5 4.5 0 1.3342-.7428 2.5488-1.8516 3.6445l-1 1a.50004997.50004997 0 0 0 .2793.8535h-4.8594a.50004997.50004997 0 0 0 .2871-.8535l-1-1a.50004997.50004997 0 0 0 -.01-.01c-1.1397-1.1082-1.8477-2.2864-1.8477-3.6406 0-2.4642 2.2081-4.5 5-4.5zm-2.5 12a.50004997.50004997 0 1 0 0 1h1.5v.5a.50004997.50004997 0 0 0 .5.5h1a.50004997.50004997 0 0 0 .5-.5v-.5h1.5a.50004997.50004997 0 1 0 0-1z"/><path d="m1025.4902 1561.0059a.50005.50005 0 0 0 -.3437.8476l.8535.8535v1.543a.50005.50005 0 1 0 1 0v-1.25h2v1.25a.50005.50005 0 1 0 1 0v-1.543l.8535-.8535a.50005.50005 0 0 0 -.707-.707l-.8535.8535h-2.586l-.8535-.8535a.50005.50005 0 0 0 -.3633-.1406z" opacity=".6"/></g><g enable-background="new" transform="matrix(100 0 0 100 -15200 1500)"><path d="m153.5-9c-.27613.0000276-.49997.2238691-.5.5v8c.00003.27613094.22387.49997239.5.5h8c.27613-.00002761.49997-.22386906.5-.5v-8c-.00003-.2761309-.22387-.4999724-.5-.5zm6.5 1c.54636 0 1 .4536376 1 1s-.45364 1-1 1-1-.4536376-1-1 .45364-1 1-1zm-2.98047 1.75c.17034.00643.32566.099184.41211.2460938l2.5 4.25c.19661.3336614-.04436.75454062-.43164.7539062h-5c-.38728.00063442-.62825-.4202448-.43164-.7539062l2.5-4.25c.0935-.1589489.26691-.2535338.45117-.2460938z" fill-rule="evenodd"/><path d="m10.5-14c-.276131.000028-.499972.223869-.5.5v3c.000028.276131.223869.499972.5.5h9c.276131-.000028.499972-.223869.5-.5v-3c-.000028-.276131-.223869-.499972-.5-.5zm.5 1h8v2h-8zm5 7v1h3v2h-3v1h3.5c.276131-.0000276.499972-.2238691.5-.5v-3c-.000028-.2761309-.223869-.4999724-.5-.5z" opacity=".6" transform="translate(147)"/></g></g></svg>