<svg height="1600" viewBox="0 0 1600 1600" width="1600" xmlns="http://www.w3.org/2000/svg" xmlns:inkscape="http://www.inkscape.org/namespaces/inkscape" xmlns:sodipodi="http://sodipodi.sourceforge.net/DTD/sodipodi-0.dtd"><sodipodi:namedview pagecolor="#303030" showgrid="true"><inkscape:grid id="grid5" units="px" spacingx="100" spacingy="100" color="#4772b3" opacity="0.2" visible="true" /></sodipodi:namedview><g fill="#fff"><g enable-background="new" transform="matrix(100 0 0 100 -15200 1500)"><path d="m153.5-9c-.27613.0000276-.49997.2238691-.5.5v8c.00003.27613094.22387.49997239.5.5h8c.27613-.00002761.49997-.22386906.5-.5v-8c-.00003-.2761309-.22387-.4999724-.5-.5zm6.5 1c.54636 0 1 .4536376 1 1s-.45364 1-1 1-1-.4536376-1-1 .45364-1 1-1zm-2.98047 1.75c.17034.00643.32566.099184.41211.2460938l2.5 4.25c.19661.3336614-.04436.75454062-.43164.7539062h-5c-.38728.00063442-.62825-.4202448-.43164-.7539062l2.5-4.25c.0935-.1589489.26691-.2535338.45117-.2460938z" fill-rule="evenodd"/><path d="m10.5-14c-.276131.000028-.499972.223869-.5.5v3c.000028.276131.223869.499972.5.5h9c.276131-.000028.499972-.223869.5-.5v-3c-.000028-.276131-.223869-.499972-.5-.5zm.5 1h8v2h-8zm5 7v1h3v2h-3v1h3.5c.276131-.0000276.499972-.2238691.5-.5v-3c-.000028-.2761309-.223869-.4999724-.5-.5z" opacity=".6" transform="translate(147)"/></g></g></svg>