<svg height="1600" viewBox="0 0 1600 1600" width="1600" xmlns="http://www.w3.org/2000/svg" xmlns:inkscape="http://www.inkscape.org/namespaces/inkscape" xmlns:sodipodi="http://sodipodi.sourceforge.net/DTD/sodipodi-0.dtd"><sodipodi:namedview pagecolor="#303030" showgrid="true"><inkscape:grid id="grid5" units="px" spacingx="100" spacingy="100" color="#4772b3" opacity="0.2" visible="true" /></sodipodi:namedview><g fill="#fff"><g enable-background="new" transform="matrix(100 0 0 100 -17299.293 -9399.224)"><path d="m531.49219 52.992188a.50005.50005 0 0 0 -.31641.121093.50005.50005 0 0 0 -.0195.01563.50005.50005 0 0 0 -.0176.01758.50005.50005 0 0 0 -.002.0039.50005.50005 0 0 0 -.0312.0332.50005.50005 0 0 0 -.002.0039.50005.50005 0 0 0 -.0273.03711.50005.50005 0 0 0 -.002.0039.50005.50005 0 0 0 -.07418.35353v.917969a.50005.50005 0 1 0 1 0v-.5h.5a.50005.50005 0 1 0 0-1h-.91992a.50005.50005 0 0 0 -.0879-.0078zm13 0a.50005.50005 0 0 0 -.07422.007812h-.91797a.50005.50005 0 1 0 0 1h.5v.5a.50005.50005 0 1 0 1 0v-.919922a.50005.50005 0 0 0 -.11328-.404297.50005.50005 0 0 0 -.002-.0039.50005.50005 0 0 0 -.0312-.0332.50005.50005 0 0 0 -.004-.002.50005.50005 0 0 0 -.0332-.03125.50005.50005 0 0 0 -.004-.002.50005.50005 0 0 0 -.32031-.111328zm-9.99219.007812a.50005.50005 0 1 0 0 1h1a.50005.50005 0 1 0 0-1zm3 0a.50005.50005 0 1 0 0 1h1a.50005.50005 0 1 0 0-1zm3 0a.50005.50005 0 1 0 0 1h1a.50005.50005 0 1 0 0-1zm-9.00781 2.992188a.50005.50005 0 0 0 -.49219.507812v1a.50005.50005 0 1 0 1 0v-1a.50005.50005 0 0 0 -.50781-.507812zm13 0a.50005.50005 0 0 0 -.49219.507812v1a.50005.50005 0 1 0 1 0v-1a.50005.50005 0 0 0 -.50781-.507812zm-13 3a.50005.50005 0 0 0 -.49219.507812v1a.50005.50005 0 1 0 1 0v-1a.50005.50005 0 0 0 -.50781-.507812zm13 0a.50005.50005 0 0 0 -.49219.507812v1a.50005.50005 0 1 0 1 0v-1a.50005.50005 0 0 0 -.50781-.507812zm-13 3a.50005.50005 0 0 0 -.49219.507812v1a.50005.50005 0 1 0 1 0v-1a.50005.50005 0 0 0 -.50781-.507812zm13 0a.50005.50005 0 0 0 -.49219.507812v1a.50005.50005 0 1 0 1 0v-1a.50005.50005 0 0 0 -.50781-.507812zm-13 3a.50005.50005 0 0 0 -.49219.507812v.919922a.50005.50005 0 0 0 .11328.404297.50005.50005 0 0 0 .0156.01953.50005.50005 0 0 0 .0176.01758.50005.50005 0 0 0 .004.002.50005.50005 0 0 0 .0332.03125.50005.50005 0 0 0 .004.002.50005.50005 0 0 0 .39435.103421h.91797a.50005.50005 0 1 0 0-1h-.5v-.5a.50005.50005 0 0 0 -.50781-.507812zm13 0a.50005.50005 0 0 0 -.49219.507812v.5h-.5a.50005.50005 0 1 0 0 1h.91992a.50005.50005 0 0 0 .4043-.113281.50005.50005 0 0 0 .004-.002.50005.50005 0 0 0 .0332-.03125.50005.50005 0 0 0 .002-.0039.50005.50005 0 0 0 .0312-.0332.50005.50005 0 0 0 .002-.0039.50005.50005 0 0 0 .10338-.3945v-.917969a.50005.50005 0 0 0 -.50781-.507812zm-9.99219 1.007812a.50005.50005 0 1 0 0 1h1a.50005.50005 0 1 0 0-1zm3 0a.50005.50005 0 1 0 0 1h1a.50005.50005 0 1 0 0-1zm3 0a.50005.50005 0 1 0 0 1h1a.50005.50005 0 1 0 0-1z" fill-rule="evenodd" transform="translate(-357.00711 41.992878)"/><path d="m117.5 98c-.27613.000028-.49997.223869-.5.5v2c.00003.27613.22387.49997.5.5h5c.27613-.00003.49997-.22387.5-.5v-2c-.00003-.276131-.22387-.499972-.5-.5zm-4 5c-.27613.00003-.49997.22387-.5.5v2c.00003.27613.22387.49997.5.5h7c.27613-.00003.49997-.22387.5-.5v-2c-.00003-.27613-.22387-.49997-.5-.5z" transform="matrix(-1 0 0 -1 299 204.00002)"/></g></g></svg>