<svg height="1700" viewBox="0 0 1500 1700" width="1500" xmlns="http://www.w3.org/2000/svg" xmlns:inkscape="http://www.inkscape.org/namespaces/inkscape" xmlns:sodipodi="http://sodipodi.sourceforge.net/DTD/sodipodi-0.dtd"><sodipodi:namedview pagecolor="#303030" showgrid="true"><inkscape:grid id="grid5" units="px" spacingx="100" spacingy="100" color="#4772b3" opacity="0.2" visible="true" /></sodipodi:namedview><g fill="#fff"><g enable-background="new" transform="matrix(100 0 0 100 -131400.39500000002 -140799.58299999998)"><path d="m164.48438 535.00586a.50005.50005 0 0 0 -.1211.0195l-1.36328.3887.01 2.03906 1.63085-.46679a.50005.50005 0 0 0 .35915-.48047v-1a.50005.50005 0 0 0 -.51562-.5zm-2.48438.69531-2 .57031.01 2.03907 2-.57227zm-3 .85547-1.63672.46875a.50005.50005 0 0 0 -.36328.48047v1a.50005.50005 0 0 0 .63672.48047l1.36914-.39063zm-2 5.44336v1l8.5.01c.276-.0005.4995-.224.5-.5-.0005-.276-.224-.4995-.5-.5zm-3 2.00586v5.49219c0 .2761.2239.5.5.5h11c.2761 0 .5-.2239.5-.5v-4.99219c0-.2761-.2239-.5-.5-.5z" transform="translate(1162 873.994)"/><path d="m1315.5078 1411.9922a.50005.50005 0 0 0 -.5.5v4a.50005.50005 0 0 0 .5.5h2a.50005.50005 0 0 0 .5-.5v-2-2a.50005.50005 0 0 0 -.5-.5zm.5 1h1v1.5 1.5h-1z" opacity=".7"/></g></g></svg>