<svg height="1800" viewBox="0 0 1600 1800" width="1600" xmlns="http://www.w3.org/2000/svg" xmlns:inkscape="http://www.inkscape.org/namespaces/inkscape" xmlns:sodipodi="http://sodipodi.sourceforge.net/DTD/sodipodi-0.dtd"><sodipodi:namedview pagecolor="#303030" showgrid="true"><inkscape:grid id="grid5" units="px" spacingx="100" spacingy="100" color="#4772b3" opacity="0.2" visible="true" /></sodipodi:namedview><g fill="#fff"><g enable-background="new" transform="translate(-233 -365)"><path d="m1028 1556c-3.2833 0-6 2.4414-6 5.5 0 1.7056.9046 3.146 2.1523 4.3594l.9942.9941a.50004997.50004997 0 0 0 .3027.1485.50004997.50004997 0 0 0 .051.998h5a.50004997.50004997 0 0 0 .045-.998.50004997.50004997 0 0 0 .3086-.1485l.9981-.998c1.2122-1.1985 2.1465-2.6518 2.1465-4.3535 0-3.0586-2.7167-5.5-6-5.5zm0 1c2.7919 0 5 2.0358 5 4.5 0 1.3342-.7428 2.5488-1.8516 3.6445l-1 1a.50004997.50004997 0 0 0 .2793.8535h-4.8594a.50004997.50004997 0 0 0 .2871-.8535l-1-1a.50004997.50004997 0 0 0 -.01-.01c-1.1397-1.1082-1.8477-2.2864-1.8477-3.6406 0-2.4642 2.2081-4.5 5-4.5zm-2.5 12a.50004997.50004997 0 1 0 0 1h1.5v.5a.50004997.50004997 0 0 0 .5.5h1a.50004997.50004997 0 0 0 .5-.5v-.5h1.5a.50004997.50004997 0 1 0 0-1z"/><path d="m1025.4902 1561.0059a.50005.50005 0 0 0 -.3437.8476l.8535.8535v1.543a.50005.50005 0 1 0 1 0v-1.25h2v1.25a.50005.50005 0 1 0 1 0v-1.543l.8535-.8535a.50005.50005 0 0 0 -.707-.707l-.8535.8535h-2.586l-.8535-.8535a.50005.50005 0 0 0 -.3633-.1406z" opacity=".6"/></g><g enable-background="new" transform="matrix(100 0 0 100 -53000.482 -45001.2277)"><path d="m535.49805 458.00391a.50004999.50004999 0 0 0 -.50391.50781l.002 1.33984c-.37236.0723-.71902.21977-1.02148.42774l-1.12695-1.12305a.50004999.50004999 0 0 0 -.3418-.15039.50004999.50004999 0 0 0 -.36328.85742l1.12695 1.12305c-.20781.30095-.35637.64504-.42969 1.01562l-1.3457.004a.50033487.50033487 0 0 0 .002 1l1.33789-.002c.0677.37781.20888.73164.41602 1.03906l-1.10742 1.10937a.50004999.50004999 0 1 0 .70508.70508l1.10351-1.10156c.30838.21694.66219.37111 1.04492.44531l-.002 1.30078a.50033678.50033678 0 1 0 1 .004l.002-1.30274c.3865-.0701.74651-.21619 1.0586-.43164l1.08203 1.08594a.50005719.50005719 0 1 0 .70703-.70508l-1.08398-1.08984c.21441-.31231.36249-.67226.43164-1.05859h1.30664a.50098.50098 0 1 0 0-1.00196h-1.3125c-.0748-.37855-.23067-.72769-.44532-1.0332l1.10352-1.10547a.50004999.50004999 0 0 0 -.34961-.85937.50004999.50004999 0 0 0 -.35742.15234l-1.10938 1.10742c-.30548-.20557-.65624-.346-1.03125-.41406l-.004-1.33984a.50004999.50004999 0 0 0 -.49219-.50586.50004999.50004999 0 0 1 -.002 0zm-.002 3.29882c.66274 0 1.20117.53844 1.20118 1.20118 0 .66273-.53844 1.19921-1.20118 1.19921-.66273 0-1.19921-.53648-1.19921-1.19921s.53648-1.20117 1.19921-1.20118z" opacity=".7" transform="matrix(.99999720968 0 0 .99999720968 .00195952 .000242088)"/><path d="m540.49805 451.00391a.50004999.50004999 0 0 0 -.50391.50781l.002 1.33984c-.37236.0723-.71902.21977-1.02148.42774l-1.12695-1.12305a.50004999.50004999 0 0 0 -.3418-.15039.50004999.50004999 0 0 0 -.36328.85742l1.12695 1.12305c-.20781.30095-.35637.64503-.42969 1.01562l-1.3457.004a.50033487.50033487 0 0 0 .002 1l1.33789-.002c.0677.37781.20888.73164.41602 1.03906l-1.10742 1.10937a.50004999.50004999 0 1 0 .70508.70508l1.10351-1.10156c.30838.21694.66219.37111 1.04492.44531l-.002 1.30078a.50033678.50033678 0 1 0 1 .004l.002-1.30274c.386-.07.74484-.21858 1.05664-.43359l1.08399 1.08789a.50005719.50005719 0 1 0 .70703-.70508l-1.08398-1.08984c.21441-.31231.36249-.67226.43164-1.05859h1.30664a.50098.50098 0 1 0 0-1.00196h-1.3125c-.0748-.37855-.23067-.72769-.44532-1.0332l1.10352-1.10547a.50004999.50004999 0 0 0 -.34961-.85937.50004999.50004999 0 0 0 -.35742.15234l-1.10938 1.10742c-.30548-.20557-.65624-.346-1.03125-.41406l-.004-1.33984a.50004999.50004999 0 0 0 -.49219-.50586.50004999.50004999 0 0 1 -.002 0zm-.002 3.29882c.66274 0 1.20117.53844 1.20118 1.20118 0 .66273-.53844 1.19921-1.20118 1.19921-.66273 0-1.19921-.53648-1.19921-1.19921s.53648-1.20117 1.19921-1.20118z" transform="matrix(.99999720968 0 0 .99999720968 -.00158336 .000406392)"/></g></g></svg>