<svg id="svg5" height="1600" viewBox="0 0 1600 1600" width="1600" xmlns="http://www.w3.org/2000/svg" xmlns:inkscape="http://www.inkscape.org/namespaces/inkscape" xmlns:sodipodi="http://sodipodi.sourceforge.net/DTD/sodipodi-0.dtd"><sodipodi:namedview pagecolor="#303030" showgrid="true"><inkscape:grid id="grid5" units="px" spacingx="100" spacingy="100" color="#4772b3" opacity="0.2" visible="true" /></sodipodi:namedview><g transform="matrix(100 0 0 100 -4699.9998 -11500)"><path id="path2" d="m61.503909 123c0 3.59202-2.911894 6.50391-6.503906 6.50391s-6.503906-2.91189-6.503906-6.50391c0-3.59201 2.911894-6.5039 6.503906-6.5039s6.503906 2.91189 6.503906 6.5039z" fill="#fff" opacity=".8"/><path id="path3" d="m54.999998 115.99609c-3.862225 0-7.003902 3.14168-7.003906 7.00391-.000002 3.86223 3.141676 7.00391 7.003906 7.00391s7.003908-3.14168 7.003906-7.00391c-.000004-3.86223-3.141681-7.00391-7.003906-7.00391zm0 1c3.321786 0 6.003903 2.68212 6.003906 6.00391.000002 3.32179-2.682117 6.00391-6.003906 6.00391s-6.003908-2.68212-6.003906-6.00391c.000003-3.32179 2.68212-6.00391 6.003906-6.00391z" fill="#f9f9f9"/></g></svg>