<?xml version="1.0" encoding="UTF-8" standalone="no"?>
<svg
   id="svg4"
   height="1600"
   viewBox="0 0 1600 1600"
   width="1600"
   version="1.1"
   xmlns="http://www.w3.org/2000/svg"
   xmlns:svg="http://www.w3.org/2000/svg" xmlns:inkscape="http://www.inkscape.org/namespaces/inkscape" xmlns:sodipodi="http://sodipodi.sourceforge.net/DTD/sodipodi-0.dtd"><sodipodi:namedview pagecolor="#303030" showgrid="true"><inkscape:grid id="grid5" units="px" spacingx="100" spacingy="100" color="#4772b3" opacity="0.2" visible="true" /></sodipodi:namedview>
  <defs
     id="defs1" />
  <g
     id="g1">
    <path
       id="path1"
       d="m118 95c-3.86007 0-7 3.139929-7 7 0 3.86008 3.13992 7 7 7s7-3.13992 7-7c0-3.860071-3.13993-7-7-7zm0 1c3.31963 0 6 2.680368 6 6 0 .3613-.03354.71441-.09441 1.05793l-.23176-.23176a.60006002.60006002 0 0 0 -.42969-.18164.60006002.60006002 0 0 0 -.41797 1.0293l.5.5a.60006002.60006002 0 0 0 .21154.14279c-.13173.31543-.29051.61638-.47181.90162l-1.64207-1.64207a.60006002.60006002 0 0 0 -.42969-.18164.60006002.60006002 0 0 0 -.41797 1.0293l1.74305 1.74305c-.21402.22182-.44447.42754-.69039.61429l-2.705-2.705a.60006002.60006002 0 0 0 -.42969-.18164.60006002.60006002 0 0 0 -.41797 1.0293l2.49863 2.49863c-.30346.14399-.6214.26219-.95048.3542l-.70049-.70049a.60006002.60006002 0 0 0 -.42969-.18164.60006002.60006002 0 0 0 -.41797 1.0293l.07242.07242c-.04954.0012-.09875.00375-.14859.00375-3.31964 0-6-2.68036-6-6 0-.01348.00093-.02672.00102-.04018 1.11175.94327 3.00531 2.04018 5.99898 2.04018z"
       fill="#fff"
       transform="matrix(100 0 0 100 -11000 -9400)" />
  </g>
</svg>
