<svg height="1600" viewBox="0 0 1600 1600" width="1600" xmlns="http://www.w3.org/2000/svg" xmlns:inkscape="http://www.inkscape.org/namespaces/inkscape" xmlns:sodipodi="http://sodipodi.sourceforge.net/DTD/sodipodi-0.dtd"><sodipodi:namedview pagecolor="#303030" showgrid="true"><inkscape:grid id="grid5" units="px" spacingx="100" spacingy="100" color="#4772b3" opacity="0.2" visible="true" /></sodipodi:namedview><g fill="#fff"><g enable-background="new" transform="translate(-233 -365)"><path d="m1028 1556c-3.2833 0-6 2.4414-6 5.5 0 1.7056.9046 3.146 2.1523 4.3594l.9942.9941a.50004997.50004997 0 0 0 .3027.1485.50004997.50004997 0 0 0 .051.998h5a.50004997.50004997 0 0 0 .045-.998.50004997.50004997 0 0 0 .3086-.1485l.9981-.998c1.2122-1.1985 2.1465-2.6518 2.1465-4.3535 0-3.0586-2.7167-5.5-6-5.5zm0 1c2.7919 0 5 2.0358 5 4.5 0 1.3342-.7428 2.5488-1.8516 3.6445l-1 1a.50004997.50004997 0 0 0 .2793.8535h-4.8594a.50004997.50004997 0 0 0 .2871-.8535l-1-1a.50004997.50004997 0 0 0 -.01-.01c-1.1397-1.1082-1.8477-2.2864-1.8477-3.6406 0-2.4642 2.2081-4.5 5-4.5zm-2.5 12a.50004997.50004997 0 1 0 0 1h1.5v.5a.50004997.50004997 0 0 0 .5.5h1a.50004997.50004997 0 0 0 .5-.5v-.5h1.5a.50004997.50004997 0 1 0 0-1z"/><path d="m1025.4902 1561.0059a.50005.50005 0 0 0 -.3437.8476l.8535.8535v1.543a.50005.50005 0 1 0 1 0v-1.25h2v1.25a.50005.50005 0 1 0 1 0v-1.543l.8535-.8535a.50005.50005 0 0 0 -.707-.707l-.8535.8535h-2.586l-.8535-.8535a.50005.50005 0 0 0 -.3633-.1406z" opacity=".6"/></g><g enable-background="new" transform="matrix(100 0 0 100 -32000 -36700)"><path d="m328 368c-3.86007 0-7 3.13993-7 7s3.13993 7 7 7 7-3.13993 7-7-3.13993-7-7-7zm0 1c3.31963 0 6 2.68037 6 6s-2.68037 6-6 6-6-2.68037-6-6 2.68037-6 6-6z" fill-rule="evenodd"/><path d="m327.12891 369.9668a1.0001 1.0001 0 0 0 -.16797.0234c-2.00329.41569-3.57155 1.99062-3.97656 3.9961a1.0003053 1.0003053 0 1 0 1.96093.39648c.24758-1.22589 1.19732-2.17949 2.42188-2.43359a1.0001 1.0001 0 0 0 -.23828-1.98242z"/><path d="m332.49609 373.0957a.40004001.40004001 0 0 0 -.27929.6875l2 2a.40050528.40050528 0 1 0 .5664-.5664l-2-2a.40004001.40004001 0 0 0 -.28711-.1211zm-.75 2.25a.40004001.40004001 0 0 0 -.27929.6875l2 2a.40050528.40050528 0 1 0 .5664-.5664l-2-2a.40004001.40004001 0 0 0 -.28711-.1211zm-1.25 1.75a.40004001.40004001 0 0 0 -.27929.6875l2 2a.40050528.40050528 0 1 0 .5664-.5664l-2-2a.40004001.40004001 0 0 0 -.28711-.1211zm-1.75 1.25a.40004001.40004001 0 0 0 -.27929.6875l2 2a.40050528.40050528 0 1 0 .5664-.5664l-2-2a.40004001.40004001 0 0 0 -.28711-.1211zm-2.23632.75a.40004001.40004001 0 0 0 -.27344.70508l2 1.75a.40004001.40004001 0 1 0 .52734-.60156l-2-1.75a.40004001.40004001 0 0 0 -.2539-.10352z"/></g></g></svg>