<svg height="1600" viewBox="0 0 1600 1600" width="1600" xmlns="http://www.w3.org/2000/svg" xmlns:inkscape="http://www.inkscape.org/namespaces/inkscape" xmlns:sodipodi="http://sodipodi.sourceforge.net/DTD/sodipodi-0.dtd"><sodipodi:namedview pagecolor="#303030" showgrid="true"><inkscape:grid id="grid5" units="px" spacingx="100" spacingy="100" color="#4772b3" opacity="0.2" visible="true" /></sodipodi:namedview><g fill="#fff"><g enable-background="new" transform="matrix(100 0 0 100 -71000.36 -86199.602)"><path d="m718.49219 868c-.12989.002-.25387.0546-.34571.14648l-1.14648 1.14649 1.70703 1.70703 1.14649-1.14648c.19519-.19527.19519-.51177 0-.70704l-1-1c-.0957-.0957-.22603-.14855-.36133-.14648zm-2.19922 2-5.14649 5.14648c-.19519.19527-.19519.51177 0 .70704l1 1c.19527.19519.51177.19519.70704 0l5.14648-5.14649z" opacity=".7"/><path d="m672.49219 862.99219a.50005.50005 0 0 0 -.49219.50781v1.5h-1.5a.50005.50005 0 1 0 0 1h1.5v1.5a.50005.50005 0 1 0 1 0v-1.5h1.5a.50005.50005 0 1 0 0-1h-1.5v-1.5a.50005.50005 0 0 0 -.50781-.50781zm8 .5a.50005.50005 0 0 0 -.49219.50781v1h-1a.50005.50005 0 1 0 0 1h1v1a.50005.50005 0 1 0 1 0v-1h1a.50005.50005 0 1 0 0-1h-1v-1a.50005.50005 0 0 0 -.50781-.50781zm0 7.5a.50005.50005 0 0 0 -.49219.50781v1.5h-1.5a.50005.50005 0 1 0 0 1h1.5v1.5a.50005.50005 0 1 0 1 0v-1.5h1.5a.50005.50005 0 1 0 0-1h-1.5v-1.5a.50005.50005 0 0 0 -.50781-.50781z" transform="translate(42)"/></g></g></svg>