<svg height="1600" viewBox="0 0 1600 1600" width="1600" xmlns="http://www.w3.org/2000/svg" xmlns:inkscape="http://www.inkscape.org/namespaces/inkscape" xmlns:sodipodi="http://sodipodi.sourceforge.net/DTD/sodipodi-0.dtd"><sodipodi:namedview pagecolor="#303030" showgrid="true"><inkscape:grid id="grid5" units="px" spacingx="100" spacingy="100" color="#4772b3" opacity="0.2" visible="true" /></sodipodi:namedview><g fill="#fff"><path d="m6.5 116a.50005.50005 0 0 0 -.5.5v4a.50005.50005 0 1 0 1 0v-3.5h3.5a.50005.50005 0 1 0 0-1zm9.007812 0a.50005.50005 0 1 0 0 1h3.5v3.5a.50005.50005 0 1 0 1 0v-4a.50005.50005 0 0 0 -.5-.5zm-9.0156245 9a.50005.50005 0 0 0 -.4921875.50781v4a.50005.50005 0 0 0 .5.5h4a.50005.50005 0 1 0 0-1h-3.5v-3.5a.50005.50005 0 0 0 -.5078125-.50781zm13.0078125 0a.50005.50005 0 0 0 -.492188.50781v3.5h-3.5a.50005.50005 0 1 0 0 1h4a.50005.50005 0 0 0 .5-.5v-4a.50005.50005 0 0 0 -.507812-.50781z" transform="matrix(100 0 0 100 -500.3906 -11500.391)"/></g></svg>