<svg height="1600" viewBox="0 0 1600 1600" width="1600" xmlns="http://www.w3.org/2000/svg" xmlns:inkscape="http://www.inkscape.org/namespaces/inkscape" xmlns:sodipodi="http://sodipodi.sourceforge.net/DTD/sodipodi-0.dtd"><sodipodi:namedview pagecolor="#303030" showgrid="true"><inkscape:grid id="grid5" units="px" spacingx="100" spacingy="100" color="#4772b3" opacity="0.2" visible="true" /></sodipodi:namedview><g fill="#fff"><g enable-background="new" transform="matrix(100 0 0 100 -32000 -36700)"><path d="m328 368c-3.86007 0-7 3.13993-7 7s3.13993 7 7 7 7-3.13993 7-7-3.13993-7-7-7zm0 1c3.31963 0 6 2.68037 6 6s-2.68037 6-6 6-6-2.68037-6-6 2.68037-6 6-6z" fill-rule="evenodd"/><path d="m327.12891 369.9668a1.0001 1.0001 0 0 0 -.16797.0234c-2.00329.41569-3.57155 1.99062-3.97656 3.9961a1.0003053 1.0003053 0 1 0 1.96093.39648c.24758-1.22589 1.19732-2.17949 2.42188-2.43359a1.0001 1.0001 0 0 0 -.23828-1.98242z"/><path d="m332.49609 373.0957a.40004001.40004001 0 0 0 -.27929.6875l2 2a.40050528.40050528 0 1 0 .5664-.5664l-2-2a.40004001.40004001 0 0 0 -.28711-.1211zm-.75 2.25a.40004001.40004001 0 0 0 -.27929.6875l2 2a.40050528.40050528 0 1 0 .5664-.5664l-2-2a.40004001.40004001 0 0 0 -.28711-.1211zm-1.25 1.75a.40004001.40004001 0 0 0 -.27929.6875l2 2a.40050528.40050528 0 1 0 .5664-.5664l-2-2a.40004001.40004001 0 0 0 -.28711-.1211zm-1.75 1.25a.40004001.40004001 0 0 0 -.27929.6875l2 2a.40050528.40050528 0 1 0 .5664-.5664l-2-2a.40004001.40004001 0 0 0 -.28711-.1211zm-2.23632.75a.40004001.40004001 0 0 0 -.27344.70508l2 1.75a.40004001.40004001 0 1 0 .52734-.60156l-2-1.75a.40004001.40004001 0 0 0 -.2539-.10352z"/></g></g></svg>