<svg height="1600" viewBox="0 0 1600 1600" width="1600" xmlns="http://www.w3.org/2000/svg" xmlns:inkscape="http://www.inkscape.org/namespaces/inkscape" xmlns:sodipodi="http://sodipodi.sourceforge.net/DTD/sodipodi-0.dtd"><sodipodi:namedview pagecolor="#303030" showgrid="true"><inkscape:grid id="grid5" units="px" spacingx="100" spacingy="100" color="#4772b3" opacity="0.2" visible="true" /></sodipodi:namedview><g fill="#fff"><g enable-background="new" transform="translate(-233 -365)"><path d="m1028 1556c-3.2833 0-6 2.4414-6 5.5 0 1.7056.9046 3.146 2.1523 4.3594l.9942.9941a.50004997.50004997 0 0 0 .3027.1485.50004997.50004997 0 0 0 .051.998h5a.50004997.50004997 0 0 0 .045-.998.50004997.50004997 0 0 0 .3086-.1485l.9981-.998c1.2122-1.1985 2.1465-2.6518 2.1465-4.3535 0-3.0586-2.7167-5.5-6-5.5zm0 1c2.7919 0 5 2.0358 5 4.5 0 1.3342-.7428 2.5488-1.8516 3.6445l-1 1a.50004997.50004997 0 0 0 .2793.8535h-4.8594a.50004997.50004997 0 0 0 .2871-.8535l-1-1a.50004997.50004997 0 0 0 -.01-.01c-1.1397-1.1082-1.8477-2.2864-1.8477-3.6406 0-2.4642 2.2081-4.5 5-4.5zm-2.5 12a.50004997.50004997 0 1 0 0 1h1.5v.5a.50004997.50004997 0 0 0 .5.5h1a.50004997.50004997 0 0 0 .5-.5v-.5h1.5a.50004997.50004997 0 1 0 0-1z"/><path d="m1025.4902 1561.0059a.50005.50005 0 0 0 -.3437.8476l.8535.8535v1.543a.50005.50005 0 1 0 1 0v-1.25h2v1.25a.50005.50005 0 1 0 1 0v-1.543l.8535-.8535a.50005.50005 0 0 0 -.707-.707l-.8535.8535h-2.586l-.8535-.8535a.50005.50005 0 0 0 -.3633-.1406z" opacity=".6"/></g><g enable-background="new" fill-rule="evenodd" transform="matrix(100 0 0 100 -2600 -11500)"><path d="m34 116c-3.860075 0-7 3.13992-7 7 0 3.86007 3.139928 7 7 7s7-3.13993 7-7c0-3.86008-3.139925-7-7-7zm0 1c3.319633 0 6 2.68036 6 6 0 3.31963-2.680364 6-6 6s-6-2.68037-6-6c0-3.31964 2.680367-6 6-6z"/><path d="m-506.01562 106.24414a.50005.50005 0 0 0 -.375.19336c-.70647.88308-1.16919 1.99665-1.41016 3.5625h-3.94922c-.67616-.01-.67616 1.00956 0 1h3.83203c-.0522.60644-.082 1.26334-.082 2 0 .73665.0299 1.39356.082 2h-3.83203c-.67616-.01-.67616 1.00956 0 1h3.94922c.24099 1.56587.70375 2.67949 1.41016 3.5625a.50024408.50024408 0 0 0 .78124-.625c-.56556-.70695-.96391-1.59657-1.18554-2.9375h6.54492c.67616.01.67616-1.00956 0-1h-6.66797c-.0526-.59052-.082-1.24749-.082-2s.0294-1.40947.082-2h6.66797c.67616.01.67616-1.00956 0-1h-6.54492c.22165-1.34096.62004-2.23062 1.18554-2.9375a.50005.50005 0 0 0 -.40624-.81836z" opacity=".8" transform="translate(540 10)"/></g></g></svg>