<svg height="1600" viewBox="0 0 1600 1600" width="1600" xmlns="http://www.w3.org/2000/svg" xmlns:inkscape="http://www.inkscape.org/namespaces/inkscape" xmlns:sodipodi="http://sodipodi.sourceforge.net/DTD/sodipodi-0.dtd"><sodipodi:namedview pagecolor="#303030" showgrid="true"><inkscape:grid id="grid5" units="px" spacingx="100" spacingy="100" color="#4772b3" opacity="0.2" visible="true" /></sodipodi:namedview><g fill="#fff"><g enable-background="new" transform="matrix(100 0 0 100 -11000 -9400)"><path d="m118 95.5c-3.58986 0-6.5 2.41014-6.5 6 1 1 3 2.5 6.5 2.5z"/><path d="m118 95c-3.86007 0-7 3.139925-7 7 0 3.86008 3.13992 7 7 7s7-3.13992 7-7c0-3.860075-3.13993-7-7-7zm0 1c3.31963 0 6 2.680365 6 6 0 3.31964-2.68036 6-6 6s-6-2.68036-6-6c0-3.319635 2.68037-6 6-6z" fill-rule="evenodd"/><path d="m123.24414 102.64453a.60006002.60006002 0 0 0 -.41797 1.0293l.5.5a.60006002.60006002 0 1 0 .84766-.84766l-.5-.5a.60006002.60006002 0 0 0 -.42969-.18164zm-2.25.75a.60006002.60006002 0 0 0 -.41797 1.0293l1.75 1.75a.60006002.60006002 0 1 0 .84766-.84766l-1.75-1.75a.60006002.60006002 0 0 0 -.42969-.18164zm-2.5.5a.60006002.60006002 0 0 0 -.41797 1.0293l2.75 2.75a.60006002.60006002 0 1 0 .84766-.84766l-2.75-2.75a.60006002.60006002 0 0 0 -.42969-.18164zm0 3a.60006002.60006002 0 0 0 -.41797 1.0293l.75.75a.60006002.60006002 0 1 0 .84766-.84766l-.75-.75a.60006002.60006002 0 0 0 -.42969-.18164z"/></g></g></svg>