<svg id="svg4" height="1600" viewBox="0 0 1600 1600" width="1600" xmlns="http://www.w3.org/2000/svg" xmlns:inkscape="http://www.inkscape.org/namespaces/inkscape" xmlns:sodipodi="http://sodipodi.sourceforge.net/DTD/sodipodi-0.dtd"><sodipodi:namedview pagecolor="#303030" showgrid="true"><inkscape:grid id="grid5" units="px" spacingx="100" spacingy="100" color="#4772b3" opacity="0.2" visible="true" /></sodipodi:namedview><g fill="#fff" transform="matrix(100 0 0 100 -32000 -36700)"><path id="path2" d="m327.12891 369.9668a1.0001 1.0001 0 0 0 -.16797.0234c-2.00329.41569-3.57155 1.99062-3.97656 3.9961a1.0003053 1.0003053 0 1 0 1.96093.39648c.24758-1.22589 1.19732-2.17949 2.42188-2.43359a1.0001 1.0001 0 0 0 -.23828-1.98242z"/><path id="path1" d="m328 368c-3.86007 0-7 3.13993-7 7s3.13993 7 7 7 7-3.13993 7-7-3.13993-7-7-7zm0 1c3.11844 0 5.67234 2.36547 5.97049 5.40408l-1.18729-1.18728a.40004001.40004001 0 0 0 -.28711-.1211.40004001.40004001 0 0 0 -.27929.6875l1.75785 1.75785c-.04738.5324-.16265 1.04491-.33942 1.52778l-1.60203-1.60203a.40004001.40004001 0 0 0 -.28711-.1211.40004001.40004001 0 0 0 -.27929.6875l1.81672 1.81672c-.21383.39642-.47192.76494-.76606 1.10113l-1.73426-1.73425a.40004001.40004001 0 0 0 -.28711-.1211.40004001.40004001 0 0 0 -.27929.6875l1.73425 1.73426c-.33619.29414-.70471.55223-1.10113.76606l-1.81672-1.81672a.40004001.40004001 0 0 0 -.28711-.1211.40004001.40004001 0 0 0 -.27929.6875l1.60203 1.60203c-.41494.1519-.85204.25758-1.30449.31487a.40004001.40004001 0 0 0 -.00067-.00088l-2-1.75a.40004001.40004001 0 0 0 -.2539-.10352.40004001.40004001 0 0 0 -.27344.70508l1.35283 1.18373c-3.12694-.21058-5.58916-2.80315-5.58916-5.98451 0-3.31963 2.68037-6 6-6z"/></g></svg>