<svg height="1400" viewBox="0 0 1600 1400" width="1600" xmlns="http://www.w3.org/2000/svg" xmlns:inkscape="http://www.inkscape.org/namespaces/inkscape" xmlns:sodipodi="http://sodipodi.sourceforge.net/DTD/sodipodi-0.dtd"><sodipodi:namedview pagecolor="#303030" showgrid="true"><inkscape:grid id="grid5" units="px" spacingx="100" spacingy="100" color="#4772b3" opacity="0.2" visible="true" /></sodipodi:namedview><g fill="#fff"><path d="m237.49219 305.99437c-.27613.00003-.49997.22387-.5.5v2c-.01.67616 1.00956.67616 1 0v-1.5h3v10.03336h-1.5c-.67616-.01-.67616 1.00956 0 1h4c.67616.01.67616-1.00956 0-1h-1.5v-10.03336h3v1.5c-.01.67616 1.00956.67616 1 0v-2c-.00003-.27613-.22387-.49997-.5-.5zm7 5.00563c-.27613.00003-.49997.22387-.5.5v1c-.01.67616 1.00956.67616 1 0v-.5h2v5.02773h-.5c-.67616-.01-.67616 1.00956 0 1h2c.67616.01.67616-1.00956 0-1h-.5v-5.02773h2v.5c-.01.67616 1.00956.67616 1 0v-1c-.00003-.27613-.22387-.49997-.5-.5z" transform="matrix(100 0 0 100 -23599.219 -30501.109)"/></g></svg>