<svg height="1400" viewBox="0 0 1600 1400" width="1600" xmlns="http://www.w3.org/2000/svg" xmlns:inkscape="http://www.inkscape.org/namespaces/inkscape" xmlns:sodipodi="http://sodipodi.sourceforge.net/DTD/sodipodi-0.dtd"><sodipodi:namedview pagecolor="#303030" showgrid="true"><inkscape:grid id="grid5" units="px" spacingx="100" spacingy="100" color="#4772b3" opacity="0.2" visible="true" /></sodipodi:namedview><g fill="#fff"><path d="m265.00049 180.00029c-.56524 0-1.07102.24537-1.44727.61718s-.64955.85716-.88086 1.40821c-.46263 1.10209-.75684 2.49042-1.08008 3.85937-.32324 1.36896-.67626 2.7158-1.17383 3.66406-.49757.94827-1.04163 1.45118-1.91211 1.45118a.50005.50005 0 1 0 0 1c1.29399 0 2.21222-.8721 2.79688-1.98633.58466-1.11424.93562-2.51739 1.26172-3.89844.32609-1.38105.62614-2.74272 1.0293-3.70312.20157-.48021.4296-.85424.6621-1.08399s.4436-.32812.74415-.32812c.30054 0 .51164.0984.74414.32812.23249.22975.46053.60378.66211 1.08399.40315.9604.7032 2.32207 1.02929 3.70312.3261 1.38105.67511 2.7842 1.25977 3.89844.58466 1.11423 1.50289 1.98633 2.79687 1.98633a.50005.50005 0 1 0 0-1c-.87047 0-1.41258-.50291-1.91015-1.45118-.49757-.94826-.85059-2.2951-1.17383-3.66406-.32324-1.36895-.61745-2.75728-1.08008-3.85937-.23131-.55105-.50461-1.0364-.88086-1.40821s-.88203-.61718-1.44726-.61718z" transform="matrix(100 0 0 100 -25699.951 -17900.032)"/></g></svg>