<svg height="1600" viewBox="0 0 1600 1600" width="1600" xmlns="http://www.w3.org/2000/svg" xmlns:inkscape="http://www.inkscape.org/namespaces/inkscape" xmlns:sodipodi="http://sodipodi.sourceforge.net/DTD/sodipodi-0.dtd"><sodipodi:namedview pagecolor="#303030" showgrid="true"><inkscape:grid id="grid5" units="px" spacingx="100" spacingy="100" color="#4772b3" opacity="0.2" visible="true" /></sodipodi:namedview><g fill="#fff"><g enable-background="new" transform="matrix(100 0 0 100 -38300 -15700)"><path d="m384.5 158c-.27613.00003-.49997.22387-.5.5v3c.00003.27613.22387.49997.5.5h13c.27613-.00003.49997-.22387.5-.5v-3c-.00003-.27613-.22387-.49997-.5-.5zm.5 1h12v2h-12zm-.5 9c-.27613.00003-.49997.22387-.5.5v3c.00003.27613.22387.49997.5.5h13c.27613-.00003.49997-.22387.5-.5v-3c-.00003-.27613-.22387-.49997-.5-.5zm.5 1h12v2h-12z" opacity=".6"/><path d="m393.00001 165a2.000005 2.000005 0 0 1 -2.00001 2.00001 2.000005 2.000005 0 0 1 -2.00001-2.00001 2.000005 2.000005 0 0 1 2.00001-2.00001 2.000005 2.000005 0 0 1 2.00001 2.00001z"/></g></g></svg>