<svg height="1600" viewBox="0 0 1600 1600" width="1600" xmlns="http://www.w3.org/2000/svg" xmlns:inkscape="http://www.inkscape.org/namespaces/inkscape" xmlns:sodipodi="http://sodipodi.sourceforge.net/DTD/sodipodi-0.dtd"><sodipodi:namedview pagecolor="#303030" showgrid="true"><inkscape:grid id="grid5" units="px" spacingx="100" spacingy="100" color="#4772b3" opacity="0.2" visible="true" /></sodipodi:namedview><g fill="#fff"><g enable-background="new" transform="translate(-233 -365)"><path d="m1028 1556c-3.2833 0-6 2.4414-6 5.5 0 1.7056.9046 3.146 2.1523 4.3594l.9942.9941a.50004997.50004997 0 0 0 .3027.1485.50004997.50004997 0 0 0 .051.998h5a.50004997.50004997 0 0 0 .045-.998.50004997.50004997 0 0 0 .3086-.1485l.9981-.998c1.2122-1.1985 2.1465-2.6518 2.1465-4.3535 0-3.0586-2.7167-5.5-6-5.5zm0 1c2.7919 0 5 2.0358 5 4.5 0 1.3342-.7428 2.5488-1.8516 3.6445l-1 1a.50004997.50004997 0 0 0 .2793.8535h-4.8594a.50004997.50004997 0 0 0 .2871-.8535l-1-1a.50004997.50004997 0 0 0 -.01-.01c-1.1397-1.1082-1.8477-2.2864-1.8477-3.6406 0-2.4642 2.2081-4.5 5-4.5zm-2.5 12a.50004997.50004997 0 1 0 0 1h1.5v.5a.50004997.50004997 0 0 0 .5.5h1a.50004997.50004997 0 0 0 .5-.5v-.5h1.5a.50004997.50004997 0 1 0 0-1z"/><path d="m1025.4902 1561.0059a.50005.50005 0 0 0 -.3437.8476l.8535.8535v1.543a.50005.50005 0 1 0 1 0v-1.25h2v1.25a.50005.50005 0 1 0 1 0v-1.543l.8535-.8535a.50005.50005 0 0 0 -.707-.707l-.8535.8535h-2.586l-.8535-.8535a.50005.50005 0 0 0 -.3633-.1406z" opacity=".6"/></g><g enable-background="new" transform="matrix(100 0 0 100 114800.005 -39800)"><path d="m-1148 398h16v16h-16z" opacity="0"/><path d="m-1140.8984 400.01367c-2.0857.12882-4.0362 1.26078-5.1621 3.1211-1.5012 2.48042-1.1755 5.66201.7968 7.78711 1.9724 2.12509 5.1198 2.68733 7.7051 1.375 2.5853-1.31234 3.9907-4.18482 3.4395-7.03126a.50030025.50030025 0 1 0 -.9825.18946c.4673 2.4126-.7188 4.8369-2.9101 5.94922-2.1913 1.11231-4.8478.63909-6.5195-1.16211-1.6718-1.8012-1.9463-4.48748-.6739-6.58985 1.2724-2.10236 3.7774-3.10263 6.1485-2.45703a.50104088.50104088 0 1 0 .2636-.96679c-.6993-.19043-1.4102-.25779-2.1054-.21485z" opacity=".6"/><path d="m144.98047 157.99023a1.0001 1.0001 0 0 0 -.6875.30274l-3.71289 3.71484c-.0265-.001-.0513-.008-.0781-.008-.8224 0-1.5.67765-1.5 1.5s.6776 1.5 1.5 1.5 1.5-.67765 1.5-1.5c0-.0274-.006-.0531-.008-.0801l3.71289-3.71289a1.0001 1.0001 0 0 0 -.72656-1.7168z" transform="translate(-1279 241)"/></g></g></svg>