<svg height="1800" viewBox="0 0 1600 1800" width="1600" xmlns="http://www.w3.org/2000/svg" xmlns:inkscape="http://www.inkscape.org/namespaces/inkscape" xmlns:sodipodi="http://sodipodi.sourceforge.net/DTD/sodipodi-0.dtd"><sodipodi:namedview pagecolor="#303030" showgrid="true"><inkscape:grid id="grid5" units="px" spacingx="100" spacingy="100" color="#4772b3" opacity="0.2" visible="true" /></sodipodi:namedview><g fill="#fff"><g enable-background="new" transform="matrix(99.630235 0 0 101.04592 -23508.19600000001 -13609.194)"><path d="m244.01184 140.51071c1.65601 0 3 1.37486 3 3.04688 0 1.67201-1.34399 3.04687-3 3.04687s-3-1.37486-3-3.04687c0-1.67202 1.34399-3.04688 3-3.04688zm0 1c-1.10534 0-2 .90526-2 2.04688 0 1.14161.89466 2.04687 2 2.04687s2-.90526 2-2.04687c0-1.14162-.89466-2.04688-2-2.04688z" opacity=".6"/><path d="m244.01184 137.51071c-3.5093 0-6 2.77253-6 5.91992v7.08008h-.96094a.50004991.50004991 0 1 0 0 1h1.46094a.50004991.50004991 0 0 0 .5-.5v-7.58008c0-2.62796 2.01002-4.91992 5-4.91992 2.99076 0 5 2.29197 5 4.91992v7.58008a.50004991.50004991 0 0 0 .5.5h1.46094a.50004991.50004991 0 1 0 0-1h-.96094v-7.08008c0-3.14741-2.49004-5.91992-6-5.91992z"/><path d="m258.49962 136.9993c-.27613.00003-.49997.22387-.5.5v3c.00003.27613.22387.49997.5.5h3c.27613-.00003.49997-.22387.5-.5v-3c-.00003-.27613-.22387-.49997-.5-.5z" fill-rule="evenodd" transform="translate(-15.954521 -1.329823)"/></g></g></svg>