<svg height="1600" viewBox="0 0 1600 1600" width="1600" xmlns="http://www.w3.org/2000/svg" xmlns:inkscape="http://www.inkscape.org/namespaces/inkscape" xmlns:sodipodi="http://sodipodi.sourceforge.net/DTD/sodipodi-0.dtd"><sodipodi:namedview pagecolor="#303030" showgrid="true"><inkscape:grid id="grid5" units="px" spacingx="100" spacingy="100" color="#4772b3" opacity="0.2" visible="true" /></sodipodi:namedview><g fill="#fff"><path d="m241.49219 158.00781c-.1326.00003-.25982.0527-.35352.14649l-4 4c-.094.0938-.14648.22091-.14648.35351v9c0 .27613.2239.49997.5.5h9c.1326-.00003.25971-.0527.35351-.14648l4-4c.094-.0938.14649-.22092.14649-.35352v-9c0-.27613-.2239-.49997-.5-.5zm7.48828.98242a1.0001 1.0001 0 0 1 .72656 1.7168l-2.70703 2.70703v6.58594a1.0001 1.0001 0 1 1 -2 0v-6h-6a1.0001 1.0001 0 1 1 0-2h6.58594l2.70703-2.70703a1.0001 1.0001 0 0 1 .6875-.30274z" transform="matrix(100 0 0 100 -23599.219 -15700.781)"/></g></svg>