<svg height="1600" viewBox="0 0 1600 1600" width="1600" xmlns="http://www.w3.org/2000/svg" xmlns:inkscape="http://www.inkscape.org/namespaces/inkscape" xmlns:sodipodi="http://sodipodi.sourceforge.net/DTD/sodipodi-0.dtd"><sodipodi:namedview pagecolor="#303030" showgrid="true"><inkscape:grid id="grid5" units="px" spacingx="100" spacingy="100" color="#4772b3" opacity="0.2" visible="true" /></sodipodi:namedview><g fill="#fff"><g enable-background="new" transform="matrix(100 0 0 100 -2600.3218 -9399.754)"><path d="m40.433594 95a.55005501.55005501 0 0 0 -.378906.166016l-3.44336 3.445312a.55005501.55005501 0 1 0 .777344.777344l3.445312-3.44336a.55005501.55005501 0 0 0 -.40039-.945312zm-9.445313 9.44531a.55005501.55005501 0 0 0 -.376953.16602l-3.445312 3.44336a.55104336.55104336 0 1 0 .779296.77929l3.44336-3.44531a.55005501.55005501 0 0 0 -.400391-.94336z" opacity=".7"/><path d="m32.5 100c-.276131.00003-.499972.22387-.5.5v3c.000028.27613.223869.49997.5.5h3c.276131-.00003.499972-.22387.5-.5v-3c-.000028-.27613-.223869-.49997-.5-.5z" fill-rule="evenodd"/></g></g></svg>