<svg height="1600" viewBox="0 0 1600 1600" width="1600" xmlns="http://www.w3.org/2000/svg" xmlns:inkscape="http://www.inkscape.org/namespaces/inkscape" xmlns:sodipodi="http://sodipodi.sourceforge.net/DTD/sodipodi-0.dtd"><sodipodi:namedview pagecolor="#303030" showgrid="true"><inkscape:grid id="grid5" units="px" spacingx="100" spacingy="100" color="#4772b3" opacity="0.2" visible="true" /></sodipodi:namedview><g fill="#fff"><path d="m97.917969 157.99219c-1.58517-.0121-3.159728.54254-4.271485 1.65429l-3.5 3.5a.50005.50005 0 0 0 0 .70704l2 2a.50005.50005 0 0 0 .707032 0l3.25-3.25c.584908-.58491 1.581654-.89809 2.345703-.69336.801559.21477 1.425851.83907 1.640621 1.64062.20473.76404-.108435 1.76078-.693356 2.3457l-3.25 3.25a.50005.50005 0 0 0 0 .70704l2 2a.50005.50005 0 0 0 .707032 0l3.474604-3.47657a.50005.50005 0 0 0 .0254-.0234.50005.50005 0 0 0 .12109-.18946c2.06467-2.25524 2.04105-6.1641-.21875-8.42383-1.15788-1.15791-2.752722-1.73596-4.337891-1.74804zm-.0078 1.0332c1.340871.01 2.694311.47748 3.638671 1.42188 1.8888 1.88873 1.87387 5.423.0977 7.19921l-3.14654 3.14649-1.292969-1.29297 2.896489-2.89648c.84012-.84012 1.27-2.1299.95312-3.3125-.30683-1.14511-1.202555-2.04084-2.347656-2.34766-1.182591-.31687-2.472368.11299-3.3125.95312l-2.896484 2.89649-1.292969-1.29297 3.146485-3.14648c.888243-.88825 2.21577-1.33772 3.55664-1.32813z" opacity=".6" transform="matrix(100 0 0 100 -8899.4138 -15699.595)"/></g></svg>