<svg id="svg4" height="1800" viewBox="0 0 1600 1800" width="1600" xmlns="http://www.w3.org/2000/svg" xmlns:inkscape="http://www.inkscape.org/namespaces/inkscape" xmlns:sodipodi="http://sodipodi.sourceforge.net/DTD/sodipodi-0.dtd"><sodipodi:namedview pagecolor="#303030" showgrid="true"><inkscape:grid id="grid5" units="px" spacingx="100" spacingy="100" color="#4772b3" opacity="0.2" visible="true" /></sodipodi:namedview><g fill="#fff" transform="matrix(99.630235 0 0 101.04592 -23508.196 -13609.194)"><path id="path1" d="m244.01184 140.51071c1.65601 0 3 1.37486 3 3.04688 0 1.67201-1.34399 3.04687-3 3.04687s-3-1.37486-3-3.04687c0-1.67202 1.34399-3.04688 3-3.04688zm0 1c-1.10534 0-2 .90526-2 2.04688 0 1.14161.89466 2.04687 2 2.04687s2-.90526 2-2.04687c0-1.14162-.89466-2.04688-2-2.04688z" opacity=".6"/><path id="path2" d="m242.5451 135.66947c-.27613.00003-.49997.22387-.5.5v1.65504c-2.43658.80934-4.03325 3.08687-4.03325 5.60613v7.08007h-.96096a.50004991.50004991 0 1 0 0 1.00001h1.46095a.50004991.50004991 0 0 0 .5-.50001v-7.58007c0-1.99785 1.16248-3.80034 3.03326-4.55042v.28926c.00003.27613.22387.49996.5.49999h3c.27612-.00003.49998-.22386.50001-.49999v-.26338c1.83244.7656 2.96673 2.55014 2.96673 4.52454v7.58007a.50004991.50004991 0 0 0 .49999.50001h1.46095a.50004991.50004991 0 1 0 0-1.00001h-.96093v-7.08007c0-2.49637-1.56737-4.75533-3.96674-5.58369v-1.67748c-.00003-.27613-.22389-.49997-.50001-.5z"/></g></svg>