<svg height="1500" viewBox="0 0 1600 1500" width="1600" xmlns="http://www.w3.org/2000/svg" xmlns:inkscape="http://www.inkscape.org/namespaces/inkscape" xmlns:sodipodi="http://sodipodi.sourceforge.net/DTD/sodipodi-0.dtd"><sodipodi:namedview pagecolor="#303030" showgrid="true"><inkscape:grid id="grid5" units="px" spacingx="100" spacingy="100" color="#4772b3" opacity="0.2" visible="true" /></sodipodi:namedview><g fill="#fff"><g enable-background="new" transform="matrix(-100 0 0 -100 42099.95900000001 50899.999)"><path d="m-61.992188 164v7h1v-3h2v1h1v-1h2v3h1v-3h2v1h1v-1h2v3h1v-7h-1v3h-2v-1h-1v1h-2v-3h-1v3h-2v-1h-1v1h-2v-3z" opacity=".7" transform="matrix(-1 0 0 -1 358.007 666)"/><path d="m406.5 504c-.27613.00003-.49997.22387-.5.5v3c.00003.27613.22387.49997.5.5h3c.27613-.00003.49997-.22387.5-.5v-3c-.00003-.27613-.22387-.49997-.5-.5z" fill-rule="evenodd"/></g></g></svg>