<svg height="1600" viewBox="0 0 1600 1600" width="1600" xmlns="http://www.w3.org/2000/svg" xmlns:inkscape="http://www.inkscape.org/namespaces/inkscape" xmlns:sodipodi="http://sodipodi.sourceforge.net/DTD/sodipodi-0.dtd"><sodipodi:namedview pagecolor="#303030" showgrid="true"><inkscape:grid id="grid5" units="px" spacingx="100" spacingy="100" color="#4772b3" opacity="0.2" visible="true" /></sodipodi:namedview><g fill="#fff"><g enable-background="new" transform="translate(-233 -365)"><path d="m1028 1556c-3.2833 0-6 2.4414-6 5.5 0 1.7056.9046 3.146 2.1523 4.3594l.9942.9941a.50004997.50004997 0 0 0 .3027.1485.50004997.50004997 0 0 0 .051.998h5a.50004997.50004997 0 0 0 .045-.998.50004997.50004997 0 0 0 .3086-.1485l.9981-.998c1.2122-1.1985 2.1465-2.6518 2.1465-4.3535 0-3.0586-2.7167-5.5-6-5.5zm0 1c2.7919 0 5 2.0358 5 4.5 0 1.3342-.7428 2.5488-1.8516 3.6445l-1 1a.50004997.50004997 0 0 0 .2793.8535h-4.8594a.50004997.50004997 0 0 0 .2871-.8535l-1-1a.50004997.50004997 0 0 0 -.01-.01c-1.1397-1.1082-1.8477-2.2864-1.8477-3.6406 0-2.4642 2.2081-4.5 5-4.5zm-2.5 12a.50004997.50004997 0 1 0 0 1h1.5v.5a.50004997.50004997 0 0 0 .5.5h1a.50004997.50004997 0 0 0 .5-.5v-.5h1.5a.50004997.50004997 0 1 0 0-1z"/><path d="m1025.4902 1561.0059a.50005.50005 0 0 0 -.3437.8476l.8535.8535v1.543a.50005.50005 0 1 0 1 0v-1.25h2v1.25a.50005.50005 0 1 0 1 0v-1.543l.8535-.8535a.50005.50005 0 0 0 -.707-.707l-.8535.8535h-2.586l-.8535-.8535a.50005.50005 0 0 0 -.3633-.1406z" opacity=".6"/></g><path d="m97.917969 157.99219c-1.58517-.0121-3.159728.54254-4.271485 1.65429l-3.5 3.5a.50005.50005 0 0 0 0 .70704l2 2a.50005.50005 0 0 0 .707032 0l3.25-3.25c.584908-.58491 1.581654-.89809 2.345703-.69336.801559.21477 1.425851.83907 1.640621 1.64062.20473.76404-.108435 1.76078-.693356 2.3457l-3.25 3.25a.50005.50005 0 0 0 0 .70704l2 2a.50005.50005 0 0 0 .707032 0l3.474604-3.47657a.50005.50005 0 0 0 .0254-.0234.50005.50005 0 0 0 .12109-.18946c2.06467-2.25524 2.04105-6.1641-.21875-8.42383-1.15788-1.15791-2.752722-1.73596-4.337891-1.74804zm-.0078 1.0332c1.340871.01 2.694311.47748 3.638671 1.42188 1.8888 1.88873 1.87387 5.423.0977 7.19921l-3.14654 3.14649-1.292969-1.29297 2.896489-2.89648c.84012-.84012 1.27-2.1299.95312-3.3125-.30683-1.14511-1.202555-2.04084-2.347656-2.34766-1.182591-.31687-2.472368.11299-3.3125.95312l-2.896484 2.89649-1.292969-1.29297 3.146485-3.14648c.888243-.88825 2.21577-1.33772 3.55664-1.32813z" opacity=".6" transform="matrix(100 0 0 100 -8899.4138 -15699.595)"/></g></svg>