<svg height="1600" viewBox="0 0 1600 1600" width="1600" xmlns="http://www.w3.org/2000/svg" xmlns:inkscape="http://www.inkscape.org/namespaces/inkscape" xmlns:sodipodi="http://sodipodi.sourceforge.net/DTD/sodipodi-0.dtd"><sodipodi:namedview pagecolor="#303030" showgrid="true"><inkscape:grid id="grid5" units="px" spacingx="100" spacingy="100" color="#4772b3" opacity="0.2" visible="true" /></sodipodi:namedview><g fill="#fff"><g enable-background="new" transform="matrix(100 0 0 100 -6800.7302 -15699.265)"><path d="m69.5 157.98633a.50005.50005 0 0 0 -.492188.50586v12.9082a.50005.50005 0 0 0 .08203.37695.50005.50005 0 0 0 .002.004.50005.50005 0 0 0 .0293.0352.50005.50005 0 0 0 .002.004.50005.50005 0 0 0 .03125.0332.50005.50005 0 0 0 .02539.0215.50005.50005 0 0 0 .01172.0117.50005.50005 0 0 0 .0039.002.50005.50005 0 0 0 .04102.0293.50005.50005 0 0 0 .353516.0742h12.917968a.50005.50005 0 1 0 0-1h-12.5v-12.5a.50005.50005 0 0 0 -.507906-.50611z" opacity=".6"/><path d="m72.5 165c-.276131.00003-.499972.22387-.5.5v3c.000028.27613.223869.49997.5.5h3c.276131-.00003.499972-.22387.5-.5v-3c-.000028-.27613-.223869-.49997-.5-.5z" fill-rule="evenodd"/></g></g></svg>