<svg height="1600" viewBox="0 0 1600 1600" width="1600" xmlns="http://www.w3.org/2000/svg" xmlns:inkscape="http://www.inkscape.org/namespaces/inkscape" xmlns:sodipodi="http://sodipodi.sourceforge.net/DTD/sodipodi-0.dtd"><sodipodi:namedview pagecolor="#303030" showgrid="true"><inkscape:grid id="grid5" units="px" spacingx="100" spacingy="100" color="#4772b3" opacity="0.2" visible="true" /></sodipodi:namedview><g fill="#fff"><g enable-background="new" transform="matrix(100 0 0 100 -38300 -38799.9624)"><path d="m268.49219 388.99219c-.27614.004-.49651.23167-.49219.50781v2.49609l-2.50586-.004c-.67605-.0108-.67808 1.00811-.002 1l2.50786.004v6.00391h-6.00391l-.004-2.50781c.008-.67608-1.01082-.67405-1 .002l.004 2.50581h-2.49609c-.67616-.01-.67616 1.00956 0 1h2.49609l.004 2.5c-.01.67616 1.00956.67616 1 0l-.004-2.5h6.00391v2.5c-.01.67616 1.00956.67616 1 0v-2.5h2.5c.67616.01.67616-1.00956 0-1h-2.5v-6.00391l2.5.004c.67616.01.67616-1.00956 0-1l-2.5-.004v-2.49609c.004-.28226-.22555-.51223-.50781-.50781z" opacity=".6" transform="translate(126)"/><path d="m385.5 390c-.27613.00003-.49997.22387-.5.5v4c.00003.27613.22387.49997.5.5h4c.27613-.00003.49997-.22387.5-.5v-4c-.00003-.27613-.22387-.49997-.5-.5z" fill-rule="evenodd"/></g></g></svg>