<svg height="1600" viewBox="0 0 1600 1600" width="1600" xmlns="http://www.w3.org/2000/svg" xmlns:inkscape="http://www.inkscape.org/namespaces/inkscape" xmlns:sodipodi="http://sodipodi.sourceforge.net/DTD/sodipodi-0.dtd"><sodipodi:namedview pagecolor="#303030" showgrid="true"><inkscape:grid id="grid5" units="px" spacingx="100" spacingy="100" color="#4772b3" opacity="0.2" visible="true" /></sodipodi:namedview><g fill="#fff"><g enable-background="new" transform="matrix(100 0 0 100 114800.005 -39800)"><path d="m-1148 398h16v16h-16z" opacity="0"/><path d="m-1140.8984 400.01367c-2.0857.12882-4.0362 1.26078-5.1621 3.1211-1.5012 2.48042-1.1755 5.66201.7968 7.78711 1.9724 2.12509 5.1198 2.68733 7.7051 1.375 2.5853-1.31234 3.9907-4.18482 3.4395-7.03126a.50030025.50030025 0 1 0 -.9825.18946c.4673 2.4126-.7188 4.8369-2.9101 5.94922-2.1913 1.11231-4.8478.63909-6.5195-1.16211-1.6718-1.8012-1.9463-4.48748-.6739-6.58985 1.2724-2.10236 3.7774-3.10263 6.1485-2.45703a.50104088.50104088 0 1 0 .2636-.96679c-.6993-.19043-1.4102-.25779-2.1054-.21485z" opacity=".6"/><path d="m144.98047 157.99023a1.0001 1.0001 0 0 0 -.6875.30274l-3.71289 3.71484c-.0265-.001-.0513-.008-.0781-.008-.8224 0-1.5.67765-1.5 1.5s.6776 1.5 1.5 1.5 1.5-.67765 1.5-1.5c0-.0274-.006-.0531-.008-.0801l3.71289-3.71289a1.0001 1.0001 0 0 0 -.72656-1.7168z" transform="translate(-1279 241)"/></g></g></svg>