<svg height="1600" viewBox="0 0 1600 1600" width="1600" xmlns="http://www.w3.org/2000/svg" xmlns:inkscape="http://www.inkscape.org/namespaces/inkscape" xmlns:sodipodi="http://sodipodi.sourceforge.net/DTD/sodipodi-0.dtd"><sodipodi:namedview pagecolor="#303030" showgrid="true"><inkscape:grid id="grid5" units="px" spacingx="100" spacingy="100" color="#4772b3" opacity="0.2" visible="true" /></sodipodi:namedview><g fill="#fff"><g enable-background="new" transform="translate(-233 -365)"><path d="m1028 1556c-3.2833 0-6 2.4414-6 5.5 0 1.7056.9046 3.146 2.1523 4.3594l.9942.9941a.50004997.50004997 0 0 0 .3027.1485.50004997.50004997 0 0 0 .051.998h5a.50004997.50004997 0 0 0 .045-.998.50004997.50004997 0 0 0 .3086-.1485l.9981-.998c1.2122-1.1985 2.1465-2.6518 2.1465-4.3535 0-3.0586-2.7167-5.5-6-5.5zm0 1c2.7919 0 5 2.0358 5 4.5 0 1.3342-.7428 2.5488-1.8516 3.6445l-1 1a.50004997.50004997 0 0 0 .2793.8535h-4.8594a.50004997.50004997 0 0 0 .2871-.8535l-1-1a.50004997.50004997 0 0 0 -.01-.01c-1.1397-1.1082-1.8477-2.2864-1.8477-3.6406 0-2.4642 2.2081-4.5 5-4.5zm-2.5 12a.50004997.50004997 0 1 0 0 1h1.5v.5a.50004997.50004997 0 0 0 .5.5h1a.50004997.50004997 0 0 0 .5-.5v-.5h1.5a.50004997.50004997 0 1 0 0-1z"/><path d="m1025.4902 1561.0059a.50005.50005 0 0 0 -.3437.8476l.8535.8535v1.543a.50005.50005 0 1 0 1 0v-1.25h2v1.25a.50005.50005 0 1 0 1 0v-1.543l.8535-.8535a.50005.50005 0 0 0 -.707-.707l-.8535.8535h-2.586l-.8535-.8535a.50005.50005 0 0 0 -.3633-.1406z" opacity=".6"/></g><g enable-background="new" transform="matrix(100 0 0 100 -11000.3606 -15698.671)"><path d="m114.49219 166.99219a.50005.50005 0 0 0 -.49219.50781v1.5h-2.5a.50005.50005 0 0 0 -.5.5v2a.50005.50005 0 1 0 1 0v-1.5h2.5a.50005.50005 0 0 0 .5-.5v-2a.50005.50005 0 0 0 -.50781-.50781z" opacity=".6"/><path d="m118.89062 157.9668c-1.59478-.0195-3.16997.53887-4.2539 1.6914l-.74024.73828c-.19519.19527-.19519.51177 0 .70704l2 2c.19527.19519.51177.19519.70704 0l.5-.5c.5849-.58491 1.58165-.89809 2.3457-.69336.80156.21477 1.42585.83907 1.64062 1.64062.20473.76404-.10844 1.76078-.69336 2.3457l-.5.5c-.19519.19527-.19519.51177 0 .70704l2 2c.19527.19519.51177.19519.70704 0l.75-.75c2.22378-2.22379 2.21818-6.29752-.0977-8.61329-1.15793-1.15796-2.77045-1.75392-4.36524-1.77343zm-6.14848 3.7832c-.12989.002-.25387.0546-.34571.14648l-1.25 1.25c-.19519.19527-.19519.51177 0 .70704l2 2c.19527.19519.51177.19519.70704 0l1.25-1.25c.19519-.19527.19519-.51177 0-.70704l-2-2c-.0957-.0957-.226-.14854-.36128-.14648zm6.00019 6c-.12989.002-.25387.0546-.34571.14648l-1.25 1.25c-.19519.19527-.19519.51177 0 .70704l2 2c.19527.19519.51177.19519.70704 0l1.25-1.25c.19519-.19527.19519-.51177 0-.70704l-2-2c-.0957-.0957-.22612-.14859-.36147-.14648z"/></g></g></svg>