<svg height="1300" viewBox="0 0 1400 1300" width="1400" xmlns="http://www.w3.org/2000/svg" xmlns:inkscape="http://www.inkscape.org/namespaces/inkscape" xmlns:sodipodi="http://sodipodi.sourceforge.net/DTD/sodipodi-0.dtd"><sodipodi:namedview pagecolor="#303030" showgrid="true"><inkscape:grid id="grid5" units="px" spacingx="100" spacingy="100" color="#4772b3" opacity="0.2" visible="true" /></sodipodi:namedview><g fill="#fff"><g enable-background="new" transform="translate(-233 -365)"><path d="m1028 1556c-3.2833 0-6 2.4414-6 5.5 0 1.7056.9046 3.146 2.1523 4.3594l.9942.9941a.50004997.50004997 0 0 0 .3027.1485.50004997.50004997 0 0 0 .051.998h5a.50004997.50004997 0 0 0 .045-.998.50004997.50004997 0 0 0 .3086-.1485l.9981-.998c1.2122-1.1985 2.1465-2.6518 2.1465-4.3535 0-3.0586-2.7167-5.5-6-5.5zm0 1c2.7919 0 5 2.0358 5 4.5 0 1.3342-.7428 2.5488-1.8516 3.6445l-1 1a.50004997.50004997 0 0 0 .2793.8535h-4.8594a.50004997.50004997 0 0 0 .2871-.8535l-1-1a.50004997.50004997 0 0 0 -.01-.01c-1.1397-1.1082-1.8477-2.2864-1.8477-3.6406 0-2.4642 2.2081-4.5 5-4.5zm-2.5 12a.50004997.50004997 0 1 0 0 1h1.5v.5a.50004997.50004997 0 0 0 .5.5h1a.50004997.50004997 0 0 0 .5-.5v-.5h1.5a.50004997.50004997 0 1 0 0-1z"/><path d="m1025.4902 1561.0059a.50005.50005 0 0 0 -.3437.8476l.8535.8535v1.543a.50005.50005 0 1 0 1 0v-1.25h2v1.25a.50005.50005 0 1 0 1 0v-1.543l.8535-.8535a.50005.50005 0 0 0 -.707-.707l-.8535.8535h-2.586l-.8535-.8535a.50005.50005 0 0 0 -.3633-.1406z" opacity=".6"/></g><path d="m35.511178 431.92599c-.212514-.00041-.402079.13188-.472656.32986l-1.367188 3.31208h-3.394531c-.276131.00003-.499972.2211-.5.49382v.74073c.000422.16796.08724.32419.230469.41473l2.247932 1.70859-.980354 2.63549c-.01909.0526-.029.10807-.0293.16397v.74073c.000028.27272.223869.49379.5.49382h.75c.119713-.00002.235448-.0425.326172-.11959l2.875-1.71681h.128906l2.90625 1.71681c.09174.078.209022.1205.330078.11959l.746094-.006c.273084-.002.49394-.22024.496094-.48996l.0039-.73687c-.000079-.0565-.01-.11266-.0293-.1659l-1.018075-2.61632 2.263556-1.72775c.143229-.0906.230049-.24678.230472-.41474v-.74073c-.000028-.27272-.223869-.49379-.5-.49382h-3.416628l-1.354244-3.31208c-.07058-.19798-.260139-.33026-.472653-.32986h-.251953zm.25 1.28471 1.248775 3.01502c.07058.19797.260142.33026.472656.32985h3.257085l-2.35206 1.7702c-.194539.1237-.277747.36307-.201172.5787l1.121591 2.90374-.002.16203h-.06445l-2.904297-1.71487c-.09071-.0771-.20643-.14272-.326128-.14275h-.5c-.119714.00002-.235448.0656-.326172.14275l-2.875 1.7168h-.06445v-.16203l1.083869-2.92484c.07658-.21563-.0066-.455-.201172-.5787l-2.345588-1.75103h3.244138c.212514.00041.402079-.13188.472656-.32985z" transform="matrix(100 0 0 100 -2876.575 -43092.903)"/></g></svg>