<svg height="1300" viewBox="0 0 1400 1300" width="1400" xmlns="http://www.w3.org/2000/svg" xmlns:inkscape="http://www.inkscape.org/namespaces/inkscape" xmlns:sodipodi="http://sodipodi.sourceforge.net/DTD/sodipodi-0.dtd"><sodipodi:namedview pagecolor="#303030" showgrid="true"><inkscape:grid id="grid5" units="px" spacingx="100" spacingy="100" color="#4772b3" opacity="0.2" visible="true" /></sodipodi:namedview><g fill="#fff"><path d="m35.511178 431.92599c-.212514-.00041-.402079.13188-.472656.32986l-1.367188 3.31208h-3.394531c-.276131.00003-.499972.2211-.5.49382v.74073c.000422.16796.08724.32419.230469.41473l2.247932 1.70859-.980354 2.63549c-.01909.0526-.029.10807-.0293.16397v.74073c.000028.27272.223869.49379.5.49382h.75c.119713-.00002.235448-.0425.326172-.11959l2.875-1.71681h.128906l2.90625 1.71681c.09174.078.209022.1205.330078.11959l.746094-.006c.273084-.002.49394-.22024.496094-.48996l.0039-.73687c-.000079-.0565-.01-.11266-.0293-.1659l-1.018075-2.61632 2.263556-1.72775c.143229-.0906.230049-.24678.230472-.41474v-.74073c-.000028-.27272-.223869-.49379-.5-.49382h-3.416628l-1.354244-3.31208c-.07058-.19798-.260139-.33026-.472653-.32986h-.251953zm.25 1.28471 1.248775 3.01502c.07058.19797.260142.33026.472656.32985h3.257085l-2.35206 1.7702c-.194539.1237-.277747.36307-.201172.5787l1.121591 2.90374-.002.16203h-.06445l-2.904297-1.71487c-.09071-.0771-.20643-.14272-.326128-.14275h-.5c-.119714.00002-.235448.0656-.326172.14275l-2.875 1.7168h-.06445v-.16203l1.083869-2.92484c.07658-.21563-.0066-.455-.201172-.5787l-2.345588-1.75103h3.244138c.212514.00041.402079-.13188.472656-.32985z" transform="matrix(100 0 0 100 -2876.575 -43092.903)"/></g></svg>