<svg height="1300" viewBox="0 0 1400 1300" width="1400" xmlns="http://www.w3.org/2000/svg" xmlns:inkscape="http://www.inkscape.org/namespaces/inkscape" xmlns:sodipodi="http://sodipodi.sourceforge.net/DTD/sodipodi-0.dtd"><sodipodi:namedview pagecolor="#303030" showgrid="true"><inkscape:grid id="grid5" units="px" spacingx="100" spacingy="100" color="#4772b3" opacity="0.2" visible="true" /></sodipodi:namedview><g fill="#fff"><path d="m35.526801 431.94824c-.212514-.00042-.402079.13058-.472656.3266l-1.345551 3.30952h-3.437424c-.276131.00003-.499972.21892-.5.48895v.73342c.000422.16629.08724.32097.230469.41063l2.21584 1.71115-.925245 2.62435c-.01909.0521-.029.107-.0293.16235v.73341c.000028.27002.223869.48891.5.48894h.75c.119715-.00002.235448-.0421.326172-.11841l2.873242-1.77803h.128906l2.873239 1.77803c.09174.0772.209022.11931.330078.11841l.746094-.006c.273087-.002.49394-.21807.496094-.48511l.0039-.7296c-.000079-.0559-.01-.11155-.0293-.16426l-.925245-2.62435 2.193743-1.71115c.143229-.0897.230049-.24433.230472-.41063v-.73342c-.000028-.27002-.223869-.48891-.5-.48894h-3.39323l-1.367648-3.30953c-.07058-.19602-.260142-.32701-.472656-.3266h-.251953z" transform="matrix(100 0 0 100 -2876.575 -43092.903)"/></g></svg>