<svg height="1300" viewBox="0 0 1400 1300" width="1400" xmlns="http://www.w3.org/2000/svg" xmlns:inkscape="http://www.inkscape.org/namespaces/inkscape" xmlns:sodipodi="http://sodipodi.sourceforge.net/DTD/sodipodi-0.dtd"><sodipodi:namedview pagecolor="#303030" showgrid="true"><inkscape:grid id="grid5" units="px" spacingx="100" spacingy="100" color="#4772b3" opacity="0.2" visible="true" /></sodipodi:namedview><g fill="#fff"><g enable-background="new" transform="translate(-233 -365)"><path d="m1028 1556c-3.2833 0-6 2.4414-6 5.5 0 1.7056.9046 3.146 2.1523 4.3594l.9942.9941a.50004997.50004997 0 0 0 .3027.1485.50004997.50004997 0 0 0 .051.998h5a.50004997.50004997 0 0 0 .045-.998.50004997.50004997 0 0 0 .3086-.1485l.9981-.998c1.2122-1.1985 2.1465-2.6518 2.1465-4.3535 0-3.0586-2.7167-5.5-6-5.5zm0 1c2.7919 0 5 2.0358 5 4.5 0 1.3342-.7428 2.5488-1.8516 3.6445l-1 1a.50004997.50004997 0 0 0 .2793.8535h-4.8594a.50004997.50004997 0 0 0 .2871-.8535l-1-1a.50004997.50004997 0 0 0 -.01-.01c-1.1397-1.1082-1.8477-2.2864-1.8477-3.6406 0-2.4642 2.2081-4.5 5-4.5zm-2.5 12a.50004997.50004997 0 1 0 0 1h1.5v.5a.50004997.50004997 0 0 0 .5.5h1a.50004997.50004997 0 0 0 .5-.5v-.5h1.5a.50004997.50004997 0 1 0 0-1z"/><path d="m1025.4902 1561.0059a.50005.50005 0 0 0 -.3437.8476l.8535.8535v1.543a.50005.50005 0 1 0 1 0v-1.25h2v1.25a.50005.50005 0 1 0 1 0v-1.543l.8535-.8535a.50005.50005 0 0 0 -.707-.707l-.8535.8535h-2.586l-.8535-.8535a.50005.50005 0 0 0 -.3633-.1406z" opacity=".6"/></g><path d="m35.526801 431.94824c-.212514-.00042-.402079.13058-.472656.3266l-1.345551 3.30952h-3.437424c-.276131.00003-.499972.21892-.5.48895v.73342c.000422.16629.08724.32097.230469.41063l2.21584 1.71115-.925245 2.62435c-.01909.0521-.029.107-.0293.16235v.73341c.000028.27002.223869.48891.5.48894h.75c.119715-.00002.235448-.0421.326172-.11841l2.873242-1.77803h.128906l2.873239 1.77803c.09174.0772.209022.11931.330078.11841l.746094-.006c.273087-.002.49394-.21807.496094-.48511l.0039-.7296c-.000079-.0559-.01-.11155-.0293-.16426l-.925245-2.62435 2.193743-1.71115c.143229-.0897.230049-.24433.230472-.41063v-.73342c-.000028-.27002-.223869-.48891-.5-.48894h-3.39323l-1.367648-3.30953c-.07058-.19602-.260142-.32701-.472656-.3266h-.251953z" transform="matrix(100 0 0 100 -2876.575 -43092.903)"/></g></svg>