<svg height="1600" viewBox="0 0 1300 1600" width="1300" xmlns="http://www.w3.org/2000/svg" xmlns:inkscape="http://www.inkscape.org/namespaces/inkscape" xmlns:sodipodi="http://sodipodi.sourceforge.net/DTD/sodipodi-0.dtd"><sodipodi:namedview pagecolor="#303030" showgrid="true"><inkscape:grid id="grid5" units="px" spacingx="100" spacingy="100" color="#4772b3" opacity="0.2" visible="true" /></sodipodi:namedview><g fill="#fff"><path d="m50.494141 73.992188a.50004997.50004997 0 0 0 -.076172.007812h-.917969a.50004997.50004997 0 1 0 0 1h.5v1.125c0 1.632015.971328 2.853007 2.201172 3.775391l.798828.599609v.5.5l-.798828.599609c-1.229846.922382-2.201172 2.143383-2.201172 3.775391v1.125h-.5a.50004997.50004997 0 1 0 0 1h.921875a.50004997.50004997 0 0 0 .160156 0h7.837891a.50004997.50004997 0 0 0 .162109 0h.917969a.50004997.50004997 0 1 0 0-1h-.5v-1.125c0-1.632008-.969373-2.853009-2.199219-3.775391l-.800781-.599609v-.464844a.50004997.50004997 0 0 0 0-.035156v-.5l.800781-.599609c1.229844-.922384 2.199219-2.143376 2.199219-3.775391v-1.125h.5a.50004997.50004997 0 1 0 0-1h-.919922a.50004997.50004997 0 0 0 -.162109 0h-7.835938a.50004997.50004997 0 0 0 -.08789-.0078zm.505859 1.007812h7v1.125c0 1.245243-.698245 2.147707-1.800781 2.974609l-1 .75a.50004997.50004997 0 0 0 -.199219.400391v.714844.035156.75a.50004997.50004997 0 0 0 .199219.400391l1 .75c1.101932.826447 1.800019 1.728478 1.800781 2.972656v1.126953h-7v-1.125-.002c.000762-1.244178.698849-2.146209 1.800781-2.972656l1-.75a.50004997.50004997 0 0 0 .199219-.400344v-.714844a.50004997.50004997 0 0 0 0-.035156v-.75a.50004997.50004997 0 0 0 -.199219-.400391l-1-.75c-1.101934-.826451-1.800019-1.728468-1.800781-2.972656v-.002z" transform="matrix(100 0 0 100 -4800 -7299.94)"/></g></svg>