<svg height="1400" viewBox="0 0 1600 1400" width="1600" xmlns="http://www.w3.org/2000/svg" xmlns:inkscape="http://www.inkscape.org/namespaces/inkscape" xmlns:sodipodi="http://sodipodi.sourceforge.net/DTD/sodipodi-0.dtd"><sodipodi:namedview pagecolor="#303030" showgrid="true"><inkscape:grid id="grid5" units="px" spacingx="100" spacingy="100" color="#4772b3" opacity="0.2" visible="true" /></sodipodi:namedview><g fill="#fff"><g enable-background="new" transform="translate(-233 -365)"><path d="m1028 1556c-3.2833 0-6 2.4414-6 5.5 0 1.7056.9046 3.146 2.1523 4.3594l.9942.9941a.50004997.50004997 0 0 0 .3027.1485.50004997.50004997 0 0 0 .051.998h5a.50004997.50004997 0 0 0 .045-.998.50004997.50004997 0 0 0 .3086-.1485l.9981-.998c1.2122-1.1985 2.1465-2.6518 2.1465-4.3535 0-3.0586-2.7167-5.5-6-5.5zm0 1c2.7919 0 5 2.0358 5 4.5 0 1.3342-.7428 2.5488-1.8516 3.6445l-1 1a.50004997.50004997 0 0 0 .2793.8535h-4.8594a.50004997.50004997 0 0 0 .2871-.8535l-1-1a.50004997.50004997 0 0 0 -.01-.01c-1.1397-1.1082-1.8477-2.2864-1.8477-3.6406 0-2.4642 2.2081-4.5 5-4.5zm-2.5 12a.50004997.50004997 0 1 0 0 1h1.5v.5a.50004997.50004997 0 0 0 .5.5h1a.50004997.50004997 0 0 0 .5-.5v-.5h1.5a.50004997.50004997 0 1 0 0-1z"/><path d="m1025.4902 1561.0059a.50005.50005 0 0 0 -.3437.8476l.8535.8535v1.543a.50005.50005 0 1 0 1 0v-1.25h2v1.25a.50005.50005 0 1 0 1 0v-1.543l.8535-.8535a.50005.50005 0 0 0 -.707-.707l-.8535.8535h-2.586l-.8535-.8535a.50005.50005 0 0 0 -.3633-.1406z" opacity=".6"/></g><g enable-background="new" transform="matrix(100 0 0 100 -500.3527 -7400.003)"><path d="m9.25 75c-.2186269.000408-.4116423.142796-.4765625.351562l-2.75 7.820313c-.0152451.048016-.0231468.09806-.0234375.148437v.173829c-.00956.676161 1.0095626.676161 1 0v-.09766l.7460938-2.396481c.0013.000005.0026.000005.00391 0h3.5000002c.0013.000005.0026.000005.0039 0l.746096 2.396484v.09766c-.0096.676161 1.009563.676161 1 0v-.173829c-.000291-.05038-.0082-.100421-.02344-.148437l-2.75-7.820313c-.064919-.208766-.2579332-.351156-.47656-.351565zm.25 1.375 1.441406 3.625h-2.8828122z"/><path d="m14.5 79c-.676161-.0096-.676161 1.009563 0 1h4.5v.08008l-4.896484 5.365234c-.067134.087382-.103524.194493-.103516.304686v.75c.000028.276131.223869.499972.5.5h5c.676161.0096.676161-1.009563 0-1h-4.5v-.08008l4.896484-5.365234c.067134-.087382.103524-.194493.103516-.304686v-.75c-.000028-.276131-.223869-.499972-.5-.5z"/></g></g></svg>