<svg height="1400" viewBox="0 0 1600 1400" width="1600" xmlns="http://www.w3.org/2000/svg" xmlns:inkscape="http://www.inkscape.org/namespaces/inkscape" xmlns:sodipodi="http://sodipodi.sourceforge.net/DTD/sodipodi-0.dtd"><sodipodi:namedview pagecolor="#303030" showgrid="true"><inkscape:grid id="grid5" units="px" spacingx="100" spacingy="100" color="#4772b3" opacity="0.2" visible="true" /></sodipodi:namedview><g fill="#fff"><g enable-background="new" transform="matrix(100 0 0 100 -500.3527 -7400.003)"><path d="m9.25 75c-.2186269.000408-.4116423.142796-.4765625.351562l-2.75 7.820313c-.0152451.048016-.0231468.09806-.0234375.148437v.173829c-.00956.676161 1.0095626.676161 1 0v-.09766l.7460938-2.396481c.0013.000005.0026.000005.00391 0h3.5000002c.0013.000005.0026.000005.0039 0l.746096 2.396484v.09766c-.0096.676161 1.009563.676161 1 0v-.173829c-.000291-.05038-.0082-.100421-.02344-.148437l-2.75-7.820313c-.064919-.208766-.2579332-.351156-.47656-.351565zm.25 1.375 1.441406 3.625h-2.8828122z"/><path d="m14.5 79c-.676161-.0096-.676161 1.009563 0 1h4.5v.08008l-4.896484 5.365234c-.067134.087382-.103524.194493-.103516.304686v.75c.000028.276131.223869.499972.5.5h5c.676161.0096.676161-1.009563 0-1h-4.5v-.08008l4.896484-5.365234c.067134-.087382.103524-.194493.103516-.304686v-.75c-.000028-.276131-.223869-.499972-.5-.5z"/></g></g></svg>