<svg height="1600" viewBox="0 0 1300 1600" width="1300" xmlns="http://www.w3.org/2000/svg" xmlns:inkscape="http://www.inkscape.org/namespaces/inkscape" xmlns:sodipodi="http://sodipodi.sourceforge.net/DTD/sodipodi-0.dtd"><sodipodi:namedview pagecolor="#303030" showgrid="true"><inkscape:grid id="grid5" units="px" spacingx="100" spacingy="100" color="#4772b3" opacity="0.2" visible="true" /></sodipodi:namedview><g fill="#fff"><path d="m49.999995 74.995042v.000039 1.12992c0 1.632011.97133 2.853008 2.201172 3.77539l.798828.59961v.5.5l-.798828.599609c-1.229844.92238-2.201172 2.143385-2.201172 3.775391v1.12008h1v-1.120078-.002c.000762-1.244176.698853-2.146212 1.800781-2.972657l1-.75c.125699-.09467.199504-.242991.199219-.400351v-.714844c.000412-.01171.000412-.02346 0-.03518v-.75c.0003-.157377-.07351-.305713-.199219-.40039l-1-.75c-1.10193-.826446-1.800019-1.728471-1.800781-2.972657v-.002-1.131597c-.445129-.0045-.812839.0017-1 .0017zm8-.0024v1.13238c0 1.245239-.698247 2.147709-1.800781 2.974609l-1 .75c-.125713.09468-.199519.243014-.199219.400391v.714843.03516.75c-.0003.157377.07351.305712.199219.40039l1 .75c1.10193.826447 1.800019 1.728481 1.800781 2.972657v1.122033h1v-1.12008c0-1.632006-.969375-2.853011-2.199219-3.775391l-.800781-.59963v-.464844c.000412-.01171.000412-.02344 0-.03516v-.5l.800781-.59961c1.229842-.922378 2.199219-2.143379 2.199219-3.77539v-1.13238z" opacity=".7" transform="matrix(100 0 0 100 -4800.021725 -7299.223717)"/><path d="m49.63916 86.742542c-.676158-.0096-.676158 1.00956 0 1h10c.676158.0096.676158-1.00956 0-1zm.0037-12.997714c-.676158-.0096-.676158 1.00956 0 1h10c.676158.0096.676158-1.00956 0-1z" transform="matrix(100 0 0 100 -4813.014959 -7274.190037)"/></g></svg>