<svg height="1400" viewBox="0 0 1600 1400" width="1600" xmlns="http://www.w3.org/2000/svg" xmlns:inkscape="http://www.inkscape.org/namespaces/inkscape" xmlns:sodipodi="http://sodipodi.sourceforge.net/DTD/sodipodi-0.dtd"><sodipodi:namedview pagecolor="#303030" showgrid="true"><inkscape:grid id="grid5" units="px" spacingx="100" spacingy="100" color="#4772b3" opacity="0.2" visible="true" /></sodipodi:namedview><g fill="#fff"><path d="m31.786931 440.92911c-.8225 0-1.5.67749-1.5 1.5s.6775 1.5 1.5 1.5 1.5-.67749 1.5-1.5-.6775-1.5-1.5-1.5zm4.013247-8.97046c-.379073.0167-.602206.43289-.40625.75781l1.998047 3.20033h-3.61244c-.676158-.01-.676158 1.00956 0 1h3.61244l-2.044081 3.21512c-.365869.58313.535437 1.10923.863282.5039l2.051893-3.22683 2.051893 3.20474c.327845.60532 1.229151.0792.863282-.50391l-2.044081-3.19302h3.603287c.676159.01.676159-1.00956 0-1h-3.603287l2.044081-3.21511c.365869-.58313-.535437-1.10924-.863282-.50391l-2.051893 3.22683-2.005859-3.21204c-.09244-.16388-.269052-.262-.457032-.25391z" transform="matrix(100 0 0 100 -2876.575 -43092.903)"/></g></svg>