<svg height="1600" viewBox="0 0 1600 1600" width="1600" xmlns="http://www.w3.org/2000/svg" xmlns:inkscape="http://www.inkscape.org/namespaces/inkscape" xmlns:sodipodi="http://sodipodi.sourceforge.net/DTD/sodipodi-0.dtd"><sodipodi:namedview pagecolor="#303030" showgrid="true"><inkscape:grid id="grid5" units="px" spacingx="100" spacingy="100" color="#4772b3" opacity="0.2" visible="true" /></sodipodi:namedview><g fill="#fff"><g enable-background="new" transform="matrix(100 0 0 100 -27799.98 -51399.6841)"><path d="m290 517h2.5c.27613-.00003.49997-.22387.5-.5v-1c-.00003-.27613-.22387-.49997-.5-.5h-2.91992c-.029-.005-.0584-.008-.0879-.008-.27614.004-.49651.23167-.49219.50781v1 5.64062c-.56586-.20756-1.28645-.18129-1.98242.0723-1.35506.4963-2.23747 1.69879-1.9707 2.68555.26595.98712 1.58042 1.38505 2.93554.88867 1.22872-.45129 2.01759-1.35494 2.01758-2.53711z" opacity=".99"/><path d="m283.51562 517a.50005.50005 0 0 0 -.22656.0566c-1.99745 1.00305-3.4683 2.88412-4.03515 5.13477-.56686 2.25064-.17629 4.64784 1.07421 6.56836a.50005.50005 0 1 0 .8379-.54493c-1.09418-1.68042-1.44042-3.798-.94141-5.77929.49902-1.9813 1.78869-3.62011 3.51367-4.48633a.50005.50005 0 0 0 -.22266-.94918zm.98243 3a.50005.50005 0 0 0 -.26758.082c-1.21391.77866-2.01457 2.12204-2.19336 3.63086-.17879 1.50883.2812 3.02564 1.26367 4.11719a.50005.50005 0 1 0 .74219-.66992c-.77619-.86237-1.15757-2.0993-1.01172-3.33008.14584-1.23079.79828-2.30329 1.73828-2.90625a.50005.50005 0 0 0 -.27148-.9238z" opacity=".7"/></g></g></svg>