<svg height="1100" viewBox="0 0 1600 1100" width="1600" xmlns="http://www.w3.org/2000/svg" xmlns:inkscape="http://www.inkscape.org/namespaces/inkscape" xmlns:sodipodi="http://sodipodi.sourceforge.net/DTD/sodipodi-0.dtd"><sodipodi:namedview pagecolor="#303030" showgrid="true"><inkscape:grid id="grid5" units="px" spacingx="100" spacingy="100" color="#4772b3" opacity="0.2" visible="true" /></sodipodi:namedview><g fill="#fff"><path d="m23.460938 40.029297a.51780782.51780782 0 0 1 -.492188-.542969l.03125-.878906v-.0039c.0063-2.697355 1.432558-5.191614 3.748047-6.542969 2.32064-1.354362 5.185219-1.354362 7.505859 0s3.748047 3.85629 3.748047 6.560547v.882812a.51780782.51780782 0 1 1 -1.035156 0v-.882812c0-2.339918-1.23548-4.49829-3.236328-5.666016-2.000849-1.167726-4.460089-1.167727-6.460938 0-2.000848 1.167726-3.234375 3.326098-3.234375 5.666016a.51780782.51780782 0 0 1 -.002.01758l-.0293.882812a.51780782.51780782 0 0 1 -.542968.507813z" transform="matrix(93.0364 0 0 100.239 -2036.2282 -3012.591)"/></g></svg>