<svg height="1600" viewBox="0 0 1600 1600" width="1600" xmlns="http://www.w3.org/2000/svg" xmlns:inkscape="http://www.inkscape.org/namespaces/inkscape" xmlns:sodipodi="http://sodipodi.sourceforge.net/DTD/sodipodi-0.dtd"><sodipodi:namedview pagecolor="#303030" showgrid="true"><inkscape:grid id="grid5" units="px" spacingx="100" spacingy="100" color="#4772b3" opacity="0.2" visible="true" /></sodipodi:namedview><g fill="#fff"><g enable-background="new" transform="translate(-233 -365)"><path d="m1028 1556c-3.2833 0-6 2.4414-6 5.5 0 1.7056.9046 3.146 2.1523 4.3594l.9942.9941a.50004997.50004997 0 0 0 .3027.1485.50004997.50004997 0 0 0 .051.998h5a.50004997.50004997 0 0 0 .045-.998.50004997.50004997 0 0 0 .3086-.1485l.9981-.998c1.2122-1.1985 2.1465-2.6518 2.1465-4.3535 0-3.0586-2.7167-5.5-6-5.5zm0 1c2.7919 0 5 2.0358 5 4.5 0 1.3342-.7428 2.5488-1.8516 3.6445l-1 1a.50004997.50004997 0 0 0 .2793.8535h-4.8594a.50004997.50004997 0 0 0 .2871-.8535l-1-1a.50004997.50004997 0 0 0 -.01-.01c-1.1397-1.1082-1.8477-2.2864-1.8477-3.6406 0-2.4642 2.2081-4.5 5-4.5zm-2.5 12a.50004997.50004997 0 1 0 0 1h1.5v.5a.50004997.50004997 0 0 0 .5.5h1a.50004997.50004997 0 0 0 .5-.5v-.5h1.5a.50004997.50004997 0 1 0 0-1z"/><path d="m1025.4902 1561.0059a.50005.50005 0 0 0 -.3437.8476l.8535.8535v1.543a.50005.50005 0 1 0 1 0v-1.25h2v1.25a.50005.50005 0 1 0 1 0v-1.543l.8535-.8535a.50005.50005 0 0 0 -.707-.707l-.8535.8535h-2.586l-.8535-.8535a.50005.50005 0 0 0 -.3633-.1406z" opacity=".6"/></g><g enable-background="new" fill-rule="evenodd" transform="matrix(100 0 0 100 -71000 9000)"><path d="m391 389c-3.83836-.00001-6.96097 3.10534-6.99609 6.93555a.50005.50005 0 0 0 -.00391.06445c0 3.86012 3.13988 7.00001 7 7 .0171 0 .0337-.002.0508-.002a.50005.50005 0 0 0 .01-.002c3.83176-.03292 6.9392-3.15632 6.9392-6.996 0-.0171-.002-.0337-.002-.0508a.50005.50005 0 0 0 -.002-.01c-.0328-3.81095-3.12289-6.90166-6.93359-6.93554a.50005.50005 0 0 0 -.06241-.00366zm0 1c3.31968 0 6 2.68032 6 6 0 .16955-.0858.36541-.34766.60352-.26184.2381-.68795.48634-1.23632.69726-1.09676.42184-2.67304.69922-4.41602.69922-.65939 0-1.28221-.0509-1.87695-.12305-.0722-.59474-.12305-1.21756-.12305-1.87695 0-1.74298.27738-3.31926.69922-4.41602.21092-.54837.45916-.97448.69726-1.23632.23811-.26185.43397-.34766.60352-.34766zm-1.76367.26367c-.17337.28719-.33274.60224-.47071.96094-.48301 1.25582-.76562 2.92847-.76562 4.77539 0 .59486.0379 1.16229.0937 1.71289-.55897-.113-1.07951-.24662-1.50977-.41211-.54837-.21092-.97448-.45916-1.23632-.69726-.2618-.23811-.34761-.43397-.34761-.60352 0-2.70567 1.78034-4.98512 4.23633-5.73633zm-3.97266 7.5c.28719.17337.60224.33274.96094.47071.58524.22509 1.26802.40153 2.00977.53124.12972.74174.30616 1.42453.53124 2.00977.13797.3587.29734.67375.47071.96094-1.89863-.58074-3.39192-2.07402-3.97266-3.97266zm11.47266 0c-.75122 2.45599-3.03067 4.23633-5.73633 4.23633-.16955 0-.36541-.0858-.60352-.34766-.2381-.26184-.48634-.68795-.69726-1.23632-.16549-.43026-.29911-.9508-.41211-1.50977.5506.0559 1.11803.0937 1.71289.0937 1.84692 0 3.51957-.28262 4.77539-.76562.3587-.13797.67375-.29734.96094-.47071z" transform="translate(327 -478)"/><path d="m391 330c-1.84692 0-3.51957.28261-4.77539.76562-.62791.24151-1.15478.53052-1.55078.89063s-.67383.82292-.67383 1.34375a.50005.50005 0 1 0 1 0c0-.16955.0858-.36541.34766-.60352.26184-.2381.68795-.48634 1.23632-.69726 1.09676-.42184 2.67304-.69922 4.41602-.69922s3.31926.27738 4.41602.69922c.54837.21092.97448.45916 1.23632.69726.26185.23811.34766.43397.34766.60352a.50005.50005 0 1 0 1 0c0-.52083-.27783-.98364-.67383-1.34375s-.92287-.64912-1.55078-.89063c-1.25582-.48301-2.92847-.76562-4.77539-.76562z" opacity=".5" transform="translate(327 -415)"/></g></g></svg>