<svg height="1600" viewBox="0 0 1800 1600" width="1800" xmlns="http://www.w3.org/2000/svg" xmlns:inkscape="http://www.inkscape.org/namespaces/inkscape" xmlns:sodipodi="http://sodipodi.sourceforge.net/DTD/sodipodi-0.dtd"><sodipodi:namedview pagecolor="#303030" showgrid="true"><inkscape:grid id="grid5" units="px" spacingx="100" spacingy="100" color="#4772b3" opacity="0.2" visible="true" /></sodipodi:namedview><g fill="#fff"><g enable-background="new" transform="matrix(100 0 0 100 -179500.005 -34700)"><path d="m1796.5 348a.50005.50005 0 0 0 -.5.5v5.5h1v-5h2v-1zm7.5 0v1h7v5h1v-5.5a.50005.50005 0 0 0 -.5-.5zm-8 11v2.5a.50005.50005 0 0 0 .5.5h2.5v-1h-2v-2zm15 0v2h-7v1h7.5a.50005.50005 0 0 0 .5-.5v-2.5z" opacity=".7"/><path d="m1800 348h3v14h-3zm-4 7h16v3h-16z"/></g></g></svg>