<?xml version="1.0" encoding="UTF-8" standalone="no"?>
<svg
   id="svg2"
   height="1600"
   viewBox="0 0 1600 1600"
   width="1600"
   version="1.1"
   xmlns="http://www.w3.org/2000/svg"
   xmlns:svg="http://www.w3.org/2000/svg">
  <defs
     id="defs1" />
  <g
     id="g1">
    <path
       id="path1"
       style="fill:#ffffff;fill-rule:evenodd;stroke-width:32.432"
       d="M 470.00953 -223.07358 A 32.297236 32.297236 0 0 0 445.28944 -223.07329 L 118.00073 -87.505871 A 32.297235 32.297235 0 0 0 100.52079 -70.026334 L -35.046972 257.26319 A 32.297236 32.297236 0 0 0 -35.046687 281.98327 L 100.52073 609.27199 A 32.297235 32.297235 0 0 0 118.00027 626.75193 L 445.28979 762.31969 A 32.297236 32.297236 0 0 0 470.00988 762.3194 L 797.29859 626.75198 A 32.297236 32.297236 0 0 0 814.77853 609.27245 L 950.34629 281.98292 A 32.297236 32.297236 0 0 0 950.34601 257.26284 L 814.77859 -70.025873 A 32.297235 32.297235 0 0 0 797.29905 -87.505815 L 470.00953 -223.07358 z M 470.00984 -151.95684 L 747.0117 -37.21891 A 32.297235 32.297235 0 0 1 764.49124 -19.738969 L 879.22927 257.26315 A 32.297235 32.297235 0 0 1 879.22955 281.98324 L 764.49163 558.98509 A 32.297236 32.297236 0 0 1 747.01168 576.46463 L 470.00956 691.20266 A 32.297236 32.297236 0 0 1 445.28948 691.20295 L 168.28762 576.46502 A 32.297235 32.297235 0 0 1 150.80808 558.98508 L 36.070052 281.98296 A 32.297235 32.297235 0 0 1 36.069766 257.26287 L 150.80769 -19.738982 A 32.297235 32.297235 0 0 1 168.28764 -37.21852 L 445.28976 -151.95655 A 32.297236 32.297236 0 0 1 470.00984 -151.95684 z M 382.19415 24.711566 C 374.38282 21.476007 365.33079 21.238214 356.86253 24.753011 C 339.92601 31.782602 331.93073 51.084916 338.93598 68.031513 L 414.80503 251.56787 L 231.00381 327.85503 C 214.06728 334.88465 206.072 354.18696 213.07727 371.13353 C 220.08252 388.08016 239.35758 396.06415 256.29412 389.03454 L 440.09415 312.74689 L 515.96389 496.28492 C 522.96913 513.23155 542.24297 521.21503 559.17956 514.18544 C 576.11606 507.15588 584.11134 487.85356 577.1061 470.90694 L 501.23755 287.36939 L 684.29265 211.39129 C 701.22922 204.36172 709.22401 185.06059 702.2187 168.11397 C 695.21351 151.16739 675.93961 143.18388 659.00303 150.21346 L 475.94675 226.19107 L 400.07819 42.653527 C 396.57556 34.180224 390.00548 27.947125 382.19415 24.711566 z "
       transform="matrix(1.4061413,-0.58244281,0.58244281,1.4061413,-0.56009876,687.42664)" />
  </g>
</svg>
