<svg height="1600" viewBox="0 0 1600 1600" width="1600" xmlns="http://www.w3.org/2000/svg" xmlns:inkscape="http://www.inkscape.org/namespaces/inkscape" xmlns:sodipodi="http://sodipodi.sourceforge.net/DTD/sodipodi-0.dtd"><sodipodi:namedview pagecolor="#303030" showgrid="true"><inkscape:grid id="grid5" units="px" spacingx="100" spacingy="100" color="#4772b3" opacity="0.2" visible="true" /></sodipodi:namedview><g fill="#fff"><g enable-background="new" transform="matrix(-100 0 0 -100 56200.001 66499.99900000001)"><path d="m7 654v8c0 .54532.45468 1 1 1h12c.54532 0 1-.45468 1-1v-8h-1v8h-12v-8z" opacity=".6" transform="translate(540 1)"/><path d="m27 680v3c0 .54532.45468 1 1 1h12c.54532 0 1-.45468 1-1v-3h-1-12zm1 1h2v2h-2z" transform="matrix(1 0 0 -1 520 1334)"/></g></g></svg>