<?xml version="1.0" encoding="UTF-8" standalone="no"?>
<svg
   id="svg2"
   height="1600"
   viewBox="0 0 1600 1600"
   width="1600"
   version="1.1"
   xmlns="http://www.w3.org/2000/svg"
   xmlns:svg="http://www.w3.org/2000/svg">
  <defs
     id="defs1" />
  <g
     id="blender_warning"
     fill="#fff">
    <path
       id="path1"
       style="fill-opacity:1;fill-rule:evenodd;stroke-width:24.324"
       d="M 801.17188 100 C 732.17728 99.6 668.59931 138.51331 637.69531 200.19531 L 118.94531 1237.3047 C 59.520518 1356.0537 148.25469 1499.928 281.05469 1500 L 1318.9453 1500 C 1451.6718 1499.928 1540.2826 1356.212 1481.0547 1237.5 L 962.30469 200.19531 C 931.77429 139.25831 869.33277 100.46 801.17188 100 z M 800.57031 200 L 800.57031 200.00195 C 832.94946 200.23596 862.63518 218.69996 877.11133 247.58398 C 877.11331 247.58696 877.11521 247.58979 877.11719 247.59375 L 1391.082 1275.3301 C 1419.6278 1332.5658 1378.1197 1399.9653 1314.1699 1400 L 285.82812 1400 C 221.83819 1399.9653 180.22626 1332.4697 208.87305 1275.2246 L 208.87695 1275.2148 L 722.88281 247.59375 C 737.52574 218.3676 767.7588 199.8284 800.57031 200 z M 786.56836 600 C 766.30928 600 750 616.30928 750 636.56836 L 750 963.43164 C 750 983.69072 766.30928 1000 786.56836 1000 L 813.43164 1000 C 833.69072 1000 850 983.69072 850 963.43164 L 850 636.56836 C 850 616.30928 833.69072 600 813.43164 600 L 786.56836 600 z M 800 1100 C 758.57864 1100 725 1133.5787 725 1175 C 725 1216.4214 758.57864 1250 800 1250 C 841.42134 1250 875 1216.4214 875 1175 C 875 1133.5787 841.42134 1100 800 1100 z " />
  </g>
</svg>
