<?xml version="1.0" encoding="UTF-8" standalone="no"?>
<svg
   height="1600"
   viewBox="0 0 1600 1600"
   width="1600"
   version="1.1"
   id="svg1"
   xmlns="http://www.w3.org/2000/svg"
   xmlns:svg="http://www.w3.org/2000/svg">
  <defs
     id="defs1" />
  <g
     fill="#ffffff"
     id="g1">
    <path
       id="path4"
       style="fill:#ffffff;fill-rule:evenodd;stroke-width:188.989;fill-opacity:1"
       d="M 800.04883 99.902344 A 700.04901 700.04901 0 0 0 100 799.95117 A 700.04901 700.04901 0 0 0 800.04883 1500 A 700.04901 700.04901 0 0 0 1500.0977 799.95117 A 700.04901 700.04901 0 0 0 800.04883 99.902344 z M 800 400 C 855.22847 400 900 444.77153 900 500 C 900 555.22847 855.22847 600 800 600 C 744.77153 600 700 555.22847 700 500 C 700 444.77153 744.77153 400 800 400 z M 636.56836 700 L 863.43164 700 C 883.69072 700 900 716.30928 900 736.56836 L 900 763.43164 L 900 1100 L 963.43164 1100 C 983.69072 1100 1000 1116.3093 1000 1136.5684 L 1000 1163.4316 C 1000 1183.6907 983.69072 1200 963.43164 1200 L 636.56836 1200 C 616.30928 1200 600 1183.6907 600 1163.4316 L 600 1136.5684 C 600 1116.3093 616.30928 1100 636.56836 1100 L 700 1100 L 700 800 L 636.56836 800 C 616.30928 800 600 783.69072 600 763.43164 L 600 736.56836 C 600 716.30928 616.30928 700 636.56836 700 z " />
  </g>
</svg>
