<?xml version="1.0" encoding="UTF-8" standalone="no"?>
<svg
   id="svg2"
   height="1600"
   viewBox="0 0 1600 1600"
   width="1600"
   version="1.1"
   sodipodi:docname="error_filled.svg"
   inkscape:version="1.4.3 (0d15f75, 2025-12-25)"
   xmlns:inkscape="http://www.inkscape.org/namespaces/inkscape"
   xmlns:sodipodi="http://sodipodi.sourceforge.net/DTD/sodipodi-0.dtd"
   xmlns="http://www.w3.org/2000/svg"
   xmlns:svg="http://www.w3.org/2000/svg">
  <sodipodi:namedview
     pagecolor="#303030"
     showgrid="true"
     id="namedview1"
     bordercolor="#eeeeee"
     borderopacity="1"
     inkscape:showpageshadow="0"
     inkscape:pageopacity="0"
     inkscape:pagecheckerboard="0"
     inkscape:deskcolor="#505050"
     inkscape:zoom="0.56375"
     inkscape:cx="955.21064"
     inkscape:cy="653.65854"
     inkscape:window-width="2560"
     inkscape:window-height="1326"
     inkscape:window-x="1080"
     inkscape:window-y="232"
     inkscape:window-maximized="0"
     inkscape:current-layer="g1">
    <inkscape:grid
       id="grid5"
       units="px"
       spacingx="100"
       spacingy="100"
       color="#4772b3"
       opacity="0.2"
       visible="true"
       originx="0"
       originy="0" />
  </sodipodi:namedview>
  <defs
     id="defs1">
    <inkscape:path-effect
       effect="fillet_chamfer"
       id="path-effect2"
       is_visible="true"
       lpeversion="1"
       nodesatellites_param="F,0,0,1,0,13.377953,0,1 @ F,0,1,1,0,13.377953,0,1 @ F,0,1,1,0,13.377953,0,1 @ F,0,1,1,0,13.377953,0,1 @ F,0,1,1,0,13.377953,0,1 @ F,0,1,1,0,13.377953,0,1 @ F,0,1,1,0,13.377953,0,1 @ F,0,1,1,0,13.377953,0,1 | F,0,1,1,0,13.377953,0,1 @ F,0,1,1,0,13.377953,0,1 @ F,0,1,1,0,13.377953,0,1 @ F,0,1,1,0,13.377953,0,1 @ F,0,1,1,0,13.377953,0,1 @ F,0,1,1,0,13.377953,0,1 @ F,0,1,1,0,13.377953,0,1 @ F,0,1,1,0,13.377953,0,1"
       radius="0"
       unit="px"
       method="auto"
       mode="F"
       chamfer_steps="1"
       flexible="false"
       use_knot_distance="true"
       apply_no_radius="true"
       apply_with_radius="true"
       only_selected="false"
       hide_knots="false" />
  </defs>
  <g
     id="g1">
    <path
       id="path1"
       style="fill:#ffffff;fill-rule:evenodd;stroke-width:32.432"
       d="M 470.00953 -223.07358 A 32.297236 32.297236 0 0 0 445.28944 -223.07329 L 118.00073 -87.505871 A 32.297235 32.297235 0 0 0 100.52079 -70.026334 L -35.046972 257.26319 A 32.297236 32.297236 0 0 0 -35.046687 281.98327 L 100.52073 609.27199 A 32.297235 32.297235 0 0 0 118.00027 626.75193 L 445.28979 762.31969 A 32.297236 32.297236 0 0 0 470.00988 762.3194 L 797.29859 626.75198 A 32.297236 32.297236 0 0 0 814.77853 609.27245 L 950.34629 281.98292 A 32.297236 32.297236 0 0 0 950.34601 257.26284 L 814.77859 -70.025873 A 32.297235 32.297235 0 0 0 797.29905 -87.505815 L 470.00953 -223.07358 z M 388.42601 9.6665247 C 400.16777 14.530121 410.07085 23.832005 415.25738 36.37887 L 484.84274 204.71424 L 652.70589 135.04162 C 677.78443 124.63271 707.02511 136.74498 717.39838 161.83813 C 727.77153 186.93188 715.6675 216.15361 690.58861 226.56263 L 522.68355 296.25262 L 592.28647 464.63277 C 602.6595 489.7265 590.55603 518.94702 565.4772 529.35609 C 540.39836 539.76515 511.15654 527.65279 500.78352 502.55909 L 431.19816 334.22371 L 262.59008 404.20588 C 237.51127 414.61502 208.27061 402.50314 197.89759 377.40937 C 187.52451 352.31564 199.62857 323.09398 224.70736 312.68487 L 393.35903 242.68465 L 323.75561 74.305679 C 313.38256 49.211958 325.48609 19.991448 350.56489 9.5823615 C 363.10429 4.3778164 376.68426 4.802931 388.42601 9.6665247 z "
       transform="matrix(1.4061413,-0.58244281,0.58244281,1.4061413,-0.56009876,687.42664)" />
  </g>
</svg>
