<?xml version="1.0" encoding="UTF-8" standalone="no"?>
<svg
   id="svg2"
   height="1600"
   viewBox="0 0 1600 1600"
   width="1600"
   version="1.1"
   xmlns="http://www.w3.org/2000/svg"
   xmlns:svg="http://www.w3.org/2000/svg">
  <defs
     id="defs1" />
  <g
     id="g1"
     style="display:inline">
    <path
       id="path2"
       style="display:inline;fill:#ffffff"
       d="M 55.011719 620 C 54.321773 619.996 53.685993 620.38513 53.376953 621.00195 L 48.189453 631.37305 C 47.595205 632.56054 48.482547 633.99928 49.810547 634 L 60.189453 634 C 61.516718 633.99928 62.402826 632.56212 61.810547 631.375 L 56.623047 621.00195 C 56.317743 620.39258 55.693328 620.0046 55.011719 620 z M 54.365684 623 L 55.634316 623 C 55.836907 623 56 623.16309 56 623.36568 L 56 628.63432 C 56 628.83691 55.836907 629 55.634316 629 L 54.365684 629 C 54.163093 629 54 628.83691 54 628.63432 L 54 623.36568 C 54 623.16309 54.163093 623 54.365684 623 z M 55 630 A 0.99999901 1 0 0 1 56 631 A 0.99999901 1 0 0 1 55 632 A 0.99999901 1 0 0 1 54 631 A 0.99999901 1 0 0 1 55 630 z "
       transform="matrix(100,0,0,100,-4700,-61900)" />
  </g>
</svg>
