<?xml version="1.0" encoding="UTF-8" standalone="no"?>
<svg
   height="1600"
   viewBox="0 0 1600 1600"
   width="1600"
   version="1.1"
   id="svg1"
   xmlns="http://www.w3.org/2000/svg"
   xmlns:svg="http://www.w3.org/2000/svg">
  <defs
     id="defs1" />
  <g
     fill="#ffffff"
     id="g1">
    <path
       id="path4"
       style="fill:#ffffff;fill-rule:evenodd;stroke-width:188.989;fill-opacity:1"
       d="M 800.04883 99.902344 A 700.04901 700.04901 0 0 0 100 799.95117 A 700.04901 700.04901 0 0 0 800.04883 1500 A 700.04901 700.04901 0 0 0 1500.0977 799.95117 A 700.04901 700.04901 0 0 0 800.04883 99.902344 z M 799.95117 199.90234 A 600.04901 600.04901 0 0 1 1400 799.95117 A 600.04901 600.04901 0 0 1 799.95117 1400 A 600.04901 600.04901 0 0 1 199.90234 799.95117 A 600.04901 600.04901 0 0 1 799.95117 199.90234 z " />
    <path
       id="rect2"
       style="fill:#ffffff;fill-opacity:1;fill-rule:evenodd;stroke-width:188.976"
       d="m 800,400 c -55.22847,0 -100,44.77153 -100,100 0,55.22847 44.77153,100 100,100 55.22847,0 100,-44.77153 100,-100 0,-55.22847 -44.77153,-100 -100,-100 z M 636.56836,700 C 616.30928,700 600,716.30928 600,736.56836 v 26.86328 C 600,783.69072 616.30928,800 636.56836,800 H 700 v 300 H 636.56836 C 616.30928,1100 600,1116.3093 600,1136.5684 v 26.8632 C 600,1183.6907 616.30928,1200 636.56836,1200 H 963.43164 C 983.69072,1200 1000,1183.6907 1000,1163.4316 v -26.8632 C 1000,1116.3093 983.69072,1100 963.43164,1100 H 900 V 763.43164 736.56836 C 900,716.30928 883.69072,700 863.43164,700 Z" />
  </g>
</svg>
