<svg height="1600" viewBox="0 0 1600 1600" width="1600" xmlns="http://www.w3.org/2000/svg" xmlns:inkscape="http://www.inkscape.org/namespaces/inkscape" xmlns:sodipodi="http://sodipodi.sourceforge.net/DTD/sodipodi-0.dtd"><sodipodi:namedview pagecolor="#303030" showgrid="true"><inkscape:grid id="grid5" units="px" spacingx="100" spacingy="100" color="#4772b3" opacity="0.2" visible="true" /></sodipodi:namedview><g fill="#fff"><g enable-background="new" transform="matrix(100 0 0 100 -34100.002 -15699.933)"><path d="m347.5 161c-.27613.00003-.49997.22387-.5.5v2.5h-1.5c-.27613.00003-.49997.22387-.5.5v3c.00003.27613.22387.49997.5.5h3c.27613-.00003.49997-.22387.5-.5v1c.00003.27613.22387.49997.5.5h3c.27613-.00003.49997-.22387.5-.5v-3c-.00003-.27613-.22387-.49997-.5-.5h-2c.27613-.00003.49997-.22387.5-.5v-3c-.00003-.27613-.22387-.49997-.5-.5zm.5 1h2v2h-2zm-2 3h2v2h-2zm4 1h2v2h-2z"/><path d="m342.49219 157.99219a.50005.50005 0 0 0 -.31641.12109.50005.50005 0 0 0 -.0195.0156.50005.50005 0 0 0 -.0176.0176.50005.50005 0 0 0 -.002.004.50005.50005 0 0 0 -.0312.0332.50005.50005 0 0 0 -.002.004.50005.50005 0 0 0 -.0274.0371.50005.50005 0 0 0 -.002.004.50005.50005 0 0 0 -.07408.35325v.91797a.50005.50005 0 1 0 1 0v-.5h.5a.50005.50005 0 1 0 0-1h-.91992a.50005.50005 0 0 0 -.0879-.008zm13 0a.50005.50005 0 0 0 -.07422.00781h-.91797a.50005.50005 0 1 0 0 1h.5v.5a.50005.50005 0 1 0 1 0v-.91992a.50005.50005 0 0 0 -.11328-.4043.50005.50005 0 0 0 -.002-.004.50005.50005 0 0 0 -.0312-.0332.50005.50005 0 0 0 -.004-.002.50005.50005 0 0 0 -.0332-.0312.50005.50005 0 0 0 -.004-.002.50005.50005 0 0 0 -.32031-.11133zm-9.99219.00781a.50005.50005 0 1 0 0 1h1a.50005.50005 0 1 0 0-1zm3 0a.50005.50005 0 1 0 0 1h1a.50005.50005 0 1 0 0-1zm3 0a.50005.50005 0 1 0 0 1h1a.50005.50005 0 1 0 0-1zm-9.00781 2.99219a.50005.50005 0 0 0 -.49219.50781v1a.50005.50005 0 1 0 1 0v-1a.50005.50005 0 0 0 -.50781-.50781zm13 0a.50005.50005 0 0 0 -.49219.50781v1a.50005.50005 0 1 0 1 0v-1a.50005.50005 0 0 0 -.50781-.50781zm-13 3a.50005.50005 0 0 0 -.49219.50781v1a.50005.50005 0 1 0 1 0v-1a.50005.50005 0 0 0 -.50781-.50781zm13 0a.50005.50005 0 0 0 -.49219.50781v1a.50005.50005 0 1 0 1 0v-1a.50005.50005 0 0 0 -.50781-.50781zm-13 3a.50005.50005 0 0 0 -.49219.50781v1a.50005.50005 0 1 0 1 0v-1a.50005.50005 0 0 0 -.50781-.50781zm13 0a.50005.50005 0 0 0 -.49219.50781v1a.50005.50005 0 1 0 1 0v-1a.50005.50005 0 0 0 -.50781-.50781zm-13 3a.50005.50005 0 0 0 -.49219.50781v.91992a.50005.50005 0 0 0 .11328.4043.50005.50005 0 0 0 .0156.0195.50005.50005 0 0 0 .0176.0176.50005.50005 0 0 0 .004.002.50005.50005 0 0 0 .0332.0312.50005.50005 0 0 0 .004.002.50005.50005 0 0 0 .39435.10348h.91797a.50005.50005 0 1 0 0-1h-.5v-.5a.50005.50005 0 0 0 -.50781-.50781zm13 0a.50005.50005 0 0 0 -.49219.50781v.5h-.5a.50005.50005 0 1 0 0 1h.91992a.50005.50005 0 0 0 .4043-.11328.50005.50005 0 0 0 .004-.002.50005.50005 0 0 0 .0332-.0312.50005.50005 0 0 0 .002-.004.50005.50005 0 0 0 .0312-.0332.50005.50005 0 0 0 .002-.004.50005.50005 0 0 0 .0274-.0371.50005.50005 0 0 0 .002-.004.50005.50005 0 0 0 .074-.35325v-.91797a.50005.50005 0 0 0 -.50781-.50781zm-9.99219 1.00781a.50005.50005 0 1 0 0 1h1a.50005.50005 0 1 0 0-1zm3 0a.50005.50005 0 1 0 0 1h1a.50005.50005 0 1 0 0-1zm3 0a.50005.50005 0 1 0 0 1h1a.50005.50005 0 1 0 0-1z" opacity=".6"/></g></g></svg>