<svg height="1600" viewBox="0 0 1600 1600" width="1600" xmlns="http://www.w3.org/2000/svg" xmlns:inkscape="http://www.inkscape.org/namespaces/inkscape" xmlns:sodipodi="http://sodipodi.sourceforge.net/DTD/sodipodi-0.dtd"><sodipodi:namedview pagecolor="#303030" showgrid="true"><inkscape:grid id="grid5" units="px" spacingx="100" spacingy="100" color="#4772b3" opacity="0.2" visible="true" /></sodipodi:namedview><g fill="#fff"><g enable-background="new" transform="translate(-233 -365)"><path d="m1028 1556c-3.2833 0-6 2.4414-6 5.5 0 1.7056.9046 3.146 2.1523 4.3594l.9942.9941a.50004997.50004997 0 0 0 .3027.1485.50004997.50004997 0 0 0 .051.998h5a.50004997.50004997 0 0 0 .045-.998.50004997.50004997 0 0 0 .3086-.1485l.9981-.998c1.2122-1.1985 2.1465-2.6518 2.1465-4.3535 0-3.0586-2.7167-5.5-6-5.5zm0 1c2.7919 0 5 2.0358 5 4.5 0 1.3342-.7428 2.5488-1.8516 3.6445l-1 1a.50004997.50004997 0 0 0 .2793.8535h-4.8594a.50004997.50004997 0 0 0 .2871-.8535l-1-1a.50004997.50004997 0 0 0 -.01-.01c-1.1397-1.1082-1.8477-2.2864-1.8477-3.6406 0-2.4642 2.2081-4.5 5-4.5zm-2.5 12a.50004997.50004997 0 1 0 0 1h1.5v.5a.50004997.50004997 0 0 0 .5.5h1a.50004997.50004997 0 0 0 .5-.5v-.5h1.5a.50004997.50004997 0 1 0 0-1z"/><path d="m1025.4902 1561.0059a.50005.50005 0 0 0 -.3437.8476l.8535.8535v1.543a.50005.50005 0 1 0 1 0v-1.25h2v1.25a.50005.50005 0 1 0 1 0v-1.543l.8535-.8535a.50005.50005 0 0 0 -.707-.707l-.8535.8535h-2.586l-.8535-.8535a.50005.50005 0 0 0 -.3633-.1406z" opacity=".6"/></g><g enable-background="new" transform="matrix(100 0 0 100 45300.00000000001 -71000)"><path d="m437 710h16v16h-16z" fill-rule="evenodd" opacity="0" transform="scale(-1 1)"/><path d="m-447.96289 710.98828a1.0001 1.0001 0 0 0 -.83789.41211c-3.30626 4.40835-3.18183 10.96743-3.18555 12.58399a1.0001 1.0001 0 1 0 2 .006c.004-1.64212.0934-7.79897 2.78711-11.39062a1.0001 1.0001 0 0 0 -.76367-1.61133zm4.97461 3.00195a1.0001 1.0001 0 0 0 -.69727.28125c-2.25424 2.12239-3.3739 3.98924-3.89062 5.64258-.51673 1.65335-.42383 3.04979-.42383 4.08594a1.0001 1.0001 0 1 0 2 0c0-1.13631-.0696-2.20308.33203-3.48828.40167-1.28521 1.28135-2.83224 3.35352-4.7832a1.0001 1.0001 0 0 0 -.67383-1.73829zm3.94531 4.00782a1.0001 1.0001 0 0 0 -.16797.0234c-2.45714.52828-4.78906 2.80717-4.78906 5.97855a1.0001 1.0001 0 1 0 2 0c0-2.17354 1.66808-3.68979 3.21094-4.02148a1.0001 1.0001 0 0 0 -.25391-1.98047z"/></g></g></svg>