<svg height="1600" viewBox="0 0 1600 1600" width="1600" xmlns="http://www.w3.org/2000/svg" xmlns:inkscape="http://www.inkscape.org/namespaces/inkscape" xmlns:sodipodi="http://sodipodi.sourceforge.net/DTD/sodipodi-0.dtd"><sodipodi:namedview pagecolor="#303030" showgrid="true"><inkscape:grid id="grid5" units="px" spacingx="100" spacingy="100" color="#4772b3" opacity="0.2" visible="true" /></sodipodi:namedview><g fill="#fff"><path d="m163.00977 368c-1.1753 0-2.25213.41841-2.88477 1.18164a.50005.50005 0 1 0 .76953.63672c.37548-.45299 1.18853-.81836 2.11524-.81836h1.5a.50005.50005 0 1 0 0-1zm-1.44141 3.00391c-1.72788-.20328-3.32792.12142-4.53125.90234s-1.99513 2.0489-2.02734 3.58398v.004.006c0 1.08246.28424 1.81368.53711 2.38867.25286.575.45312.97127.45312 1.61133 0 .46148-.10735.76987-.43555 1.02734-.3282.25748-.96151.47266-2.05468.47266a.50005.50005 0 1 0 0 1c1.21947 0 2.08348-.22395 2.67187-.68555.58839-.46182.81836-1.15243.81836-1.81468 0-.85994-.29523-1.46367-.53711-2.01367-.24115-.54835-.44991-1.06809-.45117-1.98047.0269-1.212.60444-2.1349 1.57031-2.76172.96712-.62763 2.33652-.92835 3.86914-.74805 1.98998.23412 3.41358 1.22813 4.10352 2.33203.68994 1.10391.68215 2.23778-.14844 3.06836-.83795.83796-1.98844.89361-3.08398.26368-1.09554-.62994-2.08047-1.9799-2.31446-3.96875a.50051111.50051111 0 1 0 -.99414.11718c.26602 2.26115 1.40609 3.91119 2.81055 4.71875 1.40446.80757 3.12702.73822 4.28906-.42382 1.16941-1.16942 1.16162-2.91055.28906-4.30664-.87256-1.3961-2.57396-2.52709-4.83398-2.79297z" transform="matrix(100 0 0 100 -15201.492 -36700.0115)"/></g></svg>