<svg height="1600" viewBox="0 0 1600 1600" width="1600" xmlns="http://www.w3.org/2000/svg" xmlns:inkscape="http://www.inkscape.org/namespaces/inkscape" xmlns:sodipodi="http://sodipodi.sourceforge.net/DTD/sodipodi-0.dtd"><sodipodi:namedview pagecolor="#303030" showgrid="true"><inkscape:grid id="grid5" units="px" spacingx="100" spacingy="100" color="#4772b3" opacity="0.2" visible="true" /></sodipodi:namedview><g fill="#fff"><g enable-background="new" transform="matrix(100 0 0 100 -34100.028 -47200.0078)"><path d="m346.54688 478.16016a.50005.50005 0 0 0 -.18165.0293c-1.54898.53108-2.52602 2.0719-2.34375 3.69922.18228 1.62732 1.47542 2.91657 3.10352 3.0918s3.16703-.80811 3.69141-2.35938a.50005.50005 0 1 0 -.94727-.32031c-.37611 1.11265-1.46896 1.81123-2.63672 1.68555-1.16775-.12568-2.08606-1.04179-2.2168-2.20899-.13073-1.1672.56282-2.26166 1.67383-2.64257a.50005.50005 0 0 0 -.14257-.97461z" opacity=".85"/><path d="m346.52148 476.09375a.50004994.50004994 0 0 0 -.0859.01c-2.69151.53044-4.58334 2.97414-4.42578 5.71289.15755 2.73875 2.31815 4.94772 5.05273 5.16601s5.21856-1.61975 5.80859-4.29883a.50004994.50004994 0 1 0 -.97656-.21484c-.48423 2.19868-2.50772 3.69672-4.75195 3.51758-2.24424-.17915-4.00546-1.98086-4.13477-4.22852-.1293-2.24766 1.41221-4.2385 3.6211-4.67383a.50004994.50004994 0 0 0 -.10743-.99023z" opacity=".6"/><path d="m353.49219 473c-.12989.002-.25387.0546-.34571.14648l-5 5c-.0938.0938-.14646.22092-.14648.35352v1.79297l-.85352.85351c-.49023.47127.23577 1.19727.70704.70704l.85351-.85352h1.79297c.1326-.00002.25976-.0527.35352-.14648l5-5c.19519-.19527.19519-.51177 0-.70704l-2-2c-.0957-.0957-.22603-.14855-.36133-.14648z"/></g></g></svg>