<svg height="1600" viewBox="0 0 1600 1600" width="1600" xmlns="http://www.w3.org/2000/svg" xmlns:inkscape="http://www.inkscape.org/namespaces/inkscape" xmlns:sodipodi="http://sodipodi.sourceforge.net/DTD/sodipodi-0.dtd"><sodipodi:namedview pagecolor="#303030" showgrid="true"><inkscape:grid id="grid5" units="px" spacingx="100" spacingy="100" color="#4772b3" opacity="0.2" visible="true" /></sodipodi:namedview><g fill="#fff"><g enable-background="new" transform="matrix(100 0 0 100 -34100.293 -30399.414)"><path d="m347.50586 306c-.31034.00027-.5455.28021-.49219.58594.36436 2.07324.1958 3.10943-.10742 3.63086s-.79091.68645-1.46094.9414-1.50865.62325-1.98242 1.58985c-.47377.96659-.59114 2.40736-.20703 4.83007.0385.24306.24806.422.49414.42188h6.75586c.30739.00014.54213-.27449.49414-.57812-.369-2.32739-.20658-3.57589.11523-4.23438.32182-.65849.7931-.85067 1.43555-1.0957.64245-.24504 1.46993-.51949 1.96484-1.37305.49492-.85356.6091-2.12804.22657-4.30469-.04176-.23922-.24935-.41386-.49219-.41406z"/><path d="m342.49805 304.99414a.50005.50005 0 0 0 -.5.5v2a.50005.50005 0 0 0 .5.5h2a.50005.50005 0 0 0 .5-.5v-2a.50005.50005 0 0 0 -.5-.5zm.5 1h1v1h-1zm10.50976 10a.50005.50005 0 0 0 -.5.5v2a.50005.50005 0 0 0 .5.5h2a.50005.50005 0 0 0 .5-.5v-2a.50005.50005 0 0 0 -.5-.5zm.5 1h1v1h-1z" opacity=".6"/></g></g></svg>