<svg height="1600" viewBox="0 0 1600 1600" width="1600" xmlns="http://www.w3.org/2000/svg" xmlns:inkscape="http://www.inkscape.org/namespaces/inkscape" xmlns:sodipodi="http://sodipodi.sourceforge.net/DTD/sodipodi-0.dtd"><sodipodi:namedview pagecolor="#303030" showgrid="true"><inkscape:grid id="grid5" units="px" spacingx="100" spacingy="100" color="#4772b3" opacity="0.2" visible="true" /></sodipodi:namedview><g fill="#fff"><g enable-background="new" transform="matrix(100 0 0 100 -29900.293 -30399.414)"><path d="m307 306c-3.30761 0-6 2.6922-6 6s2.69239 6 6 6 6-2.6922 6-6-2.69239-6-6-6zm4.75781 6.73438a.50005.50005 0 0 1 .28516.91992c-1.16187.83991-2.99782 1.34961-5.04297 1.34961-2.04361 0-3.88093-.50932-5.04297-1.34766a.50005.50005 0 0 1 .25586-.91016.50005.50005 0 0 1 .33008.0977c.89908.64864 2.58702 1.16016 4.45703 1.16016 1.87213 0 3.55862-.50874 4.45703-1.15821a.50005.50005 0 0 1 .30078-.11132z"/><path d="m300.49805 304.99414a.50005.50005 0 0 0 -.5.5v2a.50005.50005 0 0 0 .5.5h1a.50005.50005 0 1 0 0-1h-.5v-1h1v.5a.50005.50005 0 1 0 1 0v-1a.50005.50005 0 0 0 -.5-.5zm11.00976 0a.50005.50005 0 0 0 -.5.5v1a.50005.50005 0 1 0 1 0v-.5h1v1h-.5a.50005.50005 0 1 0 0 1h1a.50005.50005 0 0 0 .5-.5v-2a.50005.50005 0 0 0 -.5-.5zm-11.00976 11a.50005.50005 0 0 0 -.5.5v2a.50005.50005 0 0 0 .5.5h2a.50005.50005 0 0 0 .5-.5v-1a.50005.50005 0 1 0 -1 0v.5h-1v-1h.5a.50005.50005 0 1 0 0-1zm12.00976 0a.50005.50005 0 1 0 0 1h.5v1h-1v-.5a.50005.50005 0 1 0 -1 0v1a.50005.50005 0 0 0 .5.5h2a.50005.50005 0 0 0 .5-.5v-2a.50005.50005 0 0 0 -.5-.5z" opacity=".6"/></g></g></svg>