<svg height="1600" viewBox="0 0 1600 1600" width="1600" xmlns="http://www.w3.org/2000/svg" xmlns:inkscape="http://www.inkscape.org/namespaces/inkscape" xmlns:sodipodi="http://sodipodi.sourceforge.net/DTD/sodipodi-0.dtd"><sodipodi:namedview pagecolor="#303030" showgrid="true"><inkscape:grid id="grid5" units="px" spacingx="100" spacingy="100" color="#4772b3" opacity="0.2" visible="true" /></sodipodi:namedview><g fill="#fff"><g enable-background="new" transform="matrix(100 0 0 100 -27800.293 -30399.414)"><path d="m286 307c-1.846 0-3.56208.52582-4.8457 1.40625s-2.1543 2.15046-2.1543 3.59375.87068 2.71332 2.1543 3.59375 2.9997 1.40625 4.8457 1.40625 3.56208-.52582 4.8457-1.40625 2.1543-2.15046 2.1543-3.59375-.87068-2.71332-2.1543-3.59375-2.9997-1.40625-4.8457-1.40625zm2.49219 3.61719a.50005.50005 0 0 1 .50781.50781c0 .62131-.43923 1.10886-.98438 1.41016-.54513.3013-1.24329.46484-2.01562.46484s-1.47049-.16354-2.01562-.46484c-.54515-.3013-.98438-.78885-.98438-1.41016a.50005.50005 0 0 1 .49414-.50586.50005.50005 0 0 1 .50586.50586c0 .13737.11369.33891.46875.53516s.90576.33984 1.53125.33984 1.17619-.14359 1.53125-.33984.46875-.39779.46875-.53516a.50005.50005 0 0 1 .49219-.50781z" fill-rule="evenodd"/><path d="m279.49805 304.99414a.50005.50005 0 0 0 -.5.5v2a.50005.50005 0 0 0 .5.5h1a.50005.50005 0 1 0 0-1h-.5v-1h1v.5a.50005.50005 0 1 0 1 0v-1a.50005.50005 0 0 0 -.5-.5zm11.00976 0a.50005.50005 0 0 0 -.5.5v1a.50005.50005 0 1 0 1 0v-.5h1v1h-.5a.50005.50005 0 1 0 0 1h1a.50005.50005 0 0 0 .5-.5v-2a.50005.50005 0 0 0 -.5-.5zm-11.00976 11a.50005.50005 0 0 0 -.5.5v2a.50005.50005 0 0 0 .5.5h2a.50005.50005 0 0 0 .5-.5v-1a.50005.50005 0 1 0 -1 0v.5h-1v-1h.5a.50005.50005 0 1 0 0-1zm12.00976 0a.50005.50005 0 1 0 0 1h.5v1h-1v-.5a.50005.50005 0 1 0 -1 0v1a.50005.50005 0 0 0 .5.5h2a.50005.50005 0 0 0 .5-.5v-2a.50005.50005 0 0 0 -.5-.5z" opacity=".6"/></g></g></svg>