<svg height="1600" viewBox="0 0 1600 1600" width="1600" xmlns="http://www.w3.org/2000/svg" xmlns:inkscape="http://www.inkscape.org/namespaces/inkscape" xmlns:sodipodi="http://sodipodi.sourceforge.net/DTD/sodipodi-0.dtd"><sodipodi:namedview pagecolor="#303030" showgrid="true"><inkscape:grid id="grid5" units="px" spacingx="100" spacingy="100" color="#4772b3" opacity="0.2" visible="true" /></sodipodi:namedview><g fill="#fff"><g enable-background="new" transform="translate(-233 -365)"><path d="m1028 1556c-3.2833 0-6 2.4414-6 5.5 0 1.7056.9046 3.146 2.1523 4.3594l.9942.9941a.50004997.50004997 0 0 0 .3027.1485.50004997.50004997 0 0 0 .051.998h5a.50004997.50004997 0 0 0 .045-.998.50004997.50004997 0 0 0 .3086-.1485l.9981-.998c1.2122-1.1985 2.1465-2.6518 2.1465-4.3535 0-3.0586-2.7167-5.5-6-5.5zm0 1c2.7919 0 5 2.0358 5 4.5 0 1.3342-.7428 2.5488-1.8516 3.6445l-1 1a.50004997.50004997 0 0 0 .2793.8535h-4.8594a.50004997.50004997 0 0 0 .2871-.8535l-1-1a.50004997.50004997 0 0 0 -.01-.01c-1.1397-1.1082-1.8477-2.2864-1.8477-3.6406 0-2.4642 2.2081-4.5 5-4.5zm-2.5 12a.50004997.50004997 0 1 0 0 1h1.5v.5a.50004997.50004997 0 0 0 .5.5h1a.50004997.50004997 0 0 0 .5-.5v-.5h1.5a.50004997.50004997 0 1 0 0-1z"/><path d="m1025.4902 1561.0059a.50005.50005 0 0 0 -.3437.8476l.8535.8535v1.543a.50005.50005 0 1 0 1 0v-1.25h2v1.25a.50005.50005 0 1 0 1 0v-1.543l.8535-.8535a.50005.50005 0 0 0 -.707-.707l-.8535.8535h-2.586l-.8535-.8535a.50005.50005 0 0 0 -.3633-.1406z" opacity=".6"/></g><g enable-background="new" transform="matrix(100 0 0 100 -27800.293 -30399.414)"><path d="m286 307c-1.846 0-3.56208.52582-4.8457 1.40625s-2.1543 2.15046-2.1543 3.59375.87068 2.71332 2.1543 3.59375 2.9997 1.40625 4.8457 1.40625 3.56208-.52582 4.8457-1.40625 2.1543-2.15046 2.1543-3.59375-.87068-2.71332-2.1543-3.59375-2.9997-1.40625-4.8457-1.40625zm2.49219 3.61719a.50005.50005 0 0 1 .50781.50781c0 .62131-.43923 1.10886-.98438 1.41016-.54513.3013-1.24329.46484-2.01562.46484s-1.47049-.16354-2.01562-.46484c-.54515-.3013-.98438-.78885-.98438-1.41016a.50005.50005 0 0 1 .49414-.50586.50005.50005 0 0 1 .50586.50586c0 .13737.11369.33891.46875.53516s.90576.33984 1.53125.33984 1.17619-.14359 1.53125-.33984.46875-.39779.46875-.53516a.50005.50005 0 0 1 .49219-.50781z" fill-rule="evenodd"/><path d="m279.49805 304.99414a.50005.50005 0 0 0 -.5.5v2a.50005.50005 0 0 0 .5.5h1a.50005.50005 0 1 0 0-1h-.5v-1h1v.5a.50005.50005 0 1 0 1 0v-1a.50005.50005 0 0 0 -.5-.5zm11.00976 0a.50005.50005 0 0 0 -.5.5v1a.50005.50005 0 1 0 1 0v-.5h1v1h-.5a.50005.50005 0 1 0 0 1h1a.50005.50005 0 0 0 .5-.5v-2a.50005.50005 0 0 0 -.5-.5zm-11.00976 11a.50005.50005 0 0 0 -.5.5v2a.50005.50005 0 0 0 .5.5h2a.50005.50005 0 0 0 .5-.5v-1a.50005.50005 0 1 0 -1 0v.5h-1v-1h.5a.50005.50005 0 1 0 0-1zm12.00976 0a.50005.50005 0 1 0 0 1h.5v1h-1v-.5a.50005.50005 0 1 0 -1 0v1a.50005.50005 0 0 0 .5.5h2a.50005.50005 0 0 0 .5-.5v-2a.50005.50005 0 0 0 -.5-.5z" opacity=".6"/></g></g></svg>