<svg height="1600" viewBox="0 0 1600 1600" width="1600" xmlns="http://www.w3.org/2000/svg" xmlns:inkscape="http://www.inkscape.org/namespaces/inkscape" xmlns:sodipodi="http://sodipodi.sourceforge.net/DTD/sodipodi-0.dtd"><sodipodi:namedview pagecolor="#303030" showgrid="true"><inkscape:grid id="grid5" units="px" spacingx="100" spacingy="100" color="#4772b3" opacity="0.2" visible="true" /></sodipodi:namedview><g fill="#fff"><g enable-background="new" transform="matrix(100 0 0 100 -32000.293 -30399.414)"><path d="m328 307c-1.30038 0-2.48006.21939-3.37891.60352-.44942.19206-.83127.42394-1.12304.71875-.29178.2948-.49805.67796-.49805 1.10156v2.30664 2.8457c0 .4236.20627.80676.49805 1.10156.29177.29481.67362.52669 1.12304.71875.89885.38413 2.07853.60352 3.37891.60352s2.48006-.21939 3.37891-.60352c.44942-.19206.83127-.42394 1.12304-.71875.29178-.2948.49805-.67796.49805-1.10156v-2.8457-2.30664c0-.4236-.20627-.80676-.49805-1.10156-.29177-.29481-.67362-.52669-1.12304-.71875-.89885-.38413-2.07853-.60352-3.37891-.60352zm0 1c1.01151 0 1.92459.13316 2.61914.3418.34727.10431.63991.22479.88086.38281s.5.38269.5.77539-.25905.61737-.5.77539-.53359.2785-.88086.38281c-.69455.20864-1.60763.3418-2.61914.3418-1.0115 0-1.92459-.13316-2.61914-.3418-.34727-.10431-.63991-.22479-.88086-.38281s-.5-.38268-.5-.77539c0-.3927.25905-.61737.5-.77539s.53359-.2785.88086-.38281c.69455-.20864 1.60764-.3418 2.61914-.3418z"/><path d="m321.49805 304.99414a.50005.50005 0 0 0 -.5.5v2a.50005.50005 0 0 0 .5.5h1a.50005.50005 0 1 0 0-1h-.5v-1h1v.5a.50005.50005 0 1 0 1 0v-1a.50005.50005 0 0 0 -.5-.5zm11.00976 0a.50005.50005 0 0 0 -.5.5v1a.50005.50005 0 1 0 1 0v-.5h1v1h-.5a.50005.50005 0 1 0 0 1h1a.50005.50005 0 0 0 .5-.5v-2a.50005.50005 0 0 0 -.5-.5zm-11.00976 11a.50005.50005 0 0 0 -.5.5v2a.50005.50005 0 0 0 .5.5h2a.50005.50005 0 0 0 .5-.5v-1a.50005.50005 0 1 0 -1 0v.5h-1v-1h.5a.50005.50005 0 1 0 0-1zm12.00976 0a.50005.50005 0 1 0 0 1h.5v1h-1v-.5a.50005.50005 0 1 0 -1 0v1a.50005.50005 0 0 0 .5.5h2a.50005.50005 0 0 0 .5-.5v-2a.50005.50005 0 0 0 -.5-.5z" opacity=".6"/></g></g></svg>