<svg height="1400" viewBox="0 0 1600 1400" width="1600" xmlns="http://www.w3.org/2000/svg" xmlns:inkscape="http://www.inkscape.org/namespaces/inkscape" xmlns:sodipodi="http://sodipodi.sourceforge.net/DTD/sodipodi-0.dtd"><sodipodi:namedview pagecolor="#303030" showgrid="true"><inkscape:grid id="grid5" units="px" spacingx="100" spacingy="100" color="#4772b3" opacity="0.2" visible="true" /></sodipodi:namedview><g fill="#fff"><g enable-background="new" transform="matrix(100 0 0 100 -61399.99999999999 -59900)"><path d="m614 598h16v16h-16z" opacity="0"/><path d="m618.74609 600.01647c-.22865.00013-.42808.15534-.48437.37695l-3.2461 10.71706c-.0103.0402-.0155.0815-.0156.12305v.25c-.01.67617 1.00956.67617 1 0v-.1875l.84961-3.33398c.0487.0148.0995.022.15039.0215h4c.0502.00099.10022-.006.14844-.0195h.002l.84956 3.332v.1875c-.01.67617 1.00956.67617 1 0v-.25c-.00007-.0415-.005-.0828-.0156-.12305l-3.25391-10.71706c-.0563-.22162-.25574-.37683-.4844-.37695zm.25 1.54492 1.90235 5.42214h-3.80078z"/><path d="m310 43.983534v-5h1.5c.83481 0 1.5.664144 1.5 1.498047v2.007812c0 .833914-.66519 1.498047-1.5 1.496094zm4-1.494141v-2.007812c0-1.375283-1.12569-2.498047-2.5-2.498047h-1.5v-4.467068c.004-.28226-.22555-.512233-.50781-.507812-.27614.004-.49651.231672-.49219.507812v10.967068c.00003.27613.22387.49997.5.5l2 .002c1.37431.002 2.5-1.120801 2.5-2.496094z" transform="translate(315 567)"/></g></g></svg>