<svg height="1600" viewBox="0 0 1600 1600" width="1600" xmlns="http://www.w3.org/2000/svg" xmlns:inkscape="http://www.inkscape.org/namespaces/inkscape" xmlns:sodipodi="http://sodipodi.sourceforge.net/DTD/sodipodi-0.dtd"><sodipodi:namedview pagecolor="#303030" showgrid="true"><inkscape:grid id="grid5" units="px" spacingx="100" spacingy="100" color="#4772b3" opacity="0.2" visible="true" /></sodipodi:namedview><g fill="#fff"><g enable-background="new" transform="matrix(100 0 0 100 -40400 -3100.002)"><path d="m405 32v8h14v-8zm2.50781 2h8.98438c.67616-.0096.67616 1.009563 0 1h-8.98438c-.67616.0096-.67616-1.009563 0-1zm0 3h8.98438c.67616-.0096.67616 1.009563 0 1h-8.98438c-.67616.0096-.67616-1.009563 0-1z"/><path d="m407.50781 42a.50005.50005 0 1 0 0 1h8.98438a.50005.50005 0 1 0 0-1zm0 3a.50005.50005 0 1 0 0 1h8.98438a.50005.50005 0 1 0 0-1z"/></g></g></svg>