<svg height="1600" viewBox="0 0 1600 1600" width="1600" xmlns="http://www.w3.org/2000/svg" xmlns:inkscape="http://www.inkscape.org/namespaces/inkscape" xmlns:sodipodi="http://sodipodi.sourceforge.net/DTD/sodipodi-0.dtd"><sodipodi:namedview pagecolor="#303030" showgrid="true"><inkscape:grid id="grid5" units="px" spacingx="100" spacingy="100" color="#4772b3" opacity="0.2" visible="true" /></sodipodi:namedview><g fill="#fff"><path d="m511.5 452c-.8225 0-1.5.6775-1.5 1.5 0 .82251.6775 1.5 1.5 1.5.64684 0 1.19777-.42097 1.40625-1h1.1875c.20848.57903.75941 1 1.40625 1 .8225 0 1.5-.67749 1.5-1.5 0-.8225-.6775-1.5-1.5-1.5-.64637 0-1.19742.42162-1.40625 1h-1.1875c-.20883-.57838-.75988-1-1.40625-1zm11 0c-.64637 0-1.19742.42162-1.40625 1h-.59375a.50005.50005 0 0 0 -.35352.14648l-3.85351 3.85352h-3.38672c-.20883-.57838-.75988-1-1.40625-1-.8225 0-1.5.6775-1.5 1.5 0 .82251.6775 1.5 1.5 1.5.64684 0 1.19777-.42097 1.40625-1h3.59375a.50005.50005 0 0 0 .35352-.14648l3.85351-3.85352h.38672c.20848.57903.75941 1 1.40625 1 .8225 0 1.5-.67749 1.5-1.5 0-.8225-.6775-1.5-1.5-1.5zm-11 1c.27091 0 .47782.20294.49414.46875a.50005.50005 0 0 0 0 .0625c-.01632.26582-.22323.46875-.49414.46875-.28206 0-.5-.21793-.5-.5 0-.28206.21794-.5.5-.5zm4 0c.28206 0 .5.21794.5.5 0 .28207-.21794.5-.5.5-.27091 0-.47782-.20293-.49414-.46875a.50005.50005 0 0 0 0-.0625c.01632-.26581.22323-.46875.49414-.46875zm7 0c.28206 0 .5.21794.5.5 0 .28207-.21794.5-.5.5-.27091 0-.47782-.20293-.49414-.46875a.50005.50005 0 0 0 0-.0625c.01632-.26581.22323-.46875.49414-.46875zm0 3c-.64637 0-1.19742.42162-1.40625 1h-.59375a.50005.50005 0 0 0 -.35352.14648l-5 5a.50005.50005 0 0 0 -.14648.35352v.59375c-.57903.20848-1 .75941-1 1.40625 0 .82251.6775 1.5 1.5 1.5s1.5-.67749 1.5-1.5c0-.64684-.42097-1.19777-1-1.40625v-.38672l4.70703-4.70703h.38672c.20848.57903.75941 1 1.40625 1 .8225 0 1.5-.67749 1.5-1.5 0-.8225-.6775-1.5-1.5-1.5zm-11 1c.28206 0 .5.21794.5.5 0 .28207-.21794.5-.5.5s-.5-.21793-.5-.5c0-.28206.21794-.5.5-.5zm11 0c.28206 0 .5.21794.5.5 0 .28207-.21794.5-.5.5-.27091 0-.47782-.20293-.49414-.46875a.50005.50005 0 0 0 0-.0625c.01632-.26581.22323-.46875.49414-.46875zm-11 3c-.8225 0-1.5.6775-1.5 1.5 0 .82251.6775 1.5 1.5 1.5s1.5-.67749 1.5-1.5c0-.8225-.6775-1.5-1.5-1.5zm11 0c-.8225 0-1.5.6775-1.5 1.5 0 .23017.0579.44679.15234.64258a.50005.50005 0 0 0 -.006.004l-1 1a.50005.50005 0 0 0 -.004.006c-.19555-.09467-.41218-.15258-.64234-.15258-.8225 0-1.5.6775-1.5 1.5 0 .82251.6775 1.5 1.5 1.5s1.5-.67749 1.5-1.5c0-.23002-.058-.44493-.15234-.64062a.50005.50005 0 0 0 .006-.006l1-1a.50005.50005 0 0 0 .004-.004c.1955.0946.41225.15062.64234.15062.8225 0 1.5-.67749 1.5-1.5 0-.8225-.6775-1.5-1.5-1.5zm-11 1c.28206 0 .5.21794.5.5 0 .28207-.21794.5-.5.5s-.5-.21793-.5-.5c0-.28206.21794-.5.5-.5zm11 0c.28206 0 .5.21794.5.5 0 .28207-.21794.5-.5.5s-.5-.21793-.5-.5c0-.28206.21794-.5.5-.5zm-3 3c.28206 0 .5.21794.5.5 0 .28207-.21794.5-.5.5s-.5-.21793-.5-.5c0-.28206.21794-.5.5-.5zm-4.0293.006a.50005.50005 0 0 0 .0371 0 .50005.50005 0 0 0 .0176 0c.26874.0134.4746.22107.4746.494 0 .28207-.21794.5-.5.5s-.5-.21793-.5-.5c0-.27158.20391-.47876.4707-.49414z" transform="matrix(100 0 0 100 -50899.99999999999 -45100)"/></g></svg>