<svg id="svg2" height="1600" viewBox="0 0 1600 1600" width="1600" xmlns="http://www.w3.org/2000/svg" xmlns:inkscape="http://www.inkscape.org/namespaces/inkscape" xmlns:sodipodi="http://sodipodi.sourceforge.net/DTD/sodipodi-0.dtd"><sodipodi:namedview pagecolor="#303030" showgrid="true"><inkscape:grid id="grid5" units="px" spacingx="100" spacingy="100" color="#4772b3" opacity="0.2" visible="true" /></sodipodi:namedview><g fill="#fff" transform="matrix(100.07883 0 0 100.07883 -19414.404 -7306.376)"><path id="path1" d="m195.48828 74.003906a.50005.50005 0 0 0 -.5.5v6.775391a.50005.50005 0 0 0 .14649.355469l5.82421 5.816406c.72045.721249 1.90456.721249 2.625 0l4.85743-4.857422a.50005.50005 0 0 0 .002-.002c.71519-.719457.71519-1.895777 0-2.615235a.50005.50005 0 0 0 -.002-.002l-5.82032-5.820312a.50005.50005 0 0 0 -.35351-.146485zm.5 1 6.07227.0039 5.67382 5.673829c.33567.337665.33567.867413 0 1.205078l-4.85742 4.857422c-.33823.338607-.8727.338607-1.21093 0l-5.67774-5.671875z"/><path id="path2" d="m199.49748 77.115237c-.76558-.0024-1.38763.617264-1.38818 1.382845.00055.765582.6226 1.385244 1.38818 1.382847h.0163c.76349 0 1.38229-.619353 1.38284-1.382847-.00055-.763493-.61935-1.382845-1.38284-1.382845z" stroke-width="2.72314"/></g></svg>