<svg id="svg6" height="1600" viewBox="0 0 1600 1600" width="1600" xmlns="http://www.w3.org/2000/svg" xmlns:inkscape="http://www.inkscape.org/namespaces/inkscape" xmlns:sodipodi="http://sodipodi.sourceforge.net/DTD/sodipodi-0.dtd"><sodipodi:namedview pagecolor="#303030" showgrid="true"><inkscape:grid id="grid5" units="px" spacingx="100" spacingy="100" color="#4772b3" opacity="0.2" visible="true" /></sodipodi:namedview><g fill="#fff"><path id="circle1" d="m449 123a1 1 0 0 1 -1 1 1 1 0 0 1 -1-1 1 1 0 0 1 1-1 1 1 0 0 1 1 1z" transform="matrix(100 0 0 100 -44600 -11500)"/><path id="circle2" d="m449.80383 120a1 1 0 0 1 -1 1 1 1 0 0 1 -1-1 1 1 0 0 1 1-1 1 1 0 0 1 1 1z" transform="matrix(100 0 0 100 -44600 -11500)"/><path id="circle3" d="m452 117.80385a1 1 0 0 1 -1 1 1 1 0 0 1 -1-1 1 1 0 0 1 1-1 1 1 0 0 1 1 1z" transform="matrix(100 0 0 100 -44600 -11500)"/><path id="circle4" d="m449.80383-126a1 1 0 0 1 -1 1 1 1 0 0 1 -1-1 1 1 0 0 1 1-1 1 1 0 0 1 1 1z" transform="matrix(100 0 0 -100 -44600 -11500)"/><path id="circle5" d="m452-128.19615a1 1 0 0 1 -1 1 1 1 0 0 1 -1-1 1 1 0 0 1 1-1 1 1 0 0 1 1 1z" transform="matrix(100 0 0 -100 -44600 -11500)"/><path id="path1" d="m454 116a1 1 0 0 0 -1 1 1 1 0 0 0 1 1c2.77327 0 5 2.22673 5 5s-2.22673 5-5 5a1 1 0 0 0 -1 1 1 1 0 0 0 1 1c3.85414 0 7-3.14586 7-7s-3.14586-7-7-7z" stroke-linecap="round" stroke-linejoin="round" transform="matrix(100 0 0 100 -44600 -11500)"/></g><path id="path5" d="m456.5 123.5-3-.00004v-2.99996" fill="none" opacity=".99" stroke="#fff" stroke-linecap="round" transform="matrix(100 0 0 100 -44600 -11500)"/></svg>