<svg id="svg4" height="1300" viewBox="0 0 500 1300" width="500" xmlns="http://www.w3.org/2000/svg" xmlns:inkscape="http://www.inkscape.org/namespaces/inkscape" xmlns:sodipodi="http://sodipodi.sourceforge.net/DTD/sodipodi-0.dtd"><sodipodi:namedview pagecolor="#303030" showgrid="true"><inkscape:grid id="grid5" units="px" spacingx="100" spacingy="100" color="#4772b3" opacity="0.2" visible="true" /></sodipodi:namedview><g fill="#fff"><path id="ellipse1" d="m386.78329 232.791a135.3553 128.7262 0 0 1 -135.3553 128.7262 135.3553 128.7262 0 0 1 -135.3553-128.7262 135.3553 128.7262 0 0 1 135.3553-128.7262 135.3553 128.7262 0 0 1 135.3553 128.7262z"/><path id="ellipse2" d="m386.13631 1080.02a135.3553 128.7262 0 0 1 -135.3553 128.7262 135.3553 128.7262 0 0 1 -135.35531-128.7262 135.3553 128.7262 0 0 1 135.35531-128.72618 135.3553 128.7262 0 0 1 135.3553 128.72618z"/><path id="ellipse3" d="m383.9263 658.573a135.3553 128.7262 0 0 1 -135.3553 128.72619 135.3553 128.7262 0 0 1 -135.3553-128.72619 135.3553 128.7262 0 0 1 135.3553-128.7262 135.3553 128.7262 0 0 1 135.3553 128.7262z"/></g></svg>