<svg height="1600" viewBox="0 0 1600 1600" width="1600" xmlns="http://www.w3.org/2000/svg" xmlns:inkscape="http://www.inkscape.org/namespaces/inkscape" xmlns:sodipodi="http://sodipodi.sourceforge.net/DTD/sodipodi-0.dtd"><sodipodi:namedview pagecolor="#303030" showgrid="true"><inkscape:grid id="grid5" units="px" spacingx="100" spacingy="100" color="#4772b3" opacity="0.2" visible="true" /></sodipodi:namedview><g fill="#fff"><g enable-background="new" transform="matrix(100 0 0 100 -38299.644 -53500.679)"><path d="m308.06055 557c-.65207.63639-1.06055 1.52103-1.06055 2.5 0 1.5.75 2.5 2 3.14453v.004 6.85156c-.0287 2.02848 3.02869 2.02848 3 0v-6.85156-.002c1.28948-.66521 2-1.64648 2-3.14648 0-.97897-.40848-1.86361-1.06055-2.5h-.02148-.91797v2.99995l-1 1h-1l-1-1 .00002-3zm1.93945 12h1v1h-1z" transform="translate(84 -21)"/><path d="m387.00001 542-.00001-5.5c.004-.28226-.22555-.51223-.50781-.50781-.27614.004-.49651.23167-.49219.50781l.00001 5.5zm.75 2h.74999c.67616.01.67616-1.00956 0-1h-4c-.67616-.01-.67616 1.00956 0 1h.75001v1c-.75 0-1.25.5-1.25 1.25l-.00001 1.25c-.00001.78517.31169 1.44054.78516 1.86719.47346.42664 1.08725.63281 1.69726.63281s1.22902-.20449 1.71094-.62891c.48192-.42441.80663-1.08156.80664-1.87109l.00001-1.25c0-.75-.5-1.25-1.25-1.25z"/></g></g></svg>