<svg height="1600" viewBox="0 0 1600 1600" width="1600" xmlns="http://www.w3.org/2000/svg" xmlns:inkscape="http://www.inkscape.org/namespaces/inkscape" xmlns:sodipodi="http://sodipodi.sourceforge.net/DTD/sodipodi-0.dtd"><sodipodi:namedview pagecolor="#303030" showgrid="true"><inkscape:grid id="grid5" units="px" spacingx="100" spacingy="100" color="#4772b3" opacity="0.2" visible="true" /></sodipodi:namedview><g fill="#fff"><g enable-background="new" transform="translate(-233 -365)"><path d="m1028 1556c-3.2833 0-6 2.4414-6 5.5 0 1.7056.9046 3.146 2.1523 4.3594l.9942.9941a.50004997.50004997 0 0 0 .3027.1485.50004997.50004997 0 0 0 .051.998h5a.50004997.50004997 0 0 0 .045-.998.50004997.50004997 0 0 0 .3086-.1485l.9981-.998c1.2122-1.1985 2.1465-2.6518 2.1465-4.3535 0-3.0586-2.7167-5.5-6-5.5zm0 1c2.7919 0 5 2.0358 5 4.5 0 1.3342-.7428 2.5488-1.8516 3.6445l-1 1a.50004997.50004997 0 0 0 .2793.8535h-4.8594a.50004997.50004997 0 0 0 .2871-.8535l-1-1a.50004997.50004997 0 0 0 -.01-.01c-1.1397-1.1082-1.8477-2.2864-1.8477-3.6406 0-2.4642 2.2081-4.5 5-4.5zm-2.5 12a.50004997.50004997 0 1 0 0 1h1.5v.5a.50004997.50004997 0 0 0 .5.5h1a.50004997.50004997 0 0 0 .5-.5v-.5h1.5a.50004997.50004997 0 1 0 0-1z"/><path d="m1025.4902 1561.0059a.50005.50005 0 0 0 -.3437.8476l.8535.8535v1.543a.50005.50005 0 1 0 1 0v-1.25h2v1.25a.50005.50005 0 1 0 1 0v-1.543l.8535-.8535a.50005.50005 0 0 0 -.707-.707l-.8535.8535h-2.586l-.8535-.8535a.50005.50005 0 0 0 -.3633-.1406z" opacity=".6"/></g><g enable-background="new" transform="matrix(100 0 0 100 -38299.644 -53500.679)"><path d="m308.06055 557c-.65207.63639-1.06055 1.52103-1.06055 2.5 0 1.5.75 2.5 2 3.14453v.004 6.85156c-.0287 2.02848 3.02869 2.02848 3 0v-6.85156-.002c1.28948-.66521 2-1.64648 2-3.14648 0-.97897-.40848-1.86361-1.06055-2.5h-.02148-.91797v2.99995l-1 1h-1l-1-1 .00002-3zm1.93945 12h1v1h-1z" transform="translate(84 -21)"/><path d="m387.00001 542-.00001-5.5c.004-.28226-.22555-.51223-.50781-.50781-.27614.004-.49651.23167-.49219.50781l.00001 5.5zm.75 2h.74999c.67616.01.67616-1.00956 0-1h-4c-.67616-.01-.67616 1.00956 0 1h.75001v1c-.75 0-1.25.5-1.25 1.25l-.00001 1.25c-.00001.78517.31169 1.44054.78516 1.86719.47346.42664 1.08725.63281 1.69726.63281s1.22902-.20449 1.71094-.62891c.48192-.42441.80663-1.08156.80664-1.87109l.00001-1.25c0-.75-.5-1.25-1.25-1.25z"/></g></g></svg>