<svg height="1700" viewBox="0 0 1700 1700" width="1700" xmlns="http://www.w3.org/2000/svg" xmlns:inkscape="http://www.inkscape.org/namespaces/inkscape" xmlns:sodipodi="http://sodipodi.sourceforge.net/DTD/sodipodi-0.dtd"><sodipodi:namedview pagecolor="#303030" showgrid="true"><inkscape:grid id="grid5" units="px" spacingx="100" spacingy="100" color="#4772b3" opacity="0.2" visible="true" /></sodipodi:namedview><g fill="#fff"><path d="m411 536v4h-2.5a.50005.50005 0 0 0 -.5.5v2.5h-4v1h4v2.5a.50005.50005 0 0 0 .5.5h2.5v4h1v-4h2.5a.50005.50005 0 0 0 .5-.5v-2.5h4v-1h-4v-2.5a.50005.50005 0 0 0 -.5-.5h-2.5v-4zm-2 5h5v5h-5zm2 2v1h1v-1z" transform="matrix(100 0 0 100 -40300 -53500)"/></g></svg>