<svg height="900" viewBox="0 0 1600 900" width="1600" xmlns="http://www.w3.org/2000/svg" xmlns:inkscape="http://www.inkscape.org/namespaces/inkscape" xmlns:sodipodi="http://sodipodi.sourceforge.net/DTD/sodipodi-0.dtd"><sodipodi:namedview pagecolor="#303030" showgrid="true"><inkscape:grid id="grid5" units="px" spacingx="100" spacingy="100" color="#4772b3" opacity="0.2" visible="true" /></sodipodi:namedview><g fill="#fff"><path d="m426.49214 518.99219a.50005.50005 0 0 0 -.49219.50781v6a.50005.50005 0 1 0 1 0v-2.92578a.50005.50005 0 0 0 .5.41797h1a.50005.50005 0 1 0 0-1h-1a.50005.50005 0 0 0 -.5.42187v-2.91406a.50005.50005 0 0 0 -.50781-.50781zm13 0a.50005.50005 0 0 0 -.49219.50781v6a.50005.50005 0 1 0 1 0v-6a.50005.50005 0 0 0 -.50781-.50781zm-4.99805.002a.50005.50005 0 0 0 -.34766.85937l2.64649 2.64649-2.64649 2.64648a.50005.50005 0 1 0 .70704.70703l3-3a.50005.50005 0 0 0 0-.70703l-3-3a.50005.50005 0 0 0 -.35938-.15234zm-3.99414 3.00581a.50005.50005 0 1 0 0 1h1a.50005.50005 0 1 0 0-1zm3 0a.50005.50005 0 1 0 0 1h1a.50005.50005 0 1 0 0-1z" transform="matrix(100 0 0 100 -42499.995 -51799.9661)"/></g></svg>