<svg height="1600" viewBox="0 0 1500 1600" width="1500" xmlns="http://www.w3.org/2000/svg" xmlns:inkscape="http://www.inkscape.org/namespaces/inkscape" xmlns:sodipodi="http://sodipodi.sourceforge.net/DTD/sodipodi-0.dtd"><sodipodi:namedview pagecolor="#303030" showgrid="true"><inkscape:grid id="grid5" units="px" spacingx="100" spacingy="100" color="#4772b3" opacity="0.2" visible="true" /></sodipodi:namedview><g fill="#fff"><g enable-background="new" transform="matrix(-100 0 0 100 18899.996 3600)"><path d="m500.50586 518.99219a.50005.50005 0 0 0 -.50586.50781v1a.50005.50005 0 1 0 1 0v-1a.50005.50005 0 0 0 -.49219-.50781.50005.50005 0 0 1 -.002 0zm-8.00977 2.99609a.50005.50005 0 0 0 -.34961.15234l-3 3a.50005.50005 0 0 0 0 .70704l3 3a.50005.50005 0 0 0 .35938.15234.50005.50005 0 0 0 .34766-.85938l-2.64649-2.64648 2.64649-2.64648a.50005.50005 0 0 0 -.35743-.85938zm7.00977.006a.50005.50005 0 0 0 -.35938.15234l-1 1a.50005.50005 0 1 0 .70704.70704l1-1a.50005.50005 0 0 0 -.34766-.85938zm-3.0293 2.00391a.50005.50005 0 0 0 -.0976.0176l-1 .25a.50005.50005 0 1 0 .24218.96876l1-.25a.50005.50005 0 0 0 -.0937-.98633.50005.50005 0 0 0 -.0508 0zm-3 .75a.50005.50005 0 0 0 -.0976.0176l-1 .25a.50005.50005 0 1 0 .24218.96876l1-.25a.50005.50005 0 0 0 -.0937-.98633.50005.50005 0 0 0 -.0508 0z" transform="matrix(-1 0 0 1 677 -550)"/><path d="m176.5-32c.8225 0 1.5-.677495 1.5-1.5s-.6775-1.5-1.5-1.5-1.5.677495-1.5 1.5.6775 1.5 1.5 1.5z"/></g></g></svg>