<svg height="1600" viewBox="0 0 1600 1600" width="1600" xmlns="http://www.w3.org/2000/svg" xmlns:inkscape="http://www.inkscape.org/namespaces/inkscape" xmlns:sodipodi="http://sodipodi.sourceforge.net/DTD/sodipodi-0.dtd"><sodipodi:namedview pagecolor="#303030" showgrid="true"><inkscape:grid id="grid5" units="px" spacingx="100" spacingy="100" color="#4772b3" opacity="0.2" visible="true" /></sodipodi:namedview><g fill="#fff"><g enable-background="new" transform="translate(-233 -365)"><path d="m1028 1556c-3.2833 0-6 2.4414-6 5.5 0 1.7056.9046 3.146 2.1523 4.3594l.9942.9941a.50004997.50004997 0 0 0 .3027.1485.50004997.50004997 0 0 0 .051.998h5a.50004997.50004997 0 0 0 .045-.998.50004997.50004997 0 0 0 .3086-.1485l.9981-.998c1.2122-1.1985 2.1465-2.6518 2.1465-4.3535 0-3.0586-2.7167-5.5-6-5.5zm0 1c2.7919 0 5 2.0358 5 4.5 0 1.3342-.7428 2.5488-1.8516 3.6445l-1 1a.50004997.50004997 0 0 0 .2793.8535h-4.8594a.50004997.50004997 0 0 0 .2871-.8535l-1-1a.50004997.50004997 0 0 0 -.01-.01c-1.1397-1.1082-1.8477-2.2864-1.8477-3.6406 0-2.4642 2.2081-4.5 5-4.5zm-2.5 12a.50004997.50004997 0 1 0 0 1h1.5v.5a.50004997.50004997 0 0 0 .5.5h1a.50004997.50004997 0 0 0 .5-.5v-.5h1.5a.50004997.50004997 0 1 0 0-1z"/><path d="m1025.4902 1561.0059a.50005.50005 0 0 0 -.3437.8476l.8535.8535v1.543a.50005.50005 0 1 0 1 0v-1.25h2v1.25a.50005.50005 0 1 0 1 0v-1.543l.8535-.8535a.50005.50005 0 0 0 -.707-.707l-.8535.8535h-2.586l-.8535-.8535a.50005.50005 0 0 0 -.3633-.1406z" opacity=".6"/></g><g enable-background="new" transform="matrix(100 0 0 100 -29900 -51400.60249999999)"><g enable-background="new" transform="matrix(1 0 0 -1 -42 813.007)"><path d="m346 286.00391c0-1.09977-.90081-2.00196-2-2.00196s-2 .90219-2 2.00196c0 1.09976.90081 2.0039 2 2.0039s2-.90414 2-2.0039zm-1 0c0 .56041-.44233 1.0039-1 1.0039s-1-.44349-1-1.0039.44233-1.00196 1-1.00196 1 .44155 1 1.00196z"/><path d="m356 296.00391c0-1.09734-.90199-1.9961-2-1.9961s-2 .89876-2 1.9961c0 1.09733.90199 1.99609 2 1.99609s2-.89876 2-1.99609z"/></g><path d="m306.49609 516.00391a.50005.50005 0 1 0 0 1h2a.50005.50005 0 1 0 0-1zm-2.00976.99414a.50005.50005 0 0 0 -.34375.15234l-1 1a.50005.50005 0 1 0 .70703.70703l1-1a.50005.50005 0 0 0 -.36328-.85937zm-1.00195 3a.50005.50005 0 0 0 -.34766.85937l1 1a.50005.50005 0 1 0 .70703-.70703l-1-1a.50005.50005 0 0 0 -.35937-.15234zm3.01171 2.00586a.50005.50005 0 1 0 0 1h1a.50005.50005 0 1 0 0-1zm2.9961.99414a.50005.50005 0 0 0 -.34961.85937l1 1a.50005.50005 0 1 0 .70703-.70703l-1-1a.50005.50005 0 0 0 -.35742-.15234zm.99414 3a.50005.50005 0 0 0 -.34375.15234l-1 1a.50005.50005 0 1 0 .70703.70703l1-1a.50005.50005 0 0 0 -.36328-.85937zm-4.9961 1.00586a.50005.50005 0 1 0 0 1h2a.50005.50005 0 1 0 0-1z"/></g></g></svg>