<svg height="1600" viewBox="0 0 1600 1600" width="1600" xmlns="http://www.w3.org/2000/svg" xmlns:inkscape="http://www.inkscape.org/namespaces/inkscape" xmlns:sodipodi="http://sodipodi.sourceforge.net/DTD/sodipodi-0.dtd"><sodipodi:namedview pagecolor="#303030" showgrid="true"><inkscape:grid id="grid5" units="px" spacingx="100" spacingy="100" color="#4772b3" opacity="0.2" visible="true" /></sodipodi:namedview><g fill="#fff"><g enable-background="new" transform="matrix(100 0 0 100 -17298.903 5699.322)"><path d="m306.99023 243.60938a.66673335.66673335 0 0 0 -.65625.67578v4.99023h-4.99023a.666995.666995 0 1 0 0 1.33399h4.99023v4.99023a.66673335.66673335 0 1 0 1.33204 0v-4.99023h4.99023a.666995.666995 0 1 0 0-1.33399h-4.99023v-4.99023a.66673335.66673335 0 0 0 -.67579-.67578z" transform="matrix(-.53033 -.53033 -.53033 .53033 472.858 -15.2358)"/><path d="m177.49219-56.007812a.50005.50005 0 0 0 -.49219.507812v6a.50005.50005 0 1 0 1 0v-2.5h.5a.50005.50005 0 1 0 0-1h-.5v-2.5a.50005.50005 0 0 0 -.50781-.507812zm7.00195.002a.50005.50005 0 0 0 -.34766.859375l2.64649 2.646484-2.64649 2.646484a.50005.50005 0 1 0 .70704.707032l3-3a.50005.50005 0 0 0 0-.707032l-3-3a.50005.50005 0 0 0 -.35938-.152343zm-3.99414 3.005812a.50005.50005 0 1 0 0 1h1a.50005.50005 0 1 0 0-1zm3 0a.50005.50005 0 1 0 0 1h1a.50005.50005 0 1 0 0-1z" opacity=".6"/></g></g></svg>