<svg height="1600" viewBox="0 0 1500 1600" width="1500" xmlns="http://www.w3.org/2000/svg" xmlns:inkscape="http://www.inkscape.org/namespaces/inkscape" xmlns:sodipodi="http://sodipodi.sourceforge.net/DTD/sodipodi-0.dtd"><sodipodi:namedview pagecolor="#303030" showgrid="true"><inkscape:grid id="grid5" units="px" spacingx="100" spacingy="100" color="#4772b3" opacity="0.2" visible="true" /></sodipodi:namedview><g fill="#fff"><g enable-background="new" transform="matrix(100 0 0 -100 -17399.996 -2000)"><path d="m520.49414 515a.50005.50005 0 0 0 -.34766.85938l2.64649 2.64648-2.64649 2.64648a.50005.50005 0 1 0 .70704.70704l3-3a.50005.50005 0 0 0 0-.70704l-3-3a.50005.50005 0 0 0 -.35938-.15234zm.0332 2.99414a.50005.50005 0 0 0 -.14843.0215l-1 .25a.50005.50005 0 0 0 .0937.98633.50005.50005 0 0 0 .14843-.0176l1-.25a.50005.50005 0 0 0 -.0937-.99024zm-3 .75a.50005.50005 0 0 0 -.14843.0215l-1 .25a.50005.50005 0 0 0 .0937.98633.50005.50005 0 0 0 .14843-.0176l1-.25a.50005.50005 0 0 0 -.0937-.99024zm-3.02343 1.24805a.50005.50005 0 0 0 -.35743.15429l-1 1a.50005.50005 0 0 0 .34766.85938.50005.50005 0 0 0 .35938-.15234l1-1a.50005.50005 0 0 0 -.34961-.86133zm-1.9961 3a.50005.50005 0 0 0 -.50781.50781v1a.50005.50005 0 0 0 .49219.50781.50005.50005 0 0 0 .50781-.50781v-1a.50005.50005 0 0 0 -.49219-.50781z" transform="matrix(1 0 0 -1 -336 494)"/><path d="m176.5-32c.8225 0 1.5-.677495 1.5-1.5s-.6775-1.5-1.5-1.5-1.5.677495-1.5 1.5.6775 1.5 1.5 1.5z"/></g></g></svg>