<svg height="1600" viewBox="0 0 1600 1600" width="1600" xmlns="http://www.w3.org/2000/svg" xmlns:inkscape="http://www.inkscape.org/namespaces/inkscape" xmlns:sodipodi="http://sodipodi.sourceforge.net/DTD/sodipodi-0.dtd"><sodipodi:namedview pagecolor="#303030" showgrid="true"><inkscape:grid id="grid5" units="px" spacingx="100" spacingy="100" color="#4772b3" opacity="0.2" visible="true" /></sodipodi:namedview><g fill="#fff"><path d="m428.25 452c-.6506 0-1.23633.19727-1.64453.60547-.4083.4081-.60567.99393-.60547 1.64453v9.5c.0002.6505.19727 1.23643.60547 1.64453.4081.4082.99393.60547 1.64453.60547h.75v-1h-.75c-.4574 0-.7477-.1227-.9375-.3125s-.3124-.48-.3125-.9375v-9.5c-.0001-.4574.1227-.7477.3125-.9375s.4801-.3125.9375-.3125h.75v-1zm8.75 0v1h.75c.4574 0 .7477.1227.9375.3125s.3125.4801.3125.9375v9.5c0 .4574-.1227.7477-.3125.9375s-.4801.3125-.9375.3125h-.75v1h.75c.6506 0 1.23643-.19727 1.64453-.60547.4082-.4081.60547-.99393.60547-1.64453v-9.5c0-.6506-.19727-1.23643-.60547-1.64453-.4081-.4082-.99393-.60547-1.64453-.60547zm-4 4v2h-1.5a.50005.50005 0 0 0 -.5.5v1.5h-2v1h2v1.5a.50005.50005 0 0 0 .5.5h1.5v2h1v-2h1.5a.50005.50005 0 0 0 .5-.5v-1.5h2v-1h-2v-1.5a.50005.50005 0 0 0 -.5-.5h-1.5v-2zm-1 3h3v3h-3z" transform="matrix(100 0 0 100 -42500 -45100)"/></g></svg>