<svg height="1400" viewBox="0 0 1600 1400" width="1600" xmlns="http://www.w3.org/2000/svg" xmlns:inkscape="http://www.inkscape.org/namespaces/inkscape" xmlns:sodipodi="http://sodipodi.sourceforge.net/DTD/sodipodi-0.dtd"><sodipodi:namedview pagecolor="#303030" showgrid="true"><inkscape:grid id="grid5" units="px" spacingx="100" spacingy="100" color="#4772b3" opacity="0.2" visible="true" /></sodipodi:namedview><g fill="#fff"><g enable-background="new" transform="matrix(100 0 0 100 -17299.995 7700.29300000001)"><path d="m184.49414-76.005859c-.4494.000088-.67059.546839-.34766.859375l2.64649 2.646484-2.64649 2.646484c-.4905.471264.23578 1.197538.70704.707032l3-3c.19518-.195265.19518-.511767 0-.707032l-3-3c-.0942-.09737-.2239-.152345-.35938-.152343zm-9.00195 3.005859c-.27615.0043-.49651.231666-.49219.507812v1c-.01.676161 1.00956.676161 1 0v-1c.004-.282265-.22554-.512227-.50781-.507812zm5.00781 0c-.67616-.0096-.67616 1.009563 0 1h1c.67616.0096.67616-1.009563 0-1zm3 0c-.67616-.0096-.67616 1.009563 0 1h1c.67616.0096.67616-1.009563 0-1zm-6 .0078c-.67616-.0096-.67616 1.009563 0 1h1c.67616.0096.67616-1.009563 0-1zm-2.00781 2.9922c-.27615.0043-.49651.231666-.49219.507812v1c-.01.676161 1.00956.676161 1 0v-1c.004-.282265-.22554-.512227-.50781-.507812z"/><path d="m175.5-67c-.8225 0-1.5.677495-1.5 1.5s.6775 1.5 1.5 1.5 1.5-.677495 1.5-1.5-.6775-1.5-1.5-1.5z"/></g></g></svg>