<svg height="1400" viewBox="0 0 1600 1400" width="1600" xmlns="http://www.w3.org/2000/svg" xmlns:inkscape="http://www.inkscape.org/namespaces/inkscape" xmlns:sodipodi="http://sodipodi.sourceforge.net/DTD/sodipodi-0.dtd"><sodipodi:namedview pagecolor="#303030" showgrid="true"><inkscape:grid id="grid5" units="px" spacingx="100" spacingy="100" color="#4772b3" opacity="0.2" visible="true" /></sodipodi:namedview><g fill="#fff"><g enable-background="new" transform="translate(-233 -365)"><path d="m1028 1556c-3.2833 0-6 2.4414-6 5.5 0 1.7056.9046 3.146 2.1523 4.3594l.9942.9941a.50004997.50004997 0 0 0 .3027.1485.50004997.50004997 0 0 0 .051.998h5a.50004997.50004997 0 0 0 .045-.998.50004997.50004997 0 0 0 .3086-.1485l.9981-.998c1.2122-1.1985 2.1465-2.6518 2.1465-4.3535 0-3.0586-2.7167-5.5-6-5.5zm0 1c2.7919 0 5 2.0358 5 4.5 0 1.3342-.7428 2.5488-1.8516 3.6445l-1 1a.50004997.50004997 0 0 0 .2793.8535h-4.8594a.50004997.50004997 0 0 0 .2871-.8535l-1-1a.50004997.50004997 0 0 0 -.01-.01c-1.1397-1.1082-1.8477-2.2864-1.8477-3.6406 0-2.4642 2.2081-4.5 5-4.5zm-2.5 12a.50004997.50004997 0 1 0 0 1h1.5v.5a.50004997.50004997 0 0 0 .5.5h1a.50004997.50004997 0 0 0 .5-.5v-.5h1.5a.50004997.50004997 0 1 0 0-1z"/><path d="m1025.4902 1561.0059a.50005.50005 0 0 0 -.3437.8476l.8535.8535v1.543a.50005.50005 0 1 0 1 0v-1.25h2v1.25a.50005.50005 0 1 0 1 0v-1.543l.8535-.8535a.50005.50005 0 0 0 -.707-.707l-.8535.8535h-2.586l-.8535-.8535a.50005.50005 0 0 0 -.3633-.1406z" opacity=".6"/></g><g enable-background="new" transform="matrix(100 0 0 100 -17299.995 7700.29300000001)"><path d="m184.49414-76.005859c-.4494.000088-.67059.546839-.34766.859375l2.64649 2.646484-2.64649 2.646484c-.4905.471264.23578 1.197538.70704.707032l3-3c.19518-.195265.19518-.511767 0-.707032l-3-3c-.0942-.09737-.2239-.152345-.35938-.152343zm-9.00195 3.005859c-.27615.0043-.49651.231666-.49219.507812v1c-.01.676161 1.00956.676161 1 0v-1c.004-.282265-.22554-.512227-.50781-.507812zm5.00781 0c-.67616-.0096-.67616 1.009563 0 1h1c.67616.0096.67616-1.009563 0-1zm3 0c-.67616-.0096-.67616 1.009563 0 1h1c.67616.0096.67616-1.009563 0-1zm-6 .0078c-.67616-.0096-.67616 1.009563 0 1h1c.67616.0096.67616-1.009563 0-1zm-2.00781 2.9922c-.27615.0043-.49651.231666-.49219.507812v1c-.01.676161 1.00956.676161 1 0v-1c.004-.282265-.22554-.512227-.50781-.507812z"/><path d="m175.5-67c-.8225 0-1.5.677495-1.5 1.5s.6775 1.5 1.5 1.5 1.5-.677495 1.5-1.5-.6775-1.5-1.5-1.5z"/></g></g></svg>