<svg height="1600" viewBox="0 0 1600 1600" width="1600" xmlns="http://www.w3.org/2000/svg" xmlns:inkscape="http://www.inkscape.org/namespaces/inkscape" xmlns:sodipodi="http://sodipodi.sourceforge.net/DTD/sodipodi-0.dtd"><sodipodi:namedview pagecolor="#303030" showgrid="true"><inkscape:grid id="grid5" units="px" spacingx="100" spacingy="100" color="#4772b3" opacity="0.2" visible="true" /></sodipodi:namedview><g fill="#fff"><g enable-background="new" transform="translate(-233 -365)"><path d="m1028 1556c-3.2833 0-6 2.4414-6 5.5 0 1.7056.9046 3.146 2.1523 4.3594l.9942.9941a.50004997.50004997 0 0 0 .3027.1485.50004997.50004997 0 0 0 .051.998h5a.50004997.50004997 0 0 0 .045-.998.50004997.50004997 0 0 0 .3086-.1485l.9981-.998c1.2122-1.1985 2.1465-2.6518 2.1465-4.3535 0-3.0586-2.7167-5.5-6-5.5zm0 1c2.7919 0 5 2.0358 5 4.5 0 1.3342-.7428 2.5488-1.8516 3.6445l-1 1a.50004997.50004997 0 0 0 .2793.8535h-4.8594a.50004997.50004997 0 0 0 .2871-.8535l-1-1a.50004997.50004997 0 0 0 -.01-.01c-1.1397-1.1082-1.8477-2.2864-1.8477-3.6406 0-2.4642 2.2081-4.5 5-4.5zm-2.5 12a.50004997.50004997 0 1 0 0 1h1.5v.5a.50004997.50004997 0 0 0 .5.5h1a.50004997.50004997 0 0 0 .5-.5v-.5h1.5a.50004997.50004997 0 1 0 0-1z"/><path d="m1025.4902 1561.0059a.50005.50005 0 0 0 -.3437.8476l.8535.8535v1.543a.50005.50005 0 1 0 1 0v-1.25h2v1.25a.50005.50005 0 1 0 1 0v-1.543l.8535-.8535a.50005.50005 0 0 0 -.707-.707l-.8535.8535h-2.586l-.8535-.8535a.50005.50005 0 0 0 -.3633-.1406z" opacity=".6"/></g><g enable-background="new" transform="matrix(100 0 0 100 -46700.489 -11500.975)"><path d="m468.5 116a.50005.50005 0 0 0 -.5.5v10a.50005.50005 0 0 0 .5.5h7a.50005.50005 0 1 0 0-1h-6.5v-9h9v6.5a.50005.50005 0 1 0 1 0v-7a.50005.50005 0 0 0 -.5-.5z" opacity=".6"/><path d="m475.99635 122a1.99635 1.99635 0 0 1 -1.99635 1.99635 1.99635 1.99635 0 0 1 -1.99635-1.99635 1.99635 1.99635 0 0 1 1.99635-1.99635 1.99635 1.99635 0 0 1 1.99635 1.99635zm.50756 2.01562c-.44709.002-.6672.54472-.34766.85743l4.14648 4.14648-2.80273-.01953c-.67616-.01-.67616 1.00956 0 1l4.00977.0195c.27613-.00003.49997-.22387.5-.5l-.00977-4.0195c.01-.67616-1.00956-.67616-1 0l.01 2.8125-4.14649-4.14648c-.0945-.0966-.22417-.15091-.35937-.1504z"/></g></g></svg>