<svg height="1600" viewBox="0 0 1600 1600" width="1600" xmlns="http://www.w3.org/2000/svg" xmlns:inkscape="http://www.inkscape.org/namespaces/inkscape" xmlns:sodipodi="http://sodipodi.sourceforge.net/DTD/sodipodi-0.dtd"><sodipodi:namedview pagecolor="#303030" showgrid="true"><inkscape:grid id="grid5" units="px" spacingx="100" spacingy="100" color="#4772b3" opacity="0.2" visible="true" /></sodipodi:namedview><g fill="#fff"><g enable-background="new" transform="matrix(100 0 0 100 -46700.489 -11500.975)"><path d="m468.5 116a.50005.50005 0 0 0 -.5.5v10a.50005.50005 0 0 0 .5.5h7a.50005.50005 0 1 0 0-1h-6.5v-9h9v6.5a.50005.50005 0 1 0 1 0v-7a.50005.50005 0 0 0 -.5-.5z" opacity=".6"/><path d="m475.99635 122a1.99635 1.99635 0 0 1 -1.99635 1.99635 1.99635 1.99635 0 0 1 -1.99635-1.99635 1.99635 1.99635 0 0 1 1.99635-1.99635 1.99635 1.99635 0 0 1 1.99635 1.99635zm.50756 2.01562c-.44709.002-.6672.54472-.34766.85743l4.14648 4.14648-2.80273-.01953c-.67616-.01-.67616 1.00956 0 1l4.00977.0195c.27613-.00003.49997-.22387.5-.5l-.00977-4.0195c.01-.67616-1.00956-.67616-1 0l.01 2.8125-4.14649-4.14648c-.0945-.0966-.22417-.15091-.35937-.1504z"/></g></g></svg>