<svg id="svg5" height="1500" viewBox="0 0 1400 1500" width="1400" xmlns="http://www.w3.org/2000/svg" xmlns:inkscape="http://www.inkscape.org/namespaces/inkscape" xmlns:sodipodi="http://sodipodi.sourceforge.net/DTD/sodipodi-0.dtd"><sodipodi:namedview pagecolor="#303030" showgrid="true"><inkscape:grid id="grid5" units="px" spacingx="100" spacingy="100" color="#4772b3" opacity="0.2" visible="true" /></sodipodi:namedview><g fill="#fff" transform="matrix(100 0 0 100 -69899.982 -172101.13)"><path id="path2" d="m701 1726v7.25c0 .4861.17047.94.49023 1.2598.31977.3197.77366.4902 1.25977.4902h6.5c.48611 0 .94-.1705 1.25977-.4902.31976-.3198.49023-.7737.49023-1.2598v-7.25h-1v7.25c0 .2639-.0795.435-.19727.5527-.11773.1178-.28884.1973-.55273.1973h-6.5c-.26389 0-.435-.08-.55273-.1973-.11774-.1177-.19727-.2888-.19727-.5527v-7.25zm3.5-4c-.27613 0-.49997.2239-.5.5v1.5h-3.5c-.67616-.01-.67616 1.0096 0 1h11c.67616.01.67616-1.0096 0-1h-3.5v-1.5c-.00003-.2761-.22387-.5-.5-.5zm.5 1h2v1h-2z"/><path id="path3" d="m704.49219 1726.9922c-.27614 0-.4965.2317-.49219.5078v4c-.01.6762 1.00956.6762 1 0v-4c.004-.2823-.22555-.5122-.50781-.5078zm3 0c-.27614 0-.4965.2317-.49219.5078v4c-.01.6762 1.00956.6762 1 0v-4c.004-.2823-.22555-.5122-.50781-.5078z" opacity=".6"/></g></svg>