<svg height="1200" viewBox="0 0 1600 1200" width="1600" xmlns="http://www.w3.org/2000/svg" xmlns:inkscape="http://www.inkscape.org/namespaces/inkscape" xmlns:sodipodi="http://sodipodi.sourceforge.net/DTD/sodipodi-0.dtd"><sodipodi:namedview pagecolor="#303030" showgrid="true"><inkscape:grid id="grid5" units="px" spacingx="100" spacingy="100" color="#4772b3" opacity="0.2" visible="true" /></sodipodi:namedview><g fill="#fff"><g enable-background="new" opacity=".6" transform="matrix(100 0 0 100 -79799.601 -43300.158)"><path d="m803.49219 433.99219a.50005.50005 0 0 0 -.49219.50781v4a.50005.50005 0 1 0 1 0v-4a.50005.50005 0 0 0 -.50781-.50781zm4.99804 4.00586a.50005.50005 0 0 0 -.49414.50586v5a.50005.50005 0 1 0 1 0v-5a.50005.50005 0 0 0 -.50586-.50586z" opacity=".6"/><path d="m514.5 497.99805a.50004997.50004997 0 0 0 -.35352.14453l-4 4a.50004997.50004997 0 0 0 -.14648.35547v5a.50004997.50004997 0 0 0 .5.5l9 .006a.50004997.50004997 0 0 0 .35547-.14649l4-4.0039a.50004997.50004997 0 0 0 .14453-.35561v-5a.50004997.50004997 0 0 0 -.5-.5zm.20898 1h7.5879l-3.00391 3.00586-7.58985-.00391zm8.29102.70898v3.58399l-3.70703 3.71289-8.29297-.00391v-4l8.5.004a.50004997.50004997 0 0 0 .35547-.14844z" opacity="1" transform="translate(288.996 -63.999)"/></g></g></svg>