<svg id="svg1" height="1500" viewBox="0 0 1100 1500" width="1100" xmlns="http://www.w3.org/2000/svg" xmlns:inkscape="http://www.inkscape.org/namespaces/inkscape" xmlns:sodipodi="http://sodipodi.sourceforge.net/DTD/sodipodi-0.dtd"><sodipodi:namedview pagecolor="#303030" showgrid="true"><inkscape:grid id="grid5" units="px" spacingx="100" spacingy="100" color="#4772b3" opacity="0.2" visible="true" /></sodipodi:namedview><g id="g1" fill="#fff" fill-opacity=".6" transform="matrix(1 .00001161 -.00001161 1 -500.031554 100.014621)"><path id="path1" d="m1049.9925-.02681067v.0019531c-192.7069.00200313-349.99815 157.29706757-349.99595 350.00406757l.002 349.99804-50.7168.00059c-27.28114.38793-49.2777 22.62402-49.28067 49.99667l-.00006 499.99999c.003 27.613 22.38758 49.9945 50.00058 49.9975l799.99998.0005c27.613 0 49.9964-22.3896 49.9994-50.0026l.0001-499.99998c0-27.613-22.3876-49.99447-50.0006-49.99747l-432.3906-.00084-217.61133.004-.002-349.99805c0-138.663 111.33408-250.001288 249.99715-250.002898 138.663-.002 250.0013 111.334098 250.0029 249.997098v50l-.1777.10938 100.1777-.11249v-50c.01-192.707-157.2971-349.99818067-350.0041-349.99594067zm-349.99072 800.00211067 700.00002-.002.0007 399.99997-699.99998.0003zm299.99922 99.99652.0004 199.99998 100 .0008-.0004-199.99999z" fill="#fff" fill-opacity=".6" stroke-width="100"/></g></svg>