<svg height="1600" viewBox="0 0 1600 1600" width="1600" xmlns="http://www.w3.org/2000/svg" xmlns:inkscape="http://www.inkscape.org/namespaces/inkscape" xmlns:sodipodi="http://sodipodi.sourceforge.net/DTD/sodipodi-0.dtd"><sodipodi:namedview pagecolor="#303030" showgrid="true"><inkscape:grid id="grid5" units="px" spacingx="100" spacingy="100" color="#4772b3" opacity="0.2" visible="true" /></sodipodi:namedview><g fill="#fff"><path d="m351.50586 598.99414a.50005.50005 0 0 0 -.5.5v.79297l-2.70703 2.70703h-2.79297a.50005.50005 0 0 0 -.35352.14648l-1 1a.50005.50005 0 0 0 0 .70704l6 6a.50005.50005 0 0 0 .70704 0l1-1a.50005.50005 0 0 0 .14648-.35352v-2.79297l2.70703-2.70703h.79297a.50005.50005 0 0 0 .5-.5v-1a.50005.50005 0 0 0 -.14648-.35352l-3-3a.50005.50005 0 0 0 -.35352-.14648zm.5 1h.29297l2.70703 2.70703v.29297h-.5a.50005.50005 0 0 0 -.35352.14648l-3 3a.50005.50005 0 0 0 -.14648.35352v2.79297l-.5.5-5.29297-5.29297.5-.5h2.79297a.50005.50005 0 0 0 .35352-.14648l3-3a.50005.50005 0 0 0 .14648-.35352zm-5.75977 8.24609a.50005.50005 0 0 0 -.34375.15039l-3.75 3.75a.50005.50005 0 1 0 .70704.70704l3.75-3.75a.50005.50005 0 0 0 -.36329-.85743z" opacity=".6" transform="matrix(100 0 0 100 -34100.23499999999 -59799.765)"/></g></svg>