<svg height="1700" viewBox="0 0 1700 1700" width="1700" xmlns="http://www.w3.org/2000/svg" xmlns:inkscape="http://www.inkscape.org/namespaces/inkscape" xmlns:sodipodi="http://sodipodi.sourceforge.net/DTD/sodipodi-0.dtd"><sodipodi:namedview pagecolor="#303030" showgrid="true"><inkscape:grid id="grid5" units="px" spacingx="100" spacingy="100" color="#4772b3" opacity="0.2" visible="true" /></sodipodi:namedview><g fill="#fff"><g enable-background="new" transform="matrix(100 0 0 100 -75700.047 900.15500000001)"><path d="m432.96875 577.99609a.50015801.499942 0 0 0 -.0488.006.50015801.499942 0 0 0 -.0879.0215c-.22504.005-.45054.00044-.67383.0273-1.50924.18184-2.95823.85326-4.0957 1.98242-2.27494 2.25834-2.72493 5.78034-1.08984 8.53711 1.26078 2.1257 3.51721 3.36761 5.89257 3.41407.00065.00001.001-.00002.002 0a.50015801.499942 0 0 0 .32031-.01c.60037-.016 1.20402-.0867 1.80078-.26367a.50073965.5005234 0 1 0 -.28516-.95899c-.52501.15567-1.05482.21548-1.58203.22657-.32205-.21838-.86207-.82158-1.28906-1.77344-.15847-.35327-.29568-.76712-.41992-1.20508h2.08783a.50043241.50021629 0 1 0 0-1h-2.31641c-.10902-.61479-.18359-1.27474-.18359-1.99988 0-.72848.074-1.38791.18359-2h3.5625c.15752.77172.25391 1.61389.25391 2.5a.50015801.499942 0 1 0 1 0c0-.883-.0936-1.71998-.24023-2.5h2.88671c.41677 1.17713.47801 2.4832.0937 3.74609a.50015801.499942 0 1 0 .95704.28907c.93293-3.06617-.34127-6.37791-3.08789-8.03125-1.07945-.64978-2.27964-.96925-3.47657-.99219a.50015801.499942 0 0 0 -.14648-.0156.50015801.499942 0 0 0 -.0176 0zm.0273 1.13086c.3107.30928.79344.97648 1.16602 1.90039.12076.29947.23379.62673.33594.97266h-3.08399c.12298-.42695.25956-.8299.41602-1.17578.37038-.81882.82294-1.39159 1.16601-1.69727zm1.33789.0312c.60769.13919 1.20278.36589 1.75977.70118.89497.53872 1.60631 1.28287 2.10156 2.14062h-2.66797c-.12978-.47868-.2726-.9368-.4375-1.3457-.23548-.58396-.48644-1.07928-.75586-1.4961zm-2.70507.0156c-.24979.35295-.49203.75628-.71094 1.24023-.21038.4651-.38853 1.0058-.53906 1.58594h-2.5586c.26045-.4489.56294-.87823.94531-1.25781.81076-.80484 1.80942-1.32143 2.86329-1.56836zm-4.26758 3.80664a.50043241.50021629 0 0 0 .14066.01961h2.66993c-.10178.62227-.17188 1.28017-.17188 2 0 .71751.0707 1.37536.17188 2h-2.66993a.50043241.50021629 0 0 0 -.14648.0234c-.47566-1.32219-.45827-2.74775.006-4.04297zm.4434 5.01961h2.57226c.15111.59053.32906 1.14077.54102 1.61328.21198.47256.44409.86643.68555 1.21289-1.53987-.36784-2.91769-1.3294-3.76954-2.76562-.0116-.0196-.0179-.0409-.0293-.0606z" fill-rule="evenodd" opacity=".7" transform="matrix(.9999975975 0 0 .9999996138 332.0065548 -585.999861073)"/><path d="m767.49023 1c-.3497.00648-.58488.3607678-.45507.6855469l2 5c.1836.4628079.85703.4022128.95507-.085937l.43946-2.1738282 2.16797-.4355468c.48875-.096787.55077-.7707095.0879-.9550782l-5-2c-.06211-.024652-.12853-.03660629-.19533-.0351567z"/></g></g></svg>