<svg id="svg8" height="1000" viewBox="0 0 1600 1000" width="1600" xmlns="http://www.w3.org/2000/svg" xmlns:inkscape="http://www.inkscape.org/namespaces/inkscape" xmlns:sodipodi="http://sodipodi.sourceforge.net/DTD/sodipodi-0.dtd"><sodipodi:namedview pagecolor="#303030" showgrid="true"><inkscape:grid id="grid5" units="px" spacingx="100" spacingy="100" color="#4772b3" opacity="0.2" visible="true" /></sodipodi:namedview><g id="g2" stroke-opacity=".6" stroke-width="242.281"><path id="path5-7" d="m1450.2779 250.00247-449.974.246-.1689 499.70011 450.039.01z" fill="#fff" opacity=".273179"/><g id="g1" fill="#fff"><path id="path2-2" d="m1500.038 799.97328-.023-600.0898-499.8652.0273v-49.9746l-50.03311-.12305.0215-49.919941-700.22661-.006c-77.31649.336911-149.87639 50.301971-149.88279 150.232441l-.03299 499.06645c-.01 100.4827 74.717495 150.1015 150.189385 150.7929l699.95125-.043-.01-50.0547 50.00567.016.01-49.9511zm-49.9575-550.01429.1656 499.74979-450.1845.09.044-499.80712z"/><path id="path4-0" d="m1298.8935 573.34608 1.5408 76.65099-74.0119.0721-.3931-76.21873z"/><path id="path4-0-3" d="m1300.142 349.85641.087 77.15024-73.9275.16376-.077-77.3933z"/></g><path id="path1334" d="m900.06614 499.7871-77.73456-44.89113v32.02315h-397.32289l77.3632-81.73493c6.584-5.27739 15.1983-8.97947 24.0598-9.18454 35.8479 0 57.1361-.009 64.9721-.0249 5.3116 15.13305 19.57932 26.05601 36.54092 26.05601 21.45747 0 38.87117-17.4121 38.87117-38.87739 0-21.4746-17.41213-38.88048-38.87117-38.88048-16.9616 0-31.22932 10.91674-36.54092 26.03736l-64.2108-.0108c-17.4028 0-35.6383 9.54807-47.2449 20.74134.317-.33246.6464-.68667-.019.007-.2454.27653-82.07981 86.70937-82.07981 86.70937-6.5699 5.26962-15.1796 8.9484-24.0348 9.15969h-44.9471c-5.9579-29.69284-32.1785-52.06384-63.6315-52.06384-35.8604 0-64.9287 29.06831-64.9287 64.91784 0 35.86039 29.0683 64.93026 64.9287 64.93026 31.4592 0 57.6799-22.38963 63.6378-52.10733h44.1593c.1134 0 .2269.007.3418 0h97.67271c8.8381.22527 17.437 3.90871 24.0007 9.18453 0 0 81.8157 86.42663 82.0689 86.70627.6556.69443.3295.33245 0 .007 11.6065 11.19172 29.84966 20.73358 47.25566 20.73358l61.88067-.014v26.06377h77.75471v-77.74699h-77.75471v26.02959s-16.29821-.0295-62.6389-.0295c-8.86294-.20352-17.48656-3.90095-24.06733-9.17833l-77.3804-81.75045h300.16479v32.07441z" fill-opacity=".381579" stroke-width="1.55354"/></g></svg>