<svg height="1600" viewBox="0 0 1600 1600" width="1600" xmlns="http://www.w3.org/2000/svg" xmlns:inkscape="http://www.inkscape.org/namespaces/inkscape" xmlns:sodipodi="http://sodipodi.sourceforge.net/DTD/sodipodi-0.dtd"><sodipodi:namedview pagecolor="#303030" showgrid="true"><inkscape:grid id="grid5" units="px" spacingx="100" spacingy="100" color="#4772b3" opacity="0.2" visible="true" /></sodipodi:namedview><g fill="#fff"><path d="m495.50391 451.99219c-1.93006 0-3.50391 1.57292-3.50391 3.5v2c0 .41666.19292.77495.45898 1.04101.26607.26607.62435.45899 1.04102.45899a.50005.50005 0 1 0 0-1c-.0833 0-.22505-.0571-.33398-.16602-.10894-.10893-.16602-.25065-.16602-.33398v-2c0-1.38664 1.11314-2.5 2.50391-2.5h1.0039c1.39077 0 2.50196 1.11336 2.50196 2.5v2c0 .0833-.0571.22505-.16602.33398-.10893.10893-.25065.16602-.33398.16602a.50005.50005 0 1 0 0 1c.41666 0 .77494-.19292 1.04101-.45899.26607-.26606.45899-.62435.45899-1.04101v-2c0-1.92708-1.57191-3.5-3.50196-3.5zm3.94921 7.41406a.50005.50005 0 0 0 -.48632.33203c-.17381.48217-.35767 1.04392-.75391 1.48047s-.98986.78906-2.17578.78906c-1.18761 0-1.78805-.34711-2.19141-.77929-.40336-.43219-.59802-.98975-.78515-1.47266a.50005.50005 0 0 0 -.67578-.27344c-.97162.44606-1.78522.89986-2.38868 1.45508-.60345.55522-.99609 1.25324-.99609 2.05469v2.5a.50005.50005 0 0 0 .5.5h13.00977a.50005.50005 0 0 0 .5-.5v-2.5c0-.79711-.38431-1.49976-.98243-2.06446-.59811-.56469-1.40897-1.02891-2.38086-1.47461a.50005.50005 0 0 0 -.19336-.0469zm.17579 1.19922c.68529.34567 1.33558.69455 1.71289 1.05078.46505.43906.66797.84399.66797 1.33594v2h-12.00977v-2c0-.49365.20477-.8868.67383-1.31836.38208-.35154 1.03995-.69804 1.73437-1.04492.1643.40983.28954.83601.70508 1.28125.58146.623 1.5239 1.09765 2.92383 1.09765 1.40162 0 2.34196-.48473 2.91601-1.11719.40651-.44786.51938-.87307.67579-1.28515z" transform="matrix(100 0 0 100 -48800.489 -45099.219)"/></g></svg>