<svg height="1600" viewBox="0 0 1600 1600" width="1600" xmlns="http://www.w3.org/2000/svg" xmlns:inkscape="http://www.inkscape.org/namespaces/inkscape" xmlns:sodipodi="http://sodipodi.sourceforge.net/DTD/sodipodi-0.dtd"><sodipodi:namedview pagecolor="#303030" showgrid="true"><inkscape:grid id="grid5" units="px" spacingx="100" spacingy="100" color="#4772b3" opacity="0.2" visible="true" /></sodipodi:namedview><g fill="#fff"><g enable-background="new" transform="matrix(100 0 0 100 -50899.99999999999 -53500)"><path d="m516 545h2v-2h-2zm0-4h2v-2h-2z" opacity=".8"/><path d="m512 536c-.52447 0-1.0237.21715-1.39258.57617-.36876.35916-.60742.86061-.60742 1.42578v9.99805c.00008.53017.21103 1.03915.58594 1.41406s.88384.58594 1.41406.58594h1.5c.27613-.00003.49997-.22387.5-.5v-10c-.00003-.27613-.22387-.49997-.5-.5h-1.5c-.45232 0-1-.47106-1-.99805 0-.26349.1383-.51454.33203-.69922.19342-.18368.44298-.30273.66797-.30273h6v2h2v-2h2v2.00586l-2-.00586v2l2 .006v2l-2-.006v2l2 .006v1.994h-1.99414l-.01-2h-2l.01 2h-3.00586v1h8.5c.27613-.00003.49997-.22387.5-.5v-11c-.00003-.27613-.22387-.49997-.5-.5h-11zm8 7v-2h-2v2z"/></g></g></svg>