<svg height="1600" viewBox="0 0 1600 1600" width="1600" xmlns="http://www.w3.org/2000/svg" xmlns:inkscape="http://www.inkscape.org/namespaces/inkscape" xmlns:sodipodi="http://sodipodi.sourceforge.net/DTD/sodipodi-0.dtd"><sodipodi:namedview pagecolor="#303030" showgrid="true"><inkscape:grid id="grid5" units="px" spacingx="100" spacingy="100" color="#4772b3" opacity="0.2" visible="true" /></sodipodi:namedview><g fill="#fff"><g enable-background="new" transform="translate(-233 -365)"><path d="m1028 1556c-3.2833 0-6 2.4414-6 5.5 0 1.7056.9046 3.146 2.1523 4.3594l.9942.9941a.50004997.50004997 0 0 0 .3027.1485.50004997.50004997 0 0 0 .051.998h5a.50004997.50004997 0 0 0 .045-.998.50004997.50004997 0 0 0 .3086-.1485l.9981-.998c1.2122-1.1985 2.1465-2.6518 2.1465-4.3535 0-3.0586-2.7167-5.5-6-5.5zm0 1c2.7919 0 5 2.0358 5 4.5 0 1.3342-.7428 2.5488-1.8516 3.6445l-1 1a.50004997.50004997 0 0 0 .2793.8535h-4.8594a.50004997.50004997 0 0 0 .2871-.8535l-1-1a.50004997.50004997 0 0 0 -.01-.01c-1.1397-1.1082-1.8477-2.2864-1.8477-3.6406 0-2.4642 2.2081-4.5 5-4.5zm-2.5 12a.50004997.50004997 0 1 0 0 1h1.5v.5a.50004997.50004997 0 0 0 .5.5h1a.50004997.50004997 0 0 0 .5-.5v-.5h1.5a.50004997.50004997 0 1 0 0-1z"/><path d="m1025.4902 1561.0059a.50005.50005 0 0 0 -.3437.8476l.8535.8535v1.543a.50005.50005 0 1 0 1 0v-1.25h2v1.25a.50005.50005 0 1 0 1 0v-1.543l.8535-.8535a.50005.50005 0 0 0 -.707-.707l-.8535.8535h-2.586l-.8535-.8535a.50005.50005 0 0 0 -.3633-.1406z" opacity=".6"/></g><g enable-background="new" transform="matrix(100 0 0 100 -50899.99999999999 -53500)"><path d="m516 545h2v-2h-2zm0-4h2v-2h-2z" opacity=".8"/><path d="m512 536c-.52447 0-1.0237.21715-1.39258.57617-.36876.35916-.60742.86061-.60742 1.42578v9.99805c.00008.53017.21103 1.03915.58594 1.41406s.88384.58594 1.41406.58594h1.5c.27613-.00003.49997-.22387.5-.5v-10c-.00003-.27613-.22387-.49997-.5-.5h-1.5c-.45232 0-1-.47106-1-.99805 0-.26349.1383-.51454.33203-.69922.19342-.18368.44298-.30273.66797-.30273h6v2h2v-2h2v2.00586l-2-.00586v2l2 .006v2l-2-.006v2l2 .006v1.994h-1.99414l-.01-2h-2l.01 2h-3.00586v1h8.5c.27613-.00003.49997-.22387.5-.5v-11c-.00003-.27613-.22387-.49997-.5-.5h-11zm8 7v-2h-2v2z"/></g></g></svg>