<svg height="1600" viewBox="0 0 1600 1600" width="1600" xmlns="http://www.w3.org/2000/svg" xmlns:inkscape="http://www.inkscape.org/namespaces/inkscape" xmlns:sodipodi="http://sodipodi.sourceforge.net/DTD/sodipodi-0.dtd"><sodipodi:namedview pagecolor="#303030" showgrid="true"><inkscape:grid id="grid5" units="px" spacingx="100" spacingy="100" color="#4772b3" opacity="0.2" visible="true" /></sodipodi:namedview><g fill="#fff"><path d="m51.5 515a.50005.50005 0 0 0 -.353516.14648l-3 3a.50005.50005 0 0 0 -.146484.35352v10a.50005.50005 0 0 0 .5.5h10a.50005.50005 0 0 0 .353516-.14648l3-3a.50005.50005 0 0 0 .146484-.35352v-10a.50005.50005 0 0 0 -.5-.5zm.207031 1h9.292969v9.29297l-2.707031 2.70703h-9.292969v-9.29297zm.292969 3v2h2v-2zm2 2v2h2v-2zm2 0h2v-2h-2zm0 2v2h2v-2zm0 2h-2v2h2zm-2 0v-2h-2v2zm-2 0h-2v2h2zm0-2v-2h-2v2z" transform="matrix(100 0 0 100 -4700 -51400)"/></g></svg>