<svg height="1600" viewBox="0 0 1600 1600" width="1600" xmlns="http://www.w3.org/2000/svg" xmlns:inkscape="http://www.inkscape.org/namespaces/inkscape" xmlns:sodipodi="http://sodipodi.sourceforge.net/DTD/sodipodi-0.dtd"><sodipodi:namedview pagecolor="#303030" showgrid="true"><inkscape:grid id="grid5" units="px" spacingx="100" spacingy="100" color="#4772b3" opacity="0.2" visible="true" /></sodipodi:namedview><g fill="#fff"><g enable-background="new" transform="matrix(100 0 0 100 -4699.2887 57199.677)"><path d="m61.490943-569.99488-3.5.008.0039 1 2.998047-.006v5l-3.001953.006.0039 1 3.5-.008c.275368-.001.498022-.22463.498047-.5v-6c-.000026-.2769-.22506-.50105-.501953-.5zm-12.498053 9.002v3.49219c.000028.27613.223869.49997.5.5h6c.276131-.00003.499972-.22387.5-.5v-3.49219h-1v2.99219h-5v-2.99219z" opacity=".55"/><path d="m48.49289-570.99288c-.276131.00003-.499972.22387-.5.5v8c.000028.27613.223869.49997.5.5h8c.276131-.00003.499972-.22387.5-.5v-8c-.000028-.27613-.223869-.49997-.5-.5z" fill-rule="evenodd"/></g></g></svg>