<svg height="1600" viewBox="0 0 1600 1600" width="1600" xmlns="http://www.w3.org/2000/svg" xmlns:inkscape="http://www.inkscape.org/namespaces/inkscape" xmlns:sodipodi="http://sodipodi.sourceforge.net/DTD/sodipodi-0.dtd"><sodipodi:namedview pagecolor="#303030" showgrid="true"><inkscape:grid id="grid5" units="px" spacingx="100" spacingy="100" color="#4772b3" opacity="0.2" visible="true" /></sodipodi:namedview><g fill="#fff"><g enable-background="new" transform="matrix(-100 0 0 100 37800.06000000001 -13600.293)"><path d="m363.49414 141.99414a.50005.50005 0 0 0 -.34766.85938l7.15235 7.15234h-2.79883a.50005.50005 0 1 0 0 1h4a.50005.50005 0 0 0 .006 0 .50005.50005 0 0 0 .0937-.0117.50005.50005 0 0 0 .0488-.0117.50005.50005 0 0 0 .3515-.54301v-3.93359a.50005.50005 0 1 0 -1 0v2.78711l-7.14648-7.14649a.50005.50005 0 0 0 -.35938-.15234z"/><path d="m368.49414 137a.50005.50005 0 0 0 -.0937.01.50005.50005 0 0 0 -.0488.0117.50005.50005 0 0 0 -.35164.54275v3.93555a.50005.50005 0 1 0 1 0v-2.78711l7.14648 7.14649a.50005.50005 0 1 0 .70704-.70704l-7.15235-7.15234h2.79883a.50005.50005 0 1 0 0-1h-4a.50005.50005 0 0 0 -.006 0z"/></g></g></svg>