<svg height="1600" viewBox="0 0 1600 1600" width="1600" xmlns="http://www.w3.org/2000/svg" xmlns:inkscape="http://www.inkscape.org/namespaces/inkscape" xmlns:sodipodi="http://sodipodi.sourceforge.net/DTD/sodipodi-0.dtd"><sodipodi:namedview pagecolor="#303030" showgrid="true"><inkscape:grid id="grid5" units="px" spacingx="100" spacingy="100" color="#4772b3" opacity="0.2" visible="true" /></sodipodi:namedview><g fill="#fff"><g enable-background="new" transform="matrix(100 0 0 100 -499.2755 57199.27699999999)"><path d="m258.49962 136.9993c-.27613.00003-.49997.22387-.5.5v3c.00003.27613.22387.49997.5.5h3c.27613-.00003.49997-.22387.5-.5v-3c-.00003-.27613-.22387-.49997-.5-.5z" fill-rule="evenodd" transform="translate(-252.007 -707.992)"/><path d="m10.955781-569.99288v1h2.037109v5h-4.9999998v-1.99219h-1v8.49219a.50005.50005 0 0 0 .5.5h5.9999998a.50005.50005 0 0 0 .5-.5v-5.5h5.5a.50005.50005 0 0 0 .5-.5v-6a.50005.50005 0 0 0 -.5-.5zm3.037109 1h5v5h-5zm-5.9999998 6h4.9999998v5h-4.9999998z" opacity=".55"/></g></g></svg>