<svg height="1500" viewBox="0 0 1600 1500" width="1600" xmlns="http://www.w3.org/2000/svg" xmlns:inkscape="http://www.inkscape.org/namespaces/inkscape" xmlns:sodipodi="http://sodipodi.sourceforge.net/DTD/sodipodi-0.dtd"><sodipodi:namedview pagecolor="#303030" showgrid="true"><inkscape:grid id="grid5" units="px" spacingx="100" spacingy="100" color="#4772b3" opacity="0.2" visible="true" /></sodipodi:namedview><g fill="#fff"><g enable-background="new" transform="matrix(100 0 0 100 -498.9259 -17801.362)"><path d="m10.486328 179.01367c-.1326.00003-.259761.0527-.353516.14649l-1.9941401 1.99414c-.4908663.47125.2357781 1.1979.7070312.70703l1.8476559-1.84766h8.292969v8.29297l-2.707031 2.70703h-8.2910158l.00461-3.00655-1-.002-.00656 3.5085c.0000276.27613.2238691.49997.5.5h8.9999998c.132599-.00002.259759-.0527.353516-.14648l3-3c.09377-.0938.14646-.22092.146484-.35352v-9c-.000028-.27613-.223869-.49997-.5-.5z" opacity=".6"/><path d="m6.4921875 183.00781c-.2761309.00003-.4999724.22387-.5.5v3c.0000276.27613.2238691.49997.5.5h3c.2761309-.00003.4999724-.22387.5-.5v-3c-.0000276-.27613-.2238691-.49997-.5-.5z" fill-rule="evenodd"/></g></g></svg>