<svg height="1800" viewBox="0 0 1800 1800" width="1800" xmlns="http://www.w3.org/2000/svg" xmlns:inkscape="http://www.inkscape.org/namespaces/inkscape" xmlns:sodipodi="http://sodipodi.sourceforge.net/DTD/sodipodi-0.dtd"><sodipodi:namedview pagecolor="#303030" showgrid="true"><inkscape:grid id="grid5" units="px" spacingx="100" spacingy="100" color="#4772b3" opacity="0.2" visible="true" /></sodipodi:namedview><g fill="#fff"><path d="m539.5 10.000005c-3.5682 0-6.5 2.931819-6.5 6.499999 0 1.42599.4737 2.74606 1.2637 3.822271l-3.9707 3.9707a1.0001 1.0001 0 1 0 1.414 1.41406l3.9707-3.9707c1.0762.78998 2.3963 1.26367 3.8223 1.26367 3.5682 0 6.5-2.93182 6.5-6.500001 0-3.56818-2.9318-6.499999-6.5-6.499999zm0 2.999999c.051 0 .098.0135.1484.0156a.50005.50005 0 0 1 .3516.4844v2.5h2.5a.50005.50005 0 0 1 .4863.35742.50005.50005 0 0 1 0 .002c0 .0477.014.0925.014.14062 0 .0488-.012.0942-.014.14258a.50005.50005 0 0 1 -.4863.35738h-2.5v2.5a.50005.50005 0 0 1 -.3574.486331c-.048.002-.092.0137-.1406.0137-.049 0-.094-.0117-.1426-.0137a.50005.50005 0 0 1 -.3594-.486331v-2.5h-2.5a.50005.50005 0 0 1 -.4863-.35742.50005.50005 0 0 1 0-.002c0-.0476-.014-.0925-.014-.14062 0-.0488.012-.0942.014-.14258a.50005.50005 0 0 1 .4863-.35738h2.5v-2.5a.50005.50005 0 0 1 .3516-.48438c.05-.002.098-.0156.1484-.0156z" transform="matrix(100 0 0 100 -52899.237 -900.763)"/></g></svg>