<svg height="1600" viewBox="0 0 1600 1600" width="1600" xmlns="http://www.w3.org/2000/svg" xmlns:inkscape="http://www.inkscape.org/namespaces/inkscape" xmlns:sodipodi="http://sodipodi.sourceforge.net/DTD/sodipodi-0.dtd"><sodipodi:namedview pagecolor="#303030" showgrid="true"><inkscape:grid id="grid5" units="px" spacingx="100" spacingy="100" color="#4772b3" opacity="0.2" visible="true" /></sodipodi:namedview><g fill="#fff"><g enable-background="new" transform="translate(-233 -365)"><path d="m1028 1556c-3.2833 0-6 2.4414-6 5.5 0 1.7056.9046 3.146 2.1523 4.3594l.9942.9941a.50004997.50004997 0 0 0 .3027.1485.50004997.50004997 0 0 0 .051.998h5a.50004997.50004997 0 0 0 .045-.998.50004997.50004997 0 0 0 .3086-.1485l.9981-.998c1.2122-1.1985 2.1465-2.6518 2.1465-4.3535 0-3.0586-2.7167-5.5-6-5.5zm0 1c2.7919 0 5 2.0358 5 4.5 0 1.3342-.7428 2.5488-1.8516 3.6445l-1 1a.50004997.50004997 0 0 0 .2793.8535h-4.8594a.50004997.50004997 0 0 0 .2871-.8535l-1-1a.50004997.50004997 0 0 0 -.01-.01c-1.1397-1.1082-1.8477-2.2864-1.8477-3.6406 0-2.4642 2.2081-4.5 5-4.5zm-2.5 12a.50004997.50004997 0 1 0 0 1h1.5v.5a.50004997.50004997 0 0 0 .5.5h1a.50004997.50004997 0 0 0 .5-.5v-.5h1.5a.50004997.50004997 0 1 0 0-1z"/><path d="m1025.4902 1561.0059a.50005.50005 0 0 0 -.3437.8476l.8535.8535v1.543a.50005.50005 0 1 0 1 0v-1.25h2v1.25a.50005.50005 0 1 0 1 0v-1.543l.8535-.8535a.50005.50005 0 0 0 -.707-.707l-.8535.8535h-2.586l-.8535-.8535a.50005.50005 0 0 0 -.3633-.1406z" opacity=".6"/></g><g enable-background="new" transform="matrix(100 0 0 100 -500 -53500.018)"><path d="m16.501953 536c-1.926262 0-3.498047 1.57178-3.498047 3.49805 0 1.92626 1.571785 3.49804 3.498047 3.49804 1.926263 0 3.498047-1.57178 3.498047-3.49804 0-1.92627-1.571784-3.49805-3.498047-3.49805zm0 .99609a.50005.50005 0 1 1 0 1c-.83516 0-1.501953.66679-1.501953 1.50196a.50005.50005 0 1 1 -1 0c0-1.37561 1.126353-2.50196 2.501953-2.50196z" opacity=".99" transform="translate(.000002 -.000052)"/><path d="m10.503906 539.99219a.50005.50005 0 0 0 -.492187.39843l-.3574221 1.60938h-2.1542969a.50005.50005 0 1 0 0 1h1.9316406l-.6660156 3h-2.265625a.50005.50005 0 1 0 0 1h2.0429688l-.53125 2.39062a.50038237.50038237 0 1 0 .9765624.21876l.5800782-2.60938h6.9628906l.476562 2.58984a.50032015.50032015 0 1 0 .984376-.17968l-.445313-2.41016h1.953125a.50005.50005 0 1 0 0-1h-2.136719l-.300781-1.62891a.50005.50005 0 1 0 -.982422.18164l.265625 1.44727h-6.5546874l.6660154-3h2.042969a.50005.50005 0 1 0 0-1h-1.820312l.308593-1.39062a.50005.50005 0 0 0 -.484375-.61719z" opacity=".8"/></g></g></svg>