<?xml version="1.0" encoding="UTF-8" standalone="no"?>
<svg
   height="1800"
   viewBox="0 0 1800 1800"
   width="1800"
   version="1.1"
   id="svg1"
   xmlns="http://www.w3.org/2000/svg"
   xmlns:svg="http://www.w3.org/2000/svg">
  <defs
     id="defs1" />
  <g
     fill="#ffffff"
     id="g1"
     transform="matrix(-1,0,0,1,1800.0001,0)">
    <path
       d="m 539.5,10.000005 c -3.5682,0 -6.5,2.931819 -6.5,6.499999 0,1.42599 0.4737,2.74606 1.2637,3.822271 l -3.9707,3.9707 a 1.0001,1.0001 0 1 0 1.414,1.41406 l 3.9707,-3.9707 c 1.0762,0.78998 2.3963,1.26367 3.8223,1.26367 3.5682,0 6.5,-2.93182 6.5,-6.500001 0,-3.56818 -2.9318,-6.499999 -6.5,-6.499999 z m 0,2.999999 c 0.051,0 0.098,0.0135 0.1484,0.0156 a 0.50005,0.50005 0 0 1 0.3516,0.4844 v 2.5 h 2.5 a 0.50005,0.50005 0 0 1 0.4863,0.35742 0.50005,0.50005 0 0 1 0,0.002 c 0,0.0477 0.014,0.0925 0.014,0.14062 0,0.0488 -0.012,0.0942 -0.014,0.14258 A 0.50005,0.50005 0 0 1 542.5,17.000004 H 540 v 2.5 a 0.50005,0.50005 0 0 1 -0.3574,0.486331 c -0.048,0.002 -0.092,0.0137 -0.1406,0.0137 -0.049,0 -0.094,-0.0117 -0.1426,-0.0137 A 0.50005,0.50005 0 0 1 539,19.500004 v -2.5 h -2.5 a 0.50005,0.50005 0 0 1 -0.4863,-0.35742 0.50005,0.50005 0 0 1 0,-0.002 c 0,-0.0476 -0.014,-0.0925 -0.014,-0.14062 0,-0.0488 0.012,-0.0942 0.014,-0.14258 a 0.50005,0.50005 0 0 1 0.4863,-0.35738 h 2.5 v -2.5 a 0.50005,0.50005 0 0 1 0.3516,-0.48438 c 0.05,-0.002 0.098,-0.0156 0.1484,-0.0156 z"
       transform="matrix(100,0,0,100,-52899.237,-900.763)"
       id="path1" />
  </g>
</svg>
