<svg height="1800" viewBox="0 0 1800 1800" width="1800" xmlns="http://www.w3.org/2000/svg" xmlns:inkscape="http://www.inkscape.org/namespaces/inkscape" xmlns:sodipodi="http://sodipodi.sourceforge.net/DTD/sodipodi-0.dtd"><sodipodi:namedview pagecolor="#303030" showgrid="true"><inkscape:grid id="grid5" units="px" spacingx="100" spacingy="100" color="#4772b3" opacity="0.2" visible="true" /></sodipodi:namedview><g fill="#fff"><g enable-background="new" transform="translate(-233 -365)"><path d="m1028 1556c-3.2833 0-6 2.4414-6 5.5 0 1.7056.9046 3.146 2.1523 4.3594l.9942.9941a.50004997.50004997 0 0 0 .3027.1485.50004997.50004997 0 0 0 .051.998h5a.50004997.50004997 0 0 0 .045-.998.50004997.50004997 0 0 0 .3086-.1485l.9981-.998c1.2122-1.1985 2.1465-2.6518 2.1465-4.3535 0-3.0586-2.7167-5.5-6-5.5zm0 1c2.7919 0 5 2.0358 5 4.5 0 1.3342-.7428 2.5488-1.8516 3.6445l-1 1a.50004997.50004997 0 0 0 .2793.8535h-4.8594a.50004997.50004997 0 0 0 .2871-.8535l-1-1a.50004997.50004997 0 0 0 -.01-.01c-1.1397-1.1082-1.8477-2.2864-1.8477-3.6406 0-2.4642 2.2081-4.5 5-4.5zm-2.5 12a.50004997.50004997 0 1 0 0 1h1.5v.5a.50004997.50004997 0 0 0 .5.5h1a.50004997.50004997 0 0 0 .5-.5v-.5h1.5a.50004997.50004997 0 1 0 0-1z"/><path d="m1025.4902 1561.0059a.50005.50005 0 0 0 -.3437.8476l.8535.8535v1.543a.50005.50005 0 1 0 1 0v-1.25h2v1.25a.50005.50005 0 1 0 1 0v-1.543l.8535-.8535a.50005.50005 0 0 0 -.707-.707l-.8535.8535h-2.586l-.8535-.8535a.50005.50005 0 0 0 -.3633-.1406z" opacity=".6"/></g><path d="m517.98438 9.9863345c-.55152.009-.99193.4621405-.98438 1.0136695v7h-1.10156l-.91016-6.14648c-.0643-.48249-.46671-.84859-.95312-.86719-.63083-.0229-1.12488.53711-1.02344 1.16015l.98828 6.66993v.88671 1.296881h-1v-1.746091l-2.58984-1.16602c-.12175-.0548-.25324-.0847-.38672-.0879-.88449-.0197-1.35703 1.03438-.75391 1.68164l3.5 3.750001c1.45044 1.55404 3.38812 2.64316 5.12305 2.55469 2.20226-.16055 4.09501-1.6226 4.80664-3.71289l2.25586-6.269531c.1808-.48082-.16432-.99701-.67774-1.01368-.32862-.0101-.62553.19494-.73242.50586l-.90039 2.50392h-.74023l1.07812-5.81836c.12593-.63116-.36843-1.215229-1.01172-1.19531-.47506.0156-.8735.36343-.95312.83203l-1.14453 6.18164h-.87305v-7c.008-.563769-.45189-1.0224695-1.01562-1.0136695z" transform="matrix(100 0 0 100 -50800.133 -898.878)"/></g></svg>