<svg height="1800" viewBox="0 0 1800 1800" width="1800" xmlns="http://www.w3.org/2000/svg" xmlns:inkscape="http://www.inkscape.org/namespaces/inkscape" xmlns:sodipodi="http://sodipodi.sourceforge.net/DTD/sodipodi-0.dtd"><sodipodi:namedview pagecolor="#303030" showgrid="true"><inkscape:grid id="grid5" units="px" spacingx="100" spacingy="100" color="#4772b3" opacity="0.2" visible="true" /></sodipodi:namedview><g fill="#fff"><g enable-background="new" transform="translate(-233 -365)"><path d="m1028 1556c-3.2833 0-6 2.4414-6 5.5 0 1.7056.9046 3.146 2.1523 4.3594l.9942.9941a.50004997.50004997 0 0 0 .3027.1485.50004997.50004997 0 0 0 .051.998h5a.50004997.50004997 0 0 0 .045-.998.50004997.50004997 0 0 0 .3086-.1485l.9981-.998c1.2122-1.1985 2.1465-2.6518 2.1465-4.3535 0-3.0586-2.7167-5.5-6-5.5zm0 1c2.7919 0 5 2.0358 5 4.5 0 1.3342-.7428 2.5488-1.8516 3.6445l-1 1a.50004997.50004997 0 0 0 .2793.8535h-4.8594a.50004997.50004997 0 0 0 .2871-.8535l-1-1a.50004997.50004997 0 0 0 -.01-.01c-1.1397-1.1082-1.8477-2.2864-1.8477-3.6406 0-2.4642 2.2081-4.5 5-4.5zm-2.5 12a.50004997.50004997 0 1 0 0 1h1.5v.5a.50004997.50004997 0 0 0 .5.5h1a.50004997.50004997 0 0 0 .5-.5v-.5h1.5a.50004997.50004997 0 1 0 0-1z"/><path d="m1025.4902 1561.0059a.50005.50005 0 0 0 -.3437.8476l.8535.8535v1.543a.50005.50005 0 1 0 1 0v-1.25h2v1.25a.50005.50005 0 1 0 1 0v-1.543l.8535-.8535a.50005.50005 0 0 0 -.707-.707l-.8535.8535h-2.586l-.8535-.8535a.50005.50005 0 0 0 -.3633-.1406z" opacity=".6"/></g><g enable-background="new" transform="matrix(100 0 0 100 100 100)"><g clip-rule="evenodd" fill-rule="evenodd"><path d="m4 12v-1.5c0-.2761.22386-.5.5-.5h6c.2761 0 .5.2239.5.5v5c0 .2761-.2239.5-.5.5h-4.79289c-.13261 0-.25979-.0527-.35356-.1464l-1.2071-1.2072c-.09377-.0937-.14645-.2209-.14645-.3535v-1.2929h-1v.5c0 .2761-.22386.5-.5.5s-.5-.2239-.5-.5v-2c0-.2761.22386-.5.5-.5s.5.2239.5.5v.5zm1.91421 3-.91421-.9142v-3.0858h5v4z"/><path d="m13.2154 13.5 1.7846 1.0917v-2.1834zm1.931 2.3536c.0905.0904.2155.1464.3536.1464.2761 0 .5-.2239.5-.5v-4c0-.2761-.2239-.5-.5-.5-.1381 0-.2631.056-.3536.1464l-3.1022 1.8978c-.1735.0784-.2942.253-.2942.4558s.1207.3774.2942.4558z"/><path d="m6.3849 4.22363c-.36083.0766-.73452-.05164-.97227-.33366-.46015-.54585-1.14572-.88997-1.91263-.88997-1.38071 0-2.5 1.11929-2.5 2.5s1.11929 2.5 2.5 2.5h7c1.933 0 3.5-1.567 3.5-3.5s-1.567-3.5-3.5-3.5c-1.59289 0-2.93966 1.06492-3.36229 2.5237-.10264.3543-.39199.62332-.75281.69993zm.22083-1.98003c-.18122.3121-.32601.64799-.42852 1.00183-.23312-.27654-.50831-.51645-.8157-.70988-.53918-.33929-1.17742-.53555-1.86151-.53555-1.933 0-3.5 1.56701-3.5 3.5s1.567 3.5 3.5 3.5h7c2.4853 0 4.5-2.01472 4.5-4.5s-2.0147-4.5-4.5-4.5c-1.66299 0-3.11529.902078-3.89427 2.2436z"/><path d="m10.5 5c.2761 0 .5-.22386.5-.5s-.2239-.5-.5-.5-.5.22386-.5.5.2239.5.5.5zm0 1c.8284 0 1.5-.67157 1.5-1.5s-.6716-1.5-1.5-1.5c-.82843 0-1.5.67157-1.5 1.5s.67157 1.5 1.5 1.5z"/></g><path d="m4.5 5.5c0 .55228-.44772 1-1 1s-1-.44772-1-1 .44772-1 1-1 1 .44772 1 1z"/></g></g></svg>