<svg height="1800" viewBox="0 0 1800 1800" width="1800" xmlns="http://www.w3.org/2000/svg" xmlns:inkscape="http://www.inkscape.org/namespaces/inkscape" xmlns:sodipodi="http://sodipodi.sourceforge.net/DTD/sodipodi-0.dtd"><sodipodi:namedview pagecolor="#303030" showgrid="true"><inkscape:grid id="grid5" units="px" spacingx="100" spacingy="100" color="#4772b3" opacity="0.2" visible="true" /></sodipodi:namedview><g fill="#fff"><g enable-background="new" transform="matrix(100 0 0 100 100 100)"><g clip-rule="evenodd" fill-rule="evenodd"><path d="m4 12v-1.5c0-.2761.22386-.5.5-.5h6c.2761 0 .5.2239.5.5v5c0 .2761-.2239.5-.5.5h-4.79289c-.13261 0-.25979-.0527-.35356-.1464l-1.2071-1.2072c-.09377-.0937-.14645-.2209-.14645-.3535v-1.2929h-1v.5c0 .2761-.22386.5-.5.5s-.5-.2239-.5-.5v-2c0-.2761.22386-.5.5-.5s.5.2239.5.5v.5zm1.91421 3-.91421-.9142v-3.0858h5v4z"/><path d="m13.2154 13.5 1.7846 1.0917v-2.1834zm1.931 2.3536c.0905.0904.2155.1464.3536.1464.2761 0 .5-.2239.5-.5v-4c0-.2761-.2239-.5-.5-.5-.1381 0-.2631.056-.3536.1464l-3.1022 1.8978c-.1735.0784-.2942.253-.2942.4558s.1207.3774.2942.4558z"/><path d="m6.3849 4.22363c-.36083.0766-.73452-.05164-.97227-.33366-.46015-.54585-1.14572-.88997-1.91263-.88997-1.38071 0-2.5 1.11929-2.5 2.5s1.11929 2.5 2.5 2.5h7c1.933 0 3.5-1.567 3.5-3.5s-1.567-3.5-3.5-3.5c-1.59289 0-2.93966 1.06492-3.36229 2.5237-.10264.3543-.39199.62332-.75281.69993zm.22083-1.98003c-.18122.3121-.32601.64799-.42852 1.00183-.23312-.27654-.50831-.51645-.8157-.70988-.53918-.33929-1.17742-.53555-1.86151-.53555-1.933 0-3.5 1.56701-3.5 3.5s1.567 3.5 3.5 3.5h7c2.4853 0 4.5-2.01472 4.5-4.5s-2.0147-4.5-4.5-4.5c-1.66299 0-3.11529.902078-3.89427 2.2436z"/><path d="m10.5 5c.2761 0 .5-.22386.5-.5s-.2239-.5-.5-.5-.5.22386-.5.5.2239.5.5.5zm0 1c.8284 0 1.5-.67157 1.5-1.5s-.6716-1.5-1.5-1.5c-.82843 0-1.5.67157-1.5 1.5s.67157 1.5 1.5 1.5z"/></g><path d="m4.5 5.5c0 .55228-.44772 1-1 1s-1-.44772-1-1 .44772-1 1-1 1 .44772 1 1z"/></g></g></svg>