<svg height="1600" viewBox="0 0 1600 1600" width="1600" xmlns="http://www.w3.org/2000/svg" xmlns:inkscape="http://www.inkscape.org/namespaces/inkscape" xmlns:sodipodi="http://sodipodi.sourceforge.net/DTD/sodipodi-0.dtd"><sodipodi:namedview pagecolor="#303030" showgrid="true"><inkscape:grid id="grid5" units="px" spacingx="100" spacingy="100" color="#4772b3" opacity="0.2" visible="true" /></sodipodi:namedview><g fill="#fff"><g enable-background="new" transform="matrix(100 0 0 100 -500 -53500.018)"><path d="m16.501953 536c-1.926262 0-3.498047 1.57178-3.498047 3.49805 0 1.92626 1.571785 3.49804 3.498047 3.49804 1.926263 0 3.498047-1.57178 3.498047-3.49804 0-1.92627-1.571784-3.49805-3.498047-3.49805zm0 .99609a.50005.50005 0 1 1 0 1c-.83516 0-1.501953.66679-1.501953 1.50196a.50005.50005 0 1 1 -1 0c0-1.37561 1.126353-2.50196 2.501953-2.50196z" opacity=".99" transform="translate(.000002 -.000052)"/><path d="m10.503906 539.99219a.50005.50005 0 0 0 -.492187.39843l-.3574221 1.60938h-2.1542969a.50005.50005 0 1 0 0 1h1.9316406l-.6660156 3h-2.265625a.50005.50005 0 1 0 0 1h2.0429688l-.53125 2.39062a.50038237.50038237 0 1 0 .9765624.21876l.5800782-2.60938h6.9628906l.476562 2.58984a.50032015.50032015 0 1 0 .984376-.17968l-.445313-2.41016h1.953125a.50005.50005 0 1 0 0-1h-2.136719l-.300781-1.62891a.50005.50005 0 1 0 -.982422.18164l.265625 1.44727h-6.5546874l.6660154-3h2.042969a.50005.50005 0 1 0 0-1h-1.820312l.308593-1.39062a.50005.50005 0 0 0 -.484375-.61719z" opacity=".8"/></g></g></svg>