<svg height="1800" viewBox="0 0 1800 1800" width="1800" xmlns="http://www.w3.org/2000/svg" xmlns:inkscape="http://www.inkscape.org/namespaces/inkscape" xmlns:sodipodi="http://sodipodi.sourceforge.net/DTD/sodipodi-0.dtd"><sodipodi:namedview pagecolor="#303030" showgrid="true"><inkscape:grid id="grid5" units="px" spacingx="100" spacingy="100" color="#4772b3" opacity="0.2" visible="true" /></sodipodi:namedview><g fill="#fff"><path d="m467.5 10.000005a.50005006.50005006 0 0 0 -.5.5v15a.50005006.50005006 0 0 0 .5.5h15a.50005006.50005006 0 0 0 .5-.5v-15a.50005006.50005006 0 0 0 -.5-.5zm.5.999999h4v4h-4zm5 0h4v4h-4zm5 0h4v4h-4zm-10 5h4v4.000001h-4zm5 0h4v4.000001h-4zm5 0h4v4.000001h-4zm-10 5.000001h4v4h-4zm5 0h4v4h-4zm5 0h4v4h-4z" transform="matrix(100 0 0 100 -46599.99999999999 -900)"/></g></svg>