<svg height="1800" viewBox="0 0 1800 1800" width="1800" xmlns="http://www.w3.org/2000/svg" xmlns:inkscape="http://www.inkscape.org/namespaces/inkscape" xmlns:sodipodi="http://sodipodi.sourceforge.net/DTD/sodipodi-0.dtd"><sodipodi:namedview pagecolor="#303030" showgrid="true"><inkscape:grid id="grid5" units="px" spacingx="100" spacingy="100" color="#4772b3" opacity="0.2" visible="true" /></sodipodi:namedview><g fill="#fff"><g enable-background="new" transform="translate(-233 -365)"><path d="m1028 1556c-3.2833 0-6 2.4414-6 5.5 0 1.7056.9046 3.146 2.1523 4.3594l.9942.9941a.50004997.50004997 0 0 0 .3027.1485.50004997.50004997 0 0 0 .051.998h5a.50004997.50004997 0 0 0 .045-.998.50004997.50004997 0 0 0 .3086-.1485l.9981-.998c1.2122-1.1985 2.1465-2.6518 2.1465-4.3535 0-3.0586-2.7167-5.5-6-5.5zm0 1c2.7919 0 5 2.0358 5 4.5 0 1.3342-.7428 2.5488-1.8516 3.6445l-1 1a.50004997.50004997 0 0 0 .2793.8535h-4.8594a.50004997.50004997 0 0 0 .2871-.8535l-1-1a.50004997.50004997 0 0 0 -.01-.01c-1.1397-1.1082-1.8477-2.2864-1.8477-3.6406 0-2.4642 2.2081-4.5 5-4.5zm-2.5 12a.50004997.50004997 0 1 0 0 1h1.5v.5a.50004997.50004997 0 0 0 .5.5h1a.50004997.50004997 0 0 0 .5-.5v-.5h1.5a.50004997.50004997 0 1 0 0-1z"/><path d="m1025.4902 1561.0059a.50005.50005 0 0 0 -.3437.8476l.8535.8535v1.543a.50005.50005 0 1 0 1 0v-1.25h2v1.25a.50005.50005 0 1 0 1 0v-1.543l.8535-.8535a.50005.50005 0 0 0 -.707-.707l-.8535.8535h-2.586l-.8535-.8535a.50005.50005 0 0 0 -.3633-.1406z" opacity=".6"/></g><path d="m498.5 10c-2.1397 0-3.80728 1.4725-4.33008 3.2441-.6497-.7477-1.51052-1.2441-2.66992-1.2441-1.9271 0-3.5 1.5729-3.5 3.5 0 1.927 1.5729 3.5 3.5 3.5h7c2.4794 0 4.5-2.0207 4.5-4.5 0-2.4794-2.0206-4.5-4.5-4.5zm0 3c.8225 0 1.5.6774 1.5 1.5 0 .8225-.6775 1.5-1.5 1.5s-1.5-.6775-1.5-1.5c0-.8226.6775-1.5 1.5-1.5zm-7 1c.8225 0 1.5.6774 1.5 1.5 0 .8225-.6775 1.5-1.5 1.5s-1.5-.6775-1.5-1.5c0-.8226.6775-1.5 1.5-1.5zm7 0c-.2821 0-.5.2179-.5.5 0 .282.2179.5.5.5s.5-.218.5-.5c0-.2821-.2179-.5-.5-.5zm-7 1c-.2821 0-.5.2179-.5.5 0 .282.2179.5.5.5s.5-.218.5-.5c0-.2821-.2179-.5-.5-.5zm1 5c-.2761 0-.5.2239-.5.5v1 .5h-1v-.5c.004-.2823-.22555-.5122-.50781-.5078-.27615 0-.49651.2316-.49219.5078v1 1c.009.6573.9907.6573 1 0v-.5h1v.5 1c0 .1326.053.2597.14648.3535l1 1c.094.094.22092.1465.35352.1465h5c.2761 0 .5-.2239.5-.5v-5c0-.2761-.2239-.5-.5-.5zm10.98438 1c-.0871 0-.17191.028-.2461.074l-3.25 2c-.31714.1953-.31714.6563 0 .8516l3.25 2c.33298.2045.76131-.035.76172-.4258v-4c.00011-.2823-.23341-.5088-.51562-.5z" transform="matrix(100 0 0 100 -48699.99999999999 -900.015)"/></g></svg>