<svg height="1500" viewBox="0 0 1800 1500" width="1800" xmlns="http://www.w3.org/2000/svg" xmlns:inkscape="http://www.inkscape.org/namespaces/inkscape" xmlns:sodipodi="http://sodipodi.sourceforge.net/DTD/sodipodi-0.dtd"><sodipodi:namedview pagecolor="#303030" showgrid="true"><inkscape:grid id="grid5" units="px" spacingx="100" spacingy="100" color="#4772b3" opacity="0.2" visible="true" /></sodipodi:namedview><g fill="#fff"><path d="m449.75 12.000004a.50005006.50005006 0 0 0 -.4824.36914l-3.25 12.000001a.50005006.50005006 0 0 0 .4824.63086h15a.50005006.50005006 0 0 0 .4824-.63086l-3.25-12.000001a.50005006.50005006 0 0 0 -.4824-.36914zm.3828 1h2.086l-.2169 2h-2.4121zm3.0938 0h1.5468l.2168 2h-1.9804zm2.5547 0h2.0859l.541 2h-2.4101zm-6.461 3h2.5723l-.3262 3h-3.0586zm3.5801 0h2.1992l.3262 3h-2.8516zm3.207 0h2.5723l.8125 3h-3.0586zm-7.8711 4.000001h3.2207l-.4336 4h-3.8711zm4.2305 0h3.0664l.4356 4h-3.9375zm4.0762 0h3.2207l1.084 4h-3.8711z" transform="matrix(100 0 0 100 -44500 -1100)"/></g></svg>