<svg height="1800" viewBox="0 0 1400 1800" width="1400" xmlns="http://www.w3.org/2000/svg" xmlns:inkscape="http://www.inkscape.org/namespaces/inkscape" xmlns:sodipodi="http://sodipodi.sourceforge.net/DTD/sodipodi-0.dtd"><sodipodi:namedview pagecolor="#303030" showgrid="true"><inkscape:grid id="grid5" units="px" spacingx="100" spacingy="100" color="#4772b3" opacity="0.2" visible="true" /></sodipodi:namedview><g fill="#fff"><g enable-background="new" transform="translate(-233 -365)"><path d="m1028 1556c-3.2833 0-6 2.4414-6 5.5 0 1.7056.9046 3.146 2.1523 4.3594l.9942.9941a.50004997.50004997 0 0 0 .3027.1485.50004997.50004997 0 0 0 .051.998h5a.50004997.50004997 0 0 0 .045-.998.50004997.50004997 0 0 0 .3086-.1485l.9981-.998c1.2122-1.1985 2.1465-2.6518 2.1465-4.3535 0-3.0586-2.7167-5.5-6-5.5zm0 1c2.7919 0 5 2.0358 5 4.5 0 1.3342-.7428 2.5488-1.8516 3.6445l-1 1a.50004997.50004997 0 0 0 .2793.8535h-4.8594a.50004997.50004997 0 0 0 .2871-.8535l-1-1a.50004997.50004997 0 0 0 -.01-.01c-1.1397-1.1082-1.8477-2.2864-1.8477-3.6406 0-2.4642 2.2081-4.5 5-4.5zm-2.5 12a.50004997.50004997 0 1 0 0 1h1.5v.5a.50004997.50004997 0 0 0 .5.5h1a.50004997.50004997 0 0 0 .5-.5v-.5h1.5a.50004997.50004997 0 1 0 0-1z"/><path d="m1025.4902 1561.0059a.50005.50005 0 0 0 -.3437.8476l.8535.8535v1.543a.50005.50005 0 1 0 1 0v-1.25h2v1.25a.50005.50005 0 1 0 1 0v-1.543l.8535-.8535a.50005.50005 0 0 0 -.707-.707l-.8535.8535h-2.586l-.8535-.8535a.50005.50005 0 0 0 -.3633-.1406z" opacity=".6"/></g><g enable-background="new" transform="matrix(100 0 0 100 100 100)"><path d="m6 10c-.55228 0-1 .4477-1 1 0 .3701.2011.6933.5.8662v1.1338c0 .2761.22386.5.5.5s.5-.2239.5-.5v-1.1338c.2989-.1729.5-.4961.5-.8662 0-.5523-.44772-1-1-1z"/><path clip-rule="evenodd" d="m6 1c-2.20914 0-4 1.79086-4 4v2h9.5c.2761 0 .5.22386.5.5v8c0 .2761-.2239.5-.5.5h-11c-.276142 0-.5-.2239-.5-.5v-8c0-.27614.223858-.5.5-.5h.5v-2c0-2.76142 2.23858-5 5-5 2.2179 0 4.0985 1.44407 4.7529 3.44327.0792.24192-.0641.49381-.3056.5743-.2811.0937-.57876-.08103-.67818-.36014-.55172-1.54876-2.03095-2.65743-3.76912-2.65743zm-5 7v7h10v-7z" fill-rule="evenodd"/></g></g></svg>