<svg height="1800" viewBox="0 0 1800 1800" width="1800" xmlns="http://www.w3.org/2000/svg" xmlns:inkscape="http://www.inkscape.org/namespaces/inkscape" xmlns:sodipodi="http://sodipodi.sourceforge.net/DTD/sodipodi-0.dtd"><sodipodi:namedview pagecolor="#303030" showgrid="true"><inkscape:grid id="grid5" units="px" spacingx="100" spacingy="100" color="#4772b3" opacity="0.2" visible="true" /></sodipodi:namedview><g fill="#fff"><path d="m498.5 10c-2.1397 0-3.80728 1.4725-4.33008 3.2441-.6497-.7477-1.51052-1.2441-2.66992-1.2441-1.9271 0-3.5 1.5729-3.5 3.5 0 1.927 1.5729 3.5 3.5 3.5h7c2.4794 0 4.5-2.0207 4.5-4.5 0-2.4794-2.0206-4.5-4.5-4.5zm0 3c.8225 0 1.5.6774 1.5 1.5 0 .8225-.6775 1.5-1.5 1.5s-1.5-.6775-1.5-1.5c0-.8226.6775-1.5 1.5-1.5zm-7 1c.8225 0 1.5.6774 1.5 1.5 0 .8225-.6775 1.5-1.5 1.5s-1.5-.6775-1.5-1.5c0-.8226.6775-1.5 1.5-1.5zm7 0c-.2821 0-.5.2179-.5.5 0 .282.2179.5.5.5s.5-.218.5-.5c0-.2821-.2179-.5-.5-.5zm-7 1c-.2821 0-.5.2179-.5.5 0 .282.2179.5.5.5s.5-.218.5-.5c0-.2821-.2179-.5-.5-.5zm1 5c-.2761 0-.5.2239-.5.5v1 .5h-1v-.5c.004-.2823-.22555-.5122-.50781-.5078-.27615 0-.49651.2316-.49219.5078v1 1c.009.6573.9907.6573 1 0v-.5h1v.5 1c0 .1326.053.2597.14648.3535l1 1c.094.094.22092.1465.35352.1465h5c.2761 0 .5-.2239.5-.5v-5c0-.2761-.2239-.5-.5-.5zm10.98438 1c-.0871 0-.17191.028-.2461.074l-3.25 2c-.31714.1953-.31714.6563 0 .8516l3.25 2c.33298.2045.76131-.035.76172-.4258v-4c.00011-.2823-.23341-.5088-.51562-.5z" transform="matrix(100 0 0 100 -48699.99999999999 -900.015)"/></g></svg>