<svg height="1800" viewBox="0 0 1400 1800" width="1400" xmlns="http://www.w3.org/2000/svg" xmlns:inkscape="http://www.inkscape.org/namespaces/inkscape" xmlns:sodipodi="http://sodipodi.sourceforge.net/DTD/sodipodi-0.dtd"><sodipodi:namedview pagecolor="#303030" showgrid="true"><inkscape:grid id="grid5" units="px" spacingx="100" spacingy="100" color="#4772b3" opacity="0.2" visible="true" /></sodipodi:namedview><g fill="#fff"><path clip-rule="evenodd" d="m1 7v-2c0-2.76142 2.23858-5 5-5s5 2.23858 5 5v2h.5c.2761 0 .5.22386.5.5v8c0 .2761-.2239.5-.5.5h-11c-.276142 0-.5-.2239-.5-.5v-8c0-.27614.223858-.5.5-.5zm1-2c0-2.20914 1.79086-4 4-4s4 1.79086 4 4v2h-8zm4 5c-.55228 0-1 .4477-1 1 0 .3701.2011.6933.5.8662v1.1338c0 .2761.22386.5.5.5s.5-.2239.5-.5v-1.1338c.2989-.1729.5-.4961.5-.8662 0-.5523-.44772-1-1-1z" fill-rule="evenodd" transform="matrix(100 0 0 100 100 100)"/></g></svg>