<svg height="1800" viewBox="0 0 1800 1800" width="1800" xmlns="http://www.w3.org/2000/svg" xmlns:inkscape="http://www.inkscape.org/namespaces/inkscape" xmlns:sodipodi="http://sodipodi.sourceforge.net/DTD/sodipodi-0.dtd"><sodipodi:namedview pagecolor="#303030" showgrid="true"><inkscape:grid id="grid5" units="px" spacingx="100" spacingy="100" color="#4772b3" opacity="0.2" visible="true" /></sodipodi:namedview><g fill="#fff"><path d="m517.98438 9.9863345c-.55152.009-.99193.4621405-.98438 1.0136695v7h-1.10156l-.91016-6.14648c-.0643-.48249-.46671-.84859-.95312-.86719-.63083-.0229-1.12488.53711-1.02344 1.16015l.98828 6.66993v.88671 1.296881h-1v-1.746091l-2.58984-1.16602c-.12175-.0548-.25324-.0847-.38672-.0879-.88449-.0197-1.35703 1.03438-.75391 1.68164l3.5 3.750001c1.45044 1.55404 3.38812 2.64316 5.12305 2.55469 2.20226-.16055 4.09501-1.6226 4.80664-3.71289l2.25586-6.269531c.1808-.48082-.16432-.99701-.67774-1.01368-.32862-.0101-.62553.19494-.73242.50586l-.90039 2.50392h-.74023l1.07812-5.81836c.12593-.63116-.36843-1.215229-1.01172-1.19531-.47506.0156-.8735.36343-.95312.83203l-1.14453 6.18164h-.87305v-7c.008-.563769-.45189-1.0224695-1.01562-1.0136695z" transform="matrix(100 0 0 100 -50800.133 -898.878)"/></g></svg>