<svg height="1800" viewBox="0 0 1800 1800" width="1800" xmlns="http://www.w3.org/2000/svg" xmlns:inkscape="http://www.inkscape.org/namespaces/inkscape" xmlns:sodipodi="http://sodipodi.sourceforge.net/DTD/sodipodi-0.dtd"><sodipodi:namedview pagecolor="#303030" showgrid="true"><inkscape:grid id="grid5" units="px" spacingx="100" spacingy="100" color="#4772b3" opacity="0.2" visible="true" /></sodipodi:namedview><g fill="#fff"><g enable-background="new" transform="translate(-233 -365)"><path d="m1028 1556c-3.2833 0-6 2.4414-6 5.5 0 1.7056.9046 3.146 2.1523 4.3594l.9942.9941a.50004997.50004997 0 0 0 .3027.1485.50004997.50004997 0 0 0 .051.998h5a.50004997.50004997 0 0 0 .045-.998.50004997.50004997 0 0 0 .3086-.1485l.9981-.998c1.2122-1.1985 2.1465-2.6518 2.1465-4.3535 0-3.0586-2.7167-5.5-6-5.5zm0 1c2.7919 0 5 2.0358 5 4.5 0 1.3342-.7428 2.5488-1.8516 3.6445l-1 1a.50004997.50004997 0 0 0 .2793.8535h-4.8594a.50004997.50004997 0 0 0 .2871-.8535l-1-1a.50004997.50004997 0 0 0 -.01-.01c-1.1397-1.1082-1.8477-2.2864-1.8477-3.6406 0-2.4642 2.2081-4.5 5-4.5zm-2.5 12a.50004997.50004997 0 1 0 0 1h1.5v.5a.50004997.50004997 0 0 0 .5.5h1a.50004997.50004997 0 0 0 .5-.5v-.5h1.5a.50004997.50004997 0 1 0 0-1z"/><path d="m1025.4902 1561.0059a.50005.50005 0 0 0 -.3437.8476l.8535.8535v1.543a.50005.50005 0 1 0 1 0v-1.25h2v1.25a.50005.50005 0 1 0 1 0v-1.543l.8535-.8535a.50005.50005 0 0 0 -.707-.707l-.8535.8535h-2.586l-.8535-.8535a.50005.50005 0 0 0 -.3633-.1406z" opacity=".6"/></g><path d="m539.5 10.000005c-3.5682 0-6.5 2.931819-6.5 6.499999 0 1.42599.4737 2.74606 1.2637 3.822271l-3.9707 3.9707a1.0001 1.0001 0 1 0 1.414 1.41406l3.9707-3.9707c1.0762.78998 2.3963 1.26367 3.8223 1.26367 3.5682 0 6.5-2.93182 6.5-6.500001 0-3.56818-2.9318-6.499999-6.5-6.499999zm0 2.999999c.051 0 .098.0135.1484.0156a.50005.50005 0 0 1 .3516.4844v2.5h2.5a.50005.50005 0 0 1 .4863.35742.50005.50005 0 0 1 0 .002c0 .0477.014.0925.014.14062 0 .0488-.012.0942-.014.14258a.50005.50005 0 0 1 -.4863.35738h-2.5v2.5a.50005.50005 0 0 1 -.3574.486331c-.048.002-.092.0137-.1406.0137-.049 0-.094-.0117-.1426-.0137a.50005.50005 0 0 1 -.3594-.486331v-2.5h-2.5a.50005.50005 0 0 1 -.4863-.35742.50005.50005 0 0 1 0-.002c0-.0476-.014-.0925-.014-.14062 0-.0488.012-.0942.014-.14258a.50005.50005 0 0 1 .4863-.35738h2.5v-2.5a.50005.50005 0 0 1 .3516-.48438c.05-.002.098-.0156.1484-.0156z" transform="matrix(100 0 0 100 -52899.237 -900.763)"/></g></svg>