<svg id="svg3" height="1600" viewBox="0 0 1600 1600" width="1600" xmlns="http://www.w3.org/2000/svg" xmlns:inkscape="http://www.inkscape.org/namespaces/inkscape" xmlns:sodipodi="http://sodipodi.sourceforge.net/DTD/sodipodi-0.dtd"><sodipodi:namedview pagecolor="#303030" showgrid="true"><inkscape:grid id="grid5" units="px" spacingx="100" spacingy="100" color="#4772b3" opacity="0.2" visible="true" /></sodipodi:namedview><g id="g1"><g id="g3" fill="#fff"><path id="path1-9" d="m136.5418 683.63591c-25.94313.4451-43.39109 26.7644-33.76093 50.8588l296.74722 742.01199c13.19783 33.4093 61.43109 30.4322 70.41959-4.3473l87.2274-331.5223 331.37758-87.2273c34.4961-9.1406 37.4532-56.95339 4.3473-70.27579l-741.86799-296.8904c-4.60701-1.8324-9.53375-2.7153-14.48943-2.604z" fill="#fff" stroke-width=".861318"/></g><g id="g2" enable-background="new" transform="matrix(100 0 0 100 -13100.185 -13597.834)"><path id="path1" d="m155.50195 121.99414a.50005.50005 0 0 0 -.36133.85352c1.23267 1.27471 2.63438 3.15234 5.35938 3.15234s4.12681-1.87774 5.35938-3.15234a.50005.50005 0 1 0 -.71876-.69532c-1.30585 1.3504-2.36562 2.84766-4.64062 2.84766s-3.33487-1.49737-4.64062-2.84766a.50005.50005 0 0 0 -.35743-.1582z" fill="#fff" opacity=".6" transform="translate(-20 18)"/></g></g></svg>