<svg id="svg3" height="1600" viewBox="0 0 1600 1600" width="1600" xmlns="http://www.w3.org/2000/svg" xmlns:inkscape="http://www.inkscape.org/namespaces/inkscape" xmlns:sodipodi="http://sodipodi.sourceforge.net/DTD/sodipodi-0.dtd"><sodipodi:namedview pagecolor="#303030" showgrid="true"><inkscape:grid id="grid5" units="px" spacingx="100" spacingy="100" color="#4772b3" opacity="0.2" visible="true" /></sodipodi:namedview><g id="g2" enable-background="new" fill="#fff" transform="matrix(100 0 0 100 73500.049 28000.013)"><path id="path1" d="m-725.49998-278.99995c-2.725 0-4.12655 1.87775-5.35938 3.15234-.18751.19385-.18751.50146 0 .69531 1.23247 1.2748 2.63438 3.15235 5.35938 3.15235s4.12647-1.87883 5.35937-3.15625c.18625-.1936.18624-.49976 0-.69336-1.23336-1.2779-2.63505-3.15039-5.35937-3.15039zm0 1c1.37479 0 2.5 1.12521 2.5 2.5 0 1.37478-1.12521 2.5-2.5 2.5s-2.5-1.12522-2.5-2.5c0-1.37479 1.12521-2.5 2.5-2.5zm0 1c-.83435 0-1.5.66565-1.5 1.5 0 .83434.66565 1.5 1.5 1.5s1.5-.66566 1.5-1.5c0-.83435-.66565-1.5-1.5-1.5zm-8.13653 3.83628c-.25943.00446-.43391.26764-.33761.50858l2.96748 7.42014c.13198.33409.61429.30431.70418-.04348l.87228-3.31522 3.31377-.87228c.34496-.09141.37454-.56953.04348-.70275l-7.41869-2.96891c-.04607-.01832-.09533-.02715-.14489-.02604z" fill="#fff"/></g></svg>