<svg id="svg3" height="1600" viewBox="0 0 1600 1600" width="1600" xmlns="http://www.w3.org/2000/svg" xmlns:inkscape="http://www.inkscape.org/namespaces/inkscape" xmlns:sodipodi="http://sodipodi.sourceforge.net/DTD/sodipodi-0.dtd"><sodipodi:namedview pagecolor="#303030" showgrid="true"><inkscape:grid id="grid5" units="px" spacingx="100" spacingy="100" color="#4772b3" opacity="0.2" visible="true" /></sodipodi:namedview><g id="g3" fill="#fff" fill-opacity=".6"><path id="path1" d="m155.50194 139.99415a.50005.50005 0 0 0 -.36132.85351c1.23266 1.27471 2.63437 3.15235 5.35937 3.15235s4.12683-1.87775 5.3594-3.15235a.50005.50005 0 1 0 -.71877-.69533c-1.30585 1.3504-2.36563 2.84768-4.64063 2.84768s-3.33486-1.49739-4.6406-2.84768a.50005.50005 0 0 0 -.35745-.15818zm-3.1392 2.88652c-.25943.00445-.43391.26765-.33761.50859l2.96748 7.42012c.13198.33409.61431.30434.7042-.04346l.87226-3.31523 3.31379-.87227c.34496-.0914.37452-.56955.04346-.70277l-7.41867-2.96889c-.04607-.01832-.09535-.02716-.14491-.02605zm.67383 1.03611c.00371.01054 5.57725 2.23258 5.57725 2.23258l-2.64766.69076-.70566 2.67313z" fill="#fff" fill-opacity=".6" transform="matrix(100 0 0 100 -15100.212 -13601.61)"/></g></svg>