<svg height="1600" viewBox="0 0 1600 1600" width="1600" xmlns="http://www.w3.org/2000/svg" xmlns:inkscape="http://www.inkscape.org/namespaces/inkscape" xmlns:sodipodi="http://sodipodi.sourceforge.net/DTD/sodipodi-0.dtd"><sodipodi:namedview pagecolor="#303030" showgrid="true"><inkscape:grid id="grid5" units="px" spacingx="100" spacingy="100" color="#4772b3" opacity="0.2" visible="true" /></sodipodi:namedview><g fill="#fff"><g enable-background="new" transform="matrix(100 0 0 100 71400.02200000001 27998.997)"><path d="m-704.49998-278.99995c-2.725 0-4.12655 1.87775-5.35938 3.15234-.18751.19385-.1875.50147 0 .69532 1.23247 1.2748 2.63438 3.15234 5.35938 3.15234s4.12648-1.87882 5.35938-3.15625c.18625-.1936.18624-.49976 0-.69336-1.23336-1.2779-2.63506-3.15039-5.35938-3.15039zm0 1c1.37479 0 2.5 1.12521 2.5 2.5s-1.12521 2.5-2.5 2.5-2.5-1.12521-2.5-2.5 1.12521-2.5 2.5-2.5zm0 1c-.83435 0-1.5.66565-1.5 1.5s.66565 1.5 1.5 1.5 1.5-.66565 1.5-1.5-.66565-1.5-1.5-1.5z"/><path d="m-712.49805-273a.50005.50005 0 0 0 -.46093.69727l3 7a.50005.50005 0 1 0 .91796-.39454l-2.50781-5.85156 5.85156 2.50781a.50005.50005 0 1 0 .39454-.91796l-7-3a.50005.50005 0 0 0 -.19532-.041z" opacity=".6"/></g></g></svg>