<svg id="svg3" height="1600" viewBox="0 0 1600 1600" width="1600" xmlns="http://www.w3.org/2000/svg" xmlns:inkscape="http://www.inkscape.org/namespaces/inkscape" xmlns:sodipodi="http://sodipodi.sourceforge.net/DTD/sodipodi-0.dtd"><sodipodi:namedview pagecolor="#303030" showgrid="true"><inkscape:grid id="grid5" units="px" spacingx="100" spacingy="100" color="#4772b3" opacity="0.2" visible="true" /></sodipodi:namedview><g id="g3" fill="none"><g id="g2" enable-background="new" fill="#fff" transform="matrix(100 0 0 100 71400.022 27998.997)"><path id="path1" d="m-704.49998-278.99995c-2.725 0-4.12655 1.87775-5.35938 3.15234-.18751.19385-.1875.50147 0 .69532 1.23247 1.2748 2.63438 3.15234 5.35938 3.15234s4.12648-1.87882 5.35938-3.15625c.18625-.1936.18624-.49976 0-.69336-1.23336-1.2779-2.63506-3.15039-5.35938-3.15039zm0 1c1.37479 0 2.5 1.12521 2.5 2.5s-1.12521 2.5-2.5 2.5-2.5-1.12521-2.5-2.5 1.12521-2.5 2.5-2.5zm0 1c-.83435 0-1.5.66565-1.5 1.5s.66565 1.5 1.5 1.5 1.5-.66565 1.5-1.5-.66565-1.5-1.5-1.5z" fill="#fff"/></g><g id="g1" fill="none"><path id="path1-9" d="m136.41241 683.60484c-25.94312.4451-43.391115 26.7644-33.76092 50.8588l296.74721 742.01326c13.19783 33.4093 61.43109 30.4322 70.41959-4.3473l87.2274-331.5223 331.37758-87.2273c34.4961-9.1406 37.4532-56.95466 4.3473-70.27706l-741.86799-296.8904c-4.60701-1.8324-9.53375-2.7153-14.48943-2.604zm625.10686 326.86916-264.76518 69.0754-70.56654 267.3128-222.39275-559.64656c.37094 1.0534 557.72447 223.25836 557.72447 223.25836z" fill="#fff" fill-opacity=".6" stroke-width=".861318"/></g></g></svg>