<svg height="1600" viewBox="0 0 1600 1600" width="1600" xmlns="http://www.w3.org/2000/svg" xmlns:inkscape="http://www.inkscape.org/namespaces/inkscape" xmlns:sodipodi="http://sodipodi.sourceforge.net/DTD/sodipodi-0.dtd"><sodipodi:namedview pagecolor="#303030" showgrid="true"><inkscape:grid id="grid5" units="px" spacingx="100" spacingy="100" color="#4772b3" opacity="0.2" visible="true" /></sodipodi:namedview><g fill="#fff"><g enable-background="new" transform="matrix(-100 0 0 100 2100 -74500)"><path d="m75 519v7c0 .5.25 1 1 1s1-.5 1-1v-1c0-.5.53412-1 1-1 .55229 0 1 .44772 1 1v2.5c0 .82843.67157 1.5 1.5 1.5s1.5-.67157 1.5-1.5v-1.5c0-.55228.44772-1 1-1 .55229 0 1-.44771 1-1v-3.08789a1.50015 1.50015 0 0 1 -.5.08789h-3a1.50015 1.50015 0 0 1 -1.5-1.5v-.5z" opacity=".6" transform="matrix(-1 0 0 1 90 231)"/><path d="m16.5 746a.50005.50005 0 0 0 -.5.5v1.5h-6v-.5a.50005.50005 0 0 0 -.5-.5h-3a.50005.50005 0 0 0 -.5.5v3a.50005.50005 0 0 0 .5.5h3a.50005.50005 0 0 0 .5-.5v-1.5h6v.5a.50005.50005 0 0 0 .5.5h3a.50005.50005 0 0 0 .5-.5v-3a.50005.50005 0 0 0 -.5-.5zm.5 1h2v2h-2zm-10 1h2v2h-2z"/></g></g></svg>