<svg height="1600" viewBox="0 0 1745 1599.9999" width="1745" xmlns="http://www.w3.org/2000/svg" xmlns:inkscape="http://www.inkscape.org/namespaces/inkscape" xmlns:sodipodi="http://sodipodi.sourceforge.net/DTD/sodipodi-0.dtd"><sodipodi:namedview pagecolor="#303030" showgrid="true"><inkscape:grid id="grid5" units="px" spacingx="100" spacingy="100" color="#4772b3" opacity="0.2" visible="true" /></sodipodi:namedview><g clip-rule="evenodd" enable-background="new"><path d="m181.7395 1436.873h5631.6948v1512.4175h-5631.6948z" fill="none" stroke-linejoin="round" stroke-miterlimit="2" stroke-width="2.5131"/><g fill="#f9f9f9" fill-rule="evenodd" transform="matrix(28.565059 0 0 28.565059 -42.7349 -99.745)"><path d="m37.212 10.038c-1.066-1.878-3.059-3.038-5.218-3.038s-4.152 1.16-5.218 3.038l-21 37c-1.054 1.858-1.042 4.135.033 5.981s3.049 2.981 5.185 2.981h42c2.136 0 4.11-1.135 5.185-2.981s1.087-4.123.033-5.981zm-2.609 1.481 21 37c.527.929.521 2.068-.016 2.991-.538.922-1.525 1.49-2.593 1.49h-42c-1.068 0-2.055-.568-2.593-1.49-.537-.923-.543-2.062-.016-2.991 0 0 21-37 21-37 .533-.939 1.529-1.519 2.609-1.519s2.076.58 2.609 1.519z"/><circle cx="32" cy="45.5" r="2.5"/><path d="m32 23c1.38 0 2.5 1.12 2.5 2.5l-1.5 14.5h-2l-1.5-14.5c0-1.38 1.12-2.5 2.5-2.5z"/></g></g></svg>