<svg id="svg4" height="1600" viewBox="0 0 1745 1599.9999" width="1745" xmlns="http://www.w3.org/2000/svg" xmlns:inkscape="http://www.inkscape.org/namespaces/inkscape" xmlns:sodipodi="http://sodipodi.sourceforge.net/DTD/sodipodi-0.dtd"><sodipodi:namedview pagecolor="#303030" showgrid="true"><inkscape:grid id="grid5" units="px" spacingx="100" spacingy="100" color="#4772b3" opacity="0.2" visible="true" /></sodipodi:namedview><g id="blender_warning" fill="none" fill-rule="evenodd" transform="matrix(28.565059 0 0 28.565059 -42.7349 -99.745)"><path id="path1" d="m946.53126 228.63836 606.91274 1069.96064c15.2306 26.8649 15.0571 59.802-.4624 86.4933-15.5485 26.6622-44.0732 43.0874-74.9393 43.0874h-1213.82607c-30.8656 0-59.39035-16.4252-74.93889-43.0874-15.51999-26.6913-15.69302-59.6284-.46246-86.4933l606.91279-1069.96064c15.40404-27.154 44.18921-43.92644 75.40179-43.92644 31.21257 0 59.99776 16.77244 75.4018 43.92644z" stroke-width="1.01205" transform="matrix(.0350078 0 0 .0350078 1.496055 3.491854)"/></g><g id="blender_text" fill="#ffffff"><path id="path2" d="m37.212 10.038c-1.066-1.878-3.059-3.038-5.218-3.038s-4.152 1.16-5.218 3.038l-21 37c-1.054 1.858-1.042 4.135.033 5.981s3.049 2.981 5.185 2.981h42c2.136 0 4.11-1.135 5.185-2.981s1.087-4.123.033-5.981zm-2.609 1.481 21 37c.527.929.521 2.068-.016 2.991-.538.922-1.525 1.49-2.593 1.49h-42c-1.068 0-2.055-.568-2.593-1.49-.537-.923-.543-2.062-.016-2.991l21-37c.533-.939 1.529-1.519 2.609-1.519s2.076.58 2.609 1.519z" transform="matrix(28.565059 0 0 28.565059 -42.7349 -99.745)"/><circle id="circle2" cx="871.346988" cy="1199.965185" r="71.412648" stroke-width="28.565059"/><path id="path3" d="m32 23c1.38 0 2.5 1.12 2.5 2.5l-1.5 14.5h-2l-1.5-14.5c0-1.38 1.12-2.5 2.5-2.5z" transform="matrix(28.565059 0 0 28.565059 -42.7349 -99.745)"/></g></svg>