<svg height="1600" viewBox="0 0 1600 1600" width="1600" xmlns="http://www.w3.org/2000/svg" xmlns:inkscape="http://www.inkscape.org/namespaces/inkscape" xmlns:sodipodi="http://sodipodi.sourceforge.net/DTD/sodipodi-0.dtd"><sodipodi:namedview pagecolor="#303030" showgrid="true"><inkscape:grid id="grid5" units="px" spacingx="100" spacingy="100" color="#4772b3" opacity="0.2" visible="true" /></sodipodi:namedview><g fill="#fff"><g enable-background="new" transform="matrix(100 0 0 100 -25700 -3100)"><path d="m258.5 32a.50005.50005 0 0 0 -.5.5v13a.50005.50005 0 0 0 .5.5h13a.50005.50005 0 0 0 .5-.5v-4.5h-1v4h-12v-12h12v1h1v-1.5a.50005.50005 0 0 0 -.5-.5z" opacity=".6"/><path d="m261.5 35c-.67616-.0096-.67616 1.009563 0 1h10.5v-1zm0 2c-.67616-.0096-.67616 1.009563 0 1h10.5v-1zm0 2c-.67616-.0096-.67616 1.009563 0 1h10.5v-1z"/></g></g></svg>