<svg height="1600" viewBox="0 0 1600 1600" width="1600" xmlns="http://www.w3.org/2000/svg" xmlns:inkscape="http://www.inkscape.org/namespaces/inkscape" xmlns:sodipodi="http://sodipodi.sourceforge.net/DTD/sodipodi-0.dtd"><sodipodi:namedview pagecolor="#303030" showgrid="true"><inkscape:grid id="grid5" units="px" spacingx="100" spacingy="100" color="#4772b3" opacity="0.2" visible="true" /></sodipodi:namedview><g fill="#fff"><g enable-background="new" transform="matrix(100 0 0 100 -27800 -3100)"><path d="m279.5 32a.50005.50005 0 0 0 -.5.5v13a.50005.50005 0 0 0 .5.5h13a.50005.50005 0 0 0 .5-.5v-13a.50005.50005 0 0 0 -.5-.5zm.5 1h12v12h-12z" opacity=".6"/><path d="m282.56641 35a.50005.50005 0 1 0 -.008 1l4.9375.03125a.50005.50005 0 1 0 .008-1zm0 2a.50005.50005 0 1 0 -.008 1l3.9375.03125a.50005.50005 0 1 0 .008-1zm.004 2a.50006099.50006099 0 1 0 -.0156 1l1.9375.03125a.50006099.50006099 0 1 0 .0156-1zm-.006 2a.50005.50005 0 1 0 -.004 1l5.9375.03125a.50005.50005 0 1 0 .004-1z"/></g></g></svg>