<svg height="1600" viewBox="0 0 1600 1600" width="1600" xmlns="http://www.w3.org/2000/svg" xmlns:inkscape="http://www.inkscape.org/namespaces/inkscape" xmlns:sodipodi="http://sodipodi.sourceforge.net/DTD/sodipodi-0.dtd"><sodipodi:namedview pagecolor="#303030" showgrid="true"><inkscape:grid id="grid5" units="px" spacingx="100" spacingy="100" color="#4772b3" opacity="0.2" visible="true" /></sodipodi:namedview><g fill="#fff"><path d="m27.492188 598.99219a.50005.50005 0 0 0 -.5.5v9a.50005.50005 0 0 0 .5.5h13a.50005.50005 0 0 0 .5-.49805l.007812-3.49414-1-.002-.0059 2.99414h-12.001912v-8h8v3.5c.000029.27613.223869.49997.5.5h4c.44533-.00017.668305-.53852.353515-.85352l-4-4c-.09376-.0938-.22116-.14439-.353515-.14453v-.002h-.0078zm7.507812 11.00781-2 .004v1.98828h-2.507812c-.67616-.01-.67616 1.00956 0 1h7c.676159.01.676159-1.00956 0-1h-2.492188z" fill-rule="evenodd" transform="matrix(100 0 0 100 -2599.609 -59799.22200000001)"/></g></svg>