<svg height="1600" viewBox="0 0 1600 1600" width="1600" xmlns="http://www.w3.org/2000/svg" xmlns:inkscape="http://www.inkscape.org/namespaces/inkscape" xmlns:sodipodi="http://sodipodi.sourceforge.net/DTD/sodipodi-0.dtd"><sodipodi:namedview pagecolor="#303030" showgrid="true"><inkscape:grid id="grid5" units="px" spacingx="100" spacingy="100" color="#4772b3" opacity="0.2" visible="true" /></sodipodi:namedview><g fill="#fff"><path d="m103.49609 556.99023a.50005.50005 0 0 0 -.34375.15039l-1.57031 1.57032c-1.22858-1.06562-2.825838-1.7168-4.576171-1.7168-3.86007 0-7 3.13993-7 7 0 1.75033.649231 3.34954 1.714844 4.57813l-1.568359 1.56835a.50005.50005 0 1 0 .707031.70704l1.568359-1.56836c1.228585 1.06561 2.827793 1.71484 4.578125 1.71484 3.860071 0 7.000001-3.13993 7.000001-7 0-1.75033-.65118-3.34759-1.7168-4.57617l1.57032-1.57031a.50005.50005 0 0 0 -.36329-.85743zm-6.490231 1.00391c3.319631 0 6.000001 2.68037 6.000001 6s-2.68037 6-6.000001 6c-3.31963 0-6-2.68037-6-6 0-.88092.193846-1.71405.533203-2.4668l.466797.4668 1 1v2h2v1l1 1v2h.75 1.25l1-1 1.000001-1v-1l-1.000001-1h-2-1l-1-1h-1l1-1h1l2-2-1-1h-1l-1-1 .894532-.89453c.358617-.0666.727234-.10547 1.105468-.10547z" opacity=".99" transform="matrix(100 0 0 100 -8900.42999999999 -55599.566)"/></g></svg>