<svg height="1600" viewBox="0 0 1600 1600" width="1600" xmlns="http://www.w3.org/2000/svg" xmlns:inkscape="http://www.inkscape.org/namespaces/inkscape" xmlns:sodipodi="http://sodipodi.sourceforge.net/DTD/sodipodi-0.dtd"><sodipodi:namedview pagecolor="#303030" showgrid="true"><inkscape:grid id="grid5" units="px" spacingx="100" spacingy="100" color="#4772b3" opacity="0.2" visible="true" /></sodipodi:namedview><g fill="#fff"><g enable-background="new" transform="translate(-233 -365)"><path d="m1028 1556c-3.2833 0-6 2.4414-6 5.5 0 1.7056.9046 3.146 2.1523 4.3594l.9942.9941a.50004997.50004997 0 0 0 .3027.1485.50004997.50004997 0 0 0 .051.998h5a.50004997.50004997 0 0 0 .045-.998.50004997.50004997 0 0 0 .3086-.1485l.9981-.998c1.2122-1.1985 2.1465-2.6518 2.1465-4.3535 0-3.0586-2.7167-5.5-6-5.5zm0 1c2.7919 0 5 2.0358 5 4.5 0 1.3342-.7428 2.5488-1.8516 3.6445l-1 1a.50004997.50004997 0 0 0 .2793.8535h-4.8594a.50004997.50004997 0 0 0 .2871-.8535l-1-1a.50004997.50004997 0 0 0 -.01-.01c-1.1397-1.1082-1.8477-2.2864-1.8477-3.6406 0-2.4642 2.2081-4.5 5-4.5zm-2.5 12a.50004997.50004997 0 1 0 0 1h1.5v.5a.50004997.50004997 0 0 0 .5.5h1a.50004997.50004997 0 0 0 .5-.5v-.5h1.5a.50004997.50004997 0 1 0 0-1z"/><path d="m1025.4902 1561.0059a.50005.50005 0 0 0 -.3437.8476l.8535.8535v1.543a.50005.50005 0 1 0 1 0v-1.25h2v1.25a.50005.50005 0 1 0 1 0v-1.543l.8535-.8535a.50005.50005 0 0 0 -.707-.707l-.8535.8535h-2.586l-.8535-.8535a.50005.50005 0 0 0 -.3633-.1406z" opacity=".6"/></g><path d="m103.49609 556.99023a.50005.50005 0 0 0 -.34375.15039l-1.57031 1.57032c-1.22858-1.06562-2.825838-1.7168-4.576171-1.7168-3.86007 0-7 3.13993-7 7 0 1.75033.649231 3.34954 1.714844 4.57813l-1.568359 1.56835a.50005.50005 0 1 0 .707031.70704l1.568359-1.56836c1.228585 1.06561 2.827793 1.71484 4.578125 1.71484 3.860071 0 7.000001-3.13993 7.000001-7 0-1.75033-.65118-3.34759-1.7168-4.57617l1.57032-1.57031a.50005.50005 0 0 0 -.36329-.85743zm-6.490231 1.00391c3.319631 0 6.000001 2.68037 6.000001 6s-2.68037 6-6.000001 6c-3.31963 0-6-2.68037-6-6 0-.88092.193846-1.71405.533203-2.4668l.466797.4668 1 1v2h2v1l1 1v2h.75 1.25l1-1 1.000001-1v-1l-1.000001-1h-2-1l-1-1h-1l1-1h1l2-2-1-1h-1l-1-1 .894532-.89453c.358617-.0666.727234-.10547 1.105468-.10547z" opacity=".99" transform="matrix(100 0 0 100 -8900.42999999999 -55599.566)"/></g></svg>