<?xml version="1.0" encoding="UTF-8" standalone="no"?>
<svg
   height="1600"
   viewBox="0 0 1600 1600"
   width="1600"
   version="1.1"
   id="svg3"
   xmlns="http://www.w3.org/2000/svg"
   xmlns:svg="http://www.w3.org/2000/svg">
  <defs
     id="defs3" />
  <g
     fill="#fff"
     id="g3">
    <g
       enable-background="new"
       transform="matrix(100 0 0 100 -19395 -57704.999)"
       id="g2">
      <path
         d="m 201.49298,578 c 3.57273,0 6.5,2.92727 6.5,6.5 0,1.60752 -0.59683,3.08042 -1.57422,4.21875 l 2.42774,2.42773 a 0.50005,0.50005 0 1 1 -0.70704,0.70704 l -2.42578,-2.42579 c -1.13822,0.977 -2.61355,1.57227 -4.2207,1.57227 -3.57273,0 -6.5,-2.92728 -6.5,-6.5 0,-3.57273 2.92727,-6.5 6.5,-6.5 z m 0,1 c -3.02727,0 -5.5,2.47272 -5.5,5.5 0,3.02727 2.47273,5.5 5.5,5.5 3.02727,0 5.5,-2.47273 5.5,-5.5 0,-3.02728 -2.47273,-5.5 -5.5,-5.5 z m 0.008,1.99219 a 0.50005,0.50005 0 0 1 0.492,0.50781 v 2.5 h 2.5 a 0.50005,0.50005 0 1 1 0,1 h -2.5 v 2.5 a 0.50005,0.50005 0 1 1 -1,0 V 585 h -2.5 a 0.50005,0.50005 0 1 1 0,-1 h 2.5 v -2.5 a 0.50005,0.50005 0 0 1 0.50781,-0.50781 z"
         id="path1" />
      <path
         d="m193.95 577.04999h16v16h-16z"
         opacity="0"
         id="path2" />
    </g>
  </g>
</svg>
