<svg height="1600" viewBox="0 0 1600 1600" width="1600" xmlns="http://www.w3.org/2000/svg" xmlns:inkscape="http://www.inkscape.org/namespaces/inkscape" xmlns:sodipodi="http://sodipodi.sourceforge.net/DTD/sodipodi-0.dtd"><sodipodi:namedview pagecolor="#303030" showgrid="true"><inkscape:grid id="grid5" units="px" spacingx="100" spacingy="100" color="#4772b3" opacity="0.2" visible="true" /></sodipodi:namedview><g fill="#fff"><g enable-background="new" transform="translate(-233 -365)"><path d="m1028 1556c-3.2833 0-6 2.4414-6 5.5 0 1.7056.9046 3.146 2.1523 4.3594l.9942.9941a.50004997.50004997 0 0 0 .3027.1485.50004997.50004997 0 0 0 .051.998h5a.50004997.50004997 0 0 0 .045-.998.50004997.50004997 0 0 0 .3086-.1485l.9981-.998c1.2122-1.1985 2.1465-2.6518 2.1465-4.3535 0-3.0586-2.7167-5.5-6-5.5zm0 1c2.7919 0 5 2.0358 5 4.5 0 1.3342-.7428 2.5488-1.8516 3.6445l-1 1a.50004997.50004997 0 0 0 .2793.8535h-4.8594a.50004997.50004997 0 0 0 .2871-.8535l-1-1a.50004997.50004997 0 0 0 -.01-.01c-1.1397-1.1082-1.8477-2.2864-1.8477-3.6406 0-2.4642 2.2081-4.5 5-4.5zm-2.5 12a.50004997.50004997 0 1 0 0 1h1.5v.5a.50004997.50004997 0 0 0 .5.5h1a.50004997.50004997 0 0 0 .5-.5v-.5h1.5a.50004997.50004997 0 1 0 0-1z"/><path d="m1025.4902 1561.0059a.50005.50005 0 0 0 -.3437.8476l.8535.8535v1.543a.50005.50005 0 1 0 1 0v-1.25h2v1.25a.50005.50005 0 1 0 1 0v-1.543l.8535-.8535a.50005.50005 0 0 0 -.707-.707l-.8535.8535h-2.586l-.8535-.8535a.50005.50005 0 0 0 -.3633-.1406z" opacity=".6"/></g><g enable-background="new"><path d="m142 578c-2.19759 0-4 1.80241-4 4 0 .9193.32769 1.75955.85547 2.4375l-3.70899 3.70898a.50029086.50029086 0 1 0 .70704.70704l3.70898-3.70899c.67795.52778 1.5182.85547 2.4375.85547 2.19759 0 4-1.80241 4-4s-1.80241-4-4-4zm0 1c1.65213 0 3 1.34787 3 3s-1.34787 3-3 3c-1.65214 0-3-1.34787-3-3 0-1.65214 1.34786-3 3-3z" transform="matrix(100.000257139 0 0 100.000257139 -13099.96430467 -57700.065159)"/><path d="m135.48438 579c-.12718.004-.248.0564-.3379.14648l-3 3c-.31479.315-.0918.85335.35352.85352h3c.27613-.00003.49997-.22387.5-.5v-2.5h.5c.67616.01.67616-1.00956 0-1h-1v.002c-.005 0-.0101-.002-.0156-.002zm-3.48438 5v7.5c.00003.27613.22387.49997.5.5h9c.27613-.00003.49997-.22387.5-.5v-4c.01-.67616-1.00956-.67616-1 0v3.5h-8v-7z" fill-rule="evenodd" opacity=".6" transform="matrix(100 0 0 100 -13099.987 -57700.083)"/></g></g></svg>