<svg height="1600" viewBox="0 0 1600 1600" width="1600" xmlns="http://www.w3.org/2000/svg" xmlns:inkscape="http://www.inkscape.org/namespaces/inkscape" xmlns:sodipodi="http://sodipodi.sourceforge.net/DTD/sodipodi-0.dtd"><sodipodi:namedview pagecolor="#303030" showgrid="true"><inkscape:grid id="grid5" units="px" spacingx="100" spacingy="100" color="#4772b3" opacity="0.2" visible="true" /></sodipodi:namedview><g fill="#fff"><g enable-background="new" transform="translate(-233 -365)"><path d="m1028 1556c-3.2833 0-6 2.4414-6 5.5 0 1.7056.9046 3.146 2.1523 4.3594l.9942.9941a.50004997.50004997 0 0 0 .3027.1485.50004997.50004997 0 0 0 .051.998h5a.50004997.50004997 0 0 0 .045-.998.50004997.50004997 0 0 0 .3086-.1485l.9981-.998c1.2122-1.1985 2.1465-2.6518 2.1465-4.3535 0-3.0586-2.7167-5.5-6-5.5zm0 1c2.7919 0 5 2.0358 5 4.5 0 1.3342-.7428 2.5488-1.8516 3.6445l-1 1a.50004997.50004997 0 0 0 .2793.8535h-4.8594a.50004997.50004997 0 0 0 .2871-.8535l-1-1a.50004997.50004997 0 0 0 -.01-.01c-1.1397-1.1082-1.8477-2.2864-1.8477-3.6406 0-2.4642 2.2081-4.5 5-4.5zm-2.5 12a.50004997.50004997 0 1 0 0 1h1.5v.5a.50004997.50004997 0 0 0 .5.5h1a.50004997.50004997 0 0 0 .5-.5v-.5h1.5a.50004997.50004997 0 1 0 0-1z"/><path d="m1025.4902 1561.0059a.50005.50005 0 0 0 -.3437.8476l.8535.8535v1.543a.50005.50005 0 1 0 1 0v-1.25h2v1.25a.50005.50005 0 1 0 1 0v-1.543l.8535-.8535a.50005.50005 0 0 0 -.707-.707l-.8535.8535h-2.586l-.8535-.8535a.50005.50005 0 0 0 -.3633-.1406z" opacity=".6"/></g><g enable-background="new" transform="matrix(100 0 0 100 -15199.649 -57700.351)"><path d="m161.5 578c-3.02272 0-5.5 2.47726-5.5 5.5 0 1.3328.48165 2.55856 1.2793 3.51367l-4.13282 4.13281a.50005.50005 0 1 0 .70704.70704l4.13281-4.13282c.95511.79765 2.18087 1.2793 3.51367 1.2793 3.02273 0 5.5-2.47727 5.5-5.5 0-3.02274-2.47727-5.5-5.5-5.5zm0 1c2.47727 0 4.5 2.02272 4.5 4.5 0 2.47727-2.02273 4.5-4.5 4.5-2.47726 0-4.5-2.02273-4.5-4.5 0-2.47728 2.02274-4.5 4.5-4.5z"/><path d="m159.5 583c-.27613.00003-.49997.22387-.5.5v2.2168c-.00021.14132.0594.27613.16406.37109.61652.55704 1.43526.91211 2.33594.91211s1.71942-.35507 2.33594-.91211c.10467-.095.16427-.22977.16406-.37109v-2.2168c-.00003-.27613-.22387-.49997-.5-.5zm.97266 6.91992c-.2654.0146-.47303.2342-.47266.5v1.08008c.00003.27613.22387.49997.5.5h2c.27613-.00003.49997-.22387.5-.5v-1.08008c-.00041-.30465-.27082-.53814-.57227-.49414-.31225.0453-.61944.0742-.92773.0742s-.61548-.0289-.92773-.0742c-.0329-.005-.0663-.007-.0996-.006z"/></g></g></svg>