<?xml version="1.0" encoding="UTF-8" standalone="no"?>
<svg
   height="1600"
   viewBox="0 0 1600 1600"
   width="1600"
   version="1.1"
   id="svg3"
   xmlns="http://www.w3.org/2000/svg"
   xmlns:svg="http://www.w3.org/2000/svg">
  <defs
     id="defs3" />
  <g
     fill="#fff"
     id="g3">
    <g
       enable-background="new"
       transform="matrix(100 0 0 100 -17295 -57704.999)"
       id="g2">
      <path
         id="path1"
         style="display:inline"
         d="m 180.5,578.00001 c -3.57273,0 -6.5,2.92727 -6.5,6.5 -0.0523,3.05825 2.58588,6.5 6.5,6.5 1.35122,0 2.61011,-0.41873 3.65324,-1.13272 l 1.98621,1.98624 c 0.47127,0.49023 1.19728,-0.23579 0.70705,-0.70706 l -1.90914,-1.90912 C 186.20475,588.04898 187,586.36217 187,584.50001 c 0,-3.57273 -2.92727,-6.5 -6.5,-6.5 z m 0,1 c 2.85852,0 5.21992,2.20548 5.47461,5 h -6.26758 l 2.14649,-2.14648 c 0.32529,-0.31801 0.0914,-0.86994 -0.36329,-0.85745 -0.12976,0.004 -0.25303,0.0575 -0.34375,0.15039 l -2.95703,2.95706 c -0.26095,0.19951 -0.2619,0.59212 -0.002,0.79294 0.002,10e-4 0.004,0.003 0.006,0.004 l 2.9531,2.95312 c 0.47127,0.49023 1.19728,-0.23576 0.70705,-0.70703 L 179.70702,585 h 6.26758 c -0.25469,2.79451 -2.61609,5 -5.47461,5 -3.02727,0 -5.5,-2.47273 -5.5,-5.5 0,-3.02728 2.47273,-5.5 5.5,-5.5 z" />
      <path
         d="m 172.95,577.04999 h 16 v 16 h -16 z"
         opacity="0"
         id="path2"
         style="display:inline" />
    </g>
  </g>
</svg>
