<svg height="1600" viewBox="0 0 1600 1600" width="1600" xmlns="http://www.w3.org/2000/svg" xmlns:inkscape="http://www.inkscape.org/namespaces/inkscape" xmlns:sodipodi="http://sodipodi.sourceforge.net/DTD/sodipodi-0.dtd"><sodipodi:namedview pagecolor="#303030" showgrid="true"><inkscape:grid id="grid5" units="px" spacingx="100" spacingy="100" color="#4772b3" opacity="0.2" visible="true" /></sodipodi:namedview><g fill="#fff"><g enable-background="new" transform="matrix(100 0 0 100 -19395 -57704.999)"><path d="m202.5 578c-3.57273 0-6.5 2.92727-6.5 6.5 0 1.60752.59683 3.08042 1.57422 4.21875l-2.42774 2.42773a.50005.50005 0 1 0 .70704.70704l2.42578-2.42579c1.13822.977 2.61355 1.57227 4.2207 1.57227 3.57273 0 6.5-2.92728 6.5-6.5 0-3.57273-2.92727-6.5-6.5-6.5zm0 1c3.02727 0 5.5 2.47272 5.5 5.5 0 3.02727-2.47273 5.5-5.5 5.5s-5.5-2.47273-5.5-5.5c0-3.02728 2.47273-5.5 5.5-5.5zm-.008 1.99219a.50005.50005 0 0 0 -.492.50781v2.5h-2.5a.50005.50005 0 1 0 0 1h2.5v2.5a.50005.50005 0 1 0 1 0v-2.5h2.5a.50005.50005 0 1 0 0-1h-2.5v-2.5a.50005.50005 0 0 0 -.50781-.50781z"/><path d="m193.95 577.04999h16v16h-16z" opacity="0"/></g></g></svg>