<?xml version="1.0" encoding="UTF-8" standalone="no"?>
<svg
   height="1600"
   viewBox="0 0 1600 1600"
   width="1600"
   version="1.1"
   id="svg3"
   xmlns="http://www.w3.org/2000/svg"
   xmlns:svg="http://www.w3.org/2000/svg">
  <defs
     id="defs3" />
  <g
     fill="#fff"
     id="g3">
    <g
       enable-background="new"
       id="g2">
      <path
         d="m 560.547,100 c -15.153,0.4 -29.304,7.659 -38.477,19.7266 L 127.148,514.6484 c -31.479,31.5 -9.18,85.3346 35.352,85.3516 h 400 c 27.613,-0.003 49.997,-22.387 50,-50 V 200 h 600 l 0.8,249.3389 c -1,67.6161 100.956,67.6161 100,0 L 1312.5,150 c 0,-27.6131 -22.387,-49.9972 -50,-50 h -700 c -0.5,-0.006 -0.9,-0.006 -1.37,0 -0.067,0.002 -0.1,-0.002 -0.2,0 -0.1,0.004 -0.3,-0.005 -0.4,0 z M 112.5,700.0004 V 1450 c 0.003,27.6131 22.387,49.9972 50,50 h 425 c 67.616,0.96 67.616,-100.9563 0,-100 h -375 V 700.0004 Z"
         fill-rule="evenodd"
         opacity="0.6"
         id="path1-9"
         style="stroke-width:100" />
      <path
         d="m 997.371,585.4755 c 219.759,0 400.001,180.2415 400.001,400.0015 0,91.93 -32.769,175.955 -85.547,243.751 l 185.48,184.136 c 20.77,19.298 21.371,51.981 1.32,72.029 -20.048,20.047 -52.731,19.446 -72.028,-1.32 l -185.48,-184.138 c -67.795,52.778 -151.82,85.547 -243.75,85.547 -219.76,0 -400.001,-180.241 -400.001,-400.001 0,-219.76 180.241,-400.0015 400.001,-400.0015 z m 0,100.0005 c -165.214,0 -300.001,134.788 -300.001,300.001 0,165.213 134.787,300.001 300.001,300.001 165.214,0 300,-134.788 300,-300.001 0,-165.214 -134.786,-300.001 -300,-300.001 z"
         id="path1-2"
         style="stroke-width:100" />
    </g>
  </g>
</svg>
