<svg height="1600" viewBox="0 0 1600 1600" width="1600" xmlns="http://www.w3.org/2000/svg" xmlns:inkscape="http://www.inkscape.org/namespaces/inkscape" xmlns:sodipodi="http://sodipodi.sourceforge.net/DTD/sodipodi-0.dtd"><sodipodi:namedview pagecolor="#303030" showgrid="true"><inkscape:grid id="grid5" units="px" spacingx="100" spacingy="100" color="#4772b3" opacity="0.2" visible="true" /></sodipodi:namedview><g fill="#fff"><g enable-background="new" transform="matrix(100 0 0 100 -17295 -57704.999)"><path d="m181.5 578c-3.57273 0-6.5 2.92727-6.5 6.5 0 1.60752.59683 3.08042 1.57422 4.21875l-2.42774 2.42773a.50005.50005 0 1 0 .70704.70704l2.42578-2.42579c1.13822.977 2.61355 1.57227 4.2207 1.57227 3.57273 0 6.5-2.92728 6.5-6.5 0-3.57273-2.92727-6.5-6.5-6.5zm0 1c2.85852 0 5.21992 2.20548 5.47461 5h-6.26758l2.14649-2.14648c.32529-.31801.0914-.86992-.36329-.85743-.12976.004-.25303.0575-.34375.15039l-2.95703 2.95704c-.26095.19951-.26189.59214-.002.79296.002.001.004.003.006.004l2.95312 2.95313c.47127.49023 1.19727-.23577.70704-.70704l-2.14658-2.14657h6.26758c-.25469 2.79451-2.61609 5-5.47461 5-3.02727 0-5.5-2.47273-5.5-5.5 0-3.02728 2.47273-5.5 5.5-5.5z"/><path d="m172.95 577.04999h16v16h-16z" opacity="0"/></g></g></svg>