<svg height="1600" viewBox="0 0 1600 1600" width="1600" xmlns="http://www.w3.org/2000/svg" xmlns:inkscape="http://www.inkscape.org/namespaces/inkscape" xmlns:sodipodi="http://sodipodi.sourceforge.net/DTD/sodipodi-0.dtd"><sodipodi:namedview pagecolor="#303030" showgrid="true"><inkscape:grid id="grid5" units="px" spacingx="100" spacingy="100" color="#4772b3" opacity="0.2" visible="true" /></sodipodi:namedview><g fill="#fff"><g enable-background="new"><path d="m142 578c-2.19759 0-4 1.80241-4 4 0 .9193.32769 1.75955.85547 2.4375l-3.70899 3.70898a.50029086.50029086 0 1 0 .70704.70704l3.70898-3.70899c.67795.52778 1.5182.85547 2.4375.85547 2.19759 0 4-1.80241 4-4s-1.80241-4-4-4zm0 1c1.65213 0 3 1.34787 3 3s-1.34787 3-3 3c-1.65214 0-3-1.34787-3-3 0-1.65214 1.34786-3 3-3z" transform="matrix(100.000257139 0 0 100.000257139 -13099.96430467 -57700.065159)"/><path d="m135.48438 579c-.12718.004-.248.0564-.3379.14648l-3 3c-.31479.315-.0918.85335.35352.85352h3c.27613-.00003.49997-.22387.5-.5v-2.5h.5c.67616.01.67616-1.00956 0-1h-1v.002c-.005 0-.0101-.002-.0156-.002zm-3.48438 5v7.5c.00003.27613.22387.49997.5.5h9c.27613-.00003.49997-.22387.5-.5v-4c.01-.67616-1.00956-.67616-1 0v3.5h-8v-7z" fill-rule="evenodd" opacity=".6" transform="matrix(100 0 0 100 -13099.987 -57700.083)"/></g></g></svg>